<?xml version="1.0" standalone="no"?> <!DOCTYPE svg PUBLIC "-//W3C//DTD SVG 1.0//EN" "http://www.w3.org/TR/2001/REC-SVG-20010904/DTD/svg10.dtd" > <svg xmlns="http://www.w3.org/2000/svg" width="100%" height="100%">
<defs >
<font horiz-adv-x="523" ><font-face
    font-family="LG Smart"
    units-per-em="1000"
    panose-1="2 11 5 2 4 4 2 6 2 3"
    ascent="716"
    descent="-284"
    alphabetic="0" />
<missing-glyph horiz-adv-x="545" d="M74 659H471V0H74V659ZM421 614H123V44H421V614ZM248 209V234Q248 271 261 298T291 349T321 393T335 438Q335 465 317 482T264 499Q240 499 221 491T190 473L172 506Q213 538 264 538Q318 538 348 511T378 439Q378 409 365
386T335 340T305 292T291 234V209H248ZM295 120H246V161H295V120Z" />
<glyph unicode=" " glyph-name="space" horiz-adv-x="242" />
<glyph unicode="!" glyph-name="exclam" horiz-adv-x="224" d="M146 158H79L73 659H153L146 158ZM69 83H155V0H69V83Z" />
<glyph unicode="&quot;" glyph-name="quotedbl" horiz-adv-x="373" d="M78 463L66 687H145L132 463H78ZM239 463L227 687H306L293 463H239Z" />
<glyph unicode="#" glyph-name="numbersign" horiz-adv-x="524" d="M460 326H380V206H460V147H380V78H316V147H207V78H143V147H63V206H143V326H63V385H143V454H207V385H316V454H380V385H460V326ZM207 206H316V326H207V206Z" />
<glyph unicode="$" glyph-name="dollar" horiz-adv-x="524" d="M238 754H296V668Q398 665 473 629L446 569Q432 576 414 582T374 594Q357 598 338 600T296 604V362Q336 346 356 338T387 323Q408 311 426 298T457 266T478 224T486 167Q486 133 476 104T444 52T385
14T296 -8V-89H238V-10Q213 -9 189 -7T140 1Q86 11 42 34L71 95Q114 76 157 65Q174 61 194 59T238 55V300Q215 309 200 315T175 326T159 334T146 341Q100 365 74 399T48 497Q48 563 86 603T190 658L238 666V754ZM408 160Q408 192 394 215T347 256Q337 261 325 266T296
277V57Q344 64 376 89T408 160ZM167 577Q127 552 127 503Q127 470 142 447T192 404Q203 398 216 392T238 383V601Q195 596 167 577Z" />
<glyph unicode="%" glyph-name="percent" horiz-adv-x="724" d="M235 495Q235 556 220 589T168 623Q132 623 116 590T100 495Q100 435 116 403T168 370Q204 370 219 402T235 495ZM633 167Q633 227 618 261T567 295Q530 295 514 261T497 167Q497 107 513 75T567
42Q602 42 617 74T633 167ZM162 -29H84L562 694H640L162 -29ZM567 -8Q498 -8 467 40T435 167Q435 248 466 295T567 343Q633 343 663 296T694 167Q694 89 663 41T567 -8ZM168 321Q100 321 69 369T38 495Q38 576 68 624T168 672Q234 672 265 624T297 495Q297 417
266 369T168 321Z" />
<glyph unicode="&amp;" glyph-name="ampersand" horiz-adv-x="601" d="M590 0H495L429 73Q410 55 390 40T346 14Q297 -11 230 -11Q188 -11 153 -3T91 24T49 76T34 159Q34 239 80 288Q115 327 172 357Q161 371 152 384T135 411Q109 455 109 508Q109 583 158 626T292
669Q328 669 359 661T412 635T446 591T459 530Q459 470 425 431T333 363L283 339L430 177L452 211Q465 234 476 256T498 302L564 279Q536 221 507 172L476 126L590 0ZM147 259Q110 222 110 164Q110 106 143 79T232 52Q281 52 321 74Q353 93 385 122L216 308Q195
297 178 285T147 259ZM282 407Q327 428 354 454T382 522Q382 561 359 584T294 608Q237 608 212 582T186 510Q186 475 198 451T233 395L239 388L282 407Z" />
<glyph unicode="&apos;" glyph-name="quotesingle" horiz-adv-x="205" d="M75 463L63 687H142L129 463H75Z" />
<glyph unicode="(" glyph-name="parenleft" horiz-adv-x="325" d="M45 265Q45 348 59 412T99 530T160 630T239 724L289 682Q248 637 217 594T164 502T132 396T121 265Q121 191 132 133T164 26T217 -68T289 -157L239 -199Q196 -152 160 -105T99 -4T59 115T45 265Z" />
<glyph unicode=")" glyph-name="parenright" horiz-adv-x="325" d="M279 265Q279 181 265 116T225 -3T164 -104T86 -199L36 -157Q76 -111 107 -67T159 26T192 133T204 265Q204 338 193 395T161 501T109 593T36 682L86 724Q129 677 164 631T225 531T265 413T279 265Z" />
<glyph unicode="*" glyph-name="asterisk" horiz-adv-x="440" d="M299 323L221 446L143 323L79 367L174 480L37 515L60 588L192 535L182 677H259L249 535L381 588L404 515L266 480L362 367L299 323Z" />
<glyph unicode="+" glyph-name="plus" horiz-adv-x="563" d="M315 234V71H247V234H78V298H247V460H315V298H484V234H315Z" />
<glyph unicode="," glyph-name="comma" horiz-adv-x="180" d="M8 -114Q32 -65 43 -19T55 84H129Q128 9 110 -43T58 -145L8 -114Z" />
<glyph unicode="-" glyph-name="hyphen" horiz-adv-x="365" d="M308 200H58V266H308V200Z" />
<glyph unicode="." glyph-name="period" horiz-adv-x="182" d="M134 0H48V84H134V0Z" />
<glyph unicode="/" glyph-name="slash" horiz-adv-x="355" d="M272 684H346L82 -40H10L272 684Z" />
<glyph unicode="0" glyph-name="zero" horiz-adv-x="563" d="M276 -11Q209 -11 165 18T95 94T59 202T48 326Q48 394 59 456T98 565T171 641T285 669Q351 669 395 641T465 567T503 459T515 331Q515 262 503 200T463 91T389 17T276 -11ZM285 607Q240 606 210 585T161
527T134 439T126 326Q126 265 133 215T159 128T205 72T276 52Q321 52 352 72T402 130T429 218T437 331Q437 383 430 432T406 521T359 583T285 607Z" />
<glyph unicode="1" glyph-name="one" horiz-adv-x="563" d="M270 0V581L128 506L101 560L291 659H347V0H270Z" />
<glyph unicode="2" glyph-name="two" horiz-adv-x="563" d="M499 0H78V49L274 258Q310 297 334 328T374 385T395 434T402 480Q402 544 363 575T257 607Q208 607 167 592T92 559L64 615Q107 639 155 654T261 669Q310 669 351 658T421 624T467 566T483 482Q483 418
443 357T334 223L184 63H499V0Z" />
<glyph unicode="3" glyph-name="three" horiz-adv-x="563" d="M269 -11Q227 -11 193 -4T131 14T84 38T51 64L94 115Q106 105 123 95T161 75T209 60T268 54Q343 54 386 87T430 184Q430 248 385 280T259 313Q247 313 234 312T214 310V375H245Q316 375 361 403T406
494Q406 552 370 579T271 606Q245 606 221 600T176 585T138 566T109 548L76 600Q88 610 107 622T152 644T209 662T275 669Q378 669 432 628T486 499Q486 441 456 405T380 354Q440 337 475 295T511 184Q511 88 446 39T269 -11Z" />
<glyph unicode="4" glyph-name="four" horiz-adv-x="563" d="M432 659V209H518V148H432V0H356V148H32V196L313 659H432ZM356 209V596H348L119 209H356Z" />
<glyph unicode="5" glyph-name="five" horiz-adv-x="563" d="M110 347V659H463V596H188V409H232Q373 409 437 355T502 204Q500 98 438 44T260 -11Q225 -11 196 -5T142 12T100 35T68 58L112 112Q135 92 173 73T262 53Q338 53 379 90T421 199Q421 238 408 266T370
312T311 338T235 347H110Z" />
<glyph unicode="6" glyph-name="six" horiz-adv-x="563" d="M58 299Q58 383 75 451T127 568T217 643T347 670Q389 670 420 664T476 648L457 589Q436 596 409 601T352 607Q306 607 272 593T212 554T172 495T149 420Q144 397 143 373Q154 381 168 388T198 401Q239
417 298 417Q398 417 450 366T503 215Q503 109 446 50T286 -10Q174 -10 116 64T58 299ZM138 302Q138 255 143 210T165 130T211 73T287 51Q347 51 385 90T424 211Q424 284 388 318T285 352Q225 352 187 333Q160 320 138 304V302Z" />
<glyph unicode="7" glyph-name="seven" horiz-adv-x="563" d="M185 0L427 596H51V659H512V612L268 0H185Z" />
<glyph unicode="8" glyph-name="eight" horiz-adv-x="563" d="M395 341Q446 323 479 284T513 178Q513 84 454 37T282 -11Q170 -11 110 36T49 178Q49 241 83 282T168 341Q122 361 95 397T67 493Q67 578 123 623T282 669Q385 669 440 624T495 493Q495 435 468 398T395
341ZM431 182Q431 245 391 276T282 307Q210 307 171 276T131 182Q131 116 170 84T282 51Q351 51 391 83T431 182ZM414 486Q414 547 380 577T282 608Q218 608 183 578T147 486Q147 429 182 399T282 369Q345 369 379 399T414 486Z" />
<glyph unicode="9" glyph-name="nine" horiz-adv-x="563" d="M505 360Q505 276 488 208T436 91T346 16T216 -11Q174 -11 143 -5T87 11L106 70Q127 63 154 58T211 52Q257 52 291 66T350 105T390 164T414 239Q419 262 420 286Q409 278 395 271T365 258Q324 242 265
242Q165 242 113 293T60 444Q60 550 117 609T277 669Q389 669 447 595T505 360ZM425 357Q425 403 420 448T398 529T352 586T276 608Q216 608 178 569T139 448Q139 375 175 341T278 307Q338 307 376 326Q403 339 425 355V357Z" />
<glyph unicode=":" glyph-name="colon" horiz-adv-x="182" d="M134 373H48V457H134V373ZM134 0H48V84H134V0Z" />
<glyph unicode=";" glyph-name="semicolon" horiz-adv-x="182" d="M8 -114Q32 -65 43 -19T55 84H129Q128 9 110 -43T58 -145L8 -114ZM135 373H49V457H135V373Z" />
<glyph unicode="&lt;" glyph-name="less" horiz-adv-x="563" d="M387 -12L109 265L387 543L434 497L204 268L435 36L387 -12Z" />
<glyph unicode="=" glyph-name="equal" horiz-adv-x="563" d="M485 170H77V234H485V170ZM485 298H77V361H485V298Z" />
<glyph unicode="&gt;" glyph-name="greater" horiz-adv-x="563" d="M155 543L433 266L155 -12L108 34L338 263L107 495L155 543Z" />
<glyph unicode="?" glyph-name="question" horiz-adv-x="409" d="M211 0H127V83H211V0ZM131 158V205Q131 244 142 274T171 330T209 376T246 418T275 460T287 505Q287 548 258 576T172 604Q130 604 97 591T38 563L12 622Q43 641 86 655T182 669Q266 669 317 629T368
511Q368 476 356 449T326 399T286 354T247 309T216 258T204 196V158H131Z" />
<glyph unicode="@" glyph-name="at" horiz-adv-x="996" d="M557 469Q593 469 631 462T698 441L648 194Q646 179 643 164T640 134Q640 102 658 80T713 57Q757 57 789 76T842 130T873 210T883 309Q883 391 861 448T798 541T696 592T560 608Q456 608 374 577T235
487T148 341T118 143Q118 61 139 4T201 -90T299 -142T428 -159Q480 -159 520 -152T609 -131L626 -190Q581 -205 531 -214T426 -223Q335 -223 264 -202T144 -135T70 -21T44 143Q44 271 82 369T189 534T354 635T567 669Q657 669 729 649T852 586T930 473T957 307Q957
242 942 186T895 87T817 20T706 -5Q646 -5 612 23Q590 40 580 71L572 62Q546 31 507 10T413 -11Q375 -11 349 2T305 38T279 94T271 164Q271 318 344 393T557 469ZM612 405Q588 411 555 411Q448 411 398 347T347 172Q347 114 367 82T427 50Q466 50 496 67T549 117L564
139L621 402L612 405Z" />
<glyph unicode="A" glyph-name="A" horiz-adv-x="612" d="M520 0L450 193H159L91 0H8L248 659H361L604 0H520ZM299 596L181 258H427L308 596H299Z" />
<glyph unicode="B" glyph-name="B" horiz-adv-x="570" d="M405 351Q460 336 494 297T528 185Q528 135 511 100T463 43T394 11T313 0H73V659H303Q396 659 452 621T508 496Q508 382 405 351ZM427 484Q427 518 417 539T390 573T348 590T296 595H148V374H303Q366 374
396 403T427 484ZM301 64Q328 64 354 69T401 87T434 124T447 186Q447 257 409 284T309 312H148V64H301Z" />
<glyph unicode="C" glyph-name="C" horiz-adv-x="584" d="M326 -11Q177 -10 110 75T42 329Q42 418 62 482T121 588T215 649T339 669Q403 669 457 648T544 587L497 542Q469 572 433 589T341 606Q226 606 174 534T122 320Q122 191 171 123T329 55Q395 55 442 67T524
94L544 35Q507 17 449 3T326 -11Z" />
<glyph unicode="D" glyph-name="D" horiz-adv-x="621" d="M259 659Q336 659 395 641T495 584T557 481T578 326Q578 232 553 170T481 70T372 16T233 0H73V659H259ZM231 64Q295 64 344 76T428 120T479 205T497 339Q497 472 438 533T260 595H149V64H231Z" />
<glyph unicode="E" glyph-name="E" horiz-adv-x="528" d="M476 64V0H73V659H465V595H149V372H454V308H149V64H476Z" />
<glyph unicode="F" glyph-name="F" horiz-adv-x="492" d="M149 0H73V659H446V595H149V372H425V308H149V0Z" />
<glyph unicode="G" glyph-name="G" horiz-adv-x="633" d="M564 32Q522 15 462 2T333 -11Q181 -11 112 74T42 329Q42 418 63 482T123 588T219 649T346 669Q415 669 468 649T556 586L509 542Q481 571 443 589T348 607Q230 607 176 534T122 320Q122 190 173 122T336
53Q393 53 437 62Q451 65 464 68T489 75V272H324V336H564V32Z" />
<glyph unicode="H" glyph-name="H" horiz-adv-x="648" d="M575 659V0H497V298H149V0H73V659H149V363H497V659H575Z" />
<glyph unicode="I" glyph-name="I" horiz-adv-x="222" d="M73 659H149V0H73V659Z" />
<glyph unicode="J" glyph-name="J" horiz-adv-x="334" d="M187 659H264V190Q264 86 225 41T93 -5Q70 -5 48 -2T8 8L19 68Q35 63 52 61T88 58Q112 58 130 63T161 83T180 120T187 178V659Z" />
<glyph unicode="K" glyph-name="K" horiz-adv-x="551" d="M149 0H73V659H149V362H206L461 659H550L272 334L535 0H441L206 299H149V0Z" />
<glyph unicode="L" glyph-name="L" horiz-adv-x="457" d="M457 64V0H73V659H149V64H457Z" />
<glyph unicode="M" glyph-name="M" horiz-adv-x="797" d="M725 659V0H648V596H639L457 0H350L157 596H149V0H73V659H214L401 63H409L587 659H725Z" />
<glyph unicode="N" glyph-name="N" horiz-adv-x="673" d="M600 659V0H464L158 596H149V0H73V659H209L515 63H523V659H600Z" />
<glyph unicode="O" glyph-name="O" horiz-adv-x="639" d="M42 333Q42 507 111 588T331 669Q405 669 456 646T538 579T583 471T597 326Q597 153 527 71T307 -11Q232 -11 182 12T100 80T56 188T42 333ZM517 339Q517 394 509 443T480 528T424 586T333 607Q273 607
232 589T167 534T132 445T121 322Q121 265 129 216T158 131T214 74T304 53Q365 53 406 71T471 125T506 214T517 339Z" />
<glyph unicode="P" glyph-name="P" horiz-adv-x="550" d="M73 0V659H294Q403 659 459 611T515 465Q515 415 500 377T458 312T393 271T308 257H149V0H73ZM296 321Q360 321 398 355T437 465Q437 499 426 523T396 564T352 587T296 595H149V321H296Z" />
<glyph unicode="Q" glyph-name="Q" horiz-adv-x="639" d="M42 333Q42 505 112 587T333 669Q407 669 457 646T539 579T583 471T597 326Q597 235 576 172T516 66Q498 46 471 29L600 -94L542 -139L403 1Q359 -11 307 -11Q232 -11 182 12T100 80T56 188T42 333ZM517
339Q517 394 509 443T481 528T425 586T334 607Q273 607 232 589T167 534T132 445T121 322Q121 264 129 215T158 129T214 73T304 52Q365 52 406 70T471 124T506 214T517 339Z" />
<glyph unicode="R" glyph-name="R" horiz-adv-x="569" d="M73 0V659H299Q408 659 463 615T519 471Q519 387 474 341Q442 306 391 290L535 0H451L314 278H149V0H73ZM302 342Q366 342 402 371T439 471Q439 535 404 565T302 595H149V342H302Z" />
<glyph unicode="S" glyph-name="S" horiz-adv-x="520" d="M343 256Q323 265 297 275T244 295T190 317T142 341Q95 365 70 400T44 497Q44 541 62 573T111 627T185 658T277 669Q389 669 469 629L442 569Q414 582 372 594T278 606Q205 606 164 579T122 503Q122 470
137 447T187 405Q206 395 230 386T281 366T334 346T382 323Q403 311 421 298T452 266T474 224T482 167Q482 122 464 89T415 33T340 0T246 -11Q191 -11 136 0T38 34L67 95Q112 75 153 65T244 54Q325 54 365 83T405 160Q405 224 343 256Z" />
<glyph unicode="T" glyph-name="T" horiz-adv-x="493" d="M493 659V595H285V0H208V595H0V659H493Z" />
<glyph unicode="U" glyph-name="U" horiz-adv-x="621" d="M555 659V246Q555 109 492 49T302 -11Q180 -11 123 51T66 252V659H143V236Q143 192 151 158T178 101T227 65T301 52Q350 52 384 63T439 98T469 160T478 253V659H555Z" />
<glyph unicode="V" glyph-name="V" horiz-adv-x="559" d="M289 63L472 659H552L340 0H229L5 659H90L281 63H289Z" />
<glyph unicode="W" glyph-name="W" horiz-adv-x="922" d="M912 659L733 0H614L467 596H458L315 0H196L10 659H94L252 63H261L401 659H524L672 63H680L831 659H912Z" />
<glyph unicode="X" glyph-name="X" horiz-adv-x="584" d="M281 301L103 0H13L222 339L26 659H117L282 378H301L469 659H555L360 340L571 0H481L300 301H281Z" />
<glyph unicode="Y" glyph-name="Y" horiz-adv-x="547" d="M312 285V0H235V285L-1 659H91L270 362H278L458 659H548L312 285Z" />
<glyph unicode="Z" glyph-name="Z" horiz-adv-x="534" d="M500 607L117 64H499V0H22V52L406 596H47V659H500V607Z" />
<glyph unicode="[" glyph-name="bracketleft" horiz-adv-x="334" d="M286 -192H58V707H286V645H134V-129H286V-192Z" />
<glyph unicode="\" glyph-name="backslash" horiz-adv-x="355" d="M346 -40H273L10 684H82L346 -40Z" />
<glyph unicode="]" glyph-name="bracketright" horiz-adv-x="334" d="M48 -129H199V645H48V707H275V-192H48V-129Z" />
<glyph unicode="^" glyph-name="asciicircum" horiz-adv-x="446" d="M282 659L411 309H340L227 610H219L108 309H36L164 659H282Z" />
<glyph unicode="_" glyph-name="underscore" horiz-adv-x="422" d="M39 -43H383V-102H39V-43Z" />
<glyph unicode="`" glyph-name="grave" horiz-adv-x="524" d="M240 684L357 525H283L155 684H240Z" />
<glyph unicode="a" glyph-name="a" horiz-adv-x="464" d="M446 -2Q436 -4 433 -4H418Q383 -4 366 9T338 48Q313 25 274 7T180 -11Q138 -11 111 0T66 30T42 74T35 130Q35 172 49 198T90 241T151 263T230 269Q258 269 279 268T327 264V288Q327 322 322 345T305 382T271
402T216 409Q177 409 138 398T74 375L55 428Q90 444 136 456T236 469Q284 469 316 460T367 428T395 369T403 281V115Q403 80 413 67T446 54V-2ZM223 212Q161 212 138 193T114 133Q114 88 134 68T203 48Q236 48 269 62T327 97V207Q301 209 277 210T223 212Z" />
<glyph unicode="b" glyph-name="b" horiz-adv-x="497" d="M240 -11Q204 -11 177 -2Q156 2 126 18L119 0H63V681L139 692V430Q162 446 188 455Q228 469 271 469Q368 469 413 409T459 236Q459 182 447 137T409 59T341 8T240 -11ZM233 48Q304 48 342 91T380 236Q380
271 374 302T353 357T313 395T249 409Q209 409 177 392Q157 381 139 366V76Q179 48 233 48Z" />
<glyph unicode="c" glyph-name="c" horiz-adv-x="430" d="M404 26Q382 13 342 1T253 -11Q139 -11 89 49T39 222Q39 346 97 407T270 469Q313 469 351 455T411 415L365 370Q348 389 324 400T269 411Q194 411 155 365T116 219Q116 181 123 150T148 96T193 61T260
48Q300 48 330 56T387 77L404 26Z" />
<glyph unicode="d" glyph-name="d" horiz-adv-x="499" d="M226 -11Q129 -11 84 49T38 222Q38 276 50 321T88 399T156 450T257 469Q291 469 321 461Q340 456 359 446V681L434 692V117L442 0H376L367 32Q340 12 309 2Q274 -11 226 -11ZM264 411Q192 411 154 367T116
222Q116 187 122 156T143 101T183 63T248 49Q289 49 320 65Q330 70 339 76T359 91V382Q315 411 264 411Z" />
<glyph unicode="e" glyph-name="e" horiz-adv-x="472" d="M251 -11Q191 -11 151 4T86 49T50 124T39 232Q39 353 91 411T249 469Q306 469 342 452T398 406T426 335T434 246V210H117Q117 171 123 144Q137 90 170 70T262 49Q311 49 348 61T407 86L427 34Q416 26 397
18T353 4T303 -7T251 -11ZM355 266Q355 348 327 380T249 412Q192 412 163 387T122 310Q120 300 119 289T117 266H355Z" />
<glyph unicode="f" glyph-name="f" horiz-adv-x="325" d="M333 458V398H165V0H89V398H22V458H89V515Q89 566 101 600T135 654T187 683T256 692Q281 692 306 687T352 676L335 617Q302 630 259 630Q207 630 186 603T165 509V458H333Z" />
<glyph unicode="g" glyph-name="g" horiz-adv-x="498" d="M435 458V-22Q435 -78 420 -116T378 -179T311 -214T225 -225Q180 -225 144 -219T81 -203L101 -145Q123 -152 154 -158T224 -165Q252 -165 277 -159T320 -137T349 -95T360 -30V25Q331 9 301 -1T232 -11Q130
-11 85 49T39 221Q39 275 50 320T88 399T157 450T259 469Q295 469 321 461T372 442L377 458H435ZM360 386Q340 395 318 403T268 411Q190 411 154 366T117 221Q117 188 123 157T144 102T185 63T252 48Q283 48 308 57T360 84V386Z" />
<glyph unicode="h" glyph-name="h" horiz-adv-x="499" d="M366 0V278Q366 307 363 331T350 371T322 397T272 406Q246 406 222 399T174 380Q164 375 156 370T139 359V0H63V681L139 692V424Q162 439 191 450Q241 469 291 469Q337 469 366 458T412 424T435 370T442
295V0H366Z" />
<glyph unicode="i" glyph-name="i" horiz-adv-x="203" d="M62 647H139V567H62V647ZM63 458H139V0H63V458Z" />
<glyph unicode="j" glyph-name="j" horiz-adv-x="203" d="M-26 -165H-19Q7 -165 23 -160T48 -143T60 -109T63 -54V458H139V-34Q139 -82 134 -118T112 -177T65 -213T-16 -225H-26V-165ZM139 567H62V647H139V567Z" />
<glyph unicode="k" glyph-name="k" horiz-adv-x="459" d="M63 0V681L138 692V279H184L361 458H448L245 249L456 0H367L183 219H138V0H63Z" />
<glyph unicode="l" glyph-name="l" horiz-adv-x="209" d="M184 -3Q183 -4 175 -4Q173 -5 157 -5Q103 -5 83 25T63 116V681L138 692V117Q138 76 148 65T184 54V-3Z" />
<glyph unicode="m" glyph-name="m" horiz-adv-x="759" d="M126 458L129 419Q141 428 155 435T185 450Q229 469 278 469Q323 469 350 458T393 424L399 416Q427 437 461 450Q509 469 559 469Q603 469 630 458T674 424T695 370T701 295V0H626V278Q626 307 623 331T611
372T586 398T541 407Q516 407 493 400T448 381Q440 377 432 372T416 361Q418 346 419 330T420 295V0H344V278Q344 307 342 331T330 372T305 398T260 407Q211 407 167 381Q160 377 153 373T139 363V0H63V336L55 458H126Z" />
<glyph unicode="n" glyph-name="n" horiz-adv-x="499" d="M126 458L129 417Q158 436 191 450Q241 469 291 469Q337 469 366 458T412 424T435 370T442 295V0H366V278Q366 307 363 331T350 372T322 398T272 407Q246 407 222 400T174 381Q156 373 139 360V0H63V336L55
458H126Z" />
<glyph unicode="o" glyph-name="o" horiz-adv-x="506" d="M242 -11Q183 -11 144 5T82 53T49 129T39 231Q39 352 92 410T263 469Q321 469 360 453T423 405T457 328T467 226Q467 105 412 47T242 -11ZM242 48Q326 48 357 95T389 235Q389 271 384 303T364 359T326
398T263 412Q179 412 148 364T116 223Q116 186 121 154T141 99T179 62T242 48Z" />
<glyph unicode="p" glyph-name="p" horiz-adv-x="497" d="M121 458L129 425Q158 445 188 455Q228 469 271 469Q368 469 413 409T459 236Q459 182 447 137T409 59T341 8T240 -11Q204 -11 177 -2Q167 0 158 3T139 12V-214L63 -225V342L55 458H121ZM233 48Q304 48
342 91T380 236Q380 271 374 302T353 357T313 395T249 409Q209 409 177 392Q157 381 139 366V76Q179 48 233 48Z" />
<glyph unicode="q" glyph-name="q" horiz-adv-x="498" d="M257 469Q291 469 321 461Q343 455 372 440L377 458H434V-214L359 -225V27Q334 12 309 2Q274 -11 226 -11Q129 -11 84 49T38 222Q38 276 50 321T88 399T156 450T257 469ZM264 411Q192 411 154 367T116
222Q116 187 122 156T143 101T183 63T248 49Q289 49 320 65Q330 70 339 76T359 91V382Q315 411 264 411Z" />
<glyph unicode="r" glyph-name="r" horiz-adv-x="340" d="M123 458L131 395Q159 429 193 445Q238 469 285 469Q322 469 346 457L325 393Q305 403 272 403Q230 403 193 378Q179 369 167 357T141 331V0H65V333L54 458H123Z" />
<glyph unicode="s" glyph-name="s" horiz-adv-x="420" d="M167 286Q190 274 226 262T297 236Q336 221 361 196T387 121Q387 52 338 21T194 -11Q149 -11 107 -3T34 21L58 78Q82 65 117 57T195 49Q217 49 238 51T276 61T302 81T312 116Q312 159 256 180Q224 194
188 205T123 230Q87 244 64 268T41 338Q41 375 57 400T100 441T160 462T226 469Q278 469 316 461T379 442L355 385Q328 396 296 403T224 411Q164 411 140 392T115 348Q115 325 127 312T167 286Z" />
<glyph unicode="t" glyph-name="t" horiz-adv-x="364" d="M165 398V172Q165 142 167 120T179 82T205 59T253 51Q295 51 336 66L350 13Q322 1 291 -5T230 -11Q186 -11 159 1T116 34T96 84T90 146V396H12V450L90 458V554L165 567V458H338V398H165Z" />
<glyph unicode="u" glyph-name="u" horiz-adv-x="498" d="M435 122L443 0H372L367 40Q342 23 307 9Q253 -11 207 -11Q162 -11 133 0T88 33T65 87T58 164V458H133V180Q133 151 136 127T149 86T177 60T226 51Q252 51 276 58T323 76L360 97V458H435V122Z" />
<glyph unicode="v" glyph-name="v" horiz-adv-x="434" d="M222 58L354 458H432L268 0H162L2 458H84L213 58H222Z" />
<glyph unicode="w" glyph-name="w" horiz-adv-x="698" d="M404 458L497 58H506L611 458H687L556 0H445L352 400H343L250 0H138L11 458H89L192 58H200L292 458H404Z" />
<glyph unicode="x" glyph-name="x" horiz-adv-x="454" d="M218 203L95 0H13L159 236L14 458H100L219 268H234L351 458H433L291 236L440 0H355L234 203H218Z" />
<glyph unicode="y" glyph-name="y" horiz-adv-x="437" d="M6 458H90L222 94H231L353 458H431L256 -29Q240 -71 225 -107T188 -169T134 -210T53 -225Q41 -225 30 -224T10 -220L19 -162L35 -165Q38 -166 52 -166Q89 -166 109 -153T141 -122Q147 -114 153 -100T166
-70T179 -38T190 -6L6 458Z" />
<glyph unicode="z" glyph-name="z" horiz-adv-x="441" d="M412 408L121 61H414V0H27V50L318 398H39V458H412V408Z" />
<glyph unicode="{" glyph-name="braceleft" horiz-adv-x="349" d="M278 -185Q244 -185 214 -182T162 -164T126 -120T113 -40V135Q113 178 92 199T37 225V303Q70 308 91 328T113 393V577Q113 623 126 651T161 694T213 715T278 721H311V659H296Q237 659 214 638T190
560V399Q190 336 170 307T106 270V261Q147 249 168 222T190 133V-29Q190 -84 214 -103T296 -122H311V-185H278Z" />
<glyph unicode="|" glyph-name="bar" horiz-adv-x="200" d="M133 -186H67V718H133V-186Z" />
<glyph unicode="}" glyph-name="braceright" horiz-adv-x="349" d="M38 -185V-122H53Q108 -122 133 -103T159 -29V133Q159 195 180 222T243 261V270Q198 278 179 307T159 399V560Q159 616 136 637T53 659H38V721H70Q104 721 134 716T187 695T222 651T235 577V393Q235
348 256 328T311 303V225Q278 221 257 200T235 135V-40Q235 -91 222 -120T187 -163T134 -181T70 -185H38Z" />
<glyph unicode="~" glyph-name="asciitilde" horiz-adv-x="461" d="M35 259Q56 275 90 288T159 302Q182 302 201 296T236 282T269 268T303 262Q335 262 357 271T400 294L426 246Q401 226 370 213T302 200Q278 200 259 206T223 219T190 233T155 239Q127 239 104
231T58 210L35 259Z" />
<glyph unicode="&#xa0;" glyph-name="nbspace" horiz-adv-x="300" />
<glyph unicode="&#xa1;" glyph-name="exclamdown" horiz-adv-x="216" d="M149 375H65V458H149V375ZM74 300H141L148 -200H67L74 300Z" />
<glyph unicode="&#xa2;" glyph-name="cent" horiz-adv-x="444" d="M275 -92H219V-9Q120 0 78 59T35 222Q35 441 219 466V550H275V468Q317 466 352 452T408 414L363 369Q328 405 275 408V49Q309 51 335 58T383 76L401 26Q382 14 349 5T275 -10V-92ZM112 219Q112
152 136 108T219 51V405Q167 392 140 346T112 219Z" />
<glyph unicode="&#xa3;" glyph-name="sterling" horiz-adv-x="483" d="M342 669Q369 669 397 665T446 653L426 596Q406 602 387 605T344 609Q312 609 287 601T244 571T217 515T208 427V350H414V289H207V248Q207 185 190 141T136 63H439V0H44V55Q93 90 111 139T129
248V289H49V350H130V427Q130 500 146 547T190 621T258 658T342 669Z" />
<glyph unicode="&#xa4;" glyph-name="currency" horiz-adv-x="478" d="M34 114L100 180Q96 187 93 194T87 209Q77 235 77 273Q77 325 101 363L34 431L80 479L148 409Q188 433 246 433Q286 433 312 420L330 411L398 479L444 431L377 364Q381 357 384 350T390 335Q401
302 401 271Q401 218 376 181L444 114L398 67L328 135Q287 112 231 112Q195 112 162 123L145 132L80 67L34 114ZM231 174Q283 174 307 201T331 275Q331 313 311 341T246 370Q194 370 170 343T146 271Q146 231 165 203T231 174Z" />
<glyph unicode="&#xa5;" glyph-name="yen" horiz-adv-x="569" d="M506 196H323V0H246V196H63V250H246V285Q242 288 238 295T226 314H63V367H194L179 390Q155 429 128 472T76 554T33 621T10 659H102L281 362H289L469 659H559L375 367H506V314H341L323 285V250H506V196Z" />
<glyph unicode="&#xa6;" glyph-name="brokenbar" horiz-adv-x="200" d="M133 378H67V719H133V378ZM133 -187H67V154H133V-187Z" />
<glyph unicode="&#xa7;" glyph-name="section" horiz-adv-x="534" d="M337 10Q318 19 293 29T241 49T189 70T143 92Q122 104 105 117T76 146T58 184T51 235Q51 301 95 337Q123 359 153 369Q143 374 134 380T116 393Q90 413 76 440T62 510Q62 551 79 581T127 630T198
659T288 669Q398 669 473 632L447 573Q421 585 380 596T288 608Q216 608 176 584T136 515Q136 486 152 466T199 429Q217 420 240 411T289 391T341 371T390 349Q411 338 428 326T459 297T479 259T486 208Q486 141 439 103Q413 83 378 71Q424 49 448 19Q474 -13 474
-67Q474 -107 457 -136T410 -185T339 -214T248 -224Q194 -224 142 -214T51 -183L77 -123Q115 -142 156 -152T245 -162Q323 -162 362 -140T401 -75Q401 -48 387 -29T337 10ZM352 285Q333 295 308 304T255 324L223 337Q125 308 125 242Q125 213 139 192T184 154Q204
145 227 136T277 116L307 104Q359 119 382 139Q413 164 413 198Q413 225 400 245T352 285Z" />
<glyph unicode="&#xa8;" glyph-name="dieresis" horiz-adv-x="524" d="M211 567H135V647H211V567ZM387 567H312V647H387V567Z" />
<glyph unicode="&#xa9;" glyph-name="copyright" horiz-adv-x="795" d="M747 329Q747 249 721 186T649 79T538 12T396 -11Q320 -11 256 12T146 78T73 185T47 329Q47 411 73 474T145 581T256 647T396 669Q473 669 537 646T648 580T721 473T747 329ZM687 329Q687
396 666 449T607 540T516 596T396 616Q328 616 274 596T183 537T127 446T107 329Q107 263 127 210T186 120T277 63T396 43Q464 43 518 63T609 120T667 210T687 329ZM516 173Q497 161 465 153T394 144Q305 144 265 193T224 326Q224 519 407 519Q442 519 473 507T521
474L482 437Q455 467 406 467Q349 467 321 433T292 324Q292 269 319 232T401 194Q432 194 455 200T500 218L516 173Z" />
<glyph unicode="&#xaa;" glyph-name="ordfeminine" horiz-adv-x="370" d="M329 371Q323 369 316 369H311Q288 369 272 377T249 403Q233 388 212 376T155 364Q128 364 110 372T80 394T65 425T60 462Q60 515 96 537T188 559Q204 559 216 557T241 552V564Q241 585
239 598T229 617T210 626T179 629Q153 629 128 623T86 607L73 652Q96 663 126 671T192 679Q222 679 243 674T276 655T294 619T300 565V451Q300 429 307 421T329 412V371ZM184 512Q151 512 136 500T121 463Q121 436 134 426T170 415Q191 415 208 423T241 446V504Q226
508 214 510T184 512Z" />
<glyph unicode="&#xab;" glyph-name="guillemotleft" horiz-adv-x="467" d="M360 32L188 229L361 426L411 386L274 230L412 75L360 32ZM230 386L100 230L229 75L179 32L15 229L180 426L230 386Z" />
<glyph unicode="&#xac;" glyph-name="logicalnot" horiz-adv-x="617" d="M70 331H517V89H442V271H70V331Z" />
<glyph unicode="&#xae;" glyph-name="registered" horiz-adv-x="518" d="M489 487Q489 434 472 393T424 323T351 279T259 264Q209 264 167 279T95 322T47 392T29 487Q29 540 46 581T94 652T167 696T259 711Q309 711 351 696T424 652T472 582T489 487ZM440 487Q440
569 394 618T259 668Q171 668 125 619T78 487Q78 406 124 357T259 307Q347 307 393 356T440 487ZM307 369L260 464H223V369H173V609H264Q309 609 331 593T353 539Q353 489 310 470L361 369H307ZM263 502Q282 502 291 510T301 539Q301 570 263 570H223V502H263Z"
/>
<glyph unicode="&#xaf;" glyph-name="overscore" horiz-adv-x="524" d="M401 576H122V638H401V576Z" />
<glyph unicode="&#xb0;" glyph-name="degree" horiz-adv-x="335" d="M159 404Q91 404 61 442T31 537Q31 598 68 633T174 669Q242 669 272 631T303 535Q303 475 266 440T159 404ZM160 461Q205 461 223 481T242 538Q242 568 227 590T174 612Q131 612 112 591T93
535Q93 506 107 484T160 461Z" />
<glyph unicode="&#xb1;" glyph-name="plusminus" horiz-adv-x="563" d="M315 299V136H247V299H78V363H247V525H315V363H484V299H315ZM78 65H484V0H78V65Z" />
<glyph unicode="&#xb2;" glyph-name="twosuperior" horiz-adv-x="298" d="M32 318V351L145 466Q175 497 186 518T198 560Q198 587 181 601T134 616Q112 616 90 609T45 589L25 632Q80 663 141 663Q194 663 228 642T262 565Q262 532 241 502T187 440L115 365H270V318H32Z" />
<glyph unicode="&#xb3;" glyph-name="threesuperior" horiz-adv-x="298" d="M53 391Q67 380 89 371T141 362Q172 362 192 376T213 418Q213 445 193 459T136 473Q116 473 103 470V517H126Q139 517 153 520T178 529T196 545T203 569Q203 594 185 605T142 616Q115
616 94 608T57 587L35 627Q50 639 79 651T146 664Q201 664 232 644T263 575Q263 547 247 529T209 504Q238 495 257 474T276 418Q276 390 266 370T237 337T194 318T142 312Q100 312 71 324T23 353L53 391Z" />
<glyph unicode="&#xb4;" glyph-name="acute" horiz-adv-x="524" d="M368 684L240 525H166L283 684H368Z" />
<glyph unicode="&#xb5;" glyph-name="mu" horiz-adv-x="499" d="M133 -221H58V458H133V180Q133 151 136 128T149 87T177 61T227 51Q277 51 322 75Q343 87 361 99V458H437V122L444 0H374L369 39Q342 20 313 9Q262 -11 217 -11Q178 -11 155 -1Q145 3 130 11L133 -221Z" />
<glyph unicode="&#xb6;" glyph-name="paragraph" horiz-adv-x="556" d="M214 251Q161 251 127 266T74 308T47 371T39 448Q39 499 48 538T81 604T142 645T237 659H486V-214L424 -223V596H340V-214L277 -223V251H214Z" />
<glyph unicode="&#xb7;" glyph-name="middot" horiz-adv-x="182" d="M134 223H48V307H134V223Z" />
<glyph unicode="&#xb8;" glyph-name="cedilla" horiz-adv-x="524" d="M169 -158Q202 -171 239 -171Q274 -171 289 -162T305 -130Q305 -104 282 -94T198 -80L217 -32Q302 -35 339 -57T377 -130Q377 -179 347 -202T247 -225Q218 -225 193 -221T151 -207L169 -158Z" />
<glyph unicode="&#xb9;" glyph-name="onesuperior" horiz-adv-x="298" d="M132 318V600L62 565L42 604L151 659H192V318H132Z" />
<glyph unicode="&#xba;" glyph-name="ordmasculine" horiz-adv-x="392" d="M193 363Q154 363 129 374T88 405T67 455T60 522Q60 603 95 641T208 679Q247 679 272 668T313 637T335 586T342 519Q342 438 307 401T193 363ZM193 412Q246 412 263 439T281 525Q281 547
279 566T268 600T246 623T208 631Q155 631 138 603T121 517Q121 494 123 475T133 441T155 420T193 412Z" />
<glyph unicode="&#xbb;" glyph-name="guillemotright" horiz-adv-x="467" d="M123 426L295 229L122 32L72 72L209 228L71 383L123 426ZM253 72L383 228L254 383L304 426L468 229L303 32L253 72Z" />
<glyph unicode="&#xbc;" glyph-name="onequarter" horiz-adv-x="705" d="M608 342V109H645V63H608V0H551V63H384V99L524 342H608ZM551 109V279H548L450 109H551ZM58 -32L535 691H609L131 -32H58ZM135 318V601L65 565L45 606L154 660H195V318H135Z" />
<glyph unicode="&#xbd;" glyph-name="onehalf" horiz-adv-x="720" d="M48 -32L525 691H599L121 -32H48ZM135 318V601L65 565L45 606L154 660H195V318H135ZM427 0V34L539 147Q570 179 581 200T593 243Q593 269 576 283T530 298Q506 298 485 291T441 272L420 313Q447
328 476 337T535 346Q589 346 622 324T656 247Q656 213 635 184T583 121L509 47H665V0H427Z" />
<glyph unicode="&#xbe;" glyph-name="threequarters" horiz-adv-x="725" d="M628 342V109H665V63H628V0H571V63H404V99L544 342H628ZM571 109V279H568L470 109H571ZM100 -32L577 691H651L173 -32H100ZM154 311Q109 311 82 325T41 353L68 391Q82 382 102 373T153
363Q222 363 222 414Q222 444 203 457T144 470Q137 470 130 470T120 469V522H136Q171 522 190 533T209 573Q209 593 197 603T155 614Q129 614 111 607T77 588L54 626Q68 637 94 651T157 665Q267 665 267 575Q267 545 252 525T212 501Q243 496 261 474T280 414Q280
363 246 337T154 311Z" />
<glyph unicode="&#xbf;" glyph-name="questiondown" horiz-adv-x="409" d="M198 458H282V375H198V458ZM278 300V253Q278 214 267 184T238 128T200 82T163 40T134 -2T122 -47Q122 -90 151 -118T237 -146Q279 -146 312 -133T371 -105L397 -164Q366 -183 323 -197T227
-211Q143 -211 92 -171T41 -53Q41 -19 53 8T83 59T123 104T162 149T193 200T205 262V300H278Z" />
<glyph unicode="&#xc0;" glyph-name="Agrave" horiz-adv-x="612" d="M238 884L355 725H281L153 884H238ZM520 0L450 193H159L91 0H8L248 659H361L604 0H520ZM299 596L181 258H427L308 596H299Z" />
<glyph unicode="&#xc1;" glyph-name="Aacute" horiz-adv-x="612" d="M520 0L450 193H159L91 0H8L248 659H361L604 0H520ZM299 596L181 258H427L308 596H299ZM455 884L327 725H253L370 884H455Z" />
<glyph unicode="&#xc2;" glyph-name="Acircumflex" horiz-adv-x="612" d="M520 0L450 193H159L91 0H8L248 659H361L604 0H520ZM299 596L181 258H427L308 596H299ZM354 884L462 725H391L308 841H299L215 725H145L252 884H354Z" />
<glyph unicode="&#xc3;" glyph-name="Atilde" horiz-adv-x="612" d="M520 0L450 193H159L91 0H8L248 659H361L604 0H520ZM299 596L181 258H427L308 596H299ZM142 813Q160 829 186 841T240 853Q261 853 276 848T306 837T333 826T364 821Q385 821 403 828T440 847L463
799Q443 782 418 771T363 760Q343 760 327 765T297 776T269 788T239 793Q219 793 201 785T167 765L142 813Z" />
<glyph unicode="&#xc4;" glyph-name="Adieresis" horiz-adv-x="612" d="M520 0L450 193H159L91 0H8L248 659H361L604 0H520ZM299 596L181 258H427L308 596H299ZM252 767H176V847H252V767ZM428 767H353V847H428V767Z" />
<glyph unicode="&#xc5;" glyph-name="Aring" horiz-adv-x="612" d="M520 0L450 193H159L91 0H8L248 659H361L604 0H520ZM299 596L181 258H427L308 596H299ZM299 711Q246 711 225 737T204 805Q204 851 230 875T308 900Q361 900 382 873T403 804Q403 759 377 735T299
711ZM300 760Q328 760 338 771T349 807Q349 826 341 838T306 851Q280 851 269 840T257 804Q257 784 266 772T300 760Z" />
<glyph unicode="&#xc6;" glyph-name="AE" horiz-adv-x="895" d="M843 64V0H466L456 193H187L73 0H-12L388 659H835V595H513L525 372H822V308H529L541 64H843ZM428 595L225 258H453L437 595H428Z" />
<glyph unicode="&#xc7;" glyph-name="Ccedilla" horiz-adv-x="584" d="M326 -11Q177 -10 110 75T42 329Q42 418 62 482T121 588T215 649T339 669Q403 669 457 648T544 587L497 542Q469 572 433 589T341 606Q226 606 174 534T122 320Q122 191 171 123T329 55Q395
55 442 67T524 94L544 35Q507 17 449 3T326 -11ZM223 -158Q256 -171 293 -171Q328 -171 343 -162T359 -130Q359 -104 336 -94T252 -80L271 -32Q356 -35 393 -57T431 -130Q431 -179 401 -202T301 -225Q272 -225 247 -221T205 -207L223 -158Z" />
<glyph unicode="&#xc8;" glyph-name="Egrave" horiz-adv-x="528" d="M476 64V0H73V659H465V595H149V372H454V308H149V64H476ZM209 884L326 725H252L124 884H209Z" />
<glyph unicode="&#xc9;" glyph-name="Eacute" horiz-adv-x="528" d="M476 64V0H73V659H465V595H149V372H454V308H149V64H476ZM418 884L290 725H216L333 884H418Z" />
<glyph unicode="&#xca;" glyph-name="Ecircumflex" horiz-adv-x="528" d="M476 64V0H73V659H465V595H149V372H454V308H149V64H476ZM317 884L425 725H354L271 841H262L178 725H108L215 884H317Z" />
<glyph unicode="&#xcb;" glyph-name="Edieresis" horiz-adv-x="528" d="M476 64V0H73V659H465V595H149V372H454V308H149V64H476ZM215 762H139V842H215V762ZM391 762H316V842H391V762Z" />
<glyph unicode="&#xcc;" glyph-name="Igrave" horiz-adv-x="222" d="M73 659H149V0H73V659ZM53 884L170 725H96L-32 884H53Z" />
<glyph unicode="&#xcd;" glyph-name="Iacute" horiz-adv-x="222" d="M73 659H149V0H73V659ZM262 884L134 725H60L177 884H262Z" />
<glyph unicode="&#xce;" glyph-name="Icircumflex" horiz-adv-x="222" d="M73 659H149V0H73V659ZM162 884L270 725H199L116 841H107L23 725H-47L60 884H162Z" />
<glyph unicode="&#xcf;" glyph-name="Idieresis" horiz-adv-x="222" d="M73 659H149V0H73V659ZM63 762H-13V842H63V762ZM239 762H164V842H239V762Z" />
<glyph unicode="&#xd0;" glyph-name="Eth" horiz-adv-x="630" d="M268 659Q345 659 404 641T504 584T566 481T587 326Q587 232 562 170T490 70T381 16T242 0H82V304H15V368H82V659H268ZM240 64Q304 64 353 76T437 120T488 205T506 339Q506 472 447 533T269 595H158V368H315V304H158V64H240Z"
/>
<glyph unicode="&#xd1;" glyph-name="Ntilde" horiz-adv-x="673" d="M600 659V0H464L158 596H149V0H73V659H209L515 63H523V659H600ZM180 813Q198 829 224 841T278 853Q299 853 314 848T344 837T371 826T402 821Q423 821 441 828T478 847L501 799Q481 782 456
771T401 760Q381 760 365 765T335 776T307 788T277 793Q257 793 239 785T205 765L180 813Z" />
<glyph unicode="&#xd2;" glyph-name="Ograve" horiz-adv-x="639" d="M42 333Q42 507 111 588T331 669Q405 669 456 646T538 579T583 471T597 326Q597 153 527 71T307 -11Q232 -11 182 12T100 80T56 188T42 333ZM517 339Q517 394 509 443T480 528T424 586T333 607Q273
607 232 589T167 534T132 445T121 322Q121 265 129 216T158 131T214 74T304 53Q365 53 406 71T471 125T506 214T517 339ZM246 884L363 725H289L161 884H246Z" />
<glyph unicode="&#xd3;" glyph-name="Oacute" horiz-adv-x="639" d="M42 333Q42 507 111 588T331 669Q405 669 456 646T538 579T583 471T597 326Q597 153 527 71T307 -11Q232 -11 182 12T100 80T56 188T42 333ZM517 339Q517 394 509 443T480 528T424 586T333 607Q273
607 232 589T167 534T132 445T121 322Q121 265 129 216T158 131T214 74T304 53Q365 53 406 71T471 125T506 214T517 339ZM478 884L350 725H276L393 884H478Z" />
<glyph unicode="&#xd4;" glyph-name="Ocircumflex" horiz-adv-x="639" d="M42 333Q42 507 111 588T331 669Q405 669 456 646T538 579T583 471T597 326Q597 153 527 71T307 -11Q232 -11 182 12T100 80T56 188T42 333ZM517 339Q517 394 509 443T480 528T424 586T333
607Q273 607 232 589T167 534T132 445T121 322Q121 265 129 216T158 131T214 74T304 53Q365 53 406 71T471 125T506 214T517 339ZM376 884L484 725H413L330 841H321L237 725H167L274 884H376Z" />
<glyph unicode="&#xd5;" glyph-name="Otilde" horiz-adv-x="639" d="M42 333Q42 507 111 588T331 669Q405 669 456 646T538 579T583 471T597 326Q597 153 527 71T307 -11Q232 -11 182 12T100 80T56 188T42 333ZM517 339Q517 394 509 443T480 528T424 586T333 607Q273
607 232 589T167 534T132 445T121 322Q121 265 129 216T158 131T214 74T304 53Q365 53 406 71T471 125T506 214T517 339ZM166 813Q184 829 210 841T264 853Q285 853 300 848T330 837T357 826T388 821Q409 821 427 828T464 847L487 799Q467 782 442 771T387 760Q367
760 351 765T321 776T293 788T263 793Q243 793 225 785T191 765L166 813Z" />
<glyph unicode="&#xd6;" glyph-name="Odieresis" horiz-adv-x="639" d="M42 333Q42 507 111 588T331 669Q405 669 456 646T538 579T583 471T597 326Q597 153 527 71T307 -11Q232 -11 182 12T100 80T56 188T42 333ZM517 339Q517 394 509 443T480 528T424 586T333
607Q273 607 232 589T167 534T132 445T121 322Q121 265 129 216T158 131T214 74T304 53Q365 53 406 71T471 125T506 214T517 339ZM274 762H198V842H274V762ZM450 762H375V842H450V762Z" />
<glyph unicode="&#xd7;" glyph-name="multiply" horiz-adv-x="563" d="M439 61L282 218L125 61L77 109L233 265L77 422L125 471L282 314L439 471L486 422L329 265L486 109L439 61Z" />
<glyph unicode="&#xd8;" glyph-name="Oslash" horiz-adv-x="639" d="M42 333Q42 507 111 588T331 669Q402 669 456 646Q467 641 477 635T498 620L549 687L598 653L539 576Q555 554 565 528T583 470Q597 403 597 326Q597 153 527 71T307 -12Q232 -12 181 12Q157
22 136 39L87 -27L38 8L96 86Q68 128 55 188Q48 219 45 255T42 333ZM519 339Q519 367 517 392T511 443Q505 484 492 511L180 96Q188 88 196 82T213 70Q251 50 304 50Q365 50 406 68T473 123T508 214T519 339ZM425 587Q391 609 333 609Q273 609 232 590T166 535T131
445T120 322Q120 293 122 266T128 214Q131 198 135 183T145 151L456 563Q449 570 441 576T425 587Z" />
<glyph unicode="&#xd9;" glyph-name="Ugrave" horiz-adv-x="621" d="M555 659V246Q555 109 492 49T302 -11Q180 -11 123 51T66 252V659H143V236Q143 192 151 158T178 101T227 65T301 52Q350 52 384 63T439 98T469 160T478 253V659H555ZM250 884L367 725H293L165 884H250Z" />
<glyph unicode="&#xda;" glyph-name="Uacute" horiz-adv-x="621" d="M555 659V246Q555 109 492 49T302 -11Q180 -11 123 51T66 252V659H143V236Q143 192 151 158T178 101T227 65T301 52Q350 52 384 63T439 98T469 160T478 253V659H555ZM454 884L326 725H252L369 884H454Z" />
<glyph unicode="&#xdb;" glyph-name="Ucircumflex" horiz-adv-x="621" d="M555 659V246Q555 109 492 49T302 -11Q180 -11 123 51T66 252V659H143V236Q143 192 151 158T178 101T227 65T301 52Q350 52 384 63T439 98T469 160T478 253V659H555ZM359 884L467 725H396L313
841H304L220 725H150L257 884H359Z" />
<glyph unicode="&#xdc;" glyph-name="Udieresis" horiz-adv-x="621" d="M555 659V246Q555 109 492 49T302 -11Q180 -11 123 51T66 252V659H143V236Q143 192 151 158T178 101T227 65T301 52Q350 52 384 63T439 98T469 160T478 253V659H555ZM260 762H184V842H260V762ZM436
762H361V842H436V762Z" />
<glyph unicode="&#xdd;" glyph-name="Yacute" horiz-adv-x="547" d="M312 285V0H235V285L-1 659H91L270 362H278L458 659H548L312 285ZM428 884L300 725H226L343 884H428Z" />
<glyph unicode="&#xde;" glyph-name="Thorn" horiz-adv-x="547" d="M145 0H69V659H145V528H290Q511 528 511 334Q511 286 496 249T454 185T388 146T303 132H145V0ZM292 196Q356 196 394 229T432 334Q432 403 393 433T292 464H145V196H292Z" />
<glyph unicode="&#xdf;" glyph-name="germandbls" horiz-adv-x="531" d="M505 118Q505 52 462 21T340 -10Q298 -10 261 -2T196 19L219 77Q237 69 270 59T340 49Q382 49 406 63T431 109Q431 138 416 153T365 185Q363 186 354 190T333 198T312 207T302 212Q262 230
240 253T217 318Q217 355 237 384T309 448Q347 472 362 492T378 541Q378 562 370 577T348 603T316 617T278 622Q243 622 217 609T174 572T147 516T138 445V0H63V439Q63 503 79 549T124 625T193 669T283 684Q316 684 347 676T402 650T441 605T456 541Q456 493 427
462T347 398Q324 381 307 365T290 328Q290 307 302 296T340 272Q342 271 352 266T374 256T396 246T409 240Q451 222 478 194T505 118Z" />
<glyph unicode="&#xe0;" glyph-name="agrave" horiz-adv-x="463" d="M446 -2Q436 -4 433 -4H418Q383 -4 366 9T338 48Q313 25 274 7T180 -11Q138 -11 111 0T66 30T42 74T35 130Q35 172 49 198T90 241T151 263T230 269Q258 269 279 268T327 264V288Q327 322 322
345T305 382T271 402T216 409Q177 409 138 398T74 375L55 428Q90 444 136 456T236 469Q284 469 316 460T367 428T395 369T403 281V115Q403 80 413 67T446 54V-2ZM223 212Q161 212 138 193T114 133Q114 88 134 68T203 48Q236 48 269 62T327 97V207Q301 209 277 210T223
212ZM170 684L287 525H213L85 684H170Z" />
<glyph unicode="&#xe1;" glyph-name="aacute" horiz-adv-x="463" d="M446 -2Q436 -4 433 -4H418Q383 -4 366 9T338 48Q313 25 274 7T180 -11Q138 -11 111 0T66 30T42 74T35 130Q35 172 49 198T90 241T151 263T230 269Q258 269 279 268T327 264V288Q327 322 322
345T305 382T271 402T216 409Q177 409 138 398T74 375L55 428Q90 444 136 456T236 469Q284 469 316 460T367 428T395 369T403 281V115Q403 80 413 67T446 54V-2ZM223 212Q161 212 138 193T114 133Q114 88 134 68T203 48Q236 48 269 62T327 97V207Q301 209 277 210T223
212ZM361 684L233 525H159L276 684H361Z" />
<glyph unicode="&#xe2;" glyph-name="acircumflex" horiz-adv-x="463" d="M446 -2Q436 -4 433 -4H418Q383 -4 366 9T338 48Q313 25 274 7T180 -11Q138 -11 111 0T66 30T42 74T35 130Q35 172 49 198T90 241T151 263T230 269Q258 269 279 268T327 264V288Q327 322
322 345T305 382T271 402T216 409Q177 409 138 398T74 375L55 428Q90 444 136 456T236 469Q284 469 316 460T367 428T395 369T403 281V115Q403 80 413 67T446 54V-2ZM223 212Q161 212 138 193T114 133Q114 88 134 68T203 48Q236 48 269 62T327 97V207Q301 209 277
210T223 212ZM274 684L382 525H311L228 641H219L135 525H65L172 684H274Z" />
<glyph unicode="&#xe3;" glyph-name="atilde" horiz-adv-x="463" d="M446 -2Q436 -4 433 -4H418Q383 -4 366 9T338 48Q313 25 274 7T180 -11Q138 -11 111 0T66 30T42 74T35 130Q35 172 49 198T90 241T151 263T230 269Q258 269 279 268T327 264V288Q327 322 322
345T305 382T271 402T216 409Q177 409 138 398T74 375L55 428Q90 444 136 456T236 469Q284 469 316 460T367 428T395 369T403 281V115Q403 80 413 67T446 54V-2ZM223 212Q161 212 138 193T114 133Q114 88 134 68T203 48Q236 48 269 62T327 97V207Q301 209 277 210T223
212ZM55 613Q73 629 99 641T153 653Q174 653 189 648T219 637T246 626T277 621Q298 621 316 628T353 647L376 599Q356 582 331 571T276 560Q256 560 240 565T210 576T182 588T152 593Q132 593 114 585T80 565L55 613Z" />
<glyph unicode="&#xe4;" glyph-name="adieresis" horiz-adv-x="463" d="M446 -2Q436 -4 433 -4H418Q383 -4 366 9T338 48Q313 25 274 7T180 -11Q138 -11 111 0T66 30T42 74T35 130Q35 172 49 198T90 241T151 263T230 269Q258 269 279 268T327 264V288Q327 322
322 345T305 382T271 402T216 409Q177 409 138 398T74 375L55 428Q90 444 136 456T236 469Q284 469 316 460T367 428T395 369T403 281V115Q403 80 413 67T446 54V-2ZM223 212Q161 212 138 193T114 133Q114 88 134 68T203 48Q236 48 269 62T327 97V207Q301 209 277
210T223 212ZM173 567H97V647H173V567ZM349 567H274V647H349V567Z" />
<glyph unicode="&#xe5;" glyph-name="aring" horiz-adv-x="463" d="M446 -2Q436 -4 433 -4H418Q383 -4 366 9T338 48Q313 25 274 7T180 -11Q138 -11 111 0T66 30T42 74T35 130Q35 172 49 198T90 241T151 263T230 269Q258 269 279 268T327 264V288Q327 322 322
345T305 382T271 402T216 409Q177 409 138 398T74 375L55 428Q90 444 136 456T236 469Q284 469 316 460T367 428T395 369T403 281V115Q403 80 413 67T446 54V-2ZM223 212Q161 212 138 193T114 133Q114 88 134 68T203 48Q236 48 269 62T327 97V207Q301 209 277 210T223
212ZM222 523Q169 523 148 549T127 617Q127 663 153 687T231 712Q284 712 305 685T326 616Q326 571 300 547T222 523ZM223 572Q251 572 261 583T272 619Q272 638 264 650T229 663Q203 663 192 652T180 616Q180 596 189 584T223 572Z" />
<glyph unicode="&#xe6;" glyph-name="ae" horiz-adv-x="763" d="M718 34Q706 26 687 19T643 4T593 -7T541 -11Q420 -11 373 54Q344 31 298 10T185 -11Q145 -11 117 0T71 30T45 75T37 130Q37 170 51 196T92 238T154 259T232 265H330V287Q330 321 325 344T308 382T274
402T218 409Q178 409 139 398T75 375L56 428Q92 444 138 456T238 469Q297 469 330 454T380 400Q429 469 539 469Q595 469 631 452T687 406T716 335T724 246V210H406Q407 163 417 133T445 83T490 57T552 49Q601 49 638 61T698 86L718 34ZM206 48Q243 48 279 64T346
105Q338 127 336 153T330 210H224Q162 210 139 190T115 134Q115 89 135 69T206 48ZM538 412Q469 412 441 376T407 265H647Q647 348 618 380T538 412Z" />
<glyph unicode="&#xe7;" glyph-name="ccedilla" horiz-adv-x="430" d="M404 26Q382 13 342 1T253 -11Q139 -11 89 49T39 222Q39 346 97 407T270 469Q313 469 351 455T411 415L365 370Q348 389 324 400T269 411Q194 411 155 365T116 219Q116 181 123 150T148 96T193
61T260 48Q300 48 330 56T387 77L404 26ZM147 -158Q180 -171 217 -171Q252 -171 267 -162T283 -130Q283 -104 260 -94T176 -80L195 -32Q280 -35 317 -57T355 -130Q355 -179 325 -202T225 -225Q196 -225 171 -221T129 -207L147 -158Z" />
<glyph unicode="&#xe8;" glyph-name="egrave" horiz-adv-x="472" d="M251 -11Q191 -11 151 4T86 49T50 124T39 232Q39 353 91 411T249 469Q306 469 342 452T398 406T426 335T434 246V210H117Q117 171 123 144Q137 90 170 70T262 49Q311 49 348 61T407 86L427 34Q416
26 397 18T353 4T303 -7T251 -11ZM355 266Q355 348 327 380T249 412Q192 412 163 387T122 310Q120 300 119 289T117 266H355ZM203 684L320 525H246L118 684H203Z" />
<glyph unicode="&#xe9;" glyph-name="eacute" horiz-adv-x="472" d="M251 -11Q191 -11 151 4T86 49T50 124T39 232Q39 353 91 411T249 469Q306 469 342 452T398 406T426 335T434 246V210H117Q117 171 123 144Q137 90 170 70T262 49Q311 49 348 61T407 86L427 34Q416
26 397 18T353 4T303 -7T251 -11ZM355 266Q355 348 327 380T249 412Q192 412 163 387T122 310Q120 300 119 289T117 266H355ZM387 684L259 525H185L302 684H387Z" />
<glyph unicode="&#xea;" glyph-name="ecircumflex" horiz-adv-x="472" d="M251 -11Q191 -11 151 4T86 49T50 124T39 232Q39 353 91 411T249 469Q306 469 342 452T398 406T426 335T434 246V210H117Q117 171 123 144Q137 90 170 70T262 49Q311 49 348 61T407 86L427
34Q416 26 397 18T353 4T303 -7T251 -11ZM355 266Q355 348 327 380T249 412Q192 412 163 387T122 310Q120 300 119 289T117 266H355ZM301 684L409 525H338L255 641H246L162 525H92L199 684H301Z" />
<glyph unicode="&#xeb;" glyph-name="edieresis" horiz-adv-x="472" d="M251 -11Q191 -11 151 4T86 49T50 124T39 232Q39 353 91 411T249 469Q306 469 342 452T398 406T426 335T434 246V210H117Q117 171 123 144Q137 90 170 70T262 49Q311 49 348 61T407 86L427
34Q416 26 397 18T353 4T303 -7T251 -11ZM355 266Q355 348 327 380T249 412Q192 412 163 387T122 310Q120 300 119 289T117 266H355ZM193 567H117V647H193V567ZM369 567H294V647H369V567Z" />
<glyph unicode="&#xec;" glyph-name="igrave" horiz-adv-x="203" d="M63 684L180 525H106L-22 684H63ZM139 0H63V458H139V0Z" />
<glyph unicode="&#xed;" glyph-name="iacute" horiz-adv-x="203" d="M227 684L99 525H25L142 684H227ZM139 0H63V458H139V0Z" />
<glyph unicode="&#xee;" glyph-name="icircumflex" horiz-adv-x="203" d="M152 685L245 526H175L106 643H96L26 526H-41L51 685H152ZM139 0H63V458H139V0Z" />
<glyph unicode="&#xef;" glyph-name="idieresis" horiz-adv-x="203" d="M58 567H-12V647H58V567ZM210 567H140V647H210V567ZM139 0H63V458H139V0Z" />
<glyph unicode="&#xf0;" glyph-name="eth" horiz-adv-x="506" d="M252 -12Q194 -12 154 4T88 52T51 128T39 231Q39 349 93 409T250 469Q305 469 344 450L373 435Q361 478 337 513Q313 551 273 576L135 506L113 549L220 604Q194 615 163 623T95 636L106 693Q150
686 187 676T257 653Q265 650 272 647T287 639L396 694L419 651L336 608Q345 601 353 593T370 576Q418 528 442 453T467 268Q467 124 417 56T252 -12ZM341 389Q303 408 257 408Q180 408 148 361T116 223Q116 185 123 153T145 98T187 61T252 47Q294 47 321 62T363
104T385 171T391 258Q391 314 385 364Q375 371 364 377T341 389Z" />
<glyph unicode="&#xf1;" glyph-name="ntilde" horiz-adv-x="499" d="M126 458L129 417Q158 436 191 450Q241 469 291 469Q337 469 366 458T412 424T435 370T442 295V0H366V278Q366 307 363 331T350 372T322 398T272 407Q246 407 222 400T174 381Q156 373 139 360V0H63V336L55
458H126ZM94 613Q112 629 138 641T192 653Q213 653 228 648T258 637T285 626T316 621Q337 621 355 628T392 647L415 599Q395 582 370 571T315 560Q295 560 279 565T249 576T221 588T191 593Q171 593 153 585T119 565L94 613Z" />
<glyph unicode="&#xf2;" glyph-name="ograve" horiz-adv-x="506" d="M242 -11Q183 -11 144 5T82 53T49 129T39 231Q39 352 92 410T263 469Q321 469 360 453T423 405T457 328T467 226Q467 105 412 47T242 -11ZM242 48Q326 48 357 95T389 235Q389 271 384 303T364
359T326 398T263 412Q179 412 148 364T116 223Q116 186 121 154T141 99T179 62T242 48ZM204 684L321 525H247L119 684H204Z" />
<glyph unicode="&#xf3;" glyph-name="oacute" horiz-adv-x="506" d="M242 -11Q183 -11 144 5T82 53T49 129T39 231Q39 352 92 410T263 469Q321 469 360 453T423 405T457 328T467 226Q467 105 412 47T242 -11ZM242 48Q326 48 357 95T389 235Q389 271 384 303T364
359T326 398T263 412Q179 412 148 364T116 223Q116 186 121 154T141 99T179 62T242 48ZM404 684L276 525H202L319 684H404Z" />
<glyph unicode="&#xf4;" glyph-name="ocircumflex" horiz-adv-x="506" d="M242 -11Q183 -11 144 5T82 53T49 129T39 231Q39 352 92 410T263 469Q321 469 360 453T423 405T457 328T467 226Q467 105 412 47T242 -11ZM242 48Q326 48 357 95T389 235Q389 271 384 303T364
359T326 398T263 412Q179 412 148 364T116 223Q116 186 121 154T141 99T179 62T242 48ZM305 684L413 525H342L259 641H250L166 525H96L203 684H305Z" />
<glyph unicode="&#xf5;" glyph-name="otilde" horiz-adv-x="506" d="M242 -11Q183 -11 144 5T82 53T49 129T39 231Q39 352 92 410T263 469Q321 469 360 453T423 405T457 328T467 226Q467 105 412 47T242 -11ZM242 48Q326 48 357 95T389 235Q389 271 384 303T364
359T326 398T263 412Q179 412 148 364T116 223Q116 186 121 154T141 99T179 62T242 48ZM98 613Q116 629 142 641T196 653Q217 653 232 648T262 637T289 626T320 621Q341 621 359 628T396 647L419 599Q399 582 374 571T319 560Q299 560 283 565T253 576T225 588T195
593Q175 593 157 585T123 565L98 613Z" />
<glyph unicode="&#xf6;" glyph-name="odieresis" horiz-adv-x="506" d="M242 -11Q183 -11 144 5T82 53T49 129T39 231Q39 352 92 410T263 469Q321 469 360 453T423 405T457 328T467 226Q467 105 412 47T242 -11ZM242 48Q326 48 357 95T389 235Q389 271 384 303T364
359T326 398T263 412Q179 412 148 364T116 223Q116 186 121 154T141 99T179 62T242 48ZM204 567H128V647H204V567ZM380 567H305V647H380V567Z" />
<glyph unicode="&#xf7;" glyph-name="divide" horiz-adv-x="524" d="M304 360H220V444H304V360ZM220 171H304V87H220V171ZM60 297H464V234H60V297Z" />
<glyph unicode="&#xf8;" glyph-name="oslash" horiz-adv-x="506" d="M242 -12Q200 -12 171 -4T118 19L80 -27L31 14L74 64Q54 95 47 137T39 231Q39 352 92 410T263 469Q338 469 385 437L425 484L473 445L430 393Q450 362 458 320T467 226Q467 105 412 47T242 -12ZM242
44Q326 44 358 92T391 235Q391 262 388 286T376 331L158 71Q173 58 193 51T242 44ZM263 414Q179 414 147 365T114 223Q114 195 117 171T129 128L346 387Q330 399 311 406T263 414Z" />
<glyph unicode="&#xf9;" glyph-name="ugrave" horiz-adv-x="498" d="M435 122L443 0H372L367 40Q342 23 307 9Q253 -11 207 -11Q162 -11 133 0T88 33T65 87T58 164V458H133V180Q133 151 136 127T149 86T177 60T226 51Q252 51 276 58T323 76L360 97V458H435V122ZM180
684L297 525H223L95 684H180Z" />
<glyph unicode="&#xfa;" glyph-name="uacute" horiz-adv-x="498" d="M435 122L443 0H372L367 40Q342 23 307 9Q253 -11 207 -11Q162 -11 133 0T88 33T65 87T58 164V458H133V180Q133 151 136 127T149 86T177 60T226 51Q252 51 276 58T323 76L360 97V458H435V122ZM415
684L287 525H213L330 684H415Z" />
<glyph unicode="&#xfb;" glyph-name="ucircumflex" horiz-adv-x="498" d="M435 122L443 0H372L367 40Q342 23 307 9Q253 -11 207 -11Q162 -11 133 0T88 33T65 87T58 164V458H133V180Q133 151 136 127T149 86T177 60T226 51Q252 51 276 58T323 76L360 97V458H435V122ZM299
684L407 525H336L253 641H244L160 525H90L197 684H299Z" />
<glyph unicode="&#xfc;" glyph-name="udieresis" horiz-adv-x="498" d="M435 122L443 0H372L367 40Q342 23 307 9Q253 -11 207 -11Q162 -11 133 0T88 33T65 87T58 164V458H133V180Q133 151 136 127T149 86T177 60T226 51Q252 51 276 58T323 76L360 97V458H435V122ZM197
567H121V647H197V567ZM373 567H298V647H373V567Z" />
<glyph unicode="&#xfd;" glyph-name="yacute" horiz-adv-x="437" d="M6 458H90L222 94H231L353 458H431L256 -29Q240 -71 225 -107T188 -169T134 -210T53 -225Q41 -225 30 -224T10 -220L19 -162L35 -165Q38 -166 52 -166Q89 -166 109 -153T141 -122Q147 -114 153
-100T166 -70T179 -38T190 -6L6 458ZM391 684L263 525H189L306 684H391Z" />
<glyph unicode="&#xfe;" glyph-name="thorn" horiz-adv-x="497" d="M240 -11Q204 -11 177 -2Q168 0 159 3T139 11V-213L63 -223V681L139 692V430Q162 446 188 455Q228 469 271 469Q368 469 413 409T459 236Q459 182 447 137T409 59T341 8T240 -11ZM233 48Q304
48 342 91T380 236Q380 271 374 302T353 357T313 395T249 409Q209 409 177 392Q157 381 139 366V76Q179 48 233 48Z" />
<glyph unicode="&#xff;" glyph-name="ydieresis" horiz-adv-x="437" d="M6 458H90L222 94H231L353 458H431L256 -29Q240 -71 225 -107T188 -169T134 -210T53 -225Q41 -225 30 -224T10 -220L19 -162L35 -165Q38 -166 52 -166Q89 -166 109 -153T141 -122Q147 -114
153 -100T166 -70T179 -38T190 -6L6 458ZM170 567H94V647H170V567ZM346 567H271V647H346V567Z" />
<glyph unicode="&#x100;" glyph-name="Amacron" horiz-adv-x="612" d="M520 0L450 193H159L91 0H8L248 659H361L604 0H520ZM299 596L181 258H427L308 596H299ZM444 776H165V838H444V776Z" />
<glyph unicode="&#x101;" glyph-name="amacron" horiz-adv-x="463" d="M446 -2Q436 -4 433 -4H418Q383 -4 366 9T338 48Q313 25 274 7T180 -11Q138 -11 111 0T66 30T42 74T35 130Q35 172 49 198T90 241T151 263T230 269Q258 269 279 268T327 264V288Q327 322 322
345T305 382T271 402T216 409Q177 409 138 398T74 375L55 428Q90 444 136 456T236 469Q284 469 316 460T367 428T395 369T403 281V115Q403 80 413 67T446 54V-2ZM223 212Q161 212 138 193T114 133Q114 88 134 68T203 48Q236 48 269 62T327 97V207Q301 209 277 210T223
212ZM365 576H86V638H365V576Z" />
<glyph unicode="&#x102;" glyph-name="Abreve" horiz-adv-x="612" d="M520 0L450 193H159L91 0H8L248 659H361L604 0H520ZM299 596L181 258H427L308 596H299ZM452 883Q452 805 417 763T303 721Q225 721 190 763T155 883H216Q219 834 238 805T303 775Q350 775 369
804T390 883H452Z" />
<glyph unicode="&#x103;" glyph-name="abreve" horiz-adv-x="463" d="M446 -2Q436 -4 433 -4H418Q383 -4 366 9T338 48Q313 25 274 7T180 -11Q138 -11 111 0T66 30T42 74T35 130Q35 172 49 198T90 241T151 263T230 269Q258 269 279 268T327 264V288Q327 322 322
345T305 382T271 402T216 409Q177 409 138 398T74 375L55 428Q90 444 136 456T236 469Q284 469 316 460T367 428T395 369T403 281V115Q403 80 413 67T446 54V-2ZM223 212Q161 212 138 193T114 133Q114 88 134 68T203 48Q236 48 269 62T327 97V207Q301 209 277 210T223
212ZM368 684Q368 606 333 564T219 522Q141 522 106 564T71 684H132Q135 635 154 606T219 576Q266 576 285 605T306 684H368Z" />
<glyph unicode="&#x104;" glyph-name="Aogonek" horiz-adv-x="612" d="M612 -208Q597 -213 575 -217T529 -222Q469 -222 444 -199T418 -130Q418 -99 433 -72T494 -14Q499 -10 505 -6T519 1L450 193H159L91 0H8L248 659H361L604 0Q589 -8 574 -17T543 -38Q511 -62
502 -80T492 -120Q492 -167 544 -167Q572 -167 598 -158L612 -208ZM299 596L181 258H427L308 596H299Z" />
<glyph unicode="&#x105;" glyph-name="aogonek" horiz-adv-x="463" d="M459 -208Q444 -213 422 -217T376 -222Q316 -222 291 -199T265 -130Q265 -99 281 -71T346 -13Q354 -8 361 -4T375 4Q361 10 353 21T338 48Q313 25 274 7T180 -11Q138 -11 111 0T66 30T42 74T35
130Q35 172 49 198T90 241T151 263T230 269Q258 269 279 268T327 264V288Q327 322 322 345T305 382T271 402T216 409Q177 409 138 398T74 375L55 428Q90 444 136 456T236 469Q284 469 316 460T367 428T395 369T403 281V115Q403 80 413 67T446 54V-2Q428 -14 412
-24T382 -43Q354 -65 347 -82T339 -120Q339 -167 391 -167Q419 -167 445 -158L459 -208ZM223 212Q161 212 138 193T114 133Q114 88 134 68T203 48Q236 48 269 62T327 97V207Q301 209 277 210T223 212Z" />
<glyph unicode="&#x106;" glyph-name="Cacute" horiz-adv-x="584" d="M326 -11Q177 -10 110 75T42 329Q42 418 62 482T121 588T215 649T339 669Q403 669 457 648T544 587L497 542Q469 572 433 589T341 606Q226 606 174 534T122 320Q122 191 171 123T329 55Q395
55 442 67T524 94L544 35Q507 17 449 3T326 -11ZM488 884L360 725H286L403 884H488Z" />
<glyph unicode="&#x107;" glyph-name="cacute" horiz-adv-x="430" d="M404 26Q382 13 342 1T253 -11Q139 -11 89 49T39 222Q39 346 97 407T270 469Q313 469 351 455T411 415L365 370Q348 389 324 400T269 411Q194 411 155 365T116 219Q116 181 123 150T148 96T193
61T260 48Q300 48 330 56T387 77L404 26ZM383 684L255 525H181L298 684H383Z" />
<glyph unicode="&#x108;" glyph-name="Ccircumflex" horiz-adv-x="584" d="M326 -11Q177 -10 110 75T42 329Q42 418 62 482T121 588T215 649T339 669Q403 669 457 648T544 587L497 542Q469 572 433 589T341 606Q226 606 174 534T122 320Q122 191 171 123T329 55Q395
55 442 67T524 94L544 35Q507 17 449 3T326 -11ZM383 884L491 725H420L337 841H328L244 725H174L281 884H383Z" />
<glyph unicode="&#x109;" glyph-name="ccircumflex" horiz-adv-x="430" d="M404 26Q382 13 342 1T253 -11Q139 -11 89 49T39 222Q39 346 97 407T270 469Q313 469 351 455T411 415L365 370Q348 389 324 400T269 411Q194 411 155 365T116 219Q116 181 123 150T148
96T193 61T260 48Q300 48 330 56T387 77L404 26ZM303 684L411 525H340L257 641H248L164 525H94L201 684H303Z" />
<glyph unicode="&#x10a;" glyph-name="Cdotaccent" horiz-adv-x="584" d="M326 -11Q177 -10 110 75T42 329Q42 418 62 482T121 588T215 649T339 669Q403 669 457 648T544 587L497 542Q469 572 433 589T341 606Q226 606 174 534T122 320Q122 191 171 123T329 55Q395
55 442 67T524 94L544 35Q507 17 449 3T326 -11ZM369 767H292V847H369V767Z" />
<glyph unicode="&#x10b;" glyph-name="cdotaccent" horiz-adv-x="430" d="M404 26Q382 13 342 1T253 -11Q139 -11 89 49T39 222Q39 346 97 407T270 469Q313 469 351 455T411 415L365 370Q348 389 324 400T269 411Q194 411 155 365T116 219Q116 181 123 150T148
96T193 61T260 48Q300 48 330 56T387 77L404 26ZM292 567H215V647H292V567Z" />
<glyph unicode="&#x10c;" glyph-name="Ccaron" horiz-adv-x="584" d="M326 -11Q177 -10 110 75T42 329Q42 418 62 482T121 588T215 649T339 669Q403 669 457 648T544 587L497 542Q469 572 433 589T341 606Q226 606 174 534T122 320Q122 191 171 123T329 55Q395
55 442 67T524 94L544 35Q507 17 449 3T326 -11ZM284 725L176 884H248L331 767H341L423 884H493L386 725H284Z" />
<glyph unicode="&#x10d;" glyph-name="ccaron" horiz-adv-x="430" d="M404 26Q382 13 342 1T253 -11Q139 -11 89 49T39 222Q39 346 97 407T270 469Q313 469 351 455T411 415L365 370Q348 389 324 400T269 411Q194 411 155 365T116 219Q116 181 123 150T148 96T193
61T260 48Q300 48 330 56T387 77L404 26ZM204 525L96 684H168L251 567H261L343 684H413L306 525H204Z" />
<glyph unicode="&#x10e;" glyph-name="Dcaron" horiz-adv-x="621" d="M259 659Q336 659 395 641T495 584T557 481T578 326Q578 232 553 170T481 70T372 16T233 0H73V659H259ZM231 64Q295 64 344 76T428 120T479 205T497 339Q497 472 438 533T260 595H149V64H231ZM241
725L133 884H205L288 767H298L380 884H450L343 725H241Z" />
<glyph unicode="&#x10f;" glyph-name="dcaron" horiz-adv-x="625" d="M552 520H497L529 688H607L552 520ZM226 -11Q129 -11 84 49T38 222Q38 276 50 321T88 399T156 450T257 469Q291 469 321 461Q340 456 359 446V681L434 692V117L442 0H376L367 32Q340 12 309
2Q274 -11 226 -11ZM264 411Q192 411 154 367T116 222Q116 187 122 156T143 101T183 63T248 49Q289 49 320 65Q330 70 339 76T359 91V382Q315 411 264 411Z" />
<glyph unicode="&#x110;" glyph-name="Dcroat" horiz-adv-x="630" d="M268 659Q345 659 404 641T504 584T566 481T587 326Q587 232 562 170T490 70T381 16T242 0H82V304H15V368H82V659H268ZM240 64Q304 64 353 76T437 120T488 205T506 339Q506 472 447 533T269
595H158V368H315V304H158V64H240Z" />
<glyph unicode="&#x111;" glyph-name="" horiz-adv-x="499" d="M226 -11Q129 -11 84 49T38 222Q38 276 50 321T88 399T156 450T257 469Q291 469 321 461Q340 456 359 446V538H221V597H359V681L434 692V597H504V538H434V117L442 0H376L367 32Q340 12 309 2Q274
-11 226 -11ZM264 411Q192 411 154 367T116 222Q116 187 122 156T143 101T183 63T248 49Q289 49 320 65Q330 70 339 76T359 91V382Q315 411 264 411Z" />
<glyph unicode="&#x112;" glyph-name="Emacron" horiz-adv-x="528" d="M476 64V0H73V659H465V595H149V372H454V308H149V64H476ZM410 776H131V838H410V776Z" />
<glyph unicode="&#x113;" glyph-name="emacron" horiz-adv-x="472" d="M251 -11Q191 -11 151 4T86 49T50 124T39 232Q39 353 91 411T249 469Q306 469 342 452T398 406T426 335T434 246V210H117Q117 171 123 144Q137 90 170 70T262 49Q311 49 348 61T407 86L427
34Q416 26 397 18T353 4T303 -7T251 -11ZM355 266Q355 348 327 380T249 412Q192 412 163 387T122 310Q120 300 119 289T117 266H355ZM387 576H108V638H387V576Z" />
<glyph unicode="&#x114;" glyph-name="Ebreve" horiz-adv-x="528" d="M476 64V0H73V659H465V595H149V372H454V308H149V64H476ZM412 869Q412 791 377 749T263 707Q185 707 150 749T115 869H176Q179 820 198 791T263 761Q310 761 329 790T350 869H412Z" />
<glyph unicode="&#x115;" glyph-name="ebreve" horiz-adv-x="472" d="M251 -11Q191 -11 151 4T86 49T50 124T39 232Q39 353 91 411T249 469Q306 469 342 452T398 406T426 335T434 246V210H117Q117 171 123 144Q137 90 170 70T262 49Q311 49 348 61T407 86L427
34Q416 26 397 18T353 4T303 -7T251 -11ZM355 266Q355 348 327 380T249 412Q192 412 163 387T122 310Q120 300 119 289T117 266H355ZM385 684Q385 606 350 564T236 522Q158 522 123 564T88 684H149Q152 635 171 606T236 576Q283 576 302 605T323 684H385Z" />
<glyph unicode="&#x116;" glyph-name="Edotaccent" horiz-adv-x="528" d="M476 64V0H73V659H465V595H149V372H454V308H149V64H476ZM312 767H235V847H312V767Z" />
<glyph unicode="&#x117;" glyph-name="edotaccent" horiz-adv-x="472" d="M251 -11Q191 -11 151 4T86 49T50 124T39 232Q39 353 91 411T249 469Q306 469 342 452T398 406T426 335T434 246V210H117Q117 171 123 144Q137 90 170 70T262 49Q311 49 348 61T407 86L427
34Q416 26 397 18T353 4T303 -7T251 -11ZM355 266Q355 348 327 380T249 412Q192 412 163 387T122 310Q120 300 119 289T117 266H355ZM278 567H201V647H278V567Z" />
<glyph unicode="&#x118;" glyph-name="Eogonek" horiz-adv-x="528" d="M486 -208Q471 -213 449 -217T402 -222Q342 -222 317 -199T292 -130Q292 -99 308 -72T370 -14Q383 -4 394 0H73V659H465V595H149V372H454V308H149V64H476V0H474Q437 -20 415 -39Q385 -63 376
-81T366 -120Q366 -167 418 -167Q446 -167 472 -158L486 -208Z" />
<glyph unicode="&#x119;" glyph-name="eogonek" horiz-adv-x="472" d="M383 -208Q368 -213 346 -217T300 -222Q242 -222 216 -198T190 -129Q190 -90 208 -64T262 -16L270 -10Q265 -11 261 -11T251 -11Q191 -11 151 4T86 49T50 124T39 232Q39 353 91 411T249 469Q306
469 342 452T398 406T426 335T434 246V210H117Q118 163 127 133T154 83T199 57T262 49Q311 49 348 62T407 86L427 34Q395 18 369 4T321 -25Q263 -65 263 -115Q263 -138 275 -152T315 -167Q343 -167 369 -158L383 -208ZM355 266Q355 348 327 380T249 412Q180 412
151 377T118 266H355Z" />
<glyph unicode="&#x11a;" glyph-name="Ecaron" horiz-adv-x="528" d="M476 64V0H73V659H465V595H149V372H454V308H149V64H476ZM217 725L109 884H181L264 767H274L356 884H426L319 725H217Z" />
<glyph unicode="&#x11b;" glyph-name="ecaron" horiz-adv-x="472" d="M251 -11Q191 -11 151 4T86 49T50 124T39 232Q39 353 91 411T249 469Q306 469 342 452T398 406T426 335T434 246V210H117Q117 171 123 144Q137 90 170 70T262 49Q311 49 348 61T407 86L427
34Q416 26 397 18T353 4T303 -7T251 -11ZM355 266Q355 348 327 380T249 412Q192 412 163 387T122 310Q120 300 119 289T117 266H355ZM191 525L83 684H155L238 567H248L330 684H400L293 525H191Z" />
<glyph unicode="&#x11c;" glyph-name="Gcircumflex" horiz-adv-x="633" d="M564 32Q522 15 462 2T333 -11Q181 -11 112 74T42 329Q42 418 63 482T123 588T219 649T346 669Q415 669 468 649T556 586L509 542Q481 571 443 589T348 607Q230 607 176 534T122 320Q122
190 173 122T336 53Q393 53 437 62Q451 65 464 68T489 75V272H324V336H564V32ZM386 884L494 725H423L340 841H331L247 725H177L284 884H386Z" />
<glyph unicode="&#x11d;" glyph-name="gcircumflex" horiz-adv-x="498" d="M435 458V-22Q435 -78 420 -116T378 -179T311 -214T225 -225Q180 -225 144 -219T81 -203L101 -145Q123 -152 154 -158T224 -165Q252 -165 277 -159T320 -137T349 -95T360 -30V25Q331 9
301 -1T232 -11Q130 -11 85 49T39 221Q39 275 50 320T88 399T157 450T259 469Q295 469 321 461T372 442L377 458H435ZM360 386Q340 395 318 403T268 411Q190 411 154 366T117 221Q117 188 123 157T144 102T185 63T252 48Q283 48 308 57T360 84V386ZM307 684L415
525H344L261 641H252L168 525H98L205 684H307Z" />
<glyph unicode="&#x11e;" glyph-name="Gbreve" horiz-adv-x="633" d="M564 32Q522 15 462 2T333 -11Q181 -11 112 74T42 329Q42 418 63 482T123 588T219 649T346 669Q415 669 468 649T556 586L509 542Q481 571 443 589T348 607Q230 607 176 534T122 320Q122 190
173 122T336 53Q393 53 437 62Q451 65 464 68T489 75V272H324V336H564V32ZM480 883Q480 805 445 763T331 721Q253 721 218 763T183 883H244Q247 834 266 805T331 775Q378 775 397 804T418 883H480Z" />
<glyph unicode="&#x11f;" glyph-name="gbreve" horiz-adv-x="498" d="M435 458V-22Q435 -78 420 -116T378 -179T311 -214T225 -225Q180 -225 144 -219T81 -203L101 -145Q123 -152 154 -158T224 -165Q252 -165 277 -159T320 -137T349 -95T360 -30V25Q331 9 301
-1T232 -11Q130 -11 85 49T39 221Q39 275 50 320T88 399T157 450T259 469Q295 469 321 461T372 442L377 458H435ZM360 386Q340 395 318 403T268 411Q190 411 154 366T117 221Q117 188 123 157T144 102T185 63T252 48Q283 48 308 57T360 84V386ZM397 684Q397 606
362 564T248 522Q170 522 135 564T100 684H161Q164 635 183 606T248 576Q295 576 314 605T335 684H397Z" />
<glyph unicode="&#x120;" glyph-name="Gdotaccent" horiz-adv-x="633" d="M564 32Q522 15 462 2T333 -11Q181 -11 112 74T42 329Q42 418 63 482T123 588T219 649T346 669Q415 669 468 649T556 586L509 542Q481 571 443 589T348 607Q230 607 176 534T122 320Q122
190 173 122T336 53Q393 53 437 62Q451 65 464 68T489 75V272H324V336H564V32ZM375 767H298V847H375V767Z" />
<glyph unicode="&#x121;" glyph-name="gdotaccent" horiz-adv-x="498" d="M435 458V-22Q435 -78 420 -116T378 -179T311 -214T225 -225Q180 -225 144 -219T81 -203L101 -145Q123 -152 154 -158T224 -165Q252 -165 277 -159T320 -137T349 -95T360 -30V25Q331 9
301 -1T232 -11Q130 -11 85 49T39 221Q39 275 50 320T88 399T157 450T259 469Q295 469 321 461T372 442L377 458H435ZM360 386Q340 395 318 403T268 411Q190 411 154 366T117 221Q117 188 123 157T144 102T185 63T252 48Q283 48 308 57T360 84V386ZM295 567H218V647H295V567Z"
/>
<glyph unicode="&#x122;" glyph-name="uni0122" horiz-adv-x="633" d="M564 32Q522 15 462 2T333 -11Q181 -11 112 74T42 329Q42 418 63 482T123 588T219 649T346 669Q415 669 468 649T556 586L509 542Q481 571 443 589T348 607Q230 607 176 534T122 320Q122 190
173 122T336 53Q393 53 437 62Q451 65 464 68T489 75V272H324V336H564V32ZM252 -233Q283 -195 296 -152T309 -56H379Q379 -185 297 -270L252 -233Z" />
<glyph unicode="&#x123;" glyph-name="uni0123" horiz-adv-x="498" d="M435 458V-22Q435 -78 420 -116T378 -179T311 -214T225 -225Q180 -225 144 -219T81 -203L101 -145Q123 -152 154 -158T224 -165Q252 -165 277 -159T320 -137T349 -95T360 -30V25Q331 9 301
-1T232 -11Q130 -11 85 49T39 221Q39 275 50 320T88 399T157 450T259 469Q295 469 321 461T372 442L377 458H435ZM360 386Q340 395 318 403T268 411Q190 411 154 366T117 221Q117 188 123 157T144 102T185 63T252 48Q283 48 308 57T360 84V386ZM363 688Q332 650
319 607T306 511H236Q236 640 318 725L363 688Z" />
<glyph unicode="&#x124;" glyph-name="Hcircumflex" horiz-adv-x="648" d="M575 659V0H497V298H149V0H73V659H149V363H497V659H575ZM375 884L483 725H412L329 841H320L236 725H166L273 884H375Z" />
<glyph unicode="&#x125;" glyph-name="hcircumflex" horiz-adv-x="499" d="M366 0V278Q366 307 363 331T350 371T322 397T272 406Q246 406 222 399T174 380Q164 375 156 370T139 359V0H63V681L139 692V424Q162 439 191 450Q241 469 291 469Q337 469 366 458T412
424T435 370T442 295V0H366ZM154 892L262 733H191L108 849H99L15 733H-55L52 892H154Z" />
<glyph unicode="&#x126;" glyph-name="Hbar" horiz-adv-x="654" d="M578 659V537H646V477H578V0H500V298H152V0H76V477H9V537H76V659H152V537H500V659H578ZM500 363V477H152V363H500Z" />
<glyph unicode="&#x127;" glyph-name="hbar" horiz-adv-x="499" d="M366 0V278Q366 307 363 331T350 371T322 397T272 406Q246 406 222 399T174 380Q164 375 156 370T139 359V0H63V538H-4V597H63V681L139 692V597H279V538H139V424Q162 439 191 450Q241 469 291
469Q337 469 366 458T412 424T435 370T442 295V0H366Z" />
<glyph unicode="&#x128;" glyph-name="Itilde" horiz-adv-x="222" d="M73 659H149V0H73V659ZM-47 813Q-29 829 -3 841T51 853Q72 853 87 848T117 837T144 826T175 821Q196 821 214 828T251 847L274 799Q254 782 229 771T174 760Q154 760 138 765T108 776T80 788T50
793Q30 793 12 785T-22 765L-47 813Z" />
<glyph unicode="&#x129;" glyph-name="itilde" horiz-adv-x="203" d="M232 594Q213 578 194 571T151 563Q132 563 119 567T95 575T74 584T49 588Q28 588 16 583T-11 567L-27 619Q-11 633 8 641T51 650Q69 650 82 646T106 638T127 629T153 625Q173 625 186 630T214
646L232 594ZM139 0H63V458H139V0Z" />
<glyph unicode="&#x12a;" glyph-name="Imacron" horiz-adv-x="222" d="M73 659H149V0H73V659ZM253 776H-26V838H253V776Z" />
<glyph unicode="&#x12b;" glyph-name="imacron" horiz-adv-x="203" d="M63 458H139V0H63V458ZM216 576H-13V638H216V576Z" />
<glyph unicode="&#x12c;" glyph-name="Ibreve" horiz-adv-x="222" d="M73 659H149V0H73V659ZM260 869Q260 791 225 749T111 707Q33 707 -2 749T-37 869H24Q27 820 46 791T111 761Q158 761 177 790T198 869H260Z" />
<glyph unicode="&#x12d;" glyph-name="ibreve" horiz-adv-x="203" d="M63 458H139V0H63V458ZM251 684Q251 606 216 564T102 522Q24 522 -11 564T-46 684H15Q18 635 37 606T102 576Q149 576 168 605T189 684H251Z" />
<glyph unicode="&#x12e;" glyph-name="Iogonek" horiz-adv-x="222" d="M73 659H149V0Q134 -8 119 -17T88 -38Q56 -62 47 -80T37 -120Q37 -167 89 -167Q117 -167 143 -158L157 -208Q142 -213 120 -217T74 -222Q14 -222 -11 -199T-37 -131Q-37 -100 -21 -72T41 -14Q58
-1 73 4V659Z" />
<glyph unicode="&#x12f;" glyph-name="iogonek" horiz-adv-x="203" d="M63 458H139V0Q120 -10 105 -19T79 -38Q50 -61 40 -80T29 -120Q29 -167 81 -167Q109 -167 135 -158L149 -208Q134 -213 112 -217T66 -222Q8 -222 -17 -199T-43 -130Q-43 -99 -28 -72T32 -14Q46
-3 63 4V458ZM62 647H139V567H62V647Z" />
<glyph unicode="&#x130;" glyph-name="Idotaccent" horiz-adv-x="222" d="M73 659H149V0H73V659ZM150 767H73V847H150V767Z" />
<glyph unicode="&#x131;" glyph-name="dotlessi" horiz-adv-x="203" d="M139 0H63V458H139V0Z" />
<glyph unicode="&#x132;" glyph-name="IJ" horiz-adv-x="556" d="M73 659H149V0H73V659ZM409 659H486V190Q486 86 447 41T315 -5Q292 -5 270 -2T230 8L241 68Q257 63 274 61T310 58Q334 58 352 63T383 83T402 120T409 178V659Z" />
<glyph unicode="&#x133;" glyph-name="ij" horiz-adv-x="406" d="M62 647H139V567H62V647ZM63 458H139V0H63V458ZM177 -165H184Q210 -165 226 -160T251 -143T263 -109T266 -54V458H342V-34Q342 -82 337 -118T315 -177T268 -213T187 -225H177V-165ZM342 567H265V647H342V567Z"
/>
<glyph unicode="&#x134;" glyph-name="Jcircumflex" horiz-adv-x="334" d="M187 659H264V190Q264 86 225 41T93 -5Q70 -5 48 -2T8 8L19 68Q35 63 52 61T88 58Q112 58 130 63T161 83T180 120T187 178V659ZM278 884L386 725H315L232 841H223L139 725H69L176 884H278Z" />
<glyph unicode="&#x135;" glyph-name="jcircumflex" horiz-adv-x="203" d="M-26 -160H-19Q7 -160 23 -155T48 -138T60 -105T63 -50V458H139V-29Q139 -77 134 -113T112 -173T65 -209T-16 -221H-26V-160ZM152 685L245 526H175L106 643H96L26 526H-41L51 685H152Z" />
<glyph unicode="&#x136;" glyph-name="uni0136" horiz-adv-x="551" d="M149 0H73V659H149V362H206L461 659H550L272 334L535 0H441L206 299H149V0ZM182 -231Q213 -193 226 -150T239 -54H309Q309 -183 227 -268L182 -231Z" />
<glyph unicode="&#x137;" glyph-name="uni0137" horiz-adv-x="459" d="M63 0V681L138 692V279H184L361 458H448L245 249L456 0H367L183 219H138V0H63ZM141 -231Q172 -193 185 -150T198 -54H268Q268 -183 186 -268L141 -231Z" />
<glyph unicode="&#x138;" glyph-name="kgreenlandic" horiz-adv-x="460" d="M63 0V458H139V268H186L362 458H450L245 238L456 0H367L184 208H139V0H63Z" />
<glyph unicode="&#x139;" glyph-name="Lacute" horiz-adv-x="454" d="M455 64V0H71V659H147V64H455ZM288 884L160 725H86L203 884H288Z" />
<glyph unicode="&#x13a;" glyph-name="lacute" horiz-adv-x="209" d="M184 -3Q183 -4 175 -4Q173 -5 157 -5Q103 -5 83 25T63 116V681L138 692V117Q138 76 148 65T184 54V-3ZM266 911L138 752H64L181 911H266Z" />
<glyph unicode="&#x13b;" glyph-name="uni013B" horiz-adv-x="457" d="M457 64V0H73V659H149V64H457ZM155 -233Q186 -195 199 -152T212 -56H282Q282 -185 200 -270L155 -233Z" />
<glyph unicode="&#x13c;" glyph-name="uni013C" horiz-adv-x="209" d="M184 -3Q183 -4 175 -4Q173 -5 157 -5Q103 -5 83 25T63 116V681L138 692V117Q138 76 148 65T184 54V-3ZM28 -232Q59 -194 72 -151T85 -55H155Q155 -184 73 -269L28 -232Z" />
<glyph unicode="&#x13d;" glyph-name="Lcaron" horiz-adv-x="454" d="M269 520H209L242 688H324L269 520ZM454 64V0H70V659H146V64H454Z" />
<glyph unicode="&#x13e;" glyph-name="lcaron" horiz-adv-x="328" d="M258 520H201L234 688H312L258 520ZM184 -3Q183 -4 175 -4Q173 -5 157 -5Q103 -5 83 25T63 116V681L138 692V117Q138 76 148 65T184 54V-3Z" />
<glyph unicode="&#x13f;" glyph-name="Ldot" horiz-adv-x="457" d="M457 64V0H73V659H149V64H457ZM373 277H297V357H373V277Z" />
<glyph unicode="&#x140;" glyph-name="ldot" horiz-adv-x="328" d="M184 -3Q183 -4 175 -4Q173 -5 157 -5Q103 -5 83 25T63 116V681L138 692V117Q138 76 148 65T184 54V-3ZM300 209H224V289H300V209Z" />
<glyph unicode="&#x141;" glyph-name="Lslash" horiz-adv-x="453" d="M453 64V0H69V267L1 223V291L69 336V659H145V386L278 474V405L145 317V64H453Z" />
<glyph unicode="&#x142;" glyph-name="lslash" horiz-adv-x="236" d="M190 -3Q189 -4 181 -4Q179 -5 163 -5Q109 -5 89 25T69 116V268L-3 217V285L69 336V681L144 692V390L246 463V393L144 321V117Q144 76 154 65T190 54V-3Z" />
<glyph unicode="&#x143;" glyph-name="Nacute" horiz-adv-x="673" d="M600 659V0H464L158 596H149V0H73V659H209L515 63H523V659H600ZM495 884L367 725H293L410 884H495Z" />
<glyph unicode="&#x144;" glyph-name="nacute" horiz-adv-x="499" d="M126 458L129 417Q158 436 191 450Q241 469 291 469Q337 469 366 458T412 424T435 370T442 295V0H366V278Q366 307 363 331T350 372T322 398T272 407Q246 407 222 400T174 381Q156 373 139
360V0H63V336L55 458H126ZM387 684L259 525H185L302 684H387Z" />
<glyph unicode="&#x145;" glyph-name="uni0145" horiz-adv-x="673" d="M600 659V0H464L158 596H149V0H73V659H209L515 63H523V659H600ZM246 -231Q277 -193 290 -150T303 -54H373Q373 -183 291 -268L246 -231Z" />
<glyph unicode="&#x146;" glyph-name="uni0146" horiz-adv-x="499" d="M126 458L129 417Q158 436 191 450Q241 469 291 469Q337 469 366 458T412 424T435 370T442 295V0H366V278Q366 307 363 331T350 372T322 398T272 407Q246 407 222 400T174 381Q156 373 139
360V0H63V336L55 458H126ZM165 -231Q196 -193 209 -150T222 -54H292Q292 -183 210 -268L165 -231Z" />
<glyph unicode="&#x147;" glyph-name="Ncaron" horiz-adv-x="673" d="M600 659V0H464L158 596H149V0H73V659H209L515 63H523V659H600ZM293 725L185 884H257L340 767H350L432 884H502L395 725H293Z" />
<glyph unicode="&#x148;" glyph-name="ncaron" horiz-adv-x="499" d="M126 458L129 417Q158 436 191 450Q241 469 291 469Q337 469 366 458T412 424T435 370T442 295V0H366V278Q366 307 363 331T350 372T322 398T272 407Q246 407 222 400T174 381Q156 373 139
360V0H63V336L55 458H126ZM199 525L91 684H163L246 567H256L338 684H408L301 525H199Z" />
<glyph unicode="&#x14a;" glyph-name="Eng" horiz-adv-x="673" d="M600 659V-29Q600 -77 594 -113T571 -173T522 -209T437 -221H427V-160H434Q460 -160 477 -155T505 -138T519 -105T523 -50V0H464L158 596H149V0H73V659H209L515 63H523V659H600Z" />
<glyph unicode="&#x14b;" glyph-name="eng" horiz-adv-x="499" d="M126 458L129 417Q158 436 191 450Q241 469 291 469Q337 469 366 458T412 424T435 370T442 295V-29Q442 -77 437 -113T415 -173T367 -209T286 -221H276V-160H284Q310 -160 326 -155T351 -138T363
-105T366 -50V278Q366 307 363 331T350 371T322 397T272 406Q246 406 222 399T174 380Q164 375 156 370T139 359V0H63V336L55 458H126Z" />
<glyph unicode="&#x14c;" glyph-name="Omacron" horiz-adv-x="639" d="M42 333Q42 507 111 588T331 669Q405 669 456 646T538 579T583 471T597 326Q597 153 527 71T307 -11Q232 -11 182 12T100 80T56 188T42 333ZM517 339Q517 394 509 443T480 528T424 586T333
607Q273 607 232 589T167 534T132 445T121 322Q121 265 129 216T158 131T214 74T304 53Q365 53 406 71T471 125T506 214T517 339ZM459 776H180V838H459V776Z" />
<glyph unicode="&#x14d;" glyph-name="omacron" horiz-adv-x="506" d="M242 -11Q183 -11 144 5T82 53T49 129T39 231Q39 352 92 410T263 469Q321 469 360 453T423 405T457 328T467 226Q467 105 412 47T242 -11ZM242 48Q326 48 357 95T389 235Q389 271 384 303T364
359T326 398T263 412Q179 412 148 364T116 223Q116 186 121 154T141 99T179 62T242 48ZM398 576H119V638H398V576Z" />
<glyph unicode="&#x14e;" glyph-name="Obreve" horiz-adv-x="639" d="M42 333Q42 507 111 588T331 669Q405 669 456 646T538 579T583 471T597 326Q597 153 527 71T307 -11Q232 -11 182 12T100 80T56 188T42 333ZM517 339Q517 394 509 443T480 528T424 586T333
607Q273 607 232 589T167 534T132 445T121 322Q121 265 129 216T158 131T214 74T304 53Q365 53 406 71T471 125T506 214T517 339ZM480 883Q480 805 445 763T331 721Q253 721 218 763T183 883H244Q247 834 266 805T331 775Q378 775 397 804T418 883H480Z" />
<glyph unicode="&#x14f;" glyph-name="obreve" horiz-adv-x="506" d="M242 -11Q183 -11 144 5T82 53T49 129T39 231Q39 352 92 410T263 469Q321 469 360 453T423 405T457 328T467 226Q467 105 412 47T242 -11ZM242 48Q326 48 357 95T389 235Q389 271 384 303T364
359T326 398T263 412Q179 412 148 364T116 223Q116 186 121 154T141 99T179 62T242 48ZM412 684Q412 606 377 564T263 522Q185 522 150 564T115 684H176Q179 635 198 606T263 576Q310 576 329 605T350 684H412Z" />
<glyph unicode="&#x150;" glyph-name="Ohungarumlaut" horiz-adv-x="639" d="M42 333Q42 507 111 588T331 669Q405 669 456 646T538 579T583 471T597 326Q597 153 527 71T307 -11Q232 -11 182 12T100 80T56 188T42 333ZM517 339Q517 394 509 443T480 528T424 586T333
607Q273 607 232 589T167 534T132 445T121 322Q121 265 129 216T158 131T214 74T304 53Q365 53 406 71T471 125T506 214T517 339ZM375 884L247 725H175L293 884H375ZM562 884L435 725H364L481 884H562Z" />
<glyph unicode="&#x151;" glyph-name="ohungarumlaut" horiz-adv-x="506" d="M242 -11Q183 -11 144 5T82 53T49 129T39 231Q39 352 92 410T263 469Q321 469 360 453T423 405T457 328T467 226Q467 105 412 47T242 -11ZM242 48Q326 48 357 95T389 235Q389 271 384
303T364 359T326 398T263 412Q179 412 148 364T116 223Q116 186 121 154T141 99T179 62T242 48ZM316 684L188 525H116L234 684H316ZM503 684L376 525H305L422 684H503Z" />
<glyph unicode="&#x152;" glyph-name="OE" horiz-adv-x="941" d="M889 64V0H486V84Q459 39 415 14T303 -11Q228 -11 178 13T98 82T55 190T42 333Q42 415 54 478T97 583T178 647T303 669Q370 669 414 647T486 581V659H878V595H557V372H867V308H557V64H889ZM476
333Q476 396 467 446T437 532T383 587T303 607Q250 607 215 588T159 533T129 447T120 333Q120 270 129 219T159 131T215 74T303 53Q350 53 383 73T436 130T466 218T476 333Z" />
<glyph unicode="&#x153;" glyph-name="oe" horiz-adv-x="823" d="M601 -11Q489 -11 443 47Q432 61 424 78Q416 62 406 52Q356 -11 242 -11Q183 -11 144 5T82 53T49 129T39 231Q39 352 92 410T263 469Q355 469 406 413Q411 407 417 399T428 380Q435 394 446 408Q495
469 599 469Q656 469 692 452T748 406T776 335T784 246V210H467Q467 168 474 144Q488 90 521 70T612 49Q661 49 697 61T758 86L778 34Q766 26 747 19T703 4T653 -7T601 -11ZM242 48Q326 48 357 95T389 235Q389 271 384 303T364 359T326 398T263 412Q179 412 148
364T116 223Q116 186 121 154T141 99T179 62T242 48ZM706 266Q706 307 699 335T677 380T643 404T599 412Q542 412 513 387T472 310Q470 300 470 289T468 266H706Z" />
<glyph unicode="&#x154;" glyph-name="Racute" horiz-adv-x="569" d="M73 0V659H299Q408 659 463 615T519 471Q519 387 474 341Q442 306 391 290L535 0H451L314 278H149V0H73ZM302 342Q366 342 402 371T439 471Q439 535 404 565T302 595H149V342H302ZM422 884L294
725H220L337 884H422Z" />
<glyph unicode="&#x155;" glyph-name="racute" horiz-adv-x="340" d="M123 458L131 395Q159 429 193 445Q238 469 285 469Q322 469 346 457L325 393Q305 403 272 403Q230 403 193 378Q179 369 167 357T141 331V0H65V333L54 458H123ZM326 684L198 525H124L241 684H326Z" />
<glyph unicode="&#x156;" glyph-name="uni0156" horiz-adv-x="569" d="M73 0V659H299Q408 659 463 615T519 471Q519 387 474 341Q442 306 391 290L535 0H451L314 278H149V0H73ZM302 342Q366 342 402 371T439 471Q439 535 404 565T302 595H149V342H302ZM193 -233Q224
-195 237 -152T250 -56H320Q320 -185 238 -270L193 -233Z" />
<glyph unicode="&#x157;" glyph-name="uni0157" horiz-adv-x="340" d="M123 458L131 395Q159 429 193 445Q238 469 285 469Q322 469 346 457L325 393Q305 403 272 403Q230 403 193 378Q179 369 167 357T141 331V0H65V333L54 458H123ZM11 -233Q42 -195 55 -152T68
-56H138Q138 -185 56 -270L11 -233Z" />
<glyph unicode="&#x158;" glyph-name="Rcaron" horiz-adv-x="569" d="M73 0V659H299Q408 659 463 615T519 471Q519 387 474 341Q442 306 391 290L535 0H451L314 278H149V0H73ZM302 342Q366 342 402 371T439 471Q439 535 404 565T302 595H149V342H302ZM219 725L111
884H183L266 767H276L358 884H428L321 725H219Z" />
<glyph unicode="&#x159;" glyph-name="rcaron" horiz-adv-x="340" d="M123 458L131 395Q159 429 193 445Q238 469 285 469Q322 469 346 457L325 393Q305 403 272 403Q230 403 193 378Q179 369 167 357T141 331V0H65V333L54 458H123ZM130 525L22 684H94L177 567H187L269
684H339L232 525H130Z" />
<glyph unicode="&#x15a;" glyph-name="Sacute" horiz-adv-x="520" d="M343 256Q323 265 297 275T244 295T190 317T142 341Q95 365 70 400T44 497Q44 541 62 573T111 627T185 658T277 669Q389 669 469 629L442 569Q414 582 372 594T278 606Q205 606 164 579T122
503Q122 470 137 447T187 405Q206 395 230 386T281 366T334 346T382 323Q403 311 421 298T452 266T474 224T482 167Q482 122 464 89T415 33T340 0T246 -11Q191 -11 136 0T38 34L67 95Q112 75 153 65T244 54Q325 54 365 83T405 160Q405 224 343 256ZM424 884L296
725H222L339 884H424Z" />
<glyph unicode="&#x15b;" glyph-name="sacute" horiz-adv-x="420" d="M167 286Q190 274 226 262T297 236Q336 221 361 196T387 121Q387 52 338 21T194 -11Q149 -11 107 -3T34 21L58 78Q82 65 117 57T195 49Q217 49 238 51T276 61T302 81T312 116Q312 159 256 180Q224
194 188 205T123 230Q87 244 64 268T41 338Q41 375 57 400T100 441T160 462T226 469Q278 469 316 461T379 442L355 385Q328 396 296 403T224 411Q164 411 140 392T115 348Q115 325 127 312T167 286ZM366 684L238 525H164L281 684H366Z" />
<glyph unicode="&#x15c;" glyph-name="Scircumflex" horiz-adv-x="520" d="M343 256Q323 265 297 275T244 295T190 317T142 341Q95 365 70 400T44 497Q44 541 62 573T111 627T185 658T277 669Q389 669 469 629L442 569Q414 582 372 594T278 606Q205 606 164 579T122
503Q122 470 137 447T187 405Q206 395 230 386T281 366T334 346T382 323Q403 311 421 298T452 266T474 224T482 167Q482 122 464 89T415 33T340 0T246 -11Q191 -11 136 0T38 34L67 95Q112 75 153 65T244 54Q325 54 365 83T405 160Q405 224 343 256ZM320 884L428
725H357L274 841H265L181 725H111L218 884H320Z" />
<glyph unicode="&#x15d;" glyph-name="scircumflex" horiz-adv-x="420" d="M167 286Q190 274 226 262T297 236Q336 221 361 196T387 121Q387 52 338 21T194 -11Q149 -11 107 -3T34 21L58 78Q82 65 117 57T195 49Q217 49 238 51T276 61T302 81T312 116Q312 159
256 180Q224 194 188 205T123 230Q87 244 64 268T41 338Q41 375 57 400T100 441T160 462T226 469Q278 469 316 461T379 442L355 385Q328 396 296 403T224 411Q164 411 140 392T115 348Q115 325 127 312T167 286ZM273 684L381 525H310L227 641H218L134 525H64L171
684H273Z" />
<glyph unicode="&#x15e;" glyph-name="Scedilla" horiz-adv-x="520" d="M343 256Q323 265 297 275T244 295T190 317T142 341Q95 365 70 400T44 497Q44 541 62 573T111 627T185 658T277 669Q389 669 469 629L442 569Q414 582 372 594T278 606Q205 606 164 579T122
503Q122 470 137 447T187 405Q206 395 230 386T281 366T334 346T382 323Q403 311 421 298T452 266T474 224T482 167Q482 122 464 89T415 33T340 0T246 -11Q191 -11 136 0T38 34L67 95Q112 75 153 65T244 54Q325 54 365 83T405 160Q405 224 343 256ZM161 -158Q194
-171 231 -171Q266 -171 281 -162T297 -130Q297 -104 274 -94T190 -80L209 -32Q294 -35 331 -57T369 -130Q369 -179 339 -202T239 -225Q210 -225 185 -221T143 -207L161 -158Z" />
<glyph unicode="&#x15f;" glyph-name="scedilla" horiz-adv-x="420" d="M167 286Q190 274 226 262T297 236Q336 221 361 196T387 121Q387 52 338 21T194 -11Q149 -11 107 -3T34 21L58 78Q82 65 117 57T195 49Q217 49 238 51T276 61T302 81T312 116Q312 159 256
180Q224 194 188 205T123 230Q87 244 64 268T41 338Q41 375 57 400T100 441T160 462T226 469Q278 469 316 461T379 442L355 385Q328 396 296 403T224 411Q164 411 140 392T115 348Q115 325 127 312T167 286ZM116 -158Q149 -171 186 -171Q221 -171 236 -162T252
-130Q252 -104 229 -94T145 -80L164 -32Q249 -35 286 -57T324 -130Q324 -179 294 -202T194 -225Q165 -225 140 -221T98 -207L116 -158Z" />
<glyph unicode="&#x160;" glyph-name="Scaron" horiz-adv-x="520" d="M343 256Q323 265 297 275T244 295T190 317T142 341Q95 365 70 400T44 497Q44 541 62 573T111 627T185 658T277 669Q389 669 469 629L442 569Q414 582 372 594T278 606Q205 606 164 579T122
503Q122 470 137 447T187 405Q206 395 230 386T281 366T334 346T382 323Q403 311 421 298T452 266T474 224T482 167Q482 122 464 89T415 33T340 0T246 -11Q191 -11 136 0T38 34L67 95Q112 75 153 65T244 54Q325 54 365 83T405 160Q405 224 343 256ZM214 725L106
884H178L261 767H271L353 884H423L316 725H214Z" />
<glyph unicode="&#x161;" glyph-name="scaron" horiz-adv-x="420" d="M167 286Q190 274 226 262T297 236Q336 221 361 196T387 121Q387 52 338 21T194 -11Q149 -11 107 -3T34 21L58 78Q82 65 117 57T195 49Q217 49 238 51T276 61T302 81T312 116Q312 159 256 180Q224
194 188 205T123 230Q87 244 64 268T41 338Q41 375 57 400T100 441T160 462T226 469Q278 469 316 461T379 442L355 385Q328 396 296 403T224 411Q164 411 140 392T115 348Q115 325 127 312T167 286ZM161 525L53 684H125L208 567H218L300 684H370L263 525H161Z"
/>
<glyph unicode="&#x162;" glyph-name="uni0162" horiz-adv-x="493" d="M493 659V595H285V0H208V595H0V659H493ZM148 -158Q181 -171 218 -171Q253 -171 268 -162T284 -130Q284 -104 261 -94T177 -80L196 -32Q281 -35 318 -57T356 -130Q356 -179 326 -202T226 -225Q197
-225 172 -221T130 -207L148 -158Z" />
<glyph unicode="&#x163;" glyph-name="uni0163" horiz-adv-x="364" d="M165 398V172Q165 142 167 120T179 82T205 59T253 51Q295 51 336 66L350 13Q322 1 291 -5T230 -11Q186 -11 159 1T116 34T96 84T90 146V396H12V450L90 458V554L165 567V458H338V398H165ZM109
-158Q142 -171 179 -171Q214 -171 229 -162T245 -130Q245 -104 222 -94T138 -80L157 -32Q242 -35 279 -57T317 -130Q317 -179 287 -202T187 -225Q158 -225 133 -221T91 -207L109 -158Z" />
<glyph unicode="&#x164;" glyph-name="Tcaron" horiz-adv-x="515" d="M504 659V595H296V0H219V595H11V659H504ZM208 725L100 884H172L255 767H265L347 884H417L310 725H208Z" />
<glyph unicode="&#x165;" glyph-name="tcaron" horiz-adv-x="364" d="M286 520H230L262 688H341L286 520ZM165 398V172Q165 142 167 120T179 82T205 59T253 51Q295 51 336 66L350 13Q322 1 291 -5T230 -11Q186 -11 159 1T116 34T96 84T90 146V396H12V450L90 458V554L165
567V458H338V398H165Z" />
<glyph unicode="&#x166;" glyph-name="Tbar" horiz-adv-x="493" d="M493 659V595H285V372H458V308H285V0H208V308H35V372H208V595H0V659H493Z" />
<glyph unicode="&#x167;" glyph-name="tbar" horiz-adv-x="364" d="M165 398V276H334V217H165V172Q165 142 167 120T179 82T205 59T253 51Q295 51 336 66L350 13Q322 1 291 -5T230 -11Q186 -11 159 1T116 34T96 84T90 146V217H14V276H90V396H12V450L90 458V554L165
567V458H338V398H165Z" />
<glyph unicode="&#x168;" glyph-name="Utilde" horiz-adv-x="621" d="M555 659V246Q555 109 492 49T302 -11Q180 -11 123 51T66 252V659H143V236Q143 192 151 158T178 101T227 65T301 52Q350 52 384 63T439 98T469 160T478 253V659H555ZM146 813Q164 829 190 841T244
853Q265 853 280 848T310 837T337 826T368 821Q389 821 407 828T444 847L467 799Q447 782 422 771T367 760Q347 760 331 765T301 776T273 788T243 793Q223 793 205 785T171 765L146 813Z" />
<glyph unicode="&#x169;" glyph-name="utilde" horiz-adv-x="498" d="M435 122L443 0H372L367 40Q342 23 307 9Q253 -11 207 -11Q162 -11 133 0T88 33T65 87T58 164V458H133V180Q133 151 136 127T149 86T177 60T226 51Q252 51 276 58T323 76L360 97V458H435V122ZM90
613Q108 629 134 641T188 653Q209 653 224 648T254 637T281 626T312 621Q333 621 351 628T388 647L411 599Q391 582 366 571T311 560Q291 560 275 565T245 576T217 588T187 593Q167 593 149 585T115 565L90 613Z" />
<glyph unicode="&#x16a;" glyph-name="Umacron" horiz-adv-x="621" d="M555 659V246Q555 109 492 49T302 -11Q180 -11 123 51T66 252V659H143V236Q143 192 151 158T178 101T227 65T301 52Q350 52 384 63T439 98T469 160T478 253V659H555ZM449 776H170V838H449V776Z" />
<glyph unicode="&#x16b;" glyph-name="umacron" horiz-adv-x="498" d="M435 122L443 0H372L367 40Q342 23 307 9Q253 -11 207 -11Q162 -11 133 0T88 33T65 87T58 164V458H133V180Q133 151 136 127T149 86T177 60T226 51Q252 51 276 58T323 76L360 97V458H435V122ZM388
576H109V638H388V576Z" />
<glyph unicode="&#x16c;" glyph-name="Ubreve" horiz-adv-x="621" d="M555 659V246Q555 109 492 49T302 -11Q180 -11 123 51T66 252V659H143V236Q143 192 151 158T178 101T227 65T301 52Q350 52 384 63T439 98T469 160T478 253V659H555ZM458 883Q458 805 423 763T309
721Q231 721 196 763T161 883H222Q225 834 244 805T309 775Q356 775 375 804T396 883H458Z" />
<glyph unicode="&#x16d;" glyph-name="ubreve" horiz-adv-x="498" d="M435 122L443 0H372L367 40Q342 23 307 9Q253 -11 207 -11Q162 -11 133 0T88 33T65 87T58 164V458H133V180Q133 151 136 127T149 86T177 60T226 51Q252 51 276 58T323 76L360 97V458H435V122ZM393
684Q393 606 358 564T244 522Q166 522 131 564T96 684H157Q160 635 179 606T244 576Q291 576 310 605T331 684H393Z" />
<glyph unicode="&#x16e;" glyph-name="Uring" horiz-adv-x="621" d="M555 659V246Q555 109 492 49T302 -11Q180 -11 123 51T66 252V659H143V236Q143 192 151 158T178 101T227 65T301 52Q350 52 384 63T439 98T469 160T478 253V659H555ZM306 711Q253 711 232 737T211
805Q211 851 237 875T315 900Q368 900 389 873T410 804Q410 759 384 735T306 711ZM307 760Q335 760 345 771T356 807Q356 826 348 838T313 851Q287 851 276 840T264 804Q264 784 273 772T307 760Z" />
<glyph unicode="&#x16f;" glyph-name="uring" horiz-adv-x="498" d="M435 122L443 0H372L367 40Q342 23 307 9Q253 -11 207 -11Q162 -11 133 0T88 33T65 87T58 164V458H133V180Q133 151 136 127T149 86T177 60T226 51Q252 51 276 58T323 76L360 97V458H435V122ZM243
523Q190 523 169 549T148 617Q148 663 174 687T252 712Q305 712 326 685T347 616Q347 571 321 547T243 523ZM244 572Q272 572 282 583T293 619Q293 638 285 650T250 663Q224 663 213 652T201 616Q201 596 210 584T244 572Z" />
<glyph unicode="&#x170;" glyph-name="Uhungarumlaut" horiz-adv-x="621" d="M555 659V246Q555 109 492 49T302 -11Q180 -11 123 51T66 252V659H143V236Q143 192 151 158T178 101T227 65T301 52Q350 52 384 63T439 98T469 160T478 253V659H555ZM358 884L230 725H158L276
884H358ZM545 884L418 725H347L464 884H545Z" />
<glyph unicode="&#x171;" glyph-name="uhungarumlaut" horiz-adv-x="498" d="M435 122L443 0H372L367 40Q342 23 307 9Q253 -11 207 -11Q162 -11 133 0T88 33T65 87T58 164V458H133V180Q133 151 136 127T149 86T177 60T226 51Q252 51 276 58T323 76L360 97V458H435V122ZM309
684L181 525H109L227 684H309ZM496 684L369 525H298L415 684H496Z" />
<glyph unicode="&#x172;" glyph-name="Uogonek" horiz-adv-x="621" d="M555 659V246Q555 149 524 93T432 10Q415 1 394 -9T355 -34Q327 -57 318 -76T308 -117Q308 -139 319 -153T360 -167Q388 -167 414 -158L428 -208Q413 -213 391 -217T344 -222Q286 -222 260
-198T234 -129Q234 -95 252 -68T315 -11H302Q180 -11 123 51T66 252V659H143V236Q143 192 151 158T178 101T227 65T301 52Q350 52 384 63T439 98T469 160T478 253V659H555Z" />
<glyph unicode="&#x173;" glyph-name="uogonek" horiz-adv-x="498" d="M455 -208Q440 -213 418 -217T371 -222Q311 -222 286 -199T261 -130Q261 -99 277 -72T339 -14Q347 -9 355 -5T371 4L367 40Q342 23 307 9Q253 -11 207 -11Q162 -11 133 0T88 33T65 87T58 164V458H133V180Q133
151 136 127T149 86T177 60T226 51Q252 51 276 58T323 76L360 97V458H435V122L443 0Q406 -20 384 -39Q354 -63 345 -81T335 -120Q335 -167 387 -167Q415 -167 441 -158L455 -208Z" />
<glyph unicode="&#x174;" glyph-name="Wcircumflex" horiz-adv-x="922" d="M912 659L733 0H614L467 596H458L315 0H196L10 659H94L252 63H261L401 659H524L672 63H680L831 659H912ZM513 884L621 725H550L467 841H458L374 725H304L411 884H513Z" />
<glyph unicode="&#x175;" glyph-name="wcircumflex" horiz-adv-x="698" d="M404 458L497 58H506L611 458H687L556 0H445L352 400H343L250 0H138L11 458H89L192 58H200L292 458H404ZM398 684L506 525H435L352 641H343L259 525H189L296 684H398Z" />
<glyph unicode="&#x176;" glyph-name="Ycircumflex" horiz-adv-x="547" d="M312 285V0H235V285L-1 659H91L270 362H278L458 659H548L312 285ZM324 884L432 725H361L278 841H269L185 725H115L222 884H324Z" />
<glyph unicode="&#x177;" glyph-name="ycircumflex" horiz-adv-x="437" d="M6 458H90L222 94H231L353 458H431L256 -29Q240 -71 225 -107T188 -169T134 -210T53 -225Q41 -225 30 -224T10 -220L19 -162L35 -165Q38 -166 52 -166Q89 -166 109 -153T141 -122Q147
-114 153 -100T166 -70T179 -38T190 -6L6 458ZM278 684L386 525H315L232 641H223L139 525H69L176 684H278Z" />
<glyph unicode="&#x178;" glyph-name="Ydieresis" horiz-adv-x="547" d="M312 285V0H235V285L-1 659H91L270 362H278L458 659H548L312 285ZM223 762H147V842H223V762ZM399 762H324V842H399V762Z" />
<glyph unicode="&#x179;" glyph-name="Zacute" horiz-adv-x="534" d="M500 607L117 64H499V0H22V52L406 596H47V659H500V607ZM439 884L311 725H237L354 884H439Z" />
<glyph unicode="&#x17a;" glyph-name="zacute" horiz-adv-x="441" d="M412 408L121 61H414V0H27V50L318 398H39V458H412V408ZM382 684L254 525H180L297 684H382Z" />
<glyph unicode="&#x17b;" glyph-name="Zdotaccent" horiz-adv-x="534" d="M500 607L117 64H499V0H22V52L406 596H47V659H500V607ZM312 762H235V842H312V762Z" />
<glyph unicode="&#x17c;" glyph-name="zdotaccent" horiz-adv-x="441" d="M412 408L121 61H414V0H27V50L318 398H39V458H412V408ZM267 567H190V647H267V567Z" />
<glyph unicode="&#x17d;" glyph-name="Zcaron" horiz-adv-x="534" d="M500 607L117 64H499V0H22V52L406 596H47V659H500V607ZM235 725L127 884H199L282 767H292L374 884H444L337 725H235Z" />
<glyph unicode="&#x17e;" glyph-name="zcaron" horiz-adv-x="441" d="M412 408L121 61H414V0H27V50L318 398H39V458H412V408ZM175 525L67 684H139L222 567H232L314 684H384L277 525H175Z" />
<glyph unicode="&#x192;" glyph-name="florin" horiz-adv-x="377" d="M177 -45Q177 -143 137 -183T17 -223Q-3 -223 -23 -221T-60 -212L-47 -153Q-13 -161 14 -161Q60 -161 80 -135T101 -40V302H30V362H101V506Q101 557 113 591T147 645T199 675T268 684Q292 684
318 679T364 667L347 610Q312 622 271 622Q217 622 197 593T177 500V362H340V302H177V-45Z" />
<glyph unicode="&#x1a0;" glyph-name="Ohorn" horiz-adv-x="641" d="M332 670Q475 670 539 579Q541 576 543 573T547 565Q581 611 581 673H647Q647 628 631 596Q615 566 585 534L558 545Q597 464 597 326Q597 -11 307 -11Q165 -11 100 81Q42 163 42 333Q42 670
332 670ZM508 444Q500 495 479 529Q435 607 333 607Q216 607 167 534Q122 468 122 322Q122 195 158 131Q203 53 305 53Q423 53 472 126Q517 192 517 339Q517 399 508 444Z" />
<glyph unicode="&#x1a1;" glyph-name="ohorn" horiz-adv-x="506" d="M81 53Q39 111 39 231Q39 469 263 469Q374 469 424 404Q429 397 433 389T443 371Q472 418 472 472H537Q537 432 520 395Q506 365 475 334L453 342Q467 291 467 227Q467 -11 242 -11Q130 -11
81 53ZM358 95Q389 138 389 235Q389 320 364 360Q336 412 263 412Q181 412 147 363Q116 320 116 223Q116 139 141 99Q169 48 242 48Q323 48 358 95Z" />
<glyph unicode="&#x1af;" glyph-name="Uhorn" horiz-adv-x="621" d="M555 659V577Q581 621 581 673H647Q647 628 631 596Q615 566 585 534L555 547V246Q555 -11 301 -11Q66 -11 66 253V659H142V236Q142 53 300 53Q399 53 438 99Q477 142 477 254V659H555Z" />
<glyph unicode="&#x1b0;" glyph-name="uhorn" horiz-adv-x="499" d="M436 122L443 0H372L367 39Q293 -11 207 -11Q118 -11 87 34Q59 71 59 164V459H134V180Q134 112 150 87Q169 51 225 51Q259 51 298 65Q335 79 360 99V459H436V360Q472 409 472 472H537Q537 432
520 395Q506 365 475 334L436 349V122Z" />
<glyph unicode="&#x1fa;" glyph-name="Aringacute" horiz-adv-x="612" d="M520 0L450 193H159L91 0H8L243 646Q218 667 218 706Q218 781 303 781Q346 781 366 761T387 706Q387 667 365 648L604 0H520ZM299 596L181 258H427L308 596H299ZM424 943L327 822H270L359
943H424ZM303 678Q331 678 331 706Q331 733 303 733Q274 733 274 706Q274 678 303 678Z" />
<glyph unicode="&#x1fb;" glyph-name="aringacute" horiz-adv-x="464" d="M446 -2Q436 -4 433 -4H418Q383 -4 366 9T338 48Q313 25 274 7T180 -11Q138 -11 111 0T66 30T42 74T35 130Q35 172 49 198T90 241T151 263T230 269Q258 269 279 268T327 264V288Q327 322
322 345T305 382T271 402T216 409Q177 409 138 398T74 375L55 428Q90 444 136 456T236 469Q284 469 316 460T367 428T395 369T403 281V115Q403 80 413 67T446 54V-2ZM223 212Q161 212 138 193T114 133Q114 88 134 68T203 48Q236 48 269 62T327 97V207Q301 209 277
210T223 212ZM344 792L247 670H190L279 792H344ZM234 492Q189 492 169 513T149 569Q149 644 234 644Q277 644 297 624T318 569Q318 532 297 512T234 492ZM234 541Q262 541 262 569Q262 596 234 596Q205 596 205 569Q205 541 234 541Z" />
<glyph unicode="&#x1fc;" glyph-name="AEacute" horiz-adv-x="895" d="M843 64V0H466L456 193H187L73 0H-12L388 659H835V595H513L525 372H822V308H529L541 64H843ZM428 595L225 258H453L437 595H428ZM580 884L452 725H378L495 884H580Z" />
<glyph unicode="&#x1fd;" glyph-name="aeacute" horiz-adv-x="763" d="M718 34Q706 26 687 19T643 4T593 -7T541 -11Q420 -11 373 54Q344 31 298 10T185 -11Q145 -11 117 0T71 30T45 75T37 130Q37 170 51 196T92 238T154 259T232 265H330V287Q330 321 325 344T308
382T274 402T218 409Q178 409 139 398T75 375L56 428Q92 444 138 456T238 469Q297 469 330 454T380 400Q429 469 539 469Q595 469 631 452T687 406T716 335T724 246V210H406Q407 163 417 133T445 83T490 57T552 49Q601 49 638 61T698 86L718 34ZM206 48Q243 48
279 64T346 105Q338 127 336 153T330 210H224Q162 210 139 190T115 134Q115 89 135 69T206 48ZM538 412Q469 412 441 376T407 265H647Q647 348 618 380T538 412ZM393 684L265 525H191L308 684H393Z" />
<glyph unicode="&#x1fe;" glyph-name="Oslashacute" horiz-adv-x="639" d="M42 333Q42 507 111 588T331 669Q402 669 456 646Q467 641 477 635T498 620L549 687L598 653L539 576Q555 554 565 528T583 470Q597 403 597 326Q597 153 527 71T307 -12Q232 -12 181
12Q157 22 136 39L87 -27L38 8L96 86Q68 128 55 188Q48 219 45 255T42 333ZM519 339Q519 367 517 392T511 443Q505 484 492 511L180 96Q188 88 196 82T213 70Q251 50 304 50Q365 50 406 68T473 123T508 214T519 339ZM425 587Q391 609 333 609Q273 609 232 590T166
535T131 445T120 322Q120 293 122 266T128 214Q131 198 135 183T145 151L456 563Q449 570 441 576T425 587ZM478 884L350 725H276L393 884H478Z" />
<glyph unicode="&#x1ff;" glyph-name="oslashacute" horiz-adv-x="506" d="M242 -12Q200 -12 171 -4T118 19L80 -27L31 14L74 64Q54 95 47 137T39 231Q39 352 92 410T263 469Q338 469 385 437L425 484L473 445L430 393Q450 362 458 320T467 226Q467 105 412 47T242
-12ZM242 44Q326 44 358 92T391 235Q391 262 388 286T376 331L158 71Q173 58 193 51T242 44ZM263 414Q179 414 147 365T114 223Q114 195 117 171T129 128L346 387Q330 399 311 406T263 414ZM404 684L276 525H202L319 684H404Z" />
<glyph unicode="&#x218;" glyph-name="uni0218" horiz-adv-x="520" d="M343 256Q323 265 297 275T244 295T190 317T142 341Q95 365 70 400T44 497Q44 541 62 573T111 627T185 658T277 669Q389 669 469 629L442 569Q414 582 372 594T278 606Q205 606 164 579T122
503Q122 470 137 447T187 405Q206 395 230 386T281 366T334 346T382 323Q403 311 421 298T452 266T474 224T482 167Q482 122 464 89T415 33T340 0T246 -11Q191 -11 136 0T38 34L67 95Q112 75 153 65T244 54Q325 54 365 83T405 160Q405 224 343 256ZM180 -233Q211
-195 224 -152T237 -56H307Q307 -185 225 -270L180 -233Z" />
<glyph unicode="&#x219;" glyph-name="uni0219" horiz-adv-x="420" d="M167 286Q190 274 226 262T297 236Q336 221 361 196T387 121Q387 52 338 21T194 -11Q149 -11 107 -3T34 21L58 78Q82 65 117 57T195 49Q217 49 238 51T276 61T302 81T312 116Q312 159 256
180Q224 194 188 205T123 230Q87 244 64 268T41 338Q41 375 57 400T100 441T160 462T226 469Q278 469 316 461T379 442L355 385Q328 396 296 403T224 411Q164 411 140 392T115 348Q115 325 127 312T167 286ZM132 -233Q163 -195 176 -152T189 -56H259Q259 -185 177
-270L132 -233Z" />
<glyph unicode="&#x21a;" glyph-name="uni021A" horiz-adv-x="493" d="M493 659V595H285V0H208V595H0V659H493ZM153 -231Q184 -193 197 -150T210 -54H280Q280 -183 198 -268L153 -231Z" />
<glyph unicode="&#x21b;" glyph-name="uni021B" horiz-adv-x="364" d="M165 398V172Q165 142 167 120T179 82T205 59T253 51Q295 51 336 66L350 13Q322 1 291 -5T230 -11Q186 -11 159 1T116 34T96 84T90 146V396H12V450L90 458V554L165 567V458H338V398H165ZM116
-233Q147 -195 160 -152T173 -56H243Q243 -185 161 -270L116 -233Z" />
<glyph unicode="&#x2c6;" glyph-name="circumflex" horiz-adv-x="524" d="M312 684L420 525H349L266 641H257L173 525H103L210 684H312Z" />
<glyph unicode="&#x2c7;" glyph-name="caron" horiz-adv-x="524" d="M211 525L103 684H175L258 567H268L350 684H420L313 525H211Z" />
<glyph unicode="&#x2d8;" glyph-name="breve" horiz-adv-x="524" d="M411 684Q411 606 376 564T262 522Q184 522 149 564T114 684H175Q178 635 197 606T262 576Q309 576 328 605T349 684H411Z" />
<glyph unicode="&#x2d9;" glyph-name="dotaccent" horiz-adv-x="524" d="M300 567H223V647H300V567Z" />
<glyph unicode="&#x2da;" glyph-name="ring" horiz-adv-x="524" d="M252 523Q199 523 178 549T157 617Q157 663 183 687T261 712Q314 712 335 685T356 616Q356 571 330 547T252 523ZM253 572Q281 572 291 583T302 619Q302 638 294 650T259 663Q233 663 222 652T210
616Q210 596 219 584T253 572Z" />
<glyph unicode="&#x2db;" glyph-name="ogonek" horiz-adv-x="446" d="M311 -208Q296 -213 274 -217T227 -222Q167 -222 142 -199T117 -130Q117 -99 133 -72T195 -14Q214 -2 236 8T283 30L299 0Q262 -20 240 -39Q210 -63 201 -81T191 -120Q191 -167 243 -167Q271
-167 297 -158L311 -208Z" />
<glyph unicode="&#x2dc;" glyph-name="tilde" horiz-adv-x="524" d="M101 613Q119 629 145 641T199 653Q220 653 235 648T265 637T292 626T323 621Q344 621 362 628T399 647L422 599Q402 582 377 571T322 560Q302 560 286 565T256 576T228 588T198 593Q178 593
160 585T126 565L101 613Z" />
<glyph unicode="&#x2dd;" glyph-name="hungarumlaut" horiz-adv-x="524" d="M255 684L127 525H55L173 684H255ZM442 684L315 525H244L361 684H442Z" />
<glyph unicode="&#x3a9;" glyph-name="Omega" horiz-adv-x="640" d="M62 62H161Q137 80 116 106T78 166T52 242T42 336Q42 502 109 585T320 669Q463 669 530 586T598 336Q598 285 589 243T563 166T525 106T479 62H578V0H376V77Q395 77 419 93T466 141T504 222T520
336Q520 390 511 439T480 524T419 583T320 605Q260 605 221 583T160 525T129 439T120 336Q120 271 135 222T173 141T220 93T264 77V0H62V62Z" />
<glyph unicode="&#x3c0;" glyph-name="pi" horiz-adv-x="630" d="M450 379V102Q450 77 459 69T492 60H540V0H471Q420 0 399 26T377 107V379H231V0H160V379H50V439H580V379H450Z" />
<glyph unicode="&#x1e80;" glyph-name="Wgrave" horiz-adv-x="922" d="M912 659L733 0H614L467 596H458L315 0H196L10 659H94L252 63H261L401 659H524L672 63H680L831 659H912ZM427 884L544 725H470L342 884H427Z" />
<glyph unicode="&#x1e81;" glyph-name="wgrave" horiz-adv-x="698" d="M404 458L497 58H506L611 458H687L556 0H445L352 400H343L250 0H138L11 458H89L192 58H200L292 458H404ZM297 684L414 525H340L212 684H297Z" />
<glyph unicode="&#x1e82;" glyph-name="Wacute" horiz-adv-x="922" d="M912 659L733 0H614L467 596H458L315 0H196L10 659H94L252 63H261L401 659H524L672 63H680L831 659H912ZM583 884L455 725H381L498 884H583Z" />
<glyph unicode="&#x1e83;" glyph-name="wacute" horiz-adv-x="698" d="M404 458L497 58H506L611 458H687L556 0H445L352 400H343L250 0H138L11 458H89L192 58H200L292 458H404ZM484 684L356 525H282L399 684H484Z" />
<glyph unicode="&#x1e84;" glyph-name="Wdieresis" horiz-adv-x="922" d="M912 659L733 0H614L467 596H458L315 0H196L10 659H94L252 63H261L401 659H524L672 63H680L831 659H912ZM412 762H336V842H412V762ZM588 762H513V842H588V762Z" />
<glyph unicode="&#x1e85;" glyph-name="wdieresis" horiz-adv-x="698" d="M404 458L497 58H506L611 458H687L556 0H445L352 400H343L250 0H138L11 458H89L192 58H200L292 458H404ZM297 567H221V647H297V567ZM473 567H398V647H473V567Z" />
<glyph unicode="&#x1ea0;" glyph-name="uni1EA0" horiz-adv-x="612" d="M520 0L451 193H159L92 0H8L248 659H362L605 0H520ZM182 258H427L308 595H299L182 258ZM337 -88H272V-21H337V-88Z" />
<glyph unicode="&#x1ea1;" glyph-name="uni1EA1" horiz-adv-x="464" d="M447 -2Q442 -3 436 -3T420 -4Q357 -4 338 47Q280 -11 180 -11Q102 -11 66 29Q35 63 35 130Q35 208 90 242Q135 269 230 269Q243 269 256 269T283 268L327 266V276Q327 354 308 379Q286 410
216 410Q180 410 137 398Q120 393 104 388T74 375L55 428Q74 438 94 444T137 456Q183 469 236 469Q332 469 367 428Q403 386 403 278V115Q403 54 447 54V-2ZM327 208L274 211Q260 212 247 212T222 212Q114 212 114 134Q114 48 203 48Q262 48 327 98V208ZM263 -114H199V-46H263V-114Z"
/>
<glyph unicode="&#x1ea2;" glyph-name="uni1EA2" horiz-adv-x="612" d="M520 0L451 193H159L92 0H8L248 659H362L605 0H520ZM182 258H427L308 595H299L182 258ZM278 732V758Q278 773 286 792L304 816L308 822L310 824L312 826Q317 831 319 835Q324 843 324 847Q324
863 302 863Q293 863 284 860Q278 859 257 846L240 886Q250 893 258 897T273 903Q286 907 305 907Q372 907 372 848Q372 831 363 815L354 803L336 784L330 775Q323 765 323 754V732H278Z" />
<glyph unicode="&#x1ea3;" glyph-name="uni1EA3" horiz-adv-x="464" d="M447 -2Q442 -3 436 -3T420 -4Q357 -4 338 47Q280 -11 180 -11Q102 -11 66 29Q35 63 35 130Q35 208 90 242Q135 269 230 269Q243 269 256 269T283 268L327 266V276Q327 354 308 379Q286 410
216 410Q180 410 137 398Q120 393 104 388T74 375L55 428Q74 438 94 444T137 456Q183 469 236 469Q332 469 367 428Q403 386 403 278V115Q403 54 447 54V-2ZM327 208L274 211Q260 212 247 212T222 212Q114 212 114 134Q114 48 203 48Q262 48 327 98V208ZM194 519V544Q194
563 203 580Q209 590 221 604L225 609L227 611L229 614L235 621Q241 628 241 633Q241 650 219 650Q208 650 201 647Q193 646 173 632L156 673Q166 678 174 682T190 689Q206 695 222 695Q289 695 289 635Q289 618 280 603L271 591L253 570Q251 568 249 567T246 563Q241
550 241 542V519H194Z" />
<glyph unicode="&#x1ea4;" glyph-name="uni1EA4" horiz-adv-x="612" d="M520 0L451 193H159L92 0H8L248 659H362L605 0H520ZM182 258H427L308 595H299L182 258ZM543 916L447 795H389L478 916H543ZM343 827L417 717H351L310 784H304L260 717H196L271 827H343Z" />
<glyph unicode="&#x1ea5;" glyph-name="uni1EA5" horiz-adv-x="464" d="M447 -2Q442 -3 436 -3T420 -4Q357 -4 338 47Q280 -11 180 -11Q102 -11 66 29Q35 63 35 130Q35 208 90 242Q135 269 230 269Q243 269 256 269T283 268L327 266V276Q327 354 308 379Q286 410
216 410Q180 410 137 398Q120 393 104 388T74 375L55 428Q74 438 94 444T137 456Q183 469 236 469Q332 469 367 428Q403 386 403 278V115Q403 54 447 54V-2ZM327 208L274 211Q260 212 247 212T222 212Q114 212 114 134Q114 48 203 48Q262 48 327 98V208ZM461 712L363
592H307L396 712H461ZM254 627L330 516H263L222 583H215L171 516H107L182 627H254Z" />
<glyph unicode="&#x1ea6;" glyph-name="uni1EA6" horiz-adv-x="612" d="M520 0L451 193H159L92 0H8L248 659H362L605 0H520ZM182 258H427L308 595H299L182 258ZM377 913L466 792H409L311 913H377ZM343 827L417 717H351L310 784H304L260 717H196L271 827H343Z" />
<glyph unicode="&#x1ea7;" glyph-name="uni1EA7" horiz-adv-x="464" d="M447 -2Q442 -3 436 -3T420 -4Q357 -4 338 47Q280 -11 180 -11Q102 -11 66 29Q35 63 35 130Q35 208 90 242Q135 269 230 269Q243 269 256 269T283 268L327 266V276Q327 354 308 379Q286 410
216 410Q180 410 137 398Q120 393 104 388T74 375L55 428Q74 438 94 444T137 456Q183 469 236 469Q332 469 367 428Q403 386 403 278V115Q403 54 447 54V-2ZM327 208L274 211Q260 212 247 212T222 212Q114 212 114 134Q114 48 203 48Q262 48 327 98V208ZM284 723L374
603H317L219 723H284ZM254 627L330 516H263L222 583H215L171 516H107L182 627H254Z" />
<glyph unicode="&#x1ea8;" glyph-name="uni1EA8" horiz-adv-x="612" d="M520 0L451 193H159L92 0H8L248 659H362L605 0H520ZM182 258H427L308 595H299L182 258ZM391 791V817Q391 835 400 852Q404 858 408 864T417 877L422 881L424 883L426 886L433 894Q438 902
438 906Q438 924 416 924Q405 924 398 920Q389 917 371 905L353 945Q373 959 387 963Q400 967 418 967Q486 967 486 907Q486 891 477 876Q474 869 468 863L450 843L443 835Q437 824 437 814V791H391ZM343 827L417 717H351L310 784H304L260 717H196L271 827H343Z"
/>
<glyph unicode="&#x1ea9;" glyph-name="uni1EA9" horiz-adv-x="464" d="M447 -2Q442 -3 436 -3T420 -4Q357 -4 338 47Q280 -11 180 -11Q102 -11 66 29Q35 63 35 130Q35 208 90 242Q135 269 230 269Q243 269 256 269T283 268L327 266V276Q327 354 308 379Q286 410
216 410Q180 410 137 398Q120 393 104 388T74 375L55 428Q74 438 94 444T137 456Q183 469 236 469Q332 469 367 428Q403 386 403 278V115Q403 54 447 54V-2ZM327 208L274 211Q260 212 247 212T222 212Q114 212 114 134Q114 48 203 48Q262 48 327 98V208ZM300 592V616Q300
630 308 649Q311 654 315 659T325 672L328 676Q331 677 331 679L333 681Q337 685 338 688Q344 695 344 700Q344 715 323 715Q313 715 306 712Q298 710 281 699L264 737L296 752Q314 757 326 757Q389 757 389 701Q389 684 380 671L372 659L356 641Q351 636 349 632Q344
620 344 614V592H300ZM254 627L330 516H263L222 583H215L171 516H107L182 627H254Z" />
<glyph unicode="&#x1eaa;" glyph-name="uni1EAA" horiz-adv-x="612" d="M520 0L451 193H159L92 0H8L248 659H362L605 0H520ZM182 258H427L308 595H299L182 258ZM207 882Q240 915 280 915Q295 915 306 911Q313 906 327 902L348 893Q357 889 370 889Q385 889 400
895Q405 897 411 900T426 909L443 872Q412 841 370 841Q356 841 343 844Q339 846 334 848T321 854Q307 861 300 863Q289 866 279 866Q257 866 225 846L207 882ZM343 827L417 717H351L310 784H304L260 717H196L271 827H343Z" />
<glyph unicode="&#x1eab;" glyph-name="uni1EAB" horiz-adv-x="464" d="M447 -2Q442 -3 436 -3T420 -4Q357 -4 338 47Q280 -11 180 -11Q102 -11 66 29Q35 63 35 130Q35 208 90 242Q135 269 230 269Q243 269 256 269T283 268L327 266V276Q327 354 308 379Q286 410
216 410Q180 410 137 398Q120 393 104 388T74 375L55 428Q74 438 94 444T137 456Q183 469 236 469Q332 469 367 428Q403 386 403 278V115Q403 54 447 54V-2ZM327 208L274 211Q260 212 247 212T222 212Q114 212 114 134Q114 48 203 48Q262 48 327 98V208ZM116 684Q150
715 189 715Q206 715 215 711Q224 709 237 702Q245 698 250 697T258 694Q273 689 280 689Q296 689 310 696Q319 700 335 710L352 673Q321 642 279 642Q264 642 253 646Q244 647 230 655Q222 659 217 660T209 663Q196 668 188 668Q163 668 135 646L116 684ZM254
627L330 516H263L222 583H215L171 516H107L182 627H254Z" />
<glyph unicode="&#x1eac;" glyph-name="uni1EAC" horiz-adv-x="612" d="M520 0L451 193H159L92 0H8L248 659H362L605 0H520ZM182 258H427L308 595H299L182 258ZM337 -88H272V-21H337V-88ZM343 827L417 717H351L310 784H304L260 717H196L271 827H343Z" />
<glyph unicode="&#x1ead;" glyph-name="uni1EAD" horiz-adv-x="464" d="M447 -2Q442 -3 436 -3T420 -4Q357 -4 338 47Q280 -11 180 -11Q102 -11 66 29Q35 63 35 130Q35 208 90 242Q135 269 230 269Q243 269 256 269T283 268L327 266V276Q327 354 308 379Q286 410
216 410Q180 410 137 398Q120 393 104 388T74 375L55 428Q74 438 94 444T137 456Q183 469 236 469Q332 469 367 428Q403 386 403 278V115Q403 54 447 54V-2ZM327 208L274 211Q260 212 247 212T222 212Q114 212 114 134Q114 48 203 48Q262 48 327 98V208ZM263 -114H199V-46H263V-114ZM254
627L330 516H263L222 583H215L171 516H107L182 627H254Z" />
<glyph unicode="&#x1eae;" glyph-name="uni1EAE" horiz-adv-x="612" d="M520 0L451 193H159L92 0H8L248 659H362L605 0H520ZM182 258H427L308 595H299L182 258ZM434 943L337 822H280L369 943H434ZM306 715Q215 721 204 813L251 814Q260 763 306 763Q352 763 361
814L408 815Q399 721 306 715Z" />
<glyph unicode="&#x1eaf;" glyph-name="uni1EAF" horiz-adv-x="464" d="M447 -2Q442 -3 436 -3T420 -4Q357 -4 338 47Q280 -11 180 -11Q102 -11 66 29Q35 63 35 130Q35 208 90 242Q135 269 230 269Q243 269 256 269T283 268L327 266V276Q327 354 308 379Q286 410
216 410Q180 410 137 398Q120 393 104 388T74 375L55 428Q74 438 94 444T137 456Q183 469 236 469Q332 469 367 428Q403 386 403 278V115Q403 54 447 54V-2ZM327 208L274 211Q260 212 247 212T222 212Q114 212 114 134Q114 48 203 48Q262 48 327 98V208ZM344 732L247
610H190L279 732H344ZM223 512Q131 517 121 609L169 610Q178 559 223 559Q270 559 279 610L325 611Q317 516 223 512Z" />
<glyph unicode="&#x1eb0;" glyph-name="uni1EB0" horiz-adv-x="612" d="M520 0L451 193H159L92 0H8L248 659H362L605 0H520ZM182 258H427L308 595H299L182 258ZM261 943L350 822H294L196 943H261ZM306 715Q215 721 204 813L251 814Q260 763 306 763Q352 763 361
814L408 815Q399 721 306 715Z" />
<glyph unicode="&#x1eb1;" glyph-name="uni1EB1" horiz-adv-x="464" d="M447 -2Q442 -3 436 -3T420 -4Q357 -4 338 47Q280 -11 180 -11Q102 -11 66 29Q35 63 35 130Q35 208 90 242Q135 269 230 269Q243 269 256 269T283 268L327 266V276Q327 354 308 379Q286 410
216 410Q180 410 137 398Q120 393 104 388T74 375L55 428Q74 438 94 444T137 456Q183 469 236 469Q332 469 367 428Q403 386 403 278V115Q403 54 447 54V-2ZM327 208L274 211Q260 212 247 212T222 212Q114 212 114 134Q114 48 203 48Q262 48 327 98V208ZM171 733L260
611H203L106 733H171ZM223 512Q131 517 121 609L169 610Q178 559 223 559Q270 559 279 610L325 611Q317 516 223 512Z" />
<glyph unicode="&#x1eb2;" glyph-name="uni1EB2" horiz-adv-x="612" d="M520 0L451 193H159L92 0H8L248 659H362L605 0H520ZM182 258H427L308 595H299L182 258ZM291 812V838Q291 854 299 873L317 898L321 902L323 904L325 906L332 915Q337 923 337 927Q337 944
315 944Q306 944 297 941Q289 938 270 926L253 966Q263 973 271 977T286 983Q306 988 318 988Q385 988 385 928Q385 912 376 896Q374 890 367 883L349 864Q344 859 343 855Q337 846 337 836V812H291ZM306 715Q215 721 204 813L251 814Q260 763 306 763Q352 763
361 814L408 815Q399 721 306 715Z" />
<glyph unicode="&#x1eb3;" glyph-name="uni1EB3" horiz-adv-x="464" d="M447 -2Q442 -3 436 -3T420 -4Q357 -4 338 47Q280 -11 180 -11Q102 -11 66 29Q35 63 35 130Q35 208 90 242Q135 269 230 269Q243 269 256 269T283 268L327 266V276Q327 354 308 379Q286 410
216 410Q180 410 137 398Q120 393 104 388T74 375L55 428Q74 438 94 444T137 456Q183 469 236 469Q332 469 367 428Q403 386 403 278V115Q403 54 447 54V-2ZM327 208L274 211Q260 212 247 212T222 212Q114 212 114 134Q114 48 203 48Q262 48 327 98V208ZM223 512Q131
517 121 609L169 610Q178 559 223 559Q270 559 279 610L325 611Q317 516 223 512ZM204 609V634Q204 649 212 668L229 691L237 699L243 706Q248 714 248 718Q248 734 228 734Q219 734 210 731L184 718L168 754Q179 761 187 765T201 771Q212 775 230 775Q294 775
294 720Q294 704 285 689L276 677L259 659L253 650Q248 642 248 632V609H204Z" />
<glyph unicode="&#x1eb4;" glyph-name="uni1EB4" horiz-adv-x="612" d="M520 0L451 193H159L92 0H8L248 659H362L605 0H520ZM182 258H427L308 595H299L182 258ZM207 882Q240 915 280 915Q295 915 306 911Q313 906 327 902L348 893Q357 889 370 889Q385 889 400
895Q405 897 411 900T426 909L443 872Q412 841 370 841Q356 841 343 844Q339 846 334 848T321 854Q307 861 300 863Q289 866 279 866Q257 866 225 846L207 882ZM306 715Q215 721 204 813L251 814Q260 763 306 763Q352 763 361 814L408 815Q399 721 306 715Z" />
<glyph unicode="&#x1eb5;" glyph-name="uni1EB5" horiz-adv-x="464" d="M447 -2Q442 -3 436 -3T420 -4Q357 -4 338 47Q280 -11 180 -11Q102 -11 66 29Q35 63 35 130Q35 208 90 242Q135 269 230 269Q243 269 256 269T283 268L327 266V276Q327 354 308 379Q286 410
216 410Q180 410 137 398Q120 393 104 388T74 375L55 428Q74 438 94 444T137 456Q183 469 236 469Q332 469 367 428Q403 386 403 278V115Q403 54 447 54V-2ZM327 208L274 211Q260 212 247 212T222 212Q114 212 114 134Q114 48 203 48Q262 48 327 98V208ZM116 684Q150
715 189 715Q206 715 215 711Q224 709 237 702Q245 698 250 697T258 694Q273 689 280 689Q296 689 310 696Q319 700 335 710L352 673Q321 642 279 642Q264 642 253 646Q244 647 230 655Q222 659 217 660T209 663Q196 668 188 668Q163 668 135 646L116 684ZM223
512Q131 517 121 609L169 610Q178 559 223 559Q270 559 279 610L325 611Q317 516 223 512Z" />
<glyph unicode="&#x1eb6;" glyph-name="uni1EB6" horiz-adv-x="612" d="M520 0L451 193H159L92 0H8L248 659H362L605 0H520ZM182 258H427L308 595H299L182 258ZM337 -88H272V-21H337V-88ZM306 715Q215 721 204 813L251 814Q260 763 306 763Q352 763 361 814L408
815Q399 721 306 715Z" />
<glyph unicode="&#x1eb7;" glyph-name="uni1EB7" horiz-adv-x="464" d="M447 -2Q442 -3 436 -3T420 -4Q357 -4 338 47Q280 -11 180 -11Q102 -11 66 29Q35 63 35 130Q35 208 90 242Q135 269 230 269Q243 269 256 269T283 268L327 266V276Q327 354 308 379Q286 410
216 410Q180 410 137 398Q120 393 104 388T74 375L55 428Q74 438 94 444T137 456Q183 469 236 469Q332 469 367 428Q403 386 403 278V115Q403 54 447 54V-2ZM327 208L274 211Q260 212 247 212T222 212Q114 212 114 134Q114 48 203 48Q262 48 327 98V208ZM263 -114H199V-46H263V-114ZM223
512Q131 517 121 609L169 610Q178 559 223 559Q270 559 279 610L325 611Q317 516 223 512Z" />
<glyph unicode="&#x1eb8;" glyph-name="uni1EB8" horiz-adv-x="528" d="M476 64V0H73V659H465V595H150V372H454V308H150V64H476ZM306 -114H243V-46H306V-114Z" />
<glyph unicode="&#x1eb9;" glyph-name="uni1EB9" horiz-adv-x="473" d="M86 49Q39 108 39 232Q39 469 248 469Q354 469 399 405Q435 352 435 246V210H118Q120 49 262 49Q308 49 347 62Q363 66 380 74Q387 75 395 80L406 86L427 34Q401 17 353 4Q299 -11 250 -11Q135
-11 86 49ZM356 267Q356 412 248 412Q125 412 118 267H356ZM269 -114H204V-46H269V-114Z" />
<glyph unicode="&#x1eba;" glyph-name="uni1EBA" horiz-adv-x="528" d="M476 64V0H73V659H465V595H150V372H454V308H150V64H476ZM246 732V758Q246 775 255 792Q257 797 261 802T272 816L276 822Q279 823 279 824L281 826Q285 830 287 835Q293 841 293 847Q293
863 271 863Q260 863 253 860L225 846L208 886Q218 893 226 897T242 903Q255 907 273 907Q340 907 340 848Q340 834 332 815L322 803L305 784L298 775Q293 762 293 754V732H246Z" />
<glyph unicode="&#x1ebb;" glyph-name="uni1EBB" horiz-adv-x="473" d="M86 49Q39 108 39 232Q39 469 248 469Q354 469 399 405Q435 352 435 246V210H118Q120 49 262 49Q308 49 347 62Q363 66 380 74Q387 75 395 80L406 86L427 34Q401 17 353 4Q299 -11 250 -11Q135
-11 86 49ZM356 267Q356 412 248 412Q125 412 118 267H356ZM225 519V544Q225 563 234 580Q238 585 242 591T251 604L256 609L258 611L260 614L267 621Q272 629 272 633Q272 650 250 650Q241 650 232 647Q224 645 205 632L188 673Q197 678 205 682T221 689Q237 695
253 695Q320 695 320 635Q320 618 311 603Q308 597 302 591L284 570L278 563Q271 553 271 542V519H225Z" />
<glyph unicode="&#x1ebc;" glyph-name="uni1EBC" horiz-adv-x="528" d="M476 64V0H73V659H465V595H150V372H454V308H150V64H476ZM164 766Q196 798 236 798Q245 798 262 793L285 785Q298 777 306 776Q314 772 327 772Q341 772 358 778L383 792L400 754Q367 724
326 724Q313 724 300 727Q296 729 291 731T278 737Q263 744 257 746Q246 749 235 749Q212 749 182 728L164 766Z" />
<glyph unicode="&#x1ebd;" glyph-name="uni1EBD" horiz-adv-x="473" d="M86 49Q39 108 39 232Q39 469 248 469Q354 469 399 405Q435 352 435 246V210H118Q120 49 262 49Q308 49 347 62Q363 66 380 74Q387 75 395 80L406 86L427 34Q401 17 353 4Q299 -11 250 -11Q135
-11 86 49ZM356 267Q356 412 248 412Q125 412 118 267H356ZM131 567Q166 599 204 599Q219 599 230 595L251 586L272 578Q287 573 294 573Q311 573 324 580Q329 582 335 585T350 594L367 556Q335 526 294 526Q281 526 268 529Q263 531 258 533T245 539Q237 543 232
544T224 547Q216 551 203 551Q180 551 150 530L131 567Z" />
<glyph unicode="&#x1ebe;" glyph-name="uni1EBE" horiz-adv-x="528" d="M476 64V0H73V659H465V595H150V372H454V308H150V64H476ZM507 913L410 792H352L442 913H507ZM306 827L382 717H315L273 784H267L223 717H159L234 827H306Z" />
<glyph unicode="&#x1ebf;" glyph-name="uni1EBF" horiz-adv-x="473" d="M86 49Q39 108 39 232Q39 469 248 469Q354 469 399 405Q435 352 435 246V210H118Q120 49 262 49Q308 49 347 62Q363 66 380 74Q387 75 395 80L406 86L427 34Q401 17 353 4Q299 -11 250 -11Q135
-11 86 49ZM356 267Q356 412 248 412Q125 412 118 267H356ZM482 715L385 595H327L416 715H482ZM288 627L363 516H297L256 583H248L205 516H141L217 627H288Z" />
<glyph unicode="&#x1ec0;" glyph-name="uni1EC0" horiz-adv-x="528" d="M476 64V0H73V659H465V595H150V372H454V308H150V64H476ZM333 913L422 792H364L268 913H333ZM306 827L382 717H315L273 784H267L223 717H159L234 827H306Z" />
<glyph unicode="&#x1ec1;" glyph-name="uni1EC1" horiz-adv-x="473" d="M86 49Q39 108 39 232Q39 469 248 469Q354 469 399 405Q435 352 435 246V210H118Q120 49 262 49Q308 49 347 62Q363 66 380 74Q387 75 395 80L406 86L427 34Q401 17 353 4Q299 -11 250 -11Q135
-11 86 49ZM356 267Q356 412 248 412Q125 412 118 267H356ZM317 721L405 601H348L250 721H317ZM288 627L363 516H297L256 583H248L205 516H141L217 627H288Z" />
<glyph unicode="&#x1ec2;" glyph-name="uni1EC2" horiz-adv-x="528" d="M476 64V0H73V659H465V595H150V372H454V308H150V64H476ZM371 790V816Q371 833 379 852Q385 862 397 876L401 880Q403 882 403 883L405 886Q407 888 409 889T412 893Q416 900 416 905Q416
922 395 922Q386 922 377 919Q369 917 350 904L333 945Q344 952 352 956T366 962Q386 967 398 967Q465 967 465 907Q465 888 455 875Q454 872 447 863L429 842L423 835Q416 825 416 814V790H371ZM306 827L382 717H315L273 784H267L223 717H159L234 827H306Z" />
<glyph unicode="&#x1ec3;" glyph-name="uni1EC3" horiz-adv-x="473" d="M86 49Q39 108 39 232Q39 469 248 469Q354 469 399 405Q435 352 435 246V210H118Q120 49 262 49Q308 49 347 62Q363 66 380 74Q387 75 395 80L406 86L427 34Q401 17 353 4Q299 -11 250 -11Q135
-11 86 49ZM356 267Q356 412 248 412Q125 412 118 267H356ZM333 593V619Q333 634 341 655Q347 665 359 679L363 683L365 686L367 688L374 696Q379 704 379 708Q379 725 358 725Q348 725 338 722Q331 720 312 707L294 747Q304 754 312 758T328 764Q348 769 360 769Q427
769 427 710Q427 693 418 677L409 666L391 645L384 636Q378 628 378 617V593H333ZM288 627L363 516H297L256 583H248L205 516H141L217 627H288Z" />
<glyph unicode="&#x1ec4;" glyph-name="uni1EC4" horiz-adv-x="528" d="M476 64V0H73V659H465V595H150V372H454V308H150V64H476ZM188 888Q219 919 260 919Q275 919 286 915Q295 913 308 906L328 898Q343 893 350 893Q366 893 380 900Q385 902 391 905T406 914L424
877Q390 846 349 846Q334 846 323 850Q315 851 301 859L281 867Q266 872 259 872Q236 872 205 850L188 888ZM306 827L382 717H315L273 784H267L223 717H159L234 827H306Z" />
<glyph unicode="&#x1ec5;" glyph-name="uni1EC5" horiz-adv-x="473" d="M86 49Q39 108 39 232Q39 469 248 469Q354 469 399 405Q435 352 435 246V210H118Q120 49 262 49Q308 49 347 62Q363 66 380 74Q387 75 395 80L406 86L427 34Q401 17 353 4Q299 -11 250 -11Q135
-11 86 49ZM356 267Q356 412 248 412Q125 412 118 267H356ZM160 677Q195 709 233 709Q248 709 259 705L281 697L301 687Q310 683 323 683Q338 683 353 689L379 704L397 667Q362 635 323 635Q313 635 296 640Q292 641 287 642T274 648Q260 656 254 657Q246 661 232
661Q209 661 179 640L160 677ZM288 627L363 516H297L256 583H248L205 516H141L217 627H288Z" />
<glyph unicode="&#x1ec6;" glyph-name="uni1EC6" horiz-adv-x="528" d="M476 64V0H73V659H465V595H150V372H454V308H150V64H476ZM306 -114H243V-46H306V-114ZM306 827L382 717H315L273 784H267L223 717H159L234 827H306Z" />
<glyph unicode="&#x1ec7;" glyph-name="uni1EC7" horiz-adv-x="473" d="M86 49Q39 108 39 232Q39 469 248 469Q354 469 399 405Q435 352 435 246V210H118Q120 49 262 49Q308 49 347 62Q363 66 380 74Q387 75 395 80L406 86L427 34Q401 17 353 4Q299 -11 250 -11Q135
-11 86 49ZM356 267Q356 412 248 412Q125 412 118 267H356ZM269 -114H204V-46H269V-114ZM288 627L363 516H297L256 583H248L205 516H141L217 627H288Z" />
<glyph unicode="&#x1ec8;" glyph-name="uni1EC8" horiz-adv-x="222" d="M73 659H150V0H73V659ZM90 732V758Q90 773 98 792Q101 797 105 803T115 816L119 822L121 824L124 826L131 835Q135 839 135 847Q135 863 114 863Q105 863 95 860L68 846L51 886Q69 899 85
903Q98 907 116 907Q184 907 184 848Q184 831 175 815Q170 810 166 803L147 784L141 775Q135 764 135 754V732H90Z" />
<glyph unicode="&#x1ec9;" glyph-name="uni1EC9" horiz-adv-x="203" d="M63 459H138V0H63V459ZM79 519V544Q79 563 88 580Q90 585 94 590T105 604L109 609Q112 610 112 611L114 614L120 621Q126 628 126 633Q126 650 104 650Q93 650 86 647Q77 645 59 632L41 673Q51
679 59 683T75 689Q90 695 106 695Q175 695 175 635Q175 616 165 603L156 591L138 570Q136 568 134 567T131 563Q126 550 126 542V519H79Z" />
<glyph unicode="&#x1eca;" glyph-name="uni1ECA" horiz-adv-x="222" d="M73 659H150V0H73V659ZM143 -114H79V-46H143V-114Z" />
<glyph unicode="&#x1ecb;" glyph-name="uni1ECB" horiz-adv-x="203" d="M62 647H139V567H62V647ZM63 459H138V0H63V459ZM132 -114H68V-46H132V-114Z" />
<glyph unicode="&#x1ecc;" glyph-name="uni1ECC" horiz-adv-x="641" d="M332 670Q475 670 539 579Q597 497 597 326Q597 -11 307 -11Q165 -11 100 81Q42 163 42 333Q42 670 332 670ZM508 444Q500 495 479 529Q435 607 333 607Q216 607 167 534Q122 468 122 322Q122
195 158 131Q203 53 305 53Q423 53 472 126Q517 192 517 339Q517 399 508 444ZM351 -114H287V-46H351V-114Z" />
<glyph unicode="&#x1ecd;" glyph-name="uni1ECD" horiz-adv-x="506" d="M81 53Q39 111 39 231Q39 469 263 469Q374 469 424 404Q467 349 467 227Q467 -11 242 -11Q130 -11 81 53ZM358 95Q389 138 389 235Q389 320 364 360Q336 412 263 412Q181 412 147 363Q116
320 116 223Q116 139 141 99Q169 48 242 48Q323 48 358 95ZM285 -114H221V-46H285V-114Z" />
<glyph unicode="&#x1ece;" glyph-name="uni1ECE" horiz-adv-x="641" d="M332 670Q475 670 539 579Q597 497 597 326Q597 -11 307 -11Q165 -11 100 81Q42 163 42 333Q42 670 332 670ZM508 444Q500 495 479 529Q435 607 333 607Q216 607 167 534Q122 468 122 322Q122
195 158 131Q203 53 305 53Q423 53 472 126Q517 192 517 339Q517 399 508 444ZM293 732V758Q293 773 301 792Q307 802 319 816L323 822L325 824L327 826Q332 831 334 835Q339 843 339 847Q339 863 318 863Q308 863 299 860L272 846L255 886Q265 893 273 897T288
903Q301 907 320 907Q387 907 387 848Q387 831 378 815L369 803L351 784L345 775Q338 765 338 754V732H293Z" />
<glyph unicode="&#x1ecf;" glyph-name="uni1ECF" horiz-adv-x="506" d="M81 53Q39 111 39 231Q39 469 263 469Q374 469 424 404Q467 349 467 227Q467 -11 242 -11Q130 -11 81 53ZM358 95Q389 138 389 235Q389 320 364 360Q336 412 263 412Q181 412 147 363Q116
320 116 223Q116 139 141 99Q169 48 242 48Q323 48 358 95ZM230 519V544Q230 561 238 580L256 604L263 611Q264 612 264 614Q266 616 268 617T271 621Q276 629 276 633Q276 650 255 650Q246 650 236 647Q228 645 209 632L192 673Q201 678 209 682T225 689Q241 695
258 695Q325 695 325 635Q325 616 315 603Q314 600 307 591L288 570L282 563Q276 552 276 542V519H230Z" />
<glyph unicode="&#x1ed0;" glyph-name="uni1ED0" horiz-adv-x="641" d="M332 670Q475 670 539 579Q597 497 597 326Q597 -11 307 -11Q165 -11 100 81Q42 163 42 333Q42 670 332 670ZM508 444Q500 495 479 529Q435 607 333 607Q216 607 167 534Q122 468 122 322Q122
195 158 131Q203 53 305 53Q423 53 472 126Q517 192 517 339Q517 399 508 444ZM555 913L457 792H400L490 913H555ZM356 827L430 717H364L323 784H317L272 717H208L283 827H356Z" />
<glyph unicode="&#x1ed1;" glyph-name="uni1ED1" horiz-adv-x="506" d="M81 53Q39 111 39 231Q39 469 263 469Q374 469 424 404Q467 349 467 227Q467 -11 242 -11Q130 -11 81 53ZM358 95Q389 138 389 235Q389 320 364 360Q336 412 263 412Q181 412 147 363Q116
320 116 223Q116 139 141 99Q169 48 242 48Q323 48 358 95ZM492 719L395 597H338L427 719H492ZM288 627L363 516H297L256 583H249L206 516H142L217 627H288Z" />
<glyph unicode="&#x1ed2;" glyph-name="uni1ED2" horiz-adv-x="641" d="M332 670Q475 670 539 579Q597 497 597 326Q597 -11 307 -11Q165 -11 100 81Q42 163 42 333Q42 670 332 670ZM508 444Q500 495 479 529Q435 607 333 607Q216 607 167 534Q122 468 122 322Q122
195 158 131Q203 53 305 53Q423 53 472 126Q517 192 517 339Q517 399 508 444ZM385 913L474 791H417L320 913H385ZM356 827L430 717H364L323 784H317L272 717H208L283 827H356Z" />
<glyph unicode="&#x1ed3;" glyph-name="uni1ED3" horiz-adv-x="506" d="M81 53Q39 111 39 231Q39 469 263 469Q374 469 424 404Q467 349 467 227Q467 -11 242 -11Q130 -11 81 53ZM358 95Q389 138 389 235Q389 320 364 360Q336 412 263 412Q181 412 147 363Q116
320 116 223Q116 139 141 99Q169 48 242 48Q323 48 358 95ZM315 719L404 597H348L249 719H315ZM288 627L363 516H297L256 583H249L206 516H142L217 627H288Z" />
<glyph unicode="&#x1ed4;" glyph-name="uni1ED4" horiz-adv-x="641" d="M332 670Q475 670 539 579Q597 497 597 326Q597 -11 307 -11Q165 -11 100 81Q42 163 42 333Q42 670 332 670ZM508 444Q500 495 479 529Q435 607 333 607Q216 607 167 534Q122 468 122 322Q122
195 158 131Q203 53 305 53Q423 53 472 126Q517 192 517 339Q517 399 508 444ZM409 787V813Q409 831 418 848Q421 853 425 859T436 873L440 877L442 880Q443 880 444 881L451 890Q455 894 455 902Q455 919 434 919Q425 919 415 916Q407 913 388 901L371 941Q381
948 389 952T405 958Q425 963 437 963Q504 963 504 903Q504 887 495 872L486 859L468 839L461 830Q455 821 455 811V787H409ZM356 827L430 717H364L323 784H317L272 717H208L283 827H356Z" />
<glyph unicode="&#x1ed5;" glyph-name="uni1ED5" horiz-adv-x="506" d="M81 53Q39 111 39 231Q39 469 263 469Q374 469 424 404Q467 349 467 227Q467 -11 242 -11Q130 -11 81 53ZM358 95Q389 138 389 235Q389 320 364 360Q336 412 263 412Q181 412 147 363Q116
320 116 223Q116 139 141 99Q169 48 242 48Q323 48 358 95ZM345 588V614Q345 629 353 648L371 673L376 677L378 680Q379 681 379 682Q384 687 386 691Q391 699 391 702Q391 720 370 720Q361 720 351 717L324 701L307 741Q326 754 340 759Q353 763 373 763Q440 763
440 704Q440 685 430 672L422 659L403 640Q400 634 397 631Q391 620 391 610V588H345ZM288 627L363 516H297L256 583H249L206 516H142L217 627H288Z" />
<glyph unicode="&#x1ed6;" glyph-name="uni1ED6" horiz-adv-x="641" d="M332 670Q475 670 539 579Q597 497 597 326Q597 -11 307 -11Q165 -11 100 81Q42 163 42 333Q42 670 332 670ZM508 444Q500 495 479 529Q435 607 333 607Q216 607 167 534Q122 468 122 322Q122
195 158 131Q203 53 305 53Q423 53 472 126Q517 192 517 339Q517 399 508 444ZM227 886Q259 918 299 918Q314 918 325 914L347 905L367 896Q376 892 389 892Q406 892 420 899Q425 901 431 904T446 913L463 875Q432 844 389 844Q373 844 362 848L340 857L320 866Q309
869 298 869Q277 869 245 849L227 886ZM356 827L430 717H364L323 784H317L272 717H208L283 827H356Z" />
<glyph unicode="&#x1ed7;" glyph-name="uni1ED7" horiz-adv-x="506" d="M81 53Q39 111 39 231Q39 469 263 469Q374 469 424 404Q467 349 467 227Q467 -11 242 -11Q130 -11 81 53ZM358 95Q389 138 389 235Q389 320 364 360Q336 412 263 412Q181 412 147 363Q116
320 116 223Q116 139 141 99Q169 48 242 48Q323 48 358 95ZM155 682Q190 714 227 714Q243 714 254 710L275 701L296 693Q311 688 318 688Q335 688 348 695Q353 697 359 700T374 709L391 671Q359 641 317 641Q304 641 291 644Q280 647 269 654L248 662Q239 666 227
666Q204 666 173 645L155 682ZM288 627L363 516H297L256 583H249L206 516H142L217 627H288Z" />
<glyph unicode="&#x1ed8;" glyph-name="uni1ED8" horiz-adv-x="641" d="M332 670Q475 670 539 579Q597 497 597 326Q597 -11 307 -11Q165 -11 100 81Q42 163 42 333Q42 670 332 670ZM508 444Q500 495 479 529Q435 607 333 607Q216 607 167 534Q122 468 122 322Q122
195 158 131Q203 53 305 53Q423 53 472 126Q517 192 517 339Q517 399 508 444ZM351 -114H287V-46H351V-114ZM356 827L430 717H364L323 784H317L272 717H208L283 827H356Z" />
<glyph unicode="&#x1ed9;" glyph-name="uni1ED9" horiz-adv-x="506" d="M81 53Q39 111 39 231Q39 469 263 469Q374 469 424 404Q467 349 467 227Q467 -11 242 -11Q130 -11 81 53ZM358 95Q389 138 389 235Q389 320 364 360Q336 412 263 412Q181 412 147 363Q116
320 116 223Q116 139 141 99Q169 48 242 48Q323 48 358 95ZM285 -114H221V-46H285V-114ZM288 627L363 516H297L256 583H249L206 516H142L217 627H288Z" />
<glyph unicode="&#x1eda;" glyph-name="uni1EDA" horiz-adv-x="641" d="M332 670Q475 670 539 579Q541 576 543 573T547 565Q581 611 581 673H647Q647 628 631 596Q615 566 585 534L558 545Q597 464 597 326Q597 -11 307 -11Q165 -11 100 81Q42 163 42 333Q42
670 332 670ZM508 444Q500 495 479 529Q435 607 333 607Q216 607 167 534Q122 468 122 322Q122 195 158 131Q203 53 305 53Q423 53 472 126Q517 192 517 339Q517 399 508 444ZM406 859L309 738H251L341 859H406Z" />
<glyph unicode="&#x1edb;" glyph-name="uni1EDB" horiz-adv-x="506" d="M81 53Q39 111 39 231Q39 469 263 469Q374 469 424 404Q429 397 433 389T443 371Q472 418 472 472H537Q537 432 520 395Q506 365 475 334L453 342Q467 291 467 227Q467 -11 242 -11Q130 -11
81 53ZM358 95Q389 138 389 235Q389 320 364 360Q336 412 263 412Q181 412 147 363Q116 320 116 223Q116 139 141 99Q169 48 242 48Q323 48 358 95ZM371 656L273 535H217L306 656H371Z" />
<glyph unicode="&#x1edc;" glyph-name="uni1EDC" horiz-adv-x="641" d="M332 670Q475 670 539 579Q541 576 543 573T547 565Q581 611 581 673H647Q647 628 631 596Q615 566 585 534L558 545Q597 464 597 326Q597 -11 307 -11Q165 -11 100 81Q42 163 42 333Q42
670 332 670ZM508 444Q500 495 479 529Q435 607 333 607Q216 607 167 534Q122 468 122 322Q122 195 158 131Q203 53 305 53Q423 53 472 126Q517 192 517 339Q517 399 508 444ZM291 859L379 738H323L225 859H291Z" />
<glyph unicode="&#x1edd;" glyph-name="uni1EDD" horiz-adv-x="506" d="M81 53Q39 111 39 231Q39 469 263 469Q374 469 424 404Q429 397 433 389T443 371Q472 418 472 472H537Q537 432 520 395Q506 365 475 334L453 342Q467 291 467 227Q467 -11 242 -11Q130 -11
81 53ZM358 95Q389 138 389 235Q389 320 364 360Q336 412 263 412Q181 412 147 363Q116 320 116 223Q116 139 141 99Q169 48 242 48Q323 48 358 95ZM214 656L302 535H246L149 656H214Z" />
<glyph unicode="&#x1ede;" glyph-name="uni1EDE" horiz-adv-x="641" d="M332 670Q475 670 539 579Q541 576 543 573T547 565Q581 611 581 673H647Q647 628 631 596Q615 566 585 534L558 545Q597 464 597 326Q597 -11 307 -11Q165 -11 100 81Q42 163 42 333Q42
670 332 670ZM508 444Q500 495 479 529Q435 607 333 607Q216 607 167 534Q122 468 122 322Q122 195 158 131Q203 53 305 53Q423 53 472 126Q517 192 517 339Q517 399 508 444ZM293 732V758Q293 773 301 792Q307 802 319 816L323 822L325 824L327 826Q332 831 334
835Q339 843 339 847Q339 863 318 863Q308 863 299 860L272 846L255 886Q265 893 273 897T288 903Q301 907 320 907Q387 907 387 848Q387 831 378 815L369 803L351 784L345 775Q338 765 338 754V732H293Z" />
<glyph unicode="&#x1edf;" glyph-name="uni1EDF" horiz-adv-x="506" d="M81 53Q39 111 39 231Q39 469 263 469Q374 469 424 404Q429 397 433 389T443 371Q472 418 472 472H537Q537 432 520 395Q506 365 475 334L453 342Q467 291 467 227Q467 -11 242 -11Q130 -11
81 53ZM358 95Q389 138 389 235Q389 320 364 360Q336 412 263 412Q181 412 147 363Q116 320 116 223Q116 139 141 99Q169 48 242 48Q323 48 358 95ZM230 519V544Q230 561 238 580L256 604L263 611Q264 612 264 614Q266 616 268 617T271 621Q276 629 276 633Q276
650 255 650Q246 650 236 647Q228 645 209 632L192 673Q201 678 209 682T225 689Q241 695 258 695Q325 695 325 635Q325 616 315 603Q314 600 307 591L288 570L282 563Q276 552 276 542V519H230Z" />
<glyph unicode="&#x1ee0;" glyph-name="uni1EE0" horiz-adv-x="641" d="M332 670Q475 670 539 579Q541 576 543 573T547 565Q581 611 581 673H647Q647 628 631 596Q615 566 585 534L558 545Q597 464 597 326Q597 -11 307 -11Q165 -11 100 81Q42 163 42 333Q42
670 332 670ZM508 444Q500 495 479 529Q435 607 333 607Q216 607 167 534Q122 468 122 322Q122 195 158 131Q203 53 305 53Q423 53 472 126Q517 192 517 339Q517 399 508 444ZM210 766Q245 798 283 798Q292 798 309 793L332 785Q346 777 352 776Q360 772 374 772Q387
772 404 778Q413 782 429 792L447 754Q414 724 373 724Q360 724 347 727L324 737Q310 745 304 746Q293 749 282 749Q259 749 229 728L210 766Z" />
<glyph unicode="&#x1ee1;" glyph-name="uni1EE1" horiz-adv-x="506" d="M81 53Q39 111 39 231Q39 469 263 469Q374 469 424 404Q429 397 433 389T443 371Q472 418 472 472H537Q537 432 520 395Q506 365 475 334L453 342Q467 291 467 227Q467 -11 242 -11Q130 -11
81 53ZM358 95Q389 138 389 235Q389 320 364 360Q336 412 263 412Q181 412 147 363Q116 320 116 223Q116 139 141 99Q169 48 242 48Q323 48 358 95ZM152 567Q184 599 224 599Q239 599 250 595L272 586L293 578Q308 573 314 573Q332 573 345 580Q350 582 356 585T371
594L388 556Q356 526 314 526Q300 526 287 529Q283 531 278 533T266 539L245 547Q236 551 223 551Q201 551 170 530L152 567Z" />
<glyph unicode="&#x1ee2;" glyph-name="uni1EE2" horiz-adv-x="641" d="M332 670Q475 670 539 579Q541 576 543 573T547 565Q581 611 581 673H647Q647 628 631 596Q615 566 585 534L558 545Q597 464 597 326Q597 -11 307 -11Q165 -11 100 81Q42 163 42 333Q42
670 332 670ZM508 444Q500 495 479 529Q435 607 333 607Q216 607 167 534Q122 468 122 322Q122 195 158 131Q203 53 305 53Q423 53 472 126Q517 192 517 339Q517 399 508 444ZM351 -114H287V-46H351V-114Z" />
<glyph unicode="&#x1ee3;" glyph-name="uni1EE3" horiz-adv-x="506" d="M81 53Q39 111 39 231Q39 469 263 469Q374 469 424 404Q429 397 433 389T443 371Q472 418 472 472H537Q537 432 520 395Q506 365 475 334L453 342Q467 291 467 227Q467 -11 242 -11Q130 -11
81 53ZM358 95Q389 138 389 235Q389 320 364 360Q336 412 263 412Q181 412 147 363Q116 320 116 223Q116 139 141 99Q169 48 242 48Q323 48 358 95ZM285 -114H221V-46H285V-114Z" />
<glyph unicode="&#x1ee4;" glyph-name="uni1EE4" horiz-adv-x="621" d="M555 659V246Q555 -11 301 -11Q66 -11 66 253V659H142V236Q142 53 300 53Q399 53 438 99Q477 142 477 254V659H555ZM341 -114H278V-46H341V-114Z" />
<glyph unicode="&#x1ee5;" glyph-name="uni1EE5" horiz-adv-x="499" d="M436 122L443 0H372L367 39Q293 -11 207 -11Q118 -11 87 34Q59 71 59 164V459H134V180Q134 112 150 87Q169 51 225 51Q259 51 298 65Q335 79 360 99V459H436V122ZM291 -114H227V-46H291V-114Z" />
<glyph unicode="&#x1ee6;" glyph-name="uni1EE6" horiz-adv-x="621" d="M555 659V246Q555 -11 301 -11Q66 -11 66 253V659H142V236Q142 53 300 53Q399 53 438 99Q477 142 477 254V659H555ZM287 732V758Q287 775 296 792Q298 797 302 802T313 816L318 822L322 826Q326
830 328 835Q334 841 334 847Q334 863 312 863Q301 863 294 860Q288 859 267 846L248 886Q259 893 267 897T283 903Q295 907 314 907Q382 907 382 848Q382 831 373 815L363 803L346 784L338 775Q333 762 333 754V732H287Z" />
<glyph unicode="&#x1ee7;" glyph-name="uni1EE7" horiz-adv-x="499" d="M436 122L443 0H372L367 39Q293 -11 207 -11Q118 -11 87 34Q59 71 59 164V459H134V180Q134 112 150 87Q169 51 225 51Q259 51 298 65Q335 79 360 99V459H436V122ZM230 519V544Q230 561 238
580Q242 585 246 591T257 604L261 609L266 614Q270 618 271 621Q276 629 276 633Q276 650 255 650Q246 650 236 647Q228 645 209 632L192 673Q201 678 209 682T225 689Q241 695 258 695Q325 695 325 635Q325 616 315 603Q314 600 307 591L288 570L282 563Q276 552
276 542V519H230Z" />
<glyph unicode="&#x1ee8;" glyph-name="uni1EE8" horiz-adv-x="621" d="M555 659V577Q581 621 581 673H647Q647 628 631 596Q615 566 585 534L555 547V246Q555 -11 301 -11Q66 -11 66 253V659H142V236Q142 53 300 53Q399 53 438 99Q477 142 477 254V659H555ZM414
859L317 738H259L349 859H414Z" />
<glyph unicode="&#x1ee9;" glyph-name="uni1EE9" horiz-adv-x="499" d="M436 122L443 0H372L367 39Q293 -11 207 -11Q118 -11 87 34Q59 71 59 164V459H134V180Q134 112 150 87Q169 51 225 51Q259 51 298 65Q335 79 360 99V459H436V360Q472 409 472 472H537Q537
432 520 395Q506 365 475 334L436 349V122ZM367 651L270 531H212L301 651H367Z" />
<glyph unicode="&#x1eea;" glyph-name="uni1EEA" horiz-adv-x="621" d="M555 659V577Q581 621 581 673H647Q647 628 631 596Q615 566 585 534L555 547V246Q555 -11 301 -11Q66 -11 66 253V659H142V236Q142 53 300 53Q399 53 438 99Q477 142 477 254V659H555ZM266
859L354 738H298L201 859H266Z" />
<glyph unicode="&#x1eeb;" glyph-name="uni1EEB" horiz-adv-x="499" d="M436 122L443 0H372L367 39Q293 -11 207 -11Q118 -11 87 34Q59 71 59 164V459H134V180Q134 112 150 87Q169 51 225 51Q259 51 298 65Q335 79 360 99V459H436V360Q472 409 472 472H537Q537
432 520 395Q506 365 475 334L436 349V122ZM205 651L295 531H237L140 651H205Z" />
<glyph unicode="&#x1eec;" glyph-name="uni1EEC" horiz-adv-x="621" d="M555 659V577Q581 621 581 673H647Q647 628 631 596Q615 566 585 534L555 547V246Q555 -11 301 -11Q66 -11 66 253V659H142V236Q142 53 300 53Q399 53 438 99Q477 142 477 254V659H555ZM287
732V758Q287 775 296 792Q298 797 302 802T313 816L318 822L322 826Q326 830 328 835Q334 841 334 847Q334 863 312 863Q301 863 294 860Q288 859 267 846L248 886Q259 893 267 897T283 903Q295 907 314 907Q382 907 382 848Q382 831 373 815L363 803L346 784L338
775Q333 762 333 754V732H287Z" />
<glyph unicode="&#x1eed;" glyph-name="uni1EED" horiz-adv-x="499" d="M436 122L443 0H372L367 39Q293 -11 207 -11Q118 -11 87 34Q59 71 59 164V459H134V180Q134 112 150 87Q169 51 225 51Q259 51 298 65Q335 79 360 99V459H436V360Q472 409 472 472H537Q537
432 520 395Q506 365 475 334L436 349V122ZM230 519V544Q230 561 238 580Q242 585 246 591T257 604L261 609L266 614Q270 618 271 621Q276 629 276 633Q276 650 255 650Q246 650 236 647Q228 645 209 632L192 673Q201 678 209 682T225 689Q241 695 258 695Q325
695 325 635Q325 616 315 603Q314 600 307 591L288 570L282 563Q276 552 276 542V519H230Z" />
<glyph unicode="&#x1eee;" glyph-name="uni1EEE" horiz-adv-x="621" d="M555 659V577Q581 621 581 673H647Q647 628 631 596Q615 566 585 534L555 547V246Q555 -11 301 -11Q66 -11 66 253V659H142V236Q142 53 300 53Q399 53 438 99Q477 142 477 254V659H555ZM210
766Q245 798 283 798Q292 798 309 793L331 785L351 776Q360 772 373 772Q388 772 403 778Q408 780 414 783T429 792L447 754Q414 724 373 724Q359 724 346 727Q342 729 337 731T324 737Q310 745 304 746Q293 749 282 749Q259 749 229 728L210 766Z" />
<glyph unicode="&#x1eef;" glyph-name="uni1EEF" horiz-adv-x="499" d="M436 122L443 0H372L367 39Q293 -11 207 -11Q118 -11 87 34Q59 71 59 164V459H134V180Q134 112 150 87Q169 51 225 51Q259 51 298 65Q335 79 360 99V459H436V360Q472 409 472 472H537Q537
432 520 395Q506 365 475 334L436 349V122ZM152 567Q184 599 223 599Q238 599 249 595L272 586L293 578Q306 573 314 573Q330 573 344 580Q350 582 356 585T370 594L387 556Q354 526 313 526Q300 526 287 529Q283 531 278 533T266 539L245 547Q236 551 223 551Q200
551 169 530L152 567Z" />
<glyph unicode="&#x1ef0;" glyph-name="uni1EF0" horiz-adv-x="621" d="M555 659V577Q581 621 581 673H647Q647 628 631 596Q615 566 585 534L555 547V246Q555 -11 301 -11Q66 -11 66 253V659H142V236Q142 53 300 53Q399 53 438 99Q477 142 477 254V659H555ZM341
-114H278V-46H341V-114Z" />
<glyph unicode="&#x1ef1;" glyph-name="uni1EF1" horiz-adv-x="499" d="M436 122L443 0H372L367 39Q293 -11 207 -11Q118 -11 87 34Q59 71 59 164V459H134V180Q134 112 150 87Q169 51 225 51Q259 51 298 65Q335 79 360 99V459H436V360Q472 409 472 472H537Q537
432 520 395Q506 365 475 334L436 349V122ZM291 -114H227V-46H291V-114Z" />
<glyph unicode="&#x1ef2;" glyph-name="Ygrave" horiz-adv-x="547" d="M312 285V0H235V285L-1 659H91L270 362H278L458 659H548L312 285ZM219 884L336 725H262L134 884H219Z" />
<glyph unicode="&#x1ef3;" glyph-name="ygrave" horiz-adv-x="437" d="M6 458H90L222 94H231L353 458H431L256 -29Q240 -71 225 -107T188 -169T134 -210T53 -225Q41 -225 30 -224T10 -220L19 -162L35 -165Q38 -166 52 -166Q89 -166 109 -153T141 -122Q147 -114
153 -100T166 -70T179 -38T190 -6L6 458ZM146 684L263 525H189L61 684H146Z" />
<glyph unicode="&#x1ef4;" glyph-name="uni1EF4" horiz-adv-x="547" d="M312 285V0H235V285L-1 659H92L270 362H279L459 659H549L312 285ZM306 -114H242V-46H306V-114Z" />
<glyph unicode="&#x1ef5;" glyph-name="uni1EF5" horiz-adv-x="437" d="M7 459H90L222 94H231L353 459H431L241 -70L225 -108Q206 -148 188 -170Q140 -225 53 -225Q41 -225 31 -224T10 -220L20 -163Q25 -163 27 -164L35 -165Q40 -166 44 -166T52 -166Q86 -166
108 -153Q127 -142 141 -122Q153 -105 167 -70Q173 -55 179 -40T190 -7L7 459ZM343 -114H279V-46H343V-114Z" />
<glyph unicode="&#x1ef6;" glyph-name="uni1EF6" horiz-adv-x="547" d="M312 285V0H235V285L-1 659H92L270 362H279L459 659H549L312 285ZM256 732V758Q256 773 264 792L282 816L286 822L288 824L291 826Q295 830 297 835Q302 843 302 847Q302 863 281 863Q271
863 262 860L235 846L218 886Q228 893 236 897T251 903Q264 907 283 907Q350 907 350 848Q350 831 341 815L333 803L314 784L308 775Q301 765 301 754V732H256Z" />
<glyph unicode="&#x1ef7;" glyph-name="uni1EF7" horiz-adv-x="437" d="M7 459H90L222 94H231L353 459H431L241 -70L225 -108Q206 -148 188 -170Q140 -225 53 -225Q41 -225 31 -224T10 -220L20 -163Q25 -163 27 -164L35 -165Q40 -166 44 -166T52 -166Q86 -166
108 -153Q127 -142 141 -122Q153 -105 167 -70Q173 -55 179 -40T190 -7L7 459ZM199 519V544Q199 563 208 580Q211 585 215 591T225 604L232 611L234 614L241 621Q246 629 246 633Q246 650 224 650Q215 650 205 647Q197 645 179 632L160 673Q182 685 195 689Q210
695 227 695Q294 695 294 635Q294 618 285 603Q283 600 281 597T275 591L258 570L250 563Q245 550 245 542V519H199Z" />
<glyph unicode="&#x1ef8;" glyph-name="uni1EF8" horiz-adv-x="547" d="M312 285V0H235V285L-1 659H92L270 362H279L459 659H549L312 285ZM168 766Q203 798 241 798Q250 798 267 793L289 785Q304 777 310 776Q318 772 332 772Q346 772 361 778Q366 780 372 783T387
792L404 754Q372 724 331 724Q318 724 305 727L282 737Q268 744 261 746Q250 749 240 749Q217 749 186 728L168 766Z" />
<glyph unicode="&#x1ef9;" glyph-name="uni1EF9" horiz-adv-x="437" d="M7 459H90L222 94H231L353 459H431L241 -70L225 -108Q206 -148 188 -170Q140 -225 53 -225Q41 -225 31 -224T10 -220L20 -163Q25 -163 27 -164L35 -165Q40 -166 44 -166T52 -166Q86 -166
108 -153Q127 -142 141 -122Q153 -105 167 -70Q173 -55 179 -40T190 -7L7 459ZM114 567Q146 599 186 599Q201 599 212 595Q220 593 235 586Q243 582 248 581T256 578Q271 573 278 573Q295 573 308 580Q317 584 333 594L350 556Q318 526 276 526Q263 526 250 529Q246
531 241 533T228 539Q220 543 215 544T207 547Q199 551 185 551Q163 551 133 530L114 567Z" />
<glyph unicode="&#x2010;" glyph-name="uni2010" horiz-adv-x="564" d="M486 234H77V298H486V234Z" />
<glyph unicode="&#x2013;" glyph-name="endash" horiz-adv-x="538" d="M479 205H58V268H479V205Z" />
<glyph unicode="&#x2014;" glyph-name="emdash" horiz-adv-x="744" d="M702 205H42V268H702V205Z" />
<glyph unicode="&#x2018;" glyph-name="quoteleft" horiz-adv-x="193" d="M178 661Q154 612 143 566T131 463H57Q58 538 76 590T128 692L178 661Z" />
<glyph unicode="&#x2019;" glyph-name="quoteright" horiz-adv-x="193" d="M31 487Q55 536 66 582T78 685H152Q151 610 133 558T81 456L31 487Z" />
<glyph unicode="&#x201a;" glyph-name="quotesinglbase" horiz-adv-x="180" d="M8 -114Q32 -65 43 -19T55 84H129Q128 9 110 -43T58 -145L8 -114Z" />
<glyph unicode="&#x201c;" glyph-name="quotedblleft" horiz-adv-x="369" d="M179 661Q155 612 144 566T132 463H58Q59 538 77 590T129 692L179 661ZM343 661Q319 612 308 566T296 463H222Q223 538 241 590T293 692L343 661Z" />
<glyph unicode="&#x201d;" glyph-name="quotedblright" horiz-adv-x="369" d="M44 487Q68 536 79 582T91 685H165Q164 610 146 558T94 456L44 487ZM203 487Q227 536 238 582T250 685H324Q323 610 305 558T253 456L203 487Z" />
<glyph unicode="&#x201e;" glyph-name="quotedblbase" horiz-adv-x="366" d="M44 -114Q68 -65 79 -19T91 84H165Q164 9 146 -43T94 -145L44 -114ZM203 -114Q227 -65 238 -19T250 84H324Q323 9 305 -43T253 -145L203 -114Z" />
<glyph unicode="&#x2020;" glyph-name="dagger" horiz-adv-x="552" d="M512 356L307 365L317 130L301 -221H251L235 130L246 365L40 356V433L246 422L235 659H317L307 422L512 433V356Z" />
<glyph unicode="&#x2021;" glyph-name="daggerdbl" horiz-adv-x="552" d="M509 5L307 15L317 -221H235L246 15L42 5V82L245 71L238 218L245 365L40 356V433L246 422L235 659H317L307 422L512 433V356L307 365L313 218L307 71L509 82V5Z" />
<glyph unicode="&#x2022;" glyph-name="bullet" horiz-adv-x="282" d="M37 263Q37 308 66 336T141 365Q186 365 215 337T245 263Q245 242 237 223T216 190T183 168T141 160Q95 160 66 190T37 263Z" />
<glyph unicode="&#x2026;" glyph-name="ellipsis" horiz-adv-x="570" d="M48 84H134V0H48V84ZM242 84H329V0H242V84ZM437 84H523V0H437V84Z" />
<glyph unicode="&#x2030;" glyph-name="perthousand" horiz-adv-x="1011" d="M235 495Q235 556 220 589T168 623Q132 623 116 590T100 495Q100 435 116 403T168 370Q204 370 219 402T235 495ZM633 167Q633 227 618 261T567 295Q530 295 514 261T497 167Q497 107
513 75T567 42Q602 42 617 74T633 167ZM162 -29H84L562 694H640L162 -29ZM567 -8Q498 -8 467 40T435 167Q435 248 466 295T567 343Q633 343 663 296T694 167Q694 89 663 41T567 -8ZM168 321Q100 321 69 369T38 495Q38 576 68 624T168 672Q234 672 265 624T297 495Q297
417 266 369T168 321ZM912 167Q912 227 897 261T846 295Q809 295 793 261T776 167Q776 107 792 75T846 42Q881 42 896 74T912 167ZM846 -8Q777 -8 746 40T714 167Q714 248 745 295T846 343Q912 343 942 296T973 167Q973 89 942 41T846 -8Z" />
<glyph unicode="&#x2039;" glyph-name="guilsinglleft" horiz-adv-x="285" d="M230 386L100 230L229 75L179 32L15 229L180 426L230 386Z" />
<glyph unicode="&#x203a;" glyph-name="guilsinglright" horiz-adv-x="285" d="M71 72L201 228L72 383L122 426L286 229L121 32L71 72Z" />
<glyph unicode="&#x2044;" glyph-name="fraction" horiz-adv-x="571" d="M10 -32L487 691H561L83 -32H10Z" />
<glyph unicode="&#x20a9;" glyph-name="won" horiz-adv-x="940" d="M38 278H168L145 373H38V427H132L76 659H152L206 427H370L416 659H526L574 427H740L792 659H864L810 427H906V373H798L777 278H906V224H764L713 0H600L552 224H392L347 0H236L181 224H38V278ZM606
278H707L728 373H586L606 278ZM240 278H341L360 373H219L240 278ZM403 278H542L522 373H421L403 278ZM467 596L432 427H510L476 596H467ZM651 63H660L695 224H617L651 63ZM291 63H300L331 224H253L291 63Z" />
<glyph unicode="&#x20ab;" glyph-name="dong" horiz-adv-x="513" d="M331 631H285V676H331V716H392V676H442V631H392V216H335V261Q300 207 234 207Q141 207 98 298Q78 343 78 396Q78 515 150 562Q187 586 231 586Q295 586 331 536V631ZM141 396Q141 333 168 296T240
258Q285 258 310 294T336 391Q336 460 310 498T237 536Q192 536 167 499T141 396ZM442 120H78V165H442V120Z" />
<glyph unicode="&#x20ac;" glyph-name="Euro" horiz-adv-x="615" d="M404 -11Q255 -10 187 75Q139 135 125 243H23L42 297H120V361H26L45 414H125Q140 530 198 588Q276 669 415 669Q514 669 582 622L558 557Q532 578 499 592T417 606Q303 606 250 532Q218 483
206 414H507L486 361H200Q199 350 199 340T199 320V297H464L444 243H205Q210 207 221 178T248 125Q297 55 407 55Q453 55 488 61T555 78V10Q520 1 482 -5T404 -11Z" />
<glyph unicode="&#x2113;" glyph-name="uni2113" horiz-adv-x="375" d="M250 -2Q243 -4 234 -4T218 -5Q164 -5 142 25T119 116V310Q88 302 55 298L40 356Q61 360 81 364T119 375V546Q119 606 142 637T226 669Q281 669 308 635T335 526Q335 452 295 407T194 335V117Q194
76 209 65T250 54V-2ZM260 526Q260 574 251 589T226 605Q218 605 213 603T203 592T196 568T194 526V407Q225 427 242 455T260 526Z" />
<glyph unicode="&#x2116;" glyph-name="uni2116" horiz-adv-x="1026" d="M600 659V0H464L158 596H149V0H73V659H209L515 63H523V659H600ZM837 363Q798 363 773 374T732 405T711 455T704 522Q704 603 739 641T852 679Q891 679 916 668T957 637T979 586T986 519Q986
438 951 401T837 363ZM837 412Q890 412 907 439T925 525Q925 547 923 566T912 600T890 623T852 631Q799 631 782 603T765 517Q765 494 767 475T777 441T799 420T837 412ZM714 320H976V268H714V320Z" />
<glyph unicode="&#x2122;" glyph-name="trademark" horiz-adv-x="753" d="M324 659H428L487 484L513 391H523L549 484L606 659H707V318H648V530L650 607H640L554 330H482L444 442L390 607H381L383 530V318H324V659ZM106 318V609H0V659H276V609H170V318H106Z" />
<glyph unicode="&#x212e;" glyph-name="estimated" horiz-adv-x="844" d="M734 125Q704 95 671 70T600 27T517 -2T422 -12Q346 -12 281 16T168 91T93 201T65 333Q65 403 93 465T170 575T284 650T422 678Q495 678 559 650T673 575T750 465T779 333V311H207V98Q249
64 302 43T422 21Q507 21 576 52T710 149L734 125ZM422 645Q356 645 303 623T207 564V343H637V564Q595 601 542 623T422 645Z" />
<glyph unicode="&#x2202;" glyph-name="partialdiff" horiz-adv-x="560" d="M497 263Q491 192 472 141T424 56T356 6T273 -10Q216 -10 174 6T103 51T62 120T50 207Q52 252 68 291T113 359T184 400T281 406Q309 402 332 394T375 374Q390 365 403 357T428 337Q432
397 424 443T394 525T335 587T244 632L266 683Q327 661 374 631T452 552T494 434T497 263ZM419 268Q410 277 400 286T375 304Q357 317 334 326T284 339Q210 349 171 312T128 206Q123 131 159 92T268 53Q305 53 332 70T377 117T406 186T419 268Z" />
<glyph unicode="&#x2206;" glyph-name="increment" horiz-adv-x="656" d="M30 0L325 679L626 0H30ZM325 505L143 73H510L325 505Z" />
<glyph unicode="&#x220f;" glyph-name="product" horiz-adv-x="730" d="M540 599V0H467V599H261V0H190V599H50V659H680V599H540Z" />
<glyph unicode="&#x2211;" glyph-name="summation" d="M463 0V-60H60L301 341L60 719H463V659H181L381 341L178 0H463Z" />
<glyph unicode="&#x2212;" glyph-name="minus" horiz-adv-x="563" d="M485 234H77V298H485V234Z" />
<glyph unicode="&#x221a;" glyph-name="radical" horiz-adv-x="569" d="M129 304L251 131L432 674L498 652L273 -20L71 264L129 304Z" />
<glyph unicode="&#x221e;" glyph-name="infinity" horiz-adv-x="772" d="M558 375Q627 375 669 339T712 233Q712 164 670 127T558 90Q531 90 507 98T461 120T421 151T386 185Q370 168 352 151T312 121T266 99T214 90Q145 90 103 127T60 233Q60 302 102 338T214
375Q241 375 265 367T311 345T351 314T386 281Q402 297 420 314T460 344T506 366T558 375ZM556 154Q596 154 618 175T640 233Q640 269 618 290T556 311Q521 311 490 288T429 233Q458 201 489 178T556 154ZM216 154Q251 154 282 177T342 233Q313 265 282 288T216
311Q176 311 154 290T132 233Q132 197 154 176T216 154Z" />
<glyph unicode="&#x222b;" glyph-name="integral'" horiz-adv-x="405" d="M247 -45Q247 -136 213 -179T107 -223Q73 -223 40 -212L53 -153Q68 -157 80 -159T104 -161Q142 -161 156 -131T171 -40V506Q171 594 202 639T293 684Q310 684 328 681T366 669L349 612Q333
618 322 620T296 622Q280 622 271 612T256 585T249 546T247 500V-45Z" />
<glyph unicode="&#x2248;" glyph-name="approxequal" horiz-adv-x="563" d="M475 402Q460 387 447 375T420 355T390 342T353 337Q335 337 317 342T266 361Q250 368 237 373T210 379Q188 379 170 368T123 333L85 378Q116 405 143 424T210 443Q228 443 245 439T285
424Q311 413 325 407T353 401Q377 401 393 413T433 446L475 402ZM475 255Q460 240 447 228T420 208T390 195T353 190Q335 190 317 195T266 214Q250 221 237 226T210 232Q188 232 170 221T123 186L85 231Q116 258 143 277T210 296Q228 296 245 292T285 277Q311 266
325 260T353 254Q377 254 393 266T433 299L475 255Z" />
<glyph unicode="&#x2260;" glyph-name="notequal" horiz-adv-x="563" d="M415 477L377 411H485V348H341L304 284H485V220H267L206 114L145 149L186 220H77V284H223L260 348H77V411H296L354 512L415 477Z" />
<glyph unicode="&#x2264;" glyph-name="lessequal" horiz-adv-x="537" d="M479 0H58V62H479V0ZM431 99L58 292L431 488L464 433L191 292L464 154L431 99Z" />
<glyph unicode="&#x2265;" glyph-name="greaterequal" horiz-adv-x="537" d="M58 62H479V0H58V62ZM73 154L346 292L73 433L106 488L479 292L106 99L73 154Z" />
<glyph unicode="&#x25ca;" glyph-name="lozenge" horiz-adv-x="644" d="M48 333L322 676L596 333L322 -10L48 333ZM519 333L322 582L125 333L322 84L519 333Z" />
<glyph unicode="&#xf6c1;" glyph-name="uniF6C1" horiz-adv-x="520" d="M343 256Q323 265 297 275T244 295T190 317T142 341Q95 365 70 400T44 497Q44 541 62 573T111 627T185 658T277 669Q389 669 469 629L442 569Q414 582 372 594T278 606Q205 606 164 579T122
503Q122 470 137 447T187 405Q206 395 230 386T281 366T334 346T382 323Q403 311 421 298T452 266T474 224T482 167Q482 122 464 89T415 33T340 0T246 -11Q191 -11 136 0T38 34L67 95Q112 75 153 65T244 54Q325 54 365 83T405 160Q405 224 343 256ZM161 -158Q194
-171 231 -171Q266 -171 281 -162T297 -130Q297 -104 274 -94T190 -80L209 -32Q294 -35 331 -57T369 -130Q369 -179 339 -202T239 -225Q210 -225 185 -221T143 -207L161 -158Z" />
<glyph unicode="&#xf6c2;" glyph-name="uniF6C2" horiz-adv-x="420" d="M167 286Q190 274 226 262T297 236Q336 221 361 196T387 121Q387 52 338 21T194 -11Q149 -11 107 -3T34 21L58 78Q82 65 117 57T195 49Q217 49 238 51T276 61T302 81T312 116Q312 159 256
180Q224 194 188 205T123 230Q87 244 64 268T41 338Q41 375 57 400T100 441T160 462T226 469Q278 469 316 461T379 442L355 385Q328 396 296 403T224 411Q164 411 140 392T115 348Q115 325 127 312T167 286ZM116 -158Q149 -171 186 -171Q221 -171 236 -162T252
-130Q252 -104 229 -94T145 -80L164 -32Q249 -35 286 -57T324 -130Q324 -179 294 -202T194 -225Q165 -225 140 -221T98 -207L116 -158Z" />
<glyph unicode="&#xf6c3;" glyph-name="commaaccent" horiz-adv-x="356" d="M93 -233Q124 -195 137 -152T150 -56H220Q220 -185 138 -270L93 -233Z" />
<glyph unicode="&#xf8ff;" glyph-name="" horiz-adv-x="851" d="M438 333V0H105V666H771V333H438Z" />
<glyph unicode="&#xfb01;" glyph-name="fi" horiz-adv-x="531" d="M89 398H25V458H89V505Q89 556 105 591T150 649T218 682T302 692Q351 692 395 685T468 669V578H392V624L378 627Q351 634 305 634Q233 634 199 600T165 499V458H468V0H392V398H165V0H89V398Z" />
<glyph unicode="&#xfb02;" glyph-name="fl" horiz-adv-x="539" d="M89 398H25V458H89V506Q89 557 105 592T151 650T219 682T304 692Q355 692 397 685T468 669V117Q468 76 478 65T513 54V-3Q512 -4 505 -4Q503 -5 487 -5Q433 -5 413 25T393 116V624L378 627Q351
634 304 634Q232 634 199 600T165 499V458H320V398H165V0H89V398Z" />
</font>
</defs>
</svg>
