<?xml version="1.0" standalone="no"?> <!DOCTYPE svg PUBLIC "-//W3C//DTD SVG 1.0//EN" "http://www.w3.org/TR/2001/REC-SVG-20010904/DTD/svg10.dtd" > <svg xmlns="http://www.w3.org/2000/svg" width="100%" height="100%">
<defs >
<font horiz-adv-x="510" ><font-face
    font-family="LG Smart"
    units-per-em="1000"
    panose-1="2 11 3 2 4 4 2 6 2 3"
    ascent="716"
    descent="-284"
    alphabetic="0" />
<missing-glyph horiz-adv-x="545" d="M74 659H471V0H74V659ZM421 614H123V44H421V614ZM248 209V234Q248 271 261 298T291 349T321 393T335 438Q335 465 317 482T264 499Q240 499 221 491T190 473L172 506Q213 538 264 538Q318 538 348 511T378 439Q378 409 365
386T335 340T305 292T291 234V209H248ZM295 120H246V161H295V120Z" />
<glyph unicode=" " glyph-name="space" horiz-adv-x="237" />
<glyph unicode="!" glyph-name="exclam" horiz-adv-x="199" d="M125 143H76V659H125V143ZM68 65H131V0H68V65Z" />
<glyph unicode="&quot;" glyph-name="quotedbl" horiz-adv-x="326" d="M54 487L43 687H101L90 487H54ZM197 487L186 687H244L233 487H197Z" />
<glyph unicode="#" glyph-name="numbersign" horiz-adv-x="516" d="M453 334H368V198H453V155H368V81H320V155H195V81H146V155H62V198H146V334H62V377H146V451H195V377H320V451H368V377H453V334ZM195 198H320V334H195V198Z" />
<glyph unicode="$" glyph-name="dollar" horiz-adv-x="516" d="M238 754H287V669Q341 667 378 660Q399 655 418 649T457 634L439 591Q407 606 368 615Q336 623 287 625V350L329 333Q344 327 357 322T382 309Q421 287 446 254T472 160Q472 94 434 54T334 -1Q323
-3 311 -5T287 -9V-89H238V-11Q212 -10 187 -8T139 0Q113 5 91 12T50 29L69 73Q112 53 153 43Q192 34 238 34V312L187 333Q173 339 160 345T136 358Q98 380 76 413T53 506Q53 539 64 564T94 609T138 640T194 660Q205 662 216 664T238 667V754ZM376 66Q421 99 421
154Q421 185 408 214T354 264Q344 269 332 275T305 286L287 292V36Q341 42 376 66ZM153 595Q105 563 105 508Q105 476 117 448T171 398Q181 393 192 388T217 377L238 368V623Q187 615 153 595Z" />
<glyph unicode="%" glyph-name="percent" horiz-adv-x="739" d="M647 168Q647 234 630 270T572 307Q532 307 514 271T495 168Q495 102 513 67T572 32Q612 32 629 67T647 168ZM572 -6Q507 -6 477 42T447 168Q447 249 476 296T572 344Q635 344 664 297T694 168Q694
90 665 42T572 -6ZM249 496Q249 562 231 598T174 635Q134 635 116 599T97 496Q97 430 115 396T174 361Q213 361 231 395T249 496ZM174 322Q109 322 80 370T50 496Q50 577 79 625T174 673Q237 673 267 625T297 496Q297 418 267 370T174 322ZM162 -28H103L581 695H641L162
-28Z" />
<glyph unicode="&amp;" glyph-name="ampersand" horiz-adv-x="594" d="M577 0H510L433 83L418 68Q380 32 334 11T224 -11Q185 -11 152 -3T93 24T53 74T38 153Q38 233 84 283Q123 325 182 356Q155 389 139 417Q114 460 114 516Q114 585 160 627T288 669Q356 669
400 636T444 538Q444 482 411 444T321 377L259 346L434 156L454 184Q468 206 481 228T507 275L549 253Q535 227 520 202T489 153Q479 137 466 121L577 0ZM123 258Q88 217 88 155Q88 92 124 63T224 34Q275 34 316 54T391 107L402 117L212 324Q155 294 123 258ZM285
407Q334 432 363 460T393 533Q393 575 367 600T289 626Q223 626 194 597T165 518Q165 499 167 484T176 455T191 427T213 396Q217 392 221 388T229 379L285 407Z" />
<glyph unicode="&apos;" glyph-name="quotesingle" horiz-adv-x="172" d="M68 487L57 687H115L104 487H68Z" />
<glyph unicode="(" glyph-name="parenleft" horiz-adv-x="307" d="M41 265Q41 351 56 417T97 536T159 635T234 724L270 694Q227 649 194 606T139 512T104 401T92 265Q92 185 104 126T140 17T196 -77T270 -169L234 -199Q193 -154 158 -110T97 -12T56 108T41 265Z" />
<glyph unicode=")" glyph-name="parenright" horiz-adv-x="307" d="M265 265Q265 175 250 109T209 -11T148 -109T73 -199L37 -169Q77 -121 109 -77T165 16T201 125T214 265Q214 342 202 401T168 511T112 605T37 694L73 724Q113 680 148 635T209 537T250 417T265 265Z" />
<glyph unicode="*" glyph-name="asterisk" horiz-adv-x="427" d="M299 359L214 481L130 359L91 387L182 504L44 545L58 591L194 544L190 687H238L234 544L369 591L385 545L247 504L338 387L299 359Z" />
<glyph unicode="+" glyph-name="plus" horiz-adv-x="563" d="M305 244V81H257V244H86V288H257V451H305V288H477V244H305Z" />
<glyph unicode="," glyph-name="comma" horiz-adv-x="143" d="M3 -116Q22 -74 35 -33T49 66H100Q99 2 83 -44T41 -136L3 -116Z" />
<glyph unicode="-" glyph-name="hyphen" horiz-adv-x="365" d="M302 211H63V255H302V211Z" />
<glyph unicode="." glyph-name="period" horiz-adv-x="145" d="M105 0H40V66H105V0Z" />
<glyph unicode="/" glyph-name="slash" horiz-adv-x="339" d="M276 679H325L62 -43H14L276 679Z" />
<glyph unicode="0" glyph-name="zero" horiz-adv-x="563" d="M274 -11Q206 -11 165 20T100 100T68 208T60 325Q60 389 69 450T104 560T174 639T286 669Q351 669 393 639T459 561T493 453T503 333Q503 267 493 205T457 95T387 18T274 -11ZM287 625Q236 624 203
601T149 539T120 444T112 325Q112 261 120 208T147 116T197 56T274 34Q326 34 360 56T414 118T442 213T451 333Q451 383 445 435T420 529T370 598T287 625Z" />
<glyph unicode="1" glyph-name="one" horiz-adv-x="563" d="M279 0V602L133 523L113 563L290 659H329V0H279Z" />
<glyph unicode="2" glyph-name="two" horiz-adv-x="563" d="M486 0H95V38L269 232Q310 278 338 314T385 379T411 433T419 483Q419 555 377 590T259 625Q207 625 167 611T99 580L77 620Q113 639 156 654T259 669Q358 669 414 623T471 484Q471 421 430 356T311 207L165
44H486V0Z" />
<glyph unicode="3" glyph-name="three" horiz-adv-x="563" d="M271 -11Q227 -11 193 -4T134 15T91 38T62 61L93 96Q104 88 120 77T158 57T208 41T271 34Q356 34 402 71T448 178Q448 250 399 286T258 323H235V367H259Q344 367 384 401T424 498Q424 564 385 594T273
625Q245 625 220 618T173 601T137 581T112 564L87 600Q95 607 113 619T155 642T210 661T273 669Q375 669 425 625T476 499Q476 436 446 400T368 350Q431 335 465 291T500 178Q499 87 441 38T271 -11Z" />
<glyph unicode="4" glyph-name="four" horiz-adv-x="563" d="M419 659V197H504V154H419V0H370V154H40V190L340 659H419ZM370 197V615H362L103 197H370Z" />
<glyph unicode="5" glyph-name="five" horiz-adv-x="563" d="M125 360V659H453V614H174V404H232Q307 404 356 387T436 342T478 276T490 196Q489 96 430 43T260 -11Q227 -11 199 -5T148 11T109 31T83 50L113 88Q122 81 136 72T168 54T210 40T260 34Q345 34 391
76T438 196Q438 278 388 319T247 360H125Z" />
<glyph unicode="6" glyph-name="six" horiz-adv-x="563" d="M122 302Q122 380 138 447T189 564T276 642T403 670Q442 670 470 665T520 651L506 608Q486 615 459 620T404 625Q357 625 321 611T257 570T213 508T186 428Q182 412 180 396T176 362Q204 381 238 394Q283
413 347 413Q444 413 495 362T546 213Q546 104 491 47T340 -10Q122 -10 122 302ZM174 304Q174 257 180 209T205 122T255 59T341 34Q373 34 401 44T449 77T482 132T494 211Q494 296 453 332T339 369Q288 369 249 354T187 319Q183 316 180 314T174 309V304Z" />
<glyph unicode="7" glyph-name="seven" horiz-adv-x="563" d="M204 0L451 614H60V659H504V622L258 0H204Z" />
<glyph unicode="8" glyph-name="eight" horiz-adv-x="563" d="M386 340Q439 320 471 282T503 178Q503 88 446 39T283 -11Q177 -11 119 38T61 178Q61 239 93 279T178 340Q129 362 104 397T78 493Q78 578 130 623T283 669Q380 669 432 624T484 493Q484 381 386 340ZM451
179Q451 248 406 282T283 316Q201 316 157 282T113 179Q113 107 157 71T283 34Q361 34 406 70T451 179ZM432 490Q432 559 394 592T283 625Q211 625 171 592T130 490Q130 427 170 394T283 361Q355 361 393 394T432 490Z" />
<glyph unicode="9" glyph-name="nine" horiz-adv-x="563" d="M494 357Q494 279 478 212T427 95T340 17T213 -11Q174 -11 146 -6T96 8L110 51Q130 44 157 39T212 34Q259 34 295 48T359 89T403 151T430 231Q434 247 436 263T440 297Q412 278 378 265Q333 246 269
246Q172 246 121 297T70 446Q70 555 125 612T276 669Q494 669 494 357ZM442 355Q442 402 436 450T411 537T360 600T275 625Q243 625 215 615T167 582T134 527T122 448Q122 363 163 327T277 290Q328 290 367 305T429 340Q433 343 436 345T442 350V355Z" />
<glyph unicode=":" glyph-name="colon" horiz-adv-x="145" d="M154 392H89V458H154V392ZM154 0H89V66H154V0Z" />
<glyph unicode=";" glyph-name="semicolon" horiz-adv-x="145" d="M44 -116Q63 -74 76 -33T90 66H141Q140 2 124 -44T82 -136L44 -116ZM146 392H81V458H146V392Z" />
<glyph unicode="&lt;" glyph-name="less" horiz-adv-x="563" d="M394 -12L117 265L394 543L426 511L180 265L426 19L394 -12Z" />
<glyph unicode="=" glyph-name="equal" horiz-adv-x="563" d="M477 299H86V343H477V299ZM477 188H86V233H477V188Z" />
<glyph unicode="&gt;" glyph-name="greater" horiz-adv-x="563" d="M195 543L472 266L195 -12L163 20L409 266L163 512L195 543Z" />
<glyph unicode="?" glyph-name="question" horiz-adv-x="391" d="M190 0H127V65H190V0ZM131 143V182Q131 223 143 256T173 316T211 368T250 414T280 460T292 509Q292 560 259 592T166 625Q120 625 86 612T27 583L5 623Q37 642 75 655T166 669Q251 669 297 626T344
510Q344 463 319 426T263 352T207 276T181 182V143H131Z" />
<glyph unicode="@" glyph-name="at" horiz-adv-x="987" d="M552 469Q586 469 620 462T680 442L632 197Q628 180 626 163T623 128Q623 90 644 64T707 38Q757 38 793 59T852 116T886 203T897 310Q897 397 873 457T805 554T698 609T557 626Q450 626 365 594T219 499T127
347T95 143Q95 57 118 -3T184 -102T288 -159T424 -177Q475 -177 516 -169T602 -147L615 -186Q570 -201 523 -210T421 -220Q243 -220 145 -133T47 143Q47 270 84 368T190 533T353 634T562 669Q649 669 720 649T841 584T919 472T946 308Q946 243 932 186T887 87T811
20T703 -5Q648 -5 614 22Q588 42 581 80L572 68Q546 35 506 12T413 -11Q378 -11 352 2T310 40T285 96T277 165Q277 318 348 393T552 469ZM608 420Q585 426 551 426Q438 426 382 358T326 171Q326 108 348 71T416 34Q465 34 496 54T555 109Q560 116 565 122T575 136L634
414Q620 419 608 420Z" />
<glyph unicode="A" glyph-name="A" horiz-adv-x="593" d="M529 0L452 204H139L65 0H9L251 659H334L584 0H529ZM288 614L155 248H434L297 614H288Z" />
<glyph unicode="B" glyph-name="B" horiz-adv-x="552" d="M380 350Q440 337 473 299T506 181Q506 131 489 97T442 41T375 10T296 0H74V659H289Q332 659 368 650T430 621T470 571T485 498Q485 437 459 401T380 350ZM432 490Q432 527 421 551T389 589T341 608T281
614H123V365H291Q366 365 399 397T432 490ZM287 44Q318 44 348 49T401 70T439 112T454 181Q454 220 443 247T412 290T362 314T298 321H123V44H287Z" />
<glyph unicode="C" glyph-name="C" horiz-adv-x="571" d="M315 -11Q171 -9 106 74T41 329Q41 420 61 484T120 590T211 650T331 669Q397 669 446 648T525 593L494 562Q466 590 429 607T333 625Q205 625 149 546T93 320Q93 252 105 199T144 110T213 54T315 34Q388
34 436 46T515 69L529 30Q495 16 438 3T315 -11Z" />
<glyph unicode="D" glyph-name="D" horiz-adv-x="596" d="M247 659Q322 659 379 641T476 584T535 481T555 326Q555 231 531 169T462 69T356 16T221 0H74V659H247ZM219 44Q288 44 341 57T430 104T484 195T503 339Q503 483 440 548T249 614H123V44H219Z" />
<glyph unicode="E" glyph-name="E" horiz-adv-x="512" d="M460 44V0H74V659H450V614H123V362H439V317H123V44H460Z" />
<glyph unicode="F" glyph-name="F" horiz-adv-x="480" d="M123 0H74V659H428V614H123V362H406V317H123V0Z" />
<glyph unicode="G" glyph-name="G" horiz-adv-x="612" d="M544 32Q505 17 445 3T315 -11Q171 -11 106 73T41 329Q41 420 61 484T120 590T211 650T331 669Q397 669 446 648T525 593L494 562Q466 590 429 607T333 625Q205 625 149 546T93 320Q93 252 105 199T144
110T213 54T315 34Q386 34 435 45Q452 49 466 53T494 61V278H314V323H544V32Z" />
<glyph unicode="H" glyph-name="H" horiz-adv-x="633" d="M559 659V0H509V309H123V0H74V659H123V353H509V659H559Z" />
<glyph unicode="I" glyph-name="I" horiz-adv-x="197" d="M74 659H123V0H74V659Z" />
<glyph unicode="J" glyph-name="J" horiz-adv-x="315" d="M197 659H247V185Q247 83 210 39T89 -5Q41 -5 14 5L24 49Q36 44 52 42T86 39Q113 39 134 45T169 66T190 107T197 172V659Z" />
<glyph unicode="K" glyph-name="K" horiz-adv-x="523" d="M123 0H74V659H123V352H184L459 659H520L227 330L500 0H437L184 309H123V0Z" />
<glyph unicode="L" glyph-name="L" horiz-adv-x="447" d="M450 44V0H74V659H123V44H450Z" />
<glyph unicode="M" glyph-name="M" horiz-adv-x="772" d="M699 659V0H649V615H640L429 0H355L131 615H123V0H74V659H170L388 43H396L604 659H699Z" />
<glyph unicode="N" glyph-name="N" horiz-adv-x="645" d="M571 659V0H481L132 615H123V0H74V659H165L512 43H521V659H571Z" />
<glyph unicode="O" glyph-name="O" horiz-adv-x="614" d="M41 333Q41 506 108 587T320 669Q390 669 438 646T517 579T560 471T573 326Q573 153 506 71T294 -11Q222 -11 174 12T96 80T54 188T41 333ZM521 339Q521 399 513 451T482 542T420 603T321 625Q256 625
212 606T142 548T104 453T93 322Q93 260 101 208T132 117T193 56T291 34Q357 34 401 53T472 110T510 206T521 339Z" />
<glyph unicode="P" glyph-name="P" horiz-adv-x="537" d="M74 0V659H282Q497 659 497 469Q497 369 443 317T296 265H123V0H74ZM289 310Q365 310 406 349T447 469Q447 544 405 579T289 614H123V310H289Z" />
<glyph unicode="Q" glyph-name="Q" horiz-adv-x="614" d="M41 333Q41 506 108 587T320 669Q390 669 438 646T517 579T560 471T573 326Q573 154 505 71Q480 40 443 21L569 -104L532 -135L395 2Q352 -11 294 -11Q222 -11 174 12T96 80T54 188T41 333ZM521 339Q521
399 513 451T482 542T420 603T321 625Q256 625 212 606T142 548T104 453T93 322Q93 260 101 208T132 117T193 56T291 34Q357 34 401 53T472 110T510 206T521 339Z" />
<glyph unicode="R" glyph-name="R" horiz-adv-x="555" d="M74 0V659H284Q392 659 444 616T497 474Q497 394 456 348Q421 312 366 297L511 0H456L316 288H123V0H74ZM291 333Q367 333 406 364T445 474Q445 543 410 578T291 614H123V333H291Z" />
<glyph unicode="S" glyph-name="S" horiz-adv-x="505" d="M346 264Q325 275 297 286T239 310T180 334T129 359Q91 381 68 414T44 506Q44 550 63 581T113 631T185 660T270 669Q328 669 370 660T448 634L430 591Q405 602 364 613T270 625Q192 625 144 595T96 508Q96
476 108 449T162 400Q182 389 208 378T263 356T321 334T374 309Q413 287 438 254T464 160Q464 116 446 84T397 30T325 -1T237 -11Q182 -11 130 0T41 29L61 73Q104 54 144 44T234 34Q322 34 367 66T413 154Q413 185 400 214T346 264Z" />
<glyph unicode="T" glyph-name="T" horiz-adv-x="474" d="M477 659V614H262V0H212V614H-2V659H477Z" />
<glyph unicode="U" glyph-name="U" horiz-adv-x="608" d="M539 659V237Q539 105 480 47T296 -11Q175 -11 122 49T68 244V659H118V227Q118 182 127 146T157 85T211 47T295 34Q350 34 387 45T447 81T480 146T490 245V659H539Z" />
<glyph unicode="V" glyph-name="V" horiz-adv-x="539" d="M278 43L477 659H531L314 0H234L9 659H64L270 43H278Z" />
<glyph unicode="W" glyph-name="W" horiz-adv-x="920" d="M906 659L719 0H635L466 615H457L295 0H210L14 659H70L247 43H256L416 659H505L674 43H682L851 659H906Z" />
<glyph unicode="X" glyph-name="X" horiz-adv-x="570" d="M274 317L81 0H19L232 339L31 659H92L273 361H292L478 659H533L335 339L550 0H491L294 317H274Z" />
<glyph unicode="Y" glyph-name="Y" horiz-adv-x="519" d="M285 289V0H235V288L-2 659H62L256 346H264L461 659H521L285 289Z" />
<glyph unicode="Z" glyph-name="Z" horiz-adv-x="518" d="M482 622L82 44H481V0H19V37L420 614H44V659H482V622Z" />
<glyph unicode="[" glyph-name="bracketleft" horiz-adv-x="325" d="M273 -187H68V719H273V676H117V-144H273V-187Z" />
<glyph unicode="\" glyph-name="backslash" horiz-adv-x="339" d="M325 -43H277L14 679H63L325 -43Z" />
<glyph unicode="]" glyph-name="bracketright" horiz-adv-x="325" d="M52 -144H208V676H52V719H257V-187H52V-144Z" />
<glyph unicode="^" glyph-name="asciicircum" horiz-adv-x="438" d="M259 659L396 309H346L222 628H213L91 309H41L175 659H259Z" />
<glyph unicode="_" glyph-name="underscore" horiz-adv-x="420" d="M41 -43H379V-87H41V-43Z" />
<glyph unicode="`" glyph-name="grave" horiz-adv-x="516" d="M224 681L344 523H291L168 681H224Z" />
<glyph unicode="a" glyph-name="a" horiz-adv-x="454" d="M432 -3Q429 -4 415 -4Q383 -4 369 10T348 50Q323 28 282 9T178 -11Q103 -11 71 27T39 128Q39 168 53 194T92 235T152 256T227 262H258Q279 262 298 261T341 257V281Q341 323 337 350T319 395T281 419T219
426Q199 426 178 423T138 414T103 403T75 391L60 430Q94 445 137 457T233 469Q278 469 308 459T356 427T382 370T390 283V105Q390 66 399 52T432 38V-3ZM218 219Q146 219 118 197T90 130Q90 78 114 55T196 32Q238 32 276 51T341 92V212Q311 216 282 217T218 219Z"
/>
<glyph unicode="b" glyph-name="b" horiz-adv-x="486" d="M227 -11Q198 -11 177 -7T132 6L109 16L105 0H68V684L117 690V424Q132 434 147 442T177 455Q213 469 258 469Q355 469 400 409T445 233Q445 179 433 135T395 58T327 7T227 -11ZM162 43Q195 32 227 32Q312
32 353 80T394 237Q394 271 388 304T366 365T321 409T247 426Q199 426 167 407Q142 394 117 375V65Q136 53 162 43Z" />
<glyph unicode="c" glyph-name="c" horiz-adv-x="413" d="M390 23Q370 11 330 0T249 -11Q140 -11 91 51T41 222Q41 343 98 406T264 469Q302 469 337 456T393 418L362 387Q344 404 319 415T262 426Q181 426 137 375T92 218Q92 177 100 143T128 85T178 46T252 32Q291
32 321 40T375 58L390 23Z" />
<glyph unicode="d" glyph-name="d" horiz-adv-x="485" d="M227 -11Q130 -11 85 49T40 225Q40 278 52 323T90 400T158 451T258 469Q287 469 308 465T352 451Q356 449 360 448T368 444V684L417 690V114L425 0H380L373 37Q356 26 340 18T308 2Q275 -11 227 -11ZM323
415Q290 426 258 426Q173 426 132 378T91 221Q91 187 97 154T119 93T164 49T238 32Q285 32 317 50Q331 58 343 66T368 82V392Q358 399 347 404T323 415Z" />
<glyph unicode="e" glyph-name="e" horiz-adv-x="460" d="M245 -11Q187 -11 148 3T85 48T51 124T41 232Q41 353 90 411T243 469Q296 469 330 452T384 406T411 335T419 246V216H92Q92 163 102 130Q119 74 156 53T251 32Q297 32 336 45T395 68L413 31Q402 25 384
18T343 4T295 -6T245 -11ZM368 259Q368 308 359 340T333 391T294 418T244 426Q159 426 126 377Q96 335 92 259H368Z" />
<glyph unicode="f" glyph-name="f" horiz-adv-x="309" d="M316 458V415H141V0H92V415H25V458H92V517Q92 568 103 601T134 654T182 682T244 690Q266 690 290 685T333 675L320 634Q300 639 281 642T239 646Q186 646 164 615T141 505V458H316Z" />
<glyph unicode="g" glyph-name="g" horiz-adv-x="487" d="M419 458V-27Q419 -81 405 -118T366 -179T304 -213T223 -223Q181 -223 147 -218T87 -204L99 -161Q123 -168 154 -174T225 -180Q256 -180 282 -174T328 -150T359 -103T370 -28V35Q339 14 307 2T229 -11Q130
-11 86 49T41 225Q41 278 53 323T91 400T159 451T259 469Q297 469 324 461T377 440L382 458H419ZM370 392Q349 405 322 415T259 426Q174 426 133 378T92 221Q92 187 98 154T120 93T165 49T239 32Q277 32 308 46T370 83V392Z" />
<glyph unicode="h" glyph-name="h" horiz-adv-x="492" d="M380 0V277Q380 311 377 339T362 386T329 415T271 426Q235 426 197 412T127 377Q123 375 117 369V0H68V684L117 690V419Q144 436 178 450Q229 469 278 469Q324 469 353 458T400 424T423 367T429 287V0H380Z" />
<glyph unicode="i" glyph-name="i" horiz-adv-x="185" d="M67 640H117V572H67V640ZM68 458H117V0H68V458Z" />
<glyph unicode="j" glyph-name="j" horiz-adv-x="185" d="M-30 -180H-25Q5 -180 23 -175T51 -156T64 -118T68 -55V458H117V-32Q117 -77 115 -112T99 -172T59 -210T-19 -223H-30V-180ZM117 572H67V640H117V572Z" />
<glyph unicode="k" glyph-name="k" horiz-adv-x="448" d="M68 0V684L117 690V271H169L366 458H427L211 249L434 0H373L169 229H117V0H68Z" />
<glyph unicode="l" glyph-name="l" horiz-adv-x="192" d="M159 -3Q158 -4 152 -4Q149 -5 136 -5Q97 -5 83 22T68 101V684L117 690V101Q117 60 126 49T159 38V-3Z" />
<glyph unicode="m" glyph-name="m" horiz-adv-x="760" d="M107 458L110 417Q137 434 172 450Q220 469 268 469Q351 469 381 422Q386 415 389 408Q421 433 463 450Q510 469 558 469Q601 469 628 458T671 423T692 366T698 287V0H649V277Q649 311 646 339T632 386T602
415T550 426Q518 426 481 413T415 377L401 367L402 365Q404 348 405 329T407 287V0H359V277Q359 311 355 339T341 386T311 415T260 426Q227 426 190 413T125 377L117 372V0H68V337L61 458H107Z" />
<glyph unicode="n" glyph-name="n" horiz-adv-x="492" d="M107 458L110 416Q126 426 143 434T178 450Q229 469 278 469Q324 469 353 458T400 424T423 367T429 287V0H380V277Q380 311 377 339T362 386T329 415T271 426Q235 426 197 412T127 377Q123 375 117 369V0H68V337L61
458H107Z" />
<glyph unicode="o" glyph-name="o" horiz-adv-x="494" d="M235 -11Q179 -11 142 5T83 53T51 129T41 231Q41 352 93 410T258 469Q313 469 350 453T410 405T443 328T453 226Q453 105 400 47T235 -11ZM235 32Q283 32 315 45T366 83T394 147T402 235Q402 274 396 308T374
369T329 410T258 426Q210 426 178 413T127 374T100 310T92 223Q92 183 98 149T120 88T163 47T235 32Z" />
<glyph unicode="p" glyph-name="p" horiz-adv-x="486" d="M105 458L112 421Q142 442 177 455Q213 469 258 469Q355 469 400 409T445 233Q445 179 433 135T395 58T327 7T227 -11Q198 -11 177 -7T132 6Q128 8 125 9T117 13V-217L68 -223V347L61 458H105ZM162 43Q195
32 227 32Q312 32 353 80T394 237Q394 271 388 304T366 365T321 409T247 426Q199 426 167 407Q142 394 117 375V65Q136 53 162 43Z" />
<glyph unicode="q" glyph-name="q" horiz-adv-x="489" d="M258 469Q287 469 308 465T352 451Q358 448 364 445T376 440L381 458H418V-217L369 -223V35Q337 13 308 2Q275 -11 227 -11Q130 -11 85 49T40 225Q40 278 52 323T90 400T158 451T258 469ZM323 415Q290
426 258 426Q173 426 132 378T91 221Q91 187 97 154T119 93T164 49T238 32Q285 32 317 50Q331 58 344 66T369 83V392Q358 399 347 404T323 415Z" />
<glyph unicode="r" glyph-name="r" horiz-adv-x="323" d="M106 458L114 392Q148 429 186 446Q234 469 278 469Q310 469 330 459L315 414Q304 417 293 419T264 421Q221 421 181 393Q165 382 150 368T119 338V0H70V335L61 458H106Z" />
<glyph unicode="s" glyph-name="s" horiz-adv-x="407" d="M141 282Q169 266 210 253T294 221Q328 205 350 181T372 114Q372 48 324 19T182 -11Q165 -11 145 -9T105 -3T67 6T36 18L53 61Q75 49 111 40T185 31Q209 31 233 33T277 44T309 69T322 112Q322 161 269
184Q231 201 188 215T110 246Q80 260 62 283T44 344Q44 382 61 406T105 445T163 464T222 469Q271 469 306 461T361 445L343 404Q318 415 288 421T220 427Q184 427 160 421T121 404T100 379T94 351Q94 326 104 311T141 282Z" />
<glyph unicode="t" glyph-name="t" horiz-adv-x="344" d="M139 415V171Q139 135 141 109T154 66T185 41T240 32Q279 32 317 43L328 6Q303 -2 276 -6T226 -11Q182 -11 156 1T115 35T95 84T90 145V414H12V451L90 459V559L139 567V458H320V415H139Z" />
<glyph unicode="u" glyph-name="u" horiz-adv-x="492" d="M424 121L431 0H385L380 42Q349 22 313 9Q261 -11 213 -11Q166 -11 137 0T92 34T69 91T63 171V458H112V181Q112 146 115 119T130 72T163 43T221 32Q258 32 295 46T364 81L375 88V458H424V121Z" />
<glyph unicode="v" glyph-name="v" horiz-adv-x="412" d="M210 43L357 458H408L240 0H168L3 458H57L201 43H210Z" />
<glyph unicode="w" glyph-name="w" horiz-adv-x="686" d="M381 458L492 43H500L622 458H672L535 0H457L346 415H336L225 0H147L14 458H64L182 43H191L301 458H381Z" />
<glyph unicode="x" glyph-name="x" horiz-adv-x="441" d="M213 214L76 0H19L171 236L21 458H78L212 258H227L360 458H414L269 236L421 0H365L229 214H213Z" />
<glyph unicode="y" glyph-name="y" horiz-adv-x="419" d="M10 458H63L213 67H222L361 458H412L238 -25Q223 -67 209 -103T175 -166T124 -208T45 -223Q24 -223 13 -219L19 -177Q26 -178 33 -179T50 -180Q88 -180 110 -166T144 -132Q151 -122 158 -107T171 -75T184
-41T194 -10L10 458Z" />
<glyph unicode="z" glyph-name="z" horiz-adv-x="435" d="M403 420L94 43H405V0H30V38L340 415H41V458H403V420Z" />
<glyph unicode="{" glyph-name="braceleft" horiz-adv-x="340" d="M285 -185Q252 -185 223 -182T172 -164T138 -120T125 -40V143Q125 185 103 207T48 233V296Q81 300 103 320T125 386V577Q125 623 137 651T171 694T222 715T285 721H296V678H279Q221 678 197 656T173
574V406Q173 340 153 309T90 270V261Q111 255 126 245T152 220T168 182T173 126V-43Q173 -102 198 -122T279 -142H296V-185H285Z" />
<glyph unicode="|" glyph-name="bar" horiz-adv-x="185" d="M117 -186H68V718H117V-186Z" />
<glyph unicode="}" glyph-name="braceright" horiz-adv-x="340" d="M44 -185V-142H61Q116 -142 141 -122T167 -43V126Q167 159 172 181T187 219T213 245T250 261V270Q207 278 187 309T167 406V574Q167 634 143 656T61 678H44V721H55Q89 721 118 716T169 695T203
651T216 577V386Q216 340 237 320T292 296V233Q259 229 238 207T216 143V-40Q216 -91 203 -120T169 -163T118 -181T55 -185H44Z" />
<glyph unicode="~" glyph-name="asciitilde" horiz-adv-x="453" d="M41 251Q62 263 94 275T157 287Q180 287 198 281T233 266T264 252T298 245Q330 245 351 253T393 274L412 240Q387 223 359 212T298 201Q275 201 256 207T220 222T186 237T152 244Q123 244 101
237T56 217L41 251Z" />
<glyph unicode="&#xa0;" glyph-name="nbspace" horiz-adv-x="300" />
<glyph unicode="&#xa1;" glyph-name="exclamdown" horiz-adv-x="185" d="M123 393H61V458H123V393ZM68 315H117V-200H68V315Z" />
<glyph unicode="&#xa2;" glyph-name="cent" horiz-adv-x="434" d="M263 -92H214V-9Q123 1 82 60T41 222Q41 331 85 391T214 466V550H263V468Q302 468 337 455T393 417L362 386Q344 403 320 413T263 425V32Q298 34 325 42T375 58L390 23Q372 13 337 3T263 -10V-92ZM92
218Q92 146 120 97T214 35V421Q154 407 123 357T92 218Z" />
<glyph unicode="&#xa3;" glyph-name="sterling" horiz-adv-x="474" d="M343 669Q366 669 392 665T437 655L424 614Q405 620 386 623T343 626Q308 626 280 617T233 584T203 516T192 405V343H407V300H191V239Q191 115 117 43H429V0H48V38Q74 57 91 80T120 130T135
184T140 239V300H53V343H141V409Q141 489 156 539T199 619T264 658T343 669Z" />
<glyph unicode="&#xa4;" glyph-name="currency" horiz-adv-x="469" d="M41 114L104 177Q99 185 95 194T88 214Q80 246 80 276Q80 334 107 372L41 438L73 469L139 402Q179 430 244 430Q281 430 308 418Q319 414 331 404L396 469L428 438L363 373Q374 354 380 335Q389
306 389 273Q389 217 361 180L428 114L396 82L329 149Q289 121 224 121Q186 121 158 133L135 145L73 82L41 114ZM224 165Q287 165 313 194T340 278Q340 299 335 318T319 353T290 377T244 387Q182 387 156 355T129 273Q129 251 134 232T150 197T179 174T224 165Z"
/>
<glyph unicode="&#xa5;" glyph-name="yen" horiz-adv-x="551" d="M487 208H301V0H251V208H64V252H251V288L232 318H64V363H204L14 659H78L272 346H281L478 659H537L348 363H487V318H320L301 289V252H487V208Z" />
<glyph unicode="&#xa6;" glyph-name="brokenbar" horiz-adv-x="185" d="M117 386H68V719H117V386ZM117 -187H68V146H117V-187Z" />
<glyph unicode="&#xa7;" glyph-name="section" horiz-adv-x="537" d="M356 13Q336 24 308 35T250 57T190 81T140 107Q101 130 78 160T55 240Q55 299 92 333Q120 361 164 376L151 383Q112 406 89 436T66 517Q66 557 85 586T135 633T207 660T291 669Q351 669 392
660T470 634L452 591Q427 602 385 613T291 625Q213 625 166 598T118 519Q118 491 132 468T184 425Q204 415 230 405T286 383T343 360T395 334Q437 312 461 284T485 204Q485 142 444 107Q413 81 366 67Q371 65 375 62T385 57Q427 36 450 8T474 -73Q474 -112 457
-140T408 -186T336 -213T248 -222Q193 -222 141 -211T52 -182L71 -139Q116 -157 156 -167T245 -178Q333 -178 378 -152T424 -79Q424 -67 422 -56T412 -33T392 -10T356 13ZM367 289Q347 300 318 311T259 334Q249 338 239 341T219 350Q169 333 141 311Q107 286 107
243Q107 214 120 191T173 148L274 105Q283 102 292 99T310 91Q374 113 402 134Q434 160 434 197Q434 209 432 220T423 243T403 266T367 289Z" />
<glyph unicode="&#xa8;" glyph-name="dieresis" horiz-adv-x="516" d="M200 572H151V640H200V572ZM364 572H314V640H364V572Z" />
<glyph unicode="&#xa9;" glyph-name="copyright" horiz-adv-x="795" d="M746 329Q746 249 720 186T648 79T537 12T396 -11Q321 -11 257 12T147 78T74 185T48 329Q48 411 74 474T146 581T257 647T396 669Q472 669 536 646T647 580T720 473T746 329ZM698 329Q698
400 676 455T614 549T519 607T396 627Q325 627 269 606T175 546T116 452T96 329Q96 259 118 204T179 111T274 52T396 32Q466 32 522 53T617 112T677 206T698 329ZM508 171Q492 161 461 153T394 144Q309 144 269 192T229 326Q229 519 406 519Q438 519 466 508T512
478L482 447Q468 461 449 469T405 478Q279 478 279 323Q279 293 286 268T309 224T346 195T399 184Q429 184 453 190T495 206L508 171Z" />
<glyph unicode="&#xaa;" glyph-name="ordfeminine" horiz-adv-x="370" d="M323 372Q321 371 316 371T305 370Q288 370 274 379T254 406Q238 391 214 379T155 367Q131 367 114 375T87 396T71 426T66 462Q66 516 98 536T188 557Q204 557 219 554T247 548V562Q247
587 244 601T232 623T211 633T179 636Q153 636 129 629T88 612L76 651Q99 662 128 670T192 678Q246 678 269 654T293 565V447Q293 425 301 416T323 407V372ZM184 517Q146 517 130 505T114 463Q114 431 127 421T170 410Q191 410 211 420T247 446V509Q232 513 217
515T184 517Z" />
<glyph unicode="&#xab;" glyph-name="guillemotleft" horiz-adv-x="432" d="M338 32L167 229L339 426L370 399L223 230L372 61L338 32ZM211 399L70 230L210 61L178 32L14 229L179 426L211 399Z" />
<glyph unicode="&#xac;" glyph-name="logicalnot" horiz-adv-x="617" d="M75 322H508V94H463V282H75V322Z" />
<glyph unicode="&#xae;" glyph-name="registered" horiz-adv-x="518" d="M489 487Q489 434 472 393T424 323T351 279T259 264Q209 264 167 279T95 322T47 392T29 487Q29 540 46 581T94 652T167 696T259 711Q309 711 351 696T424 652T472 582T489 487ZM443 487Q443
571 395 621T259 672Q171 672 123 622T75 487Q75 405 123 354T259 303Q347 303 395 354T443 487ZM311 369L264 466H219V369H178V609H263Q305 609 327 593T349 542Q349 490 304 471L355 369H311ZM262 498Q284 498 295 508T307 542Q307 575 262 575H219V498H262Z"
/>
<glyph unicode="&#xaf;" glyph-name="overscore" horiz-adv-x="516" d="M387 586H129V629H387V586Z" />
<glyph unicode="&#xb0;" glyph-name="degree" horiz-adv-x="326" d="M155 426Q94 426 68 461T41 548Q41 603 74 636T170 669Q230 669 257 634T285 546Q285 491 252 459T155 426ZM156 467Q201 467 220 488T240 549Q240 581 225 604T170 628Q125 628 106 606T86
546Q86 515 101 491T156 467Z" />
<glyph unicode="&#xb1;" glyph-name="plusminus" horiz-adv-x="563" d="M305 307V144H257V307H86V351H257V514H305V351H477V307H305ZM477 10H86V54H477V10Z" />
<glyph unicode="&#xb2;" glyph-name="twosuperior" horiz-adv-x="289" d="M36 317V344L142 455Q178 493 191 518T204 565Q204 596 184 611T132 627Q107 627 86 620T45 601L29 634Q53 647 79 655T134 663Q186 663 218 641T251 567Q251 533 231 502T177 435L99 353H260V317H36Z"
/>
<glyph unicode="&#xb3;" glyph-name="threesuperior" horiz-adv-x="289" d="M50 380Q62 370 84 360T139 350Q175 350 197 366T220 414Q220 445 198 461T135 478Q127 478 120 477T108 474V512H126Q159 512 183 526T208 572Q208 600 190 613T141 626Q114 626 92
617T57 597L38 627Q51 637 79 650T143 663Q197 663 226 643T255 576Q255 547 239 528T200 502Q230 493 249 472T268 416Q268 388 257 369T228 337T187 318T140 312Q95 312 68 324T25 351L50 380Z" />
<glyph unicode="&#xb4;" glyph-name="acute" horiz-adv-x="516" d="M347 681L223 523H170L290 681H347Z" />
<glyph unicode="&#xb5;" glyph-name="mu" horiz-adv-x="492" d="M112 -220H63V458H112V181Q112 146 115 119T130 72T163 43T221 32Q258 32 295 46T364 81L375 88V458H424V121L431 0H385L380 42Q349 22 313 9Q261 -11 213 -11Q172 -11 144 0Q127 7 112 22V-220Z" />
<glyph unicode="&#xb6;" glyph-name="paragraph" horiz-adv-x="526" d="M206 265Q156 265 124 280T74 321T48 381T41 456Q41 505 50 543T81 607T139 646T229 659H458V-217L408 -223V615H323V-217L273 -223V265H206Z" />
<glyph unicode="&#xb7;" glyph-name="middot" horiz-adv-x="145" d="M105 233H40V299H105V233Z" />
<glyph unicode="&#xb8;" glyph-name="cedilla" horiz-adv-x="516" d="M168 -167Q184 -173 204 -177T243 -182Q282 -182 298 -172T314 -139Q314 -113 289 -102T196 -89L212 -49Q294 -49 328 -71T362 -139Q362 -181 335 -202T245 -224Q217 -224 194 -219T154 -205L168
-167Z" />
<glyph unicode="&#xb9;" glyph-name="onesuperior" horiz-adv-x="289" d="M132 317V613L60 576L44 607L145 659H178V317H132Z" />
<glyph unicode="&#xba;" glyph-name="ordmasculine" horiz-adv-x="392" d="M193 364Q123 364 96 405T68 522Q68 602 103 640T208 678Q278 678 306 636T334 519Q334 445 302 405T193 364ZM193 405Q247 405 267 432T288 525Q288 578 272 608T208 638Q154 638 134
611T114 517Q114 494 117 474T128 438T151 414T193 405Z" />
<glyph unicode="&#xbb;" glyph-name="guillemotright" horiz-adv-x="432" d="M120 426L291 229L119 32L88 59L235 228L86 397L120 426ZM247 59L388 228L248 397L280 426L444 229L279 32L247 59Z" />
<glyph unicode="&#xbc;" glyph-name="onequarter" horiz-adv-x="700" d="M48 -32L525 691H580L102 -32H48ZM132 317V613L60 576L44 607L145 659H178V317H132ZM596 342V106H640V68H596V0H551V68H387V99L527 342H596ZM551 106V293H548L440 106H551Z" />
<glyph unicode="&#xbd;" glyph-name="onehalf" horiz-adv-x="700" d="M48 -32L525 691H580L102 -32H48ZM132 317V613L60 576L44 607L145 659H178V317H132ZM426 0V27L532 138Q568 175 581 200T594 248Q594 278 574 294T522 310Q497 310 476 303T435 284L419 316Q443
329 469 337T524 346Q576 346 608 324T641 249Q641 216 621 185T567 118L489 36H650V0H426Z" />
<glyph unicode="&#xbe;" glyph-name="threequarters" horiz-adv-x="720" d="M158 311Q118 311 89 326T46 353L65 384Q79 375 103 364T157 352Q191 352 213 367T236 414Q236 444 212 460T148 476Q141 476 134 476T124 475V518H140Q175 518 199 531T223 573Q223
603 204 612T155 622Q129 622 112 615T78 596L59 626Q73 637 98 651T161 665Q215 665 243 642T271 575Q271 545 253 526T210 501Q239 494 261 473T284 414Q284 364 250 338T158 311ZM108 -32L585 691H640L162 -32H108ZM611 342V106H655V68H611V0H566V68H402V99L542
342H611ZM566 106V293H563L455 106H566Z" />
<glyph unicode="&#xbf;" glyph-name="questiondown" horiz-adv-x="391" d="M201 458H264V393H201V458ZM260 315V276Q260 235 248 202T218 142T180 90T141 44T111 -2T99 -51Q99 -102 132 -134T225 -167Q271 -167 305 -154T364 -125L386 -165Q354 -184 316 -197T225
-211Q140 -211 94 -168T47 -52Q47 -5 72 32T128 106T184 182T210 276V315H260Z" />
<glyph unicode="&#xc0;" glyph-name="Agrave" horiz-adv-x="593" d="M529 0L452 204H139L65 0H9L251 659H334L584 0H529ZM288 614L155 248H434L297 614H288ZM204 881L324 723H271L148 881H204Z" />
<glyph unicode="&#xc1;" glyph-name="Aacute" horiz-adv-x="593" d="M529 0L452 204H139L65 0H9L251 659H334L584 0H529ZM288 614L155 248H434L297 614H288ZM433 881L309 723H256L376 881H433Z" />
<glyph unicode="&#xc2;" glyph-name="Acircumflex" horiz-adv-x="593" d="M529 0L452 204H139L65 0H9L251 659H334L584 0H529ZM288 614L155 248H434L297 614H288ZM327 881L439 723H387L296 851H287L197 723H147L255 881H327Z" />
<glyph unicode="&#xc3;" glyph-name="Atilde" horiz-adv-x="593" d="M529 0L452 204H139L65 0H9L251 659H334L584 0H529ZM288 614L155 248H434L297 614H288ZM146 812Q161 824 184 834T230 845Q249 845 264 840T293 829T320 817T349 812Q370 812 386 818T419 834L437
800Q419 786 397 778T349 769Q330 769 315 774T285 785T258 796T230 801Q212 801 196 794T165 778L146 812Z" />
<glyph unicode="&#xc4;" glyph-name="Adieresis" horiz-adv-x="593" d="M529 0L452 204H139L65 0H9L251 659H334L584 0H529ZM288 614L155 248H434L297 614H288ZM236 772H187V840H236V772ZM400 772H350V840H400V772Z" />
<glyph unicode="&#xc5;" glyph-name="Aring" horiz-adv-x="593" d="M529 0L452 204H139L65 0H9L251 659H334L584 0H529ZM288 614L155 248H434L297 614H288ZM288 716Q242 716 223 740T204 802Q204 887 297 887Q345 887 363 863T382 801Q382 716 288 716ZM290 754Q318
754 328 766T339 803Q339 822 332 836T296 850Q268 850 257 838T245 800Q245 780 253 767T290 754Z" />
<glyph unicode="&#xc6;" glyph-name="AE" horiz-adv-x="875" d="M823 44V0H461L451 204H170L47 0H-13L392 659H817V614H482L495 362H802V317H497L511 44H823ZM421 614L197 248H448L430 614H421Z" />
<glyph unicode="&#xc7;" glyph-name="Ccedilla" horiz-adv-x="571" d="M315 -11Q171 -9 106 74T41 329Q41 420 61 484T120 590T211 650T331 669Q397 669 446 648T525 593L494 562Q466 590 429 607T333 625Q205 625 149 546T93 320Q93 252 105 199T144 110T213
54T315 34Q388 34 436 46T515 69L529 30Q495 16 438 3T315 -11ZM221 -167Q237 -173 257 -177T296 -182Q335 -182 351 -172T367 -139Q367 -113 342 -102T249 -89L265 -49Q347 -49 381 -71T415 -139Q415 -181 388 -202T298 -224Q270 -224 247 -219T207 -205L221 -167Z"
/>
<glyph unicode="&#xc8;" glyph-name="Egrave" horiz-adv-x="512" d="M460 44V0H74V659H450V614H123V362H439V317H123V44H460ZM187 881L307 723H254L131 881H187Z" />
<glyph unicode="&#xc9;" glyph-name="Eacute" horiz-adv-x="512" d="M460 44V0H74V659H450V614H123V362H439V317H123V44H460ZM397 881L273 723H220L340 881H397Z" />
<glyph unicode="&#xca;" glyph-name="Ecircumflex" horiz-adv-x="512" d="M460 44V0H74V659H450V614H123V362H439V317H123V44H460ZM292 881L404 723H352L261 851H252L162 723H112L220 881H292Z" />
<glyph unicode="&#xcb;" glyph-name="Edieresis" horiz-adv-x="512" d="M460 44V0H74V659H450V614H123V362H439V317H123V44H460ZM200 772H151V840H200V772ZM364 772H314V840H364V772Z" />
<glyph unicode="&#xcc;" glyph-name="Igrave" horiz-adv-x="197" d="M74 659H123V0H74V659ZM26 881L146 723H93L-30 881H26Z" />
<glyph unicode="&#xcd;" glyph-name="Iacute" horiz-adv-x="197" d="M74 659H123V0H74V659ZM231 881L107 723H54L174 881H231Z" />
<glyph unicode="&#xce;" glyph-name="Icircumflex" horiz-adv-x="197" d="M74 659H123V0H74V659ZM134 881L246 723H194L103 851H94L4 723H-46L62 881H134Z" />
<glyph unicode="&#xcf;" glyph-name="Idieresis" horiz-adv-x="197" d="M74 659H123V0H74V659ZM43 772H-6V840H43V772ZM207 772H157V840H207V772Z" />
<glyph unicode="&#xd0;" glyph-name="Eth" horiz-adv-x="603" d="M255 659Q330 659 387 641T484 584T543 481T563 326Q563 231 539 169T470 69T364 16T229 0H82V317H14V362H82V659H255ZM227 44Q296 44 349 57T438 104T492 195T511 339Q511 483 448 548T257 614H131V362H298V317H131V44H227Z"
/>
<glyph unicode="&#xd1;" glyph-name="Ntilde" horiz-adv-x="645" d="M571 659V0H481L132 615H123V0H74V659H165L512 43H521V659H571ZM179 812Q194 824 217 834T263 845Q282 845 297 840T326 829T353 817T382 812Q403 812 419 818T452 834L470 800Q452 786 430
778T382 769Q363 769 348 774T318 785T291 796T263 801Q245 801 229 794T198 778L179 812Z" />
<glyph unicode="&#xd2;" glyph-name="Ograve" horiz-adv-x="645" d="M41 333Q41 506 108 587T320 669Q390 669 438 646T517 579T560 471T573 326Q573 153 506 71T294 -11Q222 -11 174 12T96 80T54 188T41 333ZM521 339Q521 399 513 451T482 542T420 603T321 625Q256
625 212 606T142 548T104 453T93 322Q93 260 101 208T132 117T193 56T291 34Q357 34 401 53T472 110T510 206T521 339ZM237 881L357 723H304L181 881H237Z" />
<glyph unicode="&#xd3;" glyph-name="Oacute" horiz-adv-x="614" d="M41 333Q41 506 108 587T320 669Q390 669 438 646T517 579T560 471T573 326Q573 153 506 71T294 -11Q222 -11 174 12T96 80T54 188T41 333ZM521 339Q521 399 513 451T482 542T420 603T321 625Q256
625 212 606T142 548T104 453T93 322Q93 260 101 208T132 117T193 56T291 34Q357 34 401 53T472 110T510 206T521 339ZM467 881L343 723H290L410 881H467Z" />
<glyph unicode="&#xd4;" glyph-name="Ocircumflex" horiz-adv-x="614" d="M41 333Q41 506 108 587T320 669Q390 669 438 646T517 579T560 471T573 326Q573 153 506 71T294 -11Q222 -11 174 12T96 80T54 188T41 333ZM521 339Q521 399 513 451T482 542T420 603T321
625Q256 625 212 606T142 548T104 453T93 322Q93 260 101 208T132 117T193 56T291 34Q357 34 401 53T472 110T510 206T521 339ZM350 881L462 723H410L319 851H310L220 723H170L278 881H350Z" />
<glyph unicode="&#xd5;" glyph-name="Otilde" horiz-adv-x="614" d="M41 333Q41 506 108 587T320 669Q390 669 438 646T517 579T560 471T573 326Q573 153 506 71T294 -11Q222 -11 174 12T96 80T54 188T41 333ZM521 339Q521 399 513 451T482 542T420 603T321 625Q256
625 212 606T142 548T104 453T93 322Q93 260 101 208T132 117T193 56T291 34Q357 34 401 53T472 110T510 206T521 339ZM170 812Q185 824 208 834T254 845Q273 845 288 840T317 829T344 817T373 812Q394 812 410 818T443 834L461 800Q443 786 421 778T373 769Q354
769 339 774T309 785T282 796T254 801Q236 801 220 794T189 778L170 812Z" />
<glyph unicode="&#xd6;" glyph-name="Odieresis" horiz-adv-x="614" d="M41 333Q41 506 108 587T320 669Q390 669 438 646T517 579T560 471T573 326Q573 153 506 71T294 -11Q222 -11 174 12T96 80T54 188T41 333ZM521 339Q521 399 513 451T482 542T420 603T321
625Q256 625 212 606T142 548T104 453T93 322Q93 260 101 208T132 117T193 56T291 34Q357 34 401 53T472 110T510 206T521 339ZM257 772H208V840H257V772ZM421 772H371V840H421V772Z" />
<glyph unicode="&#xd7;" glyph-name="multiply" horiz-adv-x="563" d="M444 73L282 234L120 73L89 104L250 265L89 428L120 459L282 297L444 459L476 428L313 265L476 104L444 73Z" />
<glyph unicode="&#xd8;" glyph-name="Oslash" horiz-adv-x="614" d="M41 333Q41 506 108 587T320 669Q390 669 439 646Q468 633 492 609L538 669L573 646L520 575Q547 532 560 471Q573 409 573 326Q573 153 506 71T294 -11Q224 -11 173 12Q142 28 120 49L75 -11L41
15L93 83Q65 125 53 187Q41 251 41 333ZM521 339Q521 398 512 451Q508 474 502 494T486 532L152 90Q169 69 193 55Q232 34 291 34Q357 34 401 53T472 110T510 206T521 339ZM420 602Q380 625 321 625Q256 625 212 606T142 548T104 453T93 322Q93 259 102 207Q109
163 126 128L461 569Q445 588 420 602Z" />
<glyph unicode="&#xd9;" glyph-name="Ugrave" horiz-adv-x="608" d="M539 659V237Q539 105 480 47T296 -11Q175 -11 122 49T68 244V659H118V227Q118 182 127 146T157 85T211 47T295 34Q350 34 387 45T447 81T480 146T490 245V659H539ZM229 881L349 723H296L173 881H229Z" />
<glyph unicode="&#xda;" glyph-name="Uacute" horiz-adv-x="608" d="M539 659V237Q539 105 480 47T296 -11Q175 -11 122 49T68 244V659H118V227Q118 182 127 146T157 85T211 47T295 34Q350 34 387 45T447 81T480 146T490 245V659H539ZM435 881L311 723H258L378 881H435Z" />
<glyph unicode="&#xdb;" glyph-name="Ucircumflex" horiz-adv-x="608" d="M539 659V237Q539 105 480 47T296 -11Q175 -11 122 49T68 244V659H118V227Q118 182 127 146T157 85T211 47T295 34Q350 34 387 45T447 81T480 146T490 245V659H539ZM337 881L449 723H397L306
851H297L207 723H157L265 881H337Z" />
<glyph unicode="&#xdc;" glyph-name="Udieresis" horiz-adv-x="608" d="M539 659V237Q539 105 480 47T296 -11Q175 -11 122 49T68 244V659H118V227Q118 182 127 146T157 85T211 47T295 34Q350 34 387 45T447 81T480 146T490 245V659H539ZM247 772H198V840H247V772ZM411
772H361V840H411V772Z" />
<glyph unicode="&#xdd;" glyph-name="Yacute" horiz-adv-x="519" d="M285 289V0H235V288L-2 659H62L256 346H264L461 659H521L285 289ZM402 881L278 723H225L345 881H402Z" />
<glyph unicode="&#xde;" glyph-name="Thorn" horiz-adv-x="533" d="M118 0H68V659H118V520H276Q492 520 492 330Q492 237 437 188T290 138H118V0ZM284 182Q360 182 401 218T442 330Q442 405 399 440T284 476H118V182H284Z" />
<glyph unicode="&#xdf;" glyph-name="germandbls" d="M482 108Q482 47 442 18T327 -11Q290 -11 252 -3T190 18L207 60Q214 57 227 52T256 43T291 35T329 32Q375 32 403 49T431 102Q431 135 415 153T357 190L294 219Q251 238 232 260T212 317Q212 352 233 380T307
445Q347 472 363 494T379 546Q379 597 347 618T269 639Q231 639 203 625T156 585T127 524T117 445V0H68V442Q68 505 84 550T127 625T192 669T271 684Q302 684 331 676T382 652T417 609T430 547Q430 525 424 508T406 474T375 441T329 406Q304 388 283 368T262 324Q262
299 275 286T317 260L386 227Q404 219 421 208T451 183T473 150T482 108Z" />
<glyph unicode="&#xe0;" glyph-name="agrave" horiz-adv-x="452" d="M432 -3Q429 -4 415 -4Q383 -4 369 10T348 50Q323 28 282 9T178 -11Q103 -11 71 27T39 128Q39 168 53 194T92 235T152 256T227 262H258Q279 262 298 261T341 257V281Q341 323 337 350T319 395T281
419T219 426Q199 426 178 423T138 414T103 403T75 391L60 430Q94 445 137 457T233 469Q278 469 308 459T356 427T382 370T390 283V105Q390 66 399 52T432 38V-3ZM218 219Q146 219 118 197T90 130Q90 78 114 55T196 32Q238 32 276 51T341 92V212Q311 216 282 217T218
219ZM135 681L255 523H202L79 681H135Z" />
<glyph unicode="&#xe1;" glyph-name="aacute" horiz-adv-x="452" d="M432 -3Q429 -4 415 -4Q383 -4 369 10T348 50Q323 28 282 9T178 -11Q103 -11 71 27T39 128Q39 168 53 194T92 235T152 256T227 262H258Q279 262 298 261T341 257V281Q341 323 337 350T319 395T281
419T219 426Q199 426 178 423T138 414T103 403T75 391L60 430Q94 445 137 457T233 469Q278 469 308 459T356 427T382 370T390 283V105Q390 66 399 52T432 38V-3ZM218 219Q146 219 118 197T90 130Q90 78 114 55T196 32Q238 32 276 51T341 92V212Q311 216 282 217T218
219ZM338 681L214 523H161L281 681H338Z" />
<glyph unicode="&#xe2;" glyph-name="acircumflex" horiz-adv-x="452" d="M432 -3Q429 -4 415 -4Q383 -4 369 10T348 50Q323 28 282 9T178 -11Q103 -11 71 27T39 128Q39 168 53 194T92 235T152 256T227 262H258Q279 262 298 261T341 257V281Q341 323 337 350T319
395T281 419T219 426Q199 426 178 423T138 414T103 403T75 391L60 430Q94 445 137 457T233 469Q278 469 308 459T356 427T382 370T390 283V105Q390 66 399 52T432 38V-3ZM218 219Q146 219 118 197T90 130Q90 78 114 55T196 32Q238 32 276 51T341 92V212Q311 216
282 217T218 219ZM248 681L360 523H308L217 651H208L118 523H68L176 681H248Z" />
<glyph unicode="&#xe3;" glyph-name="atilde" horiz-adv-x="452" d="M432 -3Q429 -4 415 -4Q383 -4 369 10T348 50Q323 28 282 9T178 -11Q103 -11 71 27T39 128Q39 168 53 194T92 235T152 256T227 262H258Q279 262 298 261T341 257V281Q341 323 337 350T319 395T281
419T219 426Q199 426 178 423T138 414T103 403T75 391L60 430Q94 445 137 457T233 469Q278 469 308 459T356 427T382 370T390 283V105Q390 66 399 52T432 38V-3ZM218 219Q146 219 118 197T90 130Q90 78 114 55T196 32Q238 32 276 51T341 92V212Q311 216 282 217T218
219ZM57 612Q72 624 95 634T141 645Q160 645 175 640T204 629T231 617T260 612Q281 612 297 618T330 634L348 600Q330 586 308 578T260 569Q241 569 226 574T196 585T169 596T141 601Q123 601 107 594T76 578L57 612Z" />
<glyph unicode="&#xe4;" glyph-name="adieresis" horiz-adv-x="452" d="M432 -3Q429 -4 415 -4Q383 -4 369 10T348 50Q323 28 282 9T178 -11Q103 -11 71 27T39 128Q39 168 53 194T92 235T152 256T227 262H258Q279 262 298 261T341 257V281Q341 323 337 350T319
395T281 419T219 426Q199 426 178 423T138 414T103 403T75 391L60 430Q94 445 137 457T233 469Q278 469 308 459T356 427T382 370T390 283V105Q390 66 399 52T432 38V-3ZM218 219Q146 219 118 197T90 130Q90 78 114 55T196 32Q238 32 276 51T341 92V212Q311 216
282 217T218 219ZM154 572H105V640H154V572ZM318 572H268V640H318V572Z" />
<glyph unicode="&#xe5;" glyph-name="aring" horiz-adv-x="452" d="M432 -3Q429 -4 415 -4Q383 -4 369 10T348 50Q323 28 282 9T178 -11Q103 -11 71 27T39 128Q39 168 53 194T92 235T152 256T227 262H258Q279 262 298 261T341 257V281Q341 323 337 350T319 395T281
419T219 426Q199 426 178 423T138 414T103 403T75 391L60 430Q94 445 137 457T233 469Q278 469 308 459T356 427T382 370T390 283V105Q390 66 399 52T432 38V-3ZM218 219Q146 219 118 197T90 130Q90 78 114 55T196 32Q238 32 276 51T341 92V212Q311 216 282 217T218
219ZM209 537Q163 537 144 561T125 623Q125 708 218 708Q266 708 284 684T303 622Q303 537 209 537ZM211 575Q239 575 249 587T260 624Q260 643 253 657T217 671Q189 671 178 659T166 621Q166 601 174 588T211 575Z" />
<glyph unicode="&#xe6;" glyph-name="ae" horiz-adv-x="763" d="M715 31Q704 25 686 18T645 4T597 -6T547 -11Q481 -11 441 8T377 65Q349 38 299 14T180 -11Q105 -11 73 27T41 128Q41 167 55 192T94 232T154 253T230 259H343V281Q343 323 339 350T321 395T284
419T221 426Q201 426 180 422T140 413T105 401T77 391L62 430Q96 445 139 457T235 469Q297 469 330 452T378 389Q426 469 545 469Q598 469 632 452T686 406T713 335T721 246V216H394Q395 161 406 126T437 69T486 40T554 32Q599 32 638 45T698 68L715 31ZM198 32Q240
32 282 53T359 104Q351 128 348 155T343 216H220Q148 216 120 194T92 132Q92 78 116 55T198 32ZM546 426Q468 426 435 385T395 259H671Q671 308 662 340T636 391T596 418T546 426Z" />
<glyph unicode="&#xe7;" glyph-name="ccedilla" horiz-adv-x="413" d="M390 23Q370 11 330 0T249 -11Q140 -11 91 51T41 222Q41 343 98 406T264 469Q302 469 337 456T393 418L362 387Q344 404 319 415T262 426Q181 426 137 375T92 218Q92 177 100 143T128 85T178
46T252 32Q291 32 321 40T375 58L390 23ZM146 -167Q162 -173 182 -177T221 -182Q260 -182 276 -172T292 -139Q292 -113 267 -102T174 -89L190 -49Q272 -49 306 -71T340 -139Q340 -181 313 -202T223 -224Q195 -224 172 -219T132 -205L146 -167Z" />
<glyph unicode="&#xe8;" glyph-name="egrave" horiz-adv-x="460" d="M245 -11Q187 -11 148 3T85 48T51 124T41 232Q41 353 90 411T243 469Q296 469 330 452T384 406T411 335T419 246V216H92Q92 163 102 130Q119 74 156 53T251 32Q297 32 336 45T395 68L413 31Q402
25 384 18T343 4T295 -6T245 -11ZM368 259Q368 308 359 340T333 391T294 418T244 426Q159 426 126 377Q96 335 92 259H368ZM183 681L303 523H250L127 681H183Z" />
<glyph unicode="&#xe9;" glyph-name="eacute" horiz-adv-x="460" d="M245 -11Q187 -11 148 3T85 48T51 124T41 232Q41 353 90 411T243 469Q296 469 330 452T384 406T411 335T419 246V216H92Q92 163 102 130Q119 74 156 53T251 32Q297 32 336 45T395 68L413 31Q402
25 384 18T343 4T295 -6T245 -11ZM368 259Q368 308 359 340T333 391T294 418T244 426Q159 426 126 377Q96 335 92 259H368ZM369 681L245 523H192L312 681H369Z" />
<glyph unicode="&#xea;" glyph-name="ecircumflex" horiz-adv-x="460" d="M245 -11Q187 -11 148 3T85 48T51 124T41 232Q41 353 90 411T243 469Q296 469 330 452T384 406T411 335T419 246V216H92Q92 163 102 130Q119 74 156 53T251 32Q297 32 336 45T395 68L413
31Q402 25 384 18T343 4T295 -6T245 -11ZM368 259Q368 308 359 340T333 391T294 418T244 426Q159 426 126 377Q96 335 92 259H368ZM280 681L392 523H340L249 651H240L150 523H100L208 681H280Z" />
<glyph unicode="&#xeb;" glyph-name="edieresis" horiz-adv-x="460" d="M245 -11Q187 -11 148 3T85 48T51 124T41 232Q41 353 90 411T243 469Q296 469 330 452T384 406T411 335T419 246V216H92Q92 163 102 130Q119 74 156 53T251 32Q297 32 336 45T395 68L413
31Q402 25 384 18T343 4T295 -6T245 -11ZM368 259Q368 308 359 340T333 391T294 418T244 426Q159 426 126 377Q96 335 92 259H368ZM176 572H127V640H176V572ZM340 572H290V640H340V572Z" />
<glyph unicode="&#xec;" glyph-name="igrave" horiz-adv-x="185" d="M117 0H68V458H117V0ZM41 681L161 523H108L-15 681H41Z" />
<glyph unicode="&#xed;" glyph-name="iacute" horiz-adv-x="185" d="M117 0H68V458H117V0ZM204 681L80 523H27L147 681H204Z" />
<glyph unicode="&#xee;" glyph-name="icircumflex" horiz-adv-x="185" d="M127 681L222 523H171L96 651H88L14 523H-35L56 681H127ZM117 0H68V458H117V0Z" />
<glyph unicode="&#xef;" glyph-name="idieresis" horiz-adv-x="185" d="M44 572H-5V640H44V572ZM186 572H136V640H186V572ZM117 0H68V458H117V0Z" />
<glyph unicode="&#xf0;" glyph-name="eth" horiz-adv-x="494" d="M136 557L236 611Q186 633 116 647L125 689Q208 674 266 646L285 637L382 691L401 658L322 614Q335 604 346 594T369 570Q411 521 432 448T453 266Q453 199 442 148T407 61T343 7T246 -11Q135 -11
88 53T41 231Q41 469 247 469Q301 469 349 447Q359 443 368 439T387 429Q374 484 343 526Q318 562 276 589L155 523L136 557ZM342 404Q297 426 247 426Q164 426 128 372T92 223Q92 183 99 149T125 88T172 47T246 32Q293 32 323 48T371 95T396 167T403 261Q403 292
402 319T396 373Q374 390 342 404Z" />
<glyph unicode="&#xf1;" glyph-name="ntilde" horiz-adv-x="492" d="M107 458L110 416Q126 426 143 434T178 450Q229 469 278 469Q324 469 353 458T400 424T423 367T429 287V0H380V277Q380 311 377 339T362 386T329 415T271 426Q235 426 197 412T127 377Q123 375
117 369V0H68V337L61 458H107ZM105 612Q120 624 143 634T189 645Q208 645 223 640T252 629T279 617T308 612Q329 612 345 618T378 634L396 600Q378 586 356 578T308 569Q289 569 274 574T244 585T217 596T189 601Q171 601 155 594T124 578L105 612Z" />
<glyph unicode="&#xf2;" glyph-name="ograve" horiz-adv-x="494" d="M235 -11Q179 -11 142 5T83 53T51 129T41 231Q41 352 93 410T258 469Q313 469 350 453T410 405T443 328T453 226Q453 105 400 47T235 -11ZM235 32Q283 32 315 45T366 83T394 147T402 235Q402
274 396 308T374 369T329 410T258 426Q210 426 178 413T127 374T100 310T92 223Q92 183 98 149T120 88T163 47T235 32ZM175 681L295 523H242L119 681H175Z" />
<glyph unicode="&#xf3;" glyph-name="oacute" horiz-adv-x="494" d="M235 -11Q179 -11 142 5T83 53T51 129T41 231Q41 352 93 410T258 469Q313 469 350 453T410 405T443 328T453 226Q453 105 400 47T235 -11ZM235 32Q283 32 315 45T366 83T394 147T402 235Q402
274 396 308T374 369T329 410T258 426Q210 426 178 413T127 374T100 310T92 223Q92 183 98 149T120 88T163 47T235 32ZM389 681L265 523H212L332 681H389Z" />
<glyph unicode="&#xf4;" glyph-name="ocircumflex" horiz-adv-x="494" d="M235 -11Q179 -11 142 5T83 53T51 129T41 231Q41 352 93 410T258 469Q313 469 350 453T410 405T443 328T453 226Q453 105 400 47T235 -11ZM235 32Q283 32 315 45T366 83T394 147T402 235Q402
274 396 308T374 369T329 410T258 426Q210 426 178 413T127 374T100 310T92 223Q92 183 98 149T120 88T163 47T235 32ZM282 681L394 523H342L251 651H242L152 523H102L210 681H282Z" />
<glyph unicode="&#xf5;" glyph-name="otilde" horiz-adv-x="494" d="M235 -11Q179 -11 142 5T83 53T51 129T41 231Q41 352 93 410T258 469Q313 469 350 453T410 405T443 328T453 226Q453 105 400 47T235 -11ZM235 32Q283 32 315 45T366 83T394 147T402 235Q402
274 396 308T374 369T329 410T258 426Q210 426 178 413T127 374T100 310T92 223Q92 183 98 149T120 88T163 47T235 32ZM104 612Q119 624 142 634T188 645Q207 645 222 640T251 629T278 617T307 612Q328 612 344 618T377 634L395 600Q377 586 355 578T307 569Q288
569 273 574T243 585T216 596T188 601Q170 601 154 594T123 578L104 612Z" />
<glyph unicode="&#xf6;" glyph-name="odieresis" horiz-adv-x="494" d="M235 -11Q179 -11 142 5T83 53T51 129T41 231Q41 352 93 410T258 469Q313 469 350 453T410 405T443 328T453 226Q453 105 400 47T235 -11ZM235 32Q283 32 315 45T366 83T394 147T402 235Q402
274 396 308T374 369T329 410T258 426Q210 426 178 413T127 374T100 310T92 223Q92 183 98 149T120 88T163 47T235 32ZM191 572H142V640H191V572ZM355 572H305V640H355V572Z" />
<glyph unicode="&#xf7;" glyph-name="divide" horiz-adv-x="516" d="M62 288H453V244H62V288ZM289 353H226V418H289V353ZM226 179H289V114H226V179Z" />
<glyph unicode="&#xf8;" glyph-name="oslash" horiz-adv-x="494" d="M235 -11Q149 -11 104 28L71 -11L41 15L78 58Q57 90 49 132T41 231Q41 352 93 410T258 469Q342 469 388 429L421 469L453 445L414 399Q435 367 444 325T453 226Q453 105 400 47T235 -11ZM235
32Q283 32 315 45T366 83T394 147T402 235Q402 270 397 301T379 357L136 66Q153 50 176 41T235 32ZM258 426Q210 426 178 413T127 374T100 310T92 223Q92 187 96 157T113 101L356 391Q339 407 315 416T258 426Z" />
<glyph unicode="&#xf9;" glyph-name="ugrave" horiz-adv-x="492" d="M424 121L431 0H385L380 42Q349 22 313 9Q261 -11 213 -11Q166 -11 137 0T92 34T69 91T63 171V458H112V181Q112 146 115 119T130 72T163 43T221 32Q258 32 295 46T364 81L375 88V458H424V121ZM164
681L284 523H231L108 681H164Z" />
<glyph unicode="&#xfa;" glyph-name="uacute" horiz-adv-x="492" d="M424 121L431 0H385L380 42Q349 22 313 9Q261 -11 213 -11Q166 -11 137 0T92 34T69 91T63 171V458H112V181Q112 146 115 119T130 72T163 43T221 32Q258 32 295 46T364 81L375 88V458H424V121ZM403
681L279 523H226L346 681H403Z" />
<glyph unicode="&#xfb;" glyph-name="ucircumflex" horiz-adv-x="492" d="M424 121L431 0H385L380 42Q349 22 313 9Q261 -11 213 -11Q166 -11 137 0T92 34T69 91T63 171V458H112V181Q112 146 115 119T130 72T163 43T221 32Q258 32 295 46T364 81L375 88V458H424V121ZM279
681L391 523H339L248 651H239L149 523H99L207 681H279Z" />
<glyph unicode="&#xfc;" glyph-name="udieresis" horiz-adv-x="492" d="M424 121L431 0H385L380 42Q349 22 313 9Q261 -11 213 -11Q166 -11 137 0T92 34T69 91T63 171V458H112V181Q112 146 115 119T130 72T163 43T221 32Q258 32 295 46T364 81L375 88V458H424V121ZM186
572H137V640H186V572ZM350 572H300V640H350V572Z" />
<glyph unicode="&#xfd;" glyph-name="yacute" horiz-adv-x="419" d="M10 458H63L213 67H222L361 458H412L238 -25Q223 -67 209 -103T175 -166T124 -208T45 -223Q24 -223 13 -219L19 -177Q26 -178 33 -179T50 -180Q88 -180 110 -166T144 -132Q151 -122 158 -107T171
-75T184 -41T194 -10L10 458ZM376 681L252 523H199L319 681H376Z" />
<glyph unicode="&#xfe;" glyph-name="thorn" horiz-adv-x="486" d="M227 -11Q198 -11 177 -7T132 6L117 12V-217L68 -223V684L117 690V424Q132 434 147 442T177 455Q213 469 258 469Q355 469 400 409T445 233Q445 179 433 135T395 58T327 7T227 -11ZM162 43Q195
32 227 32Q312 32 353 80T394 237Q394 271 388 304T366 365T321 409T247 426Q199 426 167 407Q142 394 117 375V65Q136 53 162 43Z" />
<glyph unicode="&#xff;" glyph-name="ydieresis" horiz-adv-x="419" d="M10 458H63L213 67H222L361 458H412L238 -25Q223 -67 209 -103T175 -166T124 -208T45 -223Q24 -223 13 -219L19 -177Q26 -178 33 -179T50 -180Q88 -180 110 -166T144 -132Q151 -122 158 -107T171
-75T184 -41T194 -10L10 458ZM153 572H104V640H153V572ZM317 572H267V640H317V572Z" />
<glyph unicode="&#x100;" glyph-name="Amacron" horiz-adv-x="593" d="M529 0L452 204H139L65 0H9L251 659H334L584 0H529ZM288 614L155 248H434L297 614H288ZM422 786H164V829H422V786Z" />
<glyph unicode="&#x101;" glyph-name="amacron" horiz-adv-x="452" d="M432 -3Q429 -4 415 -4Q383 -4 369 10T348 50Q323 28 282 9T178 -11Q103 -11 71 27T39 128Q39 168 53 194T92 235T152 256T227 262H258Q279 262 298 261T341 257V281Q341 323 337 350T319
395T281 419T219 426Q199 426 178 423T138 414T103 403T75 391L60 430Q94 445 137 457T233 469Q278 469 308 459T356 427T382 370T390 283V105Q390 66 399 52T432 38V-3ZM218 219Q146 219 118 197T90 130Q90 78 114 55T196 32Q238 32 276 51T341 92V212Q311 216
282 217T218 219ZM338 586H80V629H338V586Z" />
<glyph unicode="&#x102;" glyph-name="Abreve" horiz-adv-x="593" d="M529 0L452 204H139L65 0H9L251 659H334L584 0H529ZM288 614L155 248H434L297 614H288ZM431 881Q431 809 397 766T293 723Q224 723 189 764T154 881H197Q200 829 221 796T293 762Q343 762 364
795T388 881H431Z" />
<glyph unicode="&#x103;" glyph-name="abreve" horiz-adv-x="452" d="M432 -3Q429 -4 415 -4Q383 -4 369 10T348 50Q323 28 282 9T178 -11Q103 -11 71 27T39 128Q39 168 53 194T92 235T152 256T227 262H258Q279 262 298 261T341 257V281Q341 323 337 350T319 395T281
419T219 426Q199 426 178 423T138 414T103 403T75 391L60 430Q94 445 137 457T233 469Q278 469 308 459T356 427T382 370T390 283V105Q390 66 399 52T432 38V-3ZM218 219Q146 219 118 197T90 130Q90 78 114 55T196 32Q238 32 276 51T341 92V212Q311 216 282 217T218
219ZM350 681Q350 609 316 566T212 523Q143 523 108 564T73 681H116Q119 629 140 596T212 562Q262 562 283 595T307 681H350Z" />
<glyph unicode="&#x104;" glyph-name="Aogonek" horiz-adv-x="593" d="M590 -209Q577 -213 560 -216T521 -220Q464 -220 442 -197T419 -133Q419 -106 432 -80T486 -22Q503 -8 527 5L452 204H139L65 0H9L251 659H334L584 0Q548 -23 526 -40Q491 -68 480 -88T469
-131Q469 -178 523 -178Q541 -178 554 -175T581 -169L590 -209ZM288 614L155 248H434L297 614H288Z" />
<glyph unicode="&#x105;" glyph-name="aogonek" horiz-adv-x="452" d="M441 -209Q428 -213 410 -216T372 -220Q315 -220 293 -197T270 -133Q270 -106 284 -79T339 -21Q347 -14 356 -8T376 5Q365 12 359 23T348 50Q323 28 282 9T178 -11Q103 -11 71 27T39 128Q39
168 53 194T92 235T152 256T227 262H258Q279 262 298 261T341 257V281Q341 323 337 350T319 395T281 419T219 426Q199 426 178 423T138 414T103 403T75 391L60 430Q94 445 137 457T233 469Q278 469 308 459T356 427T382 370T390 283V105Q390 66 399 52T432 38V-3Q413
-15 397 -26T368 -47Q337 -71 329 -90T320 -131Q320 -178 374 -178Q391 -178 404 -175T431 -169L441 -209ZM218 219Q146 219 118 197T90 130Q90 78 114 55T196 32Q238 32 276 51T341 92V212Q311 216 282 217T218 219Z" />
<glyph unicode="&#x106;" glyph-name="Cacute" horiz-adv-x="571" d="M315 -11Q171 -9 106 74T41 329Q41 420 61 484T120 590T211 650T331 669Q397 669 446 648T525 593L494 562Q466 590 429 607T333 625Q205 625 149 546T93 320Q93 252 105 199T144 110T213 54T315
34Q388 34 436 46T515 69L529 30Q495 16 438 3T315 -11ZM466 881L342 723H289L409 881H466Z" />
<glyph unicode="&#x107;" glyph-name="cacute" horiz-adv-x="413" d="M390 23Q370 11 330 0T249 -11Q140 -11 91 51T41 222Q41 343 98 406T264 469Q302 469 337 456T393 418L362 387Q344 404 319 415T262 426Q181 426 137 375T92 218Q92 177 100 143T128 85T178
46T252 32Q291 32 321 40T375 58L390 23ZM362 681L238 523H185L305 681H362Z" />
<glyph unicode="&#x108;" glyph-name="Ccircumflex" horiz-adv-x="571" d="M315 -11Q171 -9 106 74T41 329Q41 420 61 484T120 590T211 650T331 669Q397 669 446 648T525 593L494 562Q466 590 429 607T333 625Q205 625 149 546T93 320Q93 252 105 199T144 110T213
54T315 34Q388 34 436 46T515 69L529 30Q495 16 438 3T315 -11ZM361 881L473 723H421L330 851H321L231 723H181L289 881H361Z" />
<glyph unicode="&#x109;" glyph-name="ccircumflex" horiz-adv-x="413" d="M390 23Q370 11 330 0T249 -11Q140 -11 91 51T41 222Q41 343 98 406T264 469Q302 469 337 456T393 418L362 387Q344 404 319 415T262 426Q181 426 137 375T92 218Q92 177 100 143T128
85T178 46T252 32Q291 32 321 40T375 58L390 23ZM282 681L394 523H342L251 651H242L152 523H102L210 681H282Z" />
<glyph unicode="&#x10a;" glyph-name="Cdotaccent" horiz-adv-x="571" d="M315 -11Q171 -9 106 74T41 329Q41 420 61 484T120 590T211 650T331 669Q397 669 446 648T525 593L494 562Q466 590 429 607T333 625Q205 625 149 546T93 320Q93 252 105 199T144 110T213
54T315 34Q388 34 436 46T515 69L529 30Q495 16 438 3T315 -11ZM351 772H301V840H351V772Z" />
<glyph unicode="&#x10b;" glyph-name="cdotaccent" horiz-adv-x="413" d="M390 23Q370 11 330 0T249 -11Q140 -11 91 51T41 222Q41 343 98 406T264 469Q302 469 337 456T393 418L362 387Q344 404 319 415T262 426Q181 426 137 375T92 218Q92 177 100 143T128 85T178
46T252 32Q291 32 321 40T375 58L390 23ZM275 572H225V640H275V572Z" />
<glyph unicode="&#x10c;" glyph-name="Ccaron" horiz-adv-x="571" d="M315 -11Q171 -9 106 74T41 329Q41 420 61 484T120 590T211 650T331 669Q397 669 446 648T525 593L494 562Q466 590 429 607T333 625Q205 625 149 546T93 320Q93 252 105 199T144 110T213 54T315
34Q388 34 436 46T515 69L529 30Q495 16 438 3T315 -11ZM292 723L181 881H233L324 754H332L422 881H473L365 723H292Z" />
<glyph unicode="&#x10d;" glyph-name="ccaron" horiz-adv-x="413" d="M390 23Q370 11 330 0T249 -11Q140 -11 91 51T41 222Q41 343 98 406T264 469Q302 469 337 456T393 418L362 387Q344 404 319 415T262 426Q181 426 137 375T92 218Q92 177 100 143T128 85T178
46T252 32Q291 32 321 40T375 58L390 23ZM213 523L102 681H154L245 554H253L343 681H394L286 523H213Z" />
<glyph unicode="&#x10e;" glyph-name="Dcaron" horiz-adv-x="596" d="M247 659Q322 659 379 641T476 584T535 481T555 326Q555 231 531 169T462 69T356 16T221 0H74V659H247ZM219 44Q288 44 341 57T430 104T484 195T503 339Q503 483 440 548T249 614H123V44H219ZM249
723L138 881H190L281 754H289L379 881H430L322 723H249Z" />
<glyph unicode="&#x10f;" glyph-name="dcaron" horiz-adv-x="611" d="M529 519H487L524 687H578L529 519ZM227 -11Q130 -11 85 49T40 225Q40 278 52 323T90 400T158 451T258 469Q287 469 308 465T352 451Q356 449 360 448T368 444V684L417 690V114L425 0H380L373
37Q356 26 340 18T308 2Q275 -11 227 -11ZM323 415Q290 426 258 426Q173 426 132 378T91 221Q91 187 97 154T119 93T164 49T238 32Q285 32 317 50Q331 58 343 66T368 82V392Q358 399 347 404T323 415Z" />
<glyph unicode="&#x110;" glyph-name="Dcroat" horiz-adv-x="603" d="M255 659Q330 659 387 641T484 584T543 481T563 326Q563 231 539 169T470 69T364 16T229 0H82V317H14V362H82V659H255ZM227 44Q296 44 349 57T438 104T492 195T511 339Q511 483 448 548T257
614H131V362H298V317H131V44H227Z" />
<glyph unicode="&#x111;" glyph-name="" horiz-adv-x="485" d="M227 -11Q130 -11 85 49T40 225Q40 278 52 323T90 400T158 451T258 469Q287 469 308 465T352 451Q356 449 360 448T368 444V549H212V593H368V684L417 690V593H484V549H417V114L425 0H380L373 37Q356
26 340 18T308 2Q275 -11 227 -11ZM323 415Q290 426 258 426Q173 426 132 378T91 221Q91 187 97 154T119 93T164 49T238 32Q285 32 317 50Q331 58 343 66T368 82V392Q358 399 347 404T323 415Z" />
<glyph unicode="&#x112;" glyph-name="Emacron" horiz-adv-x="512" d="M460 44V0H74V659H450V614H123V362H439V317H123V44H460ZM393 786H135V829H393V786Z" />
<glyph unicode="&#x113;" glyph-name="emacron" horiz-adv-x="460" d="M245 -11Q187 -11 148 3T85 48T51 124T41 232Q41 353 90 411T243 469Q296 469 330 452T384 406T411 335T419 246V216H92Q92 163 102 130Q119 74 156 53T251 32Q297 32 336 45T395 68L413 31Q402
25 384 18T343 4T295 -6T245 -11ZM368 259Q368 308 359 340T333 391T294 418T244 426Q159 426 126 377Q96 335 92 259H368ZM370 586H112V629H370V586Z" />
<glyph unicode="&#x114;" glyph-name="Ebreve" horiz-adv-x="512" d="M460 44V0H74V659H450V614H123V362H439V317H123V44H460ZM399 881Q399 809 365 766T261 723Q192 723 157 764T122 881H165Q168 829 189 796T261 762Q311 762 332 795T356 881H399Z" />
<glyph unicode="&#x115;" glyph-name="ebreve" horiz-adv-x="460" d="M245 -11Q187 -11 148 3T85 48T51 124T41 232Q41 353 90 411T243 469Q296 469 330 452T384 406T411 335T419 246V216H92Q92 163 102 130Q119 74 156 53T251 32Q297 32 336 45T395 68L413 31Q402
25 384 18T343 4T295 -6T245 -11ZM368 259Q368 308 359 340T333 391T294 418T244 426Q159 426 126 377Q96 335 92 259H368ZM372 681Q372 609 338 566T234 523Q165 523 130 564T95 681H138Q141 629 162 596T234 562Q284 562 305 595T329 681H372Z" />
<glyph unicode="&#x116;" glyph-name="Edotaccent" horiz-adv-x="512" d="M460 44V0H74V659H450V614H123V362H439V317H123V44H460ZM288 772H238V840H288V772Z" />
<glyph unicode="&#x117;" glyph-name="edotaccent" horiz-adv-x="460" d="M245 -11Q187 -11 148 3T85 48T51 124T41 232Q41 353 90 411T243 469Q296 469 330 452T384 406T411 335T419 246V216H92Q92 163 102 130Q119 74 156 53T251 32Q297 32 336 45T395 68L413
31Q402 25 384 18T343 4T295 -6T245 -11ZM368 259Q368 308 359 340T333 391T294 418T244 426Q159 426 126 377Q96 335 92 259H368ZM257 572H207V640H257V572Z" />
<glyph unicode="&#x118;" glyph-name="Eogonek" horiz-adv-x="512" d="M467 -209Q454 -213 437 -216T398 -220Q341 -220 319 -197T296 -133Q296 -106 309 -80T363 -22Q378 -10 395 0H74V659H450V614H123V362H439V317H123V44H460V1L461 0Q443 -11 429 -21T403 -40Q369
-68 358 -88T346 -131Q346 -178 400 -178Q417 -178 431 -175T458 -169L467 -209Z" />
<glyph unicode="&#x119;" glyph-name="eogonek" horiz-adv-x="460" d="M337 -209Q324 -213 306 -216T268 -220Q211 -220 189 -197T166 -133Q166 -99 181 -76T220 -34Q227 -28 234 -22T249 -11H245Q187 -11 148 3T85 48T51 124T41 232Q41 353 90 411T243 469Q296
469 330 452T384 406T411 335T419 246V216H92Q93 161 104 126T135 69T184 40T251 32Q297 32 336 45T395 68L413 31Q370 12 340 -3T284 -36Q250 -57 233 -82T216 -131Q216 -178 270 -178Q287 -178 300 -175T327 -169L337 -209ZM368 259Q368 308 359 340T333 391T294
418T244 426Q166 426 133 385T93 259H368Z" />
<glyph unicode="&#x11a;" glyph-name="Ecaron" horiz-adv-x="512" d="M460 44V0H74V659H450V614H123V362H439V317H123V44H460ZM224 723L113 881H165L256 754H264L354 881H405L297 723H224Z" />
<glyph unicode="&#x11b;" glyph-name="ecaron" horiz-adv-x="460" d="M245 -11Q187 -11 148 3T85 48T51 124T41 232Q41 353 90 411T243 469Q296 469 330 452T384 406T411 335T419 246V216H92Q92 163 102 130Q119 74 156 53T251 32Q297 32 336 45T395 68L413 31Q402
25 384 18T343 4T295 -6T245 -11ZM368 259Q368 308 359 340T333 391T294 418T244 426Q159 426 126 377Q96 335 92 259H368ZM198 523L87 681H139L230 554H238L328 681H379L271 523H198Z" />
<glyph unicode="&#x11c;" glyph-name="Gcircumflex" horiz-adv-x="612" d="M544 32Q505 17 445 3T315 -11Q171 -11 106 73T41 329Q41 420 61 484T120 590T211 650T331 669Q397 669 446 648T525 593L494 562Q466 590 429 607T333 625Q205 625 149 546T93 320Q93
252 105 199T144 110T213 54T315 34Q386 34 435 45Q452 49 466 53T494 61V278H314V323H544V32ZM361 881L473 723H421L330 851H321L231 723H181L289 881H361Z" />
<glyph unicode="&#x11d;" glyph-name="gcircumflex" horiz-adv-x="487" d="M419 458V-27Q419 -81 405 -118T366 -179T304 -213T223 -223Q181 -223 147 -218T87 -204L99 -161Q123 -168 154 -174T225 -180Q256 -180 282 -174T328 -150T359 -103T370 -28V35Q339 14
307 2T229 -11Q130 -11 86 49T41 225Q41 278 53 323T91 400T159 451T259 469Q297 469 324 461T377 440L382 458H419ZM370 392Q349 405 322 415T259 426Q174 426 133 378T92 221Q92 187 98 154T120 93T165 49T239 32Q277 32 308 46T370 83V392ZM282 681L394 523H342L251
651H242L152 523H102L210 681H282Z" />
<glyph unicode="&#x11e;" glyph-name="Gbreve" horiz-adv-x="612" d="M544 32Q505 17 445 3T315 -11Q171 -11 106 73T41 329Q41 420 61 484T120 590T211 650T331 669Q397 669 446 648T525 593L494 562Q466 590 429 607T333 625Q205 625 149 546T93 320Q93 252
105 199T144 110T213 54T315 34Q386 34 435 45Q452 49 466 53T494 61V278H314V323H544V32ZM458 881Q458 809 424 766T320 723Q251 723 216 764T181 881H224Q227 829 248 796T320 762Q370 762 391 795T415 881H458Z" />
<glyph unicode="&#x11f;" glyph-name="gbreve" horiz-adv-x="487" d="M419 458V-27Q419 -81 405 -118T366 -179T304 -213T223 -223Q181 -223 147 -218T87 -204L99 -161Q123 -168 154 -174T225 -180Q256 -180 282 -174T328 -150T359 -103T370 -28V35Q339 14 307
2T229 -11Q130 -11 86 49T41 225Q41 278 53 323T91 400T159 451T259 469Q297 469 324 461T377 440L382 458H419ZM370 392Q349 405 322 415T259 426Q174 426 133 378T92 221Q92 187 98 154T120 93T165 49T239 32Q277 32 308 46T370 83V392ZM379 681Q379 609 345
566T241 523Q172 523 137 564T102 681H145Q148 629 169 596T241 562Q291 562 312 595T336 681H379Z" />
<glyph unicode="&#x120;" glyph-name="Gdotaccent" horiz-adv-x="612" d="M544 32Q505 17 445 3T315 -11Q171 -11 106 73T41 329Q41 420 61 484T120 590T211 650T331 669Q397 669 446 648T525 593L494 562Q466 590 429 607T333 625Q205 625 149 546T93 320Q93
252 105 199T144 110T213 54T315 34Q386 34 435 45Q452 49 466 53T494 61V278H314V323H544V32ZM350 772H300V840H350V772Z" />
<glyph unicode="&#x121;" glyph-name="gdotaccent" horiz-adv-x="487" d="M419 458V-27Q419 -81 405 -118T366 -179T304 -213T223 -223Q181 -223 147 -218T87 -204L99 -161Q123 -168 154 -174T225 -180Q256 -180 282 -174T328 -150T359 -103T370 -28V35Q339 14
307 2T229 -11Q130 -11 86 49T41 225Q41 278 53 323T91 400T159 451T259 469Q297 469 324 461T377 440L382 458H419ZM370 392Q349 405 322 415T259 426Q174 426 133 378T92 221Q92 187 98 154T120 93T165 49T239 32Q277 32 308 46T370 83V392ZM279 572H229V640H279V572Z"
/>
<glyph unicode="&#x122;" glyph-name="uni0122" horiz-adv-x="612" d="M544 32Q505 17 445 3T315 -11Q171 -11 106 73T41 329Q41 420 61 484T120 590T211 650T331 669Q397 669 446 648T525 593L494 562Q466 590 429 607T333 625Q205 625 149 546T93 320Q93 252
105 199T144 110T213 54T315 34Q386 34 435 45Q452 49 466 53T494 61V278H314V323H544V32ZM253 -221Q283 -188 297 -146T311 -57H360Q360 -111 340 -159T283 -247L253 -221Z" />
<glyph unicode="&#x123;" glyph-name="uni0123" horiz-adv-x="487" d="M419 458V-27Q419 -81 405 -118T366 -179T304 -213T223 -223Q181 -223 147 -218T87 -204L99 -161Q123 -168 154 -174T225 -180Q256 -180 282 -174T328 -150T359 -103T370 -28V35Q339 14 307
2T229 -11Q130 -11 86 49T41 225Q41 278 53 323T91 400T159 451T259 469Q297 469 324 461T377 440L382 458H419ZM370 392Q349 405 322 415T259 426Q174 426 133 378T92 221Q92 187 98 154T120 93T165 49T239 32Q277 32 308 46T370 83V392ZM355 676Q325 643 311
601T297 512H248Q248 566 268 614T325 702L355 676Z" />
<glyph unicode="&#x124;" glyph-name="Hcircumflex" horiz-adv-x="633" d="M559 659V0H509V309H123V0H74V659H123V353H509V659H559ZM352 881L464 723H412L321 851H312L222 723H172L280 881H352Z" />
<glyph unicode="&#x125;" glyph-name="hcircumflex" horiz-adv-x="492" d="M380 0V277Q380 311 377 339T362 386T329 415T271 426Q235 426 197 412T127 377Q123 375 117 369V0H68V684L117 690V419Q144 436 178 450Q229 469 278 469Q324 469 353 458T400 424T423
367T429 287V0H380ZM128 881L240 723H188L97 851H88L-2 723H-52L56 881H128Z" />
<glyph unicode="&#x126;" glyph-name="Hbar" horiz-adv-x="633" d="M559 659V528H626V484H559V0H509V309H123V0H74V484H6V528H74V659H123V528H509V659H559ZM509 353V484H123V353H509Z" />
<glyph unicode="&#x127;" glyph-name="hbar" horiz-adv-x="492" d="M380 0V277Q380 311 377 339T362 386T329 415T271 426Q235 426 197 412T127 377Q123 375 117 369V0H68V549H1V593H68V684L117 690V593H273V549H117V419Q144 436 178 450Q229 469 278 469Q324
469 353 458T400 424T423 367T429 287V0H380Z" />
<glyph unicode="&#x128;" glyph-name="Itilde" horiz-adv-x="197" d="M74 659H123V0H74V659ZM-45 812Q-30 824 -7 834T39 845Q58 845 73 840T102 829T129 817T158 812Q179 812 195 818T228 834L246 800Q228 786 206 778T158 769Q139 769 124 774T94 785T67 796T39
801Q21 801 5 794T-26 778L-45 812Z" />
<glyph unicode="&#x129;" glyph-name="itilde" horiz-adv-x="185" d="M218 602Q199 588 183 581T141 574Q121 574 109 577T88 585T68 592T43 596Q25 596 14 591T-11 576L-30 610Q-15 622 3 630T43 639Q63 639 75 636T96 628T116 621T141 617Q160 617 172 622T199
636L218 602ZM117 0H68V458H117V0Z" />
<glyph unicode="&#x12a;" glyph-name="Imacron" horiz-adv-x="197" d="M74 659H123V0H74V659ZM230 786H-28V829H230V786Z" />
<glyph unicode="&#x12b;" glyph-name="imacron" horiz-adv-x="185" d="M68 458H117V0H68V458ZM200 586H-14V629H200V586Z" />
<glyph unicode="&#x12c;" glyph-name="Ibreve" horiz-adv-x="197" d="M74 659H123V0H74V659ZM240 881Q240 809 206 766T102 723Q33 723 -2 764T-37 881H6Q9 829 30 796T102 762Q152 762 173 795T197 881H240Z" />
<glyph unicode="&#x12d;" glyph-name="ibreve" horiz-adv-x="185" d="M68 458H117V0H68V458ZM232 681Q232 609 198 566T94 523Q25 523 -10 564T-45 681H-2Q1 629 22 596T94 562Q144 562 165 595T189 681H232Z" />
<glyph unicode="&#x12e;" glyph-name="Iogonek" horiz-adv-x="197" d="M74 659H123V0Q90 -22 66 -41Q31 -69 20 -89T9 -131Q9 -178 63 -178Q80 -178 93 -175T120 -169L130 -209Q117 -213 99 -216T61 -220Q4 -220 -18 -197T-41 -133Q-41 -106 -28 -80T26 -22Q45
-7 74 9V659Z" />
<glyph unicode="&#x12f;" glyph-name="iogonek" horiz-adv-x="185" d="M68 458H117V0Q100 -11 86 -21T60 -40Q25 -68 14 -88T2 -131Q2 -178 56 -178Q74 -178 87 -175T114 -169L123 -209Q110 -213 93 -216T54 -220Q-3 -220 -25 -197T-48 -133Q-48 -106 -35 -80T19
-22Q30 -14 42 -6T68 10V458ZM67 640H117V572H67V640Z" />
<glyph unicode="&#x130;" glyph-name="Idotaccent" horiz-adv-x="197" d="M74 659H123V0H74V659ZM125 772H75V840H125V772Z" />
<glyph unicode="&#x131;" glyph-name="dotlessi" horiz-adv-x="185" d="M117 0H68V458H117V0Z" />
<glyph unicode="&#x132;" glyph-name="IJ" horiz-adv-x="512" d="M74 659H123V0H74V659ZM394 659H444V185Q444 83 407 39T286 -5Q238 -5 211 5L221 49Q233 44 249 42T283 39Q310 39 331 45T366 66T387 107T394 172V659Z" />
<glyph unicode="&#x133;" glyph-name="ij" horiz-adv-x="370" d="M67 640H117V572H67V640ZM68 458H117V0H68V458ZM155 -180H160Q190 -180 208 -175T236 -156T249 -118T253 -55V458H302V-32Q302 -77 300 -112T284 -172T244 -210T166 -223H155V-180ZM302 572H252V640H302V572Z"
/>
<glyph unicode="&#x134;" glyph-name="Jcircumflex" horiz-adv-x="315" d="M197 659H247V185Q247 83 210 39T89 -5Q41 -5 14 5L24 49Q36 44 52 42T86 39Q113 39 134 45T169 66T190 107T197 172V659ZM257 881L369 723H317L226 851H217L127 723H77L185 881H257Z" />
<glyph unicode="&#x135;" glyph-name="jcircumflex" horiz-adv-x="185" d="M-30 -177H-25Q5 -177 23 -172T51 -153T64 -115T68 -52V458H117V-29Q117 -74 115 -109T99 -169T59 -207T-19 -220H-30V-177ZM127 681L222 523H171L96 651H88L14 523H-35L56 681H127Z" />
<glyph unicode="&#x136;" glyph-name="uni0136" horiz-adv-x="523" d="M123 0H74V659H123V352H184L459 659H520L227 330L500 0H437L184 309H123V0ZM181 -218Q211 -185 225 -143T239 -54H288Q288 -108 268 -156T211 -244L181 -218Z" />
<glyph unicode="&#x137;" glyph-name="uni0137" horiz-adv-x="448" d="M68 0V684L117 690V271H169L366 458H427L211 249L434 0H373L169 229H117V0H68ZM146 -218Q176 -185 190 -143T204 -54H253Q253 -108 233 -156T176 -244L146 -218Z" />
<glyph unicode="&#x138;" glyph-name="kgreenlandic" horiz-adv-x="448" d="M68 0V458H117V260H171L366 458H427L211 238L434 0H373L169 218H117V0H68Z" />
<glyph unicode="&#x139;" glyph-name="Lacute" horiz-adv-x="442" d="M446 44V0H70V659H119V44H446ZM249 881L125 723H72L192 881H249Z" />
<glyph unicode="&#x13a;" glyph-name="lacute" horiz-adv-x="192" d="M159 -3Q158 -4 152 -4Q149 -5 136 -5Q97 -5 83 22T68 101V684L117 690V101Q117 60 126 49T159 38V-3ZM245 910L121 752H68L188 910H245Z" />
<glyph unicode="&#x13b;" glyph-name="uni013B" horiz-adv-x="447" d="M450 44V0H74V659H123V44H450ZM166 -221Q196 -188 210 -146T224 -57H273Q273 -111 253 -159T196 -247L166 -221Z" />
<glyph unicode="&#x13c;" glyph-name="uni013C" horiz-adv-x="192" d="M159 -3Q158 -4 152 -4Q149 -5 136 -5Q97 -5 83 22T68 101V684L117 690V101Q117 60 126 49T159 38V-3ZM31 -218Q61 -185 75 -143T89 -54H138Q138 -108 118 -156T61 -244L31 -218Z" />
<glyph unicode="&#x13d;" glyph-name="Lcaron" horiz-adv-x="442" d="M230 519H188L225 687H279L230 519ZM445 44V0H69V659H118V44H445Z" />
<glyph unicode="&#x13e;" glyph-name="lcaron" horiz-adv-x="311" d="M229 519H187L224 687H278L229 519ZM159 -3Q158 -4 152 -4Q149 -5 136 -5Q97 -5 83 22T68 101V684L117 690V101Q117 60 126 49T159 38V-3Z" />
<glyph unicode="&#x13f;" glyph-name="Ldot" horiz-adv-x="447" d="M450 44V0H74V659H123V44H450ZM352 283H302V351H352V283Z" />
<glyph unicode="&#x140;" glyph-name="ldot" horiz-adv-x="311" d="M159 -3Q158 -4 152 -4Q149 -5 136 -5Q97 -5 83 22T68 101V684L117 690V101Q117 60 126 49T159 38V-3ZM276 213H226V281H276V213Z" />
<glyph unicode="&#x141;" glyph-name="Lslash" horiz-adv-x="442" d="M445 44V0H69V292L1 244V296L69 344V659H118V379L245 469V417L118 327V44H445Z" />
<glyph unicode="&#x142;" glyph-name="lslash" horiz-adv-x="217" d="M163 -3Q162 -4 156 -4Q153 -5 140 -5Q101 -5 87 22T72 101V287L-5 233V285L72 339V684L121 690V374L230 452V400L121 322V101Q121 60 130 49T163 38V-3Z" />
<glyph unicode="&#x143;" glyph-name="Nacute" horiz-adv-x="645" d="M571 659V0H481L132 615H123V0H74V659H165L512 43H521V659H571ZM466 881L342 723H289L409 881H466Z" />
<glyph unicode="&#x144;" glyph-name="nacute" horiz-adv-x="492" d="M107 458L110 416Q126 426 143 434T178 450Q229 469 278 469Q324 469 353 458T400 424T423 367T429 287V0H380V277Q380 311 377 339T362 386T329 415T271 426Q235 426 197 412T127 377Q123
375 117 369V0H68V337L61 458H107ZM378 681L254 523H201L321 681H378Z" />
<glyph unicode="&#x145;" glyph-name="uni0145" horiz-adv-x="645" d="M571 659V0H481L132 615H123V0H74V659H165L512 43H521V659H571ZM252 -218Q282 -185 296 -143T310 -54H359Q359 -108 339 -156T282 -244L252 -218Z" />
<glyph unicode="&#x146;" glyph-name="uni0146" horiz-adv-x="492" d="M107 458L110 416Q126 426 143 434T178 450Q229 469 278 469Q324 469 353 458T400 424T423 367T429 287V0H380V277Q380 311 377 339T362 386T329 415T271 426Q235 426 197 412T127 377Q123
375 117 369V0H68V337L61 458H107ZM175 -218Q205 -185 219 -143T233 -54H282Q282 -108 262 -156T205 -244L175 -218Z" />
<glyph unicode="&#x147;" glyph-name="Ncaron" horiz-adv-x="645" d="M571 659V0H481L132 615H123V0H74V659H165L512 43H521V659H571ZM305 723L194 881H246L337 754H345L435 881H486L378 723H305Z" />
<glyph unicode="&#x148;" glyph-name="ncaron" horiz-adv-x="492" d="M107 458L110 416Q126 426 143 434T178 450Q229 469 278 469Q324 469 353 458T400 424T423 367T429 287V0H380V277Q380 311 377 339T362 386T329 415T271 426Q235 426 197 412T127 377Q123
375 117 369V0H68V337L61 458H107ZM210 523L99 681H151L242 554H250L340 681H391L283 523H210Z" />
<glyph unicode="&#x14a;" glyph-name="Eng" horiz-adv-x="645" d="M571 659V-29Q571 -74 568 -109T552 -169T510 -207T433 -220H422V-177H428Q458 -177 476 -172T504 -153T517 -115T521 -52V0H481L132 615H123V0H74V659H165L512 43H521V659H571Z" />
<glyph unicode="&#x14b;" glyph-name="eng" horiz-adv-x="492" d="M107 458L110 416Q126 426 143 434T178 450Q229 469 278 469Q324 469 353 458T400 424T423 367T429 287V-29Q429 -74 427 -109T411 -169T370 -207T292 -220H282V-177H287Q317 -177 335 -172T363
-153T376 -115T380 -52V277Q380 311 377 339T362 386T329 415T271 426Q235 426 197 412T127 377Q123 375 117 369V0H68V337L61 458H107Z" />
<glyph unicode="&#x14c;" glyph-name="Omacron" horiz-adv-x="614" d="M41 333Q41 506 108 587T320 669Q390 669 438 646T517 579T560 471T573 326Q573 153 506 71T294 -11Q222 -11 174 12T96 80T54 188T41 333ZM521 339Q521 399 513 451T482 542T420 603T321
625Q256 625 212 606T142 548T104 453T93 322Q93 260 101 208T132 117T193 56T291 34Q357 34 401 53T472 110T510 206T521 339ZM439 786H181V829H439V786Z" />
<glyph unicode="&#x14d;" glyph-name="omacron" horiz-adv-x="494" d="M235 -11Q179 -11 142 5T83 53T51 129T41 231Q41 352 93 410T258 469Q313 469 350 453T410 405T443 328T453 226Q453 105 400 47T235 -11ZM235 32Q283 32 315 45T366 83T394 147T402 235Q402
274 396 308T374 369T329 410T258 426Q210 426 178 413T127 374T100 310T92 223Q92 183 98 149T120 88T163 47T235 32ZM378 586H120V629H378V586Z" />
<glyph unicode="&#x14e;" glyph-name="Obreve" horiz-adv-x="614" d="M41 333Q41 506 108 587T320 669Q390 669 438 646T517 579T560 471T573 326Q573 153 506 71T294 -11Q222 -11 174 12T96 80T54 188T41 333ZM521 339Q521 399 513 451T482 542T420 603T321 625Q256
625 212 606T142 548T104 453T93 322Q93 260 101 208T132 117T193 56T291 34Q357 34 401 53T472 110T510 206T521 339ZM449 881Q449 809 415 766T311 723Q242 723 207 764T172 881H215Q218 829 239 796T311 762Q361 762 382 795T406 881H449Z" />
<glyph unicode="&#x14f;" glyph-name="obreve" horiz-adv-x="494" d="M235 -11Q179 -11 142 5T83 53T51 129T41 231Q41 352 93 410T258 469Q313 469 350 453T410 405T443 328T453 226Q453 105 400 47T235 -11ZM235 32Q283 32 315 45T366 83T394 147T402 235Q402
274 396 308T374 369T329 410T258 426Q210 426 178 413T127 374T100 310T92 223Q92 183 98 149T120 88T163 47T235 32ZM388 681Q388 609 354 566T250 523Q181 523 146 564T111 681H154Q157 629 178 596T250 562Q300 562 321 595T345 681H388Z" />
<glyph unicode="&#x150;" glyph-name="Ohungarumlaut" horiz-adv-x="614" d="M41 333Q41 506 108 587T320 669Q390 669 438 646T517 579T560 471T573 326Q573 153 506 71T294 -11Q222 -11 174 12T96 80T54 188T41 333ZM521 339Q521 399 513 451T482 542T420 603T321
625Q256 625 212 606T142 548T104 453T93 322Q93 260 101 208T132 117T193 56T291 34Q357 34 401 53T472 110T510 206T521 339ZM357 881L234 723H181L301 881H357ZM542 881L419 723H366L486 881H542Z" />
<glyph unicode="&#x151;" glyph-name="ohungarumlaut" horiz-adv-x="494" d="M235 -11Q179 -11 142 5T83 53T51 129T41 231Q41 352 93 410T258 469Q313 469 350 453T410 405T443 328T453 226Q453 105 400 47T235 -11ZM235 32Q283 32 315 45T366 83T394 147T402
235Q402 274 396 308T374 369T329 410T258 426Q210 426 178 413T127 374T100 310T92 223Q92 183 98 149T120 88T163 47T235 32ZM307 681L184 523H131L251 681H307ZM492 681L369 523H316L436 681H492Z" />
<glyph unicode="&#x152;" glyph-name="OE" horiz-adv-x="960" d="M908 44V0H521V107Q510 86 498 73Q433 -11 294 -11Q222 -11 174 12T96 80T54 188T41 333Q41 506 108 587T320 669Q389 669 435 647T510 580Q517 571 521 562V659H897V614H571V362H886V317H571V44H908ZM521
356Q519 406 512 451Q500 529 455 577T321 625Q256 625 212 606T142 548T104 453T93 322Q93 260 101 208T132 117T193 56T291 34Q357 34 401 53T472 110T510 206T521 339V356Z" />
<glyph unicode="&#x153;" glyph-name="oe" horiz-adv-x="821" d="M606 -11Q499 -11 454 45Q434 69 424 106Q413 76 394 52Q346 -11 235 -11Q179 -11 142 5T83 53T51 129T41 231Q41 352 93 410T258 469Q342 469 393 414Q414 390 428 352Q468 469 603 469Q657 469
691 452T745 406T772 335T780 246V216H453Q453 163 463 130Q478 74 516 53T612 32Q658 32 697 45T756 68L773 31Q763 25 745 18T704 4T656 -6T606 -11ZM235 32Q283 32 315 45T366 83T394 147T402 235Q402 274 396 308T374 369T329 410T258 426Q210 426 178 413T127
374T100 310T92 223Q92 183 98 149T120 88T163 47T235 32ZM729 259Q729 308 720 340T694 391T654 418T604 426Q520 426 486 377Q457 336 453 259H729Z" />
<glyph unicode="&#x154;" glyph-name="Racute" horiz-adv-x="555" d="M74 0V659H284Q392 659 444 616T497 474Q497 394 456 348Q421 312 366 297L511 0H456L316 288H123V0H74ZM291 333Q367 333 406 364T445 474Q445 543 410 578T291 614H123V333H291ZM401 881L277
723H224L344 881H401Z" />
<glyph unicode="&#x155;" glyph-name="racute" horiz-adv-x="323" d="M106 458L114 392Q148 429 186 446Q234 469 278 469Q310 469 330 459L315 414Q304 417 293 419T264 421Q221 421 181 393Q165 382 150 368T119 338V0H70V335L61 458H106ZM304 681L180 523H127L247
681H304Z" />
<glyph unicode="&#x156;" glyph-name="uni0156" horiz-adv-x="555" d="M74 0V659H284Q392 659 444 616T497 474Q497 394 456 348Q421 312 366 297L511 0H456L316 288H123V0H74ZM291 333Q367 333 406 364T445 474Q445 543 410 578T291 614H123V333H291ZM193 -221Q223
-188 237 -146T251 -57H300Q300 -111 280 -159T223 -247L193 -221Z" />
<glyph unicode="&#x157;" glyph-name="uni0157" horiz-adv-x="323" d="M106 458L114 392Q148 429 186 446Q234 469 278 469Q310 469 330 459L315 414Q304 417 293 419T264 421Q221 421 181 393Q165 382 150 368T119 338V0H70V335L61 458H106ZM10 -221Q40 -188
54 -146T68 -57H117Q117 -111 97 -159T40 -247L10 -221Z" />
<glyph unicode="&#x158;" glyph-name="Rcaron" horiz-adv-x="555" d="M74 0V659H284Q392 659 444 616T497 474Q497 394 456 348Q421 312 366 297L511 0H456L316 288H123V0H74ZM291 333Q367 333 406 364T445 474Q445 543 410 578T291 614H123V333H291ZM224 723L113
881H165L256 754H264L354 881H405L297 723H224Z" />
<glyph unicode="&#x159;" glyph-name="rcaron" horiz-adv-x="323" d="M106 458L114 392Q148 429 186 446Q234 469 278 469Q310 469 330 459L315 414Q304 417 293 419T264 421Q221 421 181 393Q165 382 150 368T119 338V0H70V335L61 458H106ZM140 523L29 681H81L172
554H180L270 681H321L213 523H140Z" />
<glyph unicode="&#x15a;" glyph-name="Sacute" horiz-adv-x="505" d="M346 264Q325 275 297 286T239 310T180 334T129 359Q91 381 68 414T44 506Q44 550 63 581T113 631T185 660T270 669Q328 669 370 660T448 634L430 591Q405 602 364 613T270 625Q192 625 144
595T96 508Q96 476 108 449T162 400Q182 389 208 378T263 356T321 334T374 309Q413 287 438 254T464 160Q464 116 446 84T397 30T325 -1T237 -11Q182 -11 130 0T41 29L61 73Q104 54 144 44T234 34Q322 34 367 66T413 154Q413 185 400 214T346 264ZM403 881L279
723H226L346 881H403Z" />
<glyph unicode="&#x15b;" glyph-name="sacute" horiz-adv-x="407" d="M141 282Q169 266 210 253T294 221Q328 205 350 181T372 114Q372 48 324 19T182 -11Q165 -11 145 -9T105 -3T67 6T36 18L53 61Q75 49 111 40T185 31Q209 31 233 33T277 44T309 69T322 112Q322
161 269 184Q231 201 188 215T110 246Q80 260 62 283T44 344Q44 382 61 406T105 445T163 464T222 469Q271 469 306 461T361 445L343 404Q318 415 288 421T220 427Q184 427 160 421T121 404T100 379T94 351Q94 326 104 311T141 282ZM343 681L219 523H166L286 681H343Z"
/>
<glyph unicode="&#x15c;" glyph-name="Scircumflex" horiz-adv-x="505" d="M346 264Q325 275 297 286T239 310T180 334T129 359Q91 381 68 414T44 506Q44 550 63 581T113 631T185 660T270 669Q328 669 370 660T448 634L430 591Q405 602 364 613T270 625Q192 625
144 595T96 508Q96 476 108 449T162 400Q182 389 208 378T263 356T321 334T374 309Q413 287 438 254T464 160Q464 116 446 84T397 30T325 -1T237 -11Q182 -11 130 0T41 29L61 73Q104 54 144 44T234 34Q322 34 367 66T413 154Q413 185 400 214T346 264ZM295 881L407
723H355L264 851H255L165 723H115L223 881H295Z" />
<glyph unicode="&#x15d;" glyph-name="scircumflex" horiz-adv-x="407" d="M141 282Q169 266 210 253T294 221Q328 205 350 181T372 114Q372 48 324 19T182 -11Q165 -11 145 -9T105 -3T67 6T36 18L53 61Q75 49 111 40T185 31Q209 31 233 33T277 44T309 69T322
112Q322 161 269 184Q231 201 188 215T110 246Q80 260 62 283T44 344Q44 382 61 406T105 445T163 464T222 469Q271 469 306 461T361 445L343 404Q318 415 288 421T220 427Q184 427 160 421T121 404T100 379T94 351Q94 326 104 311T141 282ZM251 681L363 523H311L220
651H211L121 523H71L179 681H251Z" />
<glyph unicode="&#x15e;" glyph-name="Scedilla" horiz-adv-x="505" d="M346 264Q325 275 297 286T239 310T180 334T129 359Q91 381 68 414T44 506Q44 550 63 581T113 631T185 660T270 669Q328 669 370 660T448 634L430 591Q405 602 364 613T270 625Q192 625 144
595T96 508Q96 476 108 449T162 400Q182 389 208 378T263 356T321 334T374 309Q413 287 438 254T464 160Q464 116 446 84T397 30T325 -1T237 -11Q182 -11 130 0T41 29L61 73Q104 54 144 44T234 34Q322 34 367 66T413 154Q413 185 400 214T346 264ZM159 -167Q175
-173 195 -177T234 -182Q273 -182 289 -172T305 -139Q305 -113 280 -102T187 -89L203 -49Q285 -49 319 -71T353 -139Q353 -181 326 -202T236 -224Q208 -224 185 -219T145 -205L159 -167Z" />
<glyph unicode="&#x15f;" glyph-name="scedilla" horiz-adv-x="407" d="M141 282Q169 266 210 253T294 221Q328 205 350 181T372 114Q372 48 324 19T182 -11Q165 -11 145 -9T105 -3T67 6T36 18L53 61Q75 49 111 40T185 31Q209 31 233 33T277 44T309 69T322 112Q322
161 269 184Q231 201 188 215T110 246Q80 260 62 283T44 344Q44 382 61 406T105 445T163 464T222 469Q271 469 306 461T361 445L343 404Q318 415 288 421T220 427Q184 427 160 421T121 404T100 379T94 351Q94 326 104 311T141 282ZM114 -167Q130 -173 150 -177T189
-182Q228 -182 244 -172T260 -139Q260 -113 235 -102T142 -89L158 -49Q240 -49 274 -71T308 -139Q308 -181 281 -202T191 -224Q163 -224 140 -219T100 -205L114 -167Z" />
<glyph unicode="&#x160;" glyph-name="Scaron" horiz-adv-x="505" d="M346 264Q325 275 297 286T239 310T180 334T129 359Q91 381 68 414T44 506Q44 550 63 581T113 631T185 660T270 669Q328 669 370 660T448 634L430 591Q405 602 364 613T270 625Q192 625 144
595T96 508Q96 476 108 449T162 400Q182 389 208 378T263 356T321 334T374 309Q413 287 438 254T464 160Q464 116 446 84T397 30T325 -1T237 -11Q182 -11 130 0T41 29L61 73Q104 54 144 44T234 34Q322 34 367 66T413 154Q413 185 400 214T346 264ZM223 723L112
881H164L255 754H263L353 881H404L296 723H223Z" />
<glyph unicode="&#x161;" glyph-name="scaron" horiz-adv-x="407" d="M141 282Q169 266 210 253T294 221Q328 205 350 181T372 114Q372 48 324 19T182 -11Q165 -11 145 -9T105 -3T67 6T36 18L53 61Q75 49 111 40T185 31Q209 31 233 33T277 44T309 69T322 112Q322
161 269 184Q231 201 188 215T110 246Q80 260 62 283T44 344Q44 382 61 406T105 445T163 464T222 469Q271 469 306 461T361 445L343 404Q318 415 288 421T220 427Q184 427 160 421T121 404T100 379T94 351Q94 326 104 311T141 282ZM167 523L56 681H108L199 554H207L297
681H348L240 523H167Z" />
<glyph unicode="&#x162;" glyph-name="uni0162" horiz-adv-x="474" d="M477 659V614H262V0H212V614H-2V659H477ZM147 -167Q163 -173 183 -177T222 -182Q261 -182 277 -172T293 -139Q293 -113 268 -102T175 -89L191 -49Q273 -49 307 -71T341 -139Q341 -181 314
-202T224 -224Q196 -224 173 -219T133 -205L147 -167Z" />
<glyph unicode="&#x163;" glyph-name="uni0163" horiz-adv-x="344" d="M139 415V171Q139 135 141 109T154 66T185 41T240 32Q279 32 317 43L328 6Q303 -2 276 -6T226 -11Q182 -11 156 1T115 35T95 84T90 145V414H12V451L90 459V559L139 567V458H320V415H139ZM104
-167Q120 -173 140 -177T179 -182Q218 -182 234 -172T250 -139Q250 -113 225 -102T132 -89L148 -49Q230 -49 264 -71T298 -139Q298 -181 271 -202T181 -224Q153 -224 130 -219T90 -205L104 -167Z" />
<glyph unicode="&#x164;" glyph-name="Tcaron" horiz-adv-x="507" d="M493 659V614H278V0H228V614H14V659H493ZM219 723L108 881H160L251 754H259L349 881H400L292 723H219Z" />
<glyph unicode="&#x165;" glyph-name="tcaron" horiz-adv-x="344" d="M247 519H206L243 687H297L247 519ZM139 415V171Q139 135 141 109T154 66T185 41T240 32Q279 32 317 43L328 6Q303 -2 276 -6T226 -11Q182 -11 156 1T115 35T95 84T90 145V414H12V451L90 459V559L139
567V458H320V415H139Z" />
<glyph unicode="&#x166;" glyph-name="Tbar" horiz-adv-x="474" d="M477 659V614H262V362H442V317H262V0H212V317H32V362H212V614H-2V659H477Z" />
<glyph unicode="&#x167;" glyph-name="tbar" horiz-adv-x="344" d="M139 415V269H316V225H139V171Q139 135 141 109T154 66T185 41T240 32Q279 32 317 43L328 6Q303 -2 276 -6T226 -11Q182 -11 156 1T115 35T95 84T90 145V225H14V269H90V414H12V451L90 459V559L139
567V458H320V415H139Z" />
<glyph unicode="&#x168;" glyph-name="Utilde" horiz-adv-x="608" d="M539 659V237Q539 105 480 47T296 -11Q175 -11 122 49T68 244V659H118V227Q118 182 127 146T157 85T211 47T295 34Q350 34 387 45T447 81T480 146T490 245V659H539ZM154 812Q169 824 192 834T238
845Q257 845 272 840T301 829T328 817T357 812Q378 812 394 818T427 834L445 800Q427 786 405 778T357 769Q338 769 323 774T293 785T266 796T238 801Q220 801 204 794T173 778L154 812Z" />
<glyph unicode="&#x169;" glyph-name="utilde" horiz-adv-x="492" d="M424 121L431 0H385L380 42Q349 22 313 9Q261 -11 213 -11Q166 -11 137 0T92 34T69 91T63 171V458H112V181Q112 146 115 119T130 72T163 43T221 32Q258 32 295 46T364 81L375 88V458H424V121ZM101
612Q116 624 139 634T185 645Q204 645 219 640T248 629T275 617T304 612Q325 612 341 618T374 634L392 600Q374 586 352 578T304 569Q285 569 270 574T240 585T213 596T185 601Q167 601 151 594T120 578L101 612Z" />
<glyph unicode="&#x16a;" glyph-name="Umacron" horiz-adv-x="608" d="M539 659V237Q539 105 480 47T296 -11Q175 -11 122 49T68 244V659H118V227Q118 182 127 146T157 85T211 47T295 34Q350 34 387 45T447 81T480 146T490 245V659H539ZM432 786H174V829H432V786Z" />
<glyph unicode="&#x16b;" glyph-name="umacron" horiz-adv-x="492" d="M424 121L431 0H385L380 42Q349 22 313 9Q261 -11 213 -11Q166 -11 137 0T92 34T69 91T63 171V458H112V181Q112 146 115 119T130 72T163 43T221 32Q258 32 295 46T364 81L375 88V458H424V121ZM374
586H116V629H374V586Z" />
<glyph unicode="&#x16c;" glyph-name="Ubreve" horiz-adv-x="608" d="M539 659V237Q539 105 480 47T296 -11Q175 -11 122 49T68 244V659H118V227Q118 182 127 146T157 85T211 47T295 34Q350 34 387 45T447 81T480 146T490 245V659H539ZM441 881Q441 809 407 766T303
723Q234 723 199 764T164 881H207Q210 829 231 796T303 762Q353 762 374 795T398 881H441Z" />
<glyph unicode="&#x16d;" glyph-name="ubreve" horiz-adv-x="492" d="M424 121L431 0H385L380 42Q349 22 313 9Q261 -11 213 -11Q166 -11 137 0T92 34T69 91T63 171V458H112V181Q112 146 115 119T130 72T163 43T221 32Q258 32 295 46T364 81L375 88V458H424V121ZM376
681Q376 609 342 566T238 523Q169 523 134 564T99 681H142Q145 629 166 596T238 562Q288 562 309 595T333 681H376Z" />
<glyph unicode="&#x16e;" glyph-name="Uring" horiz-adv-x="608" d="M539 659V237Q539 105 480 47T296 -11Q175 -11 122 49T68 244V659H118V227Q118 182 127 146T157 85T211 47T295 34Q350 34 387 45T447 81T480 146T490 245V659H539ZM300 716Q254 716 235 740T216
802Q216 887 309 887Q357 887 375 863T394 801Q394 716 300 716ZM302 754Q330 754 340 766T351 803Q351 822 344 836T308 850Q280 850 269 838T257 800Q257 780 265 767T302 754Z" />
<glyph unicode="&#x16f;" glyph-name="uring" horiz-adv-x="492" d="M424 121L431 0H385L380 42Q349 22 313 9Q261 -11 213 -11Q166 -11 137 0T92 34T69 91T63 171V458H112V181Q112 146 115 119T130 72T163 43T221 32Q258 32 295 46T364 81L375 88V458H424V121ZM239
537Q193 537 174 561T155 623Q155 708 248 708Q296 708 314 684T333 622Q333 537 239 537ZM241 575Q269 575 279 587T290 624Q290 643 283 657T247 671Q219 671 208 659T196 621Q196 601 204 588T241 575Z" />
<glyph unicode="&#x170;" glyph-name="Uhungarumlaut" horiz-adv-x="608" d="M539 659V237Q539 105 480 47T296 -11Q175 -11 122 49T68 244V659H118V227Q118 182 127 146T157 85T211 47T295 34Q350 34 387 45T447 81T480 146T490 245V659H539ZM345 881L222 723H169L289
881H345ZM530 881L407 723H354L474 881H530Z" />
<glyph unicode="&#x171;" glyph-name="uhungarumlaut" horiz-adv-x="492" d="M424 121L431 0H385L380 42Q349 22 313 9Q261 -11 213 -11Q166 -11 137 0T92 34T69 91T63 171V458H112V181Q112 146 115 119T130 72T163 43T221 32Q258 32 295 46T364 81L375 88V458H424V121ZM302
681L179 523H126L246 681H302ZM487 681L364 523H311L431 681H487Z" />
<glyph unicode="&#x172;" glyph-name="Uogonek" horiz-adv-x="608" d="M539 659V237Q539 152 515 99T441 19Q418 5 392 -9T344 -40Q310 -68 299 -88T287 -131Q287 -178 341 -178Q359 -178 372 -175T399 -169L408 -209Q395 -213 378 -216T339 -220Q282 -220 260
-197T237 -133Q237 -106 250 -80T304 -22L320 -10Q314 -11 308 -11T296 -11Q175 -11 122 49T68 244V659H118V227Q118 182 127 146T157 85T211 47T295 34Q350 34 387 45T447 81T480 146T490 245V659H539Z" />
<glyph unicode="&#x173;" glyph-name="uogonek" horiz-adv-x="492" d="M437 -209Q424 -213 407 -216T368 -220Q311 -220 289 -197T266 -133Q266 -106 279 -80T333 -22Q344 -13 356 -5T383 11L380 42Q349 22 313 9Q261 -11 213 -11Q166 -11 137 0T92 34T69 91T63
171V458H112V181Q112 146 115 119T130 72T163 43T221 32Q258 32 295 46T364 81L375 88V458H424V121L431 0Q413 -11 399 -21T373 -40Q339 -68 328 -88T316 -131Q316 -178 370 -178Q387 -178 401 -175T428 -169L437 -209Z" />
<glyph unicode="&#x174;" glyph-name="Wcircumflex" horiz-adv-x="920" d="M906 659L719 0H635L466 615H457L295 0H210L14 659H70L247 43H256L416 659H505L674 43H682L851 659H906ZM498 881L610 723H558L467 851H458L368 723H318L426 881H498Z" />
<glyph unicode="&#x175;" glyph-name="wcircumflex" horiz-adv-x="686" d="M381 458L492 43H500L622 458H672L535 0H457L346 415H336L225 0H147L14 458H64L182 43H191L301 458H381ZM376 681L488 523H436L345 651H336L246 523H196L304 681H376Z" />
<glyph unicode="&#x176;" glyph-name="Ycircumflex" horiz-adv-x="519" d="M285 289V0H235V288L-2 659H62L256 346H264L461 659H521L285 289ZM296 881L408 723H356L265 851H256L166 723H116L224 881H296Z" />
<glyph unicode="&#x177;" glyph-name="ycircumflex" horiz-adv-x="419" d="M10 458H63L213 67H222L361 458H412L238 -25Q223 -67 209 -103T175 -166T124 -208T45 -223Q24 -223 13 -219L19 -177Q26 -178 33 -179T50 -180Q88 -180 110 -166T144 -132Q151 -122 158
-107T171 -75T184 -41T194 -10L10 458ZM254 681L366 523H314L223 651H214L124 523H74L182 681H254Z" />
<glyph unicode="&#x178;" glyph-name="Ydieresis" horiz-adv-x="519" d="M285 289V0H235V288L-2 659H62L256 346H264L461 659H521L285 289ZM202 772H153V840H202V772ZM366 772H316V840H366V772Z" />
<glyph unicode="&#x179;" glyph-name="Zacute" horiz-adv-x="518" d="M482 622L82 44H481V0H19V37L420 614H44V659H482V622ZM425 881L301 723H248L368 881H425Z" />
<glyph unicode="&#x17a;" glyph-name="zacute" horiz-adv-x="435" d="M403 420L94 43H405V0H30V38L340 415H41V458H403V420ZM371 681L247 523H194L314 681H371Z" />
<glyph unicode="&#x17b;" glyph-name="Zdotaccent" horiz-adv-x="518" d="M482 622L82 44H481V0H19V37L420 614H44V659H482V622ZM284 772H234V840H284V772Z" />
<glyph unicode="&#x17c;" glyph-name="zdotaccent" horiz-adv-x="435" d="M403 420L94 43H405V0H30V38L340 415H41V458H403V420ZM248 572H198V640H248V572Z" />
<glyph unicode="&#x17d;" glyph-name="Zcaron" horiz-adv-x="518" d="M482 622L82 44H481V0H19V37L420 614H44V659H482V622ZM244 723L133 881H185L276 754H284L374 881H425L317 723H244Z" />
<glyph unicode="&#x17e;" glyph-name="zcaron" horiz-adv-x="435" d="M403 420L94 43H405V0H30V38L340 415H41V458H403V420ZM182 523L71 681H123L214 554H222L312 681H363L255 523H182Z" />
<glyph unicode="&#x192;" glyph-name="florin" horiz-adv-x="336" d="M130 -47Q130 -141 97 -180T-11 -220Q-31 -220 -52 -217T-89 -208L-76 -165Q-49 -175 -6 -175Q39 -175 60 -145T81 -35V310H14V353H81V517Q81 568 92 601T123 654T171 682T233 690Q256 690
279 685T322 675L309 634Q289 639 270 642T229 646Q171 646 151 612T130 505V353H305V310H130V-47Z" />
<glyph unicode="&#x1a0;" glyph-name="Ohorn" horiz-adv-x="615" d="M319 670Q455 670 517 580Q520 575 523 570T528 560Q575 604 575 671H622Q622 591 546 530L541 533Q573 452 573 326Q573 -11 294 -11Q156 -11 95 80Q41 162 41 333Q41 670 319 670ZM481 543Q433
625 320 625Q193 625 141 549Q92 479 92 322Q92 184 132 116Q180 34 292 34Q420 34 473 111Q520 182 520 339Q520 475 481 543Z" />
<glyph unicode="&#x1a1;" glyph-name="ohorn" horiz-adv-x="494" d="M82 53Q41 112 41 231Q41 469 258 469Q365 469 411 405Q416 398 419 390T427 374Q459 415 459 469H506Q506 394 440 336Q452 291 452 227Q452 -11 235 -11Q128 -11 82 53ZM366 83Q402 131 402
235Q402 426 258 426Q166 426 127 374Q91 326 91 223Q91 33 235 33Q327 33 366 83Z" />
<glyph unicode="&#x1af;" glyph-name="Uhorn" horiz-adv-x="608" d="M540 659V571Q575 614 575 671H622Q622 591 547 530L540 535V237Q540 106 479 48Q420 -11 296 -11Q175 -11 121 49Q68 110 68 244V659H118V228Q118 34 295 34Q404 34 448 81Q490 129 490 245V659H540Z" />
<glyph unicode="&#x1b0;" glyph-name="uhorn" horiz-adv-x="492" d="M424 121L430 0H384L380 42Q297 -11 214 -11Q125 -11 91 35Q63 73 63 171V459H112V181Q112 103 131 72Q155 33 221 33Q301 33 375 89V459H424V377Q453 417 453 469H501Q501 389 426 328L424 329V121Z" />
<glyph unicode="&#x1fa;" glyph-name="Aringacute" horiz-adv-x="593" d="M529 0L452 204H139L65 0H9L246 647Q215 665 215 707Q215 776 294 776Q334 776 352 758T371 707Q371 663 339 646L584 0H529ZM288 614L155 248H434L297 614H288ZM412 936L320 819H273L357
936H412ZM294 676Q324 676 324 707Q324 737 294 737Q262 737 262 707Q262 676 294 676Z" />
<glyph unicode="&#x1fb;" glyph-name="aringacute" horiz-adv-x="454" d="M432 -3Q429 -4 415 -4Q383 -4 369 10T348 50Q323 28 282 9T178 -11Q103 -11 71 27T39 128Q39 168 53 194T92 235T152 256T227 262H258Q279 262 298 261T341 257V281Q341 323 337 350T319
395T281 419T219 426Q199 426 178 423T138 414T103 403T75 391L60 430Q94 445 137 457T233 469Q278 469 308 459T356 427T382 370T390 283V105Q390 66 399 52T432 38V-3ZM218 219Q146 219 118 197T90 130Q90 78 114 55T196 32Q238 32 276 51T341 92V212Q311 216
282 217T218 219ZM335 790L243 673H196L280 790H335ZM232 498Q191 498 172 517T153 569Q153 638 232 638Q272 638 290 620T309 569Q309 535 290 517T232 498ZM232 538Q262 538 262 569Q262 599 232 599Q200 599 200 569Q200 538 232 538Z" />
<glyph unicode="&#x1fc;" glyph-name="AEacute" horiz-adv-x="875" d="M823 44V0H461L451 204H170L47 0H-13L392 659H817V614H482L495 362H802V317H497L511 44H823ZM421 614L197 248H448L430 614H421ZM559 881L435 723H382L502 881H559Z" />
<glyph unicode="&#x1fd;" glyph-name="aeacute" horiz-adv-x="763" d="M715 31Q704 25 686 18T645 4T597 -6T547 -11Q481 -11 441 8T377 65Q349 38 299 14T180 -11Q105 -11 73 27T41 128Q41 167 55 192T94 232T154 253T230 259H343V281Q343 323 339 350T321 395T284
419T221 426Q201 426 180 422T140 413T105 401T77 391L62 430Q96 445 139 457T235 469Q297 469 330 452T378 389Q426 469 545 469Q598 469 632 452T686 406T713 335T721 246V216H394Q395 161 406 126T437 69T486 40T554 32Q599 32 638 45T698 68L715 31ZM198 32Q240
32 282 53T359 104Q351 128 348 155T343 216H220Q148 216 120 194T92 132Q92 78 116 55T198 32ZM546 426Q468 426 435 385T395 259H671Q671 308 662 340T636 391T596 418T546 426ZM376 681L252 523H199L319 681H376Z" />
<glyph unicode="&#x1fe;" glyph-name="Oslashacute" horiz-adv-x="614" d="M41 333Q41 506 108 587T320 669Q390 669 439 646Q468 633 492 609L538 669L573 646L520 575Q547 532 560 471Q573 409 573 326Q573 153 506 71T294 -11Q224 -11 173 12Q142 28 120 49L75
-11L41 15L93 83Q65 125 53 187Q41 251 41 333ZM521 339Q521 398 512 451Q508 474 502 494T486 532L152 90Q169 69 193 55Q232 34 291 34Q357 34 401 53T472 110T510 206T521 339ZM420 602Q380 625 321 625Q256 625 212 606T142 548T104 453T93 322Q93 259 102
207Q109 163 126 128L461 569Q445 588 420 602ZM467 881L343 723H290L410 881H467Z" />
<glyph unicode="&#x1ff;" glyph-name="oslashacute" horiz-adv-x="494" d="M235 -11Q149 -11 104 28L71 -11L41 15L78 58Q57 90 49 132T41 231Q41 352 93 410T258 469Q342 469 388 429L421 469L453 445L414 399Q435 367 444 325T453 226Q453 105 400 47T235 -11ZM235
32Q283 32 315 45T366 83T394 147T402 235Q402 270 397 301T379 357L136 66Q153 50 176 41T235 32ZM258 426Q210 426 178 413T127 374T100 310T92 223Q92 187 96 157T113 101L356 391Q339 407 315 416T258 426ZM389 681L265 523H212L332 681H389Z" />
<glyph unicode="&#x218;" glyph-name="uni0218" horiz-adv-x="505" d="M346 264Q325 275 297 286T239 310T180 334T129 359Q91 381 68 414T44 506Q44 550 63 581T113 631T185 660T270 669Q328 669 370 660T448 634L430 591Q405 602 364 613T270 625Q192 625 144
595T96 508Q96 476 108 449T162 400Q182 389 208 378T263 356T321 334T374 309Q413 287 438 254T464 160Q464 116 446 84T397 30T325 -1T237 -11Q182 -11 130 0T41 29L61 73Q104 54 144 44T234 34Q322 34 367 66T413 154Q413 185 400 214T346 264ZM184 -221Q214
-188 228 -146T242 -57H291Q291 -111 271 -159T214 -247L184 -221Z" />
<glyph unicode="&#x219;" glyph-name="uni0219" horiz-adv-x="407" d="M141 282Q169 266 210 253T294 221Q328 205 350 181T372 114Q372 48 324 19T182 -11Q165 -11 145 -9T105 -3T67 6T36 18L53 61Q75 49 111 40T185 31Q209 31 233 33T277 44T309 69T322 112Q322
161 269 184Q231 201 188 215T110 246Q80 260 62 283T44 344Q44 382 61 406T105 445T163 464T222 469Q271 469 306 461T361 445L343 404Q318 415 288 421T220 427Q184 427 160 421T121 404T100 379T94 351Q94 326 104 311T141 282ZM139 -221Q169 -188 183 -146T197
-57H246Q246 -111 226 -159T169 -247L139 -221Z" />
<glyph unicode="&#x21a;" glyph-name="uni021A" horiz-adv-x="474" d="M477 659V614H262V0H212V614H-2V659H477ZM155 -218Q185 -185 199 -143T213 -54H262Q262 -108 242 -156T185 -244L155 -218Z" />
<glyph unicode="&#x21b;" glyph-name="uni021B" horiz-adv-x="344" d="M139 415V171Q139 135 141 109T154 66T185 41T240 32Q279 32 317 43L328 6Q303 -2 276 -6T226 -11Q182 -11 156 1T115 35T95 84T90 145V414H12V451L90 459V559L139 567V458H320V415H139ZM118
-221Q148 -188 162 -146T176 -57H225Q225 -111 205 -159T148 -247L118 -221Z" />
<glyph unicode="&#x2c6;" glyph-name="circumflex" horiz-adv-x="516" d="M292 681L404 523H352L261 651H252L162 523H112L220 681H292Z" />
<glyph unicode="&#x2c7;" glyph-name="caron" horiz-adv-x="516" d="M223 523L112 681H164L255 554H263L353 681H404L296 523H223Z" />
<glyph unicode="&#x2d8;" glyph-name="breve" horiz-adv-x="516" d="M396 681Q396 609 362 566T258 523Q189 523 154 564T119 681H162Q165 629 186 596T258 562Q308 562 329 595T353 681H396Z" />
<glyph unicode="&#x2d9;" glyph-name="dotaccent" horiz-adv-x="516" d="M283 572H233V640H283V572Z" />
<glyph unicode="&#x2da;" glyph-name="ring" horiz-adv-x="516" d="M253 537Q207 537 188 561T169 623Q169 708 262 708Q310 708 328 684T347 622Q347 537 253 537ZM255 575Q283 575 293 587T304 624Q304 643 297 657T261 671Q233 671 222 659T210 621Q210 601
218 588T255 575Z" />
<glyph unicode="&#x2db;" glyph-name="ogonek" horiz-adv-x="440" d="M297 -209Q284 -213 267 -216T228 -220Q171 -220 149 -197T126 -133Q126 -106 139 -80T193 -22Q226 3 272 27L291 0Q273 -11 259 -21T233 -40Q199 -68 188 -88T176 -131Q176 -178 230 -178Q247
-178 261 -175T288 -169L297 -209Z" />
<glyph unicode="&#x2dc;" glyph-name="tilde" horiz-adv-x="516" d="M112 612Q127 624 150 634T196 645Q215 645 230 640T259 629T286 617T315 612Q336 612 352 618T385 634L403 600Q385 586 363 578T315 569Q296 569 281 574T251 585T224 596T196 601Q178 601
162 594T131 578L112 612Z" />
<glyph unicode="&#x2dd;" glyph-name="hungarumlaut" horiz-adv-x="516" d="M239 681L116 523H63L183 681H239ZM424 681L301 523H248L368 681H424Z" />
<glyph unicode="&#x3a9;" glyph-name="Omega" horiz-adv-x="640" d="M62 47H178Q152 65 128 92T85 155T54 236T42 336Q42 501 110 585T320 669Q462 669 530 585T598 336Q598 282 587 237T556 155T512 92T462 47H578V0H376V58Q398 58 427 76T483 131T528 219T546
336Q546 397 535 450T497 542T427 603T320 625Q256 625 213 603T144 542T106 450T94 336Q94 271 112 220T156 132T212 77T264 58V0H62V47Z" />
<glyph unicode="&#x3c0;" glyph-name="pi" horiz-adv-x="630" d="M440 394V92Q440 45 482 45H538V0H471Q446 0 430 8T404 29T391 59T387 97V394H221V0H170V394H50V439H580V394H440Z" />
<glyph unicode="&#x1e80;" glyph-name="Wgrave" horiz-adv-x="920" d="M906 659L719 0H635L466 615H457L295 0H210L14 659H70L247 43H256L416 659H505L674 43H682L851 659H906ZM405 881L525 723H472L349 881H405Z" />
<glyph unicode="&#x1e81;" glyph-name="wgrave" horiz-adv-x="686" d="M381 458L492 43H500L622 458H672L535 0H457L346 415H336L225 0H147L14 458H64L182 43H191L301 458H381ZM276 681L396 523H343L220 681H276Z" />
<glyph unicode="&#x1e82;" glyph-name="Wacute" horiz-adv-x="920" d="M906 659L719 0H635L466 615H457L295 0H210L14 659H70L247 43H256L416 659H505L674 43H682L851 659H906ZM573 881L449 723H396L516 881H573Z" />
<glyph unicode="&#x1e83;" glyph-name="wacute" horiz-adv-x="686" d="M381 458L492 43H500L622 458H672L535 0H457L346 415H336L225 0H147L14 458H64L182 43H191L301 458H381ZM463 681L339 523H286L406 681H463Z" />
<glyph unicode="&#x1e84;" glyph-name="Wdieresis" horiz-adv-x="920" d="M906 659L719 0H635L466 615H457L295 0H210L14 659H70L247 43H256L416 659H505L674 43H682L851 659H906ZM405 772H356V840H405V772ZM569 772H519V840H569V772Z" />
<glyph unicode="&#x1e85;" glyph-name="wdieresis" horiz-adv-x="686" d="M381 458L492 43H500L622 458H672L535 0H457L346 415H336L225 0H147L14 458H64L182 43H191L301 458H381ZM290 572H241V640H290V572ZM454 572H404V640H454V572Z" />
<glyph unicode="&#x1ea0;" glyph-name="uni1EA0" horiz-adv-x="593" d="M529 0L452 204H139L65 0H9L251 659H334L584 0H529ZM155 248H435L297 615H288L155 248ZM320 -108H270V-51H320V-108Z" />
<glyph unicode="&#x1ea1;" glyph-name="uni1EA1" horiz-adv-x="454" d="M431 -3Q427 -4 415 -4Q360 -4 348 50Q280 -11 178 -11Q39 -11 39 128Q39 262 227 262Q254 262 282 261T340 258V281Q340 366 319 396Q293 426 219 426Q157 426 75 391L60 430Q145 469 233
469Q322 469 357 428Q390 386 390 278V105Q390 38 431 38V-3ZM340 214Q290 216 260 217T218 219Q90 219 90 132Q90 79 113 56Q139 33 196 33Q261 33 340 92V214ZM238 -108H189V-51H238V-108Z" />
<glyph unicode="&#x1ea2;" glyph-name="uni1EA2" horiz-adv-x="593" d="M529 0L452 204H139L65 0H9L251 659H334L584 0H529ZM155 248H435L297 615H288L155 248ZM276 710Q276 747 306 788Q331 822 331 836Q331 850 322 861Q314 870 299 870Q277 870 248 848L232
883Q266 908 299 908Q332 908 350 888Q370 868 370 836Q370 809 339 769Q314 735 314 710V701H276V710Z" />
<glyph unicode="&#x1ea3;" glyph-name="uni1EA3" horiz-adv-x="454" d="M431 -3Q427 -4 415 -4Q360 -4 348 50Q280 -11 178 -11Q39 -11 39 128Q39 262 227 262Q254 262 282 261T340 258V281Q340 366 319 396Q293 426 219 426Q157 426 75 391L60 430Q145 469 233
469Q322 469 357 428Q390 386 390 278V105Q390 38 431 38V-3ZM340 214Q290 216 260 217T218 219Q90 219 90 132Q90 79 113 56Q139 33 196 33Q261 33 340 92V214ZM205 533Q205 570 234 611Q259 645 259 659Q259 673 250 684Q243 694 228 694Q206 694 177 671L160
707Q194 732 228 732Q259 732 279 711Q298 692 298 659Q298 633 269 592Q243 557 243 533V525H205V533Z" />
<glyph unicode="&#x1ea4;" glyph-name="uni1EA4" horiz-adv-x="593" d="M529 0L452 204H139L65 0H9L251 659H334L584 0H529ZM155 248H435L297 615H288L155 248ZM512 925L406 790H362L464 925H512ZM321 829L402 708H357L297 786H292L238 708H188L268 829H321Z" />
<glyph unicode="&#x1ea5;" glyph-name="uni1EA5" horiz-adv-x="454" d="M431 -3Q427 -4 415 -4Q360 -4 348 50Q280 -11 178 -11Q39 -11 39 128Q39 262 227 262Q254 262 282 261T340 258V281Q340 366 319 396Q293 426 219 426Q157 426 75 391L60 430Q145 469 233
469Q322 469 357 428Q390 386 390 278V105Q390 38 431 38V-3ZM340 214Q290 216 260 217T218 219Q90 219 90 132Q90 79 113 56Q139 33 196 33Q261 33 340 92V214ZM457 727L353 593H308L410 727H457ZM257 628L338 506H293L233 584H227L175 506H124L203 628H257Z"
/>
<glyph unicode="&#x1ea6;" glyph-name="uni1EA6" horiz-adv-x="593" d="M529 0L452 204H139L65 0H9L251 659H334L584 0H529ZM155 248H435L297 615H288L155 248ZM325 940L428 805H383L278 940H325ZM321 829L402 708H357L297 786H292L238 708H188L268 829H321Z" />
<glyph unicode="&#x1ea7;" glyph-name="uni1EA7" horiz-adv-x="454" d="M431 -3Q427 -4 415 -4Q360 -4 348 50Q280 -11 178 -11Q39 -11 39 128Q39 262 227 262Q254 262 282 261T340 258V281Q340 366 319 396Q293 426 219 426Q157 426 75 391L60 430Q145 469 233
469Q322 469 357 428Q390 386 390 278V105Q390 38 431 38V-3ZM340 214Q290 216 260 217T218 219Q90 219 90 132Q90 79 113 56Q139 33 196 33Q261 33 340 92V214ZM273 726L375 593H331L225 726H273ZM257 628L338 506H293L233 584H227L175 506H124L203 628H257Z"
/>
<glyph unicode="&#x1ea8;" glyph-name="uni1EA8" horiz-adv-x="593" d="M529 0L452 204H139L65 0H9L251 659H334L584 0H529ZM155 248H435L297 615H288L155 248ZM378 796Q378 835 406 875Q431 907 431 922Q431 939 424 947Q415 956 400 956Q378 956 349 934L333
970Q367 994 400 994Q433 994 452 975Q470 954 470 922Q470 896 441 855Q415 821 415 796V788H378V796ZM321 829L402 708H357L297 786H292L238 708H188L268 829H321Z" />
<glyph unicode="&#x1ea9;" glyph-name="uni1EA9" horiz-adv-x="454" d="M431 -3Q427 -4 415 -4Q360 -4 348 50Q280 -11 178 -11Q39 -11 39 128Q39 262 227 262Q254 262 282 261T340 258V281Q340 366 319 396Q293 426 219 426Q157 426 75 391L60 430Q145 469 233
469Q322 469 357 428Q390 386 390 278V105Q390 38 431 38V-3ZM340 214Q290 216 260 217T218 219Q90 219 90 132Q90 79 113 56Q139 33 196 33Q261 33 340 92V214ZM321 564Q321 601 350 642Q375 676 375 689Q375 705 366 714Q358 723 344 723Q321 723 293 701L276
737Q310 762 344 762Q375 762 395 741Q414 722 414 689Q414 662 384 622Q359 590 359 564V555H321V564ZM257 628L338 506H293L233 584H227L175 506H124L203 628H257Z" />
<glyph unicode="&#x1eaa;" glyph-name="uni1EAA" horiz-adv-x="593" d="M529 0L452 204H139L65 0H9L251 659H334L584 0H529ZM155 248H435L297 615H288L155 248ZM191 893Q226 924 263 924Q288 924 319 908Q350 893 366 893Q392 893 427 914L442 881Q407 852 366
852Q343 852 312 867Q280 882 263 882Q241 882 207 861L191 893ZM321 829L402 708H357L297 786H292L238 708H188L268 829H321Z" />
<glyph unicode="&#x1eab;" glyph-name="uni1EAB" horiz-adv-x="454" d="M431 -3Q427 -4 415 -4Q360 -4 348 50Q280 -11 178 -11Q39 -11 39 128Q39 262 227 262Q254 262 282 261T340 258V281Q340 366 319 396Q293 426 219 426Q157 426 75 391L60 430Q145 469 233
469Q322 469 357 428Q390 386 390 278V105Q390 38 431 38V-3ZM340 214Q290 216 260 217T218 219Q90 219 90 132Q90 79 113 56Q139 33 196 33Q261 33 340 92V214ZM130 680Q165 711 203 711Q225 711 258 696Q290 680 306 680Q332 680 366 700L383 669Q348 638 306
638Q284 638 250 655Q218 670 203 670Q181 670 147 648L130 680ZM257 628L338 506H293L233 584H227L175 506H124L203 628H257Z" />
<glyph unicode="&#x1eac;" glyph-name="uni1EAC" horiz-adv-x="593" d="M529 0L452 204H139L65 0H9L251 659H334L584 0H529ZM155 248H435L297 615H288L155 248ZM320 -108H270V-51H320V-108ZM321 829L402 708H357L297 786H292L238 708H188L268 829H321Z" />
<glyph unicode="&#x1ead;" glyph-name="uni1EAD" horiz-adv-x="454" d="M431 -3Q427 -4 415 -4Q360 -4 348 50Q280 -11 178 -11Q39 -11 39 128Q39 262 227 262Q254 262 282 261T340 258V281Q340 366 319 396Q293 426 219 426Q157 426 75 391L60 430Q145 469 233
469Q322 469 357 428Q390 386 390 278V105Q390 38 431 38V-3ZM340 214Q290 216 260 217T218 219Q90 219 90 132Q90 79 113 56Q139 33 196 33Q261 33 340 92V214ZM238 -108H189V-51H238V-108ZM257 628L338 506H293L233 584H227L175 506H124L203 628H257Z" />
<glyph unicode="&#x1eae;" glyph-name="uni1EAE" horiz-adv-x="593" d="M529 0L452 204H139L65 0H9L251 659H334L584 0H529ZM155 248H435L297 615H288L155 248ZM416 925L311 790H267L367 925H416ZM385 800Q382 756 363 728Q339 695 296 695Q214 695 207 800H236Q252
735 296 733Q339 733 357 800H385Z" />
<glyph unicode="&#x1eaf;" glyph-name="uni1EAF" horiz-adv-x="454" d="M431 -3Q427 -4 415 -4Q360 -4 348 50Q280 -11 178 -11Q39 -11 39 128Q39 262 227 262Q254 262 282 261T340 258V281Q340 366 319 396Q293 426 219 426Q157 426 75 391L60 430Q145 469 233
469Q322 469 357 428Q390 386 390 278V105Q390 38 431 38V-3ZM340 214Q290 216 260 217T218 219Q90 219 90 132Q90 79 113 56Q139 33 196 33Q261 33 340 92V214ZM346 732L242 598H197L298 732H346ZM326 612Q320 581 306 556Q277 508 225 508Q142 508 124 612H160Q176
551 225 551Q274 551 292 612H326Z" />
<glyph unicode="&#x1eb0;" glyph-name="uni1EB0" horiz-adv-x="593" d="M529 0L452 204H139L65 0H9L251 659H334L584 0H529ZM155 248H435L297 615H288L155 248ZM224 940L326 805H282L177 940H224ZM385 800Q382 756 363 728Q339 695 296 695Q214 695 207 800H236Q252
735 296 733Q339 733 357 800H385Z" />
<glyph unicode="&#x1eb1;" glyph-name="uni1EB1" horiz-adv-x="454" d="M431 -3Q427 -4 415 -4Q360 -4 348 50Q280 -11 178 -11Q39 -11 39 128Q39 262 227 262Q254 262 282 261T340 258V281Q340 366 319 396Q293 426 219 426Q157 426 75 391L60 430Q145 469 233
469Q322 469 357 428Q390 386 390 278V105Q390 38 431 38V-3ZM340 214Q290 216 260 217T218 219Q90 219 90 132Q90 79 113 56Q139 33 196 33Q261 33 340 92V214ZM168 747L270 614H224L120 747H168ZM326 612Q320 581 306 556Q277 508 225 508Q142 508 124 612H160Q176
551 225 551Q274 551 292 612H326Z" />
<glyph unicode="&#x1eb2;" glyph-name="uni1EB2" horiz-adv-x="593" d="M529 0L452 204H139L65 0H9L251 659H334L584 0H529ZM155 248H435L297 615H288L155 248ZM282 796Q282 834 311 875Q336 907 336 922Q336 938 327 947Q319 956 305 956Q282 956 254 934L237
970Q271 994 305 994Q337 994 356 975Q375 955 375 922Q375 895 345 855Q320 823 320 796V788H282V796ZM385 800Q384 758 363 728Q339 695 296 695Q214 695 207 800H236Q252 735 296 733Q339 733 357 800H385Z" />
<glyph unicode="&#x1eb3;" glyph-name="uni1EB3" horiz-adv-x="454" d="M431 -3Q427 -4 415 -4Q360 -4 348 50Q280 -11 178 -11Q39 -11 39 128Q39 262 227 262Q254 262 282 261T340 258V281Q340 366 319 396Q293 426 219 426Q157 426 75 391L60 430Q145 469 233
469Q322 469 357 428Q390 386 390 278V105Q390 38 431 38V-3ZM340 214Q290 216 260 217T218 219Q90 219 90 132Q90 79 113 56Q139 33 196 33Q261 33 340 92V214ZM210 604Q210 641 240 682Q264 716 264 730Q264 744 256 754Q247 764 232 764Q211 764 181 743L165
777Q199 802 232 802Q265 802 284 783Q302 762 302 731Q302 704 273 663Q248 631 248 604V596L210 595V604ZM326 612Q320 581 306 556Q277 508 225 508Q142 508 124 612H160Q176 551 225 551Q274 551 292 612H326Z" />
<glyph unicode="&#x1eb4;" glyph-name="uni1EB4" horiz-adv-x="593" d="M529 0L452 204H139L65 0H9L251 659H334L584 0H529ZM155 248H435L297 615H288L155 248ZM195 873Q231 903 269 903Q291 903 323 888Q356 873 372 873Q397 873 431 893L448 862Q413 831 372
831Q348 831 317 847Q286 863 269 863Q246 863 212 841L195 873ZM385 800Q382 756 363 728Q339 695 296 695Q214 695 207 800H236Q252 735 296 733Q339 733 357 800H385Z" />
<glyph unicode="&#x1eb5;" glyph-name="uni1EB5" horiz-adv-x="454" d="M431 -3Q427 -4 415 -4Q360 -4 348 50Q280 -11 178 -11Q39 -11 39 128Q39 262 227 262Q254 262 282 261T340 258V281Q340 366 319 396Q293 426 219 426Q157 426 75 391L60 430Q145 469 233
469Q322 469 357 428Q390 386 390 278V105Q390 38 431 38V-3ZM340 214Q290 216 260 217T218 219Q90 219 90 132Q90 79 113 56Q139 33 196 33Q261 33 340 92V214ZM130 680Q165 711 203 711Q225 711 258 696Q290 680 306 680Q332 680 366 700L383 669Q348 638 306
638Q284 638 250 655Q218 670 203 670Q181 670 147 648L130 680ZM326 612Q320 581 306 556Q277 508 225 508Q142 508 124 612H160Q176 551 225 551Q274 551 292 612H326Z" />
<glyph unicode="&#x1eb6;" glyph-name="uni1EB6" horiz-adv-x="593" d="M529 0L452 204H139L65 0H9L251 659H334L584 0H529ZM155 248H435L297 615H288L155 248ZM320 -108H270V-51H320V-108ZM385 800Q382 756 363 728Q339 695 296 695Q214 695 207 800H236Q252
735 296 733Q339 733 357 800H385Z" />
<glyph unicode="&#x1eb7;" glyph-name="uni1EB7" horiz-adv-x="454" d="M431 -3Q427 -4 415 -4Q360 -4 348 50Q280 -11 178 -11Q39 -11 39 128Q39 262 227 262Q254 262 282 261T340 258V281Q340 366 319 396Q293 426 219 426Q157 426 75 391L60 430Q145 469 233
469Q322 469 357 428Q390 386 390 278V105Q390 38 431 38V-3ZM340 214Q290 216 260 217T218 219Q90 219 90 132Q90 79 113 56Q139 33 196 33Q261 33 340 92V214ZM238 -108H189V-51H238V-108ZM326 612Q320 581 306 556Q277 508 225 508Q142 508 124 612H160Q176
551 225 551Q274 551 292 612H326Z" />
<glyph unicode="&#x1eb8;" glyph-name="uni1EB8" horiz-adv-x="513" d="M461 44V0H74V659H450V615H124V362H439V318H124V44H461ZM289 -108H240V-51H289V-108Z" />
<glyph unicode="&#x1eb9;" glyph-name="uni1EB9" horiz-adv-x="461" d="M86 48Q41 103 41 232Q41 469 243 469Q343 469 385 405Q420 352 420 246V216H91Q92 114 134 69Q170 33 250 33Q320 33 396 68L412 31Q347 -11 245 -11Q133 -11 86 48ZM132 385Q98 347 92
259H367Q367 426 244 426Q167 426 132 385ZM254 -108H204V-51H254V-108Z" />
<glyph unicode="&#x1eba;" glyph-name="uni1EBA" horiz-adv-x="513" d="M461 44V0H74V659H450V615H124V362H439V318H124V44H461ZM251 710Q251 747 281 788Q306 822 306 836Q306 850 297 861Q288 870 273 870Q252 870 223 848L206 883Q240 908 273 908Q305 908
325 888Q344 869 344 836Q344 809 314 769Q289 735 289 710V701H251V710Z" />
<glyph unicode="&#x1ebb;" glyph-name="uni1EBB" horiz-adv-x="461" d="M86 48Q41 103 41 232Q41 469 243 469Q343 469 385 405Q420 352 420 246V216H91Q92 114 134 69Q170 33 250 33Q320 33 396 68L412 31Q347 -11 245 -11Q133 -11 86 48ZM132 385Q98 347 92
259H367Q367 426 244 426Q167 426 132 385ZM216 533Q216 570 245 611Q270 645 270 659Q270 673 261 684Q254 694 237 694Q218 694 186 671L170 707Q204 732 237 732Q269 732 289 711Q308 692 308 659Q308 633 279 592Q253 557 253 533V525H216V533Z" />
<glyph unicode="&#x1ebc;" glyph-name="uni1EBC" horiz-adv-x="513" d="M461 44V0H74V659H450V615H124V362H439V318H124V44H461ZM156 766Q191 797 229 797Q251 797 284 782Q315 766 332 766Q358 766 391 787L408 756Q374 725 332 725Q309 725 276 740Q244 757
229 757Q206 757 172 735L156 766Z" />
<glyph unicode="&#x1ebd;" glyph-name="uni1EBD" horiz-adv-x="461" d="M86 48Q41 103 41 232Q41 469 243 469Q343 469 385 405Q420 352 420 246V216H91Q92 114 134 69Q170 33 250 33Q320 33 396 68L412 31Q347 -11 245 -11Q133 -11 86 48ZM132 385Q98 347 92
259H367Q367 426 244 426Q167 426 132 385ZM125 565Q159 595 198 595Q221 595 253 580Q284 565 300 565Q326 565 361 585L377 553Q342 522 300 522Q278 522 246 539Q214 554 198 554Q175 554 141 532L125 565Z" />
<glyph unicode="&#x1ebe;" glyph-name="uni1EBE" horiz-adv-x="513" d="M461 44V0H74V659H450V615H124V362H439V318H124V44H461ZM481 929L376 796H332L434 929H481ZM293 829L374 708H328L270 786H263L210 708H159L240 829H293Z" />
<glyph unicode="&#x1ebf;" glyph-name="uni1EBF" horiz-adv-x="461" d="M86 48Q41 103 41 232Q41 469 243 469Q343 469 385 405Q420 352 420 246V216H91Q92 114 134 69Q170 33 250 33Q320 33 396 68L412 31Q347 -11 245 -11Q133 -11 86 48ZM132 385Q98 347 92
259H367Q367 426 244 426Q167 426 132 385ZM463 732L359 598H313L415 732H463ZM267 628L348 506H302L244 584H237L184 506H134L214 628H267Z" />
<glyph unicode="&#x1ec0;" glyph-name="uni1EC0" horiz-adv-x="513" d="M461 44V0H74V659H450V615H124V362H439V318H124V44H461ZM305 934L406 800H362L257 934H305ZM293 829L374 708H328L270 786H263L210 708H159L240 829H293Z" />
<glyph unicode="&#x1ec1;" glyph-name="uni1EC1" horiz-adv-x="461" d="M86 48Q41 103 41 232Q41 469 243 469Q343 469 385 405Q420 352 420 246V216H91Q92 114 134 69Q170 33 250 33Q320 33 396 68L412 31Q347 -11 245 -11Q133 -11 86 48ZM132 385Q98 347 92
259H367Q367 426 244 426Q167 426 132 385ZM275 737L377 604H332L228 737H275ZM267 628L348 506H302L244 584H237L184 506H134L214 628H267Z" />
<glyph unicode="&#x1ec2;" glyph-name="uni1EC2" horiz-adv-x="513" d="M461 44V0H74V659H450V615H124V362H439V318H124V44H461ZM352 786Q352 823 382 864Q406 898 406 912Q406 926 398 937Q389 946 375 946Q352 946 324 924L308 959Q340 984 375 984Q406 984
426 964Q446 944 446 912Q446 884 415 844Q390 812 390 786V777H352V786ZM293 829L374 708H328L270 786H263L210 708H159L240 829H293Z" />
<glyph unicode="&#x1ec3;" glyph-name="uni1EC3" horiz-adv-x="461" d="M86 48Q41 103 41 232Q41 469 243 469Q343 469 385 405Q420 352 420 246V216H91Q92 114 134 69Q170 33 250 33Q320 33 396 68L412 31Q347 -11 245 -11Q133 -11 86 48ZM132 385Q98 347 92
259H367Q367 426 244 426Q167 426 132 385ZM326 589Q326 626 356 667Q380 701 380 714Q380 729 372 739Q363 749 348 749Q328 749 297 726L281 762Q315 787 348 787Q380 787 400 767Q418 747 418 715Q418 689 389 648Q363 613 363 589V581L326 580V589ZM267 628L348
506H302L244 584H237L184 506H134L214 628H267Z" />
<glyph unicode="&#x1ec4;" glyph-name="uni1EC4" horiz-adv-x="513" d="M461 44V0H74V659H450V615H124V362H439V318H124V44H461ZM166 888Q202 918 238 918Q262 918 294 903Q325 888 341 888Q367 888 402 908L417 877Q382 847 341 847Q318 847 287 862Q256 878
238 878Q216 878 182 856L166 888ZM293 829L374 708H328L270 786H263L210 708H159L240 829H293Z" />
<glyph unicode="&#x1ec5;" glyph-name="uni1EC5" horiz-adv-x="461" d="M86 48Q41 103 41 232Q41 469 243 469Q343 469 385 405Q420 352 420 246V216H91Q92 114 134 69Q170 33 250 33Q320 33 396 68L412 31Q347 -11 245 -11Q133 -11 86 48ZM132 385Q98 347 92
259H367Q367 426 244 426Q167 426 132 385ZM150 685Q185 717 223 717Q246 717 278 700Q309 685 325 685Q352 685 385 706L402 674Q366 644 325 644Q302 644 271 659Q239 675 223 675Q200 675 166 654L150 685ZM267 628L348 506H302L244 584H237L184 506H134L214
628H267Z" />
<glyph unicode="&#x1ec6;" glyph-name="uni1EC6" horiz-adv-x="513" d="M461 44V0H74V659H450V615H124V362H439V318H124V44H461ZM289 -108H240V-51H289V-108ZM293 829L374 708H328L270 786H263L210 708H159L240 829H293Z" />
<glyph unicode="&#x1ec7;" glyph-name="uni1EC7" horiz-adv-x="461" d="M86 48Q41 103 41 232Q41 469 243 469Q343 469 385 405Q420 352 420 246V216H91Q92 114 134 69Q170 33 250 33Q320 33 396 68L412 31Q347 -11 245 -11Q133 -11 86 48ZM132 385Q98 347 92
259H367Q367 426 244 426Q167 426 132 385ZM254 -108H204V-51H254V-108ZM267 628L348 506H302L244 584H237L184 506H134L214 628H267Z" />
<glyph unicode="&#x1ec8;" glyph-name="uni1EC8" horiz-adv-x="197" d="M74 659H124V0H74V659ZM85 710Q85 747 114 788Q139 822 139 836Q139 850 130 861Q121 870 107 870Q85 870 56 848L40 883Q74 908 107 908Q138 908 158 888Q178 868 178 836Q178 809 147 769Q122
735 122 710V701H85V710Z" />
<glyph unicode="&#x1ec9;" glyph-name="uni1EC9" horiz-adv-x="185" d="M67 459H116V0H67V459ZM64 533Q64 570 93 611Q118 645 118 659Q118 673 109 684Q102 694 87 694Q65 694 36 671L20 707Q52 732 87 732Q118 732 138 711Q157 692 157 659Q157 632 127 592Q102
558 102 533V525H64V533Z" />
<glyph unicode="&#x1eca;" glyph-name="uni1ECA" horiz-adv-x="197" d="M74 659H124V0H74V659ZM122 -108H73V-51H122V-108Z" />
<glyph unicode="&#x1ecb;" glyph-name="uni1ECB" horiz-adv-x="185" d="M67 641H116V572H67V641ZM70 459H119V0H70V459ZM119 -108H69V-51H119V-108Z" />
<glyph unicode="&#x1ecc;" glyph-name="uni1ECC" horiz-adv-x="615" d="M319 670Q455 670 517 580Q573 495 573 326Q573 -11 294 -11Q156 -11 95 80Q41 162 41 333Q41 670 319 670ZM481 543Q433 625 320 625Q193 625 141 549Q92 479 92 322Q92 184 132 116Q180
34 292 34Q420 34 473 111Q520 182 520 339Q520 475 481 543ZM332 -108H282V-51H332V-108Z" />
<glyph unicode="&#x1ecd;" glyph-name="uni1ECD" horiz-adv-x="494" d="M82 53Q41 112 41 231Q41 469 258 469Q365 469 411 405Q452 346 452 227Q452 -11 235 -11Q128 -11 82 53ZM366 83Q402 131 402 235Q402 426 258 426Q166 426 127 374Q91 326 91 223Q91 33
235 33Q327 33 366 83ZM271 -108H222V-51H271V-108Z" />
<glyph unicode="&#x1ece;" glyph-name="uni1ECE" horiz-adv-x="615" d="M319 670Q455 670 517 580Q573 495 573 326Q573 -11 294 -11Q156 -11 95 80Q41 162 41 333Q41 670 319 670ZM481 543Q433 625 320 625Q193 625 141 549Q92 479 92 322Q92 184 132 116Q180
34 292 34Q420 34 473 111Q520 182 520 339Q520 475 481 543ZM286 710Q286 747 315 788Q340 822 340 836Q340 850 332 861Q323 870 309 870Q286 870 258 848L242 883Q274 908 309 908Q340 908 360 888Q379 869 379 836Q379 809 349 769Q324 735 324 710V701H286V710Z"
/>
<glyph unicode="&#x1ecf;" glyph-name="uni1ECF" horiz-adv-x="494" d="M82 53Q41 112 41 231Q41 469 258 469Q365 469 411 405Q452 346 452 227Q452 -11 235 -11Q128 -11 82 53ZM366 83Q402 131 402 235Q402 426 258 426Q166 426 127 374Q91 326 91 223Q91 33
235 33Q327 33 366 83ZM231 533Q231 570 260 611Q285 645 285 659Q285 673 276 684Q269 694 253 694Q232 694 203 671L185 707Q219 732 253 732Q285 732 305 711Q323 691 323 659Q323 633 294 592Q269 558 269 533V525H231V533Z" />
<glyph unicode="&#x1ed0;" glyph-name="uni1ED0" horiz-adv-x="615" d="M319 670Q455 670 517 580Q573 495 573 326Q573 -11 294 -11Q156 -11 95 80Q41 162 41 333Q41 670 319 670ZM481 543Q433 625 320 625Q193 625 141 549Q92 479 92 322Q92 184 132 116Q180
34 292 34Q420 34 473 111Q520 182 520 339Q520 475 481 543ZM521 929L417 796H372L474 929H521ZM333 829L414 708H369L309 786H302L250 708H199L279 829H333Z" />
<glyph unicode="&#x1ed1;" glyph-name="uni1ED1" horiz-adv-x="494" d="M82 53Q41 112 41 231Q41 469 258 469Q365 469 411 405Q452 346 452 227Q452 -11 235 -11Q128 -11 82 53ZM366 83Q402 131 402 235Q402 426 258 426Q166 426 127 374Q91 326 91 223Q91 33
235 33Q327 33 366 83ZM463 732L359 598H313L415 732H463ZM272 628L354 506H309L249 584H243L190 506H140L219 628H272Z" />
<glyph unicode="&#x1ed2;" glyph-name="uni1ED2" horiz-adv-x="615" d="M319 670Q455 670 517 580Q573 495 573 326Q573 -11 294 -11Q156 -11 95 80Q41 162 41 333Q41 670 319 670ZM481 543Q433 625 320 625Q193 625 141 549Q92 479 92 322Q92 184 132 116Q180
34 292 34Q420 34 473 111Q520 182 520 339Q520 475 481 543ZM340 934L442 801H398L294 934H340ZM333 829L414 708H369L309 786H302L250 708H199L279 829H333Z" />
<glyph unicode="&#x1ed3;" glyph-name="uni1ED3" horiz-adv-x="494" d="M82 53Q41 112 41 231Q41 469 258 469Q365 469 411 405Q452 346 452 227Q452 -11 235 -11Q128 -11 82 53ZM366 83Q402 131 402 235Q402 426 258 426Q166 426 127 374Q91 326 91 223Q91 33
235 33Q327 33 366 83ZM264 733L366 598H321L217 733H264ZM272 628L354 506H309L249 584H243L190 506H140L219 628H272Z" />
<glyph unicode="&#x1ed4;" glyph-name="uni1ED4" horiz-adv-x="615" d="M319 670Q455 670 517 580Q573 495 573 326Q573 -11 294 -11Q156 -11 95 80Q41 162 41 333Q41 670 319 670ZM481 543Q433 625 320 625Q193 625 141 549Q92 479 92 322Q92 184 132 116Q180
34 292 34Q420 34 473 111Q520 182 520 339Q520 475 481 543ZM398 780Q398 818 427 859Q452 893 452 906Q452 920 443 931Q436 941 420 941Q400 941 369 918L352 954Q386 979 420 979Q452 979 472 958Q490 938 490 906Q490 880 461 839Q435 804 435 780V772H398V780ZM333
829L414 708H369L309 786H302L250 708H199L279 829H333Z" />
<glyph unicode="&#x1ed5;" glyph-name="uni1ED5" horiz-adv-x="494" d="M82 53Q41 112 41 231Q41 469 258 469Q365 469 411 405Q452 346 452 227Q452 -11 235 -11Q128 -11 82 53ZM366 83Q402 131 402 235Q402 426 258 426Q166 426 127 374Q91 326 91 223Q91 33
235 33Q327 33 366 83ZM321 593Q321 631 350 672Q375 706 375 720Q375 734 366 745Q358 753 344 753Q321 753 293 732L276 767Q310 791 344 791Q376 791 395 772Q414 752 414 720Q414 693 384 653Q359 619 359 593V585H321V593ZM272 628L354 506H309L249 584H243L190
506H140L219 628H272Z" />
<glyph unicode="&#x1ed6;" glyph-name="uni1ED6" horiz-adv-x="615" d="M319 670Q455 670 517 580Q573 495 573 326Q573 -11 294 -11Q156 -11 95 80Q41 162 41 333Q41 670 319 670ZM481 543Q433 625 320 625Q193 625 141 549Q92 479 92 322Q92 184 132 116Q180
34 292 34Q420 34 473 111Q520 182 520 339Q520 475 481 543ZM202 888Q236 918 274 918Q297 918 330 903Q361 888 377 888Q402 888 437 908L453 877Q417 847 377 847Q353 847 322 862Q291 878 274 878Q250 878 218 856L202 888ZM333 829L414 708H369L309 786H302L250
708H199L279 829H333Z" />
<glyph unicode="&#x1ed7;" glyph-name="uni1ED7" horiz-adv-x="494" d="M82 53Q41 112 41 231Q41 469 258 469Q365 469 411 405Q452 346 452 227Q452 -11 235 -11Q128 -11 82 53ZM366 83Q402 131 402 235Q402 426 258 426Q166 426 127 374Q91 326 91 223Q91 33
235 33Q327 33 366 83ZM150 680Q184 711 223 711Q246 711 278 696Q309 680 325 680Q351 680 385 700L402 669Q367 638 325 638Q303 638 271 655Q238 670 223 670Q200 670 166 648L150 680ZM272 628L354 506H309L249 584H243L190 506H140L219 628H272Z" />
<glyph unicode="&#x1ed8;" glyph-name="uni1ED8" horiz-adv-x="615" d="M319 670Q455 670 517 580Q573 495 573 326Q573 -11 294 -11Q156 -11 95 80Q41 162 41 333Q41 670 319 670ZM481 543Q433 625 320 625Q193 625 141 549Q92 479 92 322Q92 184 132 116Q180
34 292 34Q420 34 473 111Q520 182 520 339Q520 475 481 543ZM332 -108H282V-51H332V-108ZM333 829L414 708H369L309 786H302L250 708H199L279 829H333Z" />
<glyph unicode="&#x1ed9;" glyph-name="uni1ED9" horiz-adv-x="494" d="M82 53Q41 112 41 231Q41 469 258 469Q365 469 411 405Q452 346 452 227Q452 -11 235 -11Q128 -11 82 53ZM366 83Q402 131 402 235Q402 426 258 426Q166 426 127 374Q91 326 91 223Q91 33
235 33Q327 33 366 83ZM271 -108H222V-51H271V-108ZM272 628L354 506H309L249 584H243L190 506H140L219 628H272Z" />
<glyph unicode="&#x1eda;" glyph-name="uni1EDA" horiz-adv-x="615" d="M319 670Q455 670 517 580Q520 575 523 570T528 560Q575 604 575 671H622Q622 591 546 530L541 533Q573 452 573 326Q573 -11 294 -11Q156 -11 95 80Q41 162 41 333Q41 670 319 670ZM481
543Q433 625 320 625Q193 625 141 549Q92 479 92 322Q92 184 132 116Q180 34 292 34Q420 34 473 111Q520 182 520 339Q520 475 481 543ZM389 838L285 705H241L341 838H389Z" />
<glyph unicode="&#x1edb;" glyph-name="uni1EDB" horiz-adv-x="494" d="M82 53Q41 112 41 231Q41 469 258 469Q365 469 411 405Q416 398 419 390T427 374Q459 415 459 469H506Q506 394 440 336Q452 291 452 227Q452 -11 235 -11Q128 -11 82 53ZM366 83Q402 131
402 235Q402 426 258 426Q166 426 127 374Q91 326 91 223Q91 33 235 33Q327 33 366 83ZM357 672L251 538H207L309 672H357Z" />
<glyph unicode="&#x1edc;" glyph-name="uni1EDC" horiz-adv-x="615" d="M319 670Q455 670 517 580Q520 575 523 570T528 560Q575 604 575 671H622Q622 591 546 530L541 533Q573 452 573 326Q573 -11 294 -11Q156 -11 95 80Q41 162 41 333Q41 670 319 670ZM481
543Q433 625 320 625Q193 625 141 549Q92 479 92 322Q92 184 132 116Q180 34 292 34Q420 34 473 111Q520 182 520 339Q520 475 481 543ZM275 838L377 705H332L228 838H275Z" />
<glyph unicode="&#x1edd;" glyph-name="uni1EDD" horiz-adv-x="494" d="M82 53Q41 112 41 231Q41 469 258 469Q365 469 411 405Q416 398 419 390T427 374Q459 415 459 469H506Q506 394 440 336Q452 291 452 227Q452 -11 235 -11Q128 -11 82 53ZM366 83Q402 131
402 235Q402 426 258 426Q166 426 127 374Q91 326 91 223Q91 33 235 33Q327 33 366 83ZM183 672L285 538H241L135 672H183Z" />
<glyph unicode="&#x1ede;" glyph-name="uni1EDE" horiz-adv-x="615" d="M319 670Q455 670 517 580Q520 575 523 570T528 560Q575 604 575 671H622Q622 591 546 530L541 533Q573 452 573 326Q573 -11 294 -11Q156 -11 95 80Q41 162 41 333Q41 670 319 670ZM481
543Q433 625 320 625Q193 625 141 549Q92 479 92 322Q92 184 132 116Q180 34 292 34Q420 34 473 111Q520 182 520 339Q520 475 481 543ZM286 710Q286 747 315 788Q340 822 340 836Q340 850 332 861Q323 870 309 870Q286 870 258 848L242 883Q274 908 309 908Q340
908 360 888Q379 869 379 836Q379 809 349 769Q324 735 324 710V701H286V710Z" />
<glyph unicode="&#x1edf;" glyph-name="uni1EDF" horiz-adv-x="494" d="M82 53Q41 112 41 231Q41 469 258 469Q365 469 411 405Q416 398 419 390T427 374Q459 415 459 469H506Q506 394 440 336Q452 291 452 227Q452 -11 235 -11Q128 -11 82 53ZM366 83Q402 131
402 235Q402 426 258 426Q166 426 127 374Q91 326 91 223Q91 33 235 33Q327 33 366 83ZM231 533Q231 570 260 611Q285 645 285 659Q285 673 276 684Q269 694 253 694Q232 694 203 671L185 707Q219 732 253 732Q285 732 305 711Q323 691 323 659Q323 633 294 592Q269
558 269 533V525H231V533Z" />
<glyph unicode="&#x1ee0;" glyph-name="uni1EE0" horiz-adv-x="615" d="M319 670Q455 670 517 580Q520 575 523 570T528 560Q575 604 575 671H622Q622 591 546 530L541 533Q573 452 573 326Q573 -11 294 -11Q156 -11 95 80Q41 162 41 333Q41 670 319 670ZM481
543Q433 625 320 625Q193 625 141 549Q92 479 92 322Q92 184 132 116Q180 34 292 34Q420 34 473 111Q520 182 520 339Q520 475 481 543ZM191 766Q226 797 263 797Q286 797 319 782Q350 766 366 766Q391 766 426 787L442 756Q407 725 366 725Q342 725 311 740Q279
757 263 757Q241 757 207 735L191 766Z" />
<glyph unicode="&#x1ee1;" glyph-name="uni1EE1" horiz-adv-x="494" d="M82 53Q41 112 41 231Q41 469 258 469Q365 469 411 405Q416 398 419 390T427 374Q459 415 459 469H506Q506 394 440 336Q452 291 452 227Q452 -11 235 -11Q128 -11 82 53ZM366 83Q402 131
402 235Q402 426 258 426Q166 426 127 374Q91 326 91 223Q91 33 235 33Q327 33 366 83ZM140 565Q176 595 212 595Q235 595 268 580Q299 565 315 565Q340 565 375 585L391 553Q357 522 315 522Q294 522 260 539Q228 554 212 554Q190 554 156 532L140 565Z" />
<glyph unicode="&#x1ee2;" glyph-name="uni1EE2" horiz-adv-x="615" d="M319 670Q455 670 517 580Q520 575 523 570T528 560Q575 604 575 671H622Q622 591 546 530L541 533Q573 452 573 326Q573 -11 294 -11Q156 -11 95 80Q41 162 41 333Q41 670 319 670ZM481
543Q433 625 320 625Q193 625 141 549Q92 479 92 322Q92 184 132 116Q180 34 292 34Q420 34 473 111Q520 182 520 339Q520 475 481 543ZM332 -108H282V-51H332V-108Z" />
<glyph unicode="&#x1ee3;" glyph-name="uni1EE3" horiz-adv-x="494" d="M82 53Q41 112 41 231Q41 469 258 469Q365 469 411 405Q416 398 419 390T427 374Q459 415 459 469H506Q506 394 440 336Q452 291 452 227Q452 -11 235 -11Q128 -11 82 53ZM366 83Q402 131
402 235Q402 426 258 426Q166 426 127 374Q91 326 91 223Q91 33 235 33Q327 33 366 83ZM271 -108H222V-51H271V-108Z" />
<glyph unicode="&#x1ee4;" glyph-name="uni1EE4" horiz-adv-x="608" d="M540 659V237Q540 106 479 48Q420 -11 296 -11Q175 -11 121 49Q68 110 68 244V659H118V228Q118 34 295 34Q404 34 448 81Q490 129 490 245V659H540ZM330 -108H279V-51H330V-108Z" />
<glyph unicode="&#x1ee5;" glyph-name="uni1EE5" horiz-adv-x="492" d="M424 121L430 0H384L380 42Q297 -11 214 -11Q125 -11 91 35Q63 73 63 171V459H112V181Q112 103 131 72Q155 33 221 33Q301 33 375 89V459H424V121ZM262 -108H211V-51H262V-108Z" />
<glyph unicode="&#x1ee6;" glyph-name="uni1EE6" horiz-adv-x="608" d="M540 659V237Q540 106 479 48Q420 -11 296 -11Q175 -11 121 49Q68 110 68 244V659H118V228Q118 34 295 34Q404 34 448 81Q490 129 490 245V659H540ZM282 710Q282 747 311 788Q336 822 336
836Q336 850 327 861Q319 870 304 870Q282 870 253 848L236 883Q270 908 304 908Q336 908 356 888Q374 868 374 836Q374 810 345 769Q319 734 319 710V701H282V710Z" />
<glyph unicode="&#x1ee7;" glyph-name="uni1EE7" horiz-adv-x="492" d="M424 121L430 0H384L380 42Q297 -11 214 -11Q125 -11 91 35Q63 73 63 171V459H112V181Q112 103 131 72Q155 33 221 33Q301 33 375 89V459H424V121ZM236 533Q236 570 266 611Q291 645 291
659Q291 673 282 684Q273 694 258 694Q238 694 207 671L191 707Q225 732 258 732Q290 732 310 711Q328 691 328 659Q328 633 299 592Q273 557 273 533V525H236V533Z" />
<glyph unicode="&#x1ee8;" glyph-name="uni1EE8" horiz-adv-x="608" d="M540 659V571Q575 614 575 671H622Q622 591 547 530L540 535V237Q540 106 479 48Q420 -11 296 -11Q175 -11 121 49Q68 110 68 244V659H118V228Q118 34 295 34Q404 34 448 81Q490 129 490
245V659H540ZM415 838L311 705H267L367 838H415Z" />
<glyph unicode="&#x1ee9;" glyph-name="uni1EE9" horiz-adv-x="492" d="M424 121L430 0H384L380 42Q297 -11 214 -11Q125 -11 91 35Q63 73 63 171V459H112V181Q112 103 131 72Q155 33 221 33Q301 33 375 89V459H424V377Q453 417 453 469H501Q501 389 426 328L424
329V121ZM366 672L262 538H217L319 672H366Z" />
<glyph unicode="&#x1eea;" glyph-name="uni1EEA" horiz-adv-x="608" d="M540 659V571Q575 614 575 671H622Q622 591 547 530L540 535V237Q540 106 479 48Q420 -11 296 -11Q175 -11 121 49Q68 110 68 244V659H118V228Q118 34 295 34Q404 34 448 81Q490 129 490
245V659H540ZM241 838L341 705H297L193 838H241Z" />
<glyph unicode="&#x1eeb;" glyph-name="uni1EEB" horiz-adv-x="492" d="M424 121L430 0H384L380 42Q297 -11 214 -11Q125 -11 91 35Q63 73 63 171V459H112V181Q112 103 131 72Q155 33 221 33Q301 33 375 89V459H424V377Q453 417 453 469H501Q501 389 426 328L424
329V121ZM183 672L285 538H241L135 672H183Z" />
<glyph unicode="&#x1eec;" glyph-name="uni1EEC" horiz-adv-x="608" d="M540 659V571Q575 614 575 671H622Q622 591 547 530L540 535V237Q540 106 479 48Q420 -11 296 -11Q175 -11 121 49Q68 110 68 244V659H118V228Q118 34 295 34Q404 34 448 81Q490 129 490
245V659H540ZM282 710Q282 747 311 788Q336 822 336 836Q336 850 327 861Q319 870 304 870Q282 870 253 848L236 883Q270 908 304 908Q336 908 356 888Q374 868 374 836Q374 810 345 769Q319 734 319 710V701H282V710Z" />
<glyph unicode="&#x1eed;" glyph-name="uni1EED" horiz-adv-x="492" d="M424 121L430 0H384L380 42Q297 -11 214 -11Q125 -11 91 35Q63 73 63 171V459H112V181Q112 103 131 72Q155 33 221 33Q301 33 375 89V459H424V377Q453 417 453 469H501Q501 389 426 328L424
329V121ZM236 533Q236 570 266 611Q291 645 291 659Q291 673 282 684Q273 694 258 694Q238 694 207 671L191 707Q225 732 258 732Q290 732 310 711Q328 691 328 659Q328 633 299 592Q273 557 273 533V525H236V533Z" />
<glyph unicode="&#x1eee;" glyph-name="uni1EEE" horiz-adv-x="608" d="M540 659V571Q575 614 575 671H622Q622 591 547 530L540 535V237Q540 106 479 48Q420 -11 296 -11Q175 -11 121 49Q68 110 68 244V659H118V228Q118 34 295 34Q404 34 448 81Q490 129 490
245V659H540ZM176 766Q211 797 248 797Q272 797 304 782Q335 766 352 766Q377 766 412 787L428 756Q393 725 352 725Q328 725 297 740Q265 757 248 757Q224 757 193 735L176 766Z" />
<glyph unicode="&#x1eef;" glyph-name="uni1EEF" horiz-adv-x="492" d="M424 121L430 0H384L380 42Q297 -11 214 -11Q125 -11 91 35Q63 73 63 171V459H112V181Q112 103 131 72Q155 33 221 33Q301 33 375 89V459H424V377Q453 417 453 469H501Q501 389 426 328L424
329V121ZM140 565Q176 595 212 595Q235 595 268 580Q299 565 315 565Q340 565 375 585L391 553Q357 522 315 522Q294 522 260 539Q228 554 212 554Q190 554 156 532L140 565Z" />
<glyph unicode="&#x1ef0;" glyph-name="uni1EF0" horiz-adv-x="608" d="M540 659V571Q575 614 575 671H622Q622 591 547 530L540 535V237Q540 106 479 48Q420 -11 296 -11Q175 -11 121 49Q68 110 68 244V659H118V228Q118 34 295 34Q404 34 448 81Q490 129 490
245V659H540ZM330 -108H279V-51H330V-108Z" />
<glyph unicode="&#x1ef1;" glyph-name="uni1EF1" horiz-adv-x="492" d="M424 121L430 0H384L380 42Q297 -11 214 -11Q125 -11 91 35Q63 73 63 171V459H112V181Q112 103 131 72Q155 33 221 33Q301 33 375 89V459H424V377Q453 417 453 469H501Q501 389 426 328L424
329V121ZM262 -108H211V-51H262V-108Z" />
<glyph unicode="&#x1ef2;" glyph-name="Ygrave" horiz-adv-x="519" d="M285 289V0H235V288L-2 659H62L256 346H264L461 659H521L285 289ZM180 881L300 723H247L124 881H180Z" />
<glyph unicode="&#x1ef3;" glyph-name="ygrave" horiz-adv-x="419" d="M10 458H63L213 67H222L361 458H412L238 -25Q223 -67 209 -103T175 -166T124 -208T45 -223Q24 -223 13 -219L19 -177Q26 -178 33 -179T50 -180Q88 -180 110 -166T144 -132Q151 -122 158 -107T171
-75T184 -41T194 -10L10 458ZM137 681L257 523H204L81 681H137Z" />
<glyph unicode="&#x1ef4;" glyph-name="uni1EF4" horiz-adv-x="519" d="M285 289V0H235V288L-2 659H62L256 346H264L462 659H521L285 289ZM289 -108H238V-51H289V-108Z" />
<glyph unicode="&#x1ef5;" glyph-name="uni1EF5" horiz-adv-x="420" d="M10 459H63L214 67H222L361 459H412L238 -25Q200 -133 175 -166Q130 -223 46 -223Q28 -223 13 -219L20 -177Q45 -180 50 -180Q112 -180 144 -132Q157 -112 169 -82T194 -10L10 459ZM318 -98H267V-41H318V-98Z"
/>
<glyph unicode="&#x1ef6;" glyph-name="uni1EF6" horiz-adv-x="519" d="M285 289V0H235V288L-2 659H62L256 346H264L462 659H521L285 289ZM246 710Q246 747 275 788Q300 822 300 836Q300 850 292 861Q283 870 269 870Q246 870 218 848L202 883Q234 908 269 908Q300
908 320 888Q338 868 338 836Q338 810 309 769Q284 735 284 710V701H246V710Z" />
<glyph unicode="&#x1ef7;" glyph-name="uni1EF7" horiz-adv-x="420" d="M10 459H63L214 67H222L361 459H412L238 -25Q200 -133 175 -166Q130 -223 46 -223Q28 -223 13 -219L20 -177Q45 -180 50 -180Q112 -180 144 -132Q157 -112 169 -82T194 -10L10 459ZM196 533Q196
570 225 611Q249 645 249 659Q249 674 242 684Q233 694 218 694Q198 694 167 671L151 707Q185 732 218 732Q250 732 270 711Q288 691 288 659Q288 633 259 592Q233 557 233 533V525H196V533Z" />
<glyph unicode="&#x1ef8;" glyph-name="uni1EF8" horiz-adv-x="519" d="M285 289V0H235V288L-2 659H62L256 346H264L462 659H521L285 289ZM135 766Q172 797 209 797Q231 797 263 782Q295 766 312 766Q337 766 372 787L387 756Q353 725 312 725Q288 725 257 740Q225
757 209 757Q185 757 153 735L135 766Z" />
<glyph unicode="&#x1ef9;" glyph-name="uni1EF9" horiz-adv-x="420" d="M10 459H63L214 67H222L361 459H412L238 -25Q200 -133 175 -166Q130 -223 46 -223Q28 -223 13 -219L20 -177Q45 -180 50 -180Q112 -180 144 -132Q157 -112 169 -82T194 -10L10 459ZM100 565Q134
595 172 595Q196 595 228 580Q259 565 275 565Q301 565 336 585L351 553Q317 522 275 522Q253 522 221 539Q189 554 172 554Q150 554 116 532L100 565Z" />
<glyph unicode="&#x2010;" glyph-name="uni2010" horiz-adv-x="564" d="M476 244H86V288H476V244Z" />
<glyph unicode="&#x2013;" glyph-name="endash" horiz-adv-x="536" d="M473 211H63V255H473V211Z" />
<glyph unicode="&#x2014;" glyph-name="emdash" horiz-adv-x="711" d="M648 211H63V255H648V211Z" />
<glyph unicode="&#x2018;" glyph-name="quoteleft" horiz-adv-x="162" d="M161 670Q142 628 129 587T115 488H64Q65 552 81 598T123 690L161 670Z" />
<glyph unicode="&#x2019;" glyph-name="quoteright" horiz-adv-x="162" d="M28 505Q47 547 60 588T74 687H125Q124 623 108 577T66 485L28 505Z" />
<glyph unicode="&#x201a;" glyph-name="quotesinglbase" horiz-adv-x="143" d="M3 -116Q22 -74 35 -33T49 66H100Q99 2 83 -44T41 -136L3 -116Z" />
<glyph unicode="&#x201c;" glyph-name="quotedblleft" horiz-adv-x="328" d="M162 670Q143 628 130 587T116 488H65Q66 552 82 598T124 690L162 670ZM307 670Q288 628 275 587T261 488H210Q211 552 227 598T269 690L307 670Z" />
<glyph unicode="&#x201d;" glyph-name="quotedblright" horiz-adv-x="328" d="M47 505Q66 547 79 588T93 687H144Q143 623 127 577T85 485L47 505ZM193 505Q212 547 225 588T239 687H290Q289 623 273 577T231 485L193 505Z" />
<glyph unicode="&#x201e;" glyph-name="quotedblbase" horiz-adv-x="328" d="M47 -116Q66 -74 79 -33T93 66H144Q143 2 127 -44T85 -136L47 -116ZM193 -116Q212 -74 225 -33T239 66H290Q289 2 273 -44T231 -136L193 -116Z" />
<glyph unicode="&#x2020;" glyph-name="dagger" horiz-adv-x="541" d="M499 373H295V-220H246V373H41V416H246V659H295V416H499V373Z" />
<glyph unicode="&#x2021;" glyph-name="daggerdbl" horiz-adv-x="541" d="M495 23H295V-220H246V23H45V66H246V373H41V416H246V659H295V416H499V373H295V66H495V23Z" />
<glyph unicode="&#x2022;" glyph-name="bullet" horiz-adv-x="273" d="M41 265Q41 285 48 302T69 333T99 353T136 361Q176 361 204 333T232 265Q232 245 225 228T204 198T174 178T136 170Q116 170 99 177T69 198T49 228T41 265Z" />
<glyph unicode="&#x2026;" glyph-name="ellipsis" horiz-adv-x="487" d="M40 66H105V0H40V66ZM211 66H276V0H211V66ZM382 66H447V0H382V66Z" />
<glyph unicode="&#x2030;" glyph-name="perthousand" horiz-adv-x="1011" d="M647 168Q647 234 630 270T572 307Q532 307 514 271T495 168Q495 102 513 67T572 32Q612 32 629 67T647 168ZM572 -6Q507 -6 477 42T447 168Q447 249 476 296T572 344Q635 344 664 297T694
168Q694 90 665 42T572 -6ZM249 496Q249 562 231 598T174 635Q134 635 116 599T97 496Q97 430 115 396T174 361Q213 361 231 395T249 496ZM174 322Q109 322 80 370T50 496Q50 577 79 625T174 673Q237 673 267 625T297 496Q297 418 267 370T174 322ZM162 -28H103L581
695H641L162 -28ZM925 168Q925 234 908 270T850 307Q810 307 792 271T773 168Q773 102 791 67T850 32Q890 32 907 67T925 168ZM850 -6Q785 -6 755 42T725 168Q725 249 754 296T850 344Q913 344 942 297T972 168Q972 90 943 42T850 -6Z" />
<glyph unicode="&#x2039;" glyph-name="guilsinglleft" horiz-adv-x="280" d="M217 399L76 230L216 61L184 32L20 229L185 426L217 399Z" />
<glyph unicode="&#x203a;" glyph-name="guilsinglright" horiz-adv-x="280" d="M63 59L204 228L64 397L96 426L260 229L95 32L63 59Z" />
<glyph unicode="&#x2044;" glyph-name="fraction" horiz-adv-x="571" d="M13 -32L490 691H541L63 -32H13Z" />
<glyph unicode="&#x20a9;" glyph-name="won" horiz-adv-x="931" d="M44 274H180L154 376H44V420H142L81 659H132L192 420H374L424 659H508L561 420H743L801 659H849L792 420H890V376H781L756 274H890V230H745L690 0H607L556 230H380L331 0H250L191 230H44V274ZM594
274H708L732 376H571L594 274ZM229 274H343L364 376H203L229 274ZM389 274H546L523 376H411L389 274ZM461 615L420 420H513L470 615H461ZM645 43H653L698 230H603L645 43ZM287 43H296L334 230H239L287 43Z" />
<glyph unicode="&#x20ab;" glyph-name="dong" horiz-adv-x="556" d="M359 684H309V733H359V776H425V733H479V684H425V234H363V283Q325 224 254 224Q152 224 106 323Q85 369 85 429Q85 559 163 609Q204 635 250 635Q320 635 359 581V684ZM153 429Q153 360 182 320T260
280Q308 280 336 319T364 424Q364 499 336 540T257 581Q208 581 181 541T153 429ZM479 130H85V179H479V130Z" />
<glyph unicode="&#x20ac;" glyph-name="Euro" horiz-adv-x="612" d="M403 -11Q260 -9 194 75Q144 140 132 253H30L47 298H129V364H35L51 408H133Q139 453 149 484Q181 583 250 626T419 669Q468 669 507 658T576 625L560 582Q534 601 502 613T420 625Q291 625 236
546Q200 495 186 408H497L481 364H182Q181 353 181 342T181 320V298H457L441 253H184Q194 166 232 109Q284 34 403 34Q451 34 484 39T547 52V8Q513 0 478 -5T403 -11Z" />
<glyph unicode="&#x2113;" glyph-name="uni2113" horiz-adv-x="375" d="M242 -2Q234 -4 227 -4T213 -4Q174 -4 155 25T135 106V324Q116 319 97 315T59 308L49 347Q72 352 93 358T135 370V551Q135 603 155 634T226 666Q244 666 260 658T290 633T312 590T320 526Q320
488 310 459T281 408T238 369T184 340V107Q184 63 200 51T242 40V-2ZM270 526Q270 574 256 596T226 618Q215 618 207 615T194 602T187 575T184 531V390Q225 410 247 441T270 526Z" />
<glyph unicode="&#x2116;" glyph-name="uni2116" horiz-adv-x="1026" d="M581 659V0H491L142 615H133V0H84V659H175L522 43H531V659H581ZM832 364Q762 364 735 405T707 522Q707 602 742 640T847 678Q917 678 945 636T973 519Q973 445 941 405T832 364ZM832 405Q886
405 906 432T927 525Q927 578 911 608T847 638Q793 638 773 611T753 517Q753 494 756 474T767 438T790 414T832 405ZM717 315H975V273H717V315Z" />
<glyph unicode="&#x2122;" glyph-name="trademark" horiz-adv-x="746" d="M321 659H403L482 440L508 367H518L544 440L620 659H700V317H654V620H646L582 440L543 328H483L441 440L374 620H366V317H321V659ZM110 317V620H0V659H268V620H156V317H110Z" />
<glyph unicode="&#x212e;" glyph-name="estimated" horiz-adv-x="844" d="M734 125Q704 95 671 70T600 26T517 -2T422 -12Q346 -12 281 16T168 91T93 201T65 333Q65 403 93 465T170 575T284 650T422 678Q495 678 559 650T673 575T750 465T779 333V311H207V98Q248
64 302 43T422 21Q507 21 576 52T710 149L734 125ZM422 645Q356 645 303 623T207 564V343H637V564Q595 601 542 623T422 645Z" />
<glyph unicode="&#x2202;" glyph-name="partialdiff" horiz-adv-x="560" d="M493 263Q481 128 422 60T273 -8Q218 -8 176 8T106 52T65 120T53 207Q55 252 70 290T114 356T185 395T281 402Q326 397 368 375T443 325Q446 385 438 434T407 521T344 588T243 637L262
681Q323 659 370 629T448 552T490 434T493 263ZM437 268Q409 297 368 322T283 352Q201 362 157 322T107 206Q102 127 145 84T268 40Q307 40 337 58T388 108T422 180T437 268Z" />
<glyph unicode="&#x2206;" glyph-name="increment" horiz-adv-x="656" d="M35 0L325 672L621 0H35ZM325 568L101 43H552L325 568Z" />
<glyph unicode="&#x220f;" glyph-name="product" horiz-adv-x="730" d="M530 614V0H477V614H251V0H200V614H50V659H680V614H530Z" />
<glyph unicode="&#x2211;" glyph-name="summation" horiz-adv-x="523" d="M459 -10V-60H65L306 341L65 719H459V669H159L366 341L156 -10H459Z" />
<glyph unicode="&#x2212;" glyph-name="minus" horiz-adv-x="563" d="M477 244H86V288H477V244Z" />
<glyph unicode="&#x221a;" glyph-name="radical" horiz-adv-x="569" d="M121 286L255 96L446 672L499 655L273 -20L77 256L121 286Z" />
<glyph unicode="&#x221e;" glyph-name="infinity" horiz-adv-x="772" d="M558 372Q627 372 669 336T712 233Q712 167 670 130T558 93Q531 93 507 102T461 127T421 160T386 196Q370 178 352 160T312 127T266 103T214 93Q145 93 103 130T60 233Q60 299 102 335T214
372Q241 372 265 363T311 338T351 305T386 270Q402 287 420 305T460 338T506 362T558 372ZM556 139Q604 139 632 162T661 233Q661 281 633 303T556 326Q535 326 516 318T479 296T445 266T416 233Q429 217 445 200T478 170T515 148T556 139ZM216 139Q237 139 257
147T295 169T328 200T355 233Q343 249 328 265T295 295T257 317T216 326Q168 326 140 304T111 233Q111 185 139 162T216 139Z" />
<glyph unicode="&#x222b;" glyph-name="integral'" horiz-adv-x="405" d="M232 -55Q232 -146 202 -183T107 -221Q76 -221 42 -209L52 -164Q67 -169 79 -170T104 -172Q127 -172 141 -166T164 -145T176 -108T179 -50V516Q179 603 209 642T293 682Q310 682 325 679T360
667L346 621Q330 627 320 629T296 631Q257 631 245 599T232 510V-55Z" />
<glyph unicode="&#x2248;" glyph-name="approxequal" horiz-adv-x="563" d="M467 407Q456 395 445 384T420 363T390 348T353 342Q335 342 314 349T270 368Q255 376 239 383T209 390Q187 390 166 378T117 339L86 375Q117 403 143 418T210 434Q228 434 245 429T284
413Q305 402 322 395T353 388Q377 388 397 403T434 441L467 407ZM467 264Q456 252 445 241T420 220T390 205T353 199Q335 199 314 206T270 225Q255 233 239 240T209 247Q187 247 166 235T117 196L86 232Q117 260 143 275T210 291Q228 291 245 286T284 270Q305 259
322 252T353 245Q377 245 397 260T434 298L467 264Z" />
<glyph unicode="&#x2260;" glyph-name="notequal" horiz-adv-x="563" d="M477 349H327L289 283H477V238H263L195 120L155 142L210 238H86V283H236L274 349H86V393H299L364 505L404 483L352 393H477V349Z" />
<glyph unicode="&#x2264;" glyph-name="lessequal" horiz-adv-x="537" d="M479 10H58V52H479V10ZM427 106L68 292L435 481L457 443L161 292L449 144L427 106Z" />
<glyph unicode="&#x2265;" glyph-name="greaterequal" horiz-adv-x="537" d="M58 52H479V10H58V52ZM88 144L376 292L80 443L102 481L469 292L110 106L88 144Z" />
<glyph unicode="&#x25ca;" glyph-name="lozenge" horiz-adv-x="644" d="M53 333L322 671L591 333L322 -5L53 333ZM534 333L322 602L110 333L322 64L534 333Z" />
<glyph unicode="&#xf6c1;" glyph-name="uniF6C1" horiz-adv-x="505" d="M346 264Q325 275 297 286T239 310T180 334T129 359Q91 381 68 414T44 506Q44 550 63 581T113 631T185 660T270 669Q328 669 370 660T448 634L430 591Q405 602 364 613T270 625Q192 625 144
595T96 508Q96 476 108 449T162 400Q182 389 208 378T263 356T321 334T374 309Q413 287 438 254T464 160Q464 116 446 84T397 30T325 -1T237 -11Q182 -11 130 0T41 29L61 73Q104 54 144 44T234 34Q322 34 367 66T413 154Q413 185 400 214T346 264ZM159 -167Q175
-173 195 -177T234 -182Q273 -182 289 -172T305 -139Q305 -113 280 -102T187 -89L203 -49Q285 -49 319 -71T353 -139Q353 -181 326 -202T236 -224Q208 -224 185 -219T145 -205L159 -167Z" />
<glyph unicode="&#xf6c2;" glyph-name="uniF6C2" horiz-adv-x="407" d="M141 282Q169 266 210 253T294 221Q328 205 350 181T372 114Q372 48 324 19T182 -11Q165 -11 145 -9T105 -3T67 6T36 18L53 61Q75 49 111 40T185 31Q209 31 233 33T277 44T309 69T322 112Q322
161 269 184Q231 201 188 215T110 246Q80 260 62 283T44 344Q44 382 61 406T105 445T163 464T222 469Q271 469 306 461T361 445L343 404Q318 415 288 421T220 427Q184 427 160 421T121 404T100 379T94 351Q94 326 104 311T141 282ZM114 -167Q130 -173 150 -177T189
-182Q228 -182 244 -172T260 -139Q260 -113 235 -102T142 -89L158 -49Q240 -49 274 -71T308 -139Q308 -181 281 -202T191 -224Q163 -224 140 -219T100 -205L114 -167Z" />
<glyph unicode="&#xf6c3;" glyph-name="commaaccent" horiz-adv-x="356" d="M103 -218Q133 -185 147 -143T161 -54H210Q210 -108 190 -156T133 -244L103 -218Z" />
<glyph unicode="&#xf8ff;" glyph-name="" horiz-adv-x="851" d="M438 333V0H105V666H771V333H438Z" />
<glyph unicode="&#xfb01;" glyph-name="fi" horiz-adv-x="513" d="M92 415H25V458H92V506Q92 557 108 592T151 649T215 680T291 690Q342 690 379 683T445 666V590H395V633Q390 634 385 635T373 638Q341 646 291 646Q216 646 179 609T141 494V458H445V0H396V415H141V0H92V415Z"
/>
<glyph unicode="&#xfb02;" glyph-name="fl" horiz-adv-x="520" d="M92 415H25V458H92V506Q92 557 108 592T151 649T215 680T291 690Q343 690 380 683T445 666V101Q445 60 454 49T487 38V-3Q486 -4 480 -4Q478 -5 465 -5Q426 -5 411 22T396 101V633L373 638Q341
646 291 646Q216 646 179 609T141 494V458H316V415H141V0H92V415Z" />
</font>
</defs>
</svg>
