<?xml version="1.0" standalone="no"?> <!DOCTYPE svg PUBLIC "-//W3C//DTD SVG 1.0//EN" "http://www.w3.org/TR/2001/REC-SVG-20010904/DTD/svg10.dtd" > <svg xmlns="http://www.w3.org/2000/svg" width="100%" height="100%">
<defs >
<font horiz-adv-x="536" ><font-face
    font-family="LG Smart"
    units-per-em="1000"
    panose-1="2 11 7 2 4 4 2 6 2 3"
    ascent="716"
    descent="-284"
    alphabetic="0" />
<missing-glyph horiz-adv-x="545" d="M74 659H471V0H74V659ZM421 614H123V44H421V614ZM248 209V234Q248 271 261 298T291 349T321 393T335 438Q335 465 317 482T264 499Q240 499 221 491T190 473L172 506Q213 538 264 538Q318 538 348 511T378 439Q378 409 365
386T335 340T305 292T291 234V209H248ZM295 120H246V161H295V120Z" />
<glyph unicode=" " glyph-name="space" horiz-adv-x="249" />
<glyph unicode="!" glyph-name="exclam" horiz-adv-x="250" d="M168 173H82L68 659H182L168 173ZM71 103H179V0H71V103Z" />
<glyph unicode="&quot;" glyph-name="quotedbl" horiz-adv-x="419" d="M47 438L33 687H133L119 438H47ZM226 438L212 687H312L298 438H226Z" />
<glyph unicode="#" glyph-name="numbersign" horiz-adv-x="533" d="M469 320H391V212H469V141H391V74H314V141H218V74H141V141H63V212H141V320H63V391H141V458H218V391H314V458H391V391H469V320ZM218 212H314V320H218V212Z" />
<glyph unicode="$" glyph-name="dollar" horiz-adv-x="532" d="M239 754H303V667Q347 666 393 656Q446 647 490 624L453 546Q420 562 379 572Q343 583 303 584V374L346 357Q357 352 368 347T391 337Q413 325 433 312T467 279T490 234T499 172Q499 83 432 37Q381
1 303 -8V-89H239V-10Q192 -8 141 2Q82 14 35 39L74 118Q117 98 161 87Q196 79 239 77V287Q216 295 195 304T154 324Q127 337 107 351T72 385T50 430T43 490Q43 553 81 596T185 655Q208 662 239 665V754ZM362 101Q396 126 396 166Q396 196 380 216T340 248Q332
252 323 256T303 264V80Q339 86 362 101ZM182 560Q148 538 148 497Q148 465 165 445T212 411Q222 405 239 398V581Q203 575 182 560Z" />
<glyph unicode="%" glyph-name="percent" horiz-adv-x="708" d="M221 494Q221 549 208 580T162 611Q130 611 116 580T102 494Q102 439 116 409T162 379Q194 379 207 409T221 494ZM619 166Q619 221 606 252T560 283Q529 283 515 252T500 166Q500 51 560 51Q593
51 606 80T619 166ZM161 -31H67L545 692H640L161 -31ZM560 -10Q490 -10 458 38T425 166Q425 247 457 294T560 342Q629 342 661 295T694 166Q694 87 661 39T560 -10ZM162 318Q91 318 59 366T26 494Q26 575 58 623T162 671Q231 671 263 623T296 494Q296 415 264 367T162
318Z" />
<glyph unicode="&amp;" glyph-name="ampersand" horiz-adv-x="610" d="M603 0H480L424 63Q393 37 357 17Q304 -11 234 -11Q190 -11 153 -3T88 27T45 82T29 167Q29 242 76 294Q107 328 164 357Q145 380 132 404Q104 450 104 502Q104 541 118 571T157 624T217 657T296
669Q335 669 367 661T423 634T460 588T474 521Q474 459 437 418T343 350Q324 340 308 333L427 198Q441 219 451 238Q462 261 472 283T491 328L580 305Q556 249 524 193Q516 176 507 161T486 132L603 0ZM213 289Q179 268 157 239T134 172Q134 120 163 96T240 71Q287
71 325 95Q336 102 346 109T367 127L220 292L213 289ZM279 407Q321 424 346 449T372 512Q372 548 353 568T298 589Q208 589 208 504Q208 460 229 429Q234 421 239 413T252 395Q265 402 279 407Z" />
<glyph unicode="&apos;" glyph-name="quotesingle" horiz-adv-x="237" d="M82 438L68 687H168L154 438H82Z" />
<glyph unicode="(" glyph-name="parenleft" horiz-adv-x="343" d="M49 265Q49 344 62 406T100 523T161 625T245 724L309 671Q268 626 239 583T190 492T161 389T151 265Q151 196 161 140T190 36T240 -57T309 -146L245 -199Q199 -149 163 -101T101 2T63 121T49 265Z" />
<glyph unicode=")" glyph-name="parenright" horiz-adv-x="343" d="M294 265Q294 184 281 121T242 3T181 -99T99 -199L34 -146Q73 -101 102 -58T152 34T183 139T193 265Q193 334 183 389T153 492T104 583T34 671L99 724Q144 673 180 625T242 524T280 407T294 265Z" />
<glyph unicode="*" glyph-name="asterisk" horiz-adv-x="453" d="M298 287L226 412L155 287L67 347L166 455L29 484L60 586L190 526L173 668H279L263 528L393 586L424 484L286 455L386 347L298 287Z" />
<glyph unicode="+" glyph-name="plus" horiz-adv-x="563" d="M325 224V62H237V224H71V307H237V470H325V307H492V224H325Z" />
<glyph unicode="," glyph-name="comma" horiz-adv-x="218" d="M12 -112Q43 -56 53 -6T63 103H158Q158 59 153 24T137 -41T112 -98T77 -153L12 -112Z" />
<glyph unicode="-" glyph-name="hyphen" horiz-adv-x="366" d="M312 191H53V277H312V191Z" />
<glyph unicode="." glyph-name="period" horiz-adv-x="219" d="M162 0H54V103H162V0Z" />
<glyph unicode="/" glyph-name="slash" horiz-adv-x="370" d="M268 687H366L103 -36H4L268 687Z" />
<glyph unicode="0" glyph-name="zero" horiz-adv-x="563" d="M279 -11Q212 -11 166 16T91 89T49 196T36 328Q36 401 49 463T92 571T168 643T283 669Q349 669 395 643T471 571T513 463T526 330Q526 258 513 196T470 87T394 15T279 -11ZM284 588Q243 588 216 569T171
516T147 433T139 328Q139 270 146 223T170 141T214 89T279 70Q318 70 345 88T390 141T414 223T422 330Q422 384 415 431T392 513T350 568T284 588Z" />
<glyph unicode="1" glyph-name="one" horiz-adv-x="563" d="M261 0V558L122 489L90 556L294 659H365V0H261Z" />
<glyph unicode="2" glyph-name="two" horiz-adv-x="563" d="M511 0H60V60L278 284Q308 315 328 341T360 390T378 434T383 478Q383 533 347 560T255 588Q206 588 164 574T84 538L50 610Q101 638 153 653T262 669Q313 669 355 659T428 626T476 568T493 481Q493 448
483 418T454 358T410 299T356 239L203 82H511V0Z" />
<glyph unicode="3" glyph-name="three" horiz-adv-x="563" d="M264 -11Q185 -11 128 12T39 66L93 133Q120 113 162 94T262 75Q327 75 368 103T409 191Q409 246 370 274T258 303Q235 303 220 301T195 297L193 383H231Q259 383 287 388T337 406T374 439T388 489Q388
541 355 563T266 586Q218 586 176 569T106 532L64 601Q78 612 99 624T147 646T206 662T275 669Q378 669 437 629T496 499Q496 473 488 451T465 410T431 379T391 359Q448 340 484 300T521 190Q521 139 502 102T450 39T369 2T264 -11Z" />
<glyph unicode="4" glyph-name="four" horiz-adv-x="563" d="M445 659V221H532V142H445V0H342V142H24V204L286 659H445ZM342 221V576H334L134 221H342Z" />
<glyph unicode="5" glyph-name="five" horiz-adv-x="563" d="M97 334V659H471V578H201V414H232Q298 414 350 403T438 368T493 304T512 210Q512 101 444 45T261 -11Q188 -11 138 12T54 67L112 135Q140 110 176 92T263 74Q332 74 368 106T405 201Q405 237 391 262T353
304T295 327T223 334H97Z" />
<glyph unicode="6" glyph-name="six" horiz-adv-x="563" d="M50 298Q50 385 67 454T120 571T212 644T347 670Q390 670 424 664T487 645L463 568Q441 577 413 582T353 588Q308 588 275 575T220 539T184 483T164 411L160 383Q171 391 184 397T212 408Q257 422 302
422Q408 422 461 371T515 217Q515 166 500 124T456 52T384 6T286 -10Q171 -10 111 62T50 298ZM161 213Q164 182 172 156T196 110T233 80T287 69Q345 69 377 104T410 211Q410 272 377 304T285 337Q239 337 202 322Q189 317 178 311T156 297Q156 275 157 254T161
213Z" />
<glyph unicode="7" glyph-name="seven" horiz-adv-x="563" d="M168 0L403 577H43V659H520V602L277 0H168Z" />
<glyph unicode="8" glyph-name="eight" horiz-adv-x="563" d="M404 342Q428 334 450 320T488 285T514 238T524 178Q524 84 460 37T282 -11Q167 -11 103 36T38 178Q38 209 47 236T73 284T111 320T158 342Q115 361 86 396T56 492Q56 577 114 623T282 669Q390 669
448 623T506 492Q506 432 477 396T404 342ZM411 185Q411 240 377 269T282 298Q218 298 184 269T149 185Q149 128 183 98T282 68Q342 68 376 98T411 185ZM395 484Q395 536 366 563T282 590Q225 590 195 563T164 484Q164 433 194 406T282 378Q336 378 365 405T395
484Z" />
<glyph unicode="9" glyph-name="nine" horiz-adv-x="563" d="M513 361Q513 274 496 205T443 88T351 15T216 -11Q173 -11 139 -5T76 14L100 91Q122 82 150 77T210 71Q255 71 288 84T343 120T379 176T399 248L403 276Q392 268 379 262T351 251Q306 237 261 237Q155
237 102 288T48 442Q48 493 63 535T107 607T178 653T277 669Q392 669 452 597T513 361ZM402 446Q399 477 391 503T367 549T330 579T276 590Q218 590 186 555T153 448Q153 387 186 355T278 322Q323 322 361 337Q374 342 385 348T407 362Q407 384 406 405T402 446Z"
/>
<glyph unicode=":" glyph-name="colon" horiz-adv-x="219" d="M162 354H54V457H162V354ZM162 0H54V103H162V0Z" />
<glyph unicode=";" glyph-name="semicolon" horiz-adv-x="219" d="M12 -112Q43 -56 53 -6T63 103H158Q158 59 153 24T137 -41T112 -98T77 -153L12 -112ZM164 354H56V457H164V354Z" />
<glyph unicode="&lt;" glyph-name="less" horiz-adv-x="563" d="M379 -12L102 265L379 543L443 484L227 269L444 52L379 -12Z" />
<glyph unicode="=" glyph-name="equal" horiz-adv-x="563" d="M493 153H69V235H493V153ZM493 296H69V378H493V296Z" />
<glyph unicode="&gt;" glyph-name="greater" horiz-adv-x="563" d="M164 543L441 266L164 -12L100 47L316 262L99 479L164 543Z" />
<glyph unicode="?" glyph-name="question" horiz-adv-x="429" d="M234 0H126V103H234V0ZM131 173V227Q131 264 142 292T170 344T207 386T243 423T271 459T283 499Q283 537 258 560T180 583Q141 583 106 571T49 544L18 622Q51 641 97 655T198 669Q240 669 276 660T337
632T377 584T392 513Q392 475 380 448T349 398T309 356T269 315T239 269T226 210V173H131Z" />
<glyph unicode="@" glyph-name="at" horiz-adv-x="1003" d="M560 469Q599 469 641 462T714 440L664 191Q662 177 661 165T659 141Q659 113 672 95T717 77Q756 77 785 94T832 143T860 217T869 309Q869 388 849 441T791 527T695 574T564 588Q463 588 384 559T251
474T169 334T141 143Q141 65 160 11T217 -78T309 -127T431 -143Q482 -143 523 -136T614 -116L637 -192Q589 -207 538 -216T429 -225Q243 -225 143 -137T42 143Q42 272 80 370T187 535T354 635T570 669Q664 669 737 649T862 586T940 473T967 307Q967 242 952 186T904
87T824 20T710 -5Q650 -5 612 24Q591 39 580 66L572 57Q546 29 507 9T414 -11Q337 -11 300 37T263 161Q263 317 338 393T560 469ZM558 395Q458 395 413 336T367 174Q367 120 386 93T437 66Q479 66 511 92Q522 102 533 114T556 142L608 390Q595 392 583 393T558
395Z" />
<glyph unicode="A" glyph-name="A" horiz-adv-x="633" d="M510 0L448 182H180L118 0H6L245 659H389L625 0H510ZM310 576L208 266H419L318 576H310Z" />
<glyph unicode="B" glyph-name="B" horiz-adv-x="588" d="M431 351Q483 335 516 296T550 191Q550 140 533 104T485 45T415 11T330 0H71V659H317Q416 659 473 622T531 495Q531 441 505 405T431 351ZM422 480Q422 509 413 527T389 556T354 571T311 575H173V382H315Q367
382 394 407T422 480ZM314 83Q339 83 362 87T402 104T429 137T440 191Q440 223 431 244T405 278T366 296T318 302H173V83H314Z" />
<glyph unicode="C" glyph-name="C" horiz-adv-x="597" d="M337 -11Q182 -10 113 75T44 329Q44 504 122 586T346 669Q376 669 407 664T466 648T519 621T562 582L500 521Q472 552 437 569T349 586Q246 586 199 519T152 320Q152 200 197 139T342 78Q402 78 449 90T534
119L559 38Q519 17 460 3T337 -11Z" />
<glyph unicode="D" glyph-name="D" horiz-adv-x="647" d="M271 659Q350 659 411 641T515 584T580 481T602 327Q602 234 575 171T501 70T388 16T245 0H71V659H271ZM242 83Q301 83 347 95T426 136T476 214T493 338Q493 461 436 518T270 575H175V83H242Z" />
<glyph unicode="E" glyph-name="E" horiz-adv-x="542" d="M490 83V0H71V659H479V575H175V380H469V298H175V83H490Z" />
<glyph unicode="F" glyph-name="F" horiz-adv-x="505" d="M175 0H71V659H465V575H175V380H444V298H175V0Z" />
<glyph unicode="G" glyph-name="G" horiz-adv-x="653" d="M586 34Q541 13 481 1T351 -11Q192 -11 118 76T44 329Q44 416 65 480T128 586T227 648T360 669Q432 669 490 648T587 578L523 521Q495 551 457 569T362 588Q253 588 202 520T151 320Q151 197 201 135T356
73Q401 73 437 79Q450 81 461 83T484 89V266H333V348H586V34Z" />
<glyph unicode="H" glyph-name="H" horiz-adv-x="662" d="M590 659V0H486V288H175V0H71V659H175V373H486V659H590Z" />
<glyph unicode="I" glyph-name="I" horiz-adv-x="248" d="M71 659H175V0H71V659Z" />
<glyph unicode="J" glyph-name="J" horiz-adv-x="353" d="M179 659H283V195Q283 88 239 42T96 -5Q74 -5 49 -2T1 10L15 88Q34 82 54 80T89 78Q132 78 155 100T179 183V659Z" />
<glyph unicode="K" glyph-name="K" horiz-adv-x="580" d="M175 0H71V659H175V370H229L463 659H582L315 336L571 0H445L229 289H175V0Z" />
<glyph unicode="L" glyph-name="L" horiz-adv-x="468" d="M465 83V0H71V659H175V83H465Z" />
<glyph unicode="M" glyph-name="M" horiz-adv-x="823" d="M752 659V0H648V576H639L484 0H343L184 576H175V0H71V659H259L413 82H421L570 659H752Z" />
<glyph unicode="N" glyph-name="N" horiz-adv-x="701" d="M628 659V0H447L184 576H175V0H71V659H253L516 82H524V659H628Z" />
<glyph unicode="O" glyph-name="O" horiz-adv-x="665" d="M44 333Q44 505 116 587T343 669Q420 669 473 646T559 578T606 470T621 326Q621 155 548 72T320 -11Q242 -11 190 13T105 81T58 189T44 333ZM512 339Q512 390 505 435T478 515T427 568T344 588Q290 588
253 571T194 520T161 437T151 322Q151 270 158 225T185 146T236 93T317 73Q374 73 411 90T471 140T503 224T512 339Z" />
<glyph unicode="P" glyph-name="P" horiz-adv-x="562" d="M71 0V659H305Q417 659 475 610T533 459Q533 408 517 369T473 302T405 261T318 247H175V0H71ZM302 330Q327 330 350 337T389 360T416 400T426 459Q426 491 416 513T388 549T348 569T302 575H175V330H302Z" />
<glyph unicode="Q" glyph-name="Q" horiz-adv-x="665" d="M44 331Q44 504 116 586T344 669Q422 669 475 646T561 578T607 469T621 325Q621 228 596 164T528 61Q520 54 513 49T499 38L630 -84L551 -141L412 0Q389 -5 366 -8T320 -11Q243 -11 191 12T106 80T59 188T44
331ZM512 338Q512 390 505 435T480 515T429 568T346 588Q290 588 253 571T193 520T161 436T151 321Q151 268 158 223T184 143T235 90T317 70Q374 70 411 87T471 138T503 222T512 338Z" />
<glyph unicode="R" glyph-name="R" horiz-adv-x="583" d="M71 0V659H313Q425 659 483 615T541 469Q541 383 494 336Q460 302 416 286L559 0H445L313 270H175V0H71ZM312 352Q364 352 398 378T432 469Q432 526 398 550T312 575H175V352H312Z" />
<glyph unicode="S" glyph-name="S" d="M340 248Q320 258 297 267T250 285T201 303T155 324Q128 337 107 351T72 385T51 430T43 490Q43 533 60 566T110 623T186 657T286 669Q340 669 392 659T490 624L454 546Q424 561 381 573T286 586Q217 586 183 563T148 497Q148
465 166 445T212 411Q248 393 297 376T391 337Q414 325 434 312T468 279T491 234T500 172Q500 128 483 94T433 37T356 2T255 -11Q198 -11 141 1T36 39L75 118Q120 96 162 86T252 75Q328 75 362 100T396 166Q396 196 380 216T340 248Z" />
<glyph unicode="T" glyph-name="T" horiz-adv-x="512" d="M509 659V575H308V0H204V575H3V659H509Z" />
<glyph unicode="U" glyph-name="U" horiz-adv-x="634" d="M570 659V253Q570 113 503 51T309 -11Q183 -11 124 52T64 260V659H168V245Q168 162 199 117T308 71Q351 71 381 81T430 114T457 173T466 261V659H570Z" />
<glyph unicode="V" glyph-name="V" horiz-adv-x="578" d="M300 82L467 659H575L366 0H222L3 659H116L291 82H300Z" />
<glyph unicode="W" glyph-name="W" horiz-adv-x="923" d="M919 659L747 0H594L467 576H458L337 0H182L4 659H118L257 82H265L386 659H544L668 82H677L810 659H919Z" />
<glyph unicode="X" glyph-name="X" horiz-adv-x="599" d="M288 285L126 0H8L212 338L21 659H143L290 395H310L459 659H576L386 340L591 0H471L308 285H288Z" />
<glyph unicode="Y" glyph-name="Y" horiz-adv-x="575" d="M339 282V0H235V281Q223 300 204 330T162 396T116 470T70 545T30 610T-1 659H121L284 378H292L455 659H575L339 282Z" />
<glyph unicode="Z" glyph-name="Z" horiz-adv-x="550" d="M520 591L153 83H519V0H25V67L392 576H49V659H520V591Z" />
<glyph unicode="[" glyph-name="bracketleft" horiz-adv-x="342" d="M298 -195H49V697H298V614H152V-114H298V-195Z" />
<glyph unicode="\" glyph-name="backslash" horiz-adv-x="370" d="M366 -36H268L4 687H103L366 -36Z" />
<glyph unicode="]" glyph-name="bracketright" horiz-adv-x="342" d="M44 -114H191V614H44V697H294V-195H44V-114Z" />
<glyph unicode="^" glyph-name="asciicircum" horiz-adv-x="455" d="M304 659L425 309H335L232 590H223L125 309H30L152 659H304Z" />
<glyph unicode="_" glyph-name="underscore" horiz-adv-x="425" d="M36 -43H389V-116H36V-43Z" />
<glyph unicode="`" glyph-name="grave" horiz-adv-x="533" d="M255 685L369 526H272L141 685H255Z" />
<glyph unicode="a" glyph-name="a" horiz-adv-x="473" d="M459 -1Q442 -4 421 -4Q385 -4 363 8T329 44Q304 22 265 6T182 -11Q136 -11 107 0T61 31T38 77T31 132Q31 176 45 204T86 248T150 270T231 276Q272 276 313 273V295Q313 349 292 371T213 394Q173 394 137
384T73 360L50 425Q87 443 136 456T239 469Q289 469 323 460T377 428T407 369T416 278V125Q416 93 427 82T459 70V-1ZM229 205Q177 205 158 188T138 135Q138 99 153 81T209 62Q234 62 262 73T313 103V200Q291 204 271 204T229 205Z" />
<glyph unicode="b" glyph-name="b" horiz-adv-x="508" d="M253 -11Q219 -11 191 -2Q178 1 166 6T141 18L133 0H57V680L160 693V437Q179 447 199 455Q238 469 283 469Q380 469 426 409T473 239Q473 184 461 138T423 59T355 8T253 -11ZM186 71Q213 63 237 63Q297
63 332 102T367 234Q367 269 361 298T341 349T305 382T250 394Q213 394 185 378Q179 375 173 371T160 361V84Q167 80 173 77T186 71Z" />
<glyph unicode="c" glyph-name="c" horiz-adv-x="446" d="M418 28Q395 13 353 1T259 -11Q198 -11 156 4T87 49T48 122T36 222Q36 348 97 408T276 469Q324 469 364 454T428 411L369 354Q333 395 274 395Q208 395 174 355T140 221Q140 147 169 105T269 63Q309 63
338 71T398 95L418 28Z" />
<glyph unicode="d" glyph-name="d" horiz-adv-x="513" d="M226 -11Q127 -11 82 49T36 219Q36 274 48 320T86 399T154 450T256 469Q290 469 317 460Q331 456 349 448V680L451 693V120L459 0H370L362 30Q337 13 310 2Q274 -11 226 -11ZM323 387Q296 395 272 395Q211
395 177 356T142 224Q142 189 148 160T167 109T203 76T258 64Q297 64 323 80Q330 84 336 89T349 99V374Q342 378 336 381T323 387Z" />
<glyph unicode="e" glyph-name="e" horiz-adv-x="485" d="M257 -11Q195 -11 153 4T84 49T47 125T36 232Q36 469 255 469Q314 469 351 452T410 405T440 334T448 245V204H142Q144 135 167 104Q197 65 273 65Q325 65 359 77T419 102L441 36Q429 28 409 20T363 5T311
-6T257 -11ZM342 275Q342 341 320 370T253 399Q202 399 178 376T146 305L143 275H342Z" />
<glyph unicode="f" glyph-name="f" horiz-adv-x="340" d="M348 458V380H188V0H87V380H19V458H86V513Q86 565 99 599T136 655T193 684T268 693Q296 693 323 689T372 676L350 602Q317 615 278 615Q229 615 209 592T188 513V458H348Z" />
<glyph unicode="g" glyph-name="g" horiz-adv-x="508" d="M451 458V-16Q451 -75 435 -115T389 -180T318 -215T227 -226Q182 -226 144 -220T77 -203L103 -130Q125 -136 154 -142T224 -149Q251 -149 274 -144T313 -125T339 -88T349 -31V15Q323 3 296 -4T234 -11Q130
-11 83 48T36 217Q36 272 47 318T85 398T154 450T260 469Q294 469 320 462T367 443L372 458H451ZM349 378Q330 386 313 390T275 395Q205 395 174 354T142 220Q142 188 148 160T168 110T206 76T265 63Q287 63 307 68T349 84V378Z" />
<glyph unicode="h" glyph-name="h" horiz-adv-x="507" d="M352 0V279Q352 302 350 322T339 356T315 379T274 387Q245 387 221 380T178 360L160 348V0H57V680L160 693V429Q181 442 205 450Q257 468 304 468Q349 468 378 457T424 425T447 372T454 301V0H352Z" />
<glyph unicode="i" glyph-name="i" horiz-adv-x="219" d="M57 652H161V560H57V652ZM58 458H160V0H58V458Z" />
<glyph unicode="j" glyph-name="j" horiz-adv-x="219" d="M-23 -151H-13Q9 -151 23 -146T44 -130T55 -100T58 -52V458H160V-34Q160 -86 152 -122T124 -182T71 -215T-14 -226H-23V-151ZM160 562H57V652H160V562Z" />
<glyph unicode="k" glyph-name="k" horiz-adv-x="471" d="M57 0V680L159 693V287H199L356 458H471L279 249L478 0H362L197 209H159V0H57Z" />
<glyph unicode="l" glyph-name="l" horiz-adv-x="227" d="M209 -3Q207 -4 199 -4Q196 -5 188 -5H179Q109 -5 83 30T57 131V680L159 693V133Q159 92 170 81T209 70V-3Z" />
<glyph unicode="m" glyph-name="m" horiz-adv-x="758" d="M145 458L147 422Q172 441 197 451Q243 469 289 469Q334 469 361 458T404 425L406 422Q433 441 461 451Q513 469 559 469Q603 469 631 458T675 425T698 372T705 301V0H603V279Q603 303 601 323T592 357T571
380T532 388Q504 388 481 381T439 360L429 353Q432 329 432 301V0H330V279Q330 303 328 323T319 357T298 380T259 388Q231 388 208 381T167 360L160 355V0H58V336L50 458H145Z" />
<glyph unicode="n" glyph-name="n" horiz-adv-x="508" d="M145 458L148 422Q175 441 205 451Q257 469 304 469Q349 469 378 458T424 425T447 372T454 301V0H352V279Q352 303 350 323T339 357T315 380T274 388Q245 388 221 380T178 360L160 348V0H58V336L50 458H145Z" />
<glyph unicode="o" glyph-name="o" horiz-adv-x="517" d="M247 -11Q186 -11 146 5T81 53T46 129T36 231Q36 352 91 410T269 469Q329 469 370 453T435 405T470 328T481 226Q481 105 425 47T247 -11ZM247 62Q322 62 349 105T376 235Q376 268 372 297T355 349T322
385T269 398Q195 398 168 353T141 223Q141 190 145 161T161 109T193 75T247 62Z" />
<glyph unicode="p" glyph-name="p" horiz-adv-x="509" d="M138 458L146 428Q171 444 199 455Q238 469 283 469Q380 469 426 409T473 239Q473 184 461 138T423 59T355 8T253 -11Q219 -11 191 -2Q177 1 160 9V-213L58 -226V339L50 458H138ZM186 71Q213 63 237 63Q297
63 332 102T367 234Q367 269 361 298T341 349T305 382T250 394Q213 394 185 378Q179 375 173 371T160 361V84Q167 80 173 77T186 71Z" />
<glyph unicode="q" glyph-name="q" horiz-adv-x="509" d="M256 469Q290 469 317 460Q329 457 341 452T366 440L374 458H451V-213L348 -226V21Q338 16 329 11T310 2Q274 -11 226 -11Q127 -11 82 49T36 219Q36 274 48 320T86 399T154 450T256 469ZM323 387Q296 395
272 395Q211 395 177 356T142 224Q142 189 148 160T167 109T203 76T258 64Q297 64 323 80L348 97V375Q333 383 323 387Z" />
<glyph unicode="r" glyph-name="r" horiz-adv-x="359" d="M142 458L148 403Q171 430 198 444Q244 469 291 469Q313 469 331 465T361 456L335 373Q314 385 279 385Q239 385 205 363Q184 350 162 327V0H60V330L47 458H142Z" />
<glyph unicode="s" glyph-name="s" horiz-adv-x="433" d="M193 289Q201 285 215 280T243 270L300 251Q343 239 372 211T402 129Q402 57 351 23T205 -11Q153 -11 110 -3T31 22L63 96Q119 65 205 65Q247 65 274 76T302 119Q302 155 244 177Q217 185 188 194T135
213Q94 227 66 254T38 333Q38 369 53 394T94 436T155 461T230 469Q285 469 325 461T398 439L366 365Q310 394 230 394Q181 394 158 380T135 343Q135 325 148 313T193 289Z" />
<glyph unicode="t" glyph-name="t" horiz-adv-x="385" d="M192 380V174Q192 151 194 132T203 98T225 77T266 69Q290 69 312 74T354 89L372 19Q307 -11 234 -11Q189 -11 161 0T118 33T96 83T90 147V380H12V448L89 457V549L192 567V458H356V380H192Z" />
<glyph unicode="u" glyph-name="u" horiz-adv-x="505" d="M446 122L455 0H360L355 36Q342 27 328 20T300 8Q250 -11 201 -11Q156 -11 128 0T83 33T60 86T53 157V458H156V178Q156 155 158 135T169 101T192 78T233 69Q261 69 284 76T327 96Q335 102 344 108V458H446V122Z" />
<glyph unicode="v" glyph-name="v" horiz-adv-x="457" d="M234 73L351 458H456L295 0H158L1 458H110L224 73H234Z" />
<glyph unicode="w" glyph-name="w" horiz-adv-x="711" d="M428 458L502 73H510L600 458H702L576 0H433L360 386H350L275 0H129L9 458H115L201 73H210L285 458H428Z" />
<glyph unicode="x" glyph-name="x" horiz-adv-x="466" d="M223 191L116 0H6L147 235L9 458H121L224 277H240L342 458H453L315 237L459 0H346L238 191H223Z" />
<glyph unicode="y" glyph-name="y" horiz-adv-x="454" d="M3 458H116L230 120H239L347 458H451L273 -32Q257 -76 241 -111T201 -172T144 -212T62 -226Q48 -226 33 -226T5 -220L18 -148Q33 -152 54 -152Q89 -152 108 -141T139 -114Q151 -96 163 -64T186 -3L3 458Z" />
<glyph unicode="z" glyph-name="z" horiz-adv-x="446" d="M420 396L147 78H422V0H25V62L297 380H36V458H420V396Z" />
<glyph unicode="{" glyph-name="braceleft" horiz-adv-x="357" d="M273 -185Q237 -185 206 -182T152 -164T116 -120T102 -40V129Q102 171 81 192T27 219V310Q60 314 81 334T102 400V577Q102 623 115 651T151 694T205 715T273 721H326V639H311Q252 639 229 619T205
546V391Q205 333 186 306T121 271V261Q162 251 183 225T205 141V-16Q205 -67 230 -85T311 -103H326V-185H273Z" />
<glyph unicode="|" glyph-name="bar" horiz-adv-x="214" d="M148 -187H66V719H148V-187Z" />
<glyph unicode="}" glyph-name="braceright" horiz-adv-x="357" d="M31 -185V-103H47Q102 -103 127 -85T153 -16V141Q153 198 174 224T236 261V271Q193 278 173 305T153 391V546Q153 599 129 619T47 639H31V721H84Q120 721 151 716T206 695T243 651T256 577V400Q256
354 277 334T330 310V219Q298 214 277 193T256 129V-40Q256 -91 243 -120T206 -163T151 -181T84 -185H31Z" />
<glyph unicode="~" glyph-name="asciitilde" horiz-adv-x="470" d="M29 266Q53 287 88 301T162 316Q186 316 204 311T240 299T274 287T310 281Q339 281 362 290T407 313L440 251Q415 229 381 214T308 199Q283 199 264 205T228 217T195 230T159 236Q131 236 107
228T61 204L29 266Z" />
<glyph unicode="&#xa0;" glyph-name="nbspace" horiz-adv-x="300" />
<glyph unicode="&#xa1;" glyph-name="exclamdown" horiz-adv-x="246" d="M177 355H68V458H177V355ZM80 285H165L179 -200H66L80 285Z" />
<glyph unicode="&#xa2;" glyph-name="cent" horiz-adv-x="455" d="M287 -92H223V-10Q118 -2 73 57T28 222Q28 334 77 394T223 466V550H287V468Q330 464 366 449T422 411L364 354Q335 387 287 392V64Q318 66 343 74T392 94L412 29Q392 17 361 7T287 -9V-92ZM132
221Q132 158 152 118T223 67V389Q178 377 155 337T132 221Z" />
<glyph unicode="&#xa3;" glyph-name="sterling" horiz-adv-x="492" d="M340 669Q404 669 455 650L427 576Q389 591 344 591Q283 591 254 560T224 448V356H420V278H223V257Q223 194 208 154T156 83H447V0H40V71Q85 104 102 148T119 257V278H43V356H119V445Q119
511 135 554T181 622T251 658T340 669Z" />
<glyph unicode="&#xa4;" glyph-name="currency" horiz-adv-x="486" d="M25 114L93 182L83 204Q73 233 73 270Q73 308 86 337Q88 342 90 346T94 355L25 425L87 487L158 416L177 424Q207 437 248 437Q288 437 317 424L329 418L398 487L460 425L391 355Q393 350 396
345T401 334Q412 301 412 268Q412 232 399 203L390 184L460 114L398 52L326 123L308 115Q276 103 237 103Q197 103 168 116L156 121L87 52L25 114ZM237 184Q279 184 301 207T323 271Q323 305 305 329T248 354Q206 354 184 331T162 268Q162 233 180 209T237 184Z"
/>
<glyph unicode="&#xa5;" glyph-name="yen" horiz-adv-x="586" d="M524 185H344V0H240V185H61V248H240V281L222 309H61V373H183Q179 378 176 383T168 396Q146 432 123 470T77 545T35 611T4 659H127L289 378H298L460 659H581L401 373H524V309H361L344 282V248H524V185Z" />
<glyph unicode="&#xa6;" glyph-name="brokenbar" horiz-adv-x="214" d="M148 372H66V719H148V372ZM148 -187H66V160H148V-187Z" />
<glyph unicode="&#xa7;" glyph-name="section" horiz-adv-x="531" d="M317 8Q301 15 280 23T235 40T188 58T145 78Q124 89 106 101T74 131T53 173T45 230Q45 304 99 342Q116 355 139 364Q103 386 83 409Q57 443 57 504Q57 544 73 575T119 627T191 658T285 669Q336
669 385 660T477 628L443 555Q415 569 375 579T286 590Q155 590 155 511Q155 481 172 464T214 433Q248 418 295 401T385 363Q407 352 425 340T457 310T478 269T486 212Q486 138 432 99Q424 92 414 87T392 76L415 63Q444 43 460 14T476 -62Q476 -142 414 -184T247
-226Q196 -226 144 -216T49 -184L83 -109Q117 -127 157 -137T246 -147Q315 -147 346 -127T378 -70Q378 -42 362 -24T317 8ZM337 279Q318 289 297 297T250 314L222 324Q188 317 170 300Q142 275 142 242Q142 211 156 192T195 160Q214 151 235 143T279 126L305 116Q324
121 338 127T363 142Q391 167 391 199Q391 253 337 279Z" />
<glyph unicode="&#xa8;" glyph-name="dieresis" horiz-adv-x="533" d="M222 560H121V652H222V560ZM411 560H310V652H411V560Z" />
<glyph unicode="&#xa9;" glyph-name="copyright" horiz-adv-x="795" d="M749 329Q749 248 723 185T649 79T538 12T398 -11Q321 -11 257 12T146 78T73 185T47 329Q47 411 73 474T145 580T256 646T398 669Q474 669 538 646T649 580T722 473T749 329ZM676 329Q676
392 657 443T601 531T513 586T398 606Q331 606 279 586T191 530T137 442T118 329Q118 266 137 215T193 128T281 73T398 53Q462 53 513 72T601 128T656 215T676 329ZM522 174Q504 162 471 153T395 143Q302 143 261 191T219 325Q219 518 409 518Q447 518 479 506T530
472L482 426Q455 457 408 457Q356 457 330 426T304 324Q304 272 328 238T404 204Q435 204 458 211T506 230L522 174Z" />
<glyph unicode="&#xaa;" glyph-name="ordfeminine" horiz-adv-x="370" d="M335 369Q333 368 328 368T321 367H316Q293 367 271 376T243 403Q227 388 209 375T155 362Q96 362 75 390T53 462Q53 516 89 537T185 558Q198 558 210 556T235 551V564Q235 601 222 612T179
624Q153 624 126 618T82 602L67 652Q91 664 124 672T192 680Q253 680 279 655T306 565V454Q306 432 313 425T335 417V369ZM184 507Q158 507 143 497T128 463Q128 419 170 419Q191 419 205 424T235 445V500Q222 504 211 505T184 507Z" />
<glyph unicode="&#xab;" glyph-name="guillemotleft" horiz-adv-x="502" d="M382 32L211 229L383 426L450 373L325 230L451 89L382 32ZM248 373L129 230L247 89L179 32L15 229L180 426L248 373Z" />
<glyph unicode="&#xac;" glyph-name="logicalnot" horiz-adv-x="617" d="M70 341H527V89H437V264H70V341Z" />
<glyph unicode="&#xae;" glyph-name="registered" horiz-adv-x="518" d="M489 487Q489 434 472 393T424 323T351 279T259 264Q209 264 167 279T95 322T47 392T29 487Q29 540 46 581T94 652T167 696T259 711Q309 711 351 696T424 652T472 582T489 487ZM437 487Q437
568 391 616T259 665Q174 665 128 617T81 487Q81 406 127 358T259 310Q344 310 390 358T437 487ZM302 369L257 460H229V369H168V609H266Q311 609 333 592T356 537Q356 511 346 495T315 470L367 369H302ZM264 504Q295 504 295 537Q295 552 286 557T264 563H229V504H264Z"
/>
<glyph unicode="&#xaf;" glyph-name="overscore" horiz-adv-x="533" d="M415 568H115V647H415V568Z" />
<glyph unicode="&#xb0;" glyph-name="degree" horiz-adv-x="343" d="M162 382Q125 382 99 393T55 423T29 469T21 526Q21 593 62 631T178 669Q214 669 241 658T286 628T312 582T321 524Q321 460 279 421T162 382ZM164 456Q206 456 223 474T240 528Q240 556 226
576T178 596Q136 596 119 576T101 524Q101 496 115 476T164 456Z" />
<glyph unicode="&#xb1;" glyph-name="plusminus" horiz-adv-x="563" d="M325 289V127H237V289H71V372H237V535H325V372H492V289H325ZM493 0H69V83H493V0Z" />
<glyph unicode="&#xb2;" glyph-name="twosuperior" horiz-adv-x="307" d="M28 318V359L148 477Q173 502 182 519T192 556Q192 578 178 592T138 606Q94 606 47 578L22 628Q53 647 85 655T146 664Q173 664 196 659T237 643T263 612T273 564Q273 531 250 502T198
443L131 377H279V318H28Z" />
<glyph unicode="&#xb3;" glyph-name="threesuperior" horiz-adv-x="307" d="M55 402Q70 390 93 382T142 374Q170 374 188 385T206 421Q206 445 188 457T138 469Q126 469 118 469T99 466V520H126Q151 520 173 531T196 567Q196 587 180 597T142 607Q116 607 96 599T58
578L30 627Q49 641 80 652T151 664Q208 664 240 644T272 575Q272 548 256 530T217 506Q246 497 265 476T285 420Q285 393 274 373T243 340T198 320T144 313Q102 313 72 325T19 356L55 402Z" />
<glyph unicode="&#xb4;" glyph-name="acute" horiz-adv-x="533" d="M390 685L258 526H160L275 685H390Z" />
<glyph unicode="&#xb5;" glyph-name="mu" horiz-adv-x="508" d="M156 -221H53V458H156V178Q156 155 158 135T169 101T192 78T233 70Q287 70 325 95L347 109V458H450V122L457 0H363L359 34Q297 -10 221 -10Q188 -10 167 -3L149 3L156 -221Z" />
<glyph unicode="&#xb6;" glyph-name="paragraph" horiz-adv-x="585" d="M222 237Q166 237 130 253T73 296T44 361T36 442Q36 494 46 534T80 602T144 644T245 659H515V-213L439 -223V576H357V-213L283 -223V237H222Z" />
<glyph unicode="&#xb7;" glyph-name="middot" horiz-adv-x="219" d="M162 213H54V316H162V213Z" />
<glyph unicode="&#xb8;" glyph-name="cedilla" horiz-adv-x="533" d="M170 -149Q187 -155 203 -158T237 -161Q266 -161 281 -153T296 -122Q296 -95 276 -86T199 -71L220 -17Q308 -22 349 -44T391 -121Q391 -178 357 -202T248 -226Q219 -226 192 -221T146 -208L170 -149Z" />
<glyph unicode="&#xb9;" glyph-name="onesuperior" horiz-adv-x="307" d="M133 318V588L63 555L39 603L155 660H206V318H133Z" />
<glyph unicode="&#xba;" glyph-name="ordmasculine" horiz-adv-x="392" d="M193 362Q152 362 126 372T84 403T62 453T55 522Q55 606 91 643T208 680Q248 680 275 670T318 639T340 589T347 519Q347 435 311 399T193 362ZM193 416Q242 416 259 441T276 525Q276 547
274 566T264 598T243 619T208 627Q183 627 167 621T142 602T130 567T126 517Q126 494 128 475T138 443T158 423T193 416Z" />
<glyph unicode="&#xbb;" glyph-name="guillemotright" horiz-adv-x="502" d="M127 426L298 229L126 32L59 85L184 228L58 369L127 426ZM261 85L380 228L262 369L330 426L494 229L329 32L261 85Z" />
<glyph unicode="&#xbc;" glyph-name="onequarter" horiz-adv-x="705" d="M612 342V114H652V57H612V0H545V57H379V99L518 342H612ZM545 114V258H542L463 114H545ZM49 -32L526 691H619L141 -32H49ZM140 318V589L69 556L45 603L161 660H212V318H140Z" />
<glyph unicode="&#xbd;" glyph-name="onehalf" horiz-adv-x="729" d="M49 -32L526 691H619L141 -32H49ZM140 318V589L69 556L45 603L161 660H212V318H140ZM428 0V39L548 157Q571 180 581 199T591 236Q591 259 577 273T536 287Q515 287 493 280T445 260L420 310Q452
328 484 336T546 344Q573 344 596 339T636 323T662 292T672 246Q672 212 650 183T598 125L530 57H679V0H428Z" />
<glyph unicode="&#xbe;" glyph-name="threequarters" horiz-adv-x="725" d="M634 342V114H674V57H634V0H567V57H401V99L540 342H634ZM567 114V258H564L485 114H567ZM95 -32L572 691H665L187 -32H95ZM164 311Q120 311 86 326T37 353L69 400Q83 391 108 381T163
370Q197 370 212 382T228 414Q228 442 206 454T144 467Q137 467 130 467T120 466V525H136Q171 525 194 536T218 573Q218 590 206 598T165 607Q139 607 117 599T79 580L50 626Q57 632 69 638T97 651T131 661T167 665Q221 665 254 643T288 577Q288 547 273 527T232
501Q260 498 280 475T300 414Q300 389 290 370T261 337T217 318T164 311Z" />
<glyph unicode="&#xbf;" glyph-name="questiondown" horiz-adv-x="429" d="M195 458H303V355H195V458ZM298 285V231Q298 194 287 166T259 114T222 72T186 35T158 -1T146 -41Q146 -79 171 -102T249 -125Q288 -125 323 -113T380 -86L411 -164Q378 -183 332 -197T231
-211Q189 -211 153 -202T92 -174T52 -126T37 -55Q37 -17 49 10T80 60T120 102T160 143T190 189T203 248V285H298Z" />
<glyph unicode="&#xc0;" glyph-name="Agrave" horiz-adv-x="633" d="M510 0L448 182H180L118 0H6L245 659H389L625 0H510ZM310 576L208 266H419L318 576H310ZM268 885L382 726H285L154 885H268Z" />
<glyph unicode="&#xc1;" glyph-name="Aacute" horiz-adv-x="633" d="M510 0L448 182H180L118 0H6L245 659H389L625 0H510ZM310 576L208 266H419L318 576H310ZM479 885L347 726H249L364 885H479Z" />
<glyph unicode="&#xc2;" glyph-name="Acircumflex" horiz-adv-x="633" d="M510 0L448 182H180L118 0H6L245 659H389L625 0H510ZM310 576L208 266H419L318 576H310ZM384 885L488 726H395L322 832H312L235 726H146L252 885H384Z" />
<glyph unicode="&#xc3;" glyph-name="Atilde" horiz-adv-x="633" d="M510 0L448 182H180L118 0H6L245 659H389L625 0H510ZM310 576L208 266H419L318 576H310ZM141 814Q160 834 189 848T253 862Q273 862 289 857T320 846T349 834T380 829Q404 829 423 838T462 860L492
799Q470 778 442 764T379 750Q358 750 342 755T311 766T282 778T251 783Q228 783 209 774T171 754L141 814Z" />
<glyph unicode="&#xc4;" glyph-name="Adieresis" horiz-adv-x="633" d="M510 0L448 182H180L118 0H6L245 659H389L625 0H510ZM310 576L208 266H419L318 576H310ZM270 760H169V852H270V760ZM459 760H358V852H459V760Z" />
<glyph unicode="&#xc5;" glyph-name="Aring" horiz-adv-x="633" d="M510 0L448 182H180L118 0H6L245 659H389L625 0H510ZM310 576L208 266H419L318 576H310ZM309 709Q251 709 228 737T204 811Q204 860 233 886T319 913Q377 913 401 884T425 810Q425 761 396 735T309
709ZM312 767Q358 767 358 811Q358 854 317 854Q269 854 269 810Q269 789 279 778T312 767Z" />
<glyph unicode="&#xc6;" glyph-name="AE" horiz-adv-x="915" d="M863 83V0H471L461 182H206L99 0H-12L385 659H854V575H544L555 380H843V298H559L571 83H863ZM433 575L255 266H458L442 575H433Z" />
<glyph unicode="&#xc7;" glyph-name="Ccedilla" horiz-adv-x="597" d="M337 -11Q182 -10 113 75T44 329Q44 504 122 586T346 669Q376 669 407 664T466 648T519 621T562 582L500 521Q472 552 437 569T349 586Q246 586 199 519T152 320Q152 200 197 139T342 78Q402
78 449 90T534 119L559 38Q519 17 460 3T337 -11ZM225 -149Q242 -155 258 -158T292 -161Q321 -161 336 -153T351 -122Q351 -95 331 -86T254 -71L275 -17Q363 -22 404 -44T446 -121Q446 -178 412 -202T303 -226Q274 -226 247 -221T201 -208L225 -149Z" />
<glyph unicode="&#xc8;" glyph-name="Egrave" horiz-adv-x="542" d="M490 83V0H71V659H479V575H175V380H469V298H175V83H490ZM229 885L343 726H246L115 885H229Z" />
<glyph unicode="&#xc9;" glyph-name="Eacute" horiz-adv-x="542" d="M490 83V0H71V659H479V575H175V380H469V298H175V83H490ZM440 885L308 726H210L325 885H440Z" />
<glyph unicode="&#xca;" glyph-name="Ecircumflex" horiz-adv-x="542" d="M490 83V0H71V659H479V575H175V380H469V298H175V83H490ZM344 885L448 726H355L282 832H272L195 726H106L212 885H344Z" />
<glyph unicode="&#xcb;" glyph-name="Edieresis" horiz-adv-x="542" d="M490 83V0H71V659H479V575H175V380H469V298H175V83H490ZM231 750H130V842H231V750ZM420 750H319V842H420V750Z" />
<glyph unicode="&#xcc;" glyph-name="Igrave" horiz-adv-x="248" d="M71 659H175V0H71V659ZM77 885L191 726H94L-37 885H77Z" />
<glyph unicode="&#xcd;" glyph-name="Iacute" horiz-adv-x="248" d="M71 659H175V0H71V659ZM292 885L160 726H62L177 885H292Z" />
<glyph unicode="&#xce;" glyph-name="Icircumflex" horiz-adv-x="248" d="M71 659H175V0H71V659ZM192 885L296 726H203L130 832H120L43 726H-46L60 885H192Z" />
<glyph unicode="&#xcf;" glyph-name="Idieresis" horiz-adv-x="248" d="M71 659H175V0H71V659ZM81 750H-20V842H81V750ZM270 750H169V842H270V750Z" />
<glyph unicode="&#xd0;" glyph-name="Eth" horiz-adv-x="658" d="M186 375H331V291H186V83H253Q312 83 358 95T437 136T487 214T504 338Q504 461 447 518T281 575H186V375ZM82 291H15V375H82V659H282Q361 659 422 641T526 584T591 481T613 327Q613 234 586 171T512
70T399 16T256 0H82V291Z" />
<glyph unicode="&#xd1;" glyph-name="Ntilde" horiz-adv-x="701" d="M628 659V0H447L184 576H175V0H71V659H253L516 82H524V659H628ZM183 815Q202 835 231 849T295 863Q315 863 331 858T362 847T391 835T422 830Q446 830 465 839T504 861L534 800Q512 779 484
765T421 751Q400 751 384 756T353 767T324 779T293 784Q270 784 251 775T213 755L183 815Z" />
<glyph unicode="&#xd2;" glyph-name="Ograve" horiz-adv-x="665" d="M44 333Q44 505 116 587T343 669Q420 669 473 646T559 578T606 470T621 326Q621 155 548 72T320 -11Q242 -11 190 13T105 81T58 189T44 333ZM512 339Q512 390 505 435T478 515T427 568T344 588Q290
588 253 571T194 520T161 437T151 322Q151 270 158 225T185 146T236 93T317 73Q374 73 411 90T471 140T503 224T512 339ZM284 885L398 726H301L170 885H284Z" />
<glyph unicode="&#xd3;" glyph-name="Oacute" horiz-adv-x="665" d="M44 333Q44 505 116 587T343 669Q420 669 473 646T559 578T606 470T621 326Q621 155 548 72T320 -11Q242 -11 190 13T105 81T58 189T44 333ZM512 339Q512 390 505 435T478 515T427 568T344 588Q290
588 253 571T194 520T161 437T151 322Q151 270 158 225T185 146T236 93T317 73Q374 73 411 90T471 140T503 224T512 339ZM491 885L359 726H261L376 885H491Z" />
<glyph unicode="&#xd4;" glyph-name="Ocircumflex" horiz-adv-x="665" d="M44 333Q44 505 116 587T343 669Q420 669 473 646T559 578T606 470T621 326Q621 155 548 72T320 -11Q242 -11 190 13T105 81T58 189T44 333ZM512 339Q512 390 505 435T478 515T427 568T344
588Q290 588 253 571T194 520T161 437T151 322Q151 270 158 225T185 146T236 93T317 73Q374 73 411 90T471 140T503 224T512 339ZM403 885L507 726H414L341 832H331L254 726H165L271 885H403Z" />
<glyph unicode="&#xd5;" glyph-name="Otilde" horiz-adv-x="665" d="M44 333Q44 505 116 587T343 669Q420 669 473 646T559 578T606 470T621 326Q621 155 548 72T320 -11Q242 -11 190 13T105 81T58 189T44 333ZM512 339Q512 390 505 435T478 515T427 568T344 588Q290
588 253 571T194 520T161 437T151 322Q151 270 158 225T185 146T236 93T317 73Q374 73 411 90T471 140T503 224T512 339ZM164 814Q183 834 212 848T276 862Q296 862 312 857T343 846T372 834T403 829Q427 829 446 838T485 860L515 799Q493 778 465 764T402 750Q381
750 365 755T334 766T305 778T274 783Q251 783 232 774T194 754L164 814Z" />
<glyph unicode="&#xd6;" glyph-name="Odieresis" horiz-adv-x="665" d="M44 333Q44 505 116 587T343 669Q420 669 473 646T559 578T606 470T621 326Q621 155 548 72T320 -11Q242 -11 190 13T105 81T58 189T44 333ZM512 339Q512 390 505 435T478 515T427 568T344
588Q290 588 253 571T194 520T161 437T151 322Q151 270 158 225T185 146T236 93T317 73Q374 73 411 90T471 140T503 224T512 339ZM291 750H190V842H291V750ZM480 750H379V842H480V750Z" />
<glyph unicode="&#xd7;" glyph-name="multiply" horiz-adv-x="563" d="M433 50L282 201L130 50L65 114L217 265L65 418L130 482L282 330L433 482L497 418L346 265L497 114L433 50Z" />
<glyph unicode="&#xd8;" glyph-name="Oslash" horiz-adv-x="665" d="M44 331Q44 504 116 587T343 671Q420 671 473 647Q481 643 489 639T504 629L559 704L623 662L559 576Q591 532 606 469Q621 404 621 325Q621 154 548 71T320 -13Q242 -13 188 11Q179 15 170
20T153 30L99 -42L36 1L100 87Q71 129 58 187Q44 254 44 331ZM516 338Q516 364 514 388T508 435Q503 467 495 490L208 104Q218 93 232 86Q266 66 317 66Q374 66 412 84T473 136T506 222T516 338ZM430 572Q398 593 344 593Q290 593 252 575T191 523T157 438T146
321Q146 295 148 270T154 222Q156 209 158 197T165 174L450 557L430 572Z" />
<glyph unicode="&#xd9;" glyph-name="Ugrave" horiz-adv-x="634" d="M570 659V253Q570 113 503 51T309 -11Q183 -11 124 52T64 260V659H168V245Q168 162 199 117T308 71Q351 71 381 81T430 114T457 173T466 261V659H570ZM270 885L384 726H287L156 885H270Z" />
<glyph unicode="&#xda;" glyph-name="Uacute" horiz-adv-x="634" d="M570 659V253Q570 113 503 51T309 -11Q183 -11 124 52T64 260V659H168V245Q168 162 199 117T308 71Q351 71 381 81T430 114T457 173T466 261V659H570ZM473 885L341 726H243L358 885H473Z" />
<glyph unicode="&#xdb;" glyph-name="Ucircumflex" horiz-adv-x="634" d="M570 659V253Q570 113 503 51T309 -11Q183 -11 124 52T64 260V659H168V245Q168 162 199 117T308 71Q351 71 381 81T430 114T457 173T466 261V659H570ZM382 885L486 726H393L320 832H310L233
726H144L250 885H382Z" />
<glyph unicode="&#xdc;" glyph-name="Udieresis" horiz-adv-x="634" d="M570 659V253Q570 113 503 51T309 -11Q183 -11 124 52T64 260V659H168V245Q168 162 199 117T308 71Q351 71 381 81T430 114T457 173T466 261V659H570ZM273 750H172V842H273V750ZM462 750H361V842H462V750Z"
/>
<glyph unicode="&#xdd;" glyph-name="Yacute" horiz-adv-x="575" d="M339 282V0H235V281Q223 300 204 330T162 396T116 470T70 545T30 610T-1 659H121L284 378H292L455 659H575L339 282ZM455 885L323 726H225L340 885H455Z" />
<glyph unicode="&#xde;" glyph-name="Thorn" horiz-adv-x="561" d="M173 0H69V659H173V536H303Q415 536 473 487T531 336Q531 286 515 248T471 183T403 142T316 128H173V0ZM300 210Q325 210 347 217T387 239T414 278T424 336Q424 367 414 389T386 425T346 445T300
452H173V210H300Z" />
<glyph unicode="&#xdf;" glyph-name="germandbls" horiz-adv-x="551" d="M528 127Q528 58 483 25T353 -9Q262 -9 201 22L231 94Q252 83 283 74T351 65Q388 65 409 77T431 116Q431 138 418 152T373 180L311 205Q273 220 247 246T221 321Q221 357 239 388T312 452Q344
472 361 489T378 535Q378 554 371 567T351 589T322 602T288 606Q254 606 230 594T189 559T166 508T158 445V0H56V434Q56 565 119 624T294 684Q330 684 364 675T424 647T467 600T483 535Q483 508 473 487T447 449T409 418T365 390Q343 375 331 363T318 333Q318 314
329 304T363 284Q367 282 377 278T398 270T419 261T434 253Q479 233 503 206T528 127Z" />
<glyph unicode="&#xe0;" glyph-name="agrave" horiz-adv-x="472" d="M459 -1Q442 -4 421 -4Q385 -4 363 8T329 44Q304 22 265 6T182 -11Q136 -11 107 0T61 31T38 77T31 132Q31 176 45 204T86 248T150 270T231 276Q272 276 313 273V295Q313 349 292 371T213 394Q173
394 137 384T73 360L50 425Q87 443 136 456T239 469Q289 469 323 460T377 428T407 369T416 278V125Q416 93 427 82T459 70V-1ZM229 205Q177 205 158 188T138 135Q138 99 153 81T209 62Q234 62 262 73T313 103V200Q291 204 271 204T229 205ZM202 685L316 526H219L88
685H202Z" />
<glyph unicode="&#xe1;" glyph-name="aacute" horiz-adv-x="472" d="M459 -1Q442 -4 421 -4Q385 -4 363 8T329 44Q304 22 265 6T182 -11Q136 -11 107 0T61 31T38 77T31 132Q31 176 45 204T86 248T150 270T231 276Q272 276 313 273V295Q313 349 292 371T213 394Q173
394 137 384T73 360L50 425Q87 443 136 456T239 469Q289 469 323 460T377 428T407 369T416 278V125Q416 93 427 82T459 70V-1ZM229 205Q177 205 158 188T138 135Q138 99 153 81T209 62Q234 62 262 73T313 103V200Q291 204 271 204T229 205ZM385 685L253 526H155L270
685H385Z" />
<glyph unicode="&#xe2;" glyph-name="acircumflex" horiz-adv-x="472" d="M459 -1Q442 -4 421 -4Q385 -4 363 8T329 44Q304 22 265 6T182 -11Q136 -11 107 0T61 31T38 77T31 132Q31 176 45 204T86 248T150 270T231 276Q272 276 313 273V295Q313 349 292 371T213
394Q173 394 137 384T73 360L50 425Q87 443 136 456T239 469Q289 469 323 460T377 428T407 369T416 278V125Q416 93 427 82T459 70V-1ZM229 205Q177 205 158 188T138 135Q138 99 153 81T209 62Q234 62 262 73T313 103V200Q291 204 271 204T229 205ZM302 685L406
526H313L240 632H230L153 526H64L170 685H302Z" />
<glyph unicode="&#xe3;" glyph-name="atilde" horiz-adv-x="472" d="M459 -1Q442 -4 421 -4Q385 -4 363 8T329 44Q304 22 265 6T182 -11Q136 -11 107 0T61 31T38 77T31 132Q31 176 45 204T86 248T150 270T231 276Q272 276 313 273V295Q313 349 292 371T213 394Q173
394 137 384T73 360L50 425Q87 443 136 456T239 469Q289 469 323 460T377 428T407 369T416 278V125Q416 93 427 82T459 70V-1ZM229 205Q177 205 158 188T138 135Q138 99 153 81T209 62Q234 62 262 73T313 103V200Q291 204 271 204T229 205ZM55 614Q74 634 103 648T167
662Q187 662 203 657T234 646T263 634T294 629Q318 629 337 638T376 660L406 599Q384 578 356 564T293 550Q272 550 256 555T225 566T196 578T165 583Q142 583 123 574T85 554L55 614Z" />
<glyph unicode="&#xe4;" glyph-name="adieresis" horiz-adv-x="472" d="M459 -1Q442 -4 421 -4Q385 -4 363 8T329 44Q304 22 265 6T182 -11Q136 -11 107 0T61 31T38 77T31 132Q31 176 45 204T86 248T150 270T231 276Q272 276 313 273V295Q313 349 292 371T213
394Q173 394 137 384T73 360L50 425Q87 443 136 456T239 469Q289 469 323 460T377 428T407 369T416 278V125Q416 93 427 82T459 70V-1ZM229 205Q177 205 158 188T138 135Q138 99 153 81T209 62Q234 62 262 73T313 103V200Q291 204 271 204T229 205ZM192 560H91V652H192V560ZM381
560H280V652H381V560Z" />
<glyph unicode="&#xe5;" glyph-name="aring" horiz-adv-x="472" d="M459 -1Q442 -4 421 -4Q385 -4 363 8T329 44Q304 22 265 6T182 -11Q136 -11 107 0T61 31T38 77T31 132Q31 176 45 204T86 248T150 270T231 276Q272 276 313 273V295Q313 349 292 371T213 394Q173
394 137 384T73 360L50 425Q87 443 136 456T239 469Q289 469 323 460T377 428T407 369T416 278V125Q416 93 427 82T459 70V-1ZM229 205Q177 205 158 188T138 135Q138 99 153 81T209 62Q234 62 262 73T313 103V200Q291 204 271 204T229 205ZM233 510Q175 510 152
538T128 612Q128 661 157 687T243 714Q301 714 325 685T349 611Q349 562 320 536T233 510ZM236 568Q282 568 282 612Q282 655 241 655Q193 655 193 611Q193 590 203 579T236 568Z" />
<glyph unicode="&#xe6;" glyph-name="ae" horiz-adv-x="763" d="M720 36Q708 28 688 20T642 5T590 -6T535 -11Q416 -11 367 44Q340 25 296 7T191 -11Q147 -11 117 1T67 32T40 78T31 132Q31 174 46 201T87 244T151 266T234 273H317V294Q317 348 295 371T214 394Q174
394 137 384T74 360L50 425Q88 443 137 456T240 469Q297 469 330 456T382 411Q431 469 535 469Q593 469 630 452T689 405T719 334T727 245V204H418Q420 129 450 97T550 65Q602 65 637 77T699 102L720 36ZM212 63Q246 63 277 75T333 106Q326 127 324 151T318 204H230Q178
204 158 187T138 136Q138 102 155 83T212 63ZM532 399Q471 399 446 367T419 272H622Q622 341 600 370T532 399Z" />
<glyph unicode="&#xe7;" glyph-name="ccedilla" horiz-adv-x="447" d="M418 28Q395 13 353 1T259 -11Q198 -11 156 4T87 49T48 122T36 222Q36 348 97 408T276 469Q324 469 364 454T428 411L369 354Q333 395 274 395Q208 395 174 355T140 221Q140 147 169 105T269
63Q309 63 338 71T398 95L418 28ZM147 -149Q164 -155 180 -158T214 -161Q243 -161 258 -153T273 -122Q273 -95 253 -86T176 -71L197 -17Q285 -22 326 -44T368 -121Q368 -178 334 -202T225 -226Q196 -226 169 -221T123 -208L147 -149Z" />
<glyph unicode="&#xe8;" glyph-name="egrave" horiz-adv-x="485" d="M257 -11Q195 -11 153 4T84 49T47 125T36 232Q36 469 255 469Q314 469 351 452T410 405T440 334T448 245V204H142Q144 135 167 104Q197 65 273 65Q325 65 359 77T419 102L441 36Q429 28 409
20T363 5T311 -6T257 -11ZM342 275Q342 341 320 370T253 399Q202 399 178 376T146 305L143 275H342ZM222 685L336 526H239L108 685H222Z" />
<glyph unicode="&#xe9;" glyph-name="eacute" horiz-adv-x="485" d="M257 -11Q195 -11 153 4T84 49T47 125T36 232Q36 469 255 469Q314 469 351 452T410 405T440 334T448 245V204H142Q144 135 167 104Q197 65 273 65Q325 65 359 77T419 102L441 36Q429 28 409
20T363 5T311 -6T257 -11ZM342 275Q342 341 320 370T253 399Q202 399 178 376T146 305L143 275H342ZM407 685L275 526H177L292 685H407Z" />
<glyph unicode="&#xea;" glyph-name="ecircumflex" horiz-adv-x="485" d="M257 -11Q195 -11 153 4T84 49T47 125T36 232Q36 469 255 469Q314 469 351 452T410 405T440 334T448 245V204H142Q144 135 167 104Q197 65 273 65Q325 65 359 77T419 102L441 36Q429 28
409 20T363 5T311 -6T257 -11ZM342 275Q342 341 320 370T253 399Q202 399 178 376T146 305L143 275H342ZM323 685L427 526H334L261 632H251L174 526H85L191 685H323Z" />
<glyph unicode="&#xeb;" glyph-name="edieresis" horiz-adv-x="485" d="M257 -11Q195 -11 153 4T84 49T47 125T36 232Q36 469 255 469Q314 469 351 452T410 405T440 334T448 245V204H142Q144 135 167 104Q197 65 273 65Q325 65 359 77T419 102L441 36Q429 28 409
20T363 5T311 -6T257 -11ZM342 275Q342 341 320 370T253 399Q202 399 178 376T146 305L143 275H342ZM208 560H107V652H208V560ZM397 560H296V652H397V560Z" />
<glyph unicode="&#xec;" glyph-name="igrave" horiz-adv-x="219" d="M84 685L198 526H101L-30 685H84ZM160 0H58V458H160V0Z" />
<glyph unicode="&#xed;" glyph-name="iacute" horiz-adv-x="219" d="M251 685L119 526H21L136 685H251ZM160 0H58V458H160V0Z" />
<glyph unicode="&#xee;" glyph-name="icircumflex" horiz-adv-x="219" d="M177 689L268 531H180L115 635H105L38 531H-48L45 689H177ZM160 0H58V458H160V0Z" />
<glyph unicode="&#xef;" glyph-name="idieresis" horiz-adv-x="219" d="M73 560H-19V652H73V560ZM234 560H143V652H234V560ZM160 0H58V458H160V0Z" />
<glyph unicode="&#xf0;" glyph-name="eth" horiz-adv-x="518" d="M259 -12Q198 -12 156 4T87 52T48 129T36 231Q36 349 92 408T255 468Q304 468 339 452Q344 450 348 447T357 442Q348 471 331 498Q309 533 268 562L116 489L89 541L204 596Q150 616 74 625L88 697Q132
691 171 682T248 659Q259 654 270 649T292 639L411 697L439 645L350 602Q362 593 372 583Q424 534 452 457T481 268Q481 119 425 54T259 -12ZM340 374Q301 391 265 391Q196 391 169 350T141 223Q141 189 147 160T167 108T203 74T259 61Q295 61 318 75T355 114T374
175T380 255Q380 281 379 306T375 354Q367 359 359 364T340 374Z" />
<glyph unicode="&#xf1;" glyph-name="ntilde" horiz-adv-x="508" d="M145 458L148 422Q175 441 205 451Q257 469 304 469Q349 469 378 458T424 425T447 372T454 301V0H352V279Q352 303 350 323T339 357T315 380T274 388Q245 388 221 380T178 360L160 348V0H58V336L50
458H145ZM83 614Q102 634 131 648T195 662Q215 662 231 657T262 646T291 634T322 629Q346 629 365 638T404 660L434 599Q412 578 384 564T321 550Q300 550 284 555T253 566T224 578T193 583Q170 583 151 574T113 554L83 614Z" />
<glyph unicode="&#xf2;" glyph-name="ograve" horiz-adv-x="517" d="M247 -11Q186 -11 146 5T81 53T46 129T36 231Q36 352 91 410T269 469Q329 469 370 453T435 405T470 328T481 226Q481 105 425 47T247 -11ZM247 62Q322 62 349 105T376 235Q376 268 372 297T355
349T322 385T269 398Q195 398 168 353T141 223Q141 190 145 161T161 109T193 75T247 62ZM231 685L345 526H248L117 685H231Z" />
<glyph unicode="&#xf3;" glyph-name="oacute" horiz-adv-x="517" d="M247 -11Q186 -11 146 5T81 53T46 129T36 231Q36 352 91 410T269 469Q329 469 370 453T435 405T470 328T481 226Q481 105 425 47T247 -11ZM247 62Q322 62 349 105T376 235Q376 268 372 297T355
349T322 385T269 398Q195 398 168 353T141 223Q141 190 145 161T161 109T193 75T247 62ZM420 685L288 526H190L305 685H420Z" />
<glyph unicode="&#xf4;" glyph-name="ocircumflex" horiz-adv-x="517" d="M247 -11Q186 -11 146 5T81 53T46 129T36 231Q36 352 91 410T269 469Q329 469 370 453T435 405T470 328T481 226Q481 105 425 47T247 -11ZM247 62Q322 62 349 105T376 235Q376 268 372
297T355 349T322 385T269 398Q195 398 168 353T141 223Q141 190 145 161T161 109T193 75T247 62ZM330 685L434 526H341L268 632H258L181 526H92L198 685H330Z" />
<glyph unicode="&#xf5;" glyph-name="otilde" horiz-adv-x="517" d="M247 -11Q186 -11 146 5T81 53T46 129T36 231Q36 352 91 410T269 469Q329 469 370 453T435 405T470 328T481 226Q481 105 425 47T247 -11ZM247 62Q322 62 349 105T376 235Q376 268 372 297T355
349T322 385T269 398Q195 398 168 353T141 223Q141 190 145 161T161 109T193 75T247 62ZM91 614Q110 634 139 648T203 662Q223 662 239 657T270 646T299 634T330 629Q354 629 373 638T412 660L442 599Q420 578 392 564T329 550Q308 550 292 555T261 566T232 578T201
583Q178 583 159 574T121 554L91 614Z" />
<glyph unicode="&#xf6;" glyph-name="odieresis" horiz-adv-x="517" d="M247 -11Q186 -11 146 5T81 53T46 129T36 231Q36 352 91 410T269 469Q329 469 370 453T435 405T470 328T481 226Q481 105 425 47T247 -11ZM247 62Q322 62 349 105T376 235Q376 268 372 297T355
349T322 385T269 398Q195 398 168 353T141 223Q141 190 145 161T161 109T193 75T247 62ZM218 560H117V652H218V560ZM407 560H306V652H407V560Z" />
<glyph unicode="&#xf7;" glyph-name="divide" horiz-adv-x="533" d="M321 367H213V470H321V367ZM213 164H321V61H213V164ZM58 307H474V224H58V307Z" />
<glyph unicode="&#xf8;" glyph-name="oslash" horiz-adv-x="517" d="M247 -12Q175 -12 132 12L88 -42L22 13L69 69Q51 100 44 140T36 231Q36 352 91 411T269 470Q337 470 382 445L428 499L494 445L446 388Q465 357 473 317T481 226Q481 105 425 47T247 -12ZM247
56Q323 56 351 101T380 235Q380 253 379 271T372 304L181 76Q193 67 209 62T247 56ZM269 402Q194 402 165 356T136 223Q136 184 144 154L335 381Q309 402 269 402Z" />
<glyph unicode="&#xf9;" glyph-name="ugrave" horiz-adv-x="505" d="M446 122L455 0H360L355 36Q342 27 328 20T300 8Q250 -11 201 -11Q156 -11 128 0T83 33T60 86T53 157V458H156V178Q156 155 158 135T169 101T192 78T233 69Q261 69 284 76T327 96Q335 102 344
108V458H446V122ZM194 685L308 526H211L80 685H194Z" />
<glyph unicode="&#xfa;" glyph-name="uacute" horiz-adv-x="505" d="M446 122L455 0H360L355 36Q342 27 328 20T300 8Q250 -11 201 -11Q156 -11 128 0T83 33T60 86T53 157V458H156V178Q156 155 158 135T169 101T192 78T233 69Q261 69 284 76T327 96Q335 102 344
108V458H446V122ZM428 685L296 526H198L313 685H428Z" />
<glyph unicode="&#xfb;" glyph-name="ucircumflex" horiz-adv-x="505" d="M446 122L455 0H360L355 36Q342 27 328 20T300 8Q250 -11 201 -11Q156 -11 128 0T83 33T60 86T53 157V458H156V178Q156 155 158 135T169 101T192 78T233 69Q261 69 284 76T327 96Q335 102
344 108V458H446V122ZM320 685L424 526H331L258 632H248L171 526H82L188 685H320Z" />
<glyph unicode="&#xfc;" glyph-name="udieresis" horiz-adv-x="505" d="M446 122L455 0H360L355 36Q342 27 328 20T300 8Q250 -11 201 -11Q156 -11 128 0T83 33T60 86T53 157V458H156V178Q156 155 158 135T169 101T192 78T233 69Q261 69 284 76T327 96Q335 102
344 108V458H446V122ZM208 560H107V652H208V560ZM397 560H296V652H397V560Z" />
<glyph unicode="&#xfd;" glyph-name="yacute" horiz-adv-x="454" d="M3 458H116L230 120H239L347 458H451L273 -32Q257 -76 241 -111T201 -172T144 -212T62 -226Q48 -226 33 -226T5 -220L18 -148Q33 -152 54 -152Q89 -152 108 -141T139 -114Q151 -96 163 -64T186
-3L3 458ZM406 685L274 526H176L291 685H406Z" />
<glyph unicode="&#xfe;" glyph-name="thorn" horiz-adv-x="509" d="M160 84Q167 80 173 77T186 71Q213 63 237 63Q297 63 332 102T367 234Q367 269 361 298T341 349T305 382T250 394Q213 394 185 378Q179 375 173 371T160 361V84ZM160 9V-209L57 -222V680L160
693V437Q179 447 199 455Q238 469 283 469Q380 469 426 409T473 239Q473 184 461 138T423 59T355 8T253 -11Q219 -11 191 -2Q178 1 166 6Q163 7 160 9Z" />
<glyph unicode="&#xff;" glyph-name="ydieresis" horiz-adv-x="454" d="M3 458H116L230 120H239L347 458H451L273 -32Q257 -76 241 -111T201 -172T144 -212T62 -226Q48 -226 33 -226T5 -220L18 -148Q33 -152 54 -152Q89 -152 108 -141T139 -114Q151 -96 163 -64T186
-3L3 458ZM186 560H85V652H186V560ZM375 560H274V652H375V560Z" />
<glyph unicode="&#x100;" glyph-name="Amacron" horiz-adv-x="633" d="M510 0L448 182H180L118 0H6L245 659H389L625 0H510ZM310 576L208 266H419L318 576H310ZM467 768H167V847H467V768Z" />
<glyph unicode="&#x101;" glyph-name="amacron" horiz-adv-x="472" d="M459 -1Q442 -4 421 -4Q385 -4 363 8T329 44Q304 22 265 6T182 -11Q136 -11 107 0T61 31T38 77T31 132Q31 176 45 204T86 248T150 270T231 276Q272 276 313 273V295Q313 349 292 371T213 394Q173
394 137 384T73 360L50 425Q87 443 136 456T239 469Q289 469 323 460T377 428T407 369T416 278V125Q416 93 427 82T459 70V-1ZM229 205Q177 205 158 188T138 135Q138 99 153 81T209 62Q234 62 262 73T313 103V200Q291 204 271 204T229 205ZM392 568H92V647H392V568Z"
/>
<glyph unicode="&#x102;" glyph-name="Abreve" horiz-adv-x="633" d="M510 0L448 182H180L118 0H6L245 659H389L625 0H510ZM310 576L208 266H419L318 576H310ZM473 884Q473 803 436 762T314 720Q229 720 193 761T156 884H235Q238 841 254 815T314 789Q358 789
374 815T394 884H473Z" />
<glyph unicode="&#x103;" glyph-name="abreve" horiz-adv-x="472" d="M459 -1Q442 -4 421 -4Q385 -4 363 8T329 44Q304 22 265 6T182 -11Q136 -11 107 0T61 31T38 77T31 132Q31 176 45 204T86 248T150 270T231 276Q272 276 313 273V295Q313 349 292 371T213 394Q173
394 137 384T73 360L50 425Q87 443 136 456T239 469Q289 469 323 460T377 428T407 369T416 278V125Q416 93 427 82T459 70V-1ZM229 205Q177 205 158 188T138 135Q138 99 153 81T209 62Q234 62 262 73T313 103V200Q291 204 271 204T229 205ZM389 685Q389 604 352
563T230 521Q145 521 109 562T72 685H151Q154 642 170 616T230 590Q274 590 290 616T310 685H389Z" />
<glyph unicode="&#x104;" glyph-name="Aogonek" horiz-adv-x="633" d="M310 576L208 266H419L318 576H310ZM625 0Q593 -13 559 -35Q533 -54 524 -71T515 -110Q515 -156 564 -156Q593 -156 615 -148L634 -206Q615 -214 589 -219T536 -224Q473 -224 446 -201T418
-127Q418 -92 435 -64T503 -5Q508 -3 514 0H510L448 182H180L118 0H6L245 659H389L625 0Z" />
<glyph unicode="&#x105;" glyph-name="aogonek" horiz-adv-x="472" d="M229 205Q177 205 158 188T138 135Q138 99 153 81T209 62Q234 62 262 73T313 103V200Q291 204 271 204T229 205ZM459 -1Q441 -11 426 -20T396 -40Q374 -58 367 -74T359 -110Q359 -156 408
-156Q437 -156 459 -148L478 -206Q459 -214 433 -219T379 -224Q316 -224 289 -201T261 -127Q261 -90 280 -62T351 -5Q361 0 371 4Q367 6 363 9Q341 21 329 44Q304 22 265 6T182 -11Q136 -11 107 0T61 31T38 77T31 132Q31 176 45 204T86 248T150 270T231 276Q272
276 313 273V295Q313 349 292 371T213 394Q173 394 137 384T73 360L50 425Q87 443 136 456T239 469Q289 469 323 460T377 428T407 369T416 278V125Q416 93 427 82T459 70V-1Z" />
<glyph unicode="&#x106;" glyph-name="Cacute" horiz-adv-x="597" d="M337 -11Q182 -10 113 75T44 329Q44 504 122 586T346 669Q376 669 407 664T466 648T519 621T562 582L500 521Q472 552 437 569T349 586Q246 586 199 519T152 320Q152 200 197 139T342 78Q402
78 449 90T534 119L559 38Q519 17 460 3T337 -11ZM512 885L380 726H282L397 885H512Z" />
<glyph unicode="&#x107;" glyph-name="cacute" horiz-adv-x="447" d="M418 28Q395 13 353 1T259 -11Q198 -11 156 4T87 49T48 122T36 222Q36 348 97 408T276 469Q324 469 364 454T428 411L369 354Q333 395 274 395Q208 395 174 355T140 221Q140 147 169 105T269
63Q309 63 338 71T398 95L418 28ZM405 685L273 526H175L290 685H405Z" />
<glyph unicode="&#x108;" glyph-name="Ccircumflex" horiz-adv-x="597" d="M337 -11Q182 -10 113 75T44 329Q44 504 122 586T346 669Q376 669 407 664T466 648T519 621T562 582L500 521Q472 552 437 569T349 586Q246 586 199 519T152 320Q152 200 197 139T342
78Q402 78 449 90T534 119L559 38Q519 17 460 3T337 -11ZM407 885L511 726H418L345 832H335L258 726H169L275 885H407Z" />
<glyph unicode="&#x109;" glyph-name="ccircumflex" horiz-adv-x="447" d="M418 28Q395 13 353 1T259 -11Q198 -11 156 4T87 49T48 122T36 222Q36 348 97 408T276 469Q324 469 364 454T428 411L369 354Q333 395 274 395Q208 395 174 355T140 221Q140 147 169 105T269
63Q309 63 338 71T398 95L418 28ZM324 685L428 526H335L262 632H252L175 526H86L192 685H324Z" />
<glyph unicode="&#x10a;" glyph-name="Cdotaccent" horiz-adv-x="597" d="M337 -11Q182 -10 113 75T44 329Q44 504 122 586T346 669Q376 669 407 664T466 648T519 621T562 582L500 521Q472 552 437 569T349 586Q246 586 199 519T152 320Q152 200 197 139T342 78Q402
78 449 90T534 119L559 38Q519 17 460 3T337 -11ZM388 760H284V852H388V760Z" />
<glyph unicode="&#x10b;" glyph-name="cdotaccent" horiz-adv-x="447" d="M418 28Q395 13 353 1T259 -11Q198 -11 156 4T87 49T48 122T36 222Q36 348 97 408T276 469Q324 469 364 454T428 411L369 354Q333 395 274 395Q208 395 174 355T140 221Q140 147 169 105T269
63Q309 63 338 71T398 95L418 28ZM309 560H205V652H309V560Z" />
<glyph unicode="&#x10c;" glyph-name="Ccaron" horiz-adv-x="597" d="M337 -11Q182 -10 113 75T44 329Q44 504 122 586T346 669Q376 669 407 664T466 648T519 621T562 582L500 521Q472 552 437 569T349 586Q246 586 199 519T152 320Q152 200 197 139T342 78Q402
78 449 90T534 119L559 38Q519 17 460 3T337 -11ZM275 726L171 885H263L337 780H347L424 885H513L406 726H275Z" />
<glyph unicode="&#x10d;" glyph-name="ccaron" horiz-adv-x="447" d="M418 28Q395 13 353 1T259 -11Q198 -11 156 4T87 49T48 122T36 222Q36 348 97 408T276 469Q324 469 364 454T428 411L369 354Q333 395 274 395Q208 395 174 355T140 221Q140 147 169 105T269
63Q309 63 338 71T398 95L418 28ZM196 526L92 685H184L258 580H268L345 685H434L327 526H196Z" />
<glyph unicode="&#x10e;" glyph-name="Dcaron" horiz-adv-x="647" d="M271 659Q350 659 411 641T515 584T580 481T602 327Q602 234 575 171T501 70T388 16T245 0H71V659H271ZM242 83Q301 83 347 95T426 136T476 214T493 338Q493 461 436 518T270 575H175V83H242ZM235
726L131 885H223L297 780H307L384 885H473L366 726H235Z" />
<glyph unicode="&#x10f;" glyph-name="dcaron" horiz-adv-x="638" d="M576 522H506L534 690H635L576 522ZM226 -11Q127 -11 82 49T36 219Q36 274 48 320T86 399T154 450T256 469Q290 469 317 460Q331 456 349 448V680L451 693V120L459 0H370L362 30Q337 13 310
2Q274 -11 226 -11ZM323 387Q296 395 272 395Q211 395 177 356T142 224Q142 189 148 160T167 109T203 76T258 64Q297 64 323 80Q330 84 336 89T349 99V374Q342 378 336 381T323 387Z" />
<glyph unicode="&#x110;" glyph-name="Dcroat" horiz-adv-x="658" d="M186 375H331V291H186V83H253Q312 83 358 95T437 136T487 214T504 338Q504 461 447 518T281 575H186V375ZM82 291H15V375H82V659H282Q361 659 422 641T526 584T591 481T613 327Q613 234 586
171T512 70T399 16T256 0H82V291Z" />
<glyph unicode="&#x111;" glyph-name="" horiz-adv-x="513" d="M323 387Q296 395 272 395Q211 395 177 356T142 224Q142 189 148 160T167 109T203 76T258 64Q297 64 323 80Q330 84 336 89T349 99V374Q342 378 336 381T323 387ZM451 601H524V529H451V120L459 0H370L362
30Q337 13 310 2Q274 -11 226 -11Q127 -11 82 49T36 219Q36 274 48 320T86 399T154 450T256 469Q290 469 317 460Q331 456 349 448V529H229V601H349V680L451 693V601Z" />
<glyph unicode="&#x112;" glyph-name="Emacron" horiz-adv-x="542" d="M490 83V0H71V659H479V575H175V380H469V298H175V83H490ZM427 768H127V847H427V768Z" />
<glyph unicode="&#x113;" glyph-name="emacron" horiz-adv-x="485" d="M257 -11Q195 -11 153 4T84 49T47 125T36 232Q36 469 255 469Q314 469 351 452T410 405T440 334T448 245V204H142Q144 135 167 104Q197 65 273 65Q325 65 359 77T419 102L441 36Q429 28 409
20T363 5T311 -6T257 -11ZM342 275Q342 341 320 370T253 399Q202 399 178 376T146 305L143 275H342ZM403 568H103V647H403V568Z" />
<glyph unicode="&#x114;" glyph-name="Ebreve" horiz-adv-x="542" d="M490 83V0H71V659H479V575H175V380H469V298H175V83H490ZM436 884Q436 803 399 762T277 720Q192 720 156 761T119 884H198Q201 841 217 815T277 789Q321 789 337 815T357 884H436Z" />
<glyph unicode="&#x115;" glyph-name="ebreve" horiz-adv-x="485" d="M257 -11Q195 -11 153 4T84 49T47 125T36 232Q36 469 255 469Q314 469 351 452T410 405T440 334T448 245V204H142Q144 135 167 104Q197 65 273 65Q325 65 359 77T419 102L441 36Q429 28 409
20T363 5T311 -6T257 -11ZM342 275Q342 341 320 370T253 399Q202 399 178 376T146 305L143 275H342ZM412 685Q412 604 375 563T253 521Q168 521 132 562T95 685H174Q177 642 193 616T253 590Q297 590 313 616T333 685H412Z" />
<glyph unicode="&#x116;" glyph-name="Edotaccent" horiz-adv-x="542" d="M490 83V0H71V659H479V575H175V380H469V298H175V83H490ZM336 760H232V852H336V760Z" />
<glyph unicode="&#x117;" glyph-name="edotaccent" horiz-adv-x="485" d="M257 -11Q195 -11 153 4T84 49T47 125T36 232Q36 469 255 469Q314 469 351 452T410 405T440 334T448 245V204H142Q144 135 167 104Q197 65 273 65Q325 65 359 77T419 102L441 36Q429 28
409 20T363 5T311 -6T257 -11ZM342 275Q342 341 320 370T253 399Q202 399 178 376T146 305L143 275H342ZM301 560H197V652H301V560Z" />
<glyph unicode="&#x118;" glyph-name="Eogonek" horiz-adv-x="542" d="M389 0H71V659H479V575H175V380H469V298H175V83H490V0H488Q471 -10 456 -19T427 -38Q402 -56 394 -72T386 -110Q386 -156 436 -156Q463 -156 487 -148L505 -206Q487 -214 461 -219T407 -224Q344
-224 317 -201T289 -127Q289 -90 308 -63T379 -5Q384 -2 389 0Z" />
<glyph unicode="&#x119;" glyph-name="eogonek" horiz-adv-x="485" d="M430 -206Q412 -214 386 -219T331 -224Q270 -224 242 -199T213 -126Q213 -80 235 -52Q255 -28 286 -9Q279 -10 272 -10T257 -10Q195 -10 153 5T84 50T47 125T36 232Q36 469 255 469Q314 469
351 452T410 405T440 334T448 245V204H142Q143 129 173 97T273 65Q325 65 359 78T419 103L441 37Q420 26 398 13T357 -14Q335 -32 323 -51T311 -100Q311 -122 322 -139T361 -156Q388 -156 412 -148L430 -206ZM342 275Q342 341 320 370T253 399Q193 399 169 369T143
275H342Z" />
<glyph unicode="&#x11a;" glyph-name="Ecaron" horiz-adv-x="542" d="M490 83V0H71V659H479V575H175V380H469V298H175V83H490ZM212 726L108 885H200L274 780H284L361 885H450L343 726H212Z" />
<glyph unicode="&#x11b;" glyph-name="ecaron" horiz-adv-x="485" d="M257 -11Q195 -11 153 4T84 49T47 125T36 232Q36 469 255 469Q314 469 351 452T410 405T440 334T448 245V204H142Q144 135 167 104Q197 65 273 65Q325 65 359 77T419 102L441 36Q429 28 409
20T363 5T311 -6T257 -11ZM342 275Q342 341 320 370T253 399Q202 399 178 376T146 305L143 275H342ZM185 526L81 685H173L247 580H257L334 685H423L316 526H185Z" />
<glyph unicode="&#x11c;" glyph-name="Gcircumflex" horiz-adv-x="653" d="M586 34Q541 13 481 1T351 -11Q192 -11 118 76T44 329Q44 416 65 480T128 586T227 648T360 669Q432 669 490 648T587 578L523 521Q495 551 457 569T362 588Q253 588 202 520T151 320Q151
197 201 135T356 73Q401 73 437 79Q450 81 461 83T484 89V266H333V348H586V34ZM412 885L516 726H423L350 832H340L263 726H174L280 885H412Z" />
<glyph unicode="&#x11d;" glyph-name="gcircumflex" horiz-adv-x="508" d="M451 458V-16Q451 -75 435 -115T389 -180T318 -215T227 -226Q182 -226 144 -220T77 -203L103 -130Q125 -136 154 -142T224 -149Q251 -149 274 -144T313 -125T339 -88T349 -31V15Q323 3
296 -4T234 -11Q130 -11 83 48T36 217Q36 272 47 318T85 398T154 450T260 469Q294 469 320 462T367 443L372 458H451ZM349 378Q330 386 313 390T275 395Q205 395 174 354T142 220Q142 188 148 160T168 110T206 76T265 63Q287 63 307 68T349 84V378ZM332 685L436
526H343L270 632H260L183 526H94L200 685H332Z" />
<glyph unicode="&#x11e;" glyph-name="Gbreve" horiz-adv-x="653" d="M586 34Q541 13 481 1T351 -11Q192 -11 118 76T44 329Q44 416 65 480T128 586T227 648T360 669Q432 669 490 648T587 578L523 521Q495 551 457 569T362 588Q253 588 202 520T151 320Q151 197
201 135T356 73Q401 73 437 79Q450 81 461 83T484 89V266H333V348H586V34ZM503 884Q503 803 466 762T344 720Q259 720 223 761T186 884H265Q268 841 284 815T344 789Q388 789 404 815T424 884H503Z" />
<glyph unicode="&#x11f;" glyph-name="gbreve" horiz-adv-x="508" d="M451 458V-16Q451 -75 435 -115T389 -180T318 -215T227 -226Q182 -226 144 -220T77 -203L103 -130Q125 -136 154 -142T224 -149Q251 -149 274 -144T313 -125T339 -88T349 -31V15Q323 3 296
-4T234 -11Q130 -11 83 48T36 217Q36 272 47 318T85 398T154 450T260 469Q294 469 320 462T367 443L372 458H451ZM349 378Q330 386 313 390T275 395Q205 395 174 354T142 220Q142 188 148 160T168 110T206 76T265 63Q287 63 307 68T349 84V378ZM414 685Q414 604
377 563T255 521Q170 521 134 562T97 685H176Q179 642 195 616T255 590Q299 590 315 616T335 685H414Z" />
<glyph unicode="&#x120;" glyph-name="Gdotaccent" horiz-adv-x="653" d="M586 34Q541 13 481 1T351 -11Q192 -11 118 76T44 329Q44 416 65 480T128 586T227 648T360 669Q432 669 490 648T587 578L523 521Q495 551 457 569T362 588Q253 588 202 520T151 320Q151
197 201 135T356 73Q401 73 437 79Q450 81 461 83T484 89V266H333V348H586V34ZM401 760H297V852H401V760Z" />
<glyph unicode="&#x121;" glyph-name="gdotaccent" horiz-adv-x="508" d="M451 458V-16Q451 -75 435 -115T389 -180T318 -215T227 -226Q182 -226 144 -220T77 -203L103 -130Q125 -136 154 -142T224 -149Q251 -149 274 -144T313 -125T339 -88T349 -31V15Q323 3
296 -4T234 -11Q130 -11 83 48T36 217Q36 272 47 318T85 398T154 450T260 469Q294 469 320 462T367 443L372 458H451ZM349 378Q330 386 313 390T275 395Q205 395 174 354T142 220Q142 188 148 160T168 110T206 76T265 63Q287 63 307 68T349 84V378ZM310 560H206V652H310V560Z"
/>
<glyph unicode="&#x122;" glyph-name="uni0122" horiz-adv-x="653" d="M586 34Q541 13 481 1T351 -11Q192 -11 118 76T44 329Q44 416 65 480T128 586T227 648T360 669Q432 669 490 648T587 578L523 521Q495 551 457 569T362 588Q253 588 202 520T151 320Q151 197
201 135T356 73Q401 73 437 79Q450 81 461 83T484 89V266H333V348H586V34ZM253 -245Q286 -201 297 -158T308 -55H402Q402 -128 381 -185T314 -294L253 -245Z" />
<glyph unicode="&#x123;" glyph-name="uni0123" horiz-adv-x="508" d="M451 458V-16Q451 -75 435 -115T389 -180T318 -215T227 -226Q182 -226 144 -220T77 -203L103 -130Q125 -136 154 -142T224 -149Q251 -149 274 -144T313 -125T339 -88T349 -31V15Q323 3 296
-4T234 -11Q130 -11 83 48T36 217Q36 272 47 318T85 398T154 450T260 469Q294 469 320 462T367 443L372 458H451ZM349 378Q330 386 313 390T275 395Q205 395 174 354T142 220Q142 188 148 160T168 110T206 76T265 63Q287 63 307 68T349 84V378ZM369 701Q336 657
325 614T314 511H220Q220 584 241 641T308 750L369 701Z" />
<glyph unicode="&#x124;" glyph-name="Hcircumflex" horiz-adv-x="662" d="M590 659V0H486V288H175V0H71V659H175V373H486V659H590ZM400 885L504 726H411L338 832H328L251 726H162L268 885H400Z" />
<glyph unicode="&#x125;" glyph-name="hcircumflex" horiz-adv-x="507" d="M352 0V279Q352 302 350 322T339 356T315 379T274 387Q245 387 221 380T178 360L160 348V0H57V680L160 693V429Q181 442 205 450Q257 468 304 468Q349 468 378 457T424 425T447 372T454
301V0H352ZM179 902L283 743H190L117 849H107L30 743H-59L47 902H179Z" />
<glyph unicode="&#x126;" glyph-name="Hbar" horiz-adv-x="677" d="M596 547H665V470H596V0H492V288H181V0H77V470H11V547H77V659H181V547H492V659H596V547ZM492 470H181V373H492V470Z" />
<glyph unicode="&#x127;" glyph-name="hbar" horiz-adv-x="507" d="M160 601H286V529H160V429Q181 442 205 450Q257 468 304 468Q349 468 378 457T424 425T447 372T454 301V0H352V279Q352 302 350 322T339 356T315 379T274 387Q245 387 221 380T178 360L160 348V0H57V529H-10V601H57V680L160
693V601Z" />
<glyph unicode="&#x128;" glyph-name="Itilde" horiz-adv-x="248" d="M71 659H175V0H71V659ZM-50 814Q-31 834 -2 848T62 862Q82 862 98 857T129 846T158 834T189 829Q213 829 232 838T271 860L301 799Q279 778 251 764T188 750Q167 750 151 755T120 766T91 778T60
783Q37 783 18 774T-20 754L-50 814Z" />
<glyph unicode="&#x129;" glyph-name="itilde" horiz-adv-x="219" d="M245 585Q226 570 206 561T160 552Q142 552 129 556T103 567T79 577T53 582Q32 582 18 576T-10 558L-25 627Q-8 642 13 651T58 661Q77 661 90 657T116 647T139 637T165 632Q185 632 200 637T230
654L245 585ZM160 0H58V458H160V0Z" />
<glyph unicode="&#x12a;" glyph-name="Imacron" horiz-adv-x="248" d="M71 659H175V0H71V659ZM275 768H-25V847H275V768Z" />
<glyph unicode="&#x12b;" glyph-name="imacron" horiz-adv-x="219" d="M58 458H160V0H58V458ZM231 568H-11V647H231V568Z" />
<glyph unicode="&#x12c;" glyph-name="Ibreve" horiz-adv-x="248" d="M71 659H175V0H71V659ZM283 884Q283 803 246 762T124 720Q39 720 3 761T-34 884H45Q48 841 64 815T124 789Q168 789 184 815T204 884H283Z" />
<glyph unicode="&#x12d;" glyph-name="ibreve" horiz-adv-x="219" d="M58 458H160V0H58V458ZM270 685Q270 604 233 563T111 521Q26 521 -10 562T-47 685H32Q35 642 51 616T111 590Q155 590 171 616T191 685H270Z" />
<glyph unicode="&#x12e;" glyph-name="Iogonek" horiz-adv-x="248" d="M173 0Q145 -11 107 -35Q81 -54 72 -71T63 -110Q63 -156 113 -156Q140 -156 164 -148L182 -206Q164 -214 138 -219T84 -224Q23 -224 -5 -201T-34 -128Q-34 -93 -16 -65T53 -8Q60 -4 69 0V659H173V0Z" />
<glyph unicode="&#x12f;" glyph-name="iogonek" horiz-adv-x="219" d="M57 652H161V560H57V652ZM160 0Q145 -6 129 -15T99 -35Q76 -53 67 -71T57 -110Q57 -156 107 -156Q134 -156 158 -148L177 -206Q158 -214 132 -219T78 -224Q15 -224 -12 -201T-40 -127Q-40
-92 -23 -64T44 -5Q50 -2 58 1V458H160V0Z" />
<glyph unicode="&#x130;" glyph-name="Idotaccent" horiz-adv-x="248" d="M71 659H175V0H71V659ZM177 760H73V852H177V760Z" />
<glyph unicode="&#x131;" glyph-name="dotlessi" horiz-adv-x="219" d="M160 0H58V458H160V0Z" />
<glyph unicode="&#x132;" glyph-name="IJ" horiz-adv-x="597" d="M71 659H175V0H71V659ZM423 659H527V195Q527 88 483 42T340 -5Q318 -5 293 -2T245 10L259 88Q278 82 298 80T333 78Q376 78 399 100T423 183V659Z" />
<glyph unicode="&#x133;" glyph-name="ij" horiz-adv-x="437" d="M57 652H161V560H57V652ZM58 458H160V0H58V458ZM195 -151H205Q227 -151 241 -146T262 -130T273 -100T276 -52V458H378V-34Q378 -86 370 -122T342 -182T289 -215T204 -226H195V-151ZM378 562H275V652H378V562Z"
/>
<glyph unicode="&#x134;" glyph-name="Jcircumflex" horiz-adv-x="353" d="M179 659H283V195Q283 88 239 42T96 -5Q74 -5 49 -2T1 10L15 88Q34 82 54 80T89 78Q132 78 155 100T179 183V659ZM300 885L404 726H311L238 832H228L151 726H62L168 885H300Z" />
<glyph unicode="&#x135;" glyph-name="jcircumflex" horiz-adv-x="219" d="M-23 -145H-13Q9 -145 23 -141T44 -125T55 -95T58 -47V458H160V-28Q160 -80 152 -116T124 -176T71 -210T-14 -221H-23V-145ZM177 689L268 531H180L115 635H105L38 531H-48L45 689H177Z" />
<glyph unicode="&#x136;" glyph-name="uni0136" horiz-adv-x="580" d="M175 0H71V659H175V370H229L463 659H582L315 336L571 0H445L229 289H175V0ZM184 -244Q217 -200 228 -157T239 -54H333Q333 -127 312 -184T245 -293L184 -244Z" />
<glyph unicode="&#x137;" glyph-name="uni0137" horiz-adv-x="471" d="M57 0V680L159 693V287H199L356 458H471L279 249L478 0H362L197 209H159V0H57ZM138 -244Q171 -200 182 -157T193 -54H287Q287 -127 266 -184T199 -293L138 -244Z" />
<glyph unicode="&#x138;" glyph-name="kgreenlandic" horiz-adv-x="471" d="M58 0V458H160V276H201L356 458H472L278 238L479 0H363L198 198H160V0H58Z" />
<glyph unicode="&#x139;" glyph-name="Lacute" horiz-adv-x="466" d="M464 83V0H70V659H174V83H464ZM325 885L193 726H95L210 885H325Z" />
<glyph unicode="&#x13a;" glyph-name="lacute" horiz-adv-x="227" d="M209 -3Q207 -4 199 -4Q196 -5 188 -5H179Q109 -5 83 30T57 131V680L159 693V133Q159 92 170 81T209 70V-3ZM287 911L155 752H57L172 911H287Z" />
<glyph unicode="&#x13b;" glyph-name="uni013B" horiz-adv-x="468" d="M465 83V0H71V659H175V83H465ZM147 -245Q180 -201 191 -158T202 -55H296Q296 -128 275 -185T208 -294L147 -245Z" />
<glyph unicode="&#x13c;" glyph-name="uni013C" horiz-adv-x="227" d="M208 -3Q206 -4 198 -4Q195 -5 187 -5H178Q108 -5 82 30T56 131V680L158 693V133Q158 92 169 81T208 70V-3ZM24 -245Q57 -201 68 -158T79 -55H173Q173 -128 152 -185T85 -294L24 -245Z" />
<glyph unicode="&#x13d;" glyph-name="Lcaron" horiz-adv-x="466" d="M307 522H229L257 690H366L307 522ZM463 83V0H69V659H173V83H463Z" />
<glyph unicode="&#x13e;" glyph-name="lcaron" horiz-adv-x="347" d="M286 522H216L244 690H344L286 522ZM209 -3Q207 -4 199 -4Q196 -5 188 -5H179Q109 -5 83 30T57 131V680L159 693V133Q159 92 170 81T209 70V-3Z" />
<glyph unicode="&#x13f;" glyph-name="Ldot" horiz-adv-x="468" d="M465 83V0H71V659H175V83H465ZM393 271H292V363H393V271Z" />
<glyph unicode="&#x140;" glyph-name="ldot" horiz-adv-x="330" d="M209 -3Q207 -4 199 -4Q196 -5 188 -5H179Q109 -5 83 30T57 131V680L159 693V133Q159 92 170 81T209 70V-3ZM313 202H212V294H313V202Z" />
<glyph unicode="&#x141;" glyph-name="Lslash" horiz-adv-x="464" d="M68 245L0 203V288L68 330V659H172V394L311 479V393L172 308V83H462V0H68V245Z" />
<glyph unicode="&#x142;" glyph-name="lslash" horiz-adv-x="257" d="M67 249L-2 200V286L67 335V680L169 693V408L261 473V388L169 322V133Q169 92 180 81T219 70V-3Q217 -4 209 -4Q206 -5 198 -5H189Q119 -5 93 30T67 131V249Z" />
<glyph unicode="&#x143;" glyph-name="Nacute" horiz-adv-x="701" d="M628 659V0H447L184 576H175V0H71V659H253L516 82H524V659H628ZM525 885L393 726H295L410 885H525Z" />
<glyph unicode="&#x144;" glyph-name="nacute" horiz-adv-x="508" d="M145 458L148 422Q175 441 205 451Q257 469 304 469Q349 469 378 458T424 425T447 372T454 301V0H352V279Q352 303 350 323T339 357T315 380T274 388Q245 388 221 380T178 360L160 348V0H58V336L50
458H145ZM398 685L266 526H168L283 685H398Z" />
<glyph unicode="&#x145;" glyph-name="uni0145" horiz-adv-x="701" d="M628 659V0H447L184 576H175V0H71V659H253L516 82H524V659H628ZM243 -244Q276 -200 287 -157T298 -54H392Q392 -127 371 -184T304 -293L243 -244Z" />
<glyph unicode="&#x146;" glyph-name="uni0146" horiz-adv-x="508" d="M145 458L148 422Q175 441 205 451Q257 469 304 469Q349 469 378 458T424 425T447 372T454 301V0H352V279Q352 303 350 323T339 357T315 380T274 388Q245 388 221 380T178 360L160 348V0H58V336L50
458H145ZM156 -244Q189 -200 200 -157T211 -54H305Q305 -127 284 -184T217 -293L156 -244Z" />
<glyph unicode="&#x147;" glyph-name="Ncaron" horiz-adv-x="701" d="M628 659V0H447L184 576H175V0H71V659H253L516 82H524V659H628ZM282 726L178 885H270L344 780H354L431 885H520L413 726H282Z" />
<glyph unicode="&#x148;" glyph-name="ncaron" horiz-adv-x="508" d="M145 458L148 422Q175 441 205 451Q257 469 304 469Q349 469 378 458T424 425T447 372T454 301V0H352V279Q352 303 350 323T339 357T315 380T274 388Q245 388 221 380T178 360L160 348V0H58V336L50
458H145ZM188 526L84 685H176L250 580H260L337 685H426L319 526H188Z" />
<glyph unicode="&#x14a;" glyph-name="Eng" horiz-adv-x="701" d="M628 -28Q628 -80 620 -116T590 -176T532 -210T441 -221H432V-145H441Q486 -145 505 -125T524 -47V0H447L184 576H175V0H71V659H253L516 82H524V659H628V-28Z" />
<glyph unicode="&#x14b;" glyph-name="eng" horiz-adv-x="508" d="M145 458L148 422Q172 439 205 450Q257 468 304 468Q349 468 378 457T424 425T447 372T454 301V-28Q454 -80 446 -116T418 -176T364 -210T279 -221H271V-145H279Q302 -145 316 -141T338 -125T349
-95T352 -47V279Q352 302 350 322T339 356T315 379T274 387Q245 387 221 380T178 360L160 348V0H58V336L50 458H145Z" />
<glyph unicode="&#x14c;" glyph-name="Omacron" horiz-adv-x="665" d="M44 333Q44 505 116 587T343 669Q420 669 473 646T559 578T606 470T621 326Q621 155 548 72T320 -11Q242 -11 190 13T105 81T58 189T44 333ZM512 339Q512 390 505 435T478 515T427 568T344
588Q290 588 253 571T194 520T161 437T151 322Q151 270 158 225T185 146T236 93T317 73Q374 73 411 90T471 140T503 224T512 339ZM480 768H180V847H480V768Z" />
<glyph unicode="&#x14d;" glyph-name="omacron" horiz-adv-x="517" d="M247 -11Q186 -11 146 5T81 53T46 129T36 231Q36 352 91 410T269 469Q329 469 370 453T435 405T470 328T481 226Q481 105 425 47T247 -11ZM247 62Q322 62 349 105T376 235Q376 268 372 297T355
349T322 385T269 398Q195 398 168 353T141 223Q141 190 145 161T161 109T193 75T247 62ZM415 568H115V647H415V568Z" />
<glyph unicode="&#x14e;" glyph-name="Obreve" horiz-adv-x="665" d="M44 333Q44 505 116 587T343 669Q420 669 473 646T559 578T606 470T621 326Q621 155 548 72T320 -11Q242 -11 190 13T105 81T58 189T44 333ZM512 339Q512 390 505 435T478 515T427 568T344
588Q290 588 253 571T194 520T161 437T151 322Q151 270 158 225T185 146T236 93T317 73Q374 73 411 90T471 140T503 224T512 339ZM488 884Q488 803 451 762T329 720Q244 720 208 761T171 884H250Q253 841 269 815T329 789Q373 789 389 815T409 884H488Z" />
<glyph unicode="&#x14f;" glyph-name="obreve" horiz-adv-x="517" d="M247 -11Q186 -11 146 5T81 53T46 129T36 231Q36 352 91 410T269 469Q329 469 370 453T435 405T470 328T481 226Q481 105 425 47T247 -11ZM247 62Q322 62 349 105T376 235Q376 268 372 297T355
349T322 385T269 398Q195 398 168 353T141 223Q141 190 145 161T161 109T193 75T247 62ZM424 685Q424 604 387 563T265 521Q180 521 144 562T107 685H186Q189 642 205 616T265 590Q309 590 325 616T345 685H424Z" />
<glyph unicode="&#x150;" glyph-name="Ohungarumlaut" horiz-adv-x="665" d="M44 333Q44 505 116 587T343 669Q420 669 473 646T559 578T606 470T621 326Q621 155 548 72T320 -11Q242 -11 190 13T105 81T58 189T44 333ZM512 339Q512 390 505 435T478 515T427 568T344
588Q290 588 253 571T194 520T161 437T151 322Q151 270 158 225T185 146T236 93T317 73Q374 73 411 90T471 140T503 224T512 339ZM392 886L260 727H171L285 886H392ZM583 886L450 727H361L475 886H583Z" />
<glyph unicode="&#x151;" glyph-name="ohungarumlaut" horiz-adv-x="517" d="M247 -11Q186 -11 146 5T81 53T46 129T36 231Q36 352 91 410T269 469Q329 469 370 453T435 405T470 328T481 226Q481 105 425 47T247 -11ZM247 62Q322 62 349 105T376 235Q376 268 372
297T355 349T322 385T269 398Q195 398 168 353T141 223Q141 190 145 161T161 109T193 75T247 62ZM323 685L191 526H102L216 685H323ZM514 685L381 526H292L406 685H514Z" />
<glyph unicode="&#x152;" glyph-name="OE" horiz-adv-x="1002" d="M492 339Q492 390 486 435T463 515T415 568T334 588Q280 588 245 571T188 520T159 437T151 322Q151 270 157 225T180 146T227 93T307 73Q364 73 400 90T456 140T484 224T492 339ZM521 77L520 76Q489
33 438 11T310 -11Q232 -11 181 13T100 81T57 189T44 333Q44 504 112 586T333 669Q410 669 458 644Q496 624 521 590V659H939V575H625V380H929V298H625V83H950V0H521V77Z" />
<glyph unicode="&#x153;" glyph-name="oe" horiz-adv-x="824" d="M597 -11Q479 -11 431 49Q428 52 424 60L418 53Q366 -11 247 -11Q186 -11 146 5T81 53T46 129T36 231Q36 352 91 410T269 469Q368 469 419 412L428 400L435 409Q486 469 595 469Q654 469 692 452T751
405T781 334T789 245V204H482Q482 135 507 104Q537 65 613 65Q665 65 699 77T759 102L781 36Q769 28 749 20T703 5T651 -6T597 -11ZM247 62Q322 62 349 105T376 235Q376 268 372 297T355 349T322 385T269 398Q195 398 168 353T141 223Q141 190 145 161T161 109T193
75T247 62ZM682 275Q682 341 661 370T594 399Q525 399 503 357Q485 328 483 275H682Z" />
<glyph unicode="&#x154;" glyph-name="Racute" horiz-adv-x="583" d="M71 0V659H313Q425 659 483 615T541 469Q541 383 494 336Q460 302 416 286L559 0H445L313 270H175V0H71ZM312 352Q364 352 398 378T432 469Q432 526 398 550T312 575H175V352H312ZM444 885L312
726H214L329 885H444Z" />
<glyph unicode="&#x155;" glyph-name="racute" horiz-adv-x="359" d="M142 458L148 403Q171 430 198 444Q244 469 291 469Q313 469 331 465T361 456L335 373Q314 385 279 385Q239 385 205 363Q184 350 162 327V0H60V330L47 458H142ZM349 685L217 526H119L234 685H349Z" />
<glyph unicode="&#x156;" glyph-name="uni0156" horiz-adv-x="583" d="M71 0V659H313Q425 659 483 615T541 469Q541 383 494 336Q460 302 416 286L559 0H445L313 270H175V0H71ZM312 352Q364 352 398 378T432 469Q432 526 398 550T312 575H175V352H312ZM195 -245Q228
-201 239 -158T250 -55H344Q344 -128 323 -185T256 -294L195 -245Z" />
<glyph unicode="&#x157;" glyph-name="uni0157" horiz-adv-x="359" d="M141 458L147 403Q170 430 197 444Q243 469 290 469Q312 469 330 465T360 456L334 373Q313 385 278 385Q238 385 204 363Q183 350 161 327V0H59V330L46 458H141ZM9 -245Q42 -201 53 -158T64
-55H158Q158 -128 137 -185T70 -294L9 -245Z" />
<glyph unicode="&#x158;" glyph-name="Rcaron" horiz-adv-x="583" d="M71 0V659H313Q425 659 483 615T541 469Q541 383 494 336Q460 302 416 286L559 0H445L313 270H175V0H71ZM312 352Q364 352 398 378T432 469Q432 526 398 550T312 575H175V352H312ZM214 726L110
885H202L276 780H286L363 885H452L345 726H214Z" />
<glyph unicode="&#x159;" glyph-name="rcaron" horiz-adv-x="359" d="M142 458L148 403Q171 430 198 444Q244 469 291 469Q313 469 331 465T361 456L335 373Q314 385 279 385Q239 385 205 363Q184 350 162 327V0H60V330L47 458H142ZM120 526L16 685H108L182 580H192L269
685H358L251 526H120Z" />
<glyph unicode="&#x15a;" glyph-name="Sacute" d="M340 248Q320 258 297 267T250 285T201 303T155 324Q128 337 107 351T72 385T51 430T43 490Q43 533 60 566T110 623T186 657T286 669Q340 669 392 659T490 624L454 546Q424 561 381 573T286 586Q217 586 183 563T148
497Q148 465 166 445T212 411Q248 393 297 376T391 337Q414 325 434 312T468 279T491 234T500 172Q500 128 483 94T433 37T356 2T255 -11Q198 -11 141 1T36 39L75 118Q120 96 162 86T252 75Q328 75 362 100T396 166Q396 196 380 216T340 248ZM446 885L314 726H216L331
885H446Z" />
<glyph unicode="&#x15b;" glyph-name="sacute" horiz-adv-x="433" d="M193 289Q201 285 215 280T243 270L300 251Q343 239 372 211T402 129Q402 57 351 23T205 -11Q153 -11 110 -3T31 22L63 96Q119 65 205 65Q247 65 274 76T302 119Q302 155 244 177Q217 185 188
194T135 213Q94 227 66 254T38 333Q38 369 53 394T94 436T155 461T230 469Q285 469 325 461T398 439L366 365Q310 394 230 394Q181 394 158 380T135 343Q135 325 148 313T193 289ZM389 685L257 526H159L274 685H389Z" />
<glyph unicode="&#x15c;" glyph-name="Scircumflex" d="M340 248Q320 258 297 267T250 285T201 303T155 324Q128 337 107 351T72 385T51 430T43 490Q43 533 60 566T110 623T186 657T286 669Q340 669 392 659T490 624L454 546Q424 561 381 573T286 586Q217 586
183 563T148 497Q148 465 166 445T212 411Q248 393 297 376T391 337Q414 325 434 312T468 279T491 234T500 172Q500 128 483 94T433 37T356 2T255 -11Q198 -11 141 1T36 39L75 118Q120 96 162 86T252 75Q328 75 362 100T396 166Q396 196 380 216T340 248ZM345 885L449
726H356L283 832H273L196 726H107L213 885H345Z" />
<glyph unicode="&#x15d;" glyph-name="scircumflex" horiz-adv-x="433" d="M193 289Q201 285 215 280T243 270L300 251Q343 239 372 211T402 129Q402 57 351 23T205 -11Q153 -11 110 -3T31 22L63 96Q119 65 205 65Q247 65 274 76T302 119Q302 155 244 177Q217
185 188 194T135 213Q94 227 66 254T38 333Q38 369 53 394T94 436T155 461T230 469Q285 469 325 461T398 439L366 365Q310 394 230 394Q181 394 158 380T135 343Q135 325 148 313T193 289ZM296 685L400 526H307L234 632H224L147 526H58L164 685H296Z" />
<glyph unicode="&#x15e;" glyph-name="Scedilla" d="M340 248Q320 258 297 267T250 285T201 303T155 324Q128 337 107 351T72 385T51 430T43 490Q43 533 60 566T110 623T186 657T286 669Q340 669 392 659T490 624L454 546Q424 561 381 573T286 586Q217 586 183
563T148 497Q148 465 166 445T212 411Q248 393 297 376T391 337Q414 325 434 312T468 279T491 234T500 172Q500 128 483 94T433 37T356 2T255 -11Q198 -11 141 1T36 39L75 118Q120 96 162 86T252 75Q328 75 362 100T396 166Q396 196 380 216T340 248ZM163 -149Q180
-155 196 -158T230 -161Q259 -161 274 -153T289 -122Q289 -95 269 -86T192 -71L213 -17Q301 -22 342 -44T384 -121Q384 -178 350 -202T241 -226Q212 -226 185 -221T139 -208L163 -149Z" />
<glyph unicode="&#x15f;" glyph-name="scedilla" horiz-adv-x="433" d="M193 289Q201 285 215 280T243 270L300 251Q343 239 372 211T402 129Q402 57 351 23T205 -11Q153 -11 110 -3T31 22L63 96Q119 65 205 65Q247 65 274 76T302 119Q302 155 244 177Q217 185
188 194T135 213Q94 227 66 254T38 333Q38 369 53 394T94 436T155 461T230 469Q285 469 325 461T398 439L366 365Q310 394 230 394Q181 394 158 380T135 343Q135 325 148 313T193 289ZM117 -149Q134 -155 150 -158T184 -161Q213 -161 228 -153T243 -122Q243 -95
223 -86T146 -71L167 -17Q255 -22 296 -44T338 -121Q338 -178 304 -202T195 -226Q166 -226 139 -221T93 -208L117 -149Z" />
<glyph unicode="&#x160;" glyph-name="Scaron" d="M340 248Q320 258 297 267T250 285T201 303T155 324Q128 337 107 351T72 385T51 430T43 490Q43 533 60 566T110 623T186 657T286 669Q340 669 392 659T490 624L454 546Q424 561 381 573T286 586Q217 586 183 563T148
497Q148 465 166 445T212 411Q248 393 297 376T391 337Q414 325 434 312T468 279T491 234T500 172Q500 128 483 94T433 37T356 2T255 -11Q198 -11 141 1T36 39L75 118Q120 96 162 86T252 75Q328 75 362 100T396 166Q396 196 380 216T340 248ZM207 726L103 885H195L269
780H279L356 885H445L338 726H207Z" />
<glyph unicode="&#x161;" glyph-name="scaron" horiz-adv-x="433" d="M193 289Q201 285 215 280T243 270L300 251Q343 239 372 211T402 129Q402 57 351 23T205 -11Q153 -11 110 -3T31 22L63 96Q119 65 205 65Q247 65 274 76T302 119Q302 155 244 177Q217 185 188
194T135 213Q94 227 66 254T38 333Q38 369 53 394T94 436T155 461T230 469Q285 469 325 461T398 439L366 365Q310 394 230 394Q181 394 158 380T135 343Q135 325 148 313T193 289ZM156 526L52 685H144L218 580H228L305 685H394L287 526H156Z" />
<glyph unicode="&#x162;" glyph-name="uni0162" horiz-adv-x="512" d="M509 659V575H308V0H204V575H3V659H509ZM148 -149Q165 -155 181 -158T215 -161Q244 -161 259 -153T274 -122Q274 -95 254 -86T177 -71L198 -17Q286 -22 327 -44T369 -121Q369 -178 335 -202T226
-226Q197 -226 170 -221T124 -208L148 -149Z" />
<glyph unicode="&#x163;" glyph-name="uni0163" horiz-adv-x="385" d="M192 380V174Q192 151 194 132T203 98T225 77T266 69Q290 69 312 74T354 89L372 19Q307 -11 234 -11Q189 -11 161 0T118 33T96 83T90 147V380H12V448L89 457V549L192 567V458H356V380H192ZM114
-149Q131 -155 147 -158T181 -161Q210 -161 225 -153T240 -122Q240 -95 220 -86T143 -71L164 -17Q252 -22 293 -44T335 -121Q335 -178 301 -202T192 -226Q163 -226 136 -221T90 -208L114 -149Z" />
<glyph unicode="&#x164;" glyph-name="Tcaron" horiz-adv-x="523" d="M514 659V575H313V0H209V575H8V659H514ZM197 726L93 885H185L259 780H269L346 885H435L328 726H197Z" />
<glyph unicode="&#x165;" glyph-name="tcaron" horiz-adv-x="385" d="M325 522H255L282 690H385L325 522ZM192 380V174Q192 151 194 132T203 98T225 77T266 69Q290 69 312 74T354 89L372 19Q307 -11 234 -11Q189 -11 161 0T118 33T96 83T90 147V380H12V448L89
457V549L192 567V458H356V380H192Z" />
<glyph unicode="&#x166;" glyph-name="Tbar" horiz-adv-x="512" d="M204 298H37V380H204V575H3V659H509V575H308V380H474V298H308V0H204V298Z" />
<glyph unicode="&#x167;" glyph-name="tbar" horiz-adv-x="385" d="M90 208H13V283H90V380H12V448L89 457V549L192 567V458H356V380H192V283H351V208H192V174Q192 151 194 132T203 98T225 77T266 69Q290 69 312 74T354 89L372 19Q307 -11 234 -11Q189 -11 161
0T118 33T96 83T90 147V208Z" />
<glyph unicode="&#x168;" glyph-name="Utilde" horiz-adv-x="634" d="M570 659V253Q570 113 503 51T309 -11Q183 -11 124 52T64 260V659H168V245Q168 162 199 117T308 71Q351 71 381 81T430 114T457 173T466 261V659H570ZM141 814Q160 834 189 848T253 862Q273
862 289 857T320 846T349 834T380 829Q404 829 423 838T462 860L492 799Q470 778 442 764T379 750Q358 750 342 755T311 766T282 778T251 783Q228 783 209 774T171 754L141 814Z" />
<glyph unicode="&#x169;" glyph-name="utilde" horiz-adv-x="505" d="M446 122L455 0H360L355 36Q342 27 328 20T300 8Q250 -11 201 -11Q156 -11 128 0T83 33T60 86T53 157V458H156V178Q156 155 158 135T169 101T192 78T233 69Q261 69 284 76T327 96Q335 102 344
108V458H446V122ZM79 614Q98 634 127 648T191 662Q211 662 227 657T258 646T287 634T318 629Q342 629 361 638T400 660L430 599Q408 578 380 564T317 550Q296 550 280 555T249 566T220 578T189 583Q166 583 147 574T109 554L79 614Z" />
<glyph unicode="&#x16a;" glyph-name="Umacron" horiz-adv-x="634" d="M570 659V253Q570 113 503 51T309 -11Q183 -11 124 52T64 260V659H168V245Q168 162 199 117T308 71Q351 71 381 81T430 114T457 173T466 261V659H570ZM466 768H166V847H466V768Z" />
<glyph unicode="&#x16b;" glyph-name="umacron" horiz-adv-x="505" d="M446 122L455 0H360L355 36Q342 27 328 20T300 8Q250 -11 201 -11Q156 -11 128 0T83 33T60 86T53 157V458H156V178Q156 155 158 135T169 101T192 78T233 69Q261 69 284 76T327 96Q335 102
344 108V458H446V122ZM402 568H102V647H402V568Z" />
<glyph unicode="&#x16c;" glyph-name="Ubreve" horiz-adv-x="634" d="M570 659V253Q570 113 503 51T309 -11Q183 -11 124 52T64 260V659H168V245Q168 162 199 117T308 71Q351 71 381 81T430 114T457 173T466 261V659H570ZM474 884Q474 803 437 762T315 720Q230
720 194 761T157 884H236Q239 841 255 815T315 789Q359 789 375 815T395 884H474Z" />
<glyph unicode="&#x16d;" glyph-name="ubreve" horiz-adv-x="505" d="M446 122L455 0H360L355 36Q342 27 328 20T300 8Q250 -11 201 -11Q156 -11 128 0T83 33T60 86T53 157V458H156V178Q156 155 158 135T169 101T192 78T233 69Q261 69 284 76T327 96Q335 102 344
108V458H446V122ZM408 685Q408 604 371 563T249 521Q164 521 128 562T91 685H170Q173 642 189 616T249 590Q293 590 309 616T329 685H408Z" />
<glyph unicode="&#x16e;" glyph-name="Uring" horiz-adv-x="634" d="M570 659V253Q570 113 503 51T309 -11Q183 -11 124 52T64 260V659H168V245Q168 162 199 117T308 71Q351 71 381 81T430 114T457 173T466 261V659H570ZM312 709Q254 709 231 737T207 811Q207
860 236 886T322 913Q380 913 404 884T428 810Q428 761 399 735T312 709ZM315 767Q361 767 361 811Q361 854 320 854Q272 854 272 810Q272 789 282 778T315 767Z" />
<glyph unicode="&#x16f;" glyph-name="uring" horiz-adv-x="505" d="M446 122L455 0H360L355 36Q342 27 328 20T300 8Q250 -11 201 -11Q156 -11 128 0T83 33T60 86T53 157V458H156V178Q156 155 158 135T169 101T192 78T233 69Q261 69 284 76T327 96Q335 102 344
108V458H446V122ZM246 510Q188 510 165 538T141 612Q141 661 170 687T256 714Q314 714 338 685T362 611Q362 562 333 536T246 510ZM249 568Q295 568 295 612Q295 655 254 655Q206 655 206 611Q206 590 216 579T249 568Z" />
<glyph unicode="&#x170;" glyph-name="Uhungarumlaut" horiz-adv-x="634" d="M570 659V253Q570 113 503 51T309 -11Q183 -11 124 52T64 260V659H168V245Q168 162 199 117T308 71Q351 71 381 81T430 114T457 173T466 261V659H570ZM369 886L237 727H148L262 886H369ZM560
886L427 727H338L452 886H560Z" />
<glyph unicode="&#x171;" glyph-name="uhungarumlaut" horiz-adv-x="505" d="M446 122L455 0H360L355 36Q342 27 328 20T300 8Q250 -11 201 -11Q156 -11 128 0T83 33T60 86T53 157V458H156V178Q156 155 158 135T169 101T192 78T233 69Q261 69 284 76T327 96Q335
102 344 108V458H446V122ZM316 685L184 526H95L209 685H316ZM507 685L374 526H285L399 685H507Z" />
<glyph unicode="&#x172;" glyph-name="Uogonek" horiz-adv-x="634" d="M431 8Q421 2 405 -5Q383 -15 366 -28Q344 -47 336 -64T328 -103Q328 -126 340 -141T378 -156Q405 -156 429 -148L447 -206Q429 -214 403 -219T350 -224Q287 -224 260 -199T232 -126Q232 -84
253 -56Q270 -34 307 -11Q183 -11 124 53Q64 116 64 260V659H168V245Q168 162 199 117T308 71Q351 71 381 81T430 114T457 173T466 261V659H570V253Q570 113 503 51Q473 24 431 8Z" />
<glyph unicode="&#x173;" glyph-name="uogonek" horiz-adv-x="505" d="M360 2L355 36Q342 27 328 20T300 8Q250 -11 201 -11Q156 -11 128 0T83 33T60 86T53 157V458H156V178Q156 155 158 135T169 101T192 78T233 69Q261 69 284 76T327 96Q335 102 344 108V458H446V122L455
0H454Q437 -10 422 -19T393 -38Q368 -56 360 -72T352 -110Q352 -156 402 -156Q429 -156 453 -148L471 -206Q453 -214 427 -219T373 -224Q310 -224 283 -201T255 -127Q255 -90 274 -63T345 -5Q352 -1 360 2Z" />
<glyph unicode="&#x174;" glyph-name="Wcircumflex" horiz-adv-x="923" d="M919 659L747 0H594L467 576H458L337 0H182L4 659H118L257 82H265L386 659H544L668 82H677L810 659H919ZM530 885L634 726H541L468 832H458L381 726H292L398 885H530Z" />
<glyph unicode="&#x175;" glyph-name="wcircumflex" horiz-adv-x="711" d="M428 458L502 73H510L600 458H702L576 0H433L360 386H350L275 0H129L9 458H115L201 73H210L285 458H428ZM422 685L526 526H433L360 632H350L273 526H184L290 685H422Z" />
<glyph unicode="&#x176;" glyph-name="Ycircumflex" horiz-adv-x="575" d="M339 282V0H235V281Q223 300 204 330T162 396T116 470T70 545T30 610T-1 659H121L284 378H292L455 659H575L339 282ZM355 885L459 726H366L293 832H283L206 726H117L223 885H355Z" />
<glyph unicode="&#x177;" glyph-name="ycircumflex" horiz-adv-x="454" d="M3 458H116L230 120H239L347 458H451L273 -32Q257 -76 241 -111T201 -172T144 -212T62 -226Q48 -226 33 -226T5 -220L18 -148Q33 -152 54 -152Q89 -152 108 -141T139 -114Q151 -96 163
-64T186 -3L3 458ZM301 685L405 526H312L239 632H229L152 526H63L169 685H301Z" />
<glyph unicode="&#x178;" glyph-name="Ydieresis" horiz-adv-x="575" d="M339 282V0H235V281Q223 300 204 330T162 396T116 470T70 545T30 610T-1 659H121L284 378H292L455 659H575L339 282ZM244 750H143V842H244V750ZM433 750H332V842H433V750Z" />
<glyph unicode="&#x179;" glyph-name="Zacute" horiz-adv-x="550" d="M520 591L153 83H519V0H25V67L392 576H49V659H520V591ZM455 885L323 726H225L340 885H455Z" />
<glyph unicode="&#x17a;" glyph-name="zacute" horiz-adv-x="446" d="M420 396L147 78H422V0H25V62L297 380H36V458H420V396ZM394 685L262 526H164L279 685H394Z" />
<glyph unicode="&#x17b;" glyph-name="Zdotaccent" horiz-adv-x="550" d="M520 591L153 83H519V0H25V67L392 576H49V659H520V591ZM341 751H237V843H341V751Z" />
<glyph unicode="&#x17c;" glyph-name="zdotaccent" horiz-adv-x="446" d="M420 396L147 78H422V0H25V62L297 380H36V458H420V396ZM287 560H183V652H287V560Z" />
<glyph unicode="&#x17d;" glyph-name="Zcaron" horiz-adv-x="550" d="M520 591L153 83H519V0H25V67L392 576H49V659H520V591ZM227 726L123 885H215L289 780H299L376 885H465L358 726H227Z" />
<glyph unicode="&#x17e;" glyph-name="zcaron" horiz-adv-x="446" d="M420 396L147 78H422V0H25V62L297 380H36V458H420V396ZM168 526L64 685H156L230 580H240L317 685H406L299 526H168Z" />
<glyph unicode="&#x192;" glyph-name="florin" horiz-adv-x="419" d="M224 -45Q224 -96 212 -130T176 -186T120 -216T45 -225Q26 -225 8 -223T-29 -217L-16 -141Q8 -147 36 -147Q81 -147 101 -125T121 -45V296H47V370H121V496Q121 547 134 581T172 637T229 667T303
676Q331 676 359 672T408 659L386 585Q368 594 351 596T314 598Q262 598 243 574T224 496V370H376V296H224V-45Z" />
<glyph unicode="&#x1a0;" glyph-name="Ohorn" horiz-adv-x="666" d="M512 339Q512 390 505 435T478 515T427 568T344 588Q290 588 253 571T194 520T161 437T151 322Q151 270 158 225T185 146T236 93T317 73Q374 73 411 90T471 140T503 224T512 339ZM583 539Q598
507 607 470Q621 406 621 326Q621 155 548 72T320 -11Q242 -11 190 13T105 81T58 189T44 333Q44 505 116 587T343 669Q420 669 473 646T559 578Q567 567 574 555Q580 566 587 579Q595 596 598 614Q601 633 601 650T602 682H674Q674 656 672 637T662 596Q656 576
642 556T615 520L583 539Z" />
<glyph unicode="&#x1a1;" glyph-name="ohorn" horiz-adv-x="522" d="M247 62Q322 62 349 105T376 235Q376 268 372 297T355 349T322 385T269 398Q195 398 168 353T141 223Q141 190 145 161T161 109T193 75T247 62ZM472 320Q481 278 481 226Q481 105 425 47T247
-11Q186 -11 146 5T81 53T46 129T36 231Q36 352 91 410T269 469Q329 469 370 453T436 405Q454 381 464 351Q467 357 471 364Q479 381 482 399Q485 418 485 435T486 467H558Q558 441 556 422T546 381Q540 361 526 341T499 305L472 320Z" />
<glyph unicode="&#x1af;" glyph-name="Uhorn" horiz-adv-x="635" d="M570 540V253Q570 113 503 51T309 -11Q183 -11 124 52T64 260V659H168V245Q168 162 199 117T308 71Q351 71 381 81T430 114T457 173T466 261V659H570V568Q573 573 576 579Q584 596 587 614Q590
633 590 650T591 682H663Q663 656 661 637T651 596Q645 576 631 556T604 520L570 540Z" />
<glyph unicode="&#x1b0;" glyph-name="uhorn" horiz-adv-x="505" d="M446 328V122L455 0H360L355 36Q342 27 328 20T300 8Q250 -11 201 -11Q156 -11 128 0T83 33T60 86T53 157V458H156V178Q156 155 158 135T169 101T192 78T233 69Q261 69 284 76T327 96Q335 102
344 108V458H446V343Q452 352 458 364Q466 381 469 399Q472 418 472 435T473 467H545Q545 441 543 422T533 381Q527 361 513 341T486 305L446 328Z" />
<glyph unicode="&#x1fa;" glyph-name="Aringacute" horiz-adv-x="633" d="M310 576L208 266H419L318 576H310ZM318 680Q344 680 344 706Q344 733 318 733Q301 733 295 727T289 706Q289 693 295 687T318 680ZM392 650L625 0H510L448 182H180L118 0H6L242 650Q223
673 223 706Q223 790 318 790Q365 790 387 768T410 706Q410 671 392 650ZM442 945L347 827H266L356 945H442Z" />
<glyph unicode="&#x1fb;" glyph-name="aringacute" horiz-adv-x="473" d="M459 -1Q442 -4 421 -4Q385 -4 363 8T329 44Q304 22 265 6T182 -11Q136 -11 107 0T61 31T38 77T31 132Q31 176 45 204T86 248T150 270T231 276Q272 276 313 273V295Q313 349 292 371T213
394Q173 394 137 384T73 360L50 425Q87 443 136 456T239 469Q289 469 323 460T377 428T407 369T416 278V125Q416 93 427 82T459 70V-1ZM229 205Q177 205 158 188T138 135Q138 99 153 81T209 62Q234 62 262 73T313 103V200Q291 204 271 204T229 205ZM239 491Q190
491 167 515T144 577Q144 661 239 661Q287 661 309 638T332 577Q332 536 308 514T239 491ZM239 550Q265 550 265 577Q265 603 239 603Q211 603 211 577Q211 550 239 550ZM355 796L266 688H180L259 796H355Z" />
<glyph unicode="&#x1fc;" glyph-name="AEacute" horiz-adv-x="915" d="M863 83V0H471L461 182H206L99 0H-12L385 659H854V575H544L555 380H843V298H559L571 83H863ZM433 575L255 266H458L442 575H433ZM605 885L473 726H375L490 885H605Z" />
<glyph unicode="&#x1fd;" glyph-name="aeacute" horiz-adv-x="763" d="M720 36Q708 28 688 20T642 5T590 -6T535 -11Q416 -11 367 44Q340 25 296 7T191 -11Q147 -11 117 1T67 32T40 78T31 132Q31 174 46 201T87 244T151 266T234 273H317V294Q317 348 295 371T214
394Q174 394 137 384T74 360L50 425Q88 443 137 456T240 469Q297 469 330 456T382 411Q431 469 535 469Q593 469 630 452T689 405T719 334T727 245V204H418Q420 129 450 97T550 65Q602 65 637 77T699 102L720 36ZM212 63Q246 63 277 75T333 106Q326 127 324 151T318
204H230Q178 204 158 187T138 136Q138 102 155 83T212 63ZM532 399Q471 399 446 367T419 272H622Q622 341 600 370T532 399ZM409 685L277 526H179L294 685H409Z" />
<glyph unicode="&#x1fe;" glyph-name="Oslashacute" horiz-adv-x="665" d="M44 331Q44 504 116 587T343 671Q420 671 473 647Q481 643 489 639T504 629L559 704L623 662L559 576Q591 532 606 469Q621 404 621 325Q621 154 548 71T320 -13Q242 -13 188 11Q179 15
170 20T153 30L99 -42L36 1L100 87Q71 129 58 187Q44 254 44 331ZM516 338Q516 364 514 388T508 435Q503 467 495 490L208 104Q218 93 232 86Q266 66 317 66Q374 66 412 84T473 136T506 222T516 338ZM430 572Q398 593 344 593Q290 593 252 575T191 523T157 438T146
321Q146 295 148 270T154 222Q156 209 158 197T165 174L450 557L430 572ZM491 885L359 726H261L376 885H491Z" />
<glyph unicode="&#x1ff;" glyph-name="oslashacute" horiz-adv-x="517" d="M247 -12Q175 -12 132 12L88 -42L22 13L69 69Q51 100 44 140T36 231Q36 352 91 411T269 470Q337 470 382 445L428 499L494 445L446 388Q465 357 473 317T481 226Q481 105 425 47T247 -12ZM247
56Q323 56 351 101T380 235Q380 253 379 271T372 304L181 76Q193 67 209 62T247 56ZM269 402Q194 402 165 356T136 223Q136 184 144 154L335 381Q309 402 269 402ZM420 685L288 526H190L305 685H420Z" />
<glyph unicode="&#x218;" glyph-name="uni0218" d="M340 248Q320 258 297 267T250 285T201 303T155 324Q128 337 107 351T72 385T51 430T43 490Q43 533 60 566T110 623T186 657T286 669Q340 669 392 659T490 624L454 546Q424 561 381 573T286 586Q217 586 183
563T148 497Q148 465 166 445T212 411Q248 393 297 376T391 337Q414 325 434 312T468 279T491 234T500 172Q500 128 483 94T433 37T356 2T255 -11Q198 -11 141 1T36 39L75 118Q120 96 162 86T252 75Q328 75 362 100T396 166Q396 196 380 216T340 248ZM178 -245Q211
-201 222 -158T233 -55H327Q327 -128 306 -185T239 -294L178 -245Z" />
<glyph unicode="&#x219;" glyph-name="uni0219" horiz-adv-x="433" d="M193 289Q201 285 215 280T243 270L300 251Q343 239 372 211T402 129Q402 57 351 23T205 -11Q153 -11 110 -3T31 22L63 96Q119 65 205 65Q247 65 274 76T302 119Q302 155 244 177Q217 185
188 194T135 213Q94 227 66 254T38 333Q38 369 53 394T94 436T155 461T230 469Q285 469 325 461T398 439L366 365Q310 394 230 394Q181 394 158 380T135 343Q135 325 148 313T193 289ZM128 -245Q161 -201 172 -158T183 -55H277Q277 -128 256 -185T189 -294L128
-245Z" />
<glyph unicode="&#x21a;" glyph-name="uni021A" horiz-adv-x="512" d="M509 659V575H308V0H204V575H3V659H509ZM153 -244Q186 -200 197 -157T208 -54H302Q302 -127 281 -184T214 -293L153 -244Z" />
<glyph unicode="&#x21b;" glyph-name="uni021B" horiz-adv-x="385" d="M192 380V174Q192 151 194 132T203 98T225 77T266 69Q290 69 312 74T354 89L372 19Q307 -11 234 -11Q189 -11 161 0T118 33T96 83T90 147V380H12V448L89 457V549L192 567V458H356V380H192ZM116
-245Q149 -201 160 -158T171 -55H265Q265 -128 244 -185T177 -294L116 -245Z" />
<glyph unicode="&#x2c6;" glyph-name="circumflex" horiz-adv-x="530" d="M332 685L436 526H343L270 632H260L183 526H94L200 685H332Z" />
<glyph unicode="&#x2c7;" glyph-name="caron" horiz-adv-x="530" d="M198 526L94 685H186L260 580H270L347 685H436L329 526H198Z" />
<glyph unicode="&#x2d8;" glyph-name="breve" horiz-adv-x="533" d="M425 685Q425 604 388 563T266 521Q181 521 145 562T108 685H187Q190 642 206 616T266 590Q310 590 326 616T346 685H425Z" />
<glyph unicode="&#x2d9;" glyph-name="dotaccent" horiz-adv-x="530" d="M317 560H213V652H317V560Z" />
<glyph unicode="&#x2da;" glyph-name="ring" horiz-adv-x="511" d="M250 510Q192 510 169 538T145 612Q145 661 174 687T260 714Q318 714 342 685T366 611Q366 562 337 536T250 510ZM253 568Q299 568 299 612Q299 655 258 655Q210 655 210 611Q210 590 220 579T253 568Z" />
<glyph unicode="&#x2db;" glyph-name="ogonek" horiz-adv-x="446" d="M327 -206Q309 -214 283 -219T229 -224Q166 -224 139 -201T111 -127Q111 -90 130 -63T201 -5Q222 6 246 15T296 32L310 0Q293 -10 278 -19T249 -38Q224 -56 216 -72T208 -110Q208 -156 258
-156Q285 -156 309 -148L327 -206Z" />
<glyph unicode="&#x2dc;" glyph-name="tilde" horiz-adv-x="532" d="M90 614Q109 634 138 648T202 662Q222 662 238 657T269 646T298 634T329 629Q353 629 372 638T411 660L441 599Q419 578 391 564T328 550Q307 550 291 555T260 566T231 578T200 583Q177 583
158 574T120 554L90 614Z" />
<glyph unicode="&#x2dd;" glyph-name="hungarumlaut" horiz-adv-x="512" d="M271 685L139 526H50L164 685H271ZM462 685L329 526H240L354 685H462Z" />
<glyph unicode="&#x3a9;" glyph-name="Omega" horiz-adv-x="640" d="M484 77H578V0H368V105Q383 105 406 118T451 159T489 230T505 336Q505 390 496 436T466 517T410 570T320 590Q266 590 231 571T174 517T144 437T135 336Q135 274 151 231T188 159T233 118T272
105V0H62V77H156Q139 90 124 107Q89 144 66 201T42 336Q42 501 110 585T320 669Q462 669 530 585T598 336Q598 258 575 201T517 107Q501 90 484 77Z" />
<glyph unicode="&#x3c0;" glyph-name="pi" horiz-adv-x="630" d="M454 364V112Q454 91 461 83T491 75H540V0H454Q411 0 388 28T365 114V364H243V0H155V364H50V439H580V364H454Z" />
<glyph unicode="&#x1e80;" glyph-name="Wgrave" horiz-adv-x="923" d="M919 659L747 0H594L467 576H458L337 0H182L4 659H118L257 82H265L386 659H544L668 82H677L810 659H919ZM445 885L559 726H462L331 885H445Z" />
<glyph unicode="&#x1e81;" glyph-name="wgrave" horiz-adv-x="711" d="M428 458L502 73H510L600 458H702L576 0H433L360 386H350L275 0H129L9 458H115L201 73H210L285 458H428ZM324 685L438 526H341L210 685H324Z" />
<glyph unicode="&#x1e82;" glyph-name="Wacute" horiz-adv-x="923" d="M919 659L747 0H594L467 576H458L337 0H182L4 659H118L257 82H265L386 659H544L668 82H677L810 659H919ZM601 885L469 726H371L486 885H601Z" />
<glyph unicode="&#x1e83;" glyph-name="wacute" horiz-adv-x="711" d="M428 458L502 73H510L600 458H702L576 0H433L360 386H350L275 0H129L9 458H115L201 73H210L285 458H428ZM505 685L373 526H275L390 685H505Z" />
<glyph unicode="&#x1e84;" glyph-name="Wdieresis" horiz-adv-x="923" d="M919 659L747 0H594L467 576H458L337 0H182L4 659H118L257 82H265L386 659H544L668 82H677L810 659H919ZM419 750H318V842H419V750ZM608 750H507V842H608V750Z" />
<glyph unicode="&#x1e85;" glyph-name="wdieresis" horiz-adv-x="711" d="M428 458L502 73H510L600 458H702L576 0H433L360 386H350L275 0H129L9 458H115L201 73H210L285 458H428ZM310 560H209V652H310V560ZM499 560H398V652H499V560Z" />
<glyph unicode="&#x1ea0;" glyph-name="uni1EA0" horiz-adv-x="633" d="M510 0L448 182H180L118 0H6L245 659H389L625 0H510ZM310 576L208 266H419L318 576H310ZM355 -128H272V-48H355V-128Z" />
<glyph unicode="&#x1ea1;" glyph-name="uni1EA1" horiz-adv-x="473" d="M459 -1Q442 -4 421 -4Q385 -4 363 8T329 44Q304 22 265 6T182 -11Q136 -11 107 0T61 31T38 77T31 132Q31 176 45 204T86 248T150 270T231 276Q272 276 313 273V295Q313 349 292 371T213
394Q173 394 137 384T73 360L50 425Q87 443 136 456T239 469Q289 469 323 460T377 428T407 369T416 278V125Q416 93 427 82T459 70V-1ZM229 205Q177 205 158 188T138 135Q138 99 153 81T209 62Q234 62 262 73T313 103V200Q291 204 271 204T229 205ZM276 -128H193V-48H276V-128Z"
/>
<glyph unicode="&#x1ea2;" glyph-name="uni1EA2" horiz-adv-x="633" d="M510 0L448 182H180L118 0H6L245 659H389L625 0H510ZM310 576L208 266H419L318 576H310ZM291 714V742Q291 752 293 762T304 783Q308 789 315 795T330 807T342 820T347 835Q347 848 340 853T314
858Q288 858 263 843L249 883Q282 904 324 904Q359 904 382 891T405 842Q405 826 399 815T385 794T367 777T350 760Q341 750 341 731V714H291Z" />
<glyph unicode="&#x1ea3;" glyph-name="uni1EA3" horiz-adv-x="473" d="M459 -1Q442 -4 421 -4Q385 -4 363 8T329 44Q304 22 265 6T182 -11Q136 -11 107 0T61 31T38 77T31 132Q31 176 45 204T86 248T150 270T231 276Q272 276 313 273V295Q313 349 292 371T213
394Q173 394 137 384T73 360L50 425Q87 443 136 456T239 469Q289 469 323 460T377 428T407 369T416 278V125Q416 93 427 82T459 70V-1ZM229 205Q177 205 158 188T138 135Q138 99 153 81T209 62Q234 62 262 73T313 103V200Q291 204 271 204T229 205ZM202 510V538Q202
548 204 558T215 579Q219 585 226 591T241 603T253 616T258 631Q258 644 251 649T225 654Q199 654 174 639L160 679Q193 700 235 700Q270 700 293 687T316 638Q316 622 310 611T296 590T278 573T261 556Q252 546 252 527V510H202Z" />
<glyph unicode="&#x1ea4;" glyph-name="uni1EA4" horiz-adv-x="633" d="M510 0L448 182H180L118 0H6L245 659H389L625 0H510ZM310 576L208 266H419L318 576H310ZM581 927L474 797H401L488 927H581ZM350 832L430 718H355L318 773H310L272 718H198L278 832H350Z" />
<glyph unicode="&#x1ea5;" glyph-name="uni1EA5" horiz-adv-x="473" d="M459 -1Q442 -4 421 -4Q385 -4 363 8T329 44Q304 22 265 6T182 -11Q136 -11 107 0T61 31T38 77T31 132Q31 176 45 204T86 248T150 270T231 276Q272 276 313 273V295Q313 349 292 371T213
394Q173 394 137 384T73 360L50 425Q87 443 136 456T239 469Q289 469 323 460T377 428T407 369T416 278V125Q416 93 427 82T459 70V-1ZM229 205Q177 205 158 188T138 135Q138 99 153 81T209 62Q234 62 262 73T313 103V200Q291 204 271 204T229 205ZM495 727L388
597H315L402 727H495ZM262 632L342 518H267L230 573H222L184 518H110L190 632H262Z" />
<glyph unicode="&#x1ea6;" glyph-name="uni1EA6" horiz-adv-x="633" d="M510 0L448 182H180L118 0H6L245 659H389L625 0H510ZM310 576L208 266H419L318 576H310ZM415 927L502 797H429L322 927H415ZM350 832L430 718H355L318 773H310L272 718H198L278 832H350Z" />
<glyph unicode="&#x1ea7;" glyph-name="uni1EA7" horiz-adv-x="473" d="M459 -1Q442 -4 421 -4Q385 -4 363 8T329 44Q304 22 265 6T182 -11Q136 -11 107 0T61 31T38 77T31 132Q31 176 45 204T86 248T150 270T231 276Q272 276 313 273V295Q313 349 292 371T213
394Q173 394 137 384T73 360L50 425Q87 443 136 456T239 469Q289 469 323 460T377 428T407 369T416 278V125Q416 93 427 82T459 70V-1ZM229 205Q177 205 158 188T138 135Q138 99 153 81T209 62Q234 62 262 73T313 103V200Q291 204 271 204T229 205ZM326 727L413
597H340L233 727H326ZM262 632L342 518H267L230 573H222L184 518H110L190 632H262Z" />
<glyph unicode="&#x1ea8;" glyph-name="uni1EA8" horiz-adv-x="633" d="M510 0L448 182H180L118 0H6L245 659H389L625 0H510ZM310 576L208 266H419L318 576H310ZM350 832L430 718H355L318 773H310L272 718H198L278 832H350ZM412 789V817Q412 827 414 837T425 858Q429
864 436 870T451 882T463 895T468 910Q468 923 461 928T435 933Q409 933 384 918L370 958Q403 979 445 979Q480 979 503 966T526 917Q526 901 520 890T506 869T488 852T471 835Q462 825 462 806V789H412Z" />
<glyph unicode="&#x1ea9;" glyph-name="uni1EA9" horiz-adv-x="473" d="M459 -1Q442 -4 421 -4Q385 -4 363 8T329 44Q304 22 265 6T182 -11Q136 -11 107 0T61 31T38 77T31 132Q31 176 45 204T86 248T150 270T231 276Q272 276 313 273V295Q313 349 292 371T213
394Q173 394 137 384T73 360L50 425Q87 443 136 456T239 469Q289 469 323 460T377 428T407 369T416 278V125Q416 93 427 82T459 70V-1ZM229 205Q177 205 158 188T138 135Q138 99 153 81T209 62Q234 62 262 73T313 103V200Q291 204 271 204T229 205ZM262 632L342
518H267L230 573H222L184 518H110L190 632H262ZM325 581V609Q325 619 327 629T338 650Q342 656 349 662T364 674T376 687T381 702Q381 715 374 720T348 725Q322 725 297 710L283 750Q316 771 358 771Q393 771 416 758T439 709Q439 693 433 682T419 661T401 644T384
627Q375 617 375 598V581H325Z" />
<glyph unicode="&#x1eaa;" glyph-name="uni1EAA" horiz-adv-x="633" d="M510 0L448 182H180L118 0H6L245 659H389L625 0H510ZM310 576L208 266H419L318 576H310ZM350 832L430 718H355L318 773H310L272 718H198L278 832H350ZM214 892Q233 914 252 923T297 932Q310
932 320 929T340 921T360 913T384 909Q399 909 414 913T446 932L467 887Q447 865 428 859T383 853Q370 853 360 856T340 864T320 872T296 876Q282 876 268 869T236 850L214 892Z" />
<glyph unicode="&#x1eab;" glyph-name="uni1EAB" horiz-adv-x="473" d="M459 -1Q442 -4 421 -4Q385 -4 363 8T329 44Q304 22 265 6T182 -11Q136 -11 107 0T61 31T38 77T31 132Q31 176 45 204T86 248T150 270T231 276Q272 276 313 273V295Q313 349 292 371T213
394Q173 394 137 384T73 360L50 425Q87 443 136 456T239 469Q289 469 323 460T377 428T407 369T416 278V125Q416 93 427 82T459 70V-1ZM229 205Q177 205 158 188T138 135Q138 99 153 81T209 62Q234 62 262 73T313 103V200Q291 204 271 204T229 205ZM262 632L342
518H267L230 573H222L184 518H110L190 632H262ZM122 694Q141 716 160 725T205 734Q218 734 228 731T248 723T268 715T292 711Q307 711 322 715T354 734L375 689Q355 667 336 661T291 655Q278 655 268 658T248 666T228 674T204 678Q190 678 176 671T144 652L122
694Z" />
<glyph unicode="&#x1eac;" glyph-name="uni1EAC" horiz-adv-x="633" d="M510 0L448 182H180L118 0H6L245 659H389L625 0H510ZM310 576L208 266H419L318 576H310ZM355 -128H272V-48H355V-128ZM350 832L430 718H355L318 773H310L272 718H198L278 832H350Z" />
<glyph unicode="&#x1ead;" glyph-name="uni1EAD" horiz-adv-x="473" d="M459 -1Q442 -4 421 -4Q385 -4 363 8T329 44Q304 22 265 6T182 -11Q136 -11 107 0T61 31T38 77T31 132Q31 176 45 204T86 248T150 270T231 276Q272 276 313 273V295Q313 349 292 371T213
394Q173 394 137 384T73 360L50 425Q87 443 136 456T239 469Q289 469 323 460T377 428T407 369T416 278V125Q416 93 427 82T459 70V-1ZM229 205Q177 205 158 188T138 135Q138 99 153 81T209 62Q234 62 262 73T313 103V200Q291 204 271 204T229 205ZM276 -128H193V-48H276V-128ZM262
632L342 518H267L230 573H222L184 518H110L190 632H262Z" />
<glyph unicode="&#x1eae;" glyph-name="uni1EAE" horiz-adv-x="633" d="M510 0L448 182H180L118 0H6L245 659H389L625 0H510ZM310 576L208 266H419L318 576H310ZM425 814Q425 762 400 734T315 706Q255 706 230 734T205 814H264Q264 785 278 771T315 756Q365 756
365 814H425ZM463 952L356 822H283L370 952H463Z" />
<glyph unicode="&#x1eaf;" glyph-name="uni1EAF" horiz-adv-x="473" d="M459 -1Q442 -4 421 -4Q385 -4 363 8T329 44Q304 22 265 6T182 -11Q136 -11 107 0T61 31T38 77T31 132Q31 176 45 204T86 248T150 270T231 276Q272 276 313 273V295Q313 349 292 371T213
394Q173 394 137 384T73 360L50 425Q87 443 136 456T239 469Q289 469 323 460T377 428T407 369T416 278V125Q416 93 427 82T459 70V-1ZM229 205Q177 205 158 188T138 135Q138 99 153 81T209 62Q234 62 262 73T313 103V200Q291 204 271 204T229 205ZM335 618Q335
566 310 538T225 510Q165 510 140 538T115 618H174Q174 589 188 575T225 560Q275 560 275 618H335ZM373 756L266 626H193L280 756H373Z" />
<glyph unicode="&#x1eb0;" glyph-name="uni1EB0" horiz-adv-x="633" d="M510 0L448 182H180L118 0H6L245 659H389L625 0H510ZM310 576L208 266H419L318 576H310ZM425 814Q425 762 400 734T315 706Q255 706 230 734T205 814H264Q264 785 278 771T315 756Q365 756
365 814H425ZM283 952L370 822H297L190 952H283Z" />
<glyph unicode="&#x1eb1;" glyph-name="uni1EB1" horiz-adv-x="473" d="M459 -1Q442 -4 421 -4Q385 -4 363 8T329 44Q304 22 265 6T182 -11Q136 -11 107 0T61 31T38 77T31 132Q31 176 45 204T86 248T150 270T231 276Q272 276 313 273V295Q313 349 292 371T213
394Q173 394 137 384T73 360L50 425Q87 443 136 456T239 469Q289 469 323 460T377 428T407 369T416 278V125Q416 93 427 82T459 70V-1ZM229 205Q177 205 158 188T138 135Q138 99 153 81T209 62Q234 62 262 73T313 103V200Q291 204 271 204T229 205ZM335 618Q335
566 310 538T225 510Q165 510 140 538T115 618H174Q174 589 188 575T225 560Q275 560 275 618H335ZM193 756L280 626H207L100 756H193Z" />
<glyph unicode="&#x1eb2;" glyph-name="uni1EB2" horiz-adv-x="633" d="M510 0L448 182H180L118 0H6L245 659H389L625 0H510ZM310 576L208 266H419L318 576H310ZM291 805V833Q291 843 293 853T304 874Q308 880 315 886T330 898T342 911T347 926Q347 939 340 944T314
949Q288 949 263 934L249 974Q282 995 324 995Q359 995 382 982T405 933Q405 917 399 906T385 885T367 868T350 851Q341 841 341 822V805H291ZM425 814Q425 762 400 734T315 706Q255 706 230 734T205 814H264Q264 785 278 771T315 756Q365 756 365 814H425Z" />
<glyph unicode="&#x1eb3;" glyph-name="uni1EB3" horiz-adv-x="473" d="M459 -1Q442 -4 421 -4Q385 -4 363 8T329 44Q304 22 265 6T182 -11Q136 -11 107 0T61 31T38 77T31 132Q31 176 45 204T86 248T150 270T231 276Q272 276 313 273V295Q313 349 292 371T213
394Q173 394 137 384T73 360L50 425Q87 443 136 456T239 469Q289 469 323 460T377 428T407 369T416 278V125Q416 93 427 82T459 70V-1ZM229 205Q177 205 158 188T138 135Q138 99 153 81T209 62Q234 62 262 73T313 103V200Q291 204 271 204T229 205ZM202 609V637Q202
647 204 657T215 678Q219 684 226 690T241 702T253 715T258 730Q258 743 251 748T225 753Q199 753 174 738L160 778Q193 799 235 799Q270 799 293 786T316 737Q316 721 310 710T296 689T278 672T261 655Q252 645 252 626V609H202ZM335 618Q335 566 310 538T225
510Q165 510 140 538T115 618H174Q174 589 188 575T225 560Q275 560 275 618H335Z" />
<glyph unicode="&#x1eb4;" glyph-name="uni1EB4" horiz-adv-x="633" d="M510 0L448 182H180L118 0H6L245 659H389L625 0H510ZM310 576L208 266H419L318 576H310ZM214 892Q233 914 252 923T297 932Q310 932 320 929T340 921T360 913T384 909Q399 909 414 913T446
932L467 887Q447 865 428 859T383 853Q370 853 360 856T340 864T320 872T296 876Q282 876 268 869T236 850L214 892ZM425 814Q425 762 400 734T315 706Q255 706 230 734T205 814H264Q264 785 278 771T315 756Q365 756 365 814H425Z" />
<glyph unicode="&#x1eb5;" glyph-name="uni1EB5" horiz-adv-x="473" d="M459 -1Q442 -4 421 -4Q385 -4 363 8T329 44Q304 22 265 6T182 -11Q136 -11 107 0T61 31T38 77T31 132Q31 176 45 204T86 248T150 270T231 276Q272 276 313 273V295Q313 349 292 371T213
394Q173 394 137 384T73 360L50 425Q87 443 136 456T239 469Q289 469 323 460T377 428T407 369T416 278V125Q416 93 427 82T459 70V-1ZM229 205Q177 205 158 188T138 135Q138 99 153 81T209 62Q234 62 262 73T313 103V200Q291 204 271 204T229 205ZM122 694Q141
716 160 725T205 734Q218 734 228 731T248 723T268 715T292 711Q307 711 322 715T354 734L375 689Q355 667 336 661T291 655Q278 655 268 658T248 666T228 674T204 678Q190 678 176 671T144 652L122 694ZM335 618Q335 566 310 538T225 510Q165 510 140 538T115
618H174Q174 589 188 575T225 560Q275 560 275 618H335Z" />
<glyph unicode="&#x1eb6;" glyph-name="uni1EB6" horiz-adv-x="633" d="M510 0L448 182H180L118 0H6L245 659H389L625 0H510ZM310 576L208 266H419L318 576H310ZM355 -128H272V-48H355V-128ZM425 814Q425 762 400 734T315 706Q255 706 230 734T205 814H264Q264
785 278 771T315 756Q365 756 365 814H425Z" />
<glyph unicode="&#x1eb7;" glyph-name="uni1EB7" horiz-adv-x="473" d="M459 -1Q442 -4 421 -4Q385 -4 363 8T329 44Q304 22 265 6T182 -11Q136 -11 107 0T61 31T38 77T31 132Q31 176 45 204T86 248T150 270T231 276Q272 276 313 273V295Q313 349 292 371T213
394Q173 394 137 384T73 360L50 425Q87 443 136 456T239 469Q289 469 323 460T377 428T407 369T416 278V125Q416 93 427 82T459 70V-1ZM229 205Q177 205 158 188T138 135Q138 99 153 81T209 62Q234 62 262 73T313 103V200Q291 204 271 204T229 205ZM276 -128H193V-48H276V-128ZM335
618Q335 566 310 538T225 510Q165 510 140 538T115 618H174Q174 589 188 575T225 560Q275 560 275 618H335Z" />
<glyph unicode="&#x1eb8;" glyph-name="uni1EB8" horiz-adv-x="542" d="M490 83V0H71V659H479V575H175V380H469V298H175V83H490ZM323 -128H240V-48H323V-128Z" />
<glyph unicode="&#x1eb9;" glyph-name="uni1EB9" horiz-adv-x="485" d="M257 -11Q195 -11 153 4T84 49T47 125T36 232Q36 469 255 469Q314 469 351 452T410 405T440 334T448 245V204H142Q144 135 167 104Q197 65 273 65Q325 65 359 77T419 102L441 36Q429 28 409
20T363 5T311 -6T257 -11ZM342 275Q342 341 320 370T253 399Q202 399 178 376T146 305L143 275H342ZM282 -128H199V-48H282V-128Z" />
<glyph unicode="&#x1eba;" glyph-name="uni1EBA" horiz-adv-x="542" d="M490 83V0H71V659H479V575H175V380H469V298H175V83H490ZM255 714V742Q255 752 257 762T268 783Q272 789 279 795T294 807T306 820T311 835Q311 848 304 853T278 858Q252 858 227 843L213
883Q246 904 288 904Q323 904 346 891T369 842Q369 826 363 815T349 794T331 777T314 760Q305 750 305 731V714H255Z" />
<glyph unicode="&#x1ebb;" glyph-name="uni1EBB" horiz-adv-x="485" d="M257 -11Q195 -11 153 4T84 49T47 125T36 232Q36 469 255 469Q314 469 351 452T410 405T440 334T448 245V204H142Q144 135 167 104Q197 65 273 65Q325 65 359 77T419 102L441 36Q429 28 409
20T363 5T311 -6T257 -11ZM342 275Q342 341 320 370T253 399Q202 399 178 376T146 305L143 275H342ZM232 510V538Q232 548 234 558T245 579Q249 585 256 591T271 603T283 616T288 631Q288 644 281 649T255 654Q229 654 204 639L190 679Q223 700 265 700Q300 700
323 687T346 638Q346 622 340 611T326 590T308 573T291 556Q282 546 282 527V510H232Z" />
<glyph unicode="&#x1ebc;" glyph-name="uni1EBC" horiz-adv-x="542" d="M490 83V0H71V659H479V575H175V380H469V298H175V83H490ZM157 766Q176 788 195 797T240 806Q253 806 263 803T283 795T303 787T327 783Q342 783 357 787T389 806L410 761Q390 739 371 733T326
727Q313 727 303 730T283 738T263 746T239 750Q225 750 211 743T179 724L157 766Z" />
<glyph unicode="&#x1ebd;" glyph-name="uni1EBD" horiz-adv-x="485" d="M257 -11Q195 -11 153 4T84 49T47 125T36 232Q36 469 255 469Q314 469 351 452T410 405T440 334T448 245V204H142Q144 135 167 104Q197 65 273 65Q325 65 359 77T419 102L441 36Q429 28 409
20T363 5T311 -6T257 -11ZM342 275Q342 341 320 370T253 399Q202 399 178 376T146 305L143 275H342ZM136 573Q155 595 174 604T219 613Q232 613 242 610T262 602T282 594T306 590Q321 590 336 594T368 613L389 568Q369 546 350 540T305 534Q292 534 282 537T262
545T242 553T218 557Q204 557 190 550T158 531L136 573Z" />
<glyph unicode="&#x1ebe;" glyph-name="uni1EBE" horiz-adv-x="542" d="M490 83V0H71V659H479V575H175V380H469V298H175V83H490ZM541 927L434 797H361L448 927H541ZM310 832L390 718H315L278 773H270L232 718H158L238 832H310Z" />
<glyph unicode="&#x1ebf;" glyph-name="uni1EBF" horiz-adv-x="485" d="M257 -11Q195 -11 153 4T84 49T47 125T36 232Q36 469 255 469Q314 469 351 452T410 405T440 334T448 245V204H142Q144 135 167 104Q197 65 273 65Q325 65 359 77T419 102L441 36Q429 28 409
20T363 5T311 -6T257 -11ZM342 275Q342 341 320 370T253 399Q202 399 178 376T146 305L143 275H342ZM512 727L405 597H332L419 727H512ZM279 632L359 518H284L247 573H239L201 518H127L207 632H279Z" />
<glyph unicode="&#x1ec0;" glyph-name="uni1EC0" horiz-adv-x="542" d="M490 83V0H71V659H479V575H175V380H469V298H175V83H490ZM310 832L390 718H315L278 773H270L232 718H158L238 832H310ZM375 927L462 797H389L282 927H375Z" />
<glyph unicode="&#x1ec1;" glyph-name="uni1EC1" horiz-adv-x="485" d="M257 -11Q195 -11 153 4T84 49T47 125T36 232Q36 469 255 469Q314 469 351 452T410 405T440 334T448 245V204H142Q144 135 167 104Q197 65 273 65Q325 65 359 77T419 102L441 36Q429 28 409
20T363 5T311 -6T257 -11ZM342 275Q342 341 320 370T253 399Q202 399 178 376T146 305L143 275H342ZM279 632L359 518H284L247 573H239L201 518H127L207 632H279ZM343 727L430 597H357L250 727H343Z" />
<glyph unicode="&#x1ec2;" glyph-name="uni1EC2" horiz-adv-x="542" d="M490 83V0H71V659H479V575H175V380H469V298H175V83H490ZM310 832L390 718H315L278 773H270L232 718H158L238 832H310ZM372 789V817Q372 827 374 837T385 858Q389 864 396 870T411 882T423
895T428 910Q428 923 421 928T395 933Q369 933 344 918L330 958Q363 979 405 979Q440 979 463 966T486 917Q486 901 480 890T466 869T448 852T431 835Q422 825 422 806V789H372Z" />
<glyph unicode="&#x1ec3;" glyph-name="uni1EC3" horiz-adv-x="485" d="M257 -11Q195 -11 153 4T84 49T47 125T36 232Q36 469 255 469Q314 469 351 452T410 405T440 334T448 245V204H142Q144 135 167 104Q197 65 273 65Q325 65 359 77T419 102L441 36Q429 28 409
20T363 5T311 -6T257 -11ZM342 275Q342 341 320 370T253 399Q202 399 178 376T146 305L143 275H342ZM279 632L359 518H284L247 573H239L201 518H127L207 632H279ZM342 581V609Q342 619 344 629T355 650Q359 656 366 662T381 674T393 687T398 702Q398 715 391 720T365
725Q339 725 314 710L300 750Q333 771 375 771Q410 771 433 758T456 709Q456 693 450 682T436 661T418 644T401 627Q392 617 392 598V581H342Z" />
<glyph unicode="&#x1ec4;" glyph-name="uni1EC4" horiz-adv-x="542" d="M490 83V0H71V659H479V575H175V380H469V298H175V83H490ZM310 832L390 718H315L278 773H270L232 718H158L238 832H310ZM174 892Q193 914 212 923T257 932Q270 932 280 929T300 921T320 913T344
909Q359 909 374 913T406 932L427 887Q407 865 388 859T343 853Q330 853 320 856T300 864T280 872T256 876Q242 876 228 869T196 850L174 892Z" />
<glyph unicode="&#x1ec5;" glyph-name="uni1EC5" horiz-adv-x="485" d="M257 -11Q195 -11 153 4T84 49T47 125T36 232Q36 469 255 469Q314 469 351 452T410 405T440 334T448 245V204H142Q144 135 167 104Q197 65 273 65Q325 65 359 77T419 102L441 36Q429 28 409
20T363 5T311 -6T257 -11ZM342 275Q342 341 320 370T253 399Q202 399 178 376T146 305L143 275H342ZM279 632L359 518H284L247 573H239L201 518H127L207 632H279ZM139 694Q158 716 177 725T222 734Q235 734 245 731T265 723T285 715T309 711Q324 711 339 715T371
734L392 689Q372 667 353 661T308 655Q295 655 285 658T265 666T245 674T221 678Q207 678 193 671T161 652L139 694Z" />
<glyph unicode="&#x1ec6;" glyph-name="uni1EC6" horiz-adv-x="542" d="M490 83V0H71V659H479V575H175V380H469V298H175V83H490ZM323 -128H240V-48H323V-128ZM310 832L390 718H315L278 773H270L232 718H158L238 832H310Z" />
<glyph unicode="&#x1ec7;" glyph-name="uni1EC7" horiz-adv-x="485" d="M257 -11Q195 -11 153 4T84 49T47 125T36 232Q36 469 255 469Q314 469 351 452T410 405T440 334T448 245V204H142Q144 135 167 104Q197 65 273 65Q325 65 359 77T419 102L441 36Q429 28 409
20T363 5T311 -6T257 -11ZM342 275Q342 341 320 370T253 399Q202 399 178 376T146 305L143 275H342ZM282 -128H199V-48H282V-128ZM279 632L359 518H284L247 573H239L201 518H127L207 632H279Z" />
<glyph unicode="&#x1ec8;" glyph-name="uni1EC8" horiz-adv-x="248" d="M71 659H175V0H71V659ZM97 714V742Q97 752 99 762T110 783Q114 789 121 795T136 807T148 820T153 835Q153 848 146 853T120 858Q94 858 69 843L55 883Q88 904 130 904Q165 904 188 891T211
842Q211 826 205 815T191 794T173 777T156 760Q147 750 147 731V714H97Z" />
<glyph unicode="&#x1ec9;" glyph-name="uni1EC9" horiz-adv-x="219" d="M58 458H160V0H58V458ZM82 510V538Q82 548 84 558T95 579Q99 585 106 591T121 603T133 616T138 631Q138 644 131 649T105 654Q79 654 54 639L40 679Q73 700 115 700Q150 700 173 687T196
638Q196 622 190 611T176 590T158 573T141 556Q132 546 132 527V510H82Z" />
<glyph unicode="&#x1eca;" glyph-name="uni1ECA" horiz-adv-x="248" d="M71 659H175V0H71V659ZM164 -128H81V-48H164V-128Z" />
<glyph unicode="&#x1ecb;" glyph-name="uni1ECB" horiz-adv-x="219" d="M57 652H161V560H57V652ZM58 458H160V0H58V458ZM150 -128H67V-48H150V-128Z" />
<glyph unicode="&#x1ecc;" glyph-name="uni1ECC" horiz-adv-x="665" d="M44 333Q44 505 116 587T343 669Q420 669 473 646T559 578T606 470T621 326Q621 155 548 72T320 -11Q242 -11 190 13T105 81T58 189T44 333ZM512 339Q512 390 505 435T478 515T427 568T344
588Q290 588 253 571T194 520T161 437T151 322Q151 270 158 225T185 146T236 93T317 73Q374 73 411 90T471 140T503 224T512 339ZM373 -128H290V-48H373V-128Z" />
<glyph unicode="&#x1ecd;" glyph-name="uni1ECD" horiz-adv-x="517" d="M247 -11Q186 -11 146 5T81 53T46 129T36 231Q36 352 91 410T269 469Q329 469 370 453T435 405T470 328T481 226Q481 105 425 47T247 -11ZM247 62Q322 62 349 105T376 235Q376 268 372 297T355
349T322 385T269 398Q195 398 168 353T141 223Q141 190 145 161T161 109T193 75T247 62ZM299 -128H216V-48H299V-128Z" />
<glyph unicode="&#x1ece;" glyph-name="uni1ECE" horiz-adv-x="665" d="M44 333Q44 505 116 587T343 669Q420 669 473 646T559 578T606 470T621 326Q621 155 548 72T320 -11Q242 -11 190 13T105 81T58 189T44 333ZM512 339Q512 390 505 435T478 515T427 568T344
588Q290 588 253 571T194 520T161 437T151 322Q151 270 158 225T185 146T236 93T317 73Q374 73 411 90T471 140T503 224T512 339ZM303 714V742Q303 752 305 762T316 783Q320 789 327 795T342 807T354 820T359 835Q359 848 352 853T326 858Q300 858 275 843L261
883Q294 904 336 904Q371 904 394 891T417 842Q417 826 411 815T397 794T379 777T362 760Q353 750 353 731V714H303Z" />
<glyph unicode="&#x1ecf;" glyph-name="uni1ECF" horiz-adv-x="517" d="M247 -11Q186 -11 146 5T81 53T46 129T36 231Q36 352 91 410T269 469Q329 469 370 453T435 405T470 328T481 226Q481 105 425 47T247 -11ZM247 62Q322 62 349 105T376 235Q376 268 372 297T355
349T322 385T269 398Q195 398 168 353T141 223Q141 190 145 161T161 109T193 75T247 62ZM234 510V538Q234 548 236 558T247 579Q251 585 258 591T273 603T285 616T290 631Q290 644 283 649T257 654Q231 654 206 639L192 679Q225 700 267 700Q302 700 325 687T348
638Q348 622 342 611T328 590T310 573T293 556Q284 546 284 527V510H234Z" />
<glyph unicode="&#x1ed0;" glyph-name="uni1ED0" horiz-adv-x="665" d="M44 333Q44 505 116 587T343 669Q420 669 473 646T559 578T606 470T621 326Q621 155 548 72T320 -11Q242 -11 190 13T105 81T58 189T44 333ZM512 339Q512 390 505 435T478 515T427 568T344
588Q290 588 253 571T194 520T161 437T151 322Q151 270 158 225T185 146T236 93T317 73Q374 73 411 90T471 140T503 224T512 339ZM599 927L492 797H419L506 927H599ZM368 832L448 718H373L336 773H328L290 718H216L296 832H368Z" />
<glyph unicode="&#x1ed1;" glyph-name="uni1ED1" horiz-adv-x="517" d="M247 -11Q186 -11 146 5T81 53T46 129T36 231Q36 352 91 410T269 469Q329 469 370 453T435 405T470 328T481 226Q481 105 425 47T247 -11ZM247 62Q322 62 349 105T376 235Q376 268 372 297T355
349T322 385T269 398Q195 398 168 353T141 223Q141 190 145 161T161 109T193 75T247 62ZM527 727L420 597H347L434 727H527ZM294 632L374 518H299L262 573H254L216 518H142L222 632H294Z" />
<glyph unicode="&#x1ed2;" glyph-name="uni1ED2" horiz-adv-x="665" d="M44 333Q44 505 116 587T343 669Q420 669 473 646T559 578T606 470T621 326Q621 155 548 72T320 -11Q242 -11 190 13T105 81T58 189T44 333ZM512 339Q512 390 505 435T478 515T427 568T344
588Q290 588 253 571T194 520T161 437T151 322Q151 270 158 225T185 146T236 93T317 73Q374 73 411 90T471 140T503 224T512 339ZM368 832L448 718H373L336 773H328L290 718H216L296 832H368ZM433 927L520 797H447L340 927H433Z" />
<glyph unicode="&#x1ed3;" glyph-name="uni1ED3" horiz-adv-x="517" d="M247 -11Q186 -11 146 5T81 53T46 129T36 231Q36 352 91 410T269 469Q329 469 370 453T435 405T470 328T481 226Q481 105 425 47T247 -11ZM247 62Q322 62 349 105T376 235Q376 268 372 297T355
349T322 385T269 398Q195 398 168 353T141 223Q141 190 145 161T161 109T193 75T247 62ZM294 632L374 518H299L262 573H254L216 518H142L222 632H294ZM358 727L445 597H372L265 727H358Z" />
<glyph unicode="&#x1ed4;" glyph-name="uni1ED4" horiz-adv-x="665" d="M44 333Q44 505 116 587T343 669Q420 669 473 646T559 578T606 470T621 326Q621 155 548 72T320 -11Q242 -11 190 13T105 81T58 189T44 333ZM512 339Q512 390 505 435T478 515T427 568T344
588Q290 588 253 571T194 520T161 437T151 322Q151 270 158 225T185 146T236 93T317 73Q374 73 411 90T471 140T503 224T512 339ZM368 832L448 718H373L336 773H328L290 718H216L296 832H368ZM430 789V817Q430 827 432 837T443 858Q447 864 454 870T469 882T481
895T486 910Q486 923 479 928T453 933Q427 933 402 918L388 958Q421 979 463 979Q498 979 521 966T544 917Q544 901 538 890T524 869T506 852T489 835Q480 825 480 806V789H430Z" />
<glyph unicode="&#x1ed5;" glyph-name="uni1ED5" horiz-adv-x="517" d="M247 -11Q186 -11 146 5T81 53T46 129T36 231Q36 352 91 410T269 469Q329 469 370 453T435 405T470 328T481 226Q481 105 425 47T247 -11ZM247 62Q322 62 349 105T376 235Q376 268 372 297T355
349T322 385T269 398Q195 398 168 353T141 223Q141 190 145 161T161 109T193 75T247 62ZM294 632L374 518H299L262 573H254L216 518H142L222 632H294ZM357 581V609Q357 619 359 629T370 650Q374 656 381 662T396 674T408 687T413 702Q413 715 406 720T380 725Q354
725 329 710L315 750Q348 771 390 771Q425 771 448 758T471 709Q471 693 465 682T451 661T433 644T416 627Q407 617 407 598V581H357Z" />
<glyph unicode="&#x1ed6;" glyph-name="uni1ED6" horiz-adv-x="665" d="M44 333Q44 505 116 587T343 669Q420 669 473 646T559 578T606 470T621 326Q621 155 548 72T320 -11Q242 -11 190 13T105 81T58 189T44 333ZM512 339Q512 390 505 435T478 515T427 568T344
588Q290 588 253 571T194 520T161 437T151 322Q151 270 158 225T185 146T236 93T317 73Q374 73 411 90T471 140T503 224T512 339ZM368 832L448 718H373L336 773H328L290 718H216L296 832H368ZM232 892Q251 914 270 923T315 932Q328 932 338 929T358 921T378 913T402
909Q417 909 432 913T464 932L485 887Q465 865 446 859T401 853Q388 853 378 856T358 864T338 872T314 876Q300 876 286 869T254 850L232 892Z" />
<glyph unicode="&#x1ed7;" glyph-name="uni1ED7" horiz-adv-x="517" d="M247 -11Q186 -11 146 5T81 53T46 129T36 231Q36 352 91 410T269 469Q329 469 370 453T435 405T470 328T481 226Q481 105 425 47T247 -11ZM247 62Q322 62 349 105T376 235Q376 268 372 297T355
349T322 385T269 398Q195 398 168 353T141 223Q141 190 145 161T161 109T193 75T247 62ZM294 632L374 518H299L262 573H254L216 518H142L222 632H294ZM154 694Q173 716 192 725T237 734Q250 734 260 731T280 723T300 715T324 711Q339 711 354 715T386 734L407 689Q387
667 368 661T323 655Q310 655 300 658T280 666T260 674T236 678Q222 678 208 671T176 652L154 694Z" />
<glyph unicode="&#x1ed8;" glyph-name="uni1ED8" horiz-adv-x="665" d="M44 333Q44 505 116 587T343 669Q420 669 473 646T559 578T606 470T621 326Q621 155 548 72T320 -11Q242 -11 190 13T105 81T58 189T44 333ZM512 339Q512 390 505 435T478 515T427 568T344
588Q290 588 253 571T194 520T161 437T151 322Q151 270 158 225T185 146T236 93T317 73Q374 73 411 90T471 140T503 224T512 339ZM373 -128H290V-48H373V-128ZM368 832L448 718H373L336 773H328L290 718H216L296 832H368Z" />
<glyph unicode="&#x1ed9;" glyph-name="uni1ED9" horiz-adv-x="517" d="M247 -11Q186 -11 146 5T81 53T46 129T36 231Q36 352 91 410T269 469Q329 469 370 453T435 405T470 328T481 226Q481 105 425 47T247 -11ZM247 62Q322 62 349 105T376 235Q376 268 372 297T355
349T322 385T269 398Q195 398 168 353T141 223Q141 190 145 161T161 109T193 75T247 62ZM299 -128H216V-48H299V-128ZM294 632L374 518H299L262 573H254L216 518H142L222 632H294Z" />
<glyph unicode="&#x1eda;" glyph-name="uni1EDA" horiz-adv-x="666" d="M512 339Q512 390 505 435T478 515T427 568T344 588Q290 588 253 571T194 520T161 437T151 322Q151 270 158 225T185 146T236 93T317 73Q374 73 411 90T471 140T503 224T512 339ZM583 539Q598
507 607 470Q621 406 621 326Q621 155 548 72T320 -11Q242 -11 190 13T105 81T58 189T44 333Q44 505 116 587T343 669Q420 669 473 646T559 578Q567 567 574 555Q580 566 587 579Q595 596 598 614Q601 633 601 650T602 682H674Q674 656 672 637T662 596Q656 576
642 556T615 520L583 539ZM439 860L337 736H262L348 860H439Z" />
<glyph unicode="&#x1edb;" glyph-name="uni1EDB" horiz-adv-x="522" d="M247 62Q322 62 349 105T376 235Q376 268 372 297T355 349T322 385T269 398Q195 398 168 353T141 223Q141 190 145 161T161 109T193 75T247 62ZM472 320Q481 278 481 226Q481 105 425 47T247
-11Q186 -11 146 5T81 53T46 129T36 231Q36 352 91 410T269 469Q329 469 370 453T436 405Q454 381 464 351Q467 357 471 364Q479 381 482 399Q485 418 485 435T486 467H558Q558 441 556 422T546 381Q540 361 526 341T499 305L472 320ZM394 653L292 529H217L303
653H394Z" />
<glyph unicode="&#x1edc;" glyph-name="uni1EDC" horiz-adv-x="666" d="M512 339Q512 390 505 435T478 515T427 568T344 588Q290 588 253 571T194 520T161 437T151 322Q151 270 158 225T185 146T236 93T317 73Q374 73 411 90T471 140T503 224T512 339ZM583 539Q598
507 607 470Q621 406 621 326Q621 155 548 72T320 -11Q242 -11 190 13T105 81T58 189T44 333Q44 505 116 587T343 669Q420 669 473 646T559 578Q567 567 574 555Q580 566 587 579Q595 596 598 614Q601 633 601 650T602 682H674Q674 656 672 637T662 596Q656 576
642 556T615 520L583 539ZM308 860L394 736H319L217 860H308Z" />
<glyph unicode="&#x1edd;" glyph-name="uni1EDD" horiz-adv-x="522" d="M247 62Q322 62 349 105T376 235Q376 268 372 297T355 349T322 385T269 398Q195 398 168 353T141 223Q141 190 145 161T161 109T193 75T247 62ZM472 320Q481 278 481 226Q481 105 425 47T247
-11Q186 -11 146 5T81 53T46 129T36 231Q36 352 91 410T269 469Q329 469 370 453T436 405Q454 381 464 351Q467 357 471 364Q479 381 482 399Q485 418 485 435T486 467H558Q558 441 556 422T546 381Q540 361 526 341T499 305L472 320ZM218 653L304 529H229L127
653H218Z" />
<glyph unicode="&#x1ede;" glyph-name="uni1EDE" horiz-adv-x="666" d="M512 339Q512 390 505 435T478 515T427 568T344 588Q290 588 253 571T194 520T161 437T151 322Q151 270 158 225T185 146T236 93T317 73Q374 73 411 90T471 140T503 224T512 339ZM583 539Q598
507 607 470Q621 406 621 326Q621 155 548 72T320 -11Q242 -11 190 13T105 81T58 189T44 333Q44 505 116 587T343 669Q420 669 473 646T559 578Q567 567 574 555Q580 566 587 579Q595 596 598 614Q601 633 601 650T602 682H674Q674 656 672 637T662 596Q656 576
642 556T615 520L583 539ZM303 714V742Q303 752 305 762T316 783Q320 789 327 795T342 807T354 820T359 835Q359 848 352 853T326 858Q300 858 275 843L261 883Q294 904 336 904Q371 904 394 891T417 842Q417 826 411 815T397 794T379 777T362 760Q353 750 353
731V714H303Z" />
<glyph unicode="&#x1edf;" glyph-name="uni1EDF" horiz-adv-x="522" d="M247 62Q322 62 349 105T376 235Q376 268 372 297T355 349T322 385T269 398Q195 398 168 353T141 223Q141 190 145 161T161 109T193 75T247 62ZM472 320Q481 278 481 226Q481 105 425 47T247
-11Q186 -11 146 5T81 53T46 129T36 231Q36 352 91 410T269 469Q329 469 370 453T436 405Q454 381 464 351Q467 357 471 364Q479 381 482 399Q485 418 485 435T486 467H558Q558 441 556 422T546 381Q540 361 526 341T499 305L472 320ZM234 510V538Q234 548 236
558T247 579Q251 585 258 591T273 603T285 616T290 631Q290 644 283 649T257 654Q231 654 206 639L192 679Q225 700 267 700Q302 700 325 687T348 638Q348 622 342 611T328 590T310 573T293 556Q284 546 284 527V510H234Z" />
<glyph unicode="&#x1ee0;" glyph-name="uni1EE0" horiz-adv-x="666" d="M512 339Q512 390 505 435T478 515T427 568T344 588Q290 588 253 571T194 520T161 437T151 322Q151 270 158 225T185 146T236 93T317 73Q374 73 411 90T471 140T503 224T512 339ZM583 539Q598
507 607 470Q621 406 621 326Q621 155 548 72T320 -11Q242 -11 190 13T105 81T58 189T44 333Q44 505 116 587T343 669Q420 669 473 646T559 578Q567 567 574 555Q580 566 587 579Q595 596 598 614Q601 633 601 650T602 682H674Q674 656 672 637T662 596Q656 576
642 556T615 520L583 539ZM213 766Q232 788 251 797T296 806Q309 806 319 803T339 795T359 787T383 783Q398 783 413 787T445 806L466 761Q446 739 427 733T382 727Q369 727 359 730T339 738T319 746T295 750Q281 750 267 743T235 724L213 766Z" />
<glyph unicode="&#x1ee1;" glyph-name="uni1EE1" horiz-adv-x="522" d="M247 62Q322 62 349 105T376 235Q376 268 372 297T355 349T322 385T269 398Q195 398 168 353T141 223Q141 190 145 161T161 109T193 75T247 62ZM472 320Q481 278 481 226Q481 105 425 47T247
-11Q186 -11 146 5T81 53T46 129T36 231Q36 352 91 410T269 469Q329 469 370 453T436 405Q454 381 464 351Q467 357 471 364Q479 381 482 399Q485 418 485 435T486 467H558Q558 441 556 422T546 381Q540 361 526 341T499 305L472 320ZM141 573Q160 595 179 604T224
613Q237 613 247 610T267 602T287 594T311 590Q326 590 341 594T373 613L394 568Q374 546 355 540T310 534Q297 534 287 537T267 545T247 553T223 557Q209 557 195 550T163 531L141 573Z" />
<glyph unicode="&#x1ee2;" glyph-name="uni1EE2" horiz-adv-x="666" d="M512 339Q512 390 505 435T478 515T427 568T344 588Q290 588 253 571T194 520T161 437T151 322Q151 270 158 225T185 146T236 93T317 73Q374 73 411 90T471 140T503 224T512 339ZM583 539Q598
507 607 470Q621 406 621 326Q621 155 548 72T320 -11Q242 -11 190 13T105 81T58 189T44 333Q44 505 116 587T343 669Q420 669 473 646T559 578Q567 567 574 555Q580 566 587 579Q595 596 598 614Q601 633 601 650T602 682H674Q674 656 672 637T662 596Q656 576
642 556T615 520L583 539ZM373 -128H290V-48H373V-128Z" />
<glyph unicode="&#x1ee3;" glyph-name="uni1EE3" horiz-adv-x="522" d="M247 62Q322 62 349 105T376 235Q376 268 372 297T355 349T322 385T269 398Q195 398 168 353T141 223Q141 190 145 161T161 109T193 75T247 62ZM472 320Q481 278 481 226Q481 105 425 47T247
-11Q186 -11 146 5T81 53T46 129T36 231Q36 352 91 410T269 469Q329 469 370 453T436 405Q454 381 464 351Q467 357 471 364Q479 381 482 399Q485 418 485 435T486 467H558Q558 441 556 422T546 381Q540 361 526 341T499 305L472 320ZM299 -128H216V-48H299V-128Z"
/>
<glyph unicode="&#x1ee4;" glyph-name="uni1EE4" horiz-adv-x="634" d="M570 659V253Q570 113 503 51T309 -11Q183 -11 124 52T64 260V659H168V245Q168 162 199 117T308 71Q351 71 381 81T430 114T457 173T466 261V659H570ZM357 -128H274V-48H357V-128Z" />
<glyph unicode="&#x1ee5;" glyph-name="uni1EE5" horiz-adv-x="505" d="M446 122L455 0H360L355 36Q342 27 328 20T300 8Q250 -11 201 -11Q156 -11 128 0T83 33T60 86T53 157V458H156V178Q156 155 158 135T169 101T192 78T233 69Q261 69 284 76T327 96Q335 102
344 108V458H446V122ZM301 -128H218V-48H301V-128Z" />
<glyph unicode="&#x1ee6;" glyph-name="uni1EE6" horiz-adv-x="634" d="M570 659V253Q570 113 503 51T309 -11Q183 -11 124 52T64 260V659H168V245Q168 162 199 117T308 71Q351 71 381 81T430 114T457 173T466 261V659H570ZM295 714V742Q295 752 297 762T308 783Q312
789 319 795T334 807T346 820T351 835Q351 848 344 853T318 858Q292 858 267 843L253 883Q286 904 328 904Q363 904 386 891T409 842Q409 826 403 815T389 794T371 777T354 760Q345 750 345 731V714H295Z" />
<glyph unicode="&#x1ee7;" glyph-name="uni1EE7" horiz-adv-x="505" d="M446 122L455 0H360L355 36Q342 27 328 20T300 8Q250 -11 201 -11Q156 -11 128 0T83 33T60 86T53 157V458H156V178Q156 155 158 135T169 101T192 78T233 69Q261 69 284 76T327 96Q335 102
344 108V458H446V122ZM234 510V538Q234 548 236 558T247 579Q251 585 258 591T273 603T285 616T290 631Q290 644 283 649T257 654Q231 654 206 639L192 679Q225 700 267 700Q302 700 325 687T348 638Q348 622 342 611T328 590T310 573T293 556Q284 546 284 527V510H234Z"
/>
<glyph unicode="&#x1ee8;" glyph-name="uni1EE8" horiz-adv-x="635" d="M570 540V253Q570 113 503 51T309 -11Q183 -11 124 52T64 260V659H168V245Q168 162 199 117T308 71Q351 71 381 81T430 114T457 173T466 261V659H570V568Q573 573 576 579Q584 596 587 614Q590
633 590 650T591 682H663Q663 656 661 637T651 596Q645 576 631 556T604 520L570 540ZM443 860L341 736H266L352 860H443Z" />
<glyph unicode="&#x1ee9;" glyph-name="uni1EE9" horiz-adv-x="505" d="M446 328V122L455 0H360L355 36Q342 27 328 20T300 8Q250 -11 201 -11Q156 -11 128 0T83 33T60 86T53 157V458H156V178Q156 155 158 135T169 101T192 78T233 69Q261 69 284 76T327 96Q335
102 344 108V458H446V343Q452 352 458 364Q466 381 469 399Q472 418 472 435T473 467H545Q545 441 543 422T533 381Q527 361 513 341T486 305L446 328ZM388 653L286 529H211L297 653H388Z" />
<glyph unicode="&#x1eea;" glyph-name="uni1EEA" horiz-adv-x="635" d="M570 540V253Q570 113 503 51T309 -11Q183 -11 124 52T64 260V659H168V245Q168 162 199 117T308 71Q351 71 381 81T430 114T457 173T466 261V659H570V568Q573 573 576 579Q584 596 587 614Q590
633 590 650T591 682H663Q663 656 661 637T651 596Q645 576 631 556T604 520L570 540ZM288 860L374 736H299L197 860H288Z" />
<glyph unicode="&#x1eeb;" glyph-name="uni1EEB" horiz-adv-x="505" d="M446 328V122L455 0H360L355 36Q342 27 328 20T300 8Q250 -11 201 -11Q156 -11 128 0T83 33T60 86T53 157V458H156V178Q156 155 158 135T169 101T192 78T233 69Q261 69 284 76T327 96Q335
102 344 108V458H446V343Q452 352 458 364Q466 381 469 399Q472 418 472 435T473 467H545Q545 441 543 422T533 381Q527 361 513 341T486 305L446 328ZM218 653L304 529H229L127 653H218Z" />
<glyph unicode="&#x1eec;" glyph-name="uni1EEC" horiz-adv-x="635" d="M570 540V253Q570 113 503 51T309 -11Q183 -11 124 52T64 260V659H168V245Q168 162 199 117T308 71Q351 71 381 81T430 114T457 173T466 261V659H570V568Q573 573 576 579Q584 596 587 614Q590
633 590 650T591 682H663Q663 656 661 637T651 596Q645 576 631 556T604 520L570 540ZM295 714V742Q295 752 297 762T308 783Q312 789 319 795T334 807T346 820T351 835Q351 848 344 853T318 858Q292 858 267 843L253 883Q286 904 328 904Q363 904 386 891T409
842Q409 826 403 815T389 794T371 777T354 760Q345 750 345 731V714H295Z" />
<glyph unicode="&#x1eed;" glyph-name="uni1EED" horiz-adv-x="505" d="M446 328V122L455 0H360L355 36Q342 27 328 20T300 8Q250 -11 201 -11Q156 -11 128 0T83 33T60 86T53 157V458H156V178Q156 155 158 135T169 101T192 78T233 69Q261 69 284 76T327 96Q335
102 344 108V458H446V343Q452 352 458 364Q466 381 469 399Q472 418 472 435T473 467H545Q545 441 543 422T533 381Q527 361 513 341T486 305L446 328ZM234 510V538Q234 548 236 558T247 579Q251 585 258 591T273 603T285 616T290 631Q290 644 283 649T257 654Q231
654 206 639L192 679Q225 700 267 700Q302 700 325 687T348 638Q348 622 342 611T328 590T310 573T293 556Q284 546 284 527V510H234Z" />
<glyph unicode="&#x1eee;" glyph-name="uni1EEE" horiz-adv-x="635" d="M570 540V253Q570 113 503 51T309 -11Q183 -11 124 52T64 260V659H168V245Q168 162 199 117T308 71Q351 71 381 81T430 114T457 173T466 261V659H570V568Q573 573 576 579Q584 596 587 614Q590
633 590 650T591 682H663Q663 656 661 637T651 596Q645 576 631 556T604 520L570 540ZM204 766Q223 788 242 797T287 806Q300 806 310 803T330 795T350 787T374 783Q389 783 404 787T436 806L457 761Q437 739 418 733T373 727Q360 727 350 730T330 738T310 746T286
750Q272 750 258 743T226 724L204 766Z" />
<glyph unicode="&#x1eef;" glyph-name="uni1EEF" horiz-adv-x="505" d="M446 328V122L455 0H360L355 36Q342 27 328 20T300 8Q250 -11 201 -11Q156 -11 128 0T83 33T60 86T53 157V458H156V178Q156 155 158 135T169 101T192 78T233 69Q261 69 284 76T327 96Q335
102 344 108V458H446V343Q452 352 458 364Q466 381 469 399Q472 418 472 435T473 467H545Q545 441 543 422T533 381Q527 361 513 341T486 305L446 328ZM141 573Q160 595 179 604T224 613Q237 613 247 610T267 602T287 594T311 590Q326 590 341 594T373 613L394
568Q374 546 355 540T310 534Q297 534 287 537T267 545T247 553T223 557Q209 557 195 550T163 531L141 573Z" />
<glyph unicode="&#x1ef0;" glyph-name="uni1EF0" horiz-adv-x="635" d="M570 540V253Q570 113 503 51T309 -11Q183 -11 124 52T64 260V659H168V245Q168 162 199 117T308 71Q351 71 381 81T430 114T457 173T466 261V659H570V568Q573 573 576 579Q584 596 587 614Q590
633 590 650T591 682H663Q663 656 661 637T651 596Q645 576 631 556T604 520L570 540ZM357 -128H274V-48H357V-128Z" />
<glyph unicode="&#x1ef1;" glyph-name="uni1EF1" horiz-adv-x="505" d="M446 328V122L455 0H360L355 36Q342 27 328 20T300 8Q250 -11 201 -11Q156 -11 128 0T83 33T60 86T53 157V458H156V178Q156 155 158 135T169 101T192 78T233 69Q261 69 284 76T327 96Q335
102 344 108V458H446V343Q452 352 458 364Q466 381 469 399Q472 418 472 435T473 467H545Q545 441 543 422T533 381Q527 361 513 341T486 305L446 328ZM301 -128H218V-48H301V-128Z" />
<glyph unicode="&#x1ef2;" glyph-name="Ygrave" horiz-adv-x="575" d="M339 282V0H235V281Q223 300 204 330T162 396T116 470T70 545T30 610T-1 659H121L284 378H292L455 659H575L339 282ZM236 885L350 726H253L122 885H236Z" />
<glyph unicode="&#x1ef3;" glyph-name="ygrave" horiz-adv-x="454" d="M3 458H116L230 120H239L347 458H451L273 -32Q257 -76 241 -111T201 -172T144 -212T62 -226Q48 -226 33 -226T5 -220L18 -148Q33 -152 54 -152Q89 -152 108 -141T139 -114Q151 -96 163 -64T186
-3L3 458ZM177 685L291 526H194L63 685H177Z" />
<glyph unicode="&#x1ef4;" glyph-name="uni1EF4" horiz-adv-x="575" d="M339 282V0H235V281Q223 300 204 330T162 396T116 470T70 545T30 610T-1 659H121L284 378H292L455 659H575L339 282ZM329 -128H246V-48H329V-128Z" />
<glyph unicode="&#x1ef5;" glyph-name="uni1EF5" horiz-adv-x="454" d="M3 458H116L230 120H239L347 458H451L273 -32Q257 -76 241 -111T201 -172T144 -212T62 -226Q48 -226 33 -226T5 -220L18 -148Q33 -152 54 -152Q89 -152 108 -141T139 -114Q151 -96 163 -64T186
-3L3 458ZM384 -128H301V-48H384V-128Z" />
<glyph unicode="&#x1ef6;" glyph-name="uni1EF6" horiz-adv-x="575" d="M339 282V0H235V281Q223 300 204 330T162 396T116 470T70 545T30 610T-1 659H121L284 378H292L455 659H575L339 282ZM269 714V742Q269 752 271 762T282 783Q286 789 293 795T308 807T320
820T325 835Q325 848 318 853T292 858Q266 858 241 843L227 883Q260 904 302 904Q337 904 360 891T383 842Q383 826 377 815T363 794T345 777T328 760Q319 750 319 731V714H269Z" />
<glyph unicode="&#x1ef7;" glyph-name="uni1EF7" horiz-adv-x="454" d="M3 458H116L230 120H239L347 458H451L273 -32Q257 -76 241 -111T201 -172T144 -212T62 -226Q48 -226 33 -226T5 -220L18 -148Q33 -152 54 -152Q89 -152 108 -141T139 -114Q151 -96 163 -64T186
-3L3 458ZM203 510V538Q203 548 205 558T216 579Q220 585 227 591T242 603T254 616T259 631Q259 644 252 649T226 654Q200 654 175 639L161 679Q194 700 236 700Q271 700 294 687T317 638Q317 622 311 611T297 590T279 573T262 556Q253 546 253 527V510H203Z" />
<glyph unicode="&#x1ef8;" glyph-name="uni1EF8" horiz-adv-x="575" d="M339 282V0H235V281Q223 300 204 330T162 396T116 470T70 545T30 610T-1 659H121L284 378H292L455 659H575L339 282ZM172 766Q191 788 210 797T255 806Q268 806 278 803T298 795T318 787T342
783Q357 783 372 787T404 806L425 761Q405 739 386 733T341 727Q328 727 318 730T298 738T278 746T254 750Q240 750 226 743T194 724L172 766Z" />
<glyph unicode="&#x1ef9;" glyph-name="uni1EF9" horiz-adv-x="454" d="M3 458H116L230 120H239L347 458H451L273 -32Q257 -76 241 -111T201 -172T144 -212T62 -226Q48 -226 33 -226T5 -220L18 -148Q33 -152 54 -152Q89 -152 108 -141T139 -114Q151 -96 163 -64T186
-3L3 458ZM119 573Q138 595 157 604T202 613Q215 613 225 610T245 602T265 594T289 590Q304 590 319 594T351 613L372 568Q352 546 333 540T288 534Q275 534 265 537T245 545T225 553T201 557Q187 557 173 550T141 531L119 573Z" />
<glyph unicode="&#x2010;" glyph-name="uni2010" horiz-adv-x="564" d="M494 224H69V308H494V224Z" />
<glyph unicode="&#x2013;" glyph-name="endash" horiz-adv-x="539" d="M485 199H54V281H485V199Z" />
<glyph unicode="&#x2014;" glyph-name="emdash" horiz-adv-x="779" d="M756 199H21V281H756V199Z" />
<glyph unicode="&#x2018;" glyph-name="quoteleft" horiz-adv-x="223" d="M198 653Q167 597 157 547T147 438H52Q52 481 57 516T73 582T98 639T133 694L198 653Z" />
<glyph unicode="&#x2019;" glyph-name="quoteright" horiz-adv-x="223" d="M33 471Q64 527 74 577T84 686H179Q179 642 174 607T158 542T133 485T98 430L33 471Z" />
<glyph unicode="&#x201a;" glyph-name="quotesinglbase" horiz-adv-x="218" d="M12 -112Q43 -56 53 -6T63 103H158Q158 59 153 24T137 -41T112 -98T77 -153L12 -112Z" />
<glyph unicode="&#x201c;" glyph-name="quotedblleft" horiz-adv-x="412" d="M198 653Q167 597 157 547T147 438H52Q52 481 57 516T73 582T98 639T133 694L198 653ZM380 653Q349 597 339 547T329 438H234Q234 481 239 516T255 582T280 639T315 694L380 653Z" />
<glyph unicode="&#x201d;" glyph-name="quotedblright" horiz-adv-x="412" d="M39 471Q70 527 80 577T90 686H185Q185 642 180 607T164 542T139 485T104 430L39 471ZM213 471Q244 527 254 577T264 686H359Q359 642 354 607T338 542T313 485T278 430L213 471Z" />
<glyph unicode="&#x201e;" glyph-name="quotedblbase" horiz-adv-x="405" d="M39 -112Q70 -56 80 -6T90 103H185Q185 59 180 24T164 -41T139 -98T104 -153L39 -112ZM213 -112Q244 -56 254 -6T264 103H359Q359 59 354 24T338 -41T313 -98T278 -153L213 -112Z" />
<glyph unicode="&#x2020;" glyph-name="dagger" horiz-adv-x="563" d="M525 340L318 360L340 130L307 -221H256L224 130L245 360L38 340V450L245 429L224 659H340L318 429L525 450V340Z" />
<glyph unicode="&#x2021;" glyph-name="daggerdbl" horiz-adv-x="563" d="M523 -12L318 8L340 -221H224L245 6L40 -12V97L245 78L232 218L245 360L38 340V450L245 429L224 659H340L318 429L525 450V340L318 360L331 218L318 78L523 97V-12Z" />
<glyph unicode="&#x2022;" glyph-name="bullet" horiz-adv-x="290" d="M32 260Q32 308 63 339T145 370Q196 370 227 339T258 260Q258 212 227 182T145 151Q94 151 63 181T32 260Z" />
<glyph unicode="&#x2026;" glyph-name="ellipsis" horiz-adv-x="654" d="M54 103H162V0H54V103ZM273 103H381V0H273V103ZM491 103H600V0H491V103Z" />
<glyph unicode="&#x2030;" glyph-name="perthousand" horiz-adv-x="1011" d="M221 494Q221 549 208 580T162 611Q130 611 116 580T102 494Q102 439 116 409T162 379Q194 379 207 409T221 494ZM619 166Q619 221 606 252T560 283Q529 283 515 252T500 166Q500 51
560 51Q593 51 606 80T619 166ZM161 -31H67L545 692H640L161 -31ZM560 -10Q490 -10 458 38T425 166Q425 247 457 294T560 342Q629 342 661 295T694 166Q694 87 661 39T560 -10ZM162 318Q91 318 59 366T26 494Q26 575 58 623T162 671Q231 671 263 623T296 494Q296
415 264 367T162 318ZM908 166Q908 221 895 252T849 283Q818 283 804 252T789 166Q789 51 849 51Q882 51 895 80T908 166ZM849 -10Q779 -10 747 38T714 166Q714 247 746 294T849 342Q918 342 950 295T983 166Q983 87 950 39T849 -10Z" />
<glyph unicode="&#x2039;" glyph-name="guilsinglleft" horiz-adv-x="300" d="M248 373L129 230L247 89L179 32L15 229L180 426L248 373Z" />
<glyph unicode="&#x203a;" glyph-name="guilsinglright" horiz-adv-x="300" d="M52 85L171 228L53 369L121 426L285 229L120 32L52 85Z" />
<glyph unicode="&#x2044;" glyph-name="fraction" horiz-adv-x="598" d="M8 -32L485 691H589L111 -32H8Z" />
<glyph unicode="&#x20a9;" glyph-name="won" horiz-adv-x="949" d="M31 282H157L136 369H31V432H122L70 659H172L221 432H368L409 659H545L588 432H737L783 659H880L830 432H921V369H816L796 282H921V219H783L736 0H594L550 219H403L362 0H222L171 219H31V282ZM617
282H706L724 369H600L617 282ZM415 282H537L520 369H432L415 282ZM253 282H340L356 369H234L253 282ZM471 576L444 432H508L480 576H471ZM656 82H665L693 219H629L656 82ZM296 82H304L329 219H266L296 82Z" />
<glyph unicode="&#x20ab;" glyph-name="dong" horiz-adv-x="513" d="M331 631H285V676H331V716H392V676H442V631H392V216H335V261Q300 207 234 207Q196 207 167 222T119 264T89 325T78 396Q78 437 87 471T116 531T164 571T231 586Q295 586 331 536V631ZM141 396Q141
333 168 296T240 258Q285 258 310 294T336 391Q336 460 310 498T237 536Q192 536 167 499T141 396ZM442 120H78V165H442V120Z" />
<glyph unicode="&#x20ac;" glyph-name="Euro" horiz-adv-x="619" d="M404 -11Q249 -9 180 76Q131 135 118 233H16L39 296H112V329V356H17L40 420H118Q133 527 188 586Q266 669 411 669Q459 669 505 657T588 619L556 531Q529 556 495 571T414 586Q312 586 265 518Q238
481 226 420H516L493 356H220Q219 347 219 338T219 320V296H471L447 233H226Q236 176 264 139Q311 77 411 77Q454 77 491 84T561 104V13Q524 2 485 -4T404 -11Z" />
<glyph unicode="&#x2113;" glyph-name="uni2113" horiz-adv-x="375" d="M199 418Q223 435 238 458Q255 485 255 526Q255 569 247 581T226 594Q213 594 206 581T199 526V418ZM109 304Q78 298 47 294L30 362Q72 371 109 381V546Q109 606 138 638T226 671Q253 671
275 664T313 639T337 595T346 526Q346 466 319 425T250 356Q226 341 199 330V124Q199 103 205 91T221 73T244 66T270 64V-2Q262 -4 247 -5T218 -6Q164 -6 137 28T109 123V304Z" />
<glyph unicode="&#x2116;" glyph-name="uni2116" horiz-adv-x="1026" d="M711 324H979V264H711V324ZM628 659V0H447L184 576H175V0H71V659H253L516 82H524V659H628ZM837 362Q796 362 770 372T728 403T706 453T699 522Q699 606 735 643T852 680Q892 680 919 670T962
639T984 589T991 519Q991 435 955 399T837 362ZM837 416Q886 416 903 441T920 525Q920 547 918 566T908 598T887 619T852 627Q827 627 811 621T786 602T774 567T770 517Q770 494 772 475T782 443T802 423T837 416Z" />
<glyph unicode="&#x2122;" glyph-name="trademark" horiz-adv-x="758" d="M103 318V598H0V659H285V598H183V318H103ZM327 659H453L493 529L518 415H529L554 529L591 659H715V318H640V485L645 594H634L595 441L563 331H480L447 443L406 594H396L401 485V318H327V659Z" />
<glyph unicode="&#x212e;" glyph-name="estimated" horiz-adv-x="844" d="M734 125Q704 95 671 70T600 26T517 -2T422 -12Q346 -12 281 16T168 91T93 201T65 333Q65 403 93 465T170 575T284 650T422 678Q495 678 559 650T673 575T750 465T779 333V311H207V98Q248
64 302 43T422 21Q507 21 576 52T710 149L734 125ZM422 645Q356 645 303 623T207 564V343H637V564Q595 601 542 623T422 645Z" />
<glyph unicode="&#x2202;" glyph-name="partialdiff" horiz-adv-x="560" d="M501 263Q489 122 428 55T273 -13Q214 -13 171 3T99 49T57 119T46 207Q48 253 64 293T109 362T182 404T281 411Q303 408 320 404T351 393T380 377T409 355Q415 460 375 522T243 619L271
685Q332 663 379 633T456 554T498 435T501 263ZM402 263Q374 290 348 304T284 324Q247 329 221 323T179 300T154 259T143 206Q138 140 170 105T268 70Q304 70 328 87T368 131T391 193T402 263Z" />
<glyph unicode="&#x2206;" glyph-name="increment" horiz-adv-x="656" d="M27 0L325 682L629 0H27ZM325 471L165 88H487L325 471Z" />
<glyph unicode="&#x220f;" glyph-name="product" horiz-adv-x="730" d="M547 581V0H457V581H271V0H183V581H50V659H680V581H547Z" />
<glyph unicode="&#x2211;" glyph-name="summation" horiz-adv-x="523" d="M466 16V-60H54L295 341L54 719H466V643H205L395 341L202 16H466Z" />
<glyph unicode="&#x2212;" glyph-name="minus" horiz-adv-x="563" d="M493 224H69V307H493V224Z" />
<glyph unicode="&#x221a;" glyph-name="radical" horiz-adv-x="569" d="M135 322L246 165L418 675L497 649L273 -20L64 274L135 322Z" />
<glyph unicode="&#x221e;" glyph-name="infinity" horiz-adv-x="772" d="M558 378Q627 378 669 340T712 233Q712 164 670 126T558 87Q503 87 461 114T386 175Q354 141 312 114T214 87Q145 87 103 125T60 233Q60 302 102 340T214 378Q269 378 311 352T386 291Q418
325 460 351T558 378ZM556 166Q592 166 608 185T625 233Q625 262 609 280T556 299Q521 299 495 281T439 233Q468 204 494 185T556 166ZM216 166Q251 166 277 185T332 233Q303 262 277 280T216 299Q180 299 164 281T147 233Q147 204 163 185T216 166Z" />
<glyph unicode="&#x222b;" glyph-name="integral'" horiz-adv-x="405" d="M257 -45Q257 -136 218 -181T107 -226Q90 -226 73 -222T39 -212L55 -140Q70 -144 81 -146T105 -148Q141 -148 153 -122T166 -40V506Q166 593 199 640T293 687Q310 687 332 682T373 669L352
598Q323 611 296 611Q273 611 265 580T257 500V-45Z" />
<glyph unicode="&#x2248;" glyph-name="approxequal" horiz-adv-x="563" d="M485 393Q455 364 425 347T353 329Q335 329 317 334T266 353Q250 360 237 365T210 371Q188 371 168 364T119 333L75 390Q106 417 138 435T210 453Q228 453 245 449T285 434Q311 423 325
417T353 411Q377 411 396 420T439 450L485 393ZM485 242Q455 213 425 196T353 178Q335 178 317 183T266 202Q250 209 237 214T210 220Q188 220 168 213T119 182L75 239Q106 266 138 284T210 302Q228 302 245 298T285 283Q311 272 325 266T353 260Q377 260 396 269T439
299L485 242Z" />
<glyph unicode="&#x2260;" glyph-name="notequal" horiz-adv-x="563" d="M313 287H493V205H266L212 111L139 152L170 205H69V287H217L250 345H69V426H297L348 515L421 474L393 426H493V345H347L313 287Z" />
<glyph unicode="&#x2264;" glyph-name="lessequal" horiz-adv-x="537" d="M479 0H58V77H479V0ZM428 101L46 298L427 498L468 430L214 298L468 169L428 101Z" />
<glyph unicode="&#x2265;" glyph-name="greaterequal" horiz-adv-x="537" d="M58 77H479V0H58V77ZM69 169L323 298L69 430L110 498L491 298L109 101L69 169Z" />
<glyph unicode="&#x25ca;" glyph-name="lozenge" horiz-adv-x="644" d="M43 333L322 681L601 333L322 -15L43 333ZM504 333L322 565L140 333L322 103L504 333Z" />
<glyph unicode="&#xf6c1;" glyph-name="uniF6C1" d="M340 248Q320 258 297 267T250 285T201 303T155 324Q128 337 107 351T72 385T51 430T43 490Q43 533 60 566T110 623T186 657T286 669Q340 669 392 659T490 624L454 546Q424 561 381 573T286 586Q217 586 183
563T148 497Q148 465 166 445T212 411Q248 393 297 376T391 337Q414 325 434 312T468 279T491 234T500 172Q500 128 483 94T433 37T356 2T255 -11Q198 -11 141 1T36 39L75 118Q120 96 162 86T252 75Q328 75 362 100T396 166Q396 196 380 216T340 248ZM163 -149Q180
-155 196 -158T230 -161Q259 -161 274 -153T289 -122Q289 -95 269 -86T192 -71L213 -17Q301 -22 342 -44T384 -121Q384 -178 350 -202T241 -226Q212 -226 185 -221T139 -208L163 -149Z" />
<glyph unicode="&#xf6c2;" glyph-name="uniF6C2" horiz-adv-x="433" d="M193 289Q201 285 215 280T243 270L300 251Q343 239 372 211T402 129Q402 57 351 23T205 -11Q153 -11 110 -3T31 22L63 96Q119 65 205 65Q247 65 274 76T302 119Q302 155 244 177Q217 185
188 194T135 213Q94 227 66 254T38 333Q38 369 53 394T94 436T155 461T230 469Q285 469 325 461T398 439L366 365Q310 394 230 394Q181 394 158 380T135 343Q135 325 148 313T193 289ZM117 -149Q134 -155 150 -158T184 -161Q213 -161 228 -153T243 -122Q243 -95
223 -86T146 -71L167 -17Q255 -22 296 -44T338 -121Q338 -178 304 -202T195 -226Q166 -226 139 -221T93 -208L117 -149Z" />
<glyph unicode="&#xf6c3;" glyph-name="commaaccent" horiz-adv-x="356" d="M82 -245Q115 -201 126 -158T137 -55H231Q231 -128 210 -185T143 -294L82 -245Z" />
<glyph unicode="&#xf8ff;" glyph-name="" horiz-adv-x="851" d="M438 333V0H105V666H771V333H438Z" />
<glyph unicode="&#xfb01;" glyph-name="fi" horiz-adv-x="549" d="M87 380H25V458H87V504Q87 555 103 591T149 649T220 682T313 693Q361 693 410 687T492 672V567H388V616H383Q355 623 320 623Q249 623 219 590T188 504V458H491V0H389V380H188V0H87V380Z" />
<glyph unicode="&#xfb02;" glyph-name="fl" horiz-adv-x="559" d="M87 380H25V458H87V507Q87 559 103 594T150 652T223 683T316 693Q340 693 365 692T413 687T456 680T491 672V133Q491 92 501 81T541 70V-3Q538 -4 531 -4Q527 -5 520 -5H510Q441 -5 415 30T389
131V615H385Q353 622 317 622Q247 622 218 590T188 506V458H323V380H188V0H87V380Z" />
</font>
</defs>
</svg>
