<?xml version="1.0" standalone="no"?> <!DOCTYPE svg PUBLIC "-//W3C//DTD SVG 1.0//EN" "http://www.w3.org/TR/2001/REC-SVG-20010904/DTD/svg10.dtd" > <svg xmlns="http://www.w3.org/2000/svg" width="100%" height="100%">
<defs >
<font horiz-adv-x="520" ><font-face
    font-family="LG Smart"
    units-per-em="1000"
    panose-1="2 11 5 2 4 4 2 13 2 3"
    ascent="716"
    descent="-284"
    alphabetic="0" />
<missing-glyph horiz-adv-x="545" d="M74 659H471V0H74V659ZM421 614H123V44H421V614ZM248 209V234Q248 271 261 298T291 349T321 393T335 438Q335 465 317 482T264 499Q240 499 221 491T190 473L172 506Q213 538 264 538Q318 538 348 511T378 439Q378 409 365
386T335 340T305 292T291 234V209H248ZM295 120H246V161H295V120Z" />
<glyph unicode=" " glyph-name="space" horiz-adv-x="242" />
<glyph unicode="!" glyph-name="exclam" horiz-adv-x="226" d="M126 159H57L158 659H242L126 159ZM35 86H120L102 0H16L35 86Z" />
<glyph unicode="&quot;" glyph-name="quotedbl" horiz-adv-x="386" d="M121 464L156 687H235L175 464H121ZM279 464L314 687H393L333 464H279Z" />
<glyph unicode="#" glyph-name="numbersign" horiz-adv-x="537" d="M473 326H396L370 206H447L435 147H357L343 78H279L295 147H192L178 78H114L128 147H52L65 206H141L167 326H90L103 385H179L194 454H258L243 385H346L361 454H424L408 385H485L473 326ZM205
206H307L333 326H231L205 206Z" />
<glyph unicode="$" glyph-name="dollar" horiz-adv-x="519" d="M48 91Q74 79 111 68T192 55L245 305Q229 313 214 320T181 337Q143 357 121 390T98 465Q98 515 115 551T162 613T233 651T322 668L341 754H396L378 668Q423 666 461 658T531 635L499 573Q475 584
442 593T364 604L312 360Q349 344 380 327Q416 307 437 275T459 198Q459 148 442 111T394 48T323 8T234 -10L217 -89H161L178 -10Q130 -8 90 2T15 29L48 91ZM379 182Q379 212 364 231T329 263L296 282L248 58Q307 67 343 99T379 182ZM180 482Q180 451 195 432T232
401Q239 396 246 392T262 384L308 601Q249 593 215 564T180 482Z" />
<glyph unicode="%" glyph-name="percent" horiz-adv-x="705" d="M274 548Q274 575 264 598T225 621Q200 621 182 605T151 563T133 505T127 440Q127 412 137 389T177 366Q200 366 218 382T248 424T267 482T274 548ZM509 37Q533 37 551 52T581 93T600 152T606 219Q606
246 596 269T558 292Q533 292 515 276T484 234T465 176T459 109Q459 82 469 60T509 37ZM102 -29H22L629 688H710L102 -29ZM665 221Q665 184 657 143T629 68T578 12T502 -11Q453 -11 427 21T400 108Q400 144 408 185T436 260T487 318T565 341Q614 341 639 309T665
221ZM169 317Q120 317 94 348T68 437Q68 473 76 514T103 589T154 646T233 669Q282 669 307 638T333 550Q333 513 324 472T296 397T245 340T169 317Z" />
<glyph unicode="&amp;" glyph-name="ampersand" horiz-adv-x="593" d="M11 125Q11 167 22 201T57 263T114 314T195 360Q180 388 170 418T159 480Q159 522 174 557T216 616T281 655T367 669Q430 669 469 636T508 551Q508 508 492 477T448 421T381 376T296 336L400
178Q425 207 448 240T492 305L554 278Q524 233 496 194T437 121L516 0H428L382 69Q337 31 286 10T171 -11Q138 -11 109 -3T58 22T24 64T11 125ZM188 55Q233 55 272 74T347 125L229 305Q160 273 126 235T92 142Q92 96 117 76T188 55ZM235 484Q235 459 242 437T263
389Q300 405 331 419T384 451T419 489T431 539Q431 571 412 589T357 607Q299 607 267 572T235 484Z" />
<glyph unicode="&apos;" glyph-name="quotesingle" horiz-adv-x="221" d="M119 464L154 687H233L173 464H119Z" />
<glyph unicode="(" glyph-name="parenleft" horiz-adv-x="330" d="M35 122Q35 215 55 297T113 453T207 595T337 724L378 676Q317 629 268 569T183 438T128 288T109 125Q109 43 131 -25T196 -160L142 -199Q93 -130 64 -53T35 122Z" />
<glyph unicode=")" glyph-name="parenright" horiz-adv-x="329" d="M295 402Q295 309 275 227T216 72T121 -69T-9 -199L-49 -152Q11 -105 60 -44T145 88T200 239T220 404Q220 485 198 552T133 686L186 724Q210 689 230 653T265 578T287 496T295 402Z" />
<glyph unicode="*" glyph-name="asterisk" horiz-adv-x="439" d="M305 533L444 588L452 512L310 478L379 365L307 322L260 442L161 322L103 368L219 480L95 512L133 587L248 535L268 676H347L305 533Z" />
<glyph unicode="+" glyph-name="plus" horiz-adv-x="563" d="M92 299H252L287 461H356L322 299H483L469 233H308L273 70H204L238 233H78L92 299Z" />
<glyph unicode="," glyph-name="comma" horiz-adv-x="196" d="M-64 -114Q-29 -65 -8 -20T25 84H100Q83 10 54 -42T-18 -145L-64 -114Z" />
<glyph unicode="-" glyph-name="hyphen" horiz-adv-x="365" d="M289 199H49L64 268H304L289 199Z" />
<glyph unicode="." glyph-name="period" horiz-adv-x="196" d="M83 0H-3L14 86H102L83 0Z" />
<glyph unicode="/" glyph-name="slash" horiz-adv-x="359" d="M355 684H433L27 -40H-50L355 684Z" />
<glyph unicode="0" glyph-name="zero" horiz-adv-x="563" d="M239 51Q278 51 310 69T366 119T407 190T436 275T452 364T457 450Q457 477 452 504T435 554T400 591T344 606Q305 606 274 588T218 538T177 467T149 382T133 292T128 207Q128 180 132 152T149 102T183
65T239 51ZM231 -11Q143 -11 99 45T54 204Q54 250 60 302T81 407T119 506T175 589T253 646T354 668Q442 668 487 611T532 454Q532 407 526 355T505 250T467 151T410 68T332 11T231 -11Z" />
<glyph unicode="1" glyph-name="one" horiz-adv-x="563" d="M338 578L185 510L164 562L377 659H433L294 0H214L338 578Z" />
<glyph unicode="2" glyph-name="two" horiz-adv-x="563" d="M27 0L37 49L274 260Q324 307 357 341T409 402T435 452T443 502Q443 556 411 581T326 606Q275 606 234 591T161 558L143 615Q186 638 235 653T348 669Q429 669 478 631T528 520Q528 479 515 444T476
373T413 302T329 222L154 65H452L438 0H27Z" />
<glyph unicode="3" glyph-name="three" horiz-adv-x="563" d="M387 349Q429 336 456 304T483 217Q483 164 464 122T408 50T321 5T207 -11Q132 -11 82 12T8 64L56 113Q83 89 119 71T214 53Q254 53 288 64T347 95T386 142T400 204Q400 258 362 285T251 312Q239 312
231 312T214 310L227 376H259Q297 376 330 385T388 411T427 455T441 516Q441 561 410 582T326 604Q277 604 236 590T168 559L141 613Q156 623 176 633T223 651T279 664T342 669Q424 669 474 633T525 530Q525 492 515 462T485 410T441 372T387 349Z" />
<glyph unicode="4" glyph-name="four" horiz-adv-x="563" d="M417 210H498L485 148H403L372 0H295L326 148H16L27 197L383 659H512L417 210ZM420 595H413L119 210H339L420 595Z" />
<glyph unicode="5" glyph-name="five" horiz-adv-x="563" d="M79 105Q103 83 136 69T219 54Q304 54 352 98T401 221Q401 254 388 277T352 316T299 339T232 347H129L196 659H534L521 595H261L221 409H252Q304 409 346 397T419 363T466 308T483 235Q483 117 413
53T212 -11Q146 -11 100 8T28 56L79 105Z" />
<glyph unicode="6" glyph-name="six" horiz-adv-x="563" d="M526 587Q508 595 482 600T428 605Q376 605 334 587T258 538T202 463T164 368Q196 388 236 402T333 416Q412 416 454 374T496 260Q496 198 477 148T424 63T341 8T233 -11Q152 -11 107 41T62 192Q62 245
70 301T96 410T143 510T214 592T311 648T437 669Q477 669 506 663T558 647L526 587ZM308 351Q262 351 220 333T148 294Q142 247 142 198Q142 169 147 142T164 95T197 63T247 51Q281 51 312 65T366 104T403 166T417 247Q417 301 389 326T308 351Z" />
<glyph unicode="7" glyph-name="seven" horiz-adv-x="563" d="M468 595H113L127 659H571L561 611L199 0H114L468 595Z" />
<glyph unicode="8" glyph-name="eight" horiz-adv-x="563" d="M186 341Q154 360 135 389T116 463Q116 559 182 614T366 669Q448 669 493 632T538 528Q538 456 503 410T407 341Q445 323 467 292T490 211Q490 159 471 118T417 48T333 4T221 -11Q131 -11 81 31T31
143Q31 184 43 216T77 272T127 313T186 341ZM288 305Q249 305 218 294T164 264T129 216T116 153Q116 104 147 78T235 52Q273 52 304 63T358 94T393 142T406 207Q406 256 376 280T288 305ZM353 607Q318 607 290 597T241 568T209 523T197 464Q197 419 224 395T303
370Q370 370 412 407T455 511Q455 607 353 607Z" />
<glyph unicode="9" glyph-name="nine" horiz-adv-x="563" d="M60 71Q78 63 104 58T158 53Q210 53 252 71T328 120T384 195T422 290Q390 270 350 256T253 242Q174 242 132 284T90 398Q90 460 109 510T162 595T245 650T353 669Q434 669 479 617T524 466Q524 386
505 302T443 148T327 34T149 -11Q109 -11 80 -5T28 11L60 71ZM278 307Q324 307 366 325T438 364Q444 410 444 460Q444 489 439 515T422 562T389 595T339 607Q305 607 274 593T220 554T183 492T169 411Q169 357 197 332T278 307Z" />
<glyph unicode=":" glyph-name="colon" horiz-adv-x="196" d="M161 372H75L92 458H180L161 372ZM84 0H-2L15 86H103L84 0Z" />
<glyph unicode=";" glyph-name="semicolon" horiz-adv-x="197" d="M-62 -114Q-27 -65 -6 -20T27 84H102Q85 10 56 -42T-16 -145L-62 -114ZM163 372H77L94 458H182L163 372Z" />
<glyph unicode="&lt;" glyph-name="less" horiz-adv-x="563" d="M309 -12L102 265L427 543L471 494L197 259L365 31L309 -12Z" />
<glyph unicode="=" glyph-name="equal" horiz-adv-x="563" d="M92 298L105 363H499L485 298H92ZM64 170L78 234H471L458 170H64Z" />
<glyph unicode="&gt;" glyph-name="greater" horiz-adv-x="563" d="M238 543L445 266L120 -12L76 37L350 272L182 500L238 543Z" />
<glyph unicode="?" glyph-name="question" horiz-adv-x="415" d="M160 0H75L93 86H179L160 0ZM114 159L123 206Q132 247 151 280T195 340T246 391T293 436T328 480T342 528Q342 565 315 584T243 604Q204 604 170 591T107 562L94 623Q130 641 173 655T265 669Q338
669 383 638T429 544Q429 506 414 476T376 420T324 370T270 320T224 265T195 198L187 159H114Z" />
<glyph unicode="@" glyph-name="at" horiz-adv-x="978" d="M524 469Q560 469 598 462T665 441L616 194Q613 179 611 164T609 133Q609 102 626 80T680 57Q725 57 757 76T811 130T841 210T851 309Q851 391 829 448T766 541T665 592T529 608Q425 608 343 577T204
487T117 341T86 143Q86 60 107 3T169 -92T266 -145T395 -162Q447 -162 488 -155T576 -134L595 -192Q549 -207 499 -216T393 -225Q302 -225 231 -204T112 -137T38 -23T13 143Q13 271 50 369T156 534T321 635T534 669Q625 669 697 649T819 586T897 473T924 307Q924
242 909 186T863 87T785 20T674 -5Q629 -5 597 13T549 73Q520 38 480 14T381 -11Q344 -11 317 2T273 39T247 94T238 164Q238 315 313 392T524 469ZM394 50Q442 50 473 73T533 139L589 402Q574 407 558 409T522 411Q416 411 366 348T315 172Q315 115 335 83T394
50Z" />
<glyph unicode="A" glyph-name="A" horiz-adv-x="595" d="M446 0L420 192H146L42 0H-47L320 659H433L530 0H446ZM182 259H412L369 594H361L182 259Z" />
<glyph unicode="B" glyph-name="B" horiz-adv-x="560" d="M411 350Q450 338 476 308T502 226Q502 165 481 122T425 52T343 13T243 0H16L156 659H370Q408 659 440 652T495 628T532 588T546 529Q546 457 510 411T411 350ZM419 219Q419 270 389 290T307 311H159L107
65H244Q275 65 306 72T362 96T403 143T419 219ZM220 594L173 375H314Q386 375 424 413T463 510Q463 560 434 577T355 594H220Z" />
<glyph unicode="C" glyph-name="C" horiz-adv-x="563" d="M275 -11Q163 -10 103 51T42 232Q42 332 68 413T142 551T258 638T409 669Q527 669 593 606L545 557Q519 580 486 592T401 604Q325 604 272 571T186 485T137 367T122 238Q122 153 163 104T292 54Q352 54
393 66T467 90L476 27Q444 13 393 1T275 -11Z" />
<glyph unicode="D" glyph-name="D" horiz-adv-x="610" d="M333 659Q461 659 525 604T589 427Q589 335 565 257T491 121T365 32T184 0H16L156 659H333ZM195 64Q277 64 336 92T433 169T489 282T508 418Q508 511 464 552T322 594H220L107 64H195Z" />
<glyph unicode="E" glyph-name="E" horiz-adv-x="519" d="M413 65L399 0H16L156 659H528L515 594H221L174 373H457L444 307H160L108 65H413Z" />
<glyph unicode="F" glyph-name="F" horiz-adv-x="474" d="M95 0H16L156 659H519L505 594H221L174 373H438L424 307H160L95 0Z" />
<glyph unicode="G" glyph-name="G" horiz-adv-x="617" d="M420 669Q481 669 531 654T613 607L567 557Q542 578 506 591T415 604Q331 604 275 572T185 487T137 370T122 240Q122 152 164 103T303 53Q345 53 375 59T430 73L472 271H317L330 336H564L497 23Q455 10
406 0T289 -11Q171 -10 107 51T42 232Q42 339 69 421T146 558T266 641T420 669Z" />
<glyph unicode="H" glyph-name="H" horiz-adv-x="633" d="M641 659L500 0H421L485 297H158L95 0H16L156 659H235L172 364H499L562 659H641Z" />
<glyph unicode="I" glyph-name="I" horiz-adv-x="227" d="M156 659H235L95 0H16L156 659Z" />
<glyph unicode="J" glyph-name="J" horiz-adv-x="335" d="M346 659L243 178Q232 127 215 92T174 35T117 4T41 -6Q-5 -6 -38 5L-17 68Q-5 65 9 62T42 58Q88 58 118 84T164 177L265 659H346Z" />
<glyph unicode="K" glyph-name="K" horiz-adv-x="531" d="M95 0H16L156 659H235L172 363H222L523 659H619L285 328L482 0H392L214 298H158L95 0Z" />
<glyph unicode="L" glyph-name="L" horiz-adv-x="454" d="M401 65L387 0H16L156 659H235L108 65H401Z" />
<glyph unicode="M" glyph-name="M" horiz-adv-x="779" d="M788 659L648 0H569L695 595H687L393 0H281L230 595H221L95 0H16L156 659H297L347 64H354L646 659H788Z" />
<glyph unicode="N" glyph-name="N" horiz-adv-x="658" d="M667 659L526 0H391L230 595H221L95 0H16L156 659H294L454 64H461L588 659H667Z" />
<glyph unicode="O" glyph-name="O" horiz-adv-x="633" d="M266 -11Q154 -11 98 49T42 226Q42 311 63 390T128 532T237 631T390 669Q501 669 557 608T614 432Q614 348 593 268T528 126T419 27T266 -11ZM382 606Q322 606 275 577T194 496T143 375T125 226Q125 145
163 99T273 53Q333 53 380 82T461 163T513 283T531 433Q531 514 493 560T382 606Z" />
<glyph unicode="P" glyph-name="P" horiz-adv-x="539" d="M16 0L156 659H359Q452 659 500 620T549 505Q549 445 530 399T477 321T395 273T290 256H148L94 0H16ZM162 321H296Q333 321 364 333T418 367T454 420T467 492Q467 547 435 570T349 594H221L162 321Z" />
<glyph unicode="Q" glyph-name="Q" horiz-adv-x="633" d="M266 -11Q154 -11 98 49T42 226Q42 311 63 390T128 532T237 631T390 669Q501 669 557 608T614 432Q614 369 602 308T566 193T504 96T418 26Q430 11 444 -8T473 -45T499 -77T516 -95Q510 -99 502 -104T484
-116T466 -129T452 -139L347 -1Q328 -6 308 -8T266 -11ZM382 606Q322 606 275 577T194 496T143 375T125 226Q125 145 163 99T273 53Q333 53 380 82T461 163T513 283T531 433Q531 514 493 560T382 606Z" />
<glyph unicode="R" glyph-name="R" horiz-adv-x="554" d="M298 277H153L94 0H16L156 659H365Q453 659 503 624T554 513Q554 411 508 357T377 285L463 0H379L298 277ZM167 343H311Q386 343 428 381T471 500Q471 549 439 571T353 594H221L167 343Z" />
<glyph unicode="S" glyph-name="S" horiz-adv-x="508" d="M36 91Q64 78 105 67T195 55Q232 55 264 64T318 89T354 129T367 182Q367 212 352 231T317 263Q283 284 246 299T169 337Q131 357 109 390T86 465Q86 519 106 557T160 621T242 657T343 669Q397 669 440
660T519 635L487 573Q461 585 424 594T336 604Q261 604 215 573T168 482Q168 451 183 432T220 401Q251 382 290 366T368 327Q404 307 425 275T447 198Q447 144 427 105T372 40T289 2T188 -11Q133 -11 87 0T3 29L36 91Z" />
<glyph unicode="T" glyph-name="T" horiz-adv-x="483" d="M561 659L547 594H349L223 0H144L270 594H73L87 659H561Z" />
<glyph unicode="U" glyph-name="U" horiz-adv-x="616" d="M626 659L538 246Q523 178 499 129T438 49T354 4T244 -11Q120 -11 80 58T69 260L154 659H233L144 236Q135 195 135 162T147 104T184 67T253 54Q342 54 390 100T460 253L547 659H626Z" />
<glyph unicode="V" glyph-name="V" horiz-adv-x="548" d="M531 659H616L277 0H165L88 659H168L227 64H236L531 659Z" />
<glyph unicode="W" glyph-name="W" horiz-adv-x="900" d="M658 0H537L523 595H515L259 0H138L96 659H179L206 64H214L468 659H593L606 64H614L879 659H963L658 0Z" />
<glyph unicode="X" glyph-name="X" horiz-adv-x="558" d="M43 0H-47L225 339L105 659H190L289 379H308L526 659H614L361 339L491 0H408L296 300H277L43 0Z" />
<glyph unicode="Y" glyph-name="Y" horiz-adv-x="529" d="M245 0H167L230 278Q212 320 193 370T153 470T114 569T79 659H164L275 357H284L521 659H609L305 277L245 0Z" />
<glyph unicode="Z" glyph-name="Z" horiz-adv-x="532" d="M84 65H446L432 0H-28L-18 53L457 594H118L131 659H570L559 606L84 65Z" />
<glyph unicode="[" glyph-name="bracketleft" horiz-adv-x="336" d="M186 -192H-36L156 706H377L364 642H220L55 -128H199L186 -192Z" />
<glyph unicode="\" glyph-name="backslash" horiz-adv-x="359" d="M277 -40H205L106 684H179L277 -40Z" />
<glyph unicode="]" glyph-name="bracketright" horiz-adv-x="336" d="M-30 -128H114L277 642H133L147 706H368L178 -192H-44L-30 -128Z" />
<glyph unicode="^" glyph-name="asciicircum" horiz-adv-x="444" d="M365 659L413 309H344L302 608H294L127 309H51L247 659H365Z" />
<glyph unicode="_" glyph-name="underscore" horiz-adv-x="420" d="M-22 -43H311L298 -103H-34L-22 -43Z" />
<glyph unicode="`" glyph-name="grave" horiz-adv-x="519" d="M322 687L402 529H329L237 687H322Z" />
<glyph unicode="a" glyph-name="a" horiz-adv-x="497" d="M312 53Q281 22 244 6T158 -11Q92 -11 60 28T28 134Q28 209 46 270T95 376T171 445T268 469Q341 469 391 435L402 458H464L389 120L373 0H313L312 53ZM186 48Q217 48 247 62T310 105L369 383Q348 399 325
406T283 413Q239 413 206 391T151 333T119 248T108 147Q108 101 126 75T186 48Z" />
<glyph unicode="b" glyph-name="b" horiz-adv-x="494" d="M175 416Q208 441 243 455T323 469Q387 469 419 429T452 324Q452 256 436 196T388 90T312 17T209 -10Q134 -10 82 26L68 0H11L156 681L235 692L175 416ZM294 411Q263 411 230 395T161 348L104 80Q128 62
151 55T196 47Q242 47 275 70T330 130T362 215T372 313Q372 359 353 385T294 411Z" />
<glyph unicode="c" glyph-name="c" horiz-adv-x="424" d="M347 22Q323 10 283 0T197 -11Q110 -11 70 36T29 161Q29 232 48 289T103 386T190 447T305 469Q347 469 381 457T434 426L387 379Q355 409 295 409Q252 409 218 392T159 344T121 269T108 173Q108 115 133
82T220 49Q256 49 286 57T342 77L347 22Z" />
<glyph unicode="d" glyph-name="d" horiz-adv-x="494" d="M312 0L314 50Q281 22 244 6T158 -11Q92 -11 61 28T29 134Q29 210 47 272T97 377T175 445T275 469Q337 469 387 439L439 681L518 692L395 117L379 0H312ZM186 48Q248 48 317 108L374 379Q352 396 329 403T285
411Q240 411 207 390T153 332T120 247T109 147Q109 101 126 75T186 48Z" />
<glyph unicode="e" glyph-name="e" horiz-adv-x="471" d="M388 31Q373 24 353 17T309 3T258 -7T204 -11Q167 -11 135 -2T80 28T43 81T29 160Q29 222 45 278T95 376T179 444T296 469Q362 469 400 439T438 354Q438 302 408 270T331 220T225 193T109 181V159Q109
104 136 77T227 49Q272 49 310 61T379 86L388 31ZM286 411Q244 411 214 396T164 356T133 300T116 236Q158 239 201 245T280 263T337 294T360 342Q360 376 339 393T286 411Z" />
<glyph unicode="f" glyph-name="f" horiz-adv-x="333" d="M336 629Q288 629 261 601T220 509L210 458H357L344 396H197L103 -48Q92 -100 74 -134T30 -188T-26 -217T-94 -225Q-119 -225 -139 -221L-121 -159Q-113 -160 -104 -161T-86 -162Q-38 -162 -12 -134T27
-42L119 396H51L64 458H132L144 515Q155 567 174 601T218 655T275 683T344 692Q369 692 393 687T435 676L405 616Q375 629 336 629Z" />
<glyph unicode="g" glyph-name="g" horiz-adv-x="493" d="M265 469Q339 469 395 431L408 458H467L364 -22Q352 -80 331 -119T279 -181T209 -215T121 -225Q81 -225 47 -220T-12 -206L15 -145Q35 -152 63 -158T130 -164Q157 -164 181 -158T226 -135T262 -92T287
-24L302 45Q273 18 237 4T156 -11Q90 -11 58 28T26 134Q26 209 44 270T93 376T169 445T265 469ZM184 48Q248 48 315 113L372 379Q349 398 326 405T281 412Q237 412 204 391T149 332T117 247T106 147Q106 101 124 75T184 48Z" />
<glyph unicode="h" glyph-name="h" horiz-adv-x="493" d="M11 0L156 681L236 692L177 411Q212 439 251 454T329 469Q394 469 420 440T446 361Q446 345 444 328T438 290L376 0H298L357 278Q362 297 364 312T366 342Q366 407 302 407Q241 407 159 333L89 0H11Z" />
<glyph unicode="i" glyph-name="i" horiz-adv-x="212" d="M131 565L148 647H226L209 565H131ZM11 0L108 458H185L89 0H11Z" />
<glyph unicode="j" glyph-name="j" horiz-adv-x="212" d="M-121 -225L-107 -165H-101Q-76 -165 -60 -160T-34 -143T-16 -109T0 -54L109 458H186L81 -34Q70 -84 58 -120T24 -180T-29 -214T-112 -225H-121ZM131 567L148 647H226L208 567H131Z" />
<glyph unicode="k" glyph-name="k" horiz-adv-x="445" d="M11 0L156 681L235 692L147 279H187L388 458H482L246 248L393 0H305L179 218H134L88 0H11Z" />
<glyph unicode="l" glyph-name="l" horiz-adv-x="229" d="M132 -3Q129 -4 123 -4Q118 -5 105 -5Q28 -5 28 66Q28 87 36 117L155 681L235 692L114 119Q107 95 107 82Q107 65 116 60T144 55L132 -3Z" />
<glyph unicode="m" glyph-name="m" horiz-adv-x="743" d="M11 0L79 317L100 458H165L162 401Q199 432 240 450T320 469Q368 469 392 450T424 395Q461 430 504 449T588 469Q647 469 671 440T695 362Q695 333 687 290L625 0H547L607 278Q610 297 612 313T614 343Q614
407 561 407Q500 407 425 331Q424 322 422 312T418 290L357 0H278L338 278Q347 318 347 343Q347 407 292 407Q234 407 159 335L89 0H11Z" />
<glyph unicode="n" glyph-name="n" horiz-adv-x="493" d="M11 0L79 317L100 458H165L162 400Q200 432 243 450T329 469Q394 469 420 440T446 361Q446 345 444 328T438 290L376 0H298L357 278Q366 315 366 342Q366 407 302 407Q239 407 159 333L89 0H11Z" />
<glyph unicode="o" glyph-name="o" horiz-adv-x="502" d="M196 -11Q111 -11 70 33T28 158Q28 221 45 277T95 376T176 444T289 469Q374 469 415 425T457 299Q457 236 440 180T390 81T309 14T196 -11ZM205 48Q247 48 279 68T334 122T367 201T378 297Q378 320 373
341T357 377T327 402T281 411Q238 411 205 391T150 336T117 256T106 161Q106 137 111 117T127 81T158 57T205 48Z" />
<glyph unicode="p" glyph-name="p" horiz-adv-x="494" d="M83 342L101 458H166L165 406Q199 435 237 452T324 469Q388 469 420 429T453 324Q453 256 437 195T390 89T314 17T210 -10Q144 -10 92 22L42 -216L-37 -225L83 342ZM295 411Q263 411 230 395T161 348L105
80Q128 62 151 55T197 47Q243 47 276 70T331 130T363 215T373 313Q373 359 354 385T295 411Z" />
<glyph unicode="q" glyph-name="q" horiz-adv-x="495" d="M302 45Q272 18 236 4T156 -11Q92 -11 60 29T27 134Q27 201 42 262T89 368T165 441T270 468Q340 468 396 432L411 458H468L324 -214L245 -224L302 45ZM283 412Q237 412 204 389T149 328T117 242T106 145Q106
100 125 74T184 48Q248 48 317 114L375 379Q352 398 328 405T283 412Z" />
<glyph unicode="r" glyph-name="r" horiz-adv-x="349" d="M13 0L77 300L97 458H165L159 375Q238 469 328 469Q358 469 382 458L351 394Q341 398 332 400T309 402Q271 402 233 374T154 297L90 0H13Z" />
<glyph unicode="s" glyph-name="s" horiz-adv-x="424" d="M30 77Q64 63 94 57T165 50Q182 50 201 52T237 63T263 86T274 127Q274 161 232 181Q210 193 183 203T134 224Q97 242 78 265T58 318Q58 363 77 392T127 438T193 462T265 469Q313 469 347 461T402 444L377
387Q354 396 323 402T255 409Q197 409 167 387T136 334Q136 312 149 301T184 279Q194 275 207 269T235 257T262 245T285 235Q313 221 332 198T352 143Q352 62 298 26T153 -11Q108 -11 73 -4T3 19L30 77Z" />
<glyph unicode="t" glyph-name="t" horiz-adv-x="366" d="M300 11Q273 0 245 -5T181 -11Q65 -11 65 95Q65 107 67 120T71 146L125 396H50L62 450L138 458L160 554L237 567L214 458H379L366 398H201L154 174Q151 158 148 141T145 107Q145 80 159 66T212 52Q233
52 253 56T295 66L300 11Z" />
<glyph unicode="u" glyph-name="u" horiz-adv-x="494" d="M180 458L120 180Q112 140 112 116Q112 51 175 51Q238 51 318 126L389 458H467L399 141L378 0H313L315 58Q277 26 234 8T148 -11Q83 -11 58 18T32 97Q32 114 34 132T40 168L102 458H180Z" />
<glyph unicode="v" glyph-name="v" horiz-adv-x="440" d="M110 0L54 458H133L172 60H181L387 458H468L217 0H110Z" />
<glyph unicode="w" glyph-name="w" horiz-adv-x="686" d="M377 0L375 399H366L197 0H83L58 458H135L149 60H158L324 458H439L442 60H451L632 458H711L491 0H377Z" />
<glyph unicode="x" glyph-name="x" horiz-adv-x="433" d="M287 0L214 201H200L43 0H-44L145 237L53 458H138L209 269H223L373 458H459L278 237L370 0H287Z" />
<glyph unicode="y" glyph-name="y" horiz-adv-x="443" d="M-55 -162Q-40 -166 -24 -166Q11 -166 33 -152T69 -122Q77 -114 86 -100T105 -70T124 -36T141 -5L57 458H136L191 94H199L390 458H470L203 -30Q178 -77 156 -113T107 -174T48 -212T-30 -225Q-40 -225 -51
-224T-73 -220L-55 -162Z" />
<glyph unicode="z" glyph-name="z" horiz-adv-x="438" d="M-5 0L5 51L354 398H89L102 458H463L452 407L104 61H380L367 0H-5Z" />
<glyph unicode="{" glyph-name="braceleft" horiz-adv-x="351" d="M178 -185Q149 -185 125 -180T83 -163T55 -130T45 -80Q45 -58 51 -34L86 135Q89 148 89 162Q89 216 34 229L50 303Q81 308 106 328T141 393L181 577Q190 620 206 648T247 692T302 714T373 721H405L392
658H377Q323 658 295 637T255 560L221 399Q208 337 182 308T114 270L112 260Q140 251 155 234T170 182Q170 161 164 134L130 -28Q126 -45 126 -64Q126 -97 147 -109T211 -121H226L212 -185H178Z" />
<glyph unicode="|" glyph-name="bar" horiz-adv-x="210" d="M41 -186H-25L167 718H234L41 -186Z" />
<glyph unicode="}" glyph-name="braceright" horiz-adv-x="351" d="M174 721Q235 721 271 696T308 614Q308 604 306 594T302 571L265 395Q262 380 262 368Q262 339 277 324T318 304L302 227Q270 223 245 203T210 138L172 -40Q162 -86 146 -114T105 -158T50 -179T-21
-185H-52L-39 -121H-24Q29 -121 57 -102T97 -26L132 135Q139 168 148 190T171 227T201 250T239 264L242 274Q211 283 197 300T182 352Q182 371 188 400L222 561Q224 573 225 581T227 599Q227 633 207 645T141 658H127L141 721H174Z" />
<glyph unicode="~" glyph-name="asciitilde" horiz-adv-x="459" d="M35 261Q68 281 100 292T169 303Q191 303 207 297T237 284T267 270T300 264Q328 264 350 273T395 294L418 244Q390 225 358 213T285 200Q262 200 246 206T214 219T185 233T152 239Q126 239 103
231T56 211L35 261Z" />
<glyph unicode="&#xa0;" glyph-name="nbspace" horiz-adv-x="300" />
<glyph unicode="&#xa1;" glyph-name="exclamdown" horiz-adv-x="230" d="M180 373H93L112 458H197L180 373ZM89 299H157L58 -200H-25L89 299Z" />
<glyph unicode="&#xa2;" glyph-name="cent" horiz-adv-x="442" d="M342 22Q321 11 288 2T215 -10L198 -92H142L159 -9Q89 0 57 45T24 161Q24 226 40 279T86 372T161 436T260 466L278 550H335L317 468Q353 466 382 454T429 426L382 379Q368 391 349 398T305 408L228
49Q260 51 286 58T337 77L342 22ZM103 173Q103 126 119 96T173 54L247 404Q179 388 141 326T103 173Z" />
<glyph unicode="&#xa3;" glyph-name="sterling" horiz-adv-x="479" d="M421 669Q448 669 474 665T519 653L486 594Q453 608 413 608Q381 608 354 599T306 567T268 508T242 416L227 350H424L411 288H214L209 265Q200 224 190 193T166 138T135 97T94 65H387L374
0H-14L-2 56Q31 76 52 99T88 147T112 202T130 264L135 288H51L64 350H148L165 429Q181 504 206 551T264 624T336 659T421 669Z" />
<glyph unicode="&#xa4;" glyph-name="currency" horiz-adv-x="474" d="M300 138Q255 114 200 114Q154 114 123 138L47 71L9 120L88 188Q79 212 79 237Q79 276 92 310T129 372L75 441L129 484L183 414Q229 438 285 438Q324 438 351 417L429 482L469 432L390 366Q401
339 401 312Q401 274 389 241T355 182L405 117L351 73L300 138ZM212 178Q242 178 264 188T300 216T322 256T330 302Q330 335 316 354T266 374Q237 374 215 363T179 335T157 295T149 249Q149 216 163 197T212 178Z" />
<glyph unicode="&#xa5;" glyph-name="yen" horiz-adv-x="562" d="M308 195L266 0H187L230 195H52L64 249H242L250 285L237 314H78L89 367H217Q185 442 156 519T100 659H184L297 363H305L543 659H629L393 367H518L506 314H350L326 284L318 249H493L481 195H308Z" />
<glyph unicode="&#xa6;" glyph-name="brokenbar" horiz-adv-x="209" d="M162 378H96L169 719H235L162 378ZM42 -187H-24L49 154H115L42 -187Z" />
<glyph unicode="&#xa7;" glyph-name="section" horiz-adv-x="526" d="M468 239Q468 170 430 130T324 73Q325 70 327 70Q355 54 375 25T395 -43Q395 -90 376 -124T324 -180T244 -214T144 -225Q90 -225 45 -214T-38 -186L-8 -127Q29 -142 66 -152T148 -162Q232 -162
275 -132T318 -60Q318 -21 276 6Q260 17 239 27T195 46T150 66T109 89Q78 108 60 134T42 201Q42 270 77 311T177 370Q147 390 131 418T114 484Q114 532 133 567T186 624T266 658T365 669Q417 669 457 661T532 637L504 578Q479 590 441 598T356 607Q283 607 237
578T191 499Q191 478 203 460T237 430Q252 421 272 412T315 392T359 372T399 350Q429 333 448 306T468 239ZM348 287Q326 299 298 312T239 338Q181 322 151 292T120 223Q120 176 166 151Q184 139 210 128T263 104Q334 122 361 151T389 217Q389 259 348 287Z" />
<glyph unicode="&#xa8;" glyph-name="dieresis" d="M276 565H199L218 647H294L276 565ZM446 565H370L388 647H464L446 565Z" />
<glyph unicode="&#xa9;" glyph-name="copyright" horiz-adv-x="754" d="M736 404Q736 308 704 231T615 101T482 18T317 -11Q256 -11 206 7T119 59T63 143T43 256Q43 353 75 429T165 559T298 640T461 669Q523 669 573 651T660 599T716 515T736 404ZM674 393Q674
499 617 557T451 615Q374 615 310 588T201 514T130 403T105 264Q105 159 163 102T328 44Q406 45 469 72T578 145T649 255T674 393ZM470 170Q451 160 419 152T348 144Q279 144 247 181T214 281Q214 333 228 377T270 452T339 501T433 519Q467 519 495 508T539 481L495
440Q469 466 426 466Q392 466 366 453T322 416T295 360T286 290Q286 247 304 221T368 195Q396 195 419 202T465 218L470 170Z" />
<glyph unicode="&#xaa;" glyph-name="ordfeminine" horiz-adv-x="370" d="M307 371Q305 370 301 370T294 369H289Q266 369 251 377T234 403Q215 388 191 376T132 364Q105 364 89 372T64 394T55 425T58 462Q69 515 109 537T206 559Q222 559 234 557T258 552L260
564Q269 606 259 617T212 629Q186 629 159 623T115 607L111 652Q137 663 169 671T236 679Q297 679 315 655T320 565L295 451Q290 429 296 421T316 412L307 371ZM192 512Q159 512 142 500T119 463Q113 436 124 426T158 415Q179 415 197 423T235 446L248 504Q234
508 222 510T192 512Z" />
<glyph unicode="&#xab;" glyph-name="guillemotleft" horiz-adv-x="469" d="M305 32L185 229L394 426L438 383L271 225L365 70L305 32ZM14 229L212 426L257 383L100 225L191 70L132 32L14 229Z" />
<glyph unicode="&#xac;" glyph-name="logicalnot" horiz-adv-x="617" d="M110 331H557L505 89H430L469 271H97L110 331Z" />
<glyph unicode="&#xae;" glyph-name="registered" horiz-adv-x="476" d="M510 536Q510 473 489 423T431 337T344 283T236 264Q196 264 163 276T107 311T70 366T57 439Q57 502 78 552T137 638T224 692T331 711Q413 711 461 664T510 536ZM463 528Q463 594 429 631T323
668Q275 668 235 652T166 606T121 536T105 447Q105 381 139 344T245 307Q294 307 334 323T402 369T447 439T463 528ZM307 369L283 464H246L225 369H175L226 609H313Q348 609 368 596T388 556Q388 491 330 470L357 369H307ZM289 502Q311 502 323 514T335 546Q335
570 304 570H268L253 502H289Z" />
<glyph unicode="&#xaf;" glyph-name="overscore" d="M461 575H190L204 637H474L461 575Z" />
<glyph unicode="&#xb0;" glyph-name="degree" horiz-adv-x="338" d="M198 404Q143 405 117 435T90 509Q90 585 132 627T256 669Q310 669 337 638T364 562Q364 487 321 446T198 404ZM209 463Q258 463 279 489T300 554Q300 578 287 595T245 612Q221 612 204 604T176
583T160 553T154 519Q154 494 166 479T209 463Z" />
<glyph unicode="&#xb1;" glyph-name="plusminus" horiz-adv-x="563" d="M368 299L333 136H265L300 299H131L145 363H314L348 525H416L382 363H551L537 299H368ZM81 65H487L474 0H68L81 65Z" />
<glyph unicode="&#xb2;" glyph-name="twosuperior" horiz-adv-x="302" d="M50 318L56 352L190 467Q211 486 225 500T247 527T259 549T262 571Q262 615 210 615Q168 615 123 591L108 634Q168 664 225 664Q271 664 297 644T324 584Q324 561 318 544T301 510T272
478T231 441L144 366H290L281 318H50Z" />
<glyph unicode="&#xb3;" glyph-name="threesuperior" horiz-adv-x="302" d="M84 391Q96 380 116 372T162 363Q196 363 220 379T245 428Q245 473 181 473Q178 473 166 473T151 472L159 517H182Q195 517 210 520T238 531T259 549T268 577Q268 615 218 615Q194 615
171 606T132 587L117 627Q135 639 166 651T234 664Q277 664 303 645T329 591Q329 552 308 532T259 503Q281 496 294 478T308 435Q308 403 296 380T263 342T215 320T157 312Q117 312 90 324T48 353L84 391Z" />
<glyph unicode="&#xb4;" glyph-name="acute" horiz-adv-x="519" d="M460 687L304 529H225L372 687H460Z" />
<glyph unicode="&#xb5;" glyph-name="mu" horiz-adv-x="495" d="M103 458H180L125 195Q119 173 116 153T113 117Q113 86 127 70T177 53Q211 53 247 70T318 116L391 458H469L398 122L379 0H309L312 49Q274 21 234 5T155 -11Q106 -11 80 9Q77 -6 73 -27T64 -81Q62
-89 58 -111T49 -158L36 -221H-42L103 458Z" />
<glyph unicode="&#xb6;" glyph-name="paragraph" horiz-adv-x="552" d="M271 250H211Q172 250 146 260T104 289T81 331T74 385Q74 459 91 511T141 596T218 644T320 659H562L377 -217L315 -223L491 603H408L234 -217L171 -223L271 250Z" />
<glyph unicode="&#xb7;" glyph-name="middot" horiz-adv-x="196" d="M132 222H46L63 308H151L132 222Z" />
<glyph unicode="&#xb8;" glyph-name="cedilla" horiz-adv-x="519" d="M81 -155Q95 -160 110 -164T145 -168Q183 -168 200 -155T217 -118Q217 -97 196 -89T126 -78L155 -29Q290 -34 290 -109Q290 -166 256 -195T141 -224Q113 -224 90 -219T51 -205L81 -155Z" />
<glyph unicode="&#xb9;" glyph-name="onesuperior" horiz-adv-x="302" d="M145 318L206 600L129 564L116 604L236 660H278L206 318H145Z" />
<glyph unicode="&#xba;" glyph-name="ordmasculine" horiz-adv-x="392" d="M190 363Q151 363 128 374T94 405T82 455T90 522Q107 602 150 640T272 679Q311 679 334 668T368 637T380 586T372 519Q355 439 311 401T190 363ZM200 412Q227 412 245 418T276 439T297
474T312 525Q317 547 318 566T316 600T299 623T262 631Q235 631 217 624T186 603T165 568T150 517Q145 494 144 475T146 441T163 420T200 412Z" />
<glyph unicode="&#xbb;" glyph-name="guillemotright" horiz-adv-x="470" d="M140 426L260 229L51 32L7 75L174 233L80 388L140 426ZM431 229L233 32L188 75L345 233L254 388L313 426L431 229Z" />
<glyph unicode="&#xbc;" glyph-name="onequarter" horiz-adv-x="705" d="M628 342L579 109H616L606 63H569L556 0H499L512 63H345L353 99L544 342H628ZM522 109L558 279H555L421 109H522ZM-1 -32L629 691H703L72 -32H-1ZM150 318L210 601L133 565L121 606L242
660H283L210 318H150Z" />
<glyph unicode="&#xbd;" glyph-name="onehalf" horiz-adv-x="664" d="M-13 -29L596 688H675L67 -29H-13ZM145 318L206 600L129 564L116 604L236 660H278L206 318H145ZM363 1L369 35L503 150Q524 169 538 183T560 210T572 232T575 254Q575 298 523 298Q481 298
436 274L421 317Q481 347 538 347Q584 347 610 327T637 267Q637 244 631 227T614 193T585 161T544 124L457 49H603L594 1H363Z" />
<glyph unicode="&#xbe;" glyph-name="threequarters" horiz-adv-x="701" d="M617 342L568 109H605L595 63H558L545 0H488L501 63H334L342 99L533 342H617ZM511 109L547 279H544L410 109H511ZM10 -32L640 691H714L83 -32H10ZM137 311Q93 311 68 325T33 353L68 391Q79
382 98 373T147 363Q215 363 226 414Q233 444 217 457T160 470Q153 470 146 470T136 469L147 522H163Q198 522 219 533T247 573Q252 593 242 603T202 614Q176 614 156 607T118 588L104 626Q120 637 149 651T215 665Q269 665 292 642T306 575Q299 545 280 525T235
501Q265 496 278 474T284 414Q273 363 234 337T137 311Z" />
<glyph unicode="&#xbf;" glyph-name="questiondown" horiz-adv-x="415" d="M318 458H403L385 372H299L318 458ZM364 299L355 252Q346 211 327 178T283 118T232 67T185 22T150 -22T136 -70Q136 -107 163 -126T235 -146Q274 -146 308 -133T371 -104L384 -165Q348
-183 305 -197T213 -211Q140 -211 95 -180T49 -86Q49 -48 64 -18T102 38T154 88T208 138T254 193T283 260L291 299H364Z" />
<glyph unicode="&#xc0;" glyph-name="Agrave" horiz-adv-x="595" d="M446 0L420 192H146L42 0H-47L320 659H433L530 0H446ZM182 259H412L369 594H361L182 259ZM350 887L430 729H357L265 887H350Z" />
<glyph unicode="&#xc1;" glyph-name="Aacute" horiz-adv-x="595" d="M446 0L420 192H146L42 0H-47L320 659H433L530 0H446ZM182 259H412L369 594H361L182 259ZM581 887L425 729H346L493 887H581Z" />
<glyph unicode="&#xc2;" glyph-name="Acircumflex" horiz-adv-x="595" d="M446 0L420 192H146L42 0H-47L320 659H433L530 0H446ZM182 259H412L369 594H361L182 259ZM475 887L543 729H474L422 843H412L308 729H234L373 887H475Z" />
<glyph unicode="&#xc3;" glyph-name="Atilde" horiz-adv-x="595" d="M446 0L420 192H146L42 0H-47L320 659H433L530 0H446ZM182 259H412L369 594H361L182 259ZM563 798Q542 783 514 773T457 762Q437 762 422 767T394 779T367 790T338 796Q317 796 300 789T265
771L244 820Q264 834 292 845T347 856Q367 856 382 851T411 840T438 828T467 823Q487 823 506 830T542 847L563 798Z" />
<glyph unicode="&#xc4;" glyph-name="Adieresis" horiz-adv-x="595" d="M446 0L420 192H146L42 0H-47L320 659H433L530 0H446ZM182 259H412L369 594H361L182 259ZM350 765H273L292 847H368L350 765ZM520 765H444L462 847H538L520 765Z" />
<glyph unicode="&#xc5;" glyph-name="Aring" horiz-adv-x="595" d="M446 0L420 192H146L42 0H-47L320 659H433L530 0H446ZM182 259H412L369 594H361L182 259ZM388 712Q348 712 328 734T307 785Q307 842 339 872T432 902Q471 902 490 880T510 828Q510 771 479 742T388
712ZM398 762Q423 762 439 775T455 820Q455 835 448 844T421 853Q385 853 374 835T363 794Q363 762 398 762Z" />
<glyph unicode="&#xc6;" glyph-name="AE" horiz-adv-x="899" d="M791 65L777 0H413L444 192H190L40 0H-50L472 659H909L895 594H589L554 373H835L822 307H543L503 65H791ZM502 594L242 259H455L510 594H502Z" />
<glyph unicode="&#xc7;" glyph-name="Ccedilla" horiz-adv-x="570" d="M275 -11Q163 -10 103 51T42 232Q42 332 68 413T142 551T258 638T409 669Q527 669 593 606L545 557Q519 580 486 592T401 604Q325 604 272 571T186 485T137 367T122 238Q122 153 163 104T292
54Q352 54 393 66T467 90L476 27Q444 13 393 1T275 -11ZM126 -155Q140 -160 155 -164T190 -168Q228 -168 245 -155T262 -118Q262 -97 241 -89T171 -78L200 -29Q335 -34 335 -109Q335 -166 301 -195T186 -224Q158 -224 135 -219T96 -205L126 -155Z" />
<glyph unicode="&#xc8;" glyph-name="Egrave" horiz-adv-x="519" d="M413 65L399 0H16L156 659H528L515 594H221L174 373H457L444 307H160L108 65H413ZM327 887L407 729H334L242 887H327Z" />
<glyph unicode="&#xc9;" glyph-name="Eacute" horiz-adv-x="519" d="M413 65L399 0H16L156 659H528L515 594H221L174 373H457L444 307H160L108 65H413ZM557 887L401 729H322L469 887H557Z" />
<glyph unicode="&#xca;" glyph-name="Ecircumflex" horiz-adv-x="519" d="M413 65L399 0H16L156 659H528L515 594H221L174 373H457L444 307H160L108 65H413ZM445 887L513 729H444L392 843H382L278 729H204L343 887H445Z" />
<glyph unicode="&#xcb;" glyph-name="Edieresis" horiz-adv-x="519" d="M413 65L399 0H16L156 659H528L515 594H221L174 373H457L444 307H160L108 65H413ZM317 760H240L259 842H335L317 760ZM487 760H411L429 842H505L487 760Z" />
<glyph unicode="&#xcc;" glyph-name="Igrave" horiz-adv-x="221" d="M167 659H246L106 0H27L167 659ZM180 887L260 729H187L95 887H180Z" />
<glyph unicode="&#xcd;" glyph-name="Iacute" horiz-adv-x="221" d="M167 659H246L106 0H27L167 659ZM390 887L234 729H155L302 887H390Z" />
<glyph unicode="&#xce;" glyph-name="Icircumflex" horiz-adv-x="221" d="M167 659H246L106 0H27L167 659ZM295 887L363 729H294L242 843H232L128 729H54L193 887H295Z" />
<glyph unicode="&#xcf;" glyph-name="Idieresis" horiz-adv-x="221" d="M167 659H246L106 0H27L167 659ZM169 760H92L111 842H187L169 760ZM339 760H263L281 842H357L339 760Z" />
<glyph unicode="&#xd0;" glyph-name="Eth" horiz-adv-x="622" d="M344 659Q472 659 536 604T600 427Q600 335 576 257T502 121T376 32T195 0H27L91 303H29L43 368H105L167 659H344ZM206 64Q288 64 347 92T444 169T500 282T519 418Q519 511 475 552T333 594H231L183
368H334L320 303H169L118 64H206Z" />
<glyph unicode="&#xd1;" glyph-name="Ntilde" horiz-adv-x="658" d="M667 659L526 0H391L230 595H221L95 0H16L156 659H294L454 64H461L588 659H667ZM602 798Q581 783 553 773T496 762Q476 762 461 767T433 779T406 790T377 796Q356 796 339 789T304 771L283 820Q303
834 331 845T386 856Q406 856 421 851T450 840T477 828T506 823Q526 823 545 830T581 847L602 798Z" />
<glyph unicode="&#xd2;" glyph-name="Ograve" horiz-adv-x="633" d="M266 -11Q154 -11 98 49T42 226Q42 311 63 390T128 532T237 631T390 669Q501 669 557 608T614 432Q614 348 593 268T528 126T419 27T266 -11ZM382 606Q322 606 275 577T194 496T143 375T125
226Q125 145 163 99T273 53Q333 53 380 82T461 163T513 283T531 433Q531 514 493 560T382 606ZM358 887L438 729H365L273 887H358Z" />
<glyph unicode="&#xd3;" glyph-name="Oacute" horiz-adv-x="633" d="M266 -11Q154 -11 98 49T42 226Q42 311 63 390T128 532T237 631T390 669Q501 669 557 608T614 432Q614 348 593 268T528 126T419 27T266 -11ZM382 606Q322 606 275 577T194 496T143 375T125
226Q125 145 163 99T273 53Q333 53 380 82T461 163T513 283T531 433Q531 514 493 560T382 606ZM631 887L475 729H396L543 887H631Z" />
<glyph unicode="&#xd4;" glyph-name="Ocircumflex" horiz-adv-x="633" d="M266 -11Q154 -11 98 49T42 226Q42 311 63 390T128 532T237 631T390 669Q501 669 557 608T614 432Q614 348 593 268T528 126T419 27T266 -11ZM382 606Q322 606 275 577T194 496T143 375T125
226Q125 145 163 99T273 53Q333 53 380 82T461 163T513 283T531 433Q531 514 493 560T382 606ZM509 887L577 729H508L456 843H446L342 729H268L407 887H509Z" />
<glyph unicode="&#xd5;" glyph-name="Otilde" horiz-adv-x="633" d="M266 -11Q154 -11 98 49T42 226Q42 311 63 390T128 532T237 631T390 669Q501 669 557 608T614 432Q614 348 593 268T528 126T419 27T266 -11ZM382 606Q322 606 275 577T194 496T143 375T125
226Q125 145 163 99T273 53Q333 53 380 82T461 163T513 283T531 433Q531 514 493 560T382 606ZM594 798Q573 783 545 773T488 762Q468 762 453 767T425 779T398 790T369 796Q348 796 331 789T296 771L275 820Q295 834 323 845T378 856Q398 856 413 851T442 840T469
828T498 823Q518 823 537 830T573 847L594 798Z" />
<glyph unicode="&#xd6;" glyph-name="Odieresis" horiz-adv-x="633" d="M266 -11Q154 -11 98 49T42 226Q42 311 63 390T128 532T237 631T390 669Q501 669 557 608T614 432Q614 348 593 268T528 126T419 27T266 -11ZM382 606Q322 606 275 577T194 496T143 375T125
226Q125 145 163 99T273 53Q333 53 380 82T461 163T513 283T531 433Q531 514 493 560T382 606ZM382 760H305L324 842H400L382 760ZM552 760H476L494 842H570L552 760Z" />
<glyph unicode="&#xd7;" glyph-name="multiply" horiz-adv-x="563" d="M390 62L273 218L89 60L49 112L234 270L117 427L172 470L288 315L471 472L512 421L327 263L444 106L390 62Z" />
<glyph unicode="&#xd8;" glyph-name="Oslash" horiz-adv-x="633" d="M-12 10L68 95Q42 149 42 226Q42 311 63 390T128 532T237 631T390 669Q496 669 552 610L625 688L668 651L586 564Q614 511 614 432Q614 348 593 268T528 126T419 27T266 -11Q158 -11 103 49L31
-28L-12 10ZM273 52Q333 52 381 81T462 162T514 283T533 433Q533 465 524 497L157 106Q194 52 273 52ZM123 226Q123 190 131 161L498 552Q464 607 382 607Q323 607 275 577T194 496T142 375T123 226Z" />
<glyph unicode="&#xd9;" glyph-name="Ugrave" horiz-adv-x="616" d="M626 659L538 246Q523 178 499 129T438 49T354 4T244 -11Q120 -11 80 58T69 260L154 659H233L144 236Q135 195 135 162T147 104T184 67T253 54Q342 54 390 100T460 253L547 659H626ZM372 887L452
729H379L287 887H372Z" />
<glyph unicode="&#xda;" glyph-name="Uacute" horiz-adv-x="616" d="M626 659L538 246Q523 178 499 129T438 49T354 4T244 -11Q120 -11 80 58T69 260L154 659H233L144 236Q135 195 135 162T147 104T184 67T253 54Q342 54 390 100T460 253L547 659H626ZM585 887L429
729H350L497 887H585Z" />
<glyph unicode="&#xdb;" glyph-name="Ucircumflex" horiz-adv-x="616" d="M626 659L538 246Q523 178 499 129T438 49T354 4T244 -11Q120 -11 80 58T69 260L154 659H233L144 236Q135 195 135 162T147 104T184 67T253 54Q342 54 390 100T460 253L547 659H626ZM490
887L558 729H489L437 843H427L323 729H249L388 887H490Z" />
<glyph unicode="&#xdc;" glyph-name="Udieresis" horiz-adv-x="616" d="M626 659L538 246Q523 178 499 129T438 49T354 4T244 -11Q120 -11 80 58T69 260L154 659H233L144 236Q135 195 135 162T147 104T184 67T253 54Q342 54 390 100T460 253L547 659H626ZM365
760H288L307 842H383L365 760ZM535 760H459L477 842H553L535 760Z" />
<glyph unicode="&#xdd;" glyph-name="Yacute" horiz-adv-x="560" d="M262 0H184L247 278Q229 320 210 370T170 470T131 569T96 659H181L292 357H301L538 659H626L322 277L262 0ZM568 887L412 729H333L480 887H568Z" />
<glyph unicode="&#xde;" glyph-name="Thorn" horiz-adv-x="541" d="M207 529H342Q430 529 475 490T521 379Q521 320 502 275T450 197T371 149T271 132H123L95 0H16L156 659H235L207 529ZM193 464L136 197H273Q308 197 338 208T391 240T425 293T438 364Q438 419
409 441T329 464H193Z" />
<glyph unicode="&#xdf;" glyph-name="germandbls" horiz-adv-x="528" d="M182 76Q203 67 231 59T297 50Q339 50 367 68T396 121Q396 145 385 158T347 185Q335 192 319 200T291 214Q260 232 243 253T226 303Q226 346 251 378T342 448Q386 476 409 498T432 557Q432
594 410 609T351 625Q284 625 241 575T181 440L88 0H11L104 440Q132 571 198 629T365 687Q394 687 420 679T467 656T499 619T511 567Q511 535 503 513T477 472T435 436T376 396Q348 379 325 360T301 320Q300 302 311 292T341 270L400 238Q431 221 451 195T471 134Q469
62 422 26T286 -11Q249 -11 216 -3T156 18L182 76Z" />
<glyph unicode="&#xe0;" glyph-name="agrave" horiz-adv-x="497" d="M312 53Q281 22 244 6T158 -11Q92 -11 60 28T28 134Q28 209 46 270T95 376T171 445T268 469Q341 469 391 435L402 458H464L389 120L373 0H313L312 53ZM186 48Q217 48 247 62T310 105L369 383Q348
399 325 406T283 413Q239 413 206 391T151 333T119 248T108 147Q108 101 126 75T186 48ZM291 687L371 529H298L206 687H291Z" />
<glyph unicode="&#xe1;" glyph-name="aacute" horiz-adv-x="497" d="M312 53Q281 22 244 6T158 -11Q92 -11 60 28T28 134Q28 209 46 270T95 376T171 445T268 469Q341 469 391 435L402 458H464L389 120L373 0H313L312 53ZM186 48Q217 48 247 62T310 105L369 383Q348
399 325 406T283 413Q239 413 206 391T151 333T119 248T108 147Q108 101 126 75T186 48ZM494 687L338 529H259L406 687H494Z" />
<glyph unicode="&#xe2;" glyph-name="acircumflex" horiz-adv-x="497" d="M312 53Q281 22 244 6T158 -11Q92 -11 60 28T28 134Q28 209 46 270T95 376T171 445T268 469Q341 469 391 435L402 458H464L389 120L373 0H313L312 53ZM186 48Q217 48 247 62T310 105L369
383Q348 399 325 406T283 413Q239 413 206 391T151 333T119 248T108 147Q108 101 126 75T186 48ZM401 687L469 529H400L348 643H338L234 529H160L299 687H401Z" />
<glyph unicode="&#xe3;" glyph-name="atilde" horiz-adv-x="497" d="M312 53Q281 22 244 6T158 -11Q92 -11 60 28T28 134Q28 209 46 270T95 376T171 445T268 469Q341 469 391 435L402 458H464L389 120L373 0H313L312 53ZM186 48Q217 48 247 62T310 105L369 383Q348
399 325 406T283 413Q239 413 206 391T151 333T119 248T108 147Q108 101 126 75T186 48ZM481 598Q460 583 432 573T375 562Q355 562 340 567T312 579T285 590T256 596Q235 596 218 589T183 571L162 620Q182 634 210 645T265 656Q285 656 300 651T329 640T356 628T385
623Q405 623 424 630T460 647L481 598Z" />
<glyph unicode="&#xe4;" glyph-name="adieresis" horiz-adv-x="497" d="M312 53Q281 22 244 6T158 -11Q92 -11 60 28T28 134Q28 209 46 270T95 376T171 445T268 469Q341 469 391 435L402 458H464L389 120L373 0H313L312 53ZM186 48Q217 48 247 62T310 105L369
383Q348 399 325 406T283 413Q239 413 206 391T151 333T119 248T108 147Q108 101 126 75T186 48ZM276 565H199L218 647H294L276 565ZM446 565H370L388 647H464L446 565Z" />
<glyph unicode="&#xe5;" glyph-name="aring" horiz-adv-x="497" d="M312 53Q281 22 244 6T158 -11Q92 -11 60 28T28 134Q28 209 46 270T95 376T171 445T268 469Q341 469 391 435L402 458H464L389 120L373 0H313L312 53ZM186 48Q217 48 247 62T310 105L369 383Q348
399 325 406T283 413Q239 413 206 391T151 333T119 248T108 147Q108 101 126 75T186 48ZM312 522Q272 522 252 544T231 595Q231 652 263 682T356 712Q395 712 414 690T434 638Q434 581 403 552T312 522ZM322 572Q347 572 363 585T379 630Q379 645 372 654T345 663Q309
663 298 645T287 604Q287 572 322 572Z" />
<glyph unicode="&#xe6;" glyph-name="ae" horiz-adv-x="746" d="M132 -11Q68 -11 39 20T9 101Q9 148 24 179T68 230T137 258T226 266Q253 266 280 265T322 262Q326 281 330 303T335 346Q335 380 315 394T247 408Q210 408 172 399T104 375L95 429Q133 446 178 457T275
469Q326 469 358 452T400 400Q431 431 475 450T571 469Q637 469 675 442T713 362Q713 313 685 282T614 232T517 207T412 200H388Q386 192 386 181T386 161Q386 104 413 77T503 50Q549 50 588 61T654 84L663 31Q634 16 585 3T479 -11Q427 -11 388 6T328 66Q312 53
293 40T249 15T196 -4T132 -11ZM308 157Q308 169 308 181T310 206Q295 207 268 208T212 210Q177 210 154 203T116 183T97 153T91 115Q91 48 162 48Q199 48 238 68T310 117Q309 127 309 136T308 157ZM561 411Q522 411 494 399T446 365T414 315T394 255H418Q455 255
494 259T564 274T615 303T635 351Q635 381 615 396T561 411Z" />
<glyph unicode="&#xe7;" glyph-name="ccedilla" horiz-adv-x="427" d="M347 22Q323 10 283 0T197 -11Q110 -11 70 36T29 161Q29 232 48 289T103 386T190 447T305 469Q347 469 381 457T434 426L387 379Q355 409 295 409Q252 409 218 392T159 344T121 269T108 173Q108
115 133 82T220 49Q256 49 286 57T342 77L347 22ZM67 -155Q81 -160 96 -164T131 -168Q169 -168 186 -155T203 -118Q203 -97 182 -89T112 -78L141 -29Q276 -34 276 -109Q276 -166 242 -195T127 -224Q99 -224 76 -219T37 -205L67 -155Z" />
<glyph unicode="&#xe8;" glyph-name="egrave" horiz-adv-x="471" d="M388 31Q373 24 353 17T309 3T258 -7T204 -11Q167 -11 135 -2T80 28T43 81T29 160Q29 222 45 278T95 376T179 444T296 469Q362 469 400 439T438 354Q438 302 408 270T331 220T225 193T109 181V159Q109
104 136 77T227 49Q272 49 310 61T379 86L388 31ZM286 411Q244 411 214 396T164 356T133 300T116 236Q158 239 201 245T280 263T337 294T360 342Q360 376 339 393T286 411ZM286 687L366 529H293L201 687H286Z" />
<glyph unicode="&#xe9;" glyph-name="eacute" horiz-adv-x="471" d="M388 31Q373 24 353 17T309 3T258 -7T204 -11Q167 -11 135 -2T80 28T43 81T29 160Q29 222 45 278T95 376T179 444T296 469Q362 469 400 439T438 354Q438 302 408 270T331 220T225 193T109 181V159Q109
104 136 77T227 49Q272 49 310 61T379 86L388 31ZM286 411Q244 411 214 396T164 356T133 300T116 236Q158 239 201 245T280 263T337 294T360 342Q360 376 339 393T286 411ZM481 687L325 529H246L393 687H481Z" />
<glyph unicode="&#xea;" glyph-name="ecircumflex" horiz-adv-x="471" d="M388 31Q373 24 353 17T309 3T258 -7T204 -11Q167 -11 135 -2T80 28T43 81T29 160Q29 222 45 278T95 376T179 444T296 469Q362 469 400 439T438 354Q438 302 408 270T331 220T225 193T109
181V159Q109 104 136 77T227 49Q272 49 310 61T379 86L388 31ZM286 411Q244 411 214 396T164 356T133 300T116 236Q158 239 201 245T280 263T337 294T360 342Q360 376 339 393T286 411ZM392 687L460 529H391L339 643H329L225 529H151L290 687H392Z" />
<glyph unicode="&#xeb;" glyph-name="edieresis" horiz-adv-x="471" d="M388 31Q373 24 353 17T309 3T258 -7T204 -11Q167 -11 135 -2T80 28T43 81T29 160Q29 222 45 278T95 376T179 444T296 469Q362 469 400 439T438 354Q438 302 408 270T331 220T225 193T109
181V159Q109 104 136 77T227 49Q272 49 310 61T379 86L388 31ZM286 411Q244 411 214 396T164 356T133 300T116 236Q158 239 201 245T280 263T337 294T360 342Q360 376 339 393T286 411ZM261 565H184L203 647H279L261 565ZM431 565H355L373 647H449L431 565Z" />
<glyph unicode="&#xec;" glyph-name="igrave" horiz-adv-x="212" d="M149 687L211 529H141L70 687H149ZM11 0L108 458H185L89 0H11Z" />
<glyph unicode="&#xed;" glyph-name="iacute" horiz-adv-x="212" d="M322 687L186 529H109L235 687H322ZM11 0L108 458H185L89 0H11Z" />
<glyph unicode="&#xee;" glyph-name="icircumflex" horiz-adv-x="212" d="M245 689L297 531H230L193 646H183L95 531H25L144 689H245ZM11 0L108 458H185L89 0H11Z" />
<glyph unicode="&#xef;" glyph-name="idieresis" horiz-adv-x="212" d="M129 567H57L75 647H146L129 567ZM276 567H206L223 647H294L276 567ZM11 0L108 458H185L89 0H11Z" />
<glyph unicode="&#xf0;" glyph-name="eth" horiz-adv-x="500" d="M165 548L276 600Q255 612 228 621T169 639L191 693Q290 673 348 634L476 694L490 651L387 602Q429 560 446 506T464 387Q464 299 451 226T406 100T322 18T190 -12Q106 -12 68 34T29 157Q29 224
46 281T96 379T175 444T277 468Q316 468 342 453T388 416Q385 470 369 507T321 571L179 505L165 548ZM201 48Q240 48 272 63T328 113T367 203T388 337Q367 368 341 388T273 409Q238 409 208 390T156 337T122 260T109 167Q109 115 130 82T201 48Z" />
<glyph unicode="&#xf1;" glyph-name="ntilde" horiz-adv-x="493" d="M11 0L79 317L100 458H165L162 400Q200 432 243 450T329 469Q394 469 420 440T446 361Q446 345 444 328T438 290L376 0H298L357 278Q366 315 366 342Q366 407 302 407Q239 407 159 333L89 0H11ZM480
598Q459 583 431 573T374 562Q354 562 339 567T311 579T284 590T255 596Q234 596 217 589T182 571L161 620Q181 634 209 645T264 656Q284 656 299 651T328 640T355 628T384 623Q404 623 423 630T459 647L480 598Z" />
<glyph unicode="&#xf2;" glyph-name="ograve" horiz-adv-x="502" d="M196 -11Q111 -11 70 33T28 158Q28 221 45 277T95 376T176 444T289 469Q374 469 415 425T457 299Q457 236 440 180T390 81T309 14T196 -11ZM205 48Q247 48 279 68T334 122T367 201T378 297Q378
320 373 341T357 377T327 402T281 411Q238 411 205 391T150 336T117 256T106 161Q106 137 111 117T127 81T158 57T205 48ZM279 687L359 529H286L194 687H279Z" />
<glyph unicode="&#xf3;" glyph-name="oacute" horiz-adv-x="502" d="M196 -11Q111 -11 70 33T28 158Q28 221 45 277T95 376T176 444T289 469Q374 469 415 425T457 299Q457 236 440 180T390 81T309 14T196 -11ZM205 48Q247 48 279 68T334 122T367 201T378 297Q378
320 373 341T357 377T327 402T281 411Q238 411 205 391T150 336T117 256T106 161Q106 137 111 117T127 81T158 57T205 48ZM498 687L342 529H263L410 687H498Z" />
<glyph unicode="&#xf4;" glyph-name="ocircumflex" horiz-adv-x="502" d="M196 -11Q111 -11 70 33T28 158Q28 221 45 277T95 376T176 444T289 469Q374 469 415 425T457 299Q457 236 440 180T390 81T309 14T196 -11ZM205 48Q247 48 279 68T334 122T367 201T378
297Q378 320 373 341T357 377T327 402T281 411Q238 411 205 391T150 336T117 256T106 161Q106 137 111 117T127 81T158 57T205 48ZM396 687L464 529H395L343 643H333L229 529H155L294 687H396Z" />
<glyph unicode="&#xf5;" glyph-name="otilde" horiz-adv-x="502" d="M196 -11Q111 -11 70 33T28 158Q28 221 45 277T95 376T176 444T289 469Q374 469 415 425T457 299Q457 236 440 180T390 81T309 14T196 -11ZM205 48Q247 48 279 68T334 122T367 201T378 297Q378
320 373 341T357 377T327 402T281 411Q238 411 205 391T150 336T117 256T106 161Q106 137 111 117T127 81T158 57T205 48ZM483 598Q462 583 434 573T377 562Q357 562 342 567T314 579T287 590T258 596Q237 596 220 589T185 571L164 620Q184 634 212 645T267 656Q287
656 302 651T331 640T358 628T387 623Q407 623 426 630T462 647L483 598Z" />
<glyph unicode="&#xf6;" glyph-name="odieresis" horiz-adv-x="502" d="M196 -11Q111 -11 70 33T28 158Q28 221 45 277T95 376T176 444T289 469Q374 469 415 425T457 299Q457 236 440 180T390 81T309 14T196 -11ZM205 48Q247 48 279 68T334 122T367 201T378 297Q378
320 373 341T357 377T327 402T281 411Q238 411 205 391T150 336T117 256T106 161Q106 137 111 117T127 81T158 57T205 48ZM269 565H192L211 647H287L269 565ZM439 565H363L381 647H457L439 565Z" />
<glyph unicode="&#xf7;" glyph-name="divide" horiz-adv-x="563" d="M343 361H258L276 446H362L343 361ZM218 171H303L285 87H199L218 171ZM92 299H482L468 233H79L92 299Z" />
<glyph unicode="&#xf8;" glyph-name="oslash" horiz-adv-x="504" d="M-16 15L42 73Q29 106 29 155Q29 226 46 284T98 383T184 446T302 469Q373 469 411 433L464 485L506 444L446 385Q453 367 455 347T458 302Q458 237 444 180T397 81T313 13T186 -12Q117 -12 79
25L25 -28L-16 15ZM287 412Q247 412 214 395T157 345T120 269T107 172Q107 161 107 153T109 136L360 381Q340 412 287 412ZM199 47Q245 47 279 66T335 118T369 194T380 286Q380 296 380 304T378 322L130 78Q151 47 199 47Z" />
<glyph unicode="&#xf9;" glyph-name="ugrave" horiz-adv-x="494" d="M180 458L120 180Q112 140 112 116Q112 51 175 51Q238 51 318 126L389 458H467L399 141L378 0H313L315 58Q277 26 234 8T148 -11Q83 -11 58 18T32 97Q32 114 34 132T40 168L102 458H180ZM265
687L345 529H272L180 687H265Z" />
<glyph unicode="&#xfa;" glyph-name="uacute" horiz-adv-x="494" d="M180 458L120 180Q112 140 112 116Q112 51 175 51Q238 51 318 126L389 458H467L399 141L378 0H313L315 58Q277 26 234 8T148 -11Q83 -11 58 18T32 97Q32 114 34 132T40 168L102 458H180ZM504
687L348 529H269L416 687H504Z" />
<glyph unicode="&#xfb;" glyph-name="ucircumflex" horiz-adv-x="494" d="M180 458L120 180Q112 140 112 116Q112 51 175 51Q238 51 318 126L389 458H467L399 141L378 0H313L315 58Q277 26 234 8T148 -11Q83 -11 58 18T32 97Q32 114 34 132T40 168L102 458H180ZM389
687L457 529H388L336 643H326L222 529H148L287 687H389Z" />
<glyph unicode="&#xfc;" glyph-name="udieresis" horiz-adv-x="494" d="M180 458L120 180Q112 140 112 116Q112 51 175 51Q238 51 318 126L389 458H467L399 141L378 0H313L315 58Q277 26 234 8T148 -11Q83 -11 58 18T32 97Q32 114 34 132T40 168L102 458H180ZM263
565H186L205 647H281L263 565ZM433 565H357L375 647H451L433 565Z" />
<glyph unicode="&#xfd;" glyph-name="yacute" horiz-adv-x="443" d="M-55 -162Q-40 -166 -24 -166Q11 -166 33 -152T69 -122Q77 -114 86 -100T105 -70T124 -36T141 -5L57 458H136L191 94H199L390 458H470L203 -30Q178 -77 156 -113T107 -174T48 -212T-30 -225Q-40
-225 -51 -224T-73 -220L-55 -162ZM490 687L334 529H255L402 687H490Z" />
<glyph unicode="&#xfe;" glyph-name="thorn" horiz-adv-x="493" d="M175 416Q208 441 243 455T323 469Q387 469 419 429T452 324Q452 256 436 196T388 90T312 17T209 -10Q142 -10 92 19L43 -213L-37 -223L56 213L156 681L235 692L175 416ZM294 411Q263 411 230
395T161 348L133 217H134L105 79Q128 62 151 55T196 47Q242 47 275 70T330 130T362 215T372 313Q372 359 353 385T294 411Z" />
<glyph unicode="&#xff;" glyph-name="ydieresis" horiz-adv-x="443" d="M-55 -162Q-40 -166 -24 -166Q11 -166 33 -152T69 -122Q77 -114 86 -100T105 -70T124 -36T141 -5L57 458H136L191 94H199L390 458H470L203 -30Q178 -77 156 -113T107 -174T48 -212T-30 -225Q-40
-225 -51 -224T-73 -220L-55 -162ZM241 565H164L183 647H259L241 565ZM411 565H335L353 647H429L411 565Z" />
<glyph unicode="&#x100;" glyph-name="Amacron" horiz-adv-x="595" d="M446 0L420 192H146L42 0H-47L320 659H433L530 0H446ZM182 259H412L369 594H361L182 259ZM536 775H265L279 837H549L536 775Z" />
<glyph unicode="&#x101;" glyph-name="amacron" horiz-adv-x="497" d="M312 53Q281 22 244 6T158 -11Q92 -11 60 28T28 134Q28 209 46 270T95 376T171 445T268 469Q341 469 391 435L402 458H464L389 120L373 0H313L312 53ZM186 48Q217 48 247 62T310 105L369 383Q348
399 325 406T283 413Q239 413 206 391T151 333T119 248T108 147Q108 101 126 75T186 48ZM463 575H192L206 637H476L463 575Z" />
<glyph unicode="&#x102;" glyph-name="Abreve" horiz-adv-x="595" d="M446 0L420 192H146L42 0H-47L320 659H433L530 0H446ZM182 259H412L369 594H361L182 259ZM566 886Q553 808 511 766T391 724Q330 724 302 756T273 842Q273 853 274 864T278 886H339Q337 875
336 865T335 848Q335 816 350 798T400 780Q443 780 469 810T504 886H566Z" />
<glyph unicode="&#x103;" glyph-name="abreve" horiz-adv-x="497" d="M312 53Q281 22 244 6T158 -11Q92 -11 60 28T28 134Q28 209 46 270T95 376T171 445T268 469Q341 469 391 435L402 458H464L389 120L373 0H313L312 53ZM186 48Q217 48 247 62T310 105L369 383Q348
399 325 406T283 413Q239 413 206 391T151 333T119 248T108 147Q108 101 126 75T186 48ZM488 687Q475 609 433 567T313 525Q252 525 224 557T195 643Q195 654 196 665T200 687H261Q259 676 258 666T257 649Q257 617 272 599T322 581Q365 581 391 611T426 687H488Z"
/>
<glyph unicode="&#x104;" glyph-name="Aogonek" horiz-adv-x="595" d="M494 -208Q477 -213 455 -217T408 -222Q360 -222 339 -204T317 -153Q317 -103 341 -73T416 -12Q422 -8 429 -4T445 3L420 192H146L42 0H-47L320 659H433L530 0Q512 -9 495 -18T463 -37Q429
-60 412 -80T395 -130Q395 -166 437 -166Q464 -166 490 -157L494 -208ZM182 259H412L369 594H361L182 259Z" />
<glyph unicode="&#x105;" glyph-name="aogonek" horiz-adv-x="497" d="M340 -208Q324 -213 302 -217T255 -222Q207 -222 186 -204T164 -153Q164 -108 187 -76T269 -11Q280 -5 291 0T313 11L312 53Q281 22 244 6T158 -11Q92 -11 60 28T28 134Q28 209 46 270T95
376T171 445T268 469Q341 469 391 435L402 458H464L389 120L373 0Q353 -11 338 -20T308 -39Q272 -64 258 -84T243 -131Q243 -166 283 -166Q311 -166 337 -157L340 -208ZM186 48Q217 48 247 62T310 105L369 383Q348 399 325 406T283 413Q239 413 206 391T151 333T119
248T108 147Q108 101 126 75T186 48Z" />
<glyph unicode="&#x106;" glyph-name="Cacute" horiz-adv-x="570" d="M275 -11Q163 -10 103 51T42 232Q42 332 68 413T142 551T258 638T409 669Q527 669 593 606L545 557Q519 580 486 592T401 604Q325 604 272 571T186 485T137 367T122 238Q122 153 163 104T292
54Q352 54 393 66T467 90L476 27Q444 13 393 1T275 -11ZM620 887L464 729H385L532 887H620Z" />
<glyph unicode="&#x107;" glyph-name="cacute" horiz-adv-x="424" d="M347 22Q323 10 283 0T197 -11Q110 -11 70 36T29 161Q29 232 48 289T103 386T190 447T305 469Q347 469 381 457T434 426L387 379Q355 409 295 409Q252 409 218 392T159 344T121 269T108 173Q108
115 133 82T220 49Q256 49 286 57T342 77L347 22ZM475 687L319 529H240L387 687H475Z" />
<glyph unicode="&#x108;" glyph-name="Ccircumflex" horiz-adv-x="570" d="M275 -11Q163 -10 103 51T42 232Q42 332 68 413T142 551T258 638T409 669Q527 669 593 606L545 557Q519 580 486 592T401 604Q325 604 272 571T186 485T137 367T122 238Q122 153 163 104T292
54Q352 54 393 66T467 90L476 27Q444 13 393 1T275 -11ZM501 887L569 729H500L448 843H438L334 729H260L399 887H501Z" />
<glyph unicode="&#x109;" glyph-name="ccircumflex" horiz-adv-x="424" d="M347 22Q323 10 283 0T197 -11Q110 -11 70 36T29 161Q29 232 48 289T103 386T190 447T305 469Q347 469 381 457T434 426L387 379Q355 409 295 409Q252 409 218 392T159 344T121 269T108
173Q108 115 133 82T220 49Q256 49 286 57T342 77L347 22ZM391 687L459 529H390L338 643H328L224 529H150L289 687H391Z" />
<glyph unicode="&#x10a;" glyph-name="Cdotaccent" horiz-adv-x="570" d="M275 -11Q163 -10 103 51T42 232Q42 332 68 413T142 551T258 638T409 669Q527 669 593 606L545 557Q519 580 486 592T401 604Q325 604 272 571T186 485T137 367T122 238Q122 153 163 104T292
54Q352 54 393 66T467 90L476 27Q444 13 393 1T275 -11ZM465 765H387L405 847H482L465 765Z" />
<glyph unicode="&#x10b;" glyph-name="cdotaccent" horiz-adv-x="424" d="M347 22Q323 10 283 0T197 -11Q110 -11 70 36T29 161Q29 232 48 289T103 386T190 447T305 469Q347 469 381 457T434 426L387 379Q355 409 295 409Q252 409 218 392T159 344T121 269T108
173Q108 115 133 82T220 49Q256 49 286 57T342 77L347 22ZM355 565H277L295 647H372L355 565Z" />
<glyph unicode="&#x10c;" glyph-name="Ccaron" horiz-adv-x="570" d="M275 -11Q163 -10 103 51T42 232Q42 332 68 413T142 551T258 638T409 669Q527 669 593 606L545 557Q519 580 486 592T401 604Q325 604 272 571T186 485T137 367T122 238Q122 153 163 104T292
54Q352 54 393 66T467 90L476 27Q444 13 393 1T275 -11ZM366 729L298 887H368L421 772H430L533 887H606L470 729H366Z" />
<glyph unicode="&#x10d;" glyph-name="ccaron" horiz-adv-x="424" d="M347 22Q323 10 283 0T197 -11Q110 -11 70 36T29 161Q29 232 48 289T103 386T190 447T305 469Q347 469 381 457T434 426L387 379Q355 409 295 409Q252 409 218 392T159 344T121 269T108 173Q108
115 133 82T220 49Q256 49 286 57T342 77L347 22ZM259 529L191 687H261L314 572H323L426 687H499L363 529H259Z" />
<glyph unicode="&#x10e;" glyph-name="Dcaron" horiz-adv-x="610" d="M333 659Q461 659 525 604T589 427Q589 335 565 257T491 121T365 32T184 0H16L156 659H333ZM195 64Q277 64 336 92T433 169T489 282T508 418Q508 511 464 552T322 594H220L107 64H195ZM331
729L263 887H333L386 772H395L498 887H571L435 729H331Z" />
<glyph unicode="&#x10f;" glyph-name="dcaron" horiz-adv-x="623" d="M597 519H542L607 687H686L597 519ZM312 0L314 50Q281 22 244 6T158 -11Q92 -11 61 28T29 134Q29 210 47 272T97 377T175 445T275 469Q337 469 387 439L439 681L518 692L395 117L379 0H312ZM186
48Q248 48 317 108L374 379Q352 396 329 403T285 411Q240 411 207 390T153 332T120 247T109 147Q109 101 126 75T186 48Z" />
<glyph unicode="&#x110;" glyph-name="Dcroat" horiz-adv-x="623" d="M345 659Q473 659 537 604T601 427Q601 335 577 257T503 121T377 32T196 0H28L92 303H29L43 368H106L168 659H345ZM207 64Q289 64 348 92T445 169T501 282T520 418Q520 511 476 552T334 594H232L184
368H333L320 303H170L119 64H207Z" />
<glyph unicode="&#x111;" glyph-name="" horiz-adv-x="502" d="M312 0L314 50Q281 22 244 6T158 -11Q92 -11 61 28T29 134Q29 210 47 272T97 377T175 445T275 469Q337 469 387 439L408 537H279L292 597H421L439 681L518 692L497 597H565L554 537H484L395 117L379
0H312ZM186 48Q248 48 317 108L374 379Q352 396 329 403T285 411Q240 411 207 390T153 332T120 247T109 147Q109 101 126 75T186 48Z" />
<glyph unicode="&#x112;" glyph-name="Emacron" horiz-adv-x="519" d="M413 65L399 0H16L156 659H528L515 594H221L174 373H457L444 307H160L108 65H413ZM508 775H237L251 837H521L508 775Z" />
<glyph unicode="&#x113;" glyph-name="emacron" horiz-adv-x="471" d="M388 31Q373 24 353 17T309 3T258 -7T204 -11Q167 -11 135 -2T80 28T43 81T29 160Q29 222 45 278T95 376T179 444T296 469Q362 469 400 439T438 354Q438 302 408 270T331 220T225 193T109
181V159Q109 104 136 77T227 49Q272 49 310 61T379 86L388 31ZM286 411Q244 411 214 396T164 356T133 300T116 236Q158 239 201 245T280 263T337 294T360 342Q360 376 339 393T286 411ZM449 575H178L192 637H462L449 575Z" />
<glyph unicode="&#x114;" glyph-name="Ebreve" horiz-adv-x="519" d="M413 65L399 0H16L156 659H528L515 594H221L174 373H457L444 307H160L108 65H413ZM534 886Q521 808 479 766T359 724Q298 724 270 756T241 842Q241 853 242 864T246 886H307Q305 875 304 865T303
848Q303 816 318 798T368 780Q411 780 437 810T472 886H534Z" />
<glyph unicode="&#x115;" glyph-name="ebreve" horiz-adv-x="471" d="M388 31Q373 24 353 17T309 3T258 -7T204 -11Q167 -11 135 -2T80 28T43 81T29 160Q29 222 45 278T95 376T179 444T296 469Q362 469 400 439T438 354Q438 302 408 270T331 220T225 193T109 181V159Q109
104 136 77T227 49Q272 49 310 61T379 86L388 31ZM286 411Q244 411 214 396T164 356T133 300T116 236Q158 239 201 245T280 263T337 294T360 342Q360 376 339 393T286 411ZM474 687Q461 609 419 567T299 525Q238 525 210 557T181 643Q181 654 182 665T186 687H247Q245
676 244 666T243 649Q243 617 258 599T308 581Q351 581 377 611T412 687H474Z" />
<glyph unicode="&#x116;" glyph-name="Edotaccent" horiz-adv-x="519" d="M413 65L399 0H16L156 659H528L515 594H221L174 373H457L444 307H160L108 65H413ZM392 765H314L332 847H409L392 765Z" />
<glyph unicode="&#x117;" glyph-name="edotaccent" horiz-adv-x="471" d="M388 31Q373 24 353 17T309 3T258 -7T204 -11Q167 -11 135 -2T80 28T43 81T29 160Q29 222 45 278T95 376T179 444T296 469Q362 469 400 439T438 354Q438 302 408 270T331 220T225 193T109
181V159Q109 104 136 77T227 49Q272 49 310 61T379 86L388 31ZM286 411Q244 411 214 396T164 356T133 300T116 236Q158 239 201 245T280 263T337 294T360 342Q360 376 339 393T286 411ZM336 565H258L276 647H353L336 565Z" />
<glyph unicode="&#x118;" glyph-name="Eogonek" horiz-adv-x="519" d="M366 -208Q350 -213 328 -217T281 -222Q233 -222 212 -204T190 -153Q190 -108 213 -76T295 -11Q305 -4 315 0H16L156 659H528L515 594H221L174 373H457L444 307H160L108 65H413L399 0Q379
-11 364 -20T334 -39Q298 -64 284 -84T269 -131Q269 -166 309 -166Q337 -166 363 -157L366 -208Z" />
<glyph unicode="&#x119;" glyph-name="eogonek" horiz-adv-x="471" d="M300 -208Q284 -214 261 -218T213 -223Q171 -223 147 -206T123 -153Q123 -111 144 -81T208 -21L223 -10Q218 -11 214 -11T204 -11Q167 -11 135 -2T80 28T43 81T29 160Q29 222 45 278T95 376T179
444T296 469Q362 469 400 439T438 354Q438 302 408 270T331 220T225 193T109 181V159Q109 104 136 77T227 49Q272 49 310 61T379 86L388 31L382 28L368 22Q342 11 317 -1T262 -37Q233 -60 219 -80T204 -128Q204 -144 213 -155T244 -167Q259 -167 272 -164T297 -158L300
-208ZM286 411Q244 411 214 396T164 356T133 300T116 236Q158 239 201 245T280 263T337 294T360 342Q360 376 339 393T286 411Z" />
<glyph unicode="&#x11a;" glyph-name="Ecaron" horiz-adv-x="519" d="M413 65L399 0H16L156 659H528L515 594H221L174 373H457L444 307H160L108 65H413ZM307 729L239 887H309L362 772H371L474 887H547L411 729H307Z" />
<glyph unicode="&#x11b;" glyph-name="ecaron" horiz-adv-x="471" d="M388 31Q373 24 353 17T309 3T258 -7T204 -11Q167 -11 135 -2T80 28T43 81T29 160Q29 222 45 278T95 376T179 444T296 469Q362 469 400 439T438 354Q438 302 408 270T331 220T225 193T109 181V159Q109
104 136 77T227 49Q272 49 310 61T379 86L388 31ZM286 411Q244 411 214 396T164 356T133 300T116 236Q158 239 201 245T280 263T337 294T360 342Q360 376 339 393T286 411ZM247 529L179 687H249L302 572H311L414 687H487L351 529H247Z" />
<glyph unicode="&#x11c;" glyph-name="Gcircumflex" horiz-adv-x="615" d="M420 669Q481 669 531 654T613 607L567 557Q542 578 506 591T415 604Q331 604 275 572T185 487T137 370T122 240Q122 152 164 103T303 53Q345 53 375 59T430 73L472 271H317L330 336H564L497
23Q455 10 406 0T289 -11Q171 -10 107 51T42 232Q42 339 69 421T146 558T266 641T420 669ZM510 887L578 729H509L457 843H447L343 729H269L408 887H510Z" />
<glyph unicode="&#x11d;" glyph-name="gcircumflex" horiz-adv-x="493" d="M265 469Q339 469 395 431L408 458H467L364 -22Q352 -80 331 -119T279 -181T209 -215T121 -225Q81 -225 47 -220T-12 -206L15 -145Q35 -152 63 -158T130 -164Q157 -164 181 -158T226 -135T262
-92T287 -24L302 45Q273 18 237 4T156 -11Q90 -11 58 28T26 134Q26 209 44 270T93 376T169 445T265 469ZM184 48Q248 48 315 113L372 379Q349 398 326 405T281 412Q237 412 204 391T149 332T117 247T106 147Q106 101 124 75T184 48ZM393 687L461 529H392L340 643H330L226
529H152L291 687H393Z" />
<glyph unicode="&#x11e;" glyph-name="Gbreve" horiz-adv-x="615" d="M420 669Q481 669 531 654T613 607L567 557Q542 578 506 591T415 604Q331 604 275 572T185 487T137 370T122 240Q122 152 164 103T303 53Q345 53 375 59T430 73L472 271H317L330 336H564L497
23Q455 10 406 0T289 -11Q171 -10 107 51T42 232Q42 339 69 421T146 558T266 641T420 669ZM598 886Q585 808 543 766T423 724Q362 724 334 756T305 842Q305 853 306 864T310 886H371Q369 875 368 865T367 848Q367 816 382 798T432 780Q475 780 501 810T536 886H598Z"
/>
<glyph unicode="&#x11f;" glyph-name="gbreve" horiz-adv-x="493" d="M265 469Q339 469 395 431L408 458H467L364 -22Q352 -80 331 -119T279 -181T209 -215T121 -225Q81 -225 47 -220T-12 -206L15 -145Q35 -152 63 -158T130 -164Q157 -164 181 -158T226 -135T262
-92T287 -24L302 45Q273 18 237 4T156 -11Q90 -11 58 28T26 134Q26 209 44 270T93 376T169 445T265 469ZM184 48Q248 48 315 113L372 379Q349 398 326 405T281 412Q237 412 204 391T149 332T117 247T106 147Q106 101 124 75T184 48ZM479 687Q466 609 424 567T304
525Q243 525 215 557T186 643Q186 654 187 665T191 687H252Q250 676 249 666T248 649Q248 617 263 599T313 581Q356 581 382 611T417 687H479Z" />
<glyph unicode="&#x120;" glyph-name="Gdotaccent" horiz-adv-x="615" d="M420 669Q481 669 531 654T613 607L567 557Q542 578 506 591T415 604Q331 604 275 572T185 487T137 370T122 240Q122 152 164 103T303 53Q345 53 375 59T430 73L472 271H317L330 336H564L497
23Q455 10 406 0T289 -11Q171 -10 107 51T42 232Q42 339 69 421T146 558T266 641T420 669ZM474 765H396L414 847H491L474 765Z" />
<glyph unicode="&#x121;" glyph-name="gdotaccent" horiz-adv-x="493" d="M265 469Q339 469 395 431L408 458H467L364 -22Q352 -80 331 -119T279 -181T209 -215T121 -225Q81 -225 47 -220T-12 -206L15 -145Q35 -152 63 -158T130 -164Q157 -164 181 -158T226 -135T262
-92T287 -24L302 45Q273 18 237 4T156 -11Q90 -11 58 28T26 134Q26 209 44 270T93 376T169 445T265 469ZM184 48Q248 48 315 113L372 379Q349 398 326 405T281 412Q237 412 204 391T149 332T117 247T106 147Q106 101 124 75T184 48ZM357 565H279L297 647H374L357
565Z" />
<glyph unicode="&#x122;" glyph-name="uni0122" horiz-adv-x="617" d="M420 669Q481 669 531 654T613 607L567 557Q542 578 506 591T415 604Q331 604 275 572T185 487T137 370T122 240Q122 152 164 103T303 53Q345 53 375 59T430 73L472 271H317L330 336H564L497
23Q455 10 406 0T289 -11Q171 -10 107 51T42 232Q42 339 69 421T146 558T266 641T420 669ZM143 -228Q181 -190 201 -147T232 -54H303Q290 -120 261 -170T183 -263L143 -228Z" />
<glyph unicode="&#x123;" glyph-name="uni0123" horiz-adv-x="493" d="M265 469Q339 469 395 431L408 458H467L364 -22Q352 -80 331 -119T279 -181T209 -215T121 -225Q81 -225 47 -220T-12 -206L15 -145Q35 -152 63 -158T130 -164Q157 -164 181 -158T226 -135T262
-92T287 -24L302 45Q273 18 237 4T156 -11Q90 -11 58 28T26 134Q26 209 44 270T93 376T169 445T265 469ZM184 48Q248 48 315 113L372 379Q349 398 326 405T281 412Q237 412 204 391T149 332T117 247T106 147Q106 101 124 75T184 48ZM429 685Q391 647 371 604T340
511H269Q282 577 311 627T389 720L429 685Z" />
<glyph unicode="&#x124;" glyph-name="Hcircumflex" horiz-adv-x="633" d="M641 659L500 0H421L485 297H158L95 0H16L156 659H235L172 364H499L562 659H641ZM489 887L557 729H488L436 843H426L322 729H248L387 887H489Z" />
<glyph unicode="&#x125;" glyph-name="hcircumflex" horiz-adv-x="493" d="M11 0L156 681L236 692L177 411Q212 439 251 454T329 469Q394 469 420 440T446 361Q446 345 444 328T438 290L376 0H298L357 278Q362 297 364 312T366 342Q366 407 302 407Q241 407 159
333L89 0H11ZM295 895L363 737H294L242 851H232L128 737H54L193 895H295Z" />
<glyph unicode="&#x126;" glyph-name="Hbar" horiz-adv-x="651" d="M651 659L625 538H691L679 477H612L510 0H431L495 297H168L105 0H26L127 477H66L79 538H140L166 659H245L219 538H546L572 659H651ZM509 364L533 477H206L182 364H509Z" />
<glyph unicode="&#x127;" glyph-name="hbar" horiz-adv-x="493" d="M11 0L125 537H62L74 597H138L156 681L236 692L216 597H349L336 537H203L177 411Q212 439 251 454T329 469Q394 469 420 440T446 361Q446 345 444 328T438 290L376 0H298L357 278Q362 297 364
312T366 342Q366 407 302 407Q241 407 159 333L89 0H11Z" />
<glyph unicode="&#x128;" glyph-name="Itilde" horiz-adv-x="221" d="M167 659H246L106 0H27L167 659ZM395 798Q374 783 346 773T289 762Q269 762 254 767T226 779T199 790T170 796Q149 796 132 789T97 771L76 820Q96 834 124 845T179 856Q199 856 214 851T243
840T270 828T299 823Q319 823 338 830T374 847L395 798Z" />
<glyph unicode="&#x129;" glyph-name="itilde" horiz-adv-x="212" d="M304 598Q286 585 263 576T216 567Q201 567 189 570T167 578T148 587T127 591Q109 591 96 587T69 574L49 624Q66 636 89 644T135 652Q151 652 162 648T184 640T203 631T225 627Q240 627 255
632T283 647L304 598ZM11 0L108 458H185L89 0H11Z" />
<glyph unicode="&#x12a;" glyph-name="Imacron" horiz-adv-x="221" d="M167 659H246L106 0H27L167 659ZM370 775H99L113 837H383L370 775Z" />
<glyph unicode="&#x12b;" glyph-name="imacron" horiz-adv-x="212" d="M305 575H34L48 637H318L305 575ZM11 0L108 458H185L89 0H11Z" />
<glyph unicode="&#x12c;" glyph-name="Ibreve" horiz-adv-x="221" d="M167 659H246L106 0H27L167 659ZM394 886Q381 808 339 766T219 724Q158 724 130 756T101 842Q101 853 102 864T106 886H167Q165 875 164 865T163 848Q163 816 178 798T228 780Q271 780 297
810T332 886H394Z" />
<glyph unicode="&#x12d;" glyph-name="ibreve" horiz-adv-x="212" d="M11 0L108 458H185L89 0H11ZM341 687Q328 609 286 567T166 525Q105 525 77 557T48 643Q48 654 49 665T53 687H114Q112 676 111 666T110 649Q110 617 125 599T175 581Q218 581 244 611T279 687H341Z" />
<glyph unicode="&#x12e;" glyph-name="Iogonek" horiz-adv-x="227" d="M156 659H235L95 0Q77 -9 60 -18T27 -38Q-6 -61 -22 -81T-39 -131Q-39 -166 2 -166Q29 -166 55 -157L58 -208Q42 -213 20 -217T-27 -222Q-75 -222 -96 -204T-118 -153Q-118 -103 -92 -73T-14
-12Q-7 -7 0 -3T17 5L156 659Z" />
<glyph unicode="&#x12f;" glyph-name="iogonek" horiz-adv-x="212" d="M-29 -222Q-77 -222 -98 -204T-120 -153Q-120 -103 -95 -72T-18 -11Q-4 -2 12 5L108 458H185L89 0Q70 -9 54 -18T23 -38Q-12 -63 -27 -84T-42 -131Q-42 -166 -1 -166Q26 -166 52 -157L56 -208Q39
-213 17 -217T-29 -222ZM131 565L148 647H226L209 565H131Z" />
<glyph unicode="&#x130;" glyph-name="Idotaccent" horiz-adv-x="227" d="M156 659H235L95 0H16L156 659ZM260 765H182L200 847H277L260 765Z" />
<glyph unicode="&#x131;" glyph-name="dotlessi" horiz-adv-x="212" d="M11 0L108 458H185L89 0H11Z" />
<glyph unicode="&#x132;" glyph-name="IJ" horiz-adv-x="565" d="M156 659H235L95 0H16L156 659ZM576 659L473 178Q462 127 445 92T404 35T347 4T271 -6Q225 -6 192 5L213 68Q225 65 239 62T272 58Q318 58 348 84T394 177L495 659H576Z" />
<glyph unicode="&#x133;" glyph-name="ij" horiz-adv-x="415" d="M131 565L148 647H226L209 565H131ZM11 0L108 458H185L89 0H11ZM82 -225L96 -165H102Q127 -165 143 -160T169 -143T187 -109T203 -54L312 458H389L284 -34Q273 -84 261 -120T227 -180T174 -214T91
-225H82ZM334 567L351 647H429L411 567H334Z" />
<glyph unicode="&#x134;" glyph-name="Jcircumflex" horiz-adv-x="339" d="M346 659L243 178Q232 127 215 92T174 35T117 4T41 -6Q-5 -6 -38 5L-17 68Q-5 65 9 62T42 58Q88 58 118 84T164 177L265 659H346ZM409 887L477 729H408L356 843H346L242 729H168L307 887H409Z" />
<glyph unicode="&#x135;" glyph-name="jcircumflex" horiz-adv-x="212" d="M-107 -165H-101Q-76 -165 -60 -160T-34 -143T-16 -109T0 -54L109 458H186L81 -34Q70 -84 58 -120T24 -180T-29 -214T-112 -225H-121L-107 -165ZM248 687L316 529H247L195 643H185L81
529H7L146 687H248Z" />
<glyph unicode="&#x136;" glyph-name="uni0136" horiz-adv-x="531" d="M95 0H16L156 659H235L172 363H222L523 659H619L285 328L482 0H392L214 298H158L95 0ZM79 -228Q117 -190 137 -147T168 -54H239Q226 -120 197 -170T119 -263L79 -228Z" />
<glyph unicode="&#x137;" glyph-name="uni0137" horiz-adv-x="445" d="M11 0L156 681L235 692L147 279H187L388 458H482L246 248L393 0H305L179 218H134L88 0H11ZM43 -228Q81 -190 101 -147T132 -54H203Q190 -120 161 -170T83 -263L43 -228Z" />
<glyph unicode="&#x138;" glyph-name="kgreenlandic" horiz-adv-x="456" d="M11 0L108 458H185L144 269H186L389 458H483L245 238L393 0H305L178 207H131L88 0H11Z" />
<glyph unicode="&#x139;" glyph-name="Lacute" horiz-adv-x="454" d="M401 65L387 0H16L156 659H235L108 65H401ZM427 887L271 729H192L339 887H427Z" />
<glyph unicode="&#x13a;" glyph-name="lacute" horiz-adv-x="229" d="M132 -3Q129 -4 123 -4Q118 -5 105 -5Q28 -5 28 66Q28 87 36 117L155 681L235 692L114 119Q107 95 107 82Q107 65 116 60T144 55L132 -3ZM411 914L255 756H176L323 914H411Z" />
<glyph unicode="&#x13b;" glyph-name="uni013B" horiz-adv-x="454" d="M401 65L387 0H16L156 659H235L108 65H401ZM60 -228Q98 -190 118 -147T149 -54H220Q207 -120 178 -170T100 -263L60 -228Z" />
<glyph unicode="&#x13c;" glyph-name="uni013C" horiz-adv-x="229" d="M132 -3Q129 -4 123 -4Q118 -5 105 -5Q28 -5 28 66Q28 87 36 117L155 681L235 692L114 119Q107 95 107 82Q107 65 116 60T144 55L132 -3ZM-67 -228Q-29 -190 -9 -147T22 -54H93Q80 -120 51
-170T-27 -263L-67 -228Z" />
<glyph unicode="&#x13d;" glyph-name="Lcaron" horiz-adv-x="454" d="M325 519H264L330 687H414L325 519ZM401 65L387 0H16L156 659H235L108 65H401Z" />
<glyph unicode="&#x13e;" glyph-name="lcaron" horiz-adv-x="337" d="M313 519H258L323 687H402L313 519ZM132 -3Q129 -4 123 -4Q118 -5 105 -5Q28 -5 28 66Q28 87 36 117L155 681L235 692L114 119Q107 95 107 82Q107 65 116 60T144 55L132 -3Z" />
<glyph unicode="&#x13f;" glyph-name="Ldot" horiz-adv-x="454" d="M401 65L387 0H16L156 659H235L108 65H401ZM367 277H291L309 357H385L367 277Z" />
<glyph unicode="&#x140;" glyph-name="ldot" horiz-adv-x="337" d="M132 -3Q129 -4 123 -4Q118 -5 105 -5Q28 -5 28 66Q28 87 36 117L155 681L235 692L114 119Q107 95 107 82Q107 65 116 60T144 55L132 -3ZM293 209H217L235 289H311L293 209Z" />
<glyph unicode="&#x141;" glyph-name="Lslash" horiz-adv-x="454" d="M401 65L387 0H16L71 259L2 218L17 291L86 332L156 659H235L176 385L326 474L310 400L161 312L108 65H401Z" />
<glyph unicode="&#x142;" glyph-name="lslash" horiz-adv-x="250" d="M133 -3Q130 -4 124 -4Q119 -5 106 -5Q29 -5 29 66Q29 87 37 117L69 269L-17 216L-2 290L84 343L156 681L236 692L174 398L282 465L265 390L158 324L115 119Q108 95 108 82Q108 65 117 60T145
55L133 -3Z" />
<glyph unicode="&#x143;" glyph-name="Nacute" horiz-adv-x="658" d="M667 659L526 0H391L230 595H221L95 0H16L156 659H294L454 64H461L588 659H667ZM604 887L448 729H369L516 887H604Z" />
<glyph unicode="&#x144;" glyph-name="nacute" horiz-adv-x="493" d="M11 0L79 317L100 458H165L162 400Q200 432 243 450T329 469Q394 469 420 440T446 361Q446 345 444 328T438 290L376 0H298L357 278Q366 315 366 342Q366 407 302 407Q239 407 159 333L89 0H11ZM476
687L320 529H241L388 687H476Z" />
<glyph unicode="&#x145;" glyph-name="uni0145" horiz-adv-x="658" d="M667 659L526 0H391L230 595H221L95 0H16L156 659H294L454 64H461L588 659H667ZM144 -228Q182 -190 202 -147T233 -54H304Q291 -120 262 -170T184 -263L144 -228Z" />
<glyph unicode="&#x146;" glyph-name="uni0146" horiz-adv-x="493" d="M11 0L79 317L100 458H165L162 400Q200 432 243 450T329 469Q394 469 420 440T446 361Q446 345 444 328T438 290L376 0H298L357 278Q366 315 366 342Q366 407 302 407Q239 407 159 333L89
0H11ZM62 -228Q100 -190 120 -147T151 -54H222Q209 -120 180 -170T102 -263L62 -228Z" />
<glyph unicode="&#x147;" glyph-name="Ncaron" horiz-adv-x="658" d="M667 659L526 0H391L230 595H221L95 0H16L156 659H294L454 64H461L588 659H667ZM380 729L312 887H382L435 772H444L547 887H620L484 729H380Z" />
<glyph unicode="&#x148;" glyph-name="ncaron" horiz-adv-x="493" d="M11 0L79 317L100 458H165L162 400Q200 432 243 450T329 469Q394 469 420 440T446 361Q446 345 444 328T438 290L376 0H298L357 278Q366 315 366 342Q366 407 302 407Q239 407 159 333L89 0H11ZM251
529L183 687H253L306 572H315L418 687H491L355 529H251Z" />
<glyph unicode="&#x14a;" glyph-name="Eng" horiz-adv-x="658" d="M667 659L543 80H544L520 -30Q509 -80 496 -116T462 -176T407 -210T320 -221H311L324 -159H331Q356 -159 373 -154T401 -137T421 -103T438 -50L448 0H391L230 595H221L95 0H16L156 659H294L454
64H461L588 659H667Z" />
<glyph unicode="&#x14b;" glyph-name="eng" horiz-adv-x="493" d="M11 0L79 317L100 458H165L162 400Q200 432 243 450T329 469Q394 469 420 440T446 361Q446 345 444 328T438 290L390 68H391L383 35L376 0H375L369 -29Q359 -80 346 -116T312 -175T258 -210T177
-221H167L181 -159H187Q210 -159 226 -154T254 -136T274 -102T288 -49L298 0L299 5L313 73L357 278Q366 315 366 342Q366 407 302 407Q239 407 159 333L89 0H11Z" />
<glyph unicode="&#x14c;" glyph-name="Omacron" horiz-adv-x="633" d="M266 -11Q154 -11 98 49T42 226Q42 311 63 390T128 532T237 631T390 669Q501 669 557 608T614 432Q614 348 593 268T528 126T419 27T266 -11ZM382 606Q322 606 275 577T194 496T143 375T125
226Q125 145 163 99T273 53Q333 53 380 82T461 163T513 283T531 433Q531 514 493 560T382 606ZM564 775H293L307 837H577L564 775Z" />
<glyph unicode="&#x14d;" glyph-name="omacron" horiz-adv-x="502" d="M196 -11Q111 -11 70 33T28 158Q28 221 45 277T95 376T176 444T289 469Q374 469 415 425T457 299Q457 236 440 180T390 81T309 14T196 -11ZM205 48Q247 48 279 68T334 122T367 201T378 297Q378
320 373 341T357 377T327 402T281 411Q238 411 205 391T150 336T117 256T106 161Q106 137 111 117T127 81T158 57T205 48ZM459 575H188L202 637H472L459 575Z" />
<glyph unicode="&#x14e;" glyph-name="Obreve" horiz-adv-x="633" d="M266 -11Q154 -11 98 49T42 226Q42 311 63 390T128 532T237 631T390 669Q501 669 557 608T614 432Q614 348 593 268T528 126T419 27T266 -11ZM382 606Q322 606 275 577T194 496T143 375T125
226Q125 145 163 99T273 53Q333 53 380 82T461 163T513 283T531 433Q531 514 493 560T382 606ZM606 886Q593 808 551 766T431 724Q370 724 342 756T313 842Q313 853 314 864T318 886H379Q377 875 376 865T375 848Q375 816 390 798T440 780Q483 780 509 810T544
886H606Z" />
<glyph unicode="&#x14f;" glyph-name="obreve" horiz-adv-x="502" d="M196 -11Q111 -11 70 33T28 158Q28 221 45 277T95 376T176 444T289 469Q374 469 415 425T457 299Q457 236 440 180T390 81T309 14T196 -11ZM205 48Q247 48 279 68T334 122T367 201T378 297Q378
320 373 341T357 377T327 402T281 411Q238 411 205 391T150 336T117 256T106 161Q106 137 111 117T127 81T158 57T205 48ZM491 687Q478 609 436 567T316 525Q255 525 227 557T198 643Q198 654 199 665T203 687H264Q262 676 261 666T260 649Q260 617 275 599T325
581Q368 581 394 611T429 687H491Z" />
<glyph unicode="&#x150;" glyph-name="Ohungarumlaut" horiz-adv-x="633" d="M266 -11Q154 -11 98 49T42 226Q42 311 63 390T128 532T237 631T390 669Q501 669 557 608T614 432Q614 348 593 268T528 126T419 27T266 -11ZM382 606Q322 606 275 577T194 496T143
375T125 226Q125 145 163 99T273 53Q333 53 380 82T461 163T513 283T531 433Q531 514 493 560T382 606ZM400 887H486L329 729H255L400 887ZM518 729H445L590 887H675L518 729Z" />
<glyph unicode="&#x151;" glyph-name="ohungarumlaut" horiz-adv-x="502" d="M196 -11Q111 -11 70 33T28 158Q28 221 45 277T95 376T176 444T289 469Q374 469 415 425T457 299Q457 236 440 180T390 81T309 14T196 -11ZM205 48Q247 48 279 68T334 122T367 201T378
297Q378 320 373 341T357 377T327 402T281 411Q238 411 205 391T150 336T117 256T106 161Q106 137 111 117T127 81T158 57T205 48ZM320 687H406L249 529H175L320 687ZM438 529H365L510 687H595L438 529Z" />
<glyph unicode="&#x152;" glyph-name="OE" horiz-adv-x="954" d="M848 65L834 0H456L470 69Q431 31 381 10T266 -11Q154 -11 98 49T42 226Q42 311 63 390T128 532T237 631T390 669Q528 669 577 572L596 659H964L950 594H658L611 373H894L880 307H597L545 65H848ZM382
606Q322 606 275 577T194 496T143 375T125 226Q125 145 163 99T273 53Q333 53 380 82T461 163T513 283T531 433Q531 514 493 560T382 606Z" />
<glyph unicode="&#x153;" glyph-name="oe" horiz-adv-x="807" d="M725 31Q695 17 645 3T539 -11Q484 -11 443 9T383 79Q351 37 305 13T196 -11Q111 -11 70 33T28 158Q28 221 45 277T95 376T176 444T289 469Q350 469 387 446T441 379Q473 421 520 445T632 469Q698
469 736 439T775 354Q775 302 745 270T667 220T561 193T445 181V159Q445 104 473 77T564 49Q609 49 647 61T716 86L725 31ZM281 411Q238 411 205 391T150 336T117 256T106 161Q106 137 111 117T127 81T158 57T205 48Q247 48 279 68T334 122T367 201T378 297Q378
320 373 341T357 377T327 402T281 411ZM622 411Q580 411 550 396T500 356T469 300T452 236Q494 239 538 245T617 262T674 293T697 342Q697 376 676 393T622 411Z" />
<glyph unicode="&#x154;" glyph-name="Racute" horiz-adv-x="554" d="M298 277H153L94 0H16L156 659H365Q453 659 503 624T554 513Q554 411 508 357T377 285L463 0H379L298 277ZM167 343H311Q386 343 428 381T471 500Q471 549 439 571T353 594H221L167 343ZM551
887L395 729H316L463 887H551Z" />
<glyph unicode="&#x155;" glyph-name="racute" horiz-adv-x="349" d="M13 0L77 300L97 458H165L159 375Q238 469 328 469Q358 469 382 458L351 394Q341 398 332 400T309 402Q271 402 233 374T154 297L90 0H13ZM417 687L261 529H182L329 687H417Z" />
<glyph unicode="&#x156;" glyph-name="uni0156" horiz-adv-x="554" d="M298 277H153L94 0H16L156 659H365Q453 659 503 624T554 513Q554 411 508 357T377 285L463 0H379L298 277ZM167 343H311Q386 343 428 381T471 500Q471 549 439 571T353 594H221L167 343ZM98
-230Q136 -192 156 -149T187 -56H258Q245 -122 216 -172T138 -265L98 -230Z" />
<glyph unicode="&#x157;" glyph-name="uni0157" horiz-adv-x="349" d="M13 0L77 300L97 458H165L159 375Q238 469 328 469Q358 469 382 458L351 394Q341 398 332 400T309 402Q271 402 233 374T154 297L90 0H13ZM-81 -230Q-43 -192 -23 -149T8 -56H79Q66 -122 37
-172T-41 -265L-81 -230Z" />
<glyph unicode="&#x158;" glyph-name="Rcaron" horiz-adv-x="554" d="M298 277H153L94 0H16L156 659H365Q453 659 503 624T554 513Q554 411 508 357T377 285L463 0H379L298 277ZM167 343H311Q386 343 428 381T471 500Q471 549 439 571T353 594H221L167 343ZM305
729L237 887H307L360 772H369L472 887H545L409 729H305Z" />
<glyph unicode="&#x159;" glyph-name="rcaron" horiz-adv-x="349" d="M13 0L77 300L97 458H165L159 375Q238 469 328 469Q358 469 382 458L351 394Q341 398 332 400T309 402Q271 402 233 374T154 297L90 0H13ZM185 529L117 687H187L240 572H249L352 687H425L289 529H185Z" />
<glyph unicode="&#x15a;" glyph-name="Sacute" horiz-adv-x="508" d="M36 91Q64 78 105 67T195 55Q232 55 264 64T318 89T354 129T367 182Q367 212 352 231T317 263Q283 284 246 299T169 337Q131 357 109 390T86 465Q86 519 106 557T160 621T242 657T343 669Q397
669 440 660T519 635L487 573Q461 585 424 594T336 604Q261 604 215 573T168 482Q168 451 183 432T220 401Q251 382 290 366T368 327Q404 307 425 275T447 198Q447 144 427 105T372 40T289 2T188 -11Q133 -11 87 0T3 29L36 91ZM547 887L391 729H312L459 887H547Z"
/>
<glyph unicode="&#x15b;" glyph-name="sacute" horiz-adv-x="424" d="M30 77Q64 63 94 57T165 50Q182 50 201 52T237 63T263 86T274 127Q274 161 232 181Q210 193 183 203T134 224Q97 242 78 265T58 318Q58 363 77 392T127 438T193 462T265 469Q313 469 347 461T402
444L377 387Q354 396 323 402T255 409Q197 409 167 387T136 334Q136 312 149 301T184 279Q194 275 207 269T235 257T262 245T285 235Q313 221 332 198T352 143Q352 62 298 26T153 -11Q108 -11 73 -4T3 19L30 77ZM452 687L296 529H217L364 687H452Z" />
<glyph unicode="&#x15c;" glyph-name="Scircumflex" horiz-adv-x="508" d="M36 91Q64 78 105 67T195 55Q232 55 264 64T318 89T354 129T367 182Q367 212 352 231T317 263Q283 284 246 299T169 337Q131 357 109 390T86 465Q86 519 106 557T160 621T242 657T343
669Q397 669 440 660T519 635L487 573Q461 585 424 594T336 604Q261 604 215 573T168 482Q168 451 183 432T220 401Q251 382 290 366T368 327Q404 307 425 275T447 198Q447 144 427 105T372 40T289 2T188 -11Q133 -11 87 0T3 29L36 91ZM441 887L509 729H440L388
843H378L274 729H200L339 887H441Z" />
<glyph unicode="&#x15d;" glyph-name="scircumflex" horiz-adv-x="424" d="M30 77Q64 63 94 57T165 50Q182 50 201 52T237 63T263 86T274 127Q274 161 232 181Q210 193 183 203T134 224Q97 242 78 265T58 318Q58 363 77 392T127 438T193 462T265 469Q313 469 347
461T402 444L377 387Q354 396 323 402T255 409Q197 409 167 387T136 334Q136 312 149 301T184 279Q194 275 207 269T235 257T262 245T285 235Q313 221 332 198T352 143Q352 62 298 26T153 -11Q108 -11 73 -4T3 19L30 77ZM361 687L429 529H360L308 643H298L194 529H120L259
687H361Z" />
<glyph unicode="&#x15e;" glyph-name="Scedilla" horiz-adv-x="508" d="M36 91Q64 78 105 67T195 55Q232 55 264 64T318 89T354 129T367 182Q367 212 352 231T317 263Q283 284 246 299T169 337Q131 357 109 390T86 465Q86 519 106 557T160 621T242 657T343 669Q397
669 440 660T519 635L487 573Q461 585 424 594T336 604Q261 604 215 573T168 482Q168 451 183 432T220 401Q251 382 290 366T368 327Q404 307 425 275T447 198Q447 144 427 105T372 40T289 2T188 -11Q133 -11 87 0T3 29L36 91ZM72 -155Q86 -160 101 -164T136 -168Q174
-168 191 -155T208 -118Q208 -97 187 -89T117 -78L146 -29Q281 -34 281 -109Q281 -166 247 -195T132 -224Q104 -224 81 -219T42 -205L72 -155Z" />
<glyph unicode="&#x15f;" glyph-name="scedilla" horiz-adv-x="425" d="M31 77Q65 63 95 57T166 50Q183 50 202 52T238 63T264 86T275 127Q275 161 233 181Q211 193 184 203T135 224Q98 242 79 265T59 318Q59 363 78 392T128 438T194 462T266 469Q314 469 348
461T403 444L378 387Q355 396 324 402T256 409Q198 409 168 387T137 334Q137 312 150 301T185 279Q195 275 208 269T236 257T263 245T286 235Q314 221 333 198T353 143Q353 62 299 26T154 -11Q109 -11 74 -4T4 19L31 77ZM35 -155Q49 -160 64 -164T99 -168Q137 -168
154 -155T171 -118Q171 -97 150 -89T80 -78L109 -29Q244 -34 244 -109Q244 -166 210 -195T95 -224Q67 -224 44 -219T5 -205L35 -155Z" />
<glyph unicode="&#x160;" glyph-name="Scaron" horiz-adv-x="508" d="M36 91Q64 78 105 67T195 55Q232 55 264 64T318 89T354 129T367 182Q367 212 352 231T317 263Q283 284 246 299T169 337Q131 357 109 390T86 465Q86 519 106 557T160 621T242 657T343 669Q397
669 440 660T519 635L487 573Q461 585 424 594T336 604Q261 604 215 573T168 482Q168 451 183 432T220 401Q251 382 290 366T368 327Q404 307 425 275T447 198Q447 144 427 105T372 40T289 2T188 -11Q133 -11 87 0T3 29L36 91ZM300 729L232 887H302L355 772H364L467
887H540L404 729H300Z" />
<glyph unicode="&#x161;" glyph-name="scaron" horiz-adv-x="424" d="M30 77Q64 63 94 57T165 50Q182 50 201 52T237 63T263 86T274 127Q274 161 232 181Q210 193 183 203T134 224Q97 242 78 265T58 318Q58 363 77 392T127 438T193 462T265 469Q313 469 347 461T402
444L377 387Q354 396 323 402T255 409Q197 409 167 387T136 334Q136 312 149 301T184 279Q194 275 207 269T235 257T262 245T285 235Q313 221 332 198T352 143Q352 62 298 26T153 -11Q108 -11 73 -4T3 19L30 77ZM216 529L148 687H218L271 572H280L383 687H456L320
529H216Z" />
<glyph unicode="&#x162;" glyph-name="uni0162" horiz-adv-x="483" d="M561 659L547 594H349L223 0H144L270 594H73L87 659H561ZM64 -155Q78 -160 93 -164T128 -168Q166 -168 183 -155T200 -118Q200 -97 179 -89T109 -78L138 -29Q273 -34 273 -109Q273 -166 239
-195T124 -224Q96 -224 73 -219T34 -205L64 -155Z" />
<glyph unicode="&#x163;" glyph-name="uni0163" horiz-adv-x="366" d="M300 11Q273 0 245 -5T181 -11Q65 -11 65 95Q65 107 67 120T71 146L125 396H50L62 450L138 458L160 554L237 567L214 458H379L366 398H201L154 174Q151 158 148 141T145 107Q145 80 159 66T212
52Q233 52 253 56T295 66L300 11ZM32 -155Q46 -160 61 -164T96 -168Q134 -168 151 -155T168 -118Q168 -97 147 -89T77 -78L106 -29Q241 -34 241 -109Q241 -166 207 -195T92 -224Q64 -224 41 -219T2 -205L32 -155Z" />
<glyph unicode="&#x164;" glyph-name="Tcaron" horiz-adv-x="483" d="M561 659L547 594H349L223 0H144L270 594H73L87 659H561ZM286 729L218 887H288L341 772H350L453 887H526L390 729H286Z" />
<glyph unicode="&#x165;" glyph-name="tcaron" horiz-adv-x="363" d="M346 519H289L355 687H435L346 519ZM300 11Q273 0 245 -5T181 -11Q65 -11 65 95Q65 107 67 120T71 146L125 396H50L62 450L138 458L160 554L237 567L214 458H379L366 398H201L154 174Q151 158
148 141T145 107Q145 80 159 66T212 52Q233 52 253 56T295 66L300 11Z" />
<glyph unicode="&#x166;" glyph-name="Tbar" horiz-adv-x="483" d="M561 659L547 594H349L301 369H470L456 304H287L223 0H144L208 304H48L62 369H222L270 594H73L87 659H561Z" />
<glyph unicode="&#x167;" glyph-name="tbar" horiz-adv-x="366" d="M300 11Q273 0 245 -5T181 -11Q65 -11 65 95Q65 107 67 120T71 146L85 211H13L26 272H98L125 396H50L62 450L138 458L160 554L237 567L214 458H379L366 398H201L174 272H338L325 211H162L154
174Q151 158 148 141T145 107Q145 80 159 66T212 52Q233 52 253 56T295 66L300 11Z" />
<glyph unicode="&#x168;" glyph-name="Utilde" horiz-adv-x="616" d="M626 659L538 246Q523 178 499 129T438 49T354 4T244 -11Q120 -11 80 58T69 260L154 659H233L144 236Q135 195 135 162T147 104T184 67T253 54Q342 54 390 100T460 253L547 659H626ZM574 798Q553
783 525 773T468 762Q448 762 433 767T405 779T378 790T349 796Q328 796 311 789T276 771L255 820Q275 834 303 845T358 856Q378 856 393 851T422 840T449 828T478 823Q498 823 517 830T553 847L574 798Z" />
<glyph unicode="&#x169;" glyph-name="utilde" horiz-adv-x="494" d="M180 458L120 180Q112 140 112 116Q112 51 175 51Q238 51 318 126L389 458H467L399 141L378 0H313L315 58Q277 26 234 8T148 -11Q83 -11 58 18T32 97Q32 114 34 132T40 168L102 458H180ZM468
598Q447 583 419 573T362 562Q342 562 327 567T299 579T272 590T243 596Q222 596 205 589T170 571L149 620Q169 634 197 645T252 656Q272 656 287 651T316 640T343 628T372 623Q392 623 411 630T447 647L468 598Z" />
<glyph unicode="&#x16a;" glyph-name="Umacron" horiz-adv-x="616" d="M626 659L538 246Q523 178 499 129T438 49T354 4T244 -11Q120 -11 80 58T69 260L154 659H233L144 236Q135 195 135 162T147 104T184 67T253 54Q342 54 390 100T460 253L547 659H626ZM544 775H273L287
837H557L544 775Z" />
<glyph unicode="&#x16b;" glyph-name="umacron" horiz-adv-x="494" d="M180 458L120 180Q112 140 112 116Q112 51 175 51Q238 51 318 126L389 458H467L399 141L378 0H313L315 58Q277 26 234 8T148 -11Q83 -11 58 18T32 97Q32 114 34 132T40 168L102 458H180ZM449
575H178L192 637H462L449 575Z" />
<glyph unicode="&#x16c;" glyph-name="Ubreve" horiz-adv-x="616" d="M626 659L538 246Q523 178 499 129T438 49T354 4T244 -11Q120 -11 80 58T69 260L154 659H233L144 236Q135 195 135 162T147 104T184 67T253 54Q342 54 390 100T460 253L547 659H626ZM581 886Q568
808 526 766T406 724Q345 724 317 756T288 842Q288 853 289 864T293 886H354Q352 875 351 865T350 848Q350 816 365 798T415 780Q458 780 484 810T519 886H581Z" />
<glyph unicode="&#x16d;" glyph-name="ubreve" horiz-adv-x="494" d="M180 458L120 180Q112 140 112 116Q112 51 175 51Q238 51 318 126L389 458H467L399 141L378 0H313L315 58Q277 26 234 8T148 -11Q83 -11 58 18T32 97Q32 114 34 132T40 168L102 458H180ZM471
687Q458 609 416 567T296 525Q235 525 207 557T178 643Q178 654 179 665T183 687H244Q242 676 241 666T240 649Q240 617 255 599T305 581Q348 581 374 611T409 687H471Z" />
<glyph unicode="&#x16e;" glyph-name="Uring" horiz-adv-x="616" d="M626 659L538 246Q523 178 499 129T438 49T354 4T244 -11Q120 -11 80 58T69 260L154 659H233L144 236Q135 195 135 162T147 104T184 67T253 54Q342 54 390 100T460 253L547 659H626ZM389 726Q349
726 329 748T308 799Q308 856 340 886T433 916Q472 916 491 894T511 842Q511 785 480 756T389 726ZM399 776Q424 776 440 789T456 834Q456 849 449 858T422 867Q386 867 375 849T364 808Q364 776 399 776Z" />
<glyph unicode="&#x16f;" glyph-name="uring" horiz-adv-x="494" d="M180 458L120 180Q112 140 112 116Q112 51 175 51Q238 51 318 126L389 458H467L399 141L378 0H313L315 58Q277 26 234 8T148 -11Q83 -11 58 18T32 97Q32 114 34 132T40 168L102 458H180ZM294
522Q254 522 234 544T213 595Q213 652 245 682T338 712Q377 712 396 690T416 638Q416 581 385 552T294 522ZM304 572Q329 572 345 585T361 630Q361 645 354 654T327 663Q291 663 280 645T269 604Q269 572 304 572Z" />
<glyph unicode="&#x170;" glyph-name="Uhungarumlaut" horiz-adv-x="614" d="M626 659L538 246Q523 178 499 129T438 49T354 4T244 -11Q120 -11 80 58T69 260L154 659H233L144 236Q135 195 135 162T147 104T184 67T253 54Q342 54 390 100T460 253L547 659H626ZM399
887H485L328 729H254L399 887ZM517 729H444L589 887H674L517 729Z" />
<glyph unicode="&#x171;" glyph-name="uhungarumlaut" horiz-adv-x="494" d="M180 458L120 180Q112 140 112 116Q112 51 175 51Q238 51 318 126L389 458H467L399 141L378 0H313L315 58Q277 26 234 8T148 -11Q83 -11 58 18T32 97Q32 114 34 132T40 168L102 458H180ZM299
687H385L228 529H154L299 687ZM417 529H344L489 687H574L417 529Z" />
<glyph unicode="&#x172;" glyph-name="Uogonek" horiz-adv-x="616" d="M626 659L538 246Q517 149 477 92T372 10Q355 2 335 -8T291 -35Q260 -56 245 -76T229 -128Q229 -145 238 -155T269 -166Q296 -166 322 -157L325 -208Q309 -213 286 -217T239 -222Q191 -222
170 -204T149 -152Q149 -128 155 -109T173 -74T206 -42T253 -11H244Q120 -11 80 58T69 260L154 659H233L144 236Q135 195 135 162T147 104T184 67T253 54Q342 54 390 100T460 253L547 659H626Z" />
<glyph unicode="&#x173;" glyph-name="uogonek" horiz-adv-x="494" d="M345 -208Q329 -213 307 -217T260 -222Q212 -222 191 -204T169 -153Q169 -108 192 -76T274 -11Q283 -6 293 -1T313 9L315 58Q277 26 234 8T148 -11Q83 -11 58 18T32 97Q32 114 34 132T40 168L102
458H180L120 180Q112 140 112 116Q112 51 175 51Q238 51 318 126L389 458H467L399 141L378 0Q358 -11 343 -20T313 -39Q277 -64 263 -84T248 -131Q248 -166 288 -166Q316 -166 342 -157L345 -208Z" />
<glyph unicode="&#x174;" glyph-name="Wcircumflex" horiz-adv-x="900" d="M658 0H537L523 595H515L259 0H138L96 659H179L206 64H214L468 659H593L606 64H614L879 659H963L658 0ZM625 887L693 729H624L572 843H562L458 729H384L523 887H625Z" />
<glyph unicode="&#x175;" glyph-name="wcircumflex" horiz-adv-x="686" d="M377 0L375 399H366L197 0H83L58 458H135L149 60H158L324 458H439L442 60H451L632 458H711L491 0H377ZM472 687L540 529H471L419 643H409L305 529H231L370 687H472Z" />
<glyph unicode="&#x176;" glyph-name="Ycircumflex" horiz-adv-x="529" d="M245 0H167L230 278Q212 320 193 370T153 470T114 569T79 659H164L275 357H284L521 659H609L305 277L245 0ZM450 887L518 729H449L397 843H387L283 729H209L348 887H450Z" />
<glyph unicode="&#x177;" glyph-name="ycircumflex" horiz-adv-x="443" d="M-55 -162Q-40 -166 -24 -166Q11 -166 33 -152T69 -122Q77 -114 86 -100T105 -70T124 -36T141 -5L57 458H136L191 94H199L390 458H470L203 -30Q178 -77 156 -113T107 -174T48 -212T-30
-225Q-40 -225 -51 -224T-73 -220L-55 -162ZM373 687L441 529H372L320 643H310L206 529H132L271 687H373Z" />
<glyph unicode="&#x178;" glyph-name="Ydieresis" horiz-adv-x="574" d="M269 0H191L254 278Q236 320 217 370T177 470T138 569T103 659H188L299 357H308L545 659H633L329 277L269 0ZM330 760H253L272 842H348L330 760ZM500 760H424L442 842H518L500 760Z" />
<glyph unicode="&#x179;" glyph-name="Zacute" horiz-adv-x="550" d="M98 65H460L446 0H-14L-4 53L471 594H132L145 659H584L573 606L98 65ZM596 887L440 729H361L508 887H596Z" />
<glyph unicode="&#x17a;" glyph-name="zacute" horiz-adv-x="438" d="M-5 0L5 51L354 398H89L102 458H463L452 407L104 61H380L367 0H-5ZM490 687L334 529H255L402 687H490Z" />
<glyph unicode="&#x17b;" glyph-name="Zdotaccent" horiz-adv-x="550" d="M98 65H460L446 0H-14L-4 53L471 594H132L145 659H584L573 606L98 65ZM428 760H350L368 842H445L428 760Z" />
<glyph unicode="&#x17c;" glyph-name="zdotaccent" horiz-adv-x="438" d="M-5 0L5 51L354 398H89L102 458H463L452 407L104 61H380L367 0H-5ZM341 565H263L281 647H358L341 565Z" />
<glyph unicode="&#x17d;" glyph-name="Zcaron" horiz-adv-x="550" d="M98 65H460L446 0H-14L-4 53L471 594H132L145 659H584L573 606L98 65ZM344 729L276 887H346L399 772H408L511 887H584L448 729H344Z" />
<glyph unicode="&#x17e;" glyph-name="zcaron" horiz-adv-x="438" d="M-5 0L5 51L354 398H89L102 458H463L452 407L104 61H380L367 0H-5ZM240 529L172 687H242L295 572H304L407 687H480L344 529H240Z" />
<glyph unicode="&#x192;" glyph-name="florin" horiz-adv-x="385" d="M118 -48Q97 -145 49 -185T-76 -225Q-94 -225 -112 -223T-146 -216L-121 -154Q-109 -158 -96 -161T-66 -164Q-23 -164 2 -137T42 -43L116 302H48L60 362H129L159 505Q170 556 189 590T234 646T292
675T360 684Q385 684 408 679T450 667L420 609Q390 621 350 621Q299 621 274 592T235 500L206 362H361L348 302H194L118 -48Z" />
<glyph unicode="&#x1a0;" glyph-name="Ohorn" horiz-adv-x="633" d="M266 -11Q154 -11 98 49T42 226Q42 311 63 390T128 532T237 631T390 669Q535 669 587 565Q630 613 644 673H710Q701 630 677 596Q666 582 652 567T618 534L595 544Q604 520 609 492T614 432Q614
348 593 268T528 126T419 27T266 -11ZM382 606Q322 606 275 577T194 496T143 375T125 226Q125 145 163 99T273 53Q333 53 380 82T461 163T513 283T531 433Q531 514 493 560T382 606Z" />
<glyph unicode="&#x1a1;" glyph-name="ohorn" horiz-adv-x="502" d="M196 -11Q111 -11 70 33T28 158Q28 221 45 277T95 376T176 444T289 469Q354 469 393 443T447 367Q488 413 502 472H567Q562 450 554 431T533 395Q514 365 475 334L453 343Q457 324 457 299Q457
236 440 180T390 81T309 14T196 -11ZM205 48Q247 48 279 68T334 122T367 201T378 297Q378 320 373 341T357 377T327 402T281 411Q238 411 205 391T150 336T117 256T106 161Q106 137 111 117T127 81T158 57T205 48Z" />
<glyph unicode="&#x1af;" glyph-name="Uhorn" horiz-adv-x="616" d="M626 659L606 564Q650 611 664 673H730Q721 630 697 596Q686 582 672 567T638 534L603 550L538 246Q523 178 499 129T438 49T354 4T244 -11Q120 -11 80 58T69 260L154 659H233L144 236Q135 195
135 162T147 104T184 67T253 54Q342 54 390 100T460 253L547 659H626Z" />
<glyph unicode="&#x1b0;" glyph-name="uhorn" horiz-adv-x="494" d="M180 458L120 180Q112 140 112 116Q112 51 175 51Q238 51 318 126L389 458H467L447 367Q488 413 502 472H567Q562 450 554 431T533 395Q514 365 475 334L443 347L399 141L378 0H313L315 58Q277
26 234 8T148 -11Q83 -11 58 18T32 97Q32 114 34 132T40 168L102 458H180Z" />
<glyph unicode="&#x1fa;" glyph-name="Aringacute" horiz-adv-x="595" d="M446 0L420 192H146L42 0H-47L313 646Q292 667 301 706Q316 781 402 781Q445 781 461 761T470 706Q461 667 434 648L530 0H446ZM182 259H412L369 594H361L182 259ZM557 943L434 822H377L492
943H557ZM380 678Q408 678 414 706Q420 733 391 733Q375 733 368 727T357 706Q351 678 380 678Z" />
<glyph unicode="&#x1fb;" glyph-name="aringacute" horiz-adv-x="497" d="M452 792L329 670H272L387 792H452ZM278 492Q234 492 218 513T209 569Q225 644 310 644Q353 644 369 624T378 569Q370 532 345 512T278 492ZM288 541Q316 541 322 569Q328 596 300 596Q271
596 265 569Q259 541 288 541ZM312 53Q281 22 244 6T158 -11Q92 -11 60 28T28 134Q28 209 46 270T95 376T171 445T268 469Q341 469 391 435L402 458H464L389 120L373 0H313L312 53ZM186 48Q217 48 247 62T310 105L369 383Q348 399 325 406T283 413Q239 413 206
391T151 333T119 248T108 147Q108 101 126 75T186 48Z" />
<glyph unicode="&#x1fc;" glyph-name="AEacute" horiz-adv-x="899" d="M791 65L777 0H413L444 192H190L40 0H-50L472 659H909L895 594H589L554 373H835L822 307H543L503 65H791ZM502 594L242 259H455L510 594H502ZM681 887L525 729H446L593 887H681Z" />
<glyph unicode="&#x1fd;" glyph-name="aeacute" horiz-adv-x="746" d="M132 -11Q68 -11 39 20T9 101Q9 148 24 179T68 230T137 258T226 266Q253 266 280 265T322 262Q326 281 330 303T335 346Q335 380 315 394T247 408Q210 408 172 399T104 375L95 429Q133 446
178 457T275 469Q326 469 358 452T400 400Q431 431 475 450T571 469Q637 469 675 442T713 362Q713 313 685 282T614 232T517 207T412 200H388Q386 192 386 181T386 161Q386 104 413 77T503 50Q549 50 588 61T654 84L663 31Q634 16 585 3T479 -11Q427 -11 388 6T328
66Q312 53 293 40T249 15T196 -4T132 -11ZM308 157Q308 169 308 181T310 206Q295 207 268 208T212 210Q177 210 154 203T116 183T97 153T91 115Q91 48 162 48Q199 48 238 68T310 117Q309 127 309 136T308 157ZM561 411Q522 411 494 399T446 365T414 315T394 255H418Q455
255 494 259T564 274T615 303T635 351Q635 381 615 396T561 411ZM420 687L264 529H185L332 687H420Z" />
<glyph unicode="&#x1fe;" glyph-name="Oslashacute" horiz-adv-x="633" d="M-12 10L68 95Q42 149 42 226Q42 311 63 390T128 532T237 631T390 669Q496 669 552 610L625 688L668 651L586 564Q614 511 614 432Q614 348 593 268T528 126T419 27T266 -11Q158 -11 103
49L31 -28L-12 10ZM273 52Q333 52 381 81T462 162T514 283T533 433Q533 465 524 497L157 106Q194 52 273 52ZM123 226Q123 190 131 161L498 552Q464 607 382 607Q323 607 275 577T194 496T142 375T123 226ZM631 887L475 729H396L543 887H631Z" />
<glyph unicode="&#x1ff;" glyph-name="oslashacute" horiz-adv-x="504" d="M-16 15L42 73Q29 106 29 155Q29 226 46 284T98 383T184 446T302 469Q373 469 411 433L464 485L506 444L446 385Q453 367 455 347T458 302Q458 237 444 180T397 81T313 13T186 -12Q117
-12 79 25L25 -28L-16 15ZM287 412Q247 412 214 395T157 345T120 269T107 172Q107 161 107 153T109 136L360 381Q340 412 287 412ZM199 47Q245 47 279 66T335 118T369 194T380 286Q380 296 380 304T378 322L130 78Q151 47 199 47ZM498 687L342 529H263L410 687H498Z"
/>
<glyph unicode="&#x218;" glyph-name="uni0218" horiz-adv-x="496" d="M36 91Q64 78 105 67T195 55Q232 55 264 64T318 89T354 129T367 182Q367 212 352 231T317 263Q283 284 246 299T169 337Q131 357 109 390T86 465Q86 519 106 557T160 621T242 657T343 669Q397
669 440 660T519 635L487 573Q461 585 424 594T336 604Q261 604 215 573T168 482Q168 451 183 432T220 401Q251 382 290 366T368 327Q404 307 425 275T447 198Q447 144 427 105T372 40T289 2T188 -11Q133 -11 87 0T3 29L36 91ZM85 -230Q123 -192 143 -149T174 -56H245Q232
-122 203 -172T125 -265L85 -230Z" />
<glyph unicode="&#x219;" glyph-name="uni0219" horiz-adv-x="424" d="M30 77Q64 63 94 57T165 50Q182 50 201 52T237 63T263 86T274 127Q274 161 232 181Q210 193 183 203T134 224Q97 242 78 265T58 318Q58 363 77 392T127 438T193 462T265 469Q313 469 347 461T402
444L377 387Q354 396 323 402T255 409Q197 409 167 387T136 334Q136 312 149 301T184 279Q194 275 207 269T235 257T262 245T285 235Q313 221 332 198T352 143Q352 62 298 26T153 -11Q108 -11 73 -4T3 19L30 77ZM41 -230Q79 -192 99 -149T130 -56H201Q188 -122
159 -172T81 -265L41 -230Z" />
<glyph unicode="&#x21a;" glyph-name="uni021A" horiz-adv-x="483" d="M561 659L547 594H349L223 0H144L270 594H73L87 659H561ZM45 -228Q83 -190 103 -147T134 -54H205Q192 -120 163 -170T85 -263L45 -228Z" />
<glyph unicode="&#x21b;" glyph-name="uni021B" horiz-adv-x="366" d="M300 11Q273 0 245 -5T181 -11Q65 -11 65 95Q65 107 67 120T71 146L125 396H50L62 450L138 458L160 554L237 567L214 458H379L366 398H201L154 174Q151 158 148 141T145 107Q145 80 159 66T212
52Q233 52 253 56T295 66L300 11ZM20 -228Q58 -190 78 -147T109 -54H180Q167 -120 138 -170T60 -263L20 -228Z" />
<glyph unicode="&#x2c6;" glyph-name="circumflex" horiz-adv-x="519" d="M401 687L469 529H400L348 643H338L234 529H160L299 687H401Z" />
<glyph unicode="&#x2c7;" glyph-name="caron" horiz-adv-x="519" d="M263 529L195 687H265L318 572H327L430 687H503L367 529H263Z" />
<glyph unicode="&#x2d8;" glyph-name="breve" horiz-adv-x="519" d="M492 687Q479 609 437 567T317 525Q256 525 228 557T199 643Q199 654 200 665T204 687H265Q263 676 262 666T261 649Q261 617 276 599T326 581Q369 581 395 611T430 687H492Z" />
<glyph unicode="&#x2d9;" glyph-name="dotaccent" horiz-adv-x="519" d="M362 565H284L302 647H379L362 565Z" />
<glyph unicode="&#x2da;" glyph-name="ring" horiz-adv-x="519" d="M308 522Q268 522 248 544T227 595Q227 652 259 682T352 712Q391 712 410 690T430 638Q430 581 399 552T308 522ZM318 572Q343 572 359 585T375 630Q375 645 368 654T341 663Q305 663 294 645T283
604Q283 572 318 572Z" />
<glyph unicode="&#x2db;" glyph-name="ogonek" horiz-adv-x="430" d="M201 -208Q185 -213 163 -217T116 -222Q68 -222 47 -204T25 -153Q25 -108 48 -76T130 -11Q152 1 175 11T224 32L234 0Q214 -11 199 -20T169 -39Q133 -64 119 -84T104 -131Q104 -166 144 -166Q172
-166 198 -157L201 -208Z" />
<glyph unicode="&#x2dc;" glyph-name="tilde" horiz-adv-x="519" d="M485 598Q464 583 436 573T379 562Q359 562 344 567T316 579T289 590T260 596Q239 596 222 589T187 571L166 620Q186 634 214 645T269 656Q289 656 304 651T333 640T360 628T389 623Q409 623
428 630T464 647L485 598Z" />
<glyph unicode="&#x2dd;" glyph-name="hungarumlaut" horiz-adv-x="515" d="M160 687H246L89 529H15L160 687ZM278 529H205L350 687H435L278 529Z" />
<glyph unicode="&#x3a9;" glyph-name="Omega" horiz-adv-x="640" d="M31 62H150Q130 72 111 97T79 158T62 239T69 336Q86 418 112 480T177 585T273 648T408 669Q471 669 519 648T596 585T634 481T625 336Q614 285 596 241T553 162T502 102T448 62H547L534 0H332L348
77Q367 77 395 93T452 141T507 222T547 336Q559 390 558 439T539 524T486 583T394 605Q330 605 288 583T219 525T175 439T147 336Q133 271 138 222T158 141T195 93T236 77L220 0H18L31 62Z" />
<glyph unicode="&#x3c0;" glyph-name="pi" horiz-adv-x="630" d="M470 379L411 102Q406 77 413 69T444 60H492L480 0H411Q360 0 344 26T339 107L397 379H251L171 0H100L180 379H70L83 439H613L600 379H470Z" />
<glyph unicode="&#x1e80;" glyph-name="Wgrave" horiz-adv-x="900" d="M658 0H537L523 595H515L259 0H138L96 659H179L206 64H214L468 659H593L606 64H614L879 659H963L658 0ZM523 887L603 729H530L438 887H523Z" />
<glyph unicode="&#x1e81;" glyph-name="wgrave" horiz-adv-x="686" d="M377 0L375 399H366L197 0H83L58 458H135L149 60H158L324 458H439L442 60H451L632 458H711L491 0H377ZM370 687L450 529H377L285 687H370Z" />
<glyph unicode="&#x1e82;" glyph-name="Wacute" horiz-adv-x="900" d="M658 0H537L523 595H515L259 0H138L96 659H179L206 64H214L468 659H593L606 64H614L879 659H963L658 0ZM691 887L535 729H456L603 887H691Z" />
<glyph unicode="&#x1e83;" glyph-name="wacute" horiz-adv-x="686" d="M377 0L375 399H366L197 0H83L58 458H135L149 60H158L324 458H439L442 60H451L632 458H711L491 0H377ZM552 687L396 529H317L464 687H552Z" />
<glyph unicode="&#x1e84;" glyph-name="Wdieresis" horiz-adv-x="900" d="M658 0H537L523 595H515L259 0H138L96 659H179L206 64H214L468 659H593L606 64H614L879 659H963L658 0ZM506 765H429L448 847H524L506 765ZM676 765H600L618 847H694L676 765Z" />
<glyph unicode="&#x1e85;" glyph-name="wdieresis" horiz-adv-x="686" d="M377 0L375 399H366L197 0H83L58 458H135L149 60H158L324 458H439L442 60H451L632 458H711L491 0H377ZM351 565H274L293 647H369L351 565ZM521 565H445L463 647H539L521 565Z" />
<glyph unicode="&#x1ea0;" glyph-name="uni1EA0" horiz-adv-x="595" d="M268 -88H203L217 -21H282L268 -88ZM446 0L420 192H146L42 0H-47L320 659H433L530 0H446ZM182 259H412L369 594H361L182 259Z" />
<glyph unicode="&#x1ea1;" glyph-name="uni1EA1" horiz-adv-x="497" d="M312 53Q281 22 244 6T158 -11Q92 -11 60 28T28 134Q28 209 46 270T95 376T171 445T268 469Q341 469 391 435L402 458H464L389 120L373 0H313L312 53ZM186 48Q217 48 247 62T310 105L369
383Q348 399 325 406T283 413Q239 413 206 391T151 333T119 248T108 147Q108 101 126 75T186 48ZM208 -114H143L157 -46H222L208 -114Z" />
<glyph unicode="&#x1ea2;" glyph-name="uni1EA2" horiz-adv-x="595" d="M363 732L369 758Q373 778 382 790T407 816Q416 825 424 831T434 848Q435 854 431 858T415 863Q403 863 392 859T366 846L358 886Q390 907 427 907Q494 907 482 848Q477 825 463 811T432
784Q420 774 417 767T413 754L408 732H363ZM446 0L420 192H146L42 0H-47L320 659H433L530 0H446ZM182 259H412L369 594H361L182 259Z" />
<glyph unicode="&#x1ea3;" glyph-name="uni1EA3" horiz-adv-x="497" d="M312 53Q281 22 244 6T158 -11Q92 -11 60 28T28 134Q28 209 46 270T95 376T171 445T268 469Q341 469 391 435L402 458H464L389 120L373 0H313L312 53ZM186 48Q217 48 247 62T310 105L369
383Q348 399 325 406T283 413Q239 413 206 391T151 333T119 248T108 147Q108 101 126 75T186 48ZM261 519L267 545Q271 565 280 577T305 603Q314 612 322 618T332 635Q333 641 329 645T313 650Q301 650 290 646T264 633L256 673Q288 694 325 694Q392 694 380 635Q375
612 361 598T330 571Q318 561 315 554T311 541L306 519H261Z" />
<glyph unicode="&#x1ea4;" glyph-name="uni1EA4" horiz-adv-x="595" d="M666 916L544 795H486L601 916H666ZM447 827L498 717H432L405 784H399L341 717H277L375 827H447ZM446 0L420 192H146L42 0H-47L320 659H433L530 0H446ZM182 259H412L369 594H361L182 259Z" />
<glyph unicode="&#x1ea5;" glyph-name="uni1EA5" horiz-adv-x="497" d="M572 712L448 592H392L507 712H572ZM347 627L399 516H332L305 583H298L240 516H176L275 627H347ZM312 53Q281 22 244 6T158 -11Q92 -11 60 28T28 134Q28 209 46 270T95 376T171 445T268 469Q341
469 391 435L402 458H464L389 120L373 0H313L312 53ZM186 48Q217 48 247 62T310 105L369 383Q348 399 325 406T283 413Q239 413 206 391T151 333T119 248T108 147Q108 101 126 75T186 48Z" />
<glyph unicode="&#x1ea6;" glyph-name="uni1EA6" horiz-adv-x="595" d="M500 913L563 792H506L434 913H500ZM447 827L498 717H432L405 784H399L341 717H277L375 827H447ZM446 0L420 192H146L42 0H-47L320 659H433L530 0H446ZM182 259H412L369 594H361L182 259Z" />
<glyph unicode="&#x1ea7;" glyph-name="uni1EA7" horiz-adv-x="497" d="M397 723L462 603H405L332 723H397ZM347 627L399 516H332L305 583H298L240 516H176L275 627H347ZM312 53Q281 22 244 6T158 -11Q92 -11 60 28T28 134Q28 209 46 270T95 376T171 445T268 469Q341
469 391 435L402 458H464L389 120L373 0H313L312 53ZM186 48Q217 48 247 62T310 105L369 383Q348 399 325 406T283 413Q239 413 206 391T151 333T119 248T108 147Q108 101 126 75T186 48Z" />
<glyph unicode="&#x1ea8;" glyph-name="uni1EA8" horiz-adv-x="595" d="M447 827L498 717H432L405 784H399L341 717H277L375 827H447ZM489 791L494 817Q499 837 508 849T532 875Q542 884 549 890T559 907Q561 913 556 917T540 922Q528 922 517 918T492 905L483
945Q515 966 553 966Q621 966 607 907Q602 884 588 870T558 843Q546 833 543 826T538 813L534 791H489ZM446 0L420 192H146L42 0H-47L320 659H433L530 0H446ZM182 259H412L369 594H361L182 259Z" />
<glyph unicode="&#x1ea9;" glyph-name="uni1EA9" horiz-adv-x="497" d="M347 627L399 516H332L305 583H298L240 516H176L275 627H347ZM384 592L388 608Q392 628 401 640T426 666Q436 675 443 681T453 698Q455 704 450 708T434 713Q422 713 411 709T385 696L377
736Q409 757 446 757Q513 757 501 698Q496 675 482 661T451 634Q439 624 436 617T432 604L429 592H384ZM312 53Q281 22 244 6T158 -11Q92 -11 60 28T28 134Q28 209 46 270T95 376T171 445T268 469Q341 469 391 435L402 458H464L389 120L373 0H313L312 53ZM186 48Q217
48 247 62T310 105L369 383Q348 399 325 406T283 413Q239 413 206 391T151 333T119 248T108 147Q108 101 126 75T186 48Z" />
<glyph unicode="&#x1eaa;" glyph-name="uni1EAA" horiz-adv-x="595" d="M323 882Q363 915 403 915Q416 915 426 911T445 902T464 893T487 889Q504 889 517 894T548 909L557 872Q519 841 477 841Q464 841 454 845T435 853T415 862T392 866Q370 866 333 846L323
882ZM447 827L498 717H432L405 784H399L341 717H277L375 827H447ZM446 0L420 192H146L42 0H-47L320 659H433L530 0H446ZM182 259H412L369 594H361L182 259Z" />
<glyph unicode="&#x1eab;" glyph-name="uni1EAB" horiz-adv-x="497" d="M347 627L399 516H332L305 583H298L240 516H176L275 627H347ZM221 683Q260 716 301 716Q314 716 324 712T343 703T362 694T385 690Q402 690 415 695T445 710L455 673Q417 642 375 642Q362
642 352 646T332 654T312 663T289 667Q268 667 231 647L221 683ZM312 53Q281 22 244 6T158 -11Q92 -11 60 28T28 134Q28 209 46 270T95 376T171 445T268 469Q341 469 391 435L402 458H464L389 120L373 0H313L312 53ZM186 48Q217 48 247 62T310 105L369 383Q348
399 325 406T283 413Q239 413 206 391T151 333T119 248T108 147Q108 101 126 75T186 48Z" />
<glyph unicode="&#x1eac;" glyph-name="uni1EAC" horiz-adv-x="595" d="M446 0L420 192H146L42 0H-47L320 659H433L530 0H446ZM182 259H412L369 594H361L182 259ZM447 827L498 717H432L405 784H399L341 717H277L375 827H447ZM268 -88H203L217 -21H282L268 -88Z" />
<glyph unicode="&#x1ead;" glyph-name="uni1EAD" horiz-adv-x="497" d="M312 53Q281 22 244 6T158 -11Q92 -11 60 28T28 134Q28 209 46 270T95 376T171 445T268 469Q341 469 391 435L402 458H464L389 120L373 0H313L312 53ZM186 48Q217 48 247 62T310 105L369
383Q348 399 325 406T283 413Q239 413 206 391T151 333T119 248T108 147Q108 101 126 75T186 48ZM208 -114H143L157 -46H222L208 -114ZM347 627L399 516H332L305 583H298L240 516H176L275 627H347Z" />
<glyph unicode="&#x1eae;" glyph-name="uni1EAE" horiz-adv-x="595" d="M560 943L437 822H380L495 943H560ZM383 715Q338 715 318 741T302 813L350 814Q347 763 394 763Q439 763 460 814L507 815Q492 767 462 741T383 715ZM446 0L420 192H146L42 0H-47L320 659H433L530
0H446ZM182 259H412L369 594H361L182 259Z" />
<glyph unicode="&#x1eaf;" glyph-name="uni1EAF" horiz-adv-x="497" d="M449 732L326 610H269L384 732H449ZM281 512Q235 512 215 537T200 609L248 610Q246 559 291 559Q338 559 358 610L404 611Q390 563 360 538T281 512ZM312 53Q281 22 244 6T158 -11Q92 -11
60 28T28 134Q28 209 46 270T95 376T171 445T268 469Q341 469 391 435L402 458H464L389 120L373 0H313L312 53ZM186 48Q217 48 247 62T310 105L369 383Q348 399 325 406T283 413Q239 413 206 391T151 333T119 248T108 147Q108 101 126 75T186 48Z" />
<glyph unicode="&#x1eb0;" glyph-name="uni1EB0" horiz-adv-x="595" d="M387 943L450 822H394L322 943H387ZM383 715Q338 715 318 741T302 813L350 814Q347 763 394 763Q439 763 460 814L507 815Q492 767 462 741T383 715ZM446 0L420 192H146L42 0H-47L320 659H433L530
0H446ZM182 259H412L369 594H361L182 259Z" />
<glyph unicode="&#x1eb1;" glyph-name="uni1EB1" horiz-adv-x="497" d="M276 733L339 611H282L211 733H276ZM281 512Q236 512 216 537T200 609L248 610Q246 559 291 559Q338 559 358 610L404 611Q390 563 360 538T281 512ZM312 53Q281 22 244 6T158 -11Q92 -11
60 28T28 134Q28 209 46 270T95 376T171 445T268 469Q341 469 391 435L402 458H464L389 120L373 0H313L312 53ZM186 48Q217 48 247 62T310 105L369 383Q348 399 325 406T283 413Q239 413 206 391T151 333T119 248T108 147Q108 101 126 75T186 48Z" />
<glyph unicode="&#x1eb2;" glyph-name="uni1EB2" horiz-adv-x="595" d="M383 715Q337 715 317 741T302 813L350 814Q347 763 394 763Q439 763 460 814L507 815Q492 767 461 741T383 715ZM389 812L395 838Q399 858 408 870T433 896Q443 905 450 911T460 928Q461
934 457 938T441 943Q429 943 418 939T392 926L384 966Q416 987 453 987Q520 987 508 928Q503 905 489 891T458 864Q446 854 443 847T439 834L434 812H389ZM446 0L420 192H146L42 0H-47L320 659H433L530 0H446ZM182 259H412L369 594H361L182 259Z" />
<glyph unicode="&#x1eb3;" glyph-name="uni1EB3" horiz-adv-x="497" d="M281 512Q236 512 216 537T200 609L248 610Q246 559 291 559Q338 559 358 610L404 611Q390 563 360 538T281 512ZM283 609L286 625Q291 645 300 657T325 683Q334 692 341 698T351 715Q353
721 349 725T333 730Q321 730 310 726T284 713L276 753Q290 763 307 768T345 774Q413 774 399 715Q394 692 380 678T350 651Q338 641 335 634T330 621L328 609H283ZM312 53Q281 22 244 6T158 -11Q92 -11 60 28T28 134Q28 209 46 270T95 376T171 445T268 469Q341
469 391 435L402 458H464L389 120L373 0H313L312 53ZM186 48Q217 48 247 62T310 105L369 383Q348 399 325 406T283 413Q239 413 206 391T151 333T119 248T108 147Q108 101 126 75T186 48Z" />
<glyph unicode="&#x1eb4;" glyph-name="uni1EB4" horiz-adv-x="595" d="M446 0L420 192H146L42 0H-47L320 659H433L530 0H446ZM182 259H412L369 594H361L182 259ZM323 882Q363 915 403 915Q416 915 426 911T445 902T464 893T487 889Q504 889 517 894T548 909L557
872Q519 841 477 841Q464 841 454 845T435 853T415 862T392 866Q370 866 333 846L323 882ZM383 715Q337 715 317 741T302 813L350 814Q347 763 394 763Q439 763 460 814L507 815Q492 767 461 741T383 715Z" />
<glyph unicode="&#x1eb5;" glyph-name="uni1EB5" horiz-adv-x="497" d="M312 53Q281 22 244 6T158 -11Q92 -11 60 28T28 134Q28 209 46 270T95 376T171 445T268 469Q341 469 391 435L402 458H464L389 120L373 0H313L312 53ZM186 48Q217 48 247 62T310 105L369
383Q348 399 325 406T283 413Q239 413 206 391T151 333T119 248T108 147Q108 101 126 75T186 48ZM281 512Q236 512 216 537T200 609L248 610Q246 559 291 559Q338 559 358 610L404 611Q390 563 360 538T281 512ZM221 683Q260 716 301 716Q314 716 324 712T343 703T362
694T385 690Q402 690 415 695T445 710L455 673Q417 642 375 642Q362 642 352 646T332 654T312 663T289 667Q268 667 231 647L221 683Z" />
<glyph unicode="&#x1eb6;" glyph-name="uni1EB6" horiz-adv-x="595" d="M446 0L420 192H146L42 0H-47L320 659H433L530 0H446ZM182 259H412L369 594H361L182 259ZM383 715Q337 715 317 741T302 813L350 814Q347 763 394 763Q439 763 460 814L507 815Q492 767 461
741T383 715ZM268 -88H203L217 -21H282L268 -88Z" />
<glyph unicode="&#x1eb7;" glyph-name="uni1EB7" horiz-adv-x="497" d="M312 53Q281 22 244 6T158 -11Q92 -11 60 28T28 134Q28 209 46 270T95 376T171 445T268 469Q341 469 391 435L402 458H464L389 120L373 0H313L312 53ZM186 48Q217 48 247 62T310 105L369
383Q348 399 325 406T283 413Q239 413 206 391T151 333T119 248T108 147Q108 101 126 75T186 48ZM281 512Q236 512 216 537T200 609L248 610Q246 559 291 559Q338 559 358 610L404 611Q390 563 360 538T281 512ZM208 -114H143L157 -46H222L208 -114Z" />
<glyph unicode="&#x1eb8;" glyph-name="uni1EB8" horiz-adv-x="519" d="M413 65L399 0H16L156 659H528L515 594H221L174 373H457L444 307H160L108 65H413ZM224 -114H159L173 -46H238L224 -114Z" />
<glyph unicode="&#x1eb9;" glyph-name="uni1EB9" horiz-adv-x="471" d="M388 31Q373 24 353 17T309 3T258 -7T204 -11Q167 -11 135 -2T80 28T43 81T29 160Q29 222 45 278T95 376T179 444T296 469Q362 469 400 439T438 354Q438 302 408 270T331 220T225 193T109
181V159Q109 104 136 77T227 49Q272 49 310 61T379 86L388 31ZM286 411Q244 411 214 396T164 356T133 300T116 236Q158 239 201 245T280 263T337 294T360 342Q360 376 339 393T286 411ZM208 -114H143L157 -46H222L208 -114Z" />
<glyph unicode="&#x1eba;" glyph-name="uni1EBA" horiz-adv-x="519" d="M413 65L399 0H16L156 659H528L515 594H221L174 373H457L444 307H160L108 65H413ZM323 732L329 758Q333 778 342 790T367 816Q376 825 384 831T394 848Q395 854 391 858T375 863Q363 863
352 859T326 846L318 886Q350 907 387 907Q454 907 442 848Q437 825 423 811T392 784Q380 774 377 767T373 754L368 732H323Z" />
<glyph unicode="&#x1ebb;" glyph-name="uni1EBB" horiz-adv-x="471" d="M388 31Q373 24 353 17T309 3T258 -7T204 -11Q167 -11 135 -2T80 28T43 81T29 160Q29 222 45 278T95 376T179 444T296 469Q362 469 400 439T438 354Q438 302 408 270T331 220T225 193T109
181V159Q109 104 136 77T227 49Q272 49 310 61T379 86L388 31ZM286 411Q244 411 214 396T164 356T133 300T116 236Q158 239 201 245T280 263T337 294T360 342Q360 376 339 393T286 411ZM261 519L267 545Q271 565 280 577T305 603Q314 612 322 618T332 635Q333 641
329 645T313 650Q301 650 290 646T264 633L256 673Q288 694 325 694Q392 694 380 635Q375 612 361 598T330 571Q318 561 315 554T311 541L306 519H261Z" />
<glyph unicode="&#x1ebc;" glyph-name="uni1EBC" horiz-adv-x="519" d="M246 765Q286 798 326 798Q339 798 349 794T368 785T388 776T411 772Q428 772 441 777T471 792L480 755Q443 724 400 724Q387 724 377 728T358 736T338 745T315 749Q293 749 256 729L246
765ZM413 65L399 0H16L156 659H528L515 594H221L174 373H457L444 307H160L108 65H413Z" />
<glyph unicode="&#x1ebd;" glyph-name="uni1EBD" horiz-adv-x="471" d="M171 567Q211 600 251 600Q264 600 274 596T293 587T313 578T336 574Q353 574 366 579T396 594L405 557Q367 526 325 526Q312 526 302 530T283 538T263 547T240 551Q218 551 181 531L171
567ZM388 31Q373 24 353 17T309 3T258 -7T204 -11Q167 -11 135 -2T80 28T43 81T29 160Q29 222 45 278T95 376T179 444T296 469Q362 469 400 439T438 354Q438 302 408 270T331 220T225 193T109 181V159Q109 104 136 77T227 49Q272 49 310 61T379 86L388 31ZM286
411Q244 411 214 396T164 356T133 300T116 236Q158 239 201 245T280 263T337 294T360 342Q360 376 339 393T286 411Z" />
<glyph unicode="&#x1ebe;" glyph-name="uni1EBE" horiz-adv-x="519" d="M413 65L399 0H16L156 659H528L515 594H221L174 373H457L444 307H160L108 65H413ZM629 916L507 795H449L564 916H629ZM410 827L461 717H395L368 784H362L304 717H240L338 827H410Z" />
<glyph unicode="&#x1ebf;" glyph-name="uni1EBF" horiz-adv-x="471" d="M388 31Q373 24 353 17T309 3T258 -7T204 -11Q167 -11 135 -2T80 28T43 81T29 160Q29 222 45 278T95 376T179 444T296 469Q362 469 400 439T438 354Q438 302 408 270T331 220T225 193T109
181V159Q109 104 136 77T227 49Q272 49 310 61T379 86L388 31ZM286 411Q244 411 214 396T164 356T133 300T116 236Q158 239 201 245T280 263T337 294T360 342Q360 376 339 393T286 411ZM572 712L448 592H392L507 712H572ZM347 627L399 516H332L305 583H298L240
516H176L275 627H347Z" />
<glyph unicode="&#x1ec0;" glyph-name="uni1EC0" horiz-adv-x="519" d="M413 65L399 0H16L156 659H528L515 594H221L174 373H457L444 307H160L108 65H413ZM463 913L526 792H469L397 913H463ZM410 827L461 717H395L368 784H362L304 717H240L338 827H410Z" />
<glyph unicode="&#x1ec1;" glyph-name="uni1EC1" horiz-adv-x="471" d="M388 31Q373 24 353 17T309 3T258 -7T204 -11Q167 -11 135 -2T80 28T43 81T29 160Q29 222 45 278T95 376T179 444T296 469Q362 469 400 439T438 354Q438 302 408 270T331 220T225 193T109
181V159Q109 104 136 77T227 49Q272 49 310 61T379 86L388 31ZM286 411Q244 411 214 396T164 356T133 300T116 236Q158 239 201 245T280 263T337 294T360 342Q360 376 339 393T286 411ZM397 723L462 603H405L332 723H397ZM347 627L399 516H332L305 583H298L240
516H176L275 627H347Z" />
<glyph unicode="&#x1ec2;" glyph-name="uni1EC2" horiz-adv-x="519" d="M413 65L399 0H16L156 659H528L515 594H221L174 373H457L444 307H160L108 65H413ZM410 827L461 717H395L368 784H362L304 717H240L338 827H410ZM452 791L457 817Q462 837 471 849T495 875Q505
884 512 890T522 907Q524 913 519 917T503 922Q491 922 480 918T455 905L446 945Q478 966 516 966Q584 966 570 907Q565 884 551 870T521 843Q509 833 506 826T501 813L497 791H452Z" />
<glyph unicode="&#x1ec3;" glyph-name="uni1EC3" horiz-adv-x="471" d="M388 31Q373 24 353 17T309 3T258 -7T204 -11Q167 -11 135 -2T80 28T43 81T29 160Q29 222 45 278T95 376T179 444T296 469Q362 469 400 439T438 354Q438 302 408 270T331 220T225 193T109
181V159Q109 104 136 77T227 49Q272 49 310 61T379 86L388 31ZM286 411Q244 411 214 396T164 356T133 300T116 236Q158 239 201 245T280 263T337 294T360 342Q360 376 339 393T286 411ZM347 627L399 516H332L305 583H298L240 516H176L275 627H347ZM384 592L388
608Q392 628 401 640T426 666Q436 675 443 681T453 698Q455 704 450 708T434 713Q422 713 411 709T385 696L377 736Q409 757 446 757Q513 757 501 698Q496 675 482 661T451 634Q439 624 436 617T432 604L429 592H384Z" />
<glyph unicode="&#x1ec4;" glyph-name="uni1EC4" horiz-adv-x="519" d="M413 65L399 0H16L156 659H528L515 594H221L174 373H457L444 307H160L108 65H413ZM286 882Q326 915 366 915Q379 915 389 911T408 902T427 893T450 889Q467 889 480 894T511 909L520 872Q482
841 440 841Q427 841 417 845T398 853T378 862T355 866Q333 866 296 846L286 882ZM410 827L461 717H395L368 784H362L304 717H240L338 827H410Z" />
<glyph unicode="&#x1ec5;" glyph-name="uni1EC5" horiz-adv-x="471" d="M388 31Q373 24 353 17T309 3T258 -7T204 -11Q167 -11 135 -2T80 28T43 81T29 160Q29 222 45 278T95 376T179 444T296 469Q362 469 400 439T438 354Q438 302 408 270T331 220T225 193T109
181V159Q109 104 136 77T227 49Q272 49 310 61T379 86L388 31ZM286 411Q244 411 214 396T164 356T133 300T116 236Q158 239 201 245T280 263T337 294T360 342Q360 376 339 393T286 411ZM347 627L399 516H332L305 583H298L240 516H176L275 627H347ZM221 683Q260
716 301 716Q314 716 324 712T343 703T362 694T385 690Q402 690 415 695T445 710L455 673Q417 642 375 642Q362 642 352 646T332 654T312 663T289 667Q268 667 231 647L221 683Z" />
<glyph unicode="&#x1ec6;" glyph-name="uni1EC6" horiz-adv-x="519" d="M413 65L399 0H16L156 659H528L515 594H221L174 373H457L444 307H160L108 65H413ZM410 827L461 717H395L368 784H362L304 717H240L338 827H410ZM224 -114H159L173 -46H238L224 -114Z" />
<glyph unicode="&#x1ec7;" glyph-name="uni1EC7" horiz-adv-x="471" d="M388 31Q373 24 353 17T309 3T258 -7T204 -11Q167 -11 135 -2T80 28T43 81T29 160Q29 222 45 278T95 376T179 444T296 469Q362 469 400 439T438 354Q438 302 408 270T331 220T225 193T109
181V159Q109 104 136 77T227 49Q272 49 310 61T379 86L388 31ZM286 411Q244 411 214 396T164 356T133 300T116 236Q158 239 201 245T280 263T337 294T360 342Q360 376 339 393T286 411ZM208 -114H143L157 -46H222L208 -114ZM347 627L399 516H332L305 583H298L240
516H176L275 627H347Z" />
<glyph unicode="&#x1ec8;" glyph-name="uni1EC8" horiz-adv-x="227" d="M156 659H235L95 0H16L156 659ZM183 732L189 758Q193 778 202 790T227 816Q236 825 244 831T254 848Q255 854 251 858T235 863Q223 863 212 859T186 846L178 886Q210 907 247 907Q314 907
302 848Q297 825 283 811T252 784Q240 774 237 767T233 754L228 732H183Z" />
<glyph unicode="&#x1ec9;" glyph-name="uni1EC9" horiz-adv-x="212" d="M11 0L108 458H185L89 0H11ZM131 519L137 545Q141 565 150 577T175 603Q184 612 192 618T202 635Q203 641 199 645T183 650Q171 650 160 646T134 633L126 673Q158 694 195 694Q262 694 250
635Q245 612 231 598T200 571Q188 561 185 554T181 541L176 519H131Z" />
<glyph unicode="&#x1eca;" glyph-name="uni1ECA" horiz-adv-x="227" d="M156 659H235L95 0H16L156 659ZM64 -114H-1L13 -46H78L64 -114Z" />
<glyph unicode="&#x1ecb;" glyph-name="uni1ECB" horiz-adv-x="212" d="M131 565L148 647H226L209 565H131ZM11 0L108 458H185L89 0H11ZM59 -114H-6L8 -46H73L59 -114Z" />
<glyph unicode="&#x1ecc;" glyph-name="uni1ECC" horiz-adv-x="633" d="M266 -11Q154 -11 98 49T42 226Q42 311 63 390T128 532T237 631T390 669Q501 669 557 608T614 432Q614 348 593 268T528 126T419 27T266 -11ZM382 606Q322 606 275 577T194 496T143 375T125
226Q125 145 163 99T273 53Q333 53 380 82T461 163T513 283T531 433Q531 514 493 560T382 606ZM282 -114H217L231 -46H296L282 -114Z" />
<glyph unicode="&#x1ecd;" glyph-name="uni1ECD" horiz-adv-x="502" d="M196 -11Q111 -11 70 33T28 158Q28 221 45 277T95 376T176 444T289 469Q374 469 415 425T457 299Q457 236 440 180T390 81T309 14T196 -11ZM205 48Q247 48 279 68T334 122T367 201T378 297Q378
320 373 341T357 377T327 402T281 411Q238 411 205 391T150 336T117 256T106 161Q106 137 111 117T127 81T158 57T205 48ZM210 -114H145L159 -46H224L210 -114Z" />
<glyph unicode="&#x1ece;" glyph-name="uni1ECE" horiz-adv-x="633" d="M266 -11Q154 -11 98 49T42 226Q42 311 63 390T128 532T237 631T390 669Q501 669 557 608T614 432Q614 348 593 268T528 126T419 27T266 -11ZM382 606Q322 606 275 577T194 496T143 375T125
226Q125 145 163 99T273 53Q333 53 380 82T461 163T513 283T531 433Q531 514 493 560T382 606ZM373 732L379 758Q383 778 392 790T417 816Q426 825 434 831T444 848Q445 854 441 858T425 863Q413 863 402 859T376 846L368 886Q400 907 437 907Q504 907 492 848Q487
825 473 811T442 784Q430 774 427 767T423 754L418 732H373Z" />
<glyph unicode="&#x1ecf;" glyph-name="uni1ECF" horiz-adv-x="502" d="M196 -11Q111 -11 70 33T28 158Q28 221 45 277T95 376T176 444T289 469Q374 469 415 425T457 299Q457 236 440 180T390 81T309 14T196 -11ZM205 48Q247 48 279 68T334 122T367 201T378 297Q378
320 373 341T357 377T327 402T281 411Q238 411 205 391T150 336T117 256T106 161Q106 137 111 117T127 81T158 57T205 48ZM271 519L277 545Q281 565 290 577T315 603Q324 612 332 618T342 635Q343 641 339 645T323 650Q311 650 300 646T274 633L266 673Q298 694
335 694Q402 694 390 635Q385 612 371 598T340 571Q328 561 325 554T321 541L316 519H271Z" />
<glyph unicode="&#x1ed0;" glyph-name="uni1ED0" horiz-adv-x="633" d="M266 -11Q154 -11 98 49T42 226Q42 311 63 390T128 532T237 631T390 669Q501 669 557 608T614 432Q614 348 593 268T528 126T419 27T266 -11ZM382 606Q322 606 275 577T194 496T143 375T125
226Q125 145 163 99T273 53Q333 53 380 82T461 163T513 283T531 433Q531 514 493 560T382 606ZM679 916L557 795H499L614 916H679ZM460 827L511 717H445L418 784H412L354 717H290L388 827H460Z" />
<glyph unicode="&#x1ed1;" glyph-name="uni1ED1" horiz-adv-x="502" d="M196 -11Q111 -11 70 33T28 158Q28 221 45 277T95 376T176 444T289 469Q374 469 415 425T457 299Q457 236 440 180T390 81T309 14T196 -11ZM205 48Q247 48 279 68T334 122T367 201T378 297Q378
320 373 341T357 377T327 402T281 411Q238 411 205 391T150 336T117 256T106 161Q106 137 111 117T127 81T158 57T205 48ZM582 712L458 592H402L517 712H582ZM357 627L409 516H342L315 583H308L250 516H186L285 627H357Z" />
<glyph unicode="&#x1ed2;" glyph-name="uni1ED2" horiz-adv-x="633" d="M266 -11Q154 -11 98 49T42 226Q42 311 63 390T128 532T237 631T390 669Q501 669 557 608T614 432Q614 348 593 268T528 126T419 27T266 -11ZM382 606Q322 606 275 577T194 496T143 375T125
226Q125 145 163 99T273 53Q333 53 380 82T461 163T513 283T531 433Q531 514 493 560T382 606ZM513 913L576 792H519L447 913H513ZM460 827L511 717H445L418 784H412L354 717H290L388 827H460Z" />
<glyph unicode="&#x1ed3;" glyph-name="uni1ED3" horiz-adv-x="502" d="M196 -11Q111 -11 70 33T28 158Q28 221 45 277T95 376T176 444T289 469Q374 469 415 425T457 299Q457 236 440 180T390 81T309 14T196 -11ZM205 48Q247 48 279 68T334 122T367 201T378 297Q378
320 373 341T357 377T327 402T281 411Q238 411 205 391T150 336T117 256T106 161Q106 137 111 117T127 81T158 57T205 48ZM407 723L472 603H415L342 723H407ZM357 627L409 516H342L315 583H308L250 516H186L285 627H357Z" />
<glyph unicode="&#x1ed4;" glyph-name="uni1ED4" horiz-adv-x="633" d="M266 -11Q154 -11 98 49T42 226Q42 311 63 390T128 532T237 631T390 669Q501 669 557 608T614 432Q614 348 593 268T528 126T419 27T266 -11ZM382 606Q322 606 275 577T194 496T143 375T125
226Q125 145 163 99T273 53Q333 53 380 82T461 163T513 283T531 433Q531 514 493 560T382 606ZM460 827L511 717H445L418 784H412L354 717H290L388 827H460ZM502 791L507 817Q512 837 521 849T545 875Q555 884 562 890T572 907Q574 913 569 917T553 922Q541 922
530 918T505 905L496 945Q528 966 566 966Q634 966 620 907Q615 884 601 870T571 843Q559 833 556 826T551 813L547 791H502Z" />
<glyph unicode="&#x1ed5;" glyph-name="uni1ED5" horiz-adv-x="502" d="M196 -11Q111 -11 70 33T28 158Q28 221 45 277T95 376T176 444T289 469Q374 469 415 425T457 299Q457 236 440 180T390 81T309 14T196 -11ZM205 48Q247 48 279 68T334 122T367 201T378 297Q378
320 373 341T357 377T327 402T281 411Q238 411 205 391T150 336T117 256T106 161Q106 137 111 117T127 81T158 57T205 48ZM357 627L409 516H342L315 583H308L250 516H186L285 627H357ZM394 592L398 608Q402 628 411 640T436 666Q446 675 453 681T463 698Q465 704
460 708T444 713Q432 713 421 709T395 696L387 736Q419 757 456 757Q523 757 511 698Q506 675 492 661T461 634Q449 624 446 617T442 604L439 592H394Z" />
<glyph unicode="&#x1ed6;" glyph-name="uni1ED6" horiz-adv-x="633" d="M266 -11Q154 -11 98 49T42 226Q42 311 63 390T128 532T237 631T390 669Q501 669 557 608T614 432Q614 348 593 268T528 126T419 27T266 -11ZM382 606Q322 606 275 577T194 496T143 375T125
226Q125 145 163 99T273 53Q333 53 380 82T461 163T513 283T531 433Q531 514 493 560T382 606ZM336 882Q376 915 416 915Q429 915 439 911T458 902T477 893T500 889Q517 889 530 894T561 909L570 872Q532 841 490 841Q477 841 467 845T448 853T428 862T405 866Q383
866 346 846L336 882ZM460 827L511 717H445L418 784H412L354 717H290L388 827H460Z" />
<glyph unicode="&#x1ed7;" glyph-name="uni1ED7" horiz-adv-x="502" d="M196 -11Q111 -11 70 33T28 158Q28 221 45 277T95 376T176 444T289 469Q374 469 415 425T457 299Q457 236 440 180T390 81T309 14T196 -11ZM205 48Q247 48 279 68T334 122T367 201T378 297Q378
320 373 341T357 377T327 402T281 411Q238 411 205 391T150 336T117 256T106 161Q106 137 111 117T127 81T158 57T205 48ZM357 627L409 516H342L315 583H308L250 516H186L285 627H357ZM231 683Q270 716 311 716Q324 716 334 712T353 703T372 694T395 690Q412 690
425 695T455 710L465 673Q427 642 385 642Q372 642 362 646T342 654T322 663T299 667Q278 667 241 647L231 683Z" />
<glyph unicode="&#x1ed8;" glyph-name="uni1ED8" horiz-adv-x="633" d="M266 -11Q154 -11 98 49T42 226Q42 311 63 390T128 532T237 631T390 669Q501 669 557 608T614 432Q614 348 593 268T528 126T419 27T266 -11ZM382 606Q322 606 275 577T194 496T143 375T125
226Q125 145 163 99T273 53Q333 53 380 82T461 163T513 283T531 433Q531 514 493 560T382 606ZM282 -114H217L231 -46H296L282 -114ZM460 827L511 717H445L418 784H412L354 717H290L388 827H460Z" />
<glyph unicode="&#x1ed9;" glyph-name="uni1ED9" horiz-adv-x="502" d="M196 -11Q111 -11 70 33T28 158Q28 221 45 277T95 376T176 444T289 469Q374 469 415 425T457 299Q457 236 440 180T390 81T309 14T196 -11ZM205 48Q247 48 279 68T334 122T367 201T378 297Q378
320 373 341T357 377T327 402T281 411Q238 411 205 391T150 336T117 256T106 161Q106 137 111 117T127 81T158 57T205 48ZM210 -114H145L159 -46H224L210 -114ZM357 627L409 516H342L315 583H308L250 516H186L285 627H357Z" />
<glyph unicode="&#x1eda;" glyph-name="uni1EDA" horiz-adv-x="633" d="M266 -11Q154 -11 98 49T42 226Q42 311 63 390T128 532T237 631T390 669Q535 669 587 565Q630 613 644 673H710Q701 630 677 596Q666 582 652 567T618 534L595 544Q604 520 609 492T614 432Q614
348 593 268T528 126T419 27T266 -11ZM382 606Q322 606 275 577T194 496T143 375T125 226Q125 145 163 99T273 53Q333 53 380 82T461 163T513 283T531 433Q531 514 493 560T382 606ZM528 859L405 738H347L463 859H528Z" />
<glyph unicode="&#x1edb;" glyph-name="uni1EDB" horiz-adv-x="502" d="M196 -11Q111 -11 70 33T28 158Q28 221 45 277T95 376T176 444T289 469Q354 469 393 443T447 367Q488 413 502 472H567Q562 450 554 431T533 395Q514 365 475 334L453 343Q457 324 457 299Q457
236 440 180T390 81T309 14T196 -11ZM205 48Q247 48 279 68T334 122T367 201T378 297Q378 320 373 341T357 377T327 402T281 411Q238 411 205 391T150 336T117 256T106 161Q106 137 111 117T127 81T158 57T205 48ZM430 656L306 535H250L365 656H430Z" />
<glyph unicode="&#x1edc;" glyph-name="uni1EDC" horiz-adv-x="633" d="M266 -11Q154 -11 98 49T42 226Q42 311 63 390T128 532T237 631T390 669Q535 669 587 565Q630 613 644 673H710Q701 630 677 596Q666 582 652 567T618 534L595 544Q604 520 609 492T614 432Q614
348 593 268T528 126T419 27T266 -11ZM382 606Q322 606 275 577T194 496T143 375T125 226Q125 145 163 99T273 53Q333 53 380 82T461 163T513 283T531 433Q531 514 493 560T382 606ZM393 859L455 738H399L327 859H393Z" />
<glyph unicode="&#x1edd;" glyph-name="uni1EDD" horiz-adv-x="502" d="M196 -11Q111 -11 70 33T28 158Q28 221 45 277T95 376T176 444T289 469Q354 469 393 443T447 367Q488 413 502 472H567Q562 450 554 431T533 395Q514 365 475 334L453 343Q457 324 457 299Q457
236 440 180T390 81T309 14T196 -11ZM205 48Q247 48 279 68T334 122T367 201T378 297Q378 320 373 341T357 377T327 402T281 411Q238 411 205 391T150 336T117 256T106 161Q106 137 111 117T127 81T158 57T205 48ZM283 656L345 535H289L218 656H283Z" />
<glyph unicode="&#x1ede;" glyph-name="uni1EDE" horiz-adv-x="633" d="M266 -11Q154 -11 98 49T42 226Q42 311 63 390T128 532T237 631T390 669Q535 669 587 565Q630 613 644 673H710Q701 630 677 596Q666 582 652 567T618 534L595 544Q604 520 609 492T614 432Q614
348 593 268T528 126T419 27T266 -11ZM382 606Q322 606 275 577T194 496T143 375T125 226Q125 145 163 99T273 53Q333 53 380 82T461 163T513 283T531 433Q531 514 493 560T382 606ZM373 732L379 758Q383 778 392 790T417 816Q426 825 434 831T444 848Q445 854
441 858T425 863Q413 863 402 859T376 846L368 886Q400 907 437 907Q504 907 492 848Q487 825 473 811T442 784Q430 774 427 767T423 754L418 732H373Z" />
<glyph unicode="&#x1edf;" glyph-name="uni1EDF" horiz-adv-x="502" d="M196 -11Q111 -11 70 33T28 158Q28 221 45 277T95 376T176 444T289 469Q354 469 393 443T447 367Q488 413 502 472H567Q562 450 554 431T533 395Q514 365 475 334L453 343Q457 324 457 299Q457
236 440 180T390 81T309 14T196 -11ZM205 48Q247 48 279 68T334 122T367 201T378 297Q378 320 373 341T357 377T327 402T281 411Q238 411 205 391T150 336T117 256T106 161Q106 137 111 117T127 81T158 57T205 48ZM271 519L277 545Q281 565 290 577T315 603Q324
612 332 618T342 635Q343 641 339 645T323 650Q311 650 300 646T274 633L266 673Q298 694 335 694Q402 694 390 635Q385 612 371 598T340 571Q328 561 325 554T321 541L316 519H271Z" />
<glyph unicode="&#x1ee0;" glyph-name="uni1EE0" horiz-adv-x="633" d="M266 -11Q154 -11 98 49T42 226Q42 311 63 390T128 532T237 631T390 669Q535 669 587 565Q630 613 644 673H710Q701 630 677 596Q666 582 652 567T618 534L595 544Q604 520 609 492T614 432Q614
348 593 268T528 126T419 27T266 -11ZM382 606Q322 606 275 577T194 496T143 375T125 226Q125 145 163 99T273 53Q333 53 380 82T461 163T513 283T531 433Q531 514 493 560T382 606ZM296 765Q336 798 376 798Q389 798 399 794T418 785T438 776T461 772Q478 772
491 777T521 792L530 755Q493 724 450 724Q437 724 427 728T408 736T388 745T365 749Q343 749 306 729L296 765Z" />
<glyph unicode="&#x1ee1;" glyph-name="uni1EE1" horiz-adv-x="502" d="M196 -11Q111 -11 70 33T28 158Q28 221 45 277T95 376T176 444T289 469Q354 469 393 443T447 367Q488 413 502 472H567Q562 450 554 431T533 395Q514 365 475 334L453 343Q457 324 457 299Q457
236 440 180T390 81T309 14T196 -11ZM205 48Q247 48 279 68T334 122T367 201T378 297Q378 320 373 341T357 377T327 402T281 411Q238 411 205 391T150 336T117 256T106 161Q106 137 111 117T127 81T158 57T205 48ZM191 567Q231 600 271 600Q284 600 294 596T313
587T333 578T356 574Q373 574 386 579T416 594L425 557Q387 526 345 526Q332 526 322 530T303 538T283 547T260 551Q238 551 201 531L191 567Z" />
<glyph unicode="&#x1ee2;" glyph-name="uni1EE2" horiz-adv-x="633" d="M266 -11Q154 -11 98 49T42 226Q42 311 63 390T128 532T237 631T390 669Q535 669 587 565Q630 613 644 673H710Q701 630 677 596Q666 582 652 567T618 534L595 544Q604 520 609 492T614 432Q614
348 593 268T528 126T419 27T266 -11ZM382 606Q322 606 275 577T194 496T143 375T125 226Q125 145 163 99T273 53Q333 53 380 82T461 163T513 283T531 433Q531 514 493 560T382 606ZM282 -114H217L231 -46H296L282 -114Z" />
<glyph unicode="&#x1ee3;" glyph-name="uni1EE3" horiz-adv-x="502" d="M196 -11Q111 -11 70 33T28 158Q28 221 45 277T95 376T176 444T289 469Q354 469 393 443T447 367Q488 413 502 472H567Q562 450 554 431T533 395Q514 365 475 334L453 343Q457 324 457 299Q457
236 440 180T390 81T309 14T196 -11ZM205 48Q247 48 279 68T334 122T367 201T378 297Q378 320 373 341T357 377T327 402T281 411Q238 411 205 391T150 336T117 256T106 161Q106 137 111 117T127 81T158 57T205 48ZM210 -114H145L159 -46H224L210 -114Z" />
<glyph unicode="&#x1ee4;" glyph-name="uni1EE4" horiz-adv-x="616" d="M626 659L538 246Q523 178 499 129T438 49T354 4T244 -11Q120 -11 80 58T69 260L154 659H233L144 236Q135 195 135 162T147 104T184 67T253 54Q342 54 390 100T460 253L547 659H626ZM259
-114H194L208 -46H273L259 -114Z" />
<glyph unicode="&#x1ee5;" glyph-name="uni1EE5" horiz-adv-x="494" d="M180 458L120 180Q112 140 112 116Q112 51 175 51Q238 51 318 126L389 458H467L399 141L378 0H313L315 58Q277 26 234 8T148 -11Q83 -11 58 18T32 97Q32 114 34 132T40 168L102 458H180ZM208
-114H143L157 -46H222L208 -114Z" />
<glyph unicode="&#x1ee6;" glyph-name="uni1EE6" horiz-adv-x="616" d="M626 659L538 246Q523 178 499 129T438 49T354 4T244 -11Q120 -11 80 58T69 260L154 659H233L144 236Q135 195 135 162T147 104T184 67T253 54Q342 54 390 100T460 253L547 659H626ZM363
732L369 758Q373 778 382 790T407 816Q416 825 424 831T434 848Q435 854 431 858T415 863Q403 863 392 859T366 846L358 886Q390 907 427 907Q494 907 482 848Q477 825 463 811T432 784Q420 774 417 767T413 754L408 732H363Z" />
<glyph unicode="&#x1ee7;" glyph-name="uni1EE7" horiz-adv-x="494" d="M180 458L120 180Q112 140 112 116Q112 51 175 51Q238 51 318 126L389 458H467L399 141L378 0H313L315 58Q277 26 234 8T148 -11Q83 -11 58 18T32 97Q32 114 34 132T40 168L102 458H180ZM261
519L267 545Q271 565 280 577T305 603Q314 612 322 618T332 635Q333 641 329 645T313 650Q301 650 290 646T264 633L256 673Q288 694 325 694Q392 694 380 635Q375 612 361 598T330 571Q318 561 315 554T311 541L306 519H261Z" />
<glyph unicode="&#x1ee8;" glyph-name="uni1EE8" horiz-adv-x="616" d="M626 659L606 564Q650 611 664 673H730Q721 630 697 596Q686 582 672 567T638 534L603 550L538 246Q523 178 499 129T438 49T354 4T244 -11Q120 -11 80 58T69 260L154 659H233L144 236Q135
195 135 162T147 104T184 67T253 54Q342 54 390 100T460 253L547 659H626ZM518 859L395 738H337L453 859H518Z" />
<glyph unicode="&#x1ee9;" glyph-name="uni1EE9" horiz-adv-x="494" d="M180 458L120 180Q112 140 112 116Q112 51 175 51Q238 51 318 126L389 458H467L447 367Q488 413 502 472H567Q562 450 554 431T533 395Q514 365 475 334L443 347L399 141L378 0H313L315 58Q277
26 234 8T148 -11Q83 -11 58 18T32 97Q32 114 34 132T40 168L102 458H180ZM420 656L296 535H240L355 656H420Z" />
<glyph unicode="&#x1eea;" glyph-name="uni1EEA" horiz-adv-x="616" d="M626 659L605 563Q650 611 664 673H730Q721 630 697 596Q686 582 672 567T638 534L603 551L538 246Q523 178 499 129T438 49T354 4T244 -11Q120 -11 80 58T69 260L154 659H233L144 236Q135
195 135 162T147 104T184 67T253 54Q342 54 390 100T460 253L547 659H626ZM383 859L445 738H389L317 859H383Z" />
<glyph unicode="&#x1eeb;" glyph-name="uni1EEB" horiz-adv-x="494" d="M180 458L120 180Q112 140 112 116Q112 51 175 51Q238 51 318 126L389 458H467L447 367Q488 413 502 472H567Q562 450 554 431T533 395Q514 365 475 334L443 347L399 141L378 0H313L315 58Q277
26 234 8T148 -11Q83 -11 58 18T32 97Q32 114 34 132T40 168L102 458H180ZM273 656L335 535H279L208 656H273Z" />
<glyph unicode="&#x1eec;" glyph-name="uni1EEC" horiz-adv-x="616" d="M626 659L606 564Q650 611 664 673H730Q721 630 697 596Q686 582 672 567T638 534L603 550L538 246Q523 178 499 129T438 49T354 4T244 -11Q120 -11 80 58T69 260L154 659H233L144 236Q135
195 135 162T147 104T184 67T253 54Q342 54 390 100T460 253L547 659H626ZM363 732L369 758Q373 778 382 790T407 816Q416 825 424 831T434 848Q435 854 431 858T415 863Q403 863 392 859T366 846L358 886Q390 907 427 907Q494 907 482 848Q477 825 463 811T432
784Q420 774 417 767T413 754L408 732H363Z" />
<glyph unicode="&#x1eed;" glyph-name="uni1EED" horiz-adv-x="494" d="M180 458L120 180Q112 140 112 116Q112 51 175 51Q238 51 318 126L389 458H467L447 367Q488 413 502 472H567Q562 450 554 431T533 395Q514 365 475 334L443 347L399 141L378 0H313L315 58Q277
26 234 8T148 -11Q83 -11 58 18T32 97Q32 114 34 132T40 168L102 458H180ZM261 519L267 545Q271 565 280 577T305 603Q314 612 322 618T332 635Q333 641 329 645T313 650Q301 650 290 646T264 633L256 673Q288 694 325 694Q392 694 380 635Q375 612 361 598T330
571Q318 561 315 554T311 541L306 519H261Z" />
<glyph unicode="&#x1eee;" glyph-name="uni1EEE" horiz-adv-x="616" d="M626 659L605 563Q650 611 664 673H730Q721 630 697 596Q686 582 672 567T638 534L603 551L538 246Q523 178 499 129T438 49T354 4T244 -11Q120 -11 80 58T69 260L154 659H233L144 236Q135
195 135 162T147 104T184 67T253 54Q342 54 390 100T460 253L547 659H626ZM286 765Q326 798 366 798Q379 798 389 794T408 785T428 776T451 772Q468 772 481 777T511 792L520 755Q483 724 440 724Q427 724 417 728T398 736T378 745T355 749Q333 749 296 729L286
765Z" />
<glyph unicode="&#x1eef;" glyph-name="uni1EEF" horiz-adv-x="494" d="M180 458L120 180Q112 140 112 116Q112 51 175 51Q238 51 318 126L389 458H467L447 367Q488 413 502 472H567Q562 450 554 431T533 395Q514 365 475 334L443 347L399 141L378 0H313L315 58Q277
26 234 8T148 -11Q83 -11 58 18T32 97Q32 114 34 132T40 168L102 458H180ZM181 567Q221 600 261 600Q274 600 284 596T303 587T323 578T346 574Q363 574 376 579T406 594L415 557Q377 526 335 526Q322 526 312 530T293 538T273 547T250 551Q228 551 191 531L181
567Z" />
<glyph unicode="&#x1ef0;" glyph-name="uni1EF0" horiz-adv-x="616" d="M626 659L606 564Q650 611 664 673H730Q721 630 697 596Q686 582 672 567T638 534L603 550L538 246Q523 178 499 129T438 49T354 4T244 -11Q120 -11 80 58T69 260L154 659H233L144 236Q135
195 135 162T147 104T184 67T253 54Q342 54 390 100T460 253L547 659H626ZM259 -114H194L208 -46H273L259 -114Z" />
<glyph unicode="&#x1ef1;" glyph-name="uni1EF1" horiz-adv-x="494" d="M180 458L120 180Q112 140 112 116Q112 51 175 51Q238 51 318 126L389 458H467L447 367Q488 413 502 472H567Q562 450 554 431T533 395Q514 365 475 334L443 347L399 141L378 0H313L315 58Q277
26 234 8T148 -11Q83 -11 58 18T32 97Q32 114 34 132T40 168L102 458H180ZM208 -114H143L157 -46H222L208 -114Z" />
<glyph unicode="&#x1ef2;" glyph-name="Ygrave" horiz-adv-x="529" d="M245 0H167L230 278Q212 320 193 370T153 470T114 569T79 659H164L275 357H284L521 659H609L305 277L245 0ZM360 887L440 729H367L275 887H360Z" />
<glyph unicode="&#x1ef3;" glyph-name="ygrave" horiz-adv-x="443" d="M-55 -162Q-40 -166 -24 -166Q11 -166 33 -152T69 -122Q77 -114 86 -100T105 -70T124 -36T141 -5L57 458H136L191 94H199L390 458H470L203 -30Q178 -77 156 -113T107 -174T48 -212T-30 -225Q-40
-225 -51 -224T-73 -220L-55 -162ZM241 687L321 529H248L156 687H241Z" />
<glyph unicode="&#x1ef4;" glyph-name="uni1EF4" horiz-adv-x="529" d="M245 0H167L230 278Q212 320 193 370T153 470T114 569T79 659H164L275 357H284L521 659H609L305 277L245 0ZM216 -114H151L165 -46H230L216 -114Z" />
<glyph unicode="&#x1ef5;" glyph-name="uni1EF5" horiz-adv-x="443" d="M-55 -162Q-40 -166 -24 -166Q11 -166 33 -152T69 -122Q77 -114 86 -100T105 -70T124 -36T141 -5L57 458H136L191 94H199L390 458H470L203 -30Q178 -77 156 -113T107 -174T48 -212T-30 -225Q-40
-225 -51 -224T-73 -220L-55 -162ZM318 -114H253L267 -46H332L318 -114Z" />
<glyph unicode="&#x1ef6;" glyph-name="uni1EF6" horiz-adv-x="529" d="M245 0H167L230 278Q212 320 193 370T153 470T114 569T79 659H164L275 357H284L521 659H609L305 277L245 0ZM323 732L329 758Q333 778 342 790T367 816Q376 825 384 831T394 848Q395 854
391 858T375 863Q363 863 352 859T326 846L318 886Q350 907 387 907Q454 907 442 848Q437 825 423 811T392 784Q380 774 377 767T373 754L368 732H323Z" />
<glyph unicode="&#x1ef7;" glyph-name="uni1EF7" horiz-adv-x="443" d="M-55 -162Q-40 -166 -24 -166Q11 -166 33 -152T69 -122Q77 -114 86 -100T105 -70T124 -36T141 -5L57 458H136L191 94H199L390 458H470L203 -30Q178 -77 156 -113T107 -174T48 -212T-30 -225Q-40
-225 -51 -224T-73 -220L-55 -162ZM241 519L247 545Q251 565 260 577T285 603Q294 612 302 618T312 635Q313 641 309 645T293 650Q281 650 270 646T244 633L236 673Q268 694 305 694Q372 694 360 635Q355 612 341 598T310 571Q298 561 295 554T291 541L286 519H241Z"
/>
<glyph unicode="&#x1ef8;" glyph-name="uni1EF8" horiz-adv-x="529" d="M245 0H167L230 278Q212 320 193 370T153 470T114 569T79 659H164L275 357H284L521 659H609L305 277L245 0ZM226 765Q266 798 306 798Q319 798 329 794T348 785T368 776T391 772Q408 772
421 777T451 792L460 755Q423 724 380 724Q367 724 357 728T338 736T318 745T295 749Q273 749 236 729L226 765Z" />
<glyph unicode="&#x1ef9;" glyph-name="uni1EF9" horiz-adv-x="443" d="M-55 -162Q-40 -166 -24 -166Q11 -166 33 -152T69 -122Q77 -114 86 -100T105 -70T124 -36T141 -5L57 458H136L191 94H199L390 458H470L203 -30Q178 -77 156 -113T107 -174T48 -212T-30 -225Q-40
-225 -51 -224T-73 -220L-55 -162ZM151 567Q191 600 231 600Q244 600 254 596T273 587T293 578T316 574Q333 574 346 579T376 594L385 557Q347 526 305 526Q292 526 282 530T263 538T243 547T220 551Q198 551 161 531L151 567Z" />
<glyph unicode="&#x2010;" glyph-name="uni2010" horiz-adv-x="564" d="M486 234H77L90 298H500L486 234Z" />
<glyph unicode="&#x2013;" glyph-name="endash" horiz-adv-x="531" d="M455 205H51L64 269H469L455 205Z" />
<glyph unicode="&#x2014;" glyph-name="emdash" horiz-adv-x="734" d="M678 205H31L44 269H691L678 205Z" />
<glyph unicode="&#x2018;" glyph-name="quoteleft" horiz-adv-x="208" d="M258 661Q223 612 202 567T169 463H94Q111 537 140 589T212 692L258 661Z" />
<glyph unicode="&#x2019;" glyph-name="quoteright" horiz-adv-x="208" d="M75 487Q110 536 131 581T164 685H239Q222 611 193 559T121 456L75 487Z" />
<glyph unicode="&#x201a;" glyph-name="quotesinglbase" horiz-adv-x="196" d="M-64 -114Q-29 -65 -8 -20T25 84H100Q83 10 54 -42T-18 -145L-64 -114Z" />
<glyph unicode="&#x201c;" glyph-name="quotedblleft" horiz-adv-x="362" d="M258 661Q223 612 202 567T169 463H94Q111 537 140 589T212 692L258 661ZM412 661Q377 612 356 567T323 463H248Q265 537 294 589T366 692L412 661Z" />
<glyph unicode="&#x201d;" glyph-name="quotedblright" horiz-adv-x="362" d="M75 487Q110 536 131 581T164 685H239Q222 611 193 559T121 456L75 487ZM228 487Q263 536 284 581T317 685H392Q375 611 346 559T274 456L228 487Z" />
<glyph unicode="&#x201e;" glyph-name="quotedblbase" horiz-adv-x="352" d="M-59 -114Q-24 -65 -3 -20T30 84H105Q88 10 59 -42T-13 -145L-59 -114ZM95 -114Q130 -65 151 -20T184 84H259Q242 10 213 -42T141 -145L95 -114Z" />
<glyph unicode="&#x2020;" glyph-name="dagger" horiz-adv-x="547" d="M276 422L315 659H399L337 422L538 433L522 355L325 366L286 130L194 -221H145L203 130L264 366L63 355L80 433L276 422Z" />
<glyph unicode="&#x2021;" glyph-name="daggerdbl" horiz-adv-x="547" d="M336 421L538 433L522 355L324 366L301 218L261 71L461 82L445 4L249 15L212 -221H129L190 15L-9 4L8 82L201 71L225 218L264 366L63 355L80 433L276 421L315 659H399L336 421Z" />
<glyph unicode="&#x2022;" glyph-name="bullet" horiz-adv-x="298" d="M40 242Q40 264 49 286T74 325T113 354T164 365Q201 365 223 341T245 282Q245 259 235 237T208 197T168 170T120 159Q84 159 62 181T40 242Z" />
<glyph unicode="&#x2026;" glyph-name="ellipsis" horiz-adv-x="577" d="M16 86H104L86 0H-2L16 86ZM208 86H295L276 0H188L208 86ZM399 86H486L468 0H380L399 86Z" />
<glyph unicode="&#x2030;" glyph-name="perthousand" horiz-adv-x="980" d="M274 548Q274 575 264 598T225 621Q200 621 182 605T151 563T133 505T127 440Q127 412 137 389T177 366Q200 366 218 382T248 424T267 482T274 548ZM509 37Q533 37 551 52T581 93T600
152T606 219Q606 246 596 269T558 292Q533 292 515 276T484 234T465 176T459 109Q459 82 469 60T509 37ZM102 -29H22L629 688H710L102 -29ZM665 221Q665 184 657 143T629 68T578 12T502 -11Q453 -11 427 21T400 108Q400 144 408 185T436 260T487 318T565 341Q614
341 639 309T665 221ZM169 317Q120 317 94 348T68 437Q68 473 76 514T103 589T154 646T233 669Q282 669 307 638T333 550Q333 513 324 472T296 397T245 340T169 317ZM788 37Q812 37 830 52T860 93T879 152T885 219Q885 246 875 269T837 292Q812 292 794 276T763
234T744 176T738 109Q738 82 748 60T788 37ZM944 221Q944 184 936 143T908 68T857 12T781 -11Q732 -11 706 21T679 108Q679 144 687 185T715 260T766 318T844 341Q893 341 918 309T944 221Z" />
<glyph unicode="&#x2039;" glyph-name="guilsinglleft" horiz-adv-x="290" d="M14 229L214 426L259 383L102 226L190 73L130 32L14 229Z" />
<glyph unicode="&#x203a;" glyph-name="guilsinglright" horiz-adv-x="290" d="M257 229L57 32L12 75L169 232L81 385L141 426L257 229Z" />
<glyph unicode="&#x2044;" glyph-name="fraction" horiz-adv-x="610" d="M-37 -32L593 691H667L36 -32H-37Z" />
<glyph unicode="&#x20a9;" glyph-name="won" horiz-adv-x="918" d="M76 422H167L164 659H239L240 422H393L487 659H597L593 422H747L847 659H923L820 422H911L900 368H797L759 282H882L870 227H737L638 0H525L529 227H378L287 0H174L171 227H35L47 282H170L168
368H65L76 422ZM591 282H688L725 368H593L591 282ZM242 282H338L372 368H240L242 282ZM400 282H529L530 368H434L400 282ZM456 422H531L534 595H526L456 422ZM251 64L316 227H242L243 64H251ZM596 64L665 227H590L588 64H596Z" />
<glyph unicode="&#x20ab;" glyph-name="dong" horiz-adv-x="513" d="M415 631H369L378 676H424L433 716H494L485 676H535L526 631H476L387 216H330L340 261Q293 207 227 207Q189 207 164 222T124 264T107 325T112 396Q121 437 137 471T178 531T235 571T305 586Q368
586 394 536L415 631ZM175 396Q161 333 180 296T244 258Q289 258 322 294T369 391Q383 460 365 498T300 536Q255 536 222 499T175 396ZM417 120H53L63 165H427L417 120Z" />
<glyph unicode="&#x20ac;" glyph-name="Euro" horiz-adv-x="606" d="M82 416H145Q183 540 271 604T489 669Q534 669 575 659T646 627L609 564Q587 583 556 593T479 604Q429 604 390 590T320 550T267 490T231 416H528L497 362H216Q211 344 209 328T204 295H458L429
240H201V235Q201 150 240 103T357 56Q402 56 436 62T500 79L486 9Q454 0 417 -5T338 -11Q226 -10 173 53T119 229V240H24L54 295H121Q123 312 125 328T131 362H51L82 416Z" />
<glyph unicode="&#x2113;" glyph-name="uni2113" horiz-adv-x="375" d="M169 -2Q162 -4 152 -4T136 -5Q82 -5 66 25T63 116L104 310Q87 306 71 303T38 298L35 356Q57 360 78 364T118 375L155 546Q167 606 198 637T288 669Q343 669 362 635T366 526Q350 452 301
407T185 335L138 117Q134 96 135 84T142 65T158 56T181 54L169 -2ZM291 526Q302 574 296 589T274 605Q266 605 260 603T248 592T237 568T225 526L200 407Q235 427 258 455T291 526Z" />
<glyph unicode="&#x2116;" glyph-name="uni2116" horiz-adv-x="1049" d="M691 659L551 0H415L235 596H226L100 0H24L164 659H300L479 63H487L614 659H691ZM825 363Q786 363 763 374T729 405T717 455T725 522Q742 602 785 640T907 679Q946 679 969 668T1003 637T1015
586T1007 519Q990 439 946 401T825 363ZM835 412Q862 412 880 418T911 439T932 474T947 525Q952 547 953 566T951 600T934 623T897 631Q870 631 852 624T821 603T800 568T785 517Q780 494 779 475T781 441T798 420T835 412ZM693 320H955L943 268H681L693 320Z"
/>
<glyph unicode="&#x2122;" glyph-name="trademark" horiz-adv-x="728" d="M116 318L178 608H77L88 659H354L343 608H242L180 318H116ZM398 659H499L516 487L520 392H530L575 487L662 659H767L694 318H635L679 526L698 606H688L606 441L549 330H479L468 442L453
606H444L429 526L385 318H326L398 659Z" />
<glyph unicode="&#x212e;" glyph-name="estimated" horiz-adv-x="844" d="M734 125Q704 95 671 70T600 26T517 -2T422 -12Q346 -12 281 16T168 91T93 201T65 333Q65 403 93 465T170 575T284 650T422 678Q495 678 559 650T673 575T750 465T779 333V311H207V98Q248
64 302 43T422 21Q507 21 576 52T710 149L734 125ZM422 645Q356 645 303 623T207 564V343H637V564Q595 601 542 623T422 645Z" />
<glyph unicode="&#x2202;" glyph-name="partialdiff" horiz-adv-x="560" d="M512 263Q491 192 461 141T395 56T317 6T230 -10Q173 -10 134 6T73 51T46 120T53 207Q65 252 89 291T148 359T229 400T327 406Q354 402 375 394T414 374Q427 365 439 357T459 337Q476
397 478 443T466 525T419 587T338 632L371 683Q428 661 468 631T528 552T545 434T512 263ZM435 268Q428 277 420 286T399 304Q384 317 363 326T316 339Q280 344 250 337T197 312T157 267T131 206Q111 132 139 93T239 53Q275 53 306 70T361 117T404 186T435 268Z"
/>
<glyph unicode="&#x2206;" glyph-name="increment" horiz-adv-x="656" d="M20 0L459 679L616 0H20ZM422 505L148 73H515L422 505Z" />
<glyph unicode="&#x220f;" glyph-name="product" horiz-adv-x="730" d="M567 599L440 0H367L494 599H288L161 0H90L217 599H77L90 659H720L707 599H567Z" />
<glyph unicode="&#x2211;" glyph-name="summation" horiz-adv-x="580" d="M422 0L409 -60H6L332 341L171 719H574L562 659H280L412 341L137 0H422Z" />
<glyph unicode="&#x2212;" glyph-name="minus" horiz-adv-x="563" d="M470 233H77L90 299H484L470 233Z" />
<glyph unicode="&#x221a;" glyph-name="radical" horiz-adv-x="569" d="M93 304L178 131L475 674L536 652L168 -20L27 264L93 304Z" />
<glyph unicode="&#x221e;" glyph-name="infinity" horiz-adv-x="772" d="M591 375Q660 375 694 339T715 233Q701 164 651 127T531 90Q504 90 481 98T440 120T406 151T379 185Q359 168 337 151T291 121T241 99T187 90Q118 90 84 127T63 233Q77 302 127 338T247
375Q274 375 297 367T338 345T372 315T399 281Q418 298 440 314T487 344T537 366T591 375ZM542 154Q582 154 608 175T643 233Q651 269 634 290T576 311Q541 311 505 288T432 233Q455 201 481 178T542 154ZM202 154Q237 154 273 177T345 233Q323 265 297 288T236
311Q196 311 170 290T135 233Q127 197 144 176T202 154Z" />
<glyph unicode="&#x222b;" glyph-name="integral'" horiz-adv-x="439" d="M197 -45Q177 -136 134 -179T19 -223Q-16 -223 -45 -212L-20 -153Q-6 -157 5 -159T29 -161Q67 -161 88 -131T122 -40L238 506Q256 593 297 638T398 684Q415 684 433 681T468 669L439 612Q424
618 413 620T388 622Q372 622 361 612T340 585T325 546T313 500L197 -45Z" />
<glyph unicode="&#x2248;" glyph-name="approxequal" horiz-adv-x="563" d="M500 402Q464 373 435 355T364 337Q346 337 329 342T282 361Q268 368 256 373T230 379Q208 379 188 368T133 333L105 378Q141 405 172 424T244 443Q262 443 278 439T315 424Q338 413
351 407T378 401Q402 401 421 413T467 446L500 402ZM469 255Q433 226 404 208T333 190Q315 190 298 195T251 214Q237 221 225 226T199 232Q177 232 157 221T102 186L74 231Q110 258 141 277T212 296Q230 296 246 292T283 277Q306 266 319 260T346 254Q370 254 389
266T436 299L469 255Z" />
<glyph unicode="&#x2260;" glyph-name="notequal" horiz-adv-x="563" d="M458 477L406 411H514L500 348H356L306 284H487L473 220H255L172 114L118 149L174 220H65L79 284H224L275 348H92L106 411H324L404 512L458 477Z" />
<glyph unicode="&#x2264;" glyph-name="lessequal" horiz-adv-x="537" d="M451 0H30L43 62H464L451 0ZM424 99L92 292L506 488L528 433L225 292L468 154L424 99Z" />
<glyph unicode="&#x2265;" glyph-name="greaterequal" horiz-adv-x="537" d="M36 62H457L444 0H23L36 62ZM70 154L373 292L130 433L174 488L506 292L92 99L70 154Z" />
<glyph unicode="&#x25ca;" glyph-name="lozenge" horiz-adv-x="644" d="M48 333L395 676L596 333L249 -10L48 333ZM519 333L375 582L125 333L269 84L519 333Z" />
<glyph unicode="&#xf6c1;" glyph-name="uniF6C1" horiz-adv-x="508" d="M36 91Q64 78 105 67T195 55Q232 55 264 64T318 89T354 129T367 182Q367 212 352 231T317 263Q283 284 246 299T169 337Q131 357 109 390T86 465Q86 519 106 557T160 621T242 657T343 669Q397
669 440 660T519 635L487 573Q461 585 424 594T336 604Q261 604 215 573T168 482Q168 451 183 432T220 401Q251 382 290 366T368 327Q404 307 425 275T447 198Q447 144 427 105T372 40T289 2T188 -11Q133 -11 87 0T3 29L36 91ZM72 -155Q86 -160 101 -164T136 -168Q174
-168 191 -155T208 -118Q208 -97 187 -89T117 -78L146 -29Q281 -34 281 -109Q281 -166 247 -195T132 -224Q104 -224 81 -219T42 -205L72 -155Z" />
<glyph unicode="&#xf6c2;" glyph-name="uniF6C2" horiz-adv-x="425" d="M31 77Q65 63 95 57T166 50Q183 50 202 52T238 63T264 86T275 127Q275 161 233 181Q211 193 184 203T135 224Q98 242 79 265T59 318Q59 363 78 392T128 438T194 462T266 469Q314 469 348
461T403 444L378 387Q355 396 324 402T256 409Q198 409 168 387T137 334Q137 312 150 301T185 279Q195 275 208 269T236 257T263 245T286 235Q314 221 333 198T353 143Q353 62 299 26T154 -11Q109 -11 74 -4T4 19L31 77ZM35 -155Q49 -160 64 -164T99 -168Q137 -168
154 -155T171 -118Q171 -97 150 -89T80 -78L109 -29Q244 -34 244 -109Q244 -166 210 -195T95 -224Q67 -224 44 -219T5 -205L35 -155Z" />
<glyph unicode="&#xf6c3;" glyph-name="commaaccent" horiz-adv-x="356" d="M81 -228Q119 -190 139 -147T170 -54H241Q228 -120 199 -170T121 -263L81 -228Z" />
<glyph unicode="&#xf8ff;" glyph-name="" horiz-adv-x="851" d="M438 333V0H105V666H771V333H438Z" />
<glyph unicode="&#xfb01;" glyph-name="fi" horiz-adv-x="517" d="M135 458L146 508Q157 560 178 595T230 651T299 682T383 692Q431 692 467 686T531 669L511 577H432L444 625Q431 629 416 632T377 635Q308 635 271 599T221 499L212 458H485L388 0H311L395 396H200L106
-45Q95 -98 76 -132T32 -186T-25 -215T-93 -223Q-107 -223 -120 -221T-146 -217L-127 -155Q-116 -157 -106 -158T-86 -160Q-38 -160 -10 -132T31 -40L123 396H55L68 458H135Z" />
<glyph unicode="&#xfb02;" glyph-name="fl" horiz-adv-x="531" d="M440 -3Q437 -4 431 -4Q426 -5 413 -5Q336 -5 336 66Q336 77 338 90T343 117L452 624Q422 633 377 633Q308 633 272 599T222 502L213 458H354L342 396H200L106 -45Q95 -98 76 -132T32 -186T-25
-215T-93 -223Q-107 -223 -120 -221T-146 -217L-127 -155Q-116 -157 -106 -158T-86 -160Q-38 -160 -10 -132T31 -40L123 396H55L68 458H136L146 508Q157 560 179 595T232 651T302 682T388 692Q434 692 470 686T538 669L421 119Q419 107 418 98T416 82Q416 65 424
60T452 55L440 -3Z" />
</font>
</defs>
</svg>
