<?xml version="1.0" encoding="utf-8"?>
<!-- Generator: Adobe Illustrator 22.1.0, SVG Export Plug-In . SVG Version: 6.00 Build 0)  -->
<svg version="1.1" id="Layer_1" xmlns="http://www.w3.org/2000/svg" xmlns:xlink="http://www.w3.org/1999/xlink" x="0px" y="0px"
	 viewBox="0 0 792 612" style="enable-background:new 0 0 792 612;" xml:space="preserve">
<style type="text/css">
	.st0{fill:#6D6E71;}
	.st1{fill:url(#SVGID_1_);}
	.st2{fill:url(#SVGID_2_);}
	.st3{fill:url(#SVGID_3_);}
	.st4{fill:#616D76;}
	.st5{fill:#879AA4;}
	.st6{fill:#8E9BA1;}
	.st7{fill:url(#SVGID_4_);}
	.st8{fill:url(#SVGID_5_);}
	.st9{fill:#B5BEC4;}
	.st10{fill:none;}
	.st11{fill:url(#SVGID_6_);}
	.st12{fill:#505C61;}
	.st13{fill:#0B2028;}
	.st14{fill:#8F9DA5;}
	.st15{fill:url(#SVGID_7_);}
	.st16{fill:url(#SVGID_8_);}
	.st17{fill:url(#SVGID_9_);}
	.st18{fill:url(#SVGID_10_);}
	.st19{fill:url(#SVGID_11_);}
	.st20{fill:url(#SVGID_12_);}
	.st21{fill:#FFFFFF;}
</style>
<polygon class="st0" points="423.5,449.1 423.5,455.1 395.3,455.1 395.3,407.9 402.8,407.9 402.8,449.1 "/>
<path class="st0" d="M428.3,422.3h7.4v32.9h-7.4V422.3z M428.2,408.4h7.4v6.6h-7.4V408.4z"/>
<g>
	<path class="st0" d="M464.7,422.3v5.6h-11.3v27.3H446v-27.3h-4.8v-5.6h4.7v-4c0-9.9,5.5-12.9,13.1-12.9c2.6,0,5.4,0.4,7.5,1.2
		l-1.6,5.3c-1.6-0.6-3.3-0.9-5.1-0.9c-4.7,0-6.5,2.2-6.5,7.3v4H464.7z"/>
	<path class="st0" d="M474.7,435.4H489c0-6.2-2.2-8.9-6.4-8.9C476.9,426.6,474.9,429.6,474.7,435.4 M467,438.5
		c0-11.4,5.2-17,15.7-17c11.5,0,13.9,6.8,13.9,16.1v2.9h-22c0.1,7,2.9,10,9.4,10c4.9,0,8-1.6,10.6-2.6l1.6,4.7
		c-2.5,1.5-8.1,3.3-13.3,3.3C471.1,455.9,467,450.2,467,438.5"/>
	<path class="st0" d="M497.4,421.3c3.1-5.3,3.7-9.9,3.7-15.5h6.9c-0.1,8.4-2,13.3-5.9,18.4L497.4,421.3z"/>
	<path class="st0" d="M528,437c4,1.4,7.3,3.5,7.3,8.9c0,6.8-5.3,10-14.1,10c-5,0-9.2-0.9-12.4-2.3l2.3-5.4c2.6,1.3,6.1,2.3,10.2,2.3
		c3.9,0,6.9-0.8,6.9-3.9c0-1.9-1.4-3.1-4.2-4.1c-2.6-0.9-5.5-1.7-7.8-2.6c-4-1.5-7-3.6-7-8.6c0-7,6.2-9.8,13.7-9.8
		c5.3,0,9,1,12.1,2.2l-2.3,5.4c-2.6-1.3-6-2.2-9.8-2.2c-4.7,0-6.7,1.5-6.7,3.7c0,1.8,1.2,2.8,4,3.9C522,435.1,525.7,436.2,528,437"
		/>
	<path class="st0" d="M597.2,452.7c-4.2,1.9-10.3,3.2-16.9,3.2c-15.2-0.1-22-8.5-22-24.4c0-16.5,8.6-24.4,22.7-24.4
		c6.7,0,12.6,2.1,16.2,6.5l-4.6,4.1c-2.6-2.8-6.3-4.7-11.6-4.7c-10.2,0-15.1,6.8-15.1,19.2c0,11.4,4.9,17.6,14.7,17.6
		c3.5,0,6.6-0.5,9.2-1.2V436H579v-5.8h18.2V452.7z"/>
</g>
<polygon class="st0" points="423.5,449.1 423.5,455.1 395.3,455.1 395.3,407.9 402.8,407.9 402.8,449.1 "/>
<g>
	<path class="st0" d="M627.1,438.3c0-6.4-1.4-11.6-7.7-11.6c-7,0-9.2,4.3-9.2,12.4c0,6.4,1.5,11.6,7.6,11.6
		C625,450.7,627.1,446.4,627.1,438.3 M602.7,438.6c0-11.4,5.3-17.1,16.7-17.1c11.7,0,15.2,6.6,15.2,17.4c0,11.4-5.3,17-16.8,17
		C606.2,455.9,602.7,449.4,602.7,438.6"/>
	<path class="st0" d="M663.6,438.3c0-6.4-1.4-11.6-7.7-11.6c-7,0-9.1,4.3-9.1,12.4c0,6.4,1.5,11.6,7.6,11.6
		C661.5,450.7,663.6,446.4,663.6,438.3 M639.2,438.6c0-11.4,5.3-17.1,16.7-17.1c11.7,0,15.2,6.6,15.2,17.4c0,11.4-5.3,17-16.8,17
		C642.7,455.9,639.2,449.4,639.2,438.6"/>
	<path class="st0" d="M698.2,448.1v-19.8c-1.9-1.1-3.6-1.5-5.4-1.5c-5.7,0-9.3,3.2-9.3,12.2c0,6.8,2.3,11.5,8.4,11.5
		C694.3,450.6,696.3,449.8,698.2,448.1 M675.9,439.5c0-10.5,4.3-17.9,15.8-17.9c2.5,0,4.5,0.4,6.6,1.4v-16.6l7.4-0.9v41.1l0.6,8.6
		h-6.4l-0.6-2.2c-2.9,2.1-6.1,2.9-9.7,2.9C680.1,455.9,675.9,449.7,675.9,439.5"/>
</g>
<polygon class="st0" points="432.6,199 395.3,199 395.3,360.6 510,360.6 510,329.1 432.6,329.1 "/>
<g>
	<path class="st0" d="M592.1,299h30.4v28.3c-5.6,2.1-16.5,4.3-26.9,4.3c-33.6,0-44.8-17.1-44.8-51.7c0-33.1,10.7-52.5,44.3-52.5
		c18.7,0,29.3,5.9,38.1,17.1l23.2-21.3c-14.1-20.3-38.9-26.4-62.1-26.4c-52.3,0-79.7,28.5-79.7,82.9c0,54.1,24.8,83.5,79.5,83.5
		c25.1,0,49.6-6.4,62.9-15.7v-78.4h-64.8V299z"/>
</g>
<g>
	
		<radialGradient id="SVGID_1_" cx="-22.1314" cy="621.3336" r="4.0803" gradientTransform="matrix(31.9334 0 0 -31.9334 916.522 20117.9258)" gradientUnits="userSpaceOnUse">
		<stop  offset="0" style="stop-color:#C00C3F"/>
		<stop  offset="0.5" style="stop-color:#C00C3F"/>
		<stop  offset="0.7363" style="stop-color:#BF0C3E"/>
		<stop  offset="0.8358" style="stop-color:#B90A3B"/>
		<stop  offset="0.9094" style="stop-color:#B00737"/>
		<stop  offset="0.9701" style="stop-color:#A30330"/>
		<stop  offset="1" style="stop-color:#9A002B"/>
	</radialGradient>
	<path class="st1" d="M214.4,155.5c-68.9,0-124.9,55.9-124.9,125c0,69,56,125,124.9,125c68.8,0,124.5-55.4,125.1-124v-2
		C338.9,210.9,283.1,155.5,214.4,155.5z"/>
	<linearGradient id="SVGID_2_" gradientUnits="userSpaceOnUse" x1="163.2355" y1="171.6157" x2="229.1762" y2="352.7861">
		<stop  offset="0" style="stop-color:#F48996"/>
		<stop  offset="1.118183e-02" style="stop-color:#F28693"/>
		<stop  offset="0.263" style="stop-color:#DB5A69"/>
		<stop  offset="0.4875" style="stop-color:#CC3750"/>
		<stop  offset="0.6746" style="stop-color:#C31B43"/>
		<stop  offset="0.8011" style="stop-color:#C00C3F"/>
		<stop  offset="1" style="stop-color:#C00C3F"/>
	</linearGradient>
	<path class="st2" d="M129.8,195.8c-41.8,41.8-46,105.4-9.3,142.1c36.7,36.7,100.3,32.5,142-9.3c41.8-41.9,46.1-105.5,9.4-142.2
		c-16.7-16.7-39.1-25-62.5-25C181.7,161.5,152.5,173.1,129.8,195.8"/>
	<linearGradient id="SVGID_3_" gradientUnits="userSpaceOnUse" x1="131.022" y1="216.3917" x2="282.2697" y2="367.6394">
		<stop  offset="0" style="stop-color:#CE425C"/>
		<stop  offset="9.019595e-02" style="stop-color:#BD3551"/>
		<stop  offset="0.2501" style="stop-color:#A82242"/>
		<stop  offset="0.431" style="stop-color:#9B1338"/>
		<stop  offset="0.6483" style="stop-color:#930933"/>
		<stop  offset="1" style="stop-color:#910531"/>
	</linearGradient>
	<path class="st3" d="M207.9,336.5l3.1-1.8l0-105.6l-0.8-1.2l0.8-0.2v-0.2h0.5l9.3-3.2l1.7,2.9c0,0,0.3,0.2,0.2,0.8l-0.1,96.2h22.7
		l1.8,2.8c0.2,0.2,0.3,0.4,0.3,1.2v9.7c0,0.5-0.3,0.8-0.7,0.8h-34.8c-0.8,0-1.6-0.4-1.7-0.5L207.9,336.5z M320.7,274.7l-77.3,0v12.4
		l1.9,2.6l0,0c0,0,0.2,0.3,0.7,0.3h58.9h5.7h0h0.1c-3.3,48.9-44.6,87.2-93.9,87.2c-25.1,0-48.7-9.8-66.5-27.4
		c-17.7-17.7-27.5-41.1-27.5-66.1c0-25,9.2-49,27-66.6c17.9-17.6,40.3-26.9,67.2-27.5l5.1-0.1h0.6c0.4,0,0.7,0,0.7-0.8v-10.1
		c0-0.7-0.3-1.1-0.3-1.1l-2.3-2.9l-5.1,0.7l-2.6,0.9c-58.7,0-102.7,49.1-102.7,107.5c0,28.3,11.1,54.9,31.2,74.9
		c20.1,20,46.7,30.1,75.2,30.1c28.6,0,55.4-10.8,75.5-30.8c20.1-20,31.2-46.6,31.2-74.9v-6.1L320.7,274.7z M176.1,225.8
		c-9.3,0-16.8,7.5-16.8,16.7c0,9.2,7.5,16.7,16.8,16.7c9.3,0,16.8-7.5,16.8-16.7C192.9,233.2,185.4,225.8,176.1,225.8z"/>
	<polygon class="st4" points="210.5,334 207.9,336.5 245.4,336.5 243,334 	"/>
	<polygon class="st5" points="243,326.5 245.4,324.1 220.9,324.1 218,326.5 	"/>
	<polygon class="st6" points="220.9,224.3 207.9,224.3 210.4,226.6 218.1,226.6 	"/>
	<linearGradient id="SVGID_4_" gradientUnits="userSpaceOnUse" x1="218.127" y1="275.2998" x2="220.9014" y2="275.2998">
		<stop  offset="0" style="stop-color:#B5BEC4"/>
		<stop  offset="0.1753" style="stop-color:#99A2A9"/>
		<stop  offset="0.569" style="stop-color:#646C74"/>
		<stop  offset="0.8544" style="stop-color:#424950"/>
		<stop  offset="1" style="stop-color:#333940"/>
	</linearGradient>
	<polygon class="st7" points="218.2,326.3 220.9,324.1 220.9,224.3 218.1,226.6 	"/>
	<linearGradient id="SVGID_5_" gradientUnits="userSpaceOnUse" x1="242.9961" y1="330.291" x2="245.438" y2="330.291">
		<stop  offset="0" style="stop-color:#B4BCC2"/>
		<stop  offset="0.1351" style="stop-color:#989FA4"/>
		<stop  offset="0.548" style="stop-color:#585D61"/>
		<stop  offset="0.8473" style="stop-color:#373E41"/>
		<stop  offset="1" style="stop-color:#2B3337"/>
	</linearGradient>
	<polygon class="st8" points="243,326.5 243,334 245.4,336.5 245.4,324.1 	"/>
	<polygon class="st9" points="207.9,224.3 207.9,336.5 210.5,334 210.4,226.6 	"/>
	<path class="st10" d="M160.6,240.5c0,7.6,6.2,13.8,13.9,13.8c7.6,0,13.9-6.2,13.9-13.8c0-7.7-6.2-13.9-13.9-13.9
		C166.8,226.7,160.6,232.9,160.6,240.5z"/>
	
		<linearGradient id="SVGID_6_" gradientUnits="userSpaceOnUse" x1="-33.7471" y1="633.4816" x2="-30.9028" y2="633.4816" gradientTransform="matrix(8.1027 8.1027 8.1027 -8.1027 -4696.5391 5635.3174)">
		<stop  offset="0" style="stop-color:#ABBAC3"/>
		<stop  offset="1" style="stop-color:#202428"/>
	</linearGradient>
	<path class="st11" d="M158.2,240.5c0,9,7.3,16.3,16.3,16.3c9,0,16.3-7.3,16.3-16.3c0-9-7.3-16.3-16.3-16.3
		C165.5,224.2,158.2,231.6,158.2,240.5z M188.4,240.5c0,7.6-6.2,13.8-13.9,13.8c-7.7,0-13.9-6.2-13.9-13.8c0-7.7,6.2-13.9,13.9-13.9
		C182.1,226.7,188.4,232.9,188.4,240.5z"/>
	<polygon class="st12" points="310.1,284.3 245.4,284.2 243,286.7 307.7,286.7 309,285.4 	"/>
	<polygon class="st13" points="220.7,187 220.7,187 220.7,187 	"/>
	<polygon class="st14" points="245.4,276.9 317.8,276.8 320.3,274.3 243,274.3 	"/>
	
		<linearGradient id="SVGID_7_" gradientUnits="userSpaceOnUse" x1="-25.7804" y1="612.2635" x2="-22.9365" y2="612.2635" gradientTransform="matrix(53.1048 53.1048 53.1048 -53.1048 -31015.1953 34097.9023)">
		<stop  offset="0" style="stop-color:#B5BEC4"/>
		<stop  offset="1" style="stop-color:#3E454D"/>
	</linearGradient>
	<path class="st15" d="M320.3,280.4v-6.1l-2.5,2.5v3.6c0,27.6-10.7,53.6-30.3,73.2c-19.5,19.6-45.5,30.3-73.3,30.3
		c-27.6,0-53.6-10.8-73.1-30.3c-19.5-19.6-30.3-45.6-30.3-73.2c0-57.1,46.4-103.5,103.4-103.5l4,0l2.4-2.3l-6.4-0.1
		c-58.3,0-105.8,47.5-105.8,106c0,28.3,11,54.9,31,74.9c20,20,46.5,31,74.8,31c28.4,0,55-11,75-31
		C309.3,335.3,320.3,308.7,320.3,280.4z"/>
	
		<linearGradient id="SVGID_8_" gradientUnits="userSpaceOnUse" x1="-27.2213" y1="604.799" x2="-24.3773" y2="604.799" gradientTransform="matrix(-67.4051 0 0 67.4051 -1524.6844 -40486.1055)">
		<stop  offset="0" style="stop-color:#B5BEC4"/>
		<stop  offset="1" style="stop-color:#485059"/>
	</linearGradient>
	<path class="st16" d="M218.2,184.6l-2.7-0.1h-2.6c-25,0.4-48.6,10.3-66.4,28.1c-18.1,18.1-28,42.2-28,67.9c0,25.6,10,49.7,28,67.8
		c17.9,17.8,41.5,27.8,66.6,28.1h2.5c49.7-0.6,91.1-39.7,94.5-89.5l0.1-2.6l-1.2,1.1l-1.3,1.3c-3.3,48.9-44.3,87.2-93.3,87.2
		c-25,0-48.4-9.8-66.1-27.4c-17.6-17.7-27.3-41.1-27.3-66.1c0-25,9.7-48.5,27.3-66.1c17.7-17.6,41.2-27.3,66.1-27.3l6.3,0.1
		L218.2,184.6z"/>
	<path class="st13" d="M220.7,187"/>
	
		<linearGradient id="SVGID_9_" gradientUnits="userSpaceOnUse" x1="-25.8935" y1="603.4126" x2="-25.8935" y2="603.4126" gradientTransform="matrix(-67.4051 0 0 67.4051 -1524.6844 -40486.1055)">
		<stop  offset="0" style="stop-color:#A9B8C1"/>
		<stop  offset="1" style="stop-color:#0B2028"/>
	</linearGradient>
	<path class="st17" d="M220.7,187"/>
	<polygon class="st9" points="245.4,276.9 243,274.3 243,286.7 245.4,284.2 	"/>
	<linearGradient id="SVGID_10_" gradientUnits="userSpaceOnUse" x1="218.2534" y1="180.7525" x2="220.6724" y2="180.7525">
		<stop  offset="0" style="stop-color:#B4BCC2"/>
		<stop  offset="0.1351" style="stop-color:#989FA4"/>
		<stop  offset="0.548" style="stop-color:#585D61"/>
		<stop  offset="0.8473" style="stop-color:#373E41"/>
		<stop  offset="1" style="stop-color:#2B3337"/>
	</linearGradient>
	<polygon class="st18" points="218.3,184.6 220.7,187 220.7,174.5 218.3,176.9 	"/>
	
		<radialGradient id="SVGID_11_" cx="89.5789" cy="-326.2377" r="229.4647" gradientTransform="matrix(0.6971 0 0 0.6971 109.7092 463.5307)" gradientUnits="userSpaceOnUse">
		<stop  offset="0" style="stop-color:#FFFFFF"/>
		<stop  offset="0.35" style="stop-color:#FFFFFF"/>
		<stop  offset="0.5295" style="stop-color:#F6F8F9"/>
		<stop  offset="0.7147" style="stop-color:#E6EBEF"/>
		<stop  offset="0.902" style="stop-color:#CFD9DE"/>
		<stop  offset="1" style="stop-color:#C0CCD3"/>
	</radialGradient>
	<path class="st19" d="M209.3,225.6v109.5h34.8v-9.8h-24.8v-99.8H209.3z M213,175.8c-57,0.7-103.2,47.4-103.2,104.6
		c0,28,10.9,54.2,30.6,74c19.7,19.8,46,30.6,73.9,30.6c28,0,54.3-10.9,74-30.6c19.8-19.8,30.6-46,30.6-74v-4.8l-4.1,0h-70.5v9.7H309
		c0,0.2,0,1.2,0,1.4c-3.4,49.3-44.5,88.5-94.6,88.5c-25.3,0-49.1-9.9-67.1-27.8c-17.9-17.9-27.7-41.7-27.7-67
		c0-25.4,9.9-49.2,27.7-67.1c18-17.9,41.8-27.7,67.1-27.7c1.1,0,3.8,0,5,0v-9.8c-1,0-2.6,0-3.9-0.1H213z"/>
	
		<radialGradient id="SVGID_12_" cx="83.9326" cy="-327.8127" r="33.5063" gradientTransform="matrix(0.6971 0 0 0.6971 109.7092 463.5307)" gradientUnits="userSpaceOnUse">
		<stop  offset="0" style="stop-color:#FFFFFF"/>
		<stop  offset="0.35" style="stop-color:#FFFFFF"/>
		<stop  offset="0.5653" style="stop-color:#F6F8F9"/>
		<stop  offset="0.7879" style="stop-color:#E6EBEF"/>
		<stop  offset="1" style="stop-color:#D0DADF"/>
	</radialGradient>
	<path class="st20" d="M159.4,240.5c0,8.3,6.8,14.9,15,14.9c8.2,0,15-6.7,15-14.9c0-8.3-6.8-15-15-15
		C166.2,225.5,159.4,232.2,159.4,240.5"/>
	<g>
		<path class="st21" d="M177.1,228.2c3.4,0,6.6,1.2,9.1,3.2c-2.7-3.6-7-5.9-11.8-5.9c-8.3,0-15,6.7-15,15c0,4.8,2.3,9,5.8,11.7
			c-1.9-2.5-3.1-5.6-3.1-9C162.1,234.9,168.9,228.2,177.1,228.2"/>
		<path class="st21" d="M219.3,175.8c-1.3,0-3.8-0.1-5.1-0.1c-57.6,0-104.5,47-104.5,104.6c0,28,10.9,54.2,30.6,74
			c0.6,0.6,1.3,1.2,1.9,1.8c-18.6-19.6-28.9-45-28.9-72.2C113.4,226.5,154.2,178.7,219.3,175.8"/>
		<path class="st21" d="M219.3,325.4c0,0,7.2,2.1,24.8,2.1v-2.1H219.3z"/>
		<path class="st21" d="M219.3,228.7v-3.1h-10v109.5c0,0,3.1-16.7,3.1-106.5H219.3z"/>
		<path class="st21" d="M318.9,275.6l-74.7,0v9.7h2.7v-7C312,278.4,318.9,275.6,318.9,275.6"/>
		<path class="st21" d="M309,285.4c0,0.2,0,1.3-0.1,1.4c-3.3,49.3-44.4,88.4-94.6,88.4c-25.3,0-49.1-9.9-67.1-27.8
			c-11.7-11.7-19.9-25.9-24.2-41.5c11.2,40.8,48.6,70.4,92.9,70.4c47.6,0,91.5-37.3,94.3-91H309z"/>
	</g>
</g>
</svg>
