<svg width="217" height="26" viewBox="0 0 217 26" fill="none" xmlns="http://www.w3.org/2000/svg">
<path d="M44.2806 2.03387C39.4572 2.03387 35.1468 4.52507 35.1468 9.12773C35.1468 14.4061 42.7915 14.7707 42.7915 17.4224C42.7915 18.5389 41.5074 19.5384 39.3142 19.5384C36.2016 19.5384 33.8753 18.1419 33.8753 18.1419L32.8799 22.7865C32.8799 22.7865 35.5598 23.9661 39.1178 23.9661C44.3913 23.9661 48.541 21.3526 48.541 16.6712C48.541 11.0937 40.8644 10.7399 40.8644 8.27869C40.8644 7.40405 41.9185 6.44572 44.1054 6.44572C46.5729 6.44572 48.5861 7.46139 48.5861 7.46139L49.5603 2.97549C49.5603 2.97549 47.3698 2.03387 44.2806 2.03387V2.03387ZM0.150852 2.37243L0.0340576 3.04955C0.0340576 3.04955 2.06329 3.41961 3.89093 4.1578C6.24418 5.00428 6.41182 5.49706 6.80815 7.02761L11.1269 23.617H16.9162L25.835 2.37243H20.059L14.3281 16.8167L11.9896 4.57306C11.7751 3.17179 10.6888 2.37243 9.35904 2.37243H0.150852V2.37243ZM28.1577 2.37243L23.6266 23.617H29.1345L33.6497 2.37243H28.1577V2.37243ZM58.8773 2.37243C57.5491 2.37243 56.8454 3.08098 56.3291 4.31914L48.2596 23.617H54.0356L55.1531 20.4007H62.19L62.8696 23.617H67.966L63.5199 2.37243H58.8773V2.37243ZM59.6285 8.11206L61.3406 16.0841H56.7538L59.6285 8.11206V8.11206Z" fill="#1434CB"/>
<path d="M93.774 24.4169V22.7911C93.7835 22.6544 93.7637 22.5172 93.7158 22.3887C93.6678 22.2602 93.5929 22.1433 93.496 22.0459C93.399 21.9484 93.2823 21.8727 93.1536 21.8236C93.0249 21.7746 92.8872 21.7534 92.7496 21.7615C92.5696 21.7498 92.3896 21.7864 92.2286 21.8674C92.0676 21.9484 91.9314 22.0709 91.8342 22.2221C91.7456 22.0754 91.6189 21.9553 91.4674 21.8742C91.3159 21.7931 91.1452 21.7542 90.9733 21.7615C90.8235 21.754 90.6743 21.7856 90.5405 21.8531C90.4067 21.9206 90.2929 22.0216 90.2105 22.1463V21.8266H89.6438V24.4169H90.2159V22.9808C90.2035 22.8922 90.2111 22.8019 90.2379 22.7165C90.2648 22.6312 90.3103 22.5528 90.3713 22.487C90.4322 22.4212 90.5071 22.3696 90.5904 22.336C90.6738 22.3024 90.7636 22.2876 90.8534 22.2926C91.2294 22.2926 91.4201 22.5364 91.4201 22.9754V24.4169H91.9922V22.9808C91.9808 22.8923 91.989 22.8025 92.0162 22.7175C92.0434 22.6325 92.089 22.5545 92.1497 22.4889C92.2105 22.4233 92.2849 22.3718 92.3679 22.3378C92.4508 22.3039 92.5402 22.2885 92.6297 22.2926C93.0166 22.2926 93.2018 22.5364 93.2018 22.9754V24.4169H93.774ZM102.241 21.8266H101.315V21.0408H100.743V21.8266H100.214V22.3414H100.743V23.5227C100.743 24.1242 100.977 24.4819 101.647 24.4819C101.898 24.4827 102.143 24.4132 102.356 24.2814L102.192 23.7991C102.04 23.8892 101.868 23.9396 101.691 23.9454C101.408 23.9454 101.315 23.7719 101.315 23.5119V22.3414H102.241V21.8266ZM107.074 21.7615C106.936 21.7575 106.8 21.7906 106.679 21.8573C106.558 21.9241 106.457 22.022 106.388 22.1408V21.8266H105.827V24.4169H106.393V22.9645C106.393 22.5364 106.579 22.298 106.949 22.298C107.07 22.2963 107.191 22.3184 107.303 22.363L107.478 21.8319C107.348 21.7859 107.212 21.7621 107.074 21.7615V21.7615ZM99.7676 22.0325C99.4469 21.8428 99.0781 21.7487 98.7051 21.7615C98.0458 21.7615 97.6208 22.0758 97.6208 22.5906C97.6208 23.0133 97.9368 23.2735 98.5198 23.3547L98.7868 23.3926C99.0974 23.4359 99.2445 23.5173 99.2445 23.6636C99.2445 23.8641 99.0374 23.9779 98.6506 23.9779C98.3394 23.9868 98.0343 23.8914 97.7842 23.7069L97.5173 24.1459C97.8473 24.3752 98.2427 24.493 98.6452 24.4819C99.3971 24.4819 99.833 24.1296 99.833 23.6365C99.833 23.1813 99.4897 22.9428 98.9231 22.8615L98.6561 22.8236C98.4109 22.7911 98.2147 22.7424 98.2147 22.569C98.2147 22.3793 98.3999 22.2655 98.7105 22.2655C98.9958 22.2698 99.2752 22.3462 99.5224 22.4877L99.7676 22.0325ZM114.948 21.7615C114.81 21.7575 114.673 21.7906 114.552 21.8573C114.431 21.9241 114.331 22.022 114.261 22.1408V21.8266H113.7V24.4169H114.267V22.9645C114.267 22.5364 114.452 22.298 114.822 22.298C114.944 22.2963 115.064 22.3184 115.177 22.363L115.351 21.8319C115.222 21.7859 115.085 21.7621 114.948 21.7615V21.7615ZM107.646 23.1216C107.639 23.3041 107.67 23.4862 107.737 23.656C107.805 23.8259 107.907 23.9799 108.038 24.108C108.169 24.2361 108.325 24.3356 108.497 24.4C108.669 24.4644 108.853 24.4923 109.036 24.4819C109.376 24.4989 109.71 24.3887 109.973 24.173L109.701 23.7178C109.505 23.8663 109.266 23.948 109.02 23.9508C108.807 23.938 108.608 23.8451 108.462 23.691C108.316 23.5369 108.235 23.3333 108.235 23.1217C108.235 22.9101 108.316 22.7065 108.462 22.5524C108.608 22.3983 108.807 22.3054 109.02 22.2926C109.266 22.2954 109.505 22.3771 109.701 22.5256L109.973 22.0704C109.71 21.8547 109.376 21.7445 109.036 21.7615C108.853 21.7511 108.669 21.7791 108.497 21.8434C108.325 21.9078 108.169 22.0073 108.038 22.1354C107.907 22.2635 107.805 22.4174 107.737 22.5873C107.67 22.7571 107.639 22.9392 107.646 23.1216V23.1216ZM112.954 23.1216V21.8266H112.387V22.1408C112.29 22.0169 112.165 21.9177 112.022 21.8518C111.879 21.7858 111.722 21.7548 111.564 21.7615C111.213 21.7786 110.882 21.9294 110.64 22.1826C110.397 22.4358 110.262 22.7721 110.262 23.1217C110.262 23.4714 110.397 23.8076 110.64 24.0608C110.882 24.314 111.213 24.4648 111.564 24.4819C111.722 24.4886 111.879 24.4577 112.022 24.3917C112.165 24.3256 112.29 24.2265 112.387 24.1025V24.4169H112.954V23.1216ZM110.845 23.1216C110.854 22.9688 110.907 22.8218 110.999 22.6989C111.091 22.576 111.217 22.4825 111.361 22.4299C111.506 22.3773 111.663 22.3679 111.813 22.4029C111.962 22.4379 112.099 22.5158 112.205 22.6269C112.311 22.738 112.381 22.8776 112.409 23.0283C112.436 23.179 112.418 23.3343 112.357 23.475C112.297 23.6158 112.196 23.7359 112.068 23.8204C111.939 23.9049 111.789 23.9503 111.635 23.9508C111.527 23.9523 111.42 23.9315 111.321 23.8897C111.221 23.848 111.132 23.7862 111.057 23.7083C110.983 23.6304 110.926 23.5381 110.889 23.4371C110.853 23.3361 110.838 23.2287 110.845 23.1216V23.1216ZM104.007 21.7615C103.653 21.78 103.321 21.9339 103.079 22.1909C102.837 22.4479 102.705 22.7881 102.71 23.14C102.715 23.4919 102.857 23.8282 103.106 24.0784C103.355 24.3286 103.691 24.4732 104.045 24.4819C104.434 24.4955 104.814 24.3662 105.113 24.1188L104.835 23.7015C104.62 23.873 104.353 23.9684 104.078 23.9725C103.89 23.9882 103.704 23.9307 103.559 23.8124C103.413 23.694 103.32 23.5241 103.298 23.3384H105.233C105.238 23.268 105.244 23.1976 105.244 23.1216C105.238 22.3143 104.737 21.7615 104.007 21.7615V21.7615ZM103.996 22.2655C104.167 22.2622 104.333 22.3265 104.456 22.4443C104.58 22.5621 104.651 22.7239 104.655 22.8941H103.304C103.314 22.7202 103.392 22.5571 103.521 22.4396C103.65 22.3221 103.821 22.2596 103.996 22.2655V22.2655ZM118.212 23.1216V20.7861H117.645V22.1408C117.548 22.0169 117.423 21.9177 117.28 21.8518C117.137 21.7858 116.98 21.7548 116.822 21.7615C116.471 21.7786 116.14 21.9294 115.898 22.1826C115.655 22.4358 115.52 22.7721 115.52 23.1217C115.52 23.4714 115.655 23.8076 115.898 24.0608C116.14 24.314 116.471 24.4648 116.822 24.4819C116.98 24.4886 117.137 24.4577 117.28 24.3917C117.423 24.3256 117.548 24.2265 117.645 24.1025V24.4169H118.212V23.1216ZM119.156 24.0415C119.191 24.0412 119.226 24.0481 119.259 24.0617C119.29 24.0746 119.318 24.0934 119.343 24.1169C119.366 24.1404 119.386 24.1682 119.399 24.1989C119.413 24.2305 119.42 24.2645 119.42 24.2988C119.42 24.3331 119.413 24.3671 119.399 24.3987C119.386 24.4292 119.366 24.457 119.343 24.4804C119.318 24.5039 119.29 24.5227 119.259 24.5359C119.226 24.5497 119.191 24.5567 119.156 24.5564C119.104 24.5569 119.054 24.5423 119.01 24.5142C118.967 24.4861 118.932 24.446 118.912 24.3987C118.898 24.3671 118.891 24.3331 118.891 24.2988C118.891 24.2645 118.898 24.2305 118.912 24.1989C118.925 24.1683 118.944 24.1404 118.968 24.1169C118.992 24.0932 119.021 24.0744 119.052 24.0617C119.085 24.0481 119.12 24.0412 119.156 24.0415V24.0415ZM119.156 24.4996C119.183 24.4998 119.21 24.4945 119.234 24.4838C119.258 24.4736 119.28 24.4591 119.298 24.4409C119.335 24.4031 119.356 24.3521 119.356 24.2989C119.356 24.2457 119.335 24.1947 119.298 24.1569C119.28 24.1388 119.258 24.1244 119.234 24.1144C119.21 24.1039 119.183 24.0987 119.156 24.0989C119.129 24.0987 119.102 24.104 119.077 24.1144C119.053 24.1242 119.031 24.1387 119.012 24.1569C118.975 24.1947 118.954 24.2457 118.954 24.2989C118.954 24.3521 118.975 24.4031 119.012 24.4409C119.031 24.4592 119.053 24.4738 119.077 24.4838C119.102 24.4944 119.129 24.4998 119.156 24.4996V24.4996ZM119.171 24.1784C119.197 24.1767 119.222 24.184 119.243 24.1989C119.251 24.2057 119.258 24.2142 119.262 24.2239C119.266 24.2336 119.268 24.2442 119.268 24.2548C119.268 24.2639 119.267 24.2729 119.263 24.2813C119.26 24.2897 119.255 24.2973 119.248 24.3036C119.232 24.3176 119.212 24.3259 119.191 24.3273L119.27 24.4176H119.208L119.135 24.3279H119.112V24.4176H119.06V24.1784H119.171ZM119.112 24.2232V24.287H119.171C119.182 24.2875 119.193 24.2848 119.203 24.279C119.207 24.2764 119.21 24.2728 119.213 24.2685C119.215 24.2643 119.216 24.2595 119.215 24.2548C119.216 24.2501 119.215 24.2455 119.212 24.2413C119.21 24.2372 119.207 24.2336 119.203 24.2311C119.193 24.2254 119.182 24.2227 119.171 24.2232H119.112ZM116.103 23.1216C116.112 22.9688 116.165 22.8219 116.257 22.6989C116.349 22.576 116.475 22.4825 116.619 22.4299C116.764 22.3773 116.921 22.368 117.071 22.403C117.221 22.438 117.357 22.5159 117.463 22.627C117.569 22.7381 117.639 22.8776 117.667 23.0283C117.694 23.179 117.676 23.3344 117.615 23.4751C117.555 23.6158 117.454 23.7359 117.326 23.8204C117.197 23.9049 117.047 23.9503 116.893 23.9508C116.785 23.9522 116.678 23.9315 116.579 23.8897C116.479 23.848 116.39 23.7862 116.315 23.7083C116.241 23.6304 116.184 23.5381 116.147 23.4371C116.111 23.3361 116.096 23.2287 116.103 23.1216V23.1216ZM96.967 23.1216V21.8266H96.4003V22.1408C96.3035 22.0169 96.1784 21.9177 96.0352 21.8518C95.8921 21.7858 95.7351 21.7548 95.5775 21.7615C95.2264 21.7786 94.8953 21.9294 94.6529 22.1826C94.4105 22.4358 94.2753 22.7721 94.2753 23.1217C94.2753 23.4714 94.4105 23.8076 94.6529 24.0608C94.8953 24.314 95.2264 24.4648 95.5775 24.4819C95.7351 24.4886 95.8921 24.4577 96.0352 24.3917C96.1784 24.3256 96.3035 24.2265 96.4003 24.1025V24.4169H96.967V23.1216ZM94.8583 23.1216C94.8671 22.9688 94.9207 22.8219 95.0125 22.6989C95.1042 22.576 95.2301 22.4825 95.3747 22.4299C95.5193 22.3773 95.6762 22.368 95.826 22.403C95.9759 22.438 96.1121 22.5159 96.218 22.627C96.3239 22.7381 96.3948 22.8777 96.4219 23.0284C96.449 23.1791 96.4312 23.3344 96.3706 23.4751C96.31 23.6158 96.2094 23.7359 96.081 23.8204C95.9527 23.905 95.8023 23.9503 95.6483 23.9508C95.5404 23.9522 95.4334 23.9315 95.334 23.8897C95.2346 23.848 95.1449 23.7862 95.0707 23.7083C94.9965 23.6304 94.9393 23.5381 94.9027 23.4371C94.8662 23.3361 94.851 23.2287 94.8583 23.1216V23.1216Z" fill="#231F20"/>
<path d="M108.162 2.08578H99.5793V17.4257H108.162V2.08578Z" fill="#FF5F00"/>
<path d="M100.124 9.75573C100.123 8.27839 100.46 6.8201 101.109 5.49127C101.758 4.16244 102.702 2.99788 103.871 2.08578C102.424 0.954557 100.686 0.251068 98.8559 0.0557169C97.0259 -0.139634 95.1775 0.181037 93.522 0.981076C91.8666 1.78111 90.4708 3.02824 89.4943 4.57991C88.5178 6.13158 88 7.92519 88 9.75573C88 11.5863 88.5178 13.3799 89.4943 14.9316C90.4708 16.4832 91.8666 17.7304 93.522 18.5304C95.1775 19.3304 97.0259 19.6511 98.8559 19.4557C100.686 19.2604 102.424 18.5569 103.871 17.4257C102.702 16.5136 101.758 15.349 101.109 14.0202C100.46 12.6914 100.123 11.2331 100.124 9.75573V9.75573Z" fill="#EB001B"/>
<path d="M119.741 9.75573C119.741 11.5862 119.224 13.3798 118.247 14.9315C117.271 16.4832 115.875 17.7303 114.22 18.5304C112.564 19.3304 110.716 19.6511 108.886 19.4557C107.056 19.2604 105.318 18.5569 103.871 17.4257C105.038 16.5127 105.982 15.3479 106.631 14.0193C107.28 12.6907 107.617 11.2328 107.617 9.75573C107.617 8.27862 107.28 6.82079 106.631 5.49217C105.982 4.16355 105.038 2.9988 103.871 2.08578C105.318 0.954553 107.056 0.251064 108.886 0.0557152C110.716 -0.139634 112.564 0.181043 114.22 0.98109C115.875 1.78114 117.271 3.02827 118.247 4.57994C119.224 6.13162 119.741 7.92522 119.741 9.75573V9.75573Z" fill="#F79E1B"/>
<path d="M118.805 15.8007V15.4867H118.933V15.4227H118.608V15.4867H118.736V15.8007H118.805ZM119.435 15.8007V15.4221H119.335L119.221 15.6825L119.107 15.4221H119.007V15.8007H119.078V15.5151L119.185 15.7613H119.258L119.365 15.5145V15.8007H119.435Z" fill="#F79E1B"/>
<path d="M140 0H164.938V13.4957L163.704 15.4292L164.938 17.15V25H140V12.2776L140.771 11.3882L140 10.5375V0Z" fill="#016FD0"/>
<path d="M144.841 17.4207V13.4957H148.987L149.431 14.077L149.891 13.4957H164.938V17.15C164.938 17.15 164.544 17.4168 164.089 17.4207H155.757L155.256 16.802V17.4207H153.613V16.3645C153.613 16.3645 153.388 16.512 152.903 16.512H152.344V17.4207H149.856L149.412 16.827L148.961 17.4207H144.841Z" fill="white"/>
<path d="M140 10.5375L140.935 8.35266H142.552L143.082 9.57652V8.35266H145.092L145.408 9.23723L145.714 8.35266H154.735V8.79736C154.735 8.79736 155.209 8.35266 155.989 8.35266L158.916 8.36292L159.437 9.57076V8.35266H161.119L161.582 9.04647V8.35266H163.279V12.2776H161.582L161.138 11.5816V12.2776H158.667L158.419 11.6589H157.755L157.51 12.2776H155.835C155.164 12.2776 154.735 11.842 154.735 11.842V12.2776H152.209L151.707 11.6589V12.2776H142.312L142.064 11.6589H141.402L141.155 12.2776H140V10.5375Z" fill="white"/>
<path d="M141.266 8.83652L140.005 11.7754H140.826L141.058 11.1869H142.411L142.642 11.7754H143.481L142.222 8.83652H141.266ZM141.732 9.52049L142.144 10.5489H141.319L141.732 9.52049V9.52049Z" fill="#016FD0"/>
<path d="M143.568 11.7749V8.83603L144.735 8.84037L145.413 10.7352L146.075 8.83603H147.233V11.7749H146.5V9.60942L145.723 11.7749H145.08L144.301 9.60942V11.7749H143.568Z" fill="#016FD0"/>
<path d="M147.734 11.7749V8.83603H150.126V9.49342H148.475V9.99612H150.087V10.6148H148.475V11.1369H150.126V11.7749H147.734Z" fill="#016FD0"/>
<path d="M150.55 8.83652V11.7754H151.283V10.7313H151.591L152.47 11.7754H153.366L152.401 10.6927C152.797 10.6592 153.205 10.3187 153.205 9.78997C153.205 9.17152 152.721 8.83652 152.181 8.83652H150.55V8.83652ZM151.283 9.4939H152.121C152.322 9.4939 152.468 9.6515 152.468 9.80326C152.468 9.99851 152.278 10.1126 152.131 10.1126H151.283V9.4939V9.4939Z" fill="#016FD0"/>
<path d="M154.253 11.7749H153.505V8.83603H154.253V11.7749Z" fill="#016FD0"/>
<path d="M156.027 11.7749H155.866C155.084 11.7749 154.61 11.1577 154.61 10.3176C154.61 9.45671 155.079 8.83603 156.066 8.83603H156.876V9.53208H156.036C155.636 9.53208 155.352 9.84553 155.352 10.3248C155.352 10.894 155.676 11.133 156.143 11.133H156.336L156.027 11.7749Z" fill="#016FD0"/>
<path d="M157.622 8.83652L156.361 11.7754H157.182L157.415 11.1869H158.767L158.999 11.7754H159.838L158.578 8.83652H157.622ZM158.089 9.52049L158.501 10.5489H157.675L158.089 9.52049Z" fill="#016FD0"/>
<path d="M159.923 11.7749V8.83603H160.855L162.045 10.6825V8.83603H162.778V11.7749H161.876L160.656 9.88011V11.7749H159.923Z" fill="#016FD0"/>
<path d="M145.342 16.918V13.9791H147.734V14.6365H146.083V15.1392H147.695V15.7579H146.083V16.28H147.734V16.918H145.342Z" fill="#016FD0"/>
<path d="M157.061 16.918V13.9791H159.453V14.6365H157.802V15.1392H159.406V15.7579H157.802V16.28H159.453V16.918H157.061Z" fill="#016FD0"/>
<path d="M147.827 16.918L148.991 15.4667L147.799 13.9791H148.722L149.432 14.8987L150.145 13.9791H151.032L149.856 15.4486L151.022 16.918H150.099L149.41 16.0129L148.737 16.918H147.827Z" fill="#016FD0"/>
<path d="M151.109 13.9796V16.9185H151.861V15.9904H152.633C153.286 15.9904 153.78 15.6433 153.78 14.9681C153.78 14.4088 153.392 13.9796 152.728 13.9796H151.109V13.9796ZM151.861 14.6442H152.674C152.885 14.6442 153.036 14.7738 153.036 14.9826C153.036 15.1788 152.886 15.321 152.671 15.321H151.861V14.6442Z" fill="#016FD0"/>
<path d="M154.099 13.9791V16.918H154.832V15.8739H155.14L156.019 16.918H156.915L155.95 15.8353C156.346 15.8018 156.754 15.4613 156.754 14.9326C156.754 14.3141 156.27 13.9791 155.73 13.9791H154.099V13.9791ZM154.832 14.6365H155.669C155.87 14.6365 156.017 14.7941 156.017 14.9459C156.017 15.1411 155.827 15.2552 155.68 15.2552H154.832V14.6365V14.6365Z" fill="#016FD0"/>
<path d="M159.792 16.918V16.28H161.259C161.476 16.28 161.57 16.1624 161.57 16.0335C161.57 15.9099 161.476 15.785 161.259 15.785H160.596C160.02 15.785 159.699 15.4331 159.699 14.9048C159.699 14.4336 159.993 13.9791 160.849 13.9791H162.276L161.968 14.6404H160.733C160.497 14.6404 160.425 14.7645 160.425 14.883C160.425 15.0049 160.515 15.1392 160.695 15.1392H161.389C162.031 15.1392 162.31 15.5044 162.31 15.9827C162.31 16.4969 162 16.918 161.354 16.918H159.792Z" fill="#016FD0"/>
<path d="M162.482 16.918V16.28H163.949C164.166 16.28 164.26 16.1624 164.26 16.0335C164.26 15.9099 164.166 15.785 163.949 15.785H163.286C162.71 15.785 162.389 15.4331 162.389 14.9048C162.389 14.4336 162.683 13.9791 163.539 13.9791H164.966L164.658 14.6404H163.423C163.187 14.6404 163.115 14.7645 163.115 14.883C163.115 15.0049 163.204 15.1392 163.385 15.1392H164.079C164.721 15.1392 165 15.5044 165 15.9827C165 16.4969 164.689 16.918 164.044 16.918H162.482Z" fill="#016FD0"/>
<path d="M216.696 17.0829V16.6973H216.6L216.488 16.9544L216.376 16.6973H216.28V17.0829H216.344V16.7937L216.456 17.0508H216.536L216.648 16.7937V17.0829H216.696ZM216.056 17.0829V16.7616H216.184V16.6973H215.864V16.7616H215.992V17.0829H216.056Z" fill="#00A2E5"/>
<path d="M205.32 18.7378H196.664V3.12082H205.32V18.7378Z" fill="#7375CF"/>
<path d="M197.224 10.9293C197.224 7.76414 198.696 4.93637 201 3.12082C199.32 1.78727 197.192 1 194.888 1C189.432 1 185 5.45051 185 10.9293C185 16.4081 189.432 20.8586 194.888 20.8586C197.192 20.8586 199.32 20.0713 201 18.7378C198.696 16.9222 197.224 14.0945 197.224 10.9293Z" fill="#EB001B"/>
<path d="M217 10.9293C217 16.4081 212.568 20.8586 207.112 20.8586C204.808 20.8586 202.68 20.0713 201 18.7378C203.304 16.9222 204.776 14.0945 204.776 10.9293C204.776 7.76414 203.304 4.93637 201 3.12082C202.68 1.78727 204.808 1 207.112 1C212.568 1 217 5.45051 217 10.9293Z" fill="#00A2E5"/>
<path d="M208.232 23.1562C208.344 23.1562 208.52 23.1722 208.632 23.2204L208.456 23.7667C208.328 23.7185 208.216 23.7024 208.104 23.7024C207.736 23.7024 207.544 23.9434 207.544 24.3773V25.8554H206.968V23.2204H207.528V23.5418C207.688 23.3008 207.912 23.1562 208.232 23.1562ZM206.12 23.7346H205.192V24.9235C205.192 25.1806 205.288 25.3573 205.576 25.3573C205.72 25.3573 205.912 25.3091 206.088 25.2127L206.248 25.7108C206.072 25.8393 205.784 25.9197 205.528 25.9197C204.856 25.9197 204.616 25.5501 204.616 24.9396V23.7346H204.088V23.2044H204.616V22.401H205.192V23.2044H206.12V23.7346V23.7346ZM198.808 24.2969C198.872 23.9113 199.096 23.6542 199.512 23.6542C199.88 23.6542 200.12 23.8792 200.184 24.2969H198.808ZM200.776 24.5379C200.776 23.7185 200.264 23.1562 199.528 23.1562C198.76 23.1562 198.216 23.7185 198.216 24.5379C198.216 25.3734 198.776 25.9197 199.56 25.9197C199.96 25.9197 200.312 25.8233 200.632 25.5501L200.344 25.1324C200.12 25.3091 199.848 25.4055 199.576 25.4055C199.208 25.4055 198.872 25.2288 198.792 24.7629H200.744C200.76 24.6825 200.776 24.6183 200.776 24.5379ZM203.288 23.8952C203.128 23.7988 202.808 23.6703 202.472 23.6703C202.152 23.6703 201.976 23.7828 201.976 23.9756C201.976 24.1523 202.168 24.2005 202.424 24.2327L202.696 24.2648C203.272 24.3451 203.608 24.5861 203.608 25.0521C203.608 25.5501 203.176 25.9197 202.408 25.9197C201.976 25.9197 201.576 25.8072 201.272 25.5823L201.544 25.1324C201.736 25.277 202.024 25.4055 202.424 25.4055C202.808 25.4055 203.016 25.2931 203.016 25.0842C203.016 24.9396 202.872 24.8593 202.552 24.8111L202.28 24.7789C201.688 24.6986 201.368 24.4255 201.368 24.0077C201.368 23.4775 201.8 23.1562 202.456 23.1562C202.872 23.1562 203.256 23.2526 203.528 23.4293L203.288 23.8952ZM210.328 23.6864C210.216 23.6864 210.104 23.7024 210.008 23.7506C209.912 23.7988 209.816 23.847 209.752 23.9274C209.688 24.0077 209.624 24.088 209.576 24.2005C209.528 24.2969 209.512 24.4255 209.512 24.5379C209.512 24.6665 209.528 24.7789 209.576 24.8753C209.624 24.9717 209.672 25.0681 209.752 25.1485C209.832 25.2288 209.912 25.277 210.008 25.3252C210.104 25.3734 210.216 25.3895 210.328 25.3895C210.44 25.3895 210.552 25.3734 210.648 25.3252C210.744 25.277 210.84 25.2288 210.904 25.1485C210.984 25.0681 211.032 24.9878 211.08 24.8753C211.128 24.7789 211.144 24.6504 211.144 24.5379C211.144 24.4094 211.128 24.2969 211.08 24.2005C211.032 24.1041 210.984 24.0077 210.904 23.9274C210.824 23.847 210.744 23.7988 210.648 23.7506C210.552 23.7185 210.44 23.6864 210.328 23.6864ZM210.328 23.1562C210.536 23.1562 210.728 23.1883 210.888 23.2686C211.064 23.3329 211.208 23.4293 211.336 23.5578C211.464 23.6864 211.56 23.831 211.64 23.9916C211.704 24.1684 211.752 24.3451 211.752 24.5379C211.752 24.7307 211.72 24.9235 211.64 25.0842C211.576 25.2609 211.464 25.4055 211.336 25.518C211.208 25.6465 211.064 25.7429 210.888 25.8072C210.712 25.8715 210.52 25.9197 210.328 25.9197C210.12 25.9197 209.928 25.8875 209.768 25.8072C209.592 25.7429 209.448 25.6465 209.32 25.518C209.192 25.3895 209.096 25.2449 209.016 25.0842C208.952 24.9075 208.904 24.7307 208.904 24.5379C208.904 24.3451 208.936 24.1523 209.016 23.9916C209.08 23.8149 209.192 23.6703 209.32 23.5578C209.448 23.4293 209.592 23.3329 209.768 23.2686C209.928 23.1883 210.12 23.1562 210.328 23.1562ZM195.48 24.5379C195.48 24.072 195.784 23.6864 196.28 23.6864C196.76 23.6864 197.064 24.0559 197.064 24.5379C197.064 25.0199 196.744 25.3734 196.28 25.3734C195.784 25.3734 195.48 25.0039 195.48 24.5379ZM197.608 24.5379V23.2204H197.032V23.5418C196.856 23.3008 196.584 23.1562 196.2 23.1562C195.464 23.1562 194.888 23.7346 194.888 24.5379C194.888 25.3413 195.464 25.9197 196.2 25.9197C196.568 25.9197 196.84 25.7751 197.032 25.5341V25.8554H197.608V24.5379ZM194.392 25.8554V24.2005C194.392 23.5739 193.992 23.1562 193.352 23.1562C193.016 23.1562 192.664 23.2526 192.424 23.6221C192.248 23.3329 191.96 23.1562 191.56 23.1562C191.288 23.1562 191 23.2365 190.792 23.5418V23.2204H190.216V25.8554H190.792V24.3933C190.792 23.9434 191.048 23.6864 191.432 23.6864C191.816 23.6864 192.008 23.9274 192.008 24.3773V25.8393H192.584V24.3773C192.584 23.9274 192.856 23.6703 193.224 23.6703C193.608 23.6703 193.8 23.9113 193.8 24.3612V25.8233H194.392V25.8554Z" fill="black"/>
<path d="M212.36 25.6465V25.7108H212.424C212.44 25.7108 212.456 25.7108 212.456 25.6947C212.472 25.6947 212.472 25.6787 212.472 25.6626C212.472 25.6465 212.472 25.6465 212.456 25.6465C212.456 25.6465 212.44 25.6305 212.424 25.6305H212.36V25.6465ZM212.424 25.6144C212.456 25.6144 212.472 25.6144 212.488 25.6305C212.504 25.6465 212.52 25.6626 212.52 25.6947C212.52 25.7108 212.52 25.7269 212.504 25.7429C212.488 25.759 212.472 25.759 212.44 25.759L212.52 25.8554H212.456L212.376 25.759H212.36V25.8554H212.312V25.6144H212.424ZM212.408 25.9357C212.44 25.9357 212.456 25.9357 212.488 25.9197C212.52 25.9036 212.536 25.8875 212.552 25.8715C212.568 25.8554 212.584 25.8393 212.6 25.8072C212.616 25.7751 212.616 25.759 212.616 25.7269C212.616 25.6947 212.616 25.6787 212.6 25.6465C212.584 25.6144 212.568 25.5983 212.552 25.5823C212.536 25.5662 212.52 25.5501 212.488 25.5341C212.472 25.518 212.44 25.518 212.408 25.518C212.376 25.518 212.36 25.518 212.328 25.5341C212.296 25.5501 212.28 25.5662 212.264 25.5823C212.248 25.5983 212.232 25.6305 212.216 25.6465C212.2 25.6787 212.2 25.6947 212.2 25.7269C212.2 25.759 212.2 25.7751 212.216 25.8072C212.232 25.8393 212.248 25.8554 212.264 25.8715C212.28 25.8875 212.312 25.9036 212.328 25.9197C212.36 25.9357 212.376 25.9357 212.408 25.9357ZM212.408 25.4698C212.44 25.4698 212.472 25.4698 212.504 25.4859C212.536 25.5019 212.568 25.518 212.584 25.5341C212.6 25.5501 212.632 25.5823 212.648 25.6144C212.664 25.6465 212.664 25.6787 212.664 25.7108C212.664 25.7429 212.664 25.7751 212.648 25.8072C212.632 25.8393 212.616 25.8715 212.584 25.8875C212.552 25.9036 212.536 25.9357 212.504 25.9518C212.472 25.9679 212.44 25.9679 212.408 25.9679C212.376 25.9679 212.328 25.9679 212.296 25.9518C212.264 25.9357 212.232 25.9197 212.216 25.8875C212.2 25.8715 212.168 25.8393 212.152 25.8072C212.136 25.7751 212.136 25.7429 212.136 25.7108C212.136 25.6787 212.136 25.6465 212.152 25.6144C212.168 25.5823 212.184 25.5501 212.216 25.5341C212.232 25.518 212.264 25.4859 212.296 25.4859C212.328 25.4698 212.376 25.4698 212.408 25.4698Z" fill="black"/>
</svg>
