<svg width="26" height="25" viewBox="0 0 26 25" fill="none" xmlns="http://www.w3.org/2000/svg">
    <path d="M10.8313 16.1105L11.1231 14.2748L10.473 14.2598H7.36902L9.52616 0.713954C9.53285 0.673061 9.55461 0.634932 9.58642 0.607855C9.61822 0.580777 9.65895 0.565857 9.70136 0.565857H14.9352C16.6727 0.565857 17.8718 0.923942 18.4979 1.63072C18.7914 1.96228 18.9783 2.30876 19.0687 2.69005C19.1635 3.09013 19.1652 3.56813 19.0726 4.15113L19.0659 4.19368V4.56723L19.3594 4.73191C19.6066 4.86177 19.803 5.01042 19.9536 5.18062C20.2047 5.4641 20.3671 5.8244 20.4357 6.25156C20.5066 6.69088 20.4831 7.21363 20.3671 7.80547C20.2332 8.48627 20.0167 9.07921 19.7243 9.5644C19.4553 10.0114 19.1128 10.3822 18.706 10.6696C18.3176 10.9426 17.8562 11.1498 17.3345 11.2824C16.829 11.4128 16.2526 11.4786 15.6204 11.4786H15.2131C14.9218 11.4786 14.6389 11.5825 14.4168 11.7687C14.1942 11.9588 14.0469 12.2185 14.0017 12.5026L13.971 12.6678L13.4554 15.9033L13.432 16.0221C13.4259 16.0597 13.4153 16.0784 13.3996 16.0912C13.3857 16.1028 13.3656 16.1105 13.3461 16.1105H10.8313Z" fill="#253B80"/>
    <path d="M19.6373 4.23679C19.6216 4.3357 19.6038 4.43683 19.5837 4.54072C18.8935 8.05028 16.5321 9.26268 13.5162 9.26268H11.9807C11.6119 9.26268 11.3011 9.52793 11.2436 9.88823L10.4574 14.8263L10.2348 16.226C10.1974 16.4625 10.3815 16.6758 10.6226 16.6758H13.3461C13.6686 16.6758 13.9425 16.4437 13.9933 16.1287L14.0201 15.9917L14.5329 12.7689L14.5658 12.5921C14.616 12.276 14.8905 12.0439 15.2131 12.0439H15.6204C18.259 12.0439 20.3247 10.9829 20.9284 7.91268C21.1806 6.6301 21.05 5.55916 20.3827 4.80596C20.1807 4.57885 19.9302 4.39041 19.6373 4.23679Z" fill="#179BD7"/>
    <path d="M18.9152 3.95165C18.8098 3.92126 18.7009 3.89363 18.5894 3.86876C18.4772 3.84445 18.3623 3.8229 18.244 3.80411C17.8299 3.7378 17.3763 3.7063 16.8903 3.7063H12.7881C12.6871 3.7063 12.5911 3.72896 12.5052 3.76985C12.316 3.85992 12.1754 4.03731 12.1414 4.25448L11.2687 9.72853L11.2436 9.88823C11.3011 9.52794 11.6119 9.26269 11.9807 9.26269H13.5162C16.5321 9.26269 18.8935 8.04973 19.5837 4.54072C19.6043 4.43684 19.6216 4.33571 19.6372 4.23679C19.4626 4.14506 19.2734 4.06659 19.0698 3.99973C19.0196 3.98315 18.9677 3.96713 18.9152 3.95165Z" fill="#222D65"/>
    <path d="M12.1414 4.25447C12.1754 4.0373 12.316 3.85991 12.5052 3.77039C12.5916 3.7295 12.6871 3.70684 12.7881 3.70684H16.8903C17.3763 3.70684 17.8299 3.73834 18.244 3.80465C18.3622 3.82344 18.4772 3.84499 18.5893 3.8693C18.7009 3.89417 18.8097 3.9218 18.9152 3.95219C18.9676 3.96767 19.0195 3.98369 19.0703 3.99972C19.274 4.06658 19.4631 4.1456 19.6378 4.23678C19.8431 2.93983 19.6361 2.05678 18.928 1.25716C18.1474 0.376873 16.7385 0 14.9357 0H9.70189C9.33362 0 9.01948 0.265248 8.96257 0.626096L6.78255 14.3112C6.73959 14.582 6.9505 14.8263 7.22614 14.8263H10.4574L11.2687 9.72852L12.1414 4.25447Z" fill="#253B80"/>
    <path d="M3.17573 18.2433H1.11731C0.976445 18.2433 0.856653 18.34 0.834681 18.4715L0.00216095 23.4614C-0.0143931 23.5599 0.0662702 23.6487 0.171915 23.6487H1.15463C1.29549 23.6487 1.41528 23.5519 1.43725 23.4202L1.66178 22.0743C1.68345 21.9426 1.80355 21.8458 1.94411 21.8458H2.59574C3.95167 21.8458 4.73422 21.2255 4.93859 19.9963C5.03069 19.4585 4.9425 19.036 4.67613 18.7401C4.38358 18.4151 3.86468 18.2433 3.17573 18.2433ZM3.41321 20.0657C3.30064 20.764 2.73629 20.764 2.19061 20.764H1.88L2.09791 19.4599C2.11085 19.3811 2.18309 19.3231 2.26736 19.3231H2.40973C2.78144 19.3231 3.13209 19.3231 3.31328 19.5234C3.42133 19.6429 3.45444 19.8205 3.41321 20.0657Z" fill="#253B80"/>
    <path d="M9.31957 19.9138H8.30518C8.21876 19.9138 8.14411 19.9761 8.1308 20.0606L8.08588 20.3402L8.01495 20.2389C7.79535 19.9248 7.30565 19.8198 6.81688 19.8198C5.69594 19.8198 4.73854 20.6564 4.55207 21.8299C4.45513 22.4153 4.59296 22.975 4.92995 23.3654C5.23907 23.7243 5.68138 23.8739 6.20763 23.8739C7.11083 23.8739 7.61167 23.3016 7.61167 23.3016L7.56645 23.5794C7.54942 23.6856 7.63243 23.7808 7.74052 23.7808H8.65425C8.79952 23.7808 8.92218 23.677 8.9451 23.5357L9.49333 20.1147C9.51068 20.0094 9.42798 19.9138 9.31957 19.9138ZM7.90562 21.8592C7.80774 22.4303 7.34778 22.8136 6.76113 22.8136C6.46657 22.8136 6.23117 22.7205 6.08001 22.5441C5.9301 22.3689 5.87311 22.1196 5.92081 21.8418C6.01218 21.2757 6.47989 20.8798 7.05755 20.8798C7.34561 20.8798 7.57977 20.9741 7.73402 21.152C7.88858 21.3318 7.94991 21.5827 7.90562 21.8592Z" fill="#253B80"/>
    <path d="M14.2984 20.045H13.3113C13.2171 20.045 13.1286 20.0902 13.0752 20.1659L11.7138 22.1029L11.1367 20.2415C11.1004 20.125 10.9892 20.045 10.8632 20.045H9.89319C9.77532 20.045 9.69343 20.1563 9.73092 20.2635L10.8182 23.3454L9.79601 24.7393C9.71563 24.8491 9.79661 25 9.93548 25H10.9214C11.015 25 11.1025 24.956 11.1556 24.8818L14.4387 20.3043C14.5173 20.1948 14.4366 20.045 14.2984 20.045Z" fill="#253B80"/>
    <path d="M17.5011 18.2433H15.5359C15.4017 18.2433 15.2873 18.34 15.2664 18.4715L14.4716 23.4614C14.4558 23.5599 14.5328 23.6487 14.6331 23.6487H15.6416C15.7352 23.6487 15.8154 23.5809 15.8301 23.4887L16.0556 22.0743C16.0763 21.9426 16.1909 21.8458 16.3251 21.8458H16.9469C18.2415 21.8458 18.9882 21.2255 19.1836 19.9963C19.2718 19.4585 19.1871 19.036 18.9328 18.7401C18.6538 18.4151 18.1588 18.2433 17.5011 18.2433ZM17.7278 20.0657C17.6206 20.764 17.0819 20.764 16.5607 20.764H16.2645L16.4728 19.4599C16.4851 19.3811 16.5535 19.3231 16.6343 19.3231H16.7702C17.1247 19.3231 17.4597 19.3231 17.6327 19.5234C17.7358 19.6429 17.7671 19.8205 17.7278 20.0657Z" fill="#179BD7"/>
    <path d="M23.57 19.9138H22.6023C22.5192 19.9138 22.4485 19.9761 22.4361 20.0606L22.3932 20.3402L22.3252 20.2389C22.1156 19.9248 21.6484 19.8198 21.1819 19.8198C20.1118 19.8198 19.1982 20.6564 19.0202 21.8299C18.9279 22.4153 19.0589 22.975 19.3806 23.3654C19.6763 23.7243 20.0979 23.8739 20.6003 23.8739C21.4625 23.8739 21.9406 23.3016 21.9406 23.3016L21.8974 23.5794C21.8811 23.6856 21.9604 23.7808 22.0642 23.7808H22.9361C23.0742 23.7808 23.1919 23.677 23.2134 23.5357L23.7371 20.1147C23.753 20.0094 23.6738 19.9138 23.57 19.9138ZM22.2203 21.8592C22.1274 22.4303 21.6878 22.8136 21.1278 22.8136C20.8472 22.8136 20.6219 22.7205 20.4776 22.5441C20.3345 22.3689 20.2806 22.1196 20.3256 21.8418C20.4134 21.2757 20.8593 20.8798 21.4107 20.8798C21.6857 20.8798 21.9092 20.9741 22.0565 21.152C22.2046 21.3318 22.2631 21.5827 22.2203 21.8592Z" fill="#179BD7"/>
    <path d="M24.6346 18.3804L23.7414 23.4614C23.7239 23.5599 23.8092 23.6487 23.9202 23.6487H24.8182C24.9674 23.6487 25.0941 23.5519 25.117 23.4202L25.9977 18.4308C26.0152 18.3323 25.9299 18.2433 25.8189 18.2433H24.8134C24.7246 18.2435 24.6483 18.3016 24.6346 18.3804Z" fill="#179BD7"/>
</svg>