<svg xmlns="http://www.w3.org/2000/svg" width="12" height="12" viewBox="0 0 12 12">
  <metadata><?xpacket begin="﻿" id="W5M0MpCehiHzreSzNTczkc9d"?>
<x:xmpmeta xmlns:x="adobe:ns:meta/" x:xmptk="Adobe XMP Core 5.6-c138 79.159824, 2016/09/14-01:09:01        ">
   <rdf:RDF xmlns:rdf="http://www.w3.org/1999/02/22-rdf-syntax-ns#">
      <rdf:Description rdf:about=""/>
   </rdf:RDF>
</x:xmpmeta>
                                                                                                    
                                                                                                    
                                                                                                    
                                                                                                    
                                                                                                    
                                                                                                    
                                                                                                    
                                                                                                    
                                                                                                    
                                                                                                    
                                                                                                    
                                                                                                    
                                                                                                    
                                                                                                    
                                                                                                    
                                                                                                    
                                                                                                    
                                                                                                    
                                                                                                    
                                                                                                    
                           
<?xpacket end="w"?></metadata>
<defs>
    <style>
      .cls-1 {
        fill: #a50034;
        fill-rule: evenodd;
      }
    </style>
  </defs>
  <path id="blank_02" class="cls-1" d="M534,1531v5a1,1,0,0,1-1,1h-6a1,1,0,0,1-1-1v-6a1,1,0,0,1,1-1h4.994v-1H526a1,1,0,0,0-1,1v8a1,1,0,0,0,1,1h8a1,1,0,0,0,1-1v-6.01Zm-1.5-5h4a0.5,0.5,0,0,1,0,1h-4A0.5,0.5,0,0,1,532.5,1526Zm4,0a0.5,0.5,0,0,1,.5.5v4a0.5,0.5,0,0,1-1,0v-4A0.5,0.5,0,0,1,536.5,1526Zm-6.295,5.75,4.549-4.55a0.736,0.736,0,0,1,1.014,0,0.724,0.724,0,0,1,0,1.02l-4.549,4.55a0.717,0.717,0,0,1-1.014,0A0.724,0.724,0,0,1,530.205,1531.75Z" transform="translate(-525 -1526)"/>
</svg>
