<svg xmlns="http://www.w3.org/2000/svg" width="12" height="12" viewBox="0 0 12 12">
  <metadata><?xpacket begin="﻿" id="W5M0MpCehiHzreSzNTczkc9d"?>
<x:xmpmeta xmlns:x="adobe:ns:meta/" x:xmptk="Adobe XMP Core 5.6-c138 79.159824, 2016/09/14-01:09:01        ">
   <rdf:RDF xmlns:rdf="http://www.w3.org/1999/02/22-rdf-syntax-ns#">
      <rdf:Description rdf:about=""/>
   </rdf:RDF>
</x:xmpmeta>
                                                                                                    
                                                                                                    
                                                                                                    
                                                                                                    
                                                                                                    
                                                                                                    
                                                                                                    
                                                                                                    
                                                                                                    
                                                                                                    
                                                                                                    
                                                                                                    
                                                                                                    
                                                                                                    
                                                                                                    
                                                                                                    
                                                                                                    
                                                                                                    
                                                                                                    
                                                                                                    
                           
<?xpacket end="w"?></metadata>
<defs>
    <style>
      .cls-1 {
        fill: #6b6b6b;
        fill-rule: evenodd;
      }
    </style>
  </defs>
  <path id="blank" class="cls-1" d="M1223,1005v5a1,1,0,0,1-1,1h-6a1,1,0,0,1-1-1v-6a1,1,0,0,1,1-1h4.99v-1H1215a1,1,0,0,0-1,1v8a1,1,0,0,0,1,1h8a1,1,0,0,0,1-1v-6.01Zm-1.5-5h4a0.5,0.5,0,0,1,0,1h-4A0.5,0.5,0,0,1,1221.5,1000Zm4,0a0.5,0.5,0,0,1,.5.5v4a0.5,0.5,0,0,1-1,0v-4A0.5,0.5,0,0,1,1225.5,1000Zm-6.29,5.75,4.54-4.54a0.724,0.724,0,0,1,1.02,0,0.712,0.712,0,0,1,0,1.01l-4.55,4.55a0.712,0.712,0,0,1-1.01,0A0.724,0.724,0,0,1,1219.21,1005.75Z" transform="translate(-1214 -1000)"/>
</svg>
