<svg xmlns="http://www.w3.org/2000/svg" width="42" height="42" viewBox="0 0 42 42">
  <defs>
    <style>
      .cls-1 {
        fill: #333;
        fill-rule: evenodd;
      }
    </style>
  </defs>
  <path id="calender" class="cls-1" d="M825,1039H805a2,2,0,0,1-2-2v-18a2,2,0,0,1,2-2h4v-1a1,1,0,0,1,2,0v1h8v-1a1,1,0,0,1,2,0v1h4a2,2,0,0,1,2,2v18A2,2,0,0,1,825,1039Zm0-20h-4v1a1,1,0,0,1-2,0v-1h-8v1a1,1,0,0,1-2,0v-1h-4v18h20v-18Zm-18,4h16a1,1,0,0,1,0,2H807A1,1,0,0,1,807,1023Zm2,5a1,1,0,1,1-1,1A1,1,0,0,1,809,1028Zm0,4a1,1,0,1,1-1,1A1,1,0,0,1,809,1032Zm4-4a1,1,0,1,1-1,1A1,1,0,0,1,813,1028Zm0,4a1,1,0,1,1-1,1A1,1,0,0,1,813,1032Zm4-4a1,1,0,1,1-1,1A1,1,0,0,1,817,1028Zm0,4a1,1,0,1,1-1,1A1,1,0,0,1,817,1032Zm4-4a1,1,0,1,1-1,1A1,1,0,0,1,821,1028Zm0,4a1,1,0,1,1-1,1A1,1,0,0,1,821,1032Z" transform="translate(-794 -1006)"/>
</svg>
