<svg xmlns="http://www.w3.org/2000/svg" width="22" height="40" viewBox="0 0 22 40">
  <defs>
    <style>
      .cls-1 {
        fill-rule: evenodd;
      }
    </style>
  </defs>
  <path id="_" data-name="&gt;" class="cls-1" d="M1440.55,458.061a1.288,1.288,0,0,1-.28.176l-18.73,18.318a1.528,1.528,0,0,1-2.12,0,1.443,1.443,0,0,1,0-2.065l17.91-17.507-17.91-17.507a1.443,1.443,0,0,1,0-2.065,1.528,1.528,0,0,1,2.12,0l18.73,18.317a1.979,1.979,0,0,1,.28.178A1.592,1.592,0,0,1,1440.55,458.061Z" transform="translate(-1419 -437)"/>
</svg>
