<svg xmlns="http://www.w3.org/2000/svg" width="22" height="40" viewBox="0 0 22 40">
<defs>
    <style>
      .cls-1 {
        fill: #767676;
        fill-rule: evenodd;
      }
    </style>
  </defs>
  <path id="_copy" data-name="&lt; copy" class="cls-1" d="M1491.58,439.054a1.448,1.448,0,0,1-.27.175l-18.74,18.318a1.528,1.528,0,0,1-2.12,0,1.443,1.443,0,0,1,0-2.065l17.91-17.506-17.91-17.506a1.443,1.443,0,0,1,0-2.065,1.526,1.526,0,0,1,2.12,0l18.73,18.315a1.3,1.3,0,0,1,.28.178A1.566,1.566,0,0,1,1491.58,439.054Z" transform="translate(-1470.03 -418)"/>
</svg>
