<svg xmlns="http://www.w3.org/2000/svg" width="20" height="20" viewBox="0 0 20 20">
  <metadata><?xpacket begin="﻿" id="W5M0MpCehiHzreSzNTczkc9d"?>
<x:xmpmeta xmlns:x="adobe:ns:meta/" x:xmptk="Adobe XMP Core 5.6-c138 79.159824, 2016/09/14-01:09:01        ">
   <rdf:RDF xmlns:rdf="http://www.w3.org/1999/02/22-rdf-syntax-ns#">
      <rdf:Description rdf:about=""/>
   </rdf:RDF>
</x:xmpmeta>
                                                                                                    
                                                                                                    
                                                                                                    
                                                                                                    
                                                                                                    
                                                                                                    
                                                                                                    
                                                                                                    
                                                                                                    
                                                                                                    
                                                                                                    
                                                                                                    
                                                                                                    
                                                                                                    
                                                                                                    
                                                                                                    
                                                                                                    
                                                                                                    
                                                                                                    
                                                                                                    
                           
<?xpacket end="w"?></metadata>
<defs>
    <style>
      .cls-1 {
        fill: #1a1a1a;
        fill-rule: evenodd;
      }
    </style>
  </defs>
  <path class="cls-1" d="M1495.91,6424.65l-2.55,5.42a0.738,0.738,0,0,1-.67.43h-10.28l1.03,2.95h8.3a0.731,0.731,0,0,1,.33.08,2.271,2.271,0,1,1-2.84,2.19,2.444,2.444,0,0,1,.14-0.77h-3.77a2.2,2.2,0,0,1,.15.77,2.26,2.26,0,1,1-3.7-1.74l-4.36-12.48h-0.94a0.75,0.75,0,0,1,0-1.5h1.47a0.755,0.755,0,0,1,.71.5l2.97,8.51c0.02,0,.04-0.01.07-0.01h10.24l2.35-4.99a0.734,0.734,0,0,1,.99-0.36A0.765,0.765,0,0,1,1495.91,6424.65Zm-5.19,11.07a0.77,0.77,0,1,0,.77-0.77A0.77,0.77,0,0,0,1490.72,6435.72Zm-7.23.77a0.77,0.77,0,0,0,0-1.54A0.77,0.77,0,1,0,1483.49,6436.49Z" transform="translate(-1476 -6419)"/>
</svg>
