<svg xmlns="http://www.w3.org/2000/svg" width="20" height="20" viewBox="0 0 20 20">
  <metadata><?xpacket begin="﻿" id="W5M0MpCehiHzreSzNTczkc9d"?>
<x:xmpmeta xmlns:x="adobe:ns:meta/" x:xmptk="Adobe XMP Core 5.6-c142 79.160924, 2017/07/13-01:06:39        ">
   <rdf:RDF xmlns:rdf="http://www.w3.org/1999/02/22-rdf-syntax-ns#">
      <rdf:Description rdf:about=""/>
   </rdf:RDF>
</x:xmpmeta>
                                                                                                    
                                                                                                    
                                                                                                    
                                                                                                    
                                                                                                    
                                                                                                    
                                                                                                    
                                                                                                    
                                                                                                    
                                                                                                    
                                                                                                    
                                                                                                    
                                                                                                    
                                                                                                    
                                                                                                    
                                                                                                    
                                                                                                    
                                                                                                    
                                                                                                    
                                                                                                    
                           
<?xpacket end="w"?></metadata>
<defs>
    <style>
      .cls-1 {
        fill: #6b6b6b;
        fill-rule: evenodd;
      }
    </style>
  </defs>
  <path class="cls-1" d="M617.981,749.282A2.737,2.737,0,0,1,615.212,752h-5.456v0.947a0.755,0.755,0,0,1-1.509,0V752h-5.469a2.754,2.754,0,0,1-2.788-2.712v-7.574A2.755,2.755,0,0,1,602.778,739h5.469v-0.946a0.755,0.755,0,0,1,1.509,0V739h5.456a2.761,2.761,0,0,1,2.8,2.713Zm-9.734-8.861h-5.428a1.3,1.3,0,0,0-1.32,1.269v7.592a1.3,1.3,0,0,0,1.32,1.269h5.428v-10.13Zm8.225,1.269a1.3,1.3,0,0,0-1.32-1.269h-5.4v10.13h5.4a1.3,1.3,0,0,0,1.32-1.269V741.69Zm-2.065,5.825a0.8,0.8,0,0,1-1.121,0l-1.5-1.465a0.766,0.766,0,0,1,0-1.1l1.5-1.464a0.8,0.8,0,0,1,1.121,0,0.764,0.764,0,0,1,0,1.1l-0.934.916,0.934,0.916A0.764,0.764,0,0,1,614.407,747.515Zm-10.9-4.016a0.8,0.8,0,0,1,1.115,0l1.487,1.456a0.761,0.761,0,0,1,0,1.092l-1.487,1.456a0.8,0.8,0,0,1-1.115,0,0.761,0.761,0,0,1,0-1.092l0.929-.91-0.929-.91A0.761,0.761,0,0,1,603.509,743.5Z" transform="translate(-599 -735.5)"/>
</svg>
