<svg xmlns="http://www.w3.org/2000/svg" width="20" height="20" viewBox="0 0 20 20">
  <defs>
    <style>
      .cls-1 {
        fill: #6b6b6b;
        fill-rule: evenodd;
      }
    </style>
  </defs>
  <path class="cls-1" d="M1239.98,1129.28a2.734,2.734,0,0,1-2.77,2.72h-5.45v0.94a0.749,0.749,0,0,1-.76.74,0.741,0.741,0,0,1-.75-0.74V1132h-5.47a2.756,2.756,0,0,1-2.79-2.71v-7.58a2.756,2.756,0,0,1,2.79-2.71h5.47v-0.95a0.747,0.747,0,0,1,.75-0.74,0.756,0.756,0,0,1,.76.74V1119h5.45a2.758,2.758,0,0,1,2.8,2.71Zm-11.87-4.33-1.49-1.45a0.779,0.779,0,0,0-1.11,0,0.755,0.755,0,0,0,0,1.09l0.93,0.91-0.93.91a0.755,0.755,0,0,0,0,1.09,0.785,0.785,0,0,0,1.11,0l1.49-1.46A0.755,0.755,0,0,0,1228.11,1124.95Zm3.65-4.95h-1.51v11h1.51v-11Zm4.65,4.58a0.767,0.767,0,0,0,0-1.1,0.809,0.809,0,0,0-1.12,0l-1.5,1.47a0.767,0.767,0,0,0,0,1.1l1.5,1.46a0.787,0.787,0,0,0,.56.23,0.822,0.822,0,0,0,.56-0.23,0.767,0.767,0,0,0,0-1.1l-0.94-.91Z" transform="translate(-1221 -1115.5)"/>
</svg>
