<svg xmlns="http://www.w3.org/2000/svg" width="8" height="8" viewBox="0 0 8 8">
  <metadata><?xpacket begin="﻿" id="W5M0MpCehiHzreSzNTczkc9d"?>
<x:xmpmeta xmlns:x="adobe:ns:meta/" x:xmptk="Adobe XMP Core 5.6-c142 79.160924, 2017/07/13-01:06:39        ">
   <rdf:RDF xmlns:rdf="http://www.w3.org/1999/02/22-rdf-syntax-ns#">
      <rdf:Description rdf:about=""/>
   </rdf:RDF>
</x:xmpmeta>
                                                                                                    
                                                                                                    
                                                                                                    
                                                                                                    
                                                                                                    
                                                                                                    
                                                                                                    
                                                                                                    
                                                                                                    
                                                                                                    
                                                                                                    
                                                                                                    
                                                                                                    
                                                                                                    
                                                                                                    
                                                                                                    
                                                                                                    
                                                                                                    
                                                                                                    
                                                                                                    
                           
<?xpacket end="w"?></metadata>
<defs>
    <style>
      .cls-1 {
        fill: #767676;
        fill-rule: evenodd;
      }
    </style>
  </defs>
  <path id="_copy" data-name="&gt; copy" class="cls-1" d="M1020.09,483.991l2.67,2.637a0.78,0.78,0,0,1,0,1.126,0.825,0.825,0,0,1-1.15,0l-2.62-2.592-2.62,2.592a0.825,0.825,0,0,1-1.15,0,0.8,0.8,0,0,1,0-1.126l2.67-2.637-2.67-2.637a0.8,0.8,0,0,1,0-1.126,0.825,0.825,0,0,1,1.15,0l2.62,2.592,2.62-2.592a0.825,0.825,0,0,1,1.15,0,0.78,0.78,0,0,1,0,1.126Z" transform="translate(-1015 -480)"/>
</svg>
