<svg xmlns="http://www.w3.org/2000/svg" width="20" height="20" viewBox="0 0 20 20">
  <defs>
    <style>
      .cls-1 {
        fill-rule: evenodd;
      }
    </style>
  </defs>
  <path id="double-left-arrow-black-s" class="cls-1" d="M849.685,1246.62l-5.043,4.37,5.043,4.38a0.861,0.861,0,0,1,0,1.34,1.215,1.215,0,0,1-1.546,0l-5.8-5.03a0.886,0.886,0,0,1-.317-0.69,0.866,0.866,0,0,1,.317-0.68l5.8-5.03a1.191,1.191,0,0,1,1.546,0A0.861,0.861,0,0,1,849.685,1246.62Zm-6,0-5.043,4.37,5.043,4.38a0.861,0.861,0,0,1,0,1.34,1.215,1.215,0,0,1-1.546,0l-5.8-5.03a0.886,0.886,0,0,1-.317-0.69,0.866,0.866,0,0,1,.317-0.68l5.8-5.03a1.191,1.191,0,0,1,1.546,0A0.861,0.861,0,0,1,843.685,1246.62Z" transform="translate(-833.031 -1241)"/>
</svg>
