<svg xmlns="http://www.w3.org/2000/svg" width="20" height="20" viewBox="0 0 20 20">
  <metadata><?xpacket begin="﻿" id="W5M0MpCehiHzreSzNTczkc9d"?>
<x:xmpmeta xmlns:x="adobe:ns:meta/" x:xmptk="Adobe XMP Core 5.6-c138 79.159824, 2016/09/14-01:09:01        ">
   <rdf:RDF xmlns:rdf="http://www.w3.org/1999/02/22-rdf-syntax-ns#">
      <rdf:Description rdf:about=""/>
   </rdf:RDF>
</x:xmpmeta>
                                                                                                    
                                                                                                    
                                                                                                    
                                                                                                    
                                                                                                    
                                                                                                    
                                                                                                    
                                                                                                    
                                                                                                    
                                                                                                    
                                                                                                    
                                                                                                    
                                                                                                    
                                                                                                    
                                                                                                    
                                                                                                    
                                                                                                    
                                                                                                    
                                                                                                    
                                                                                                    
                           
<?xpacket end="w"?></metadata>
<defs>
    <style>
      .cls-1 {
        fill: #999;
        fill-rule: evenodd;
      }
    </style>
  </defs>
  <path id="_" data-name="&gt;&gt;" class="cls-1" d="M364.744,313.186l-4.408,4.533a0.906,0.906,0,0,1-1.305,0,0.968,0.968,0,0,1,0-1.341l3.766-3.872-3.766-3.872a0.968,0.968,0,0,1,0-1.341,0.9,0.9,0,0,1,1.305,0l4.408,4.532A1,1,0,0,1,364.744,313.186Zm-5.506-.68a0.961,0.961,0,0,1-.268.68l-4.408,4.533a0.906,0.906,0,0,1-1.305,0,0.968,0.968,0,0,1,0-1.341l3.765-3.872-3.765-3.872a0.968,0.968,0,0,1,0-1.341,0.9,0.9,0,0,1,1.305,0l4.408,4.532A0.962,0.962,0,0,1,359.238,312.506Z" transform="translate(-349 -302.5)"/>
</svg>
