<svg xmlns="http://www.w3.org/2000/svg" width="20" height="20" viewBox="0 0 20 20">
  <defs>
    <style>
      .cls-1 {
        fill-rule: evenodd;
      }
    </style>
  </defs>
  <path id="double-right-arrow-black-" class="cls-1" d="M1100.35,1246.62l5.04,4.37-5.04,4.38a0.857,0.857,0,0,0,0,1.34,1.207,1.207,0,0,0,1.54,0l5.8-5.03a0.9,0.9,0,0,0,.32-0.69,0.879,0.879,0,0,0-.32-0.68l-5.8-5.03a1.183,1.183,0,0,0-1.54,0A0.857,0.857,0,0,0,1100.35,1246.62Zm6,0,5.04,4.37-5.04,4.38a0.857,0.857,0,0,0,0,1.34,1.207,1.207,0,0,0,1.54,0l5.8-5.03a0.9,0.9,0,0,0,.32-0.69,0.879,0.879,0,0,0-.32-0.68l-5.8-5.03a1.183,1.183,0,0,0-1.54,0A0.857,0.857,0,0,0,1106.35,1246.62Z" transform="translate(-1097.015 -1241)"/>
</svg>
