<svg xmlns="http://www.w3.org/2000/svg" width="11" height="12" viewBox="0 0 11 12">
  <metadata><?xpacket begin="﻿" id="W5M0MpCehiHzreSzNTczkc9d"?>
<x:xmpmeta xmlns:x="adobe:ns:meta/" x:xmptk="Adobe XMP Core 5.6-c138 79.159824, 2016/09/14-01:09:01        ">
   <rdf:RDF xmlns:rdf="http://www.w3.org/1999/02/22-rdf-syntax-ns#">
      <rdf:Description rdf:about=""/>
   </rdf:RDF>
</x:xmpmeta>
                                                                                                    
                                                                                                    
                                                                                                    
                                                                                                    
                                                                                                    
                                                                                                    
                                                                                                    
                                                                                                    
                                                                                                    
                                                                                                    
                                                                                                    
                                                                                                    
                                                                                                    
                                                                                                    
                                                                                                    
                                                                                                    
                                                                                                    
                                                                                                    
                                                                                                    
                                                                                                    
                           
<?xpacket end="w"?></metadata>
<defs>
    <style>
      .cls-1 {
        fill: #6b6b6b;
        fill-rule: evenodd;
      }
    </style>
  </defs>
  <path id="icon_download_copy" data-name="icon_download copy" class="cls-1" d="M1239,565h-9a1,1,0,0,1-1-1v-2h1v2h9v-2h1v2A1,1,0,0,1,1239,565Zm-4.5-12a0.5,0.5,0,0,1,.5.5v8a0.5,0.5,0,0,1-1,0v-8A0.5,0.5,0,0,1,1234.5,553Zm-3.36,5.141a0.472,0.472,0,0,1,.67,0l3.02,3.016a0.486,0.486,0,0,1,0,.672,0.474,0.474,0,0,1-.67,0l-3.02-3.016A0.486,0.486,0,0,1,1231.14,558.141Zm6.75-.03a0.491,0.491,0,0,0-.69,0l-3.06,3.06a0.486,0.486,0,0,0,.69.686l3.06-3.059A0.485,0.485,0,0,0,1237.89,558.111Z" transform="translate(-1229 -553)"/>
</svg>
