<svg xmlns="http://www.w3.org/2000/svg" width="20" height="20" viewBox="0 0 20 20">
  <metadata><?xpacket begin="﻿" id="W5M0MpCehiHzreSzNTczkc9d"?>
<x:xmpmeta xmlns:x="adobe:ns:meta/" x:xmptk="Adobe XMP Core 5.6-c138 79.159824, 2016/09/14-01:09:01        ">
   <rdf:RDF xmlns:rdf="http://www.w3.org/1999/02/22-rdf-syntax-ns#">
      <rdf:Description rdf:about=""/>
   </rdf:RDF>
</x:xmpmeta>
                                                                                                    
                                                                                                    
                                                                                                    
                                                                                                    
                                                                                                    
                                                                                                    
                                                                                                    
                                                                                                    
                                                                                                    
                                                                                                    
                                                                                                    
                                                                                                    
                                                                                                    
                                                                                                    
                                                                                                    
                                                                                                    
                                                                                                    
                                                                                                    
                                                                                                    
                                                                                                    
                           
<?xpacket end="w"?></metadata>
<defs>
    <style>
      .cls-1 {
        fill: #6b6b6b;
        fill-rule: evenodd;
      }
    </style>
  </defs>
  <path id="print" class="cls-1" d="M1307,228h-16a2.006,2.006,0,0,1-2-2V216a2.007,2.007,0,0,1,1.98-2h16.04a2.007,2.007,0,0,1,1.98,2v10A2.006,2.006,0,0,1,1307,228Zm-12.28-7.007-4.22-3.986v7.972Zm-3.65,5.508h15.78l-4.74-4.48-1.63,1.546a2.058,2.058,0,0,1-3.04,0l-1.64-1.546Zm7.39-4.025a0.681,0.681,0,0,0,.99,0l7.38-6.976h-15.75Zm4.74-1.483,4.3,4.068v-8.137Z" transform="translate(-1289 -211)"/>
</svg>
