<svg xmlns="http://www.w3.org/2000/svg" width="35" height="35" viewBox="0 0 35 35">
  <metadata><?xpacket begin="﻿" id="W5M0MpCehiHzreSzNTczkc9d"?>
<x:xmpmeta xmlns:x="adobe:ns:meta/" x:xmptk="Adobe XMP Core 5.6-c138 79.159824, 2016/09/14-01:09:01        ">
   <rdf:RDF xmlns:rdf="http://www.w3.org/1999/02/22-rdf-syntax-ns#">
      <rdf:Description rdf:about=""/>
   </rdf:RDF>
</x:xmpmeta>
                                                                                                    
                                                                                                    
                                                                                                    
                                                                                                    
                                                                                                    
                                                                                                    
                                                                                                    
                                                                                                    
                                                                                                    
                                                                                                    
                                                                                                    
                                                                                                    
                                                                                                    
                                                                                                    
                                                                                                    
                                                                                                    
                                                                                                    
                                                                                                    
                                                                                                    
                                                                                                    
                           
<?xpacket end="w"?></metadata>
<defs>
    <style>
      .cls-1 {
        fill: #333;
        fill-rule: evenodd;
      }
    </style>
  </defs>
  <path id="letter" class="cls-1" d="M1424.5,205a17.5,17.5,0,1,1-17.5,17.5A17.5,17.5,0,0,1,1424.5,205Zm8.55,24h-17.1a0.936,0.936,0,0,1-.95-0.928V216.927a0.936,0.936,0,0,1,.95-0.929h17.1a0.943,0.943,0,0,1,.95.929V228.07A0.943,0.943,0,0,1,1433.05,229Zm-2.11-2.013-4.04-3.554-1.93,1.731a0.966,0.966,0,0,1-.94,0l-1.95-1.763-4.03,3.586h12.89Zm-13.93-1.329,3.67-3.515-3.67-3.415v6.93Zm1.62-7.661,5.87,5.29,1.86-1.71c0.01-.008.01-0.019,0.02-0.026s0.02-.007.03-0.012l4.01-3.542h-11.79Zm9.67,4.182,3.72,3.488v-6.888Z" transform="translate(-1407 -205)"/>
</svg>
