<svg
 xmlns="http://www.w3.org/2000/svg"
 xmlns:xlink="http://www.w3.org/1999/xlink"
 width="9px" height="9px" viewBox="0 0 9 9">
<path fill-rule="evenodd"  fill="rgb(118, 118, 118)"
 d="M5.727,4.487 L8.728,7.453 C9.084,7.803 9.084,8.371 8.728,8.721 C8.372,9.070 7.795,9.070 7.439,8.721 L4.489,5.804 L1.539,8.721 C1.183,9.070 0.606,9.070 0.250,8.721 C-0.106,8.371 -0.106,7.803 0.250,7.453 L3.251,4.487 L0.250,1.520 C-0.106,1.171 -0.106,0.603 0.250,0.253 C0.606,-0.097 1.183,-0.097 1.539,0.253 L4.489,3.170 L7.439,0.253 C7.795,-0.097 8.372,-0.097 8.728,0.253 C9.084,0.603 9.084,1.171 8.728,1.520 L5.727,4.487 Z"/>
</svg>