<svg 
 xmlns="http://www.w3.org/2000/svg"
 xmlns:xlink="http://www.w3.org/1999/xlink"
 width="23" height="23" viewBox="0 0 23 23">
<path fill-rule="evenodd"  fill="rgb(165, 0, 52)"
 d="M22.707,22.724 C22.515,22.916 22.265,23.011 22.013,23.011 C21.761,23.011 21.510,22.916 21.318,22.724 L16.334,17.737 C14.609,19.150 12.404,20.000 10.000,20.000 C4.477,20.000 -0.000,15.523 -0.000,10.000 C-0.000,4.477 4.477,-0.000 10.000,-0.000 C15.523,-0.000 20.000,4.477 20.000,10.000 C20.000,12.412 19.146,14.623 17.724,16.350 L22.707,21.334 C23.091,21.719 23.091,22.341 22.707,22.724 ZM10.000,2.000 C5.582,2.000 2.000,5.582 2.000,10.000 C2.000,14.418 5.582,18.000 10.000,18.000 C14.418,18.000 18.000,14.418 18.000,10.000 C18.000,5.582 14.418,2.000 10.000,2.000 Z"/>
</svg>