<svg xmlns="http://www.w3.org/2000/svg" width="35" height="35" viewBox="0 0 35 35">
  <metadata><?xpacket begin="﻿" id="W5M0MpCehiHzreSzNTczkc9d"?>
<x:xmpmeta xmlns:x="adobe:ns:meta/" x:xmptk="Adobe XMP Core 5.6-c138 79.159824, 2016/09/14-01:09:01        ">
   <rdf:RDF xmlns:rdf="http://www.w3.org/1999/02/22-rdf-syntax-ns#">
      <rdf:Description rdf:about=""/>
   </rdf:RDF>
</x:xmpmeta>
                                                                                                    
                                                                                                    
                                                                                                    
                                                                                                    
                                                                                                    
                                                                                                    
                                                                                                    
                                                                                                    
                                                                                                    
                                                                                                    
                                                                                                    
                                                                                                    
                                                                                                    
                                                                                                    
                                                                                                    
                                                                                                    
                                                                                                    
                                                                                                    
                                                                                                    
                                                                                                    
                           
<?xpacket end="w"?></metadata>
<defs>
    <style>
      .cls-1 {
        fill: #333;
        fill-rule: evenodd;
      }
    </style>
  </defs>
  <path id="google_" data-name="google+" class="cls-1" d="M1236.5,240a17.5,17.5,0,1,1,17.5-17.5A17.5,17.5,0,0,1,1236.5,240Zm-10.49-17.5a6.5,6.5,0,0,0,4.46,6.147,6.623,6.623,0,0,0,7.15-1.868,7.241,7.241,0,0,0,1.34-5.2c-2.11-.019-4.23-0.012-6.34-0.009,0,0.739,0,1.475.01,2.213,1.26,0.034,2.53.02,3.79,0.044a3.623,3.623,0,0,1-2.15,2.462,4.19,4.19,0,0,1-5.52-2.478,4.1,4.1,0,0,1,2.7-5.249,4.728,4.728,0,0,1,3.92.75q0.87-.817,1.68-1.7a6.717,6.717,0,0,0-4.76-1.6A6.5,6.5,0,0,0,1226.01,222.5Zm17-3.5c-0.01.665-.01,1.332-0.01,2-0.67.006-1.33,0.01-1.99,0.014v1.989c0.66,0,1.32.007,1.99,0.014,0,0.665,0,1.329.01,2,0.66,0,1.32,0,1.98,0,0-.667,0-1.332.01-2l1.99-.011V221c-0.67,0-1.33-.006-1.99-0.014,0-.665-0.01-1.331-0.01-2h-1.98Z" transform="translate(-1219 -205)"/>
</svg>
