<svg xmlns="http://www.w3.org/2000/svg" width="35" height="35" viewBox="0 0 35 35">
  <metadata><?xpacket begin="﻿" id="W5M0MpCehiHzreSzNTczkc9d"?>
<x:xmpmeta xmlns:x="adobe:ns:meta/" x:xmptk="Adobe XMP Core 5.6-c138 79.159824, 2016/09/14-01:09:01        ">
   <rdf:RDF xmlns:rdf="http://www.w3.org/1999/02/22-rdf-syntax-ns#">
      <rdf:Description rdf:about=""/>
   </rdf:RDF>
</x:xmpmeta>
                                                                                                    
                                                                                                    
                                                                                                    
                                                                                                    
                                                                                                    
                                                                                                    
                                                                                                    
                                                                                                    
                                                                                                    
                                                                                                    
                                                                                                    
                                                                                                    
                                                                                                    
                                                                                                    
                                                                                                    
                                                                                                    
                                                                                                    
                                                                                                    
                                                                                                    
                                                                                                    
                           
<?xpacket end="w"?></metadata>
<defs>
    <style>
      .cls-1 {
        fill: #333;
        fill-rule: evenodd;
      }
    </style>
  </defs>
  <path id="instagram" class="cls-1" d="M1283.5,205a17.5,17.5,0,1,1-17.5,17.5A17.5,17.5,0,0,1,1283.5,205Zm9.45,22.182v-9.364a4.775,4.775,0,0,0-4.77-4.768h-9.36a4.775,4.775,0,0,0-4.77,4.768v9.364a4.775,4.775,0,0,0,4.77,4.768h9.36A4.775,4.775,0,0,0,1292.95,227.181Zm-4.77-12.075a2.71,2.71,0,0,1,2.71,2.71v9.365a2.71,2.71,0,0,1-2.71,2.711h-9.36a2.71,2.71,0,0,1-2.71-2.71v-9.365a2.71,2.71,0,0,1,2.71-2.711h9.36Zm-4.68,12.26a4.867,4.867,0,1,0-4.87-4.867,4.878,4.878,0,0,0,4.87,4.867h0Zm4.9-8.728a1.143,1.143,0,1,0-1.27-1.136,1.22,1.22,0,0,0,1.27,1.136h0Zm-4.9,1.051a2.811,2.811,0,1,1-2.81,2.81,2.813,2.813,0,0,1,2.81-2.81h0Z" transform="translate(-1266 -205)"/>
</svg>
