<svg
 xmlns="http://www.w3.org/2000/svg"
 xmlns:xlink="http://www.w3.org/1999/xlink"
 width="2" height="14" viewBox="0 0 2 14">
<path fill-rule="evenodd"  fill="#767676"
 d="M1.000,8.000 C0.448,8.000 -0.000,7.552 -0.000,7.000 C-0.000,6.448 0.448,6.000 1.000,6.000 C1.552,6.000 2.000,6.448 2.000,7.000 C2.000,7.552 1.552,8.000 1.000,8.000 ZM1.000,2.000 C0.448,2.000 -0.000,1.552 -0.000,1.000 C-0.000,0.448 0.448,-0.000 1.000,-0.000 C1.552,-0.000 2.000,0.448 2.000,1.000 C2.000,1.552 1.552,2.000 1.000,2.000 ZM1.000,12.000 C1.552,12.000 2.000,12.448 2.000,13.000 C2.000,13.552 1.552,14.000 1.000,14.000 C0.448,14.000 -0.000,13.552 -0.000,13.000 C-0.000,12.448 0.448,12.000 1.000,12.000 Z"/>
</svg>