<svg 
 xmlns="http://www.w3.org/2000/svg"
 xmlns:xlink="http://www.w3.org/1999/xlink"
 width="18px" height="18px">
<path fill-rule="evenodd"  fill="rgb(26, 26, 26)"
 d="M9.000,18.000 C4.029,18.000 -0.000,13.970 -0.000,9.000 C-0.000,4.029 4.029,-0.000 9.000,-0.000 C13.970,-0.000 18.000,4.029 18.000,9.000 C18.000,13.970 13.970,18.000 9.000,18.000 ZM15.568,13.008 C14.992,12.893 13.968,12.715 12.664,12.576 C12.367,14.107 11.892,15.424 11.290,16.372 C13.095,15.810 14.599,14.589 15.568,13.008 ZM9.000,16.716 C9.640,16.716 10.697,15.120 11.234,12.455 C10.532,12.409 9.792,12.374 9.000,12.374 C8.207,12.374 7.466,12.404 6.764,12.445 C7.300,15.116 8.359,16.716 9.000,16.716 ZM11.572,9.000 C11.572,8.262 11.519,7.583 11.446,6.933 C10.685,6.975 9.874,7.005 9.000,7.005 C8.127,7.005 7.315,6.975 6.554,6.933 C6.481,7.583 6.428,8.262 6.428,9.000 C6.428,9.743 6.481,10.426 6.556,11.079 C7.316,11.033 8.127,11.000 9.000,11.000 C9.873,11.000 10.684,11.033 11.444,11.079 C11.519,10.426 11.572,9.743 11.572,9.000 ZM6.709,16.372 C6.104,15.418 5.627,14.093 5.331,12.551 C3.985,12.677 2.950,12.836 2.387,12.936 C3.354,14.553 4.878,15.801 6.709,16.372 ZM1.281,9.000 C1.281,9.933 1.459,10.823 1.764,11.652 C2.052,11.597 3.281,11.363 5.120,11.188 C5.042,10.488 5.000,9.755 5.000,9.000 C5.000,8.253 5.042,7.528 5.118,6.834 C3.223,6.671 1.973,6.450 1.738,6.409 C1.448,7.221 1.281,8.090 1.281,9.000 ZM2.354,5.116 C2.907,5.205 3.952,5.353 5.327,5.469 C5.623,3.918 6.102,2.586 6.709,1.628 C4.857,2.205 3.318,3.473 2.354,5.116 ZM9.000,1.284 C8.358,1.284 7.296,2.887 6.761,5.565 C7.465,5.602 8.206,5.629 9.000,5.629 C9.795,5.629 10.536,5.602 11.239,5.565 C10.704,2.887 9.642,1.284 9.000,1.284 ZM11.291,1.628 C11.898,2.586 12.377,3.918 12.673,5.470 C14.048,5.353 15.093,5.206 15.646,5.116 C14.682,3.473 13.143,2.205 11.291,1.628 ZM12.882,6.834 C12.958,7.528 13.000,8.253 13.000,9.000 C13.000,9.755 12.958,10.488 12.880,11.188 C14.718,11.363 15.946,11.597 16.236,11.651 C16.541,10.823 16.719,9.933 16.719,9.000 C16.719,8.090 16.552,7.221 16.262,6.409 C16.026,6.450 14.776,6.671 12.882,6.834 Z"/>
</svg>