<svg 
 xmlns="http://www.w3.org/2000/svg"
 xmlns:xlink="http://www.w3.org/1999/xlink"
 width="35px" height="35px">
<path fill-rule="evenodd"  fill="rgb(51, 51, 51)"
 d="M17.500,34.998 C7.834,34.998 -0.000,27.163 -0.000,17.498 C-0.000,7.833 7.834,-0.002 17.500,-0.002 C27.165,-0.002 34.999,7.833 34.999,17.498 C34.999,27.163 27.165,34.998 17.500,34.998 ZM16.000,14.000 L13.000,14.000 L13.000,8.000 L11.000,8.000 L11.000,16.000 L16.000,16.000 L16.000,14.000 ZM16.000,18.000 L13.000,18.000 L11.502,23.948 L11.406,23.948 L10.000,18.000 L7.000,18.000 L7.000,26.000 L9.000,26.000 L8.990,20.053 L9.086,20.053 L10.497,25.989 L12.592,25.989 L13.799,20.053 L13.906,20.053 L14.000,26.000 L16.000,26.000 L16.000,18.000 ZM19.610,22.000 C19.462,21.996 19.329,21.994 19.209,21.994 C18.834,21.994 18.495,22.019 18.192,22.069 C17.888,22.119 17.629,22.332 17.414,22.458 C17.198,22.585 17.032,22.760 16.917,22.982 C16.801,23.204 16.743,23.488 16.743,23.833 C16.743,24.048 16.765,24.255 16.809,24.454 C16.853,24.654 16.943,25.332 17.078,25.489 C17.214,25.646 17.406,25.771 17.653,25.863 C17.900,25.955 18.223,26.001 18.622,26.001 C18.894,26.001 19.183,25.945 19.490,25.834 C19.797,25.723 20.051,25.575 20.250,25.391 C20.482,25.744 21.272,25.920 21.878,25.920 C22.125,25.920 22.317,25.905 22.453,25.874 L22.453,24.717 C22.285,24.717 22.157,24.679 22.069,24.602 C21.982,24.526 21.938,24.380 21.938,24.165 L21.938,22.200 C21.938,21.778 21.902,21.425 21.830,21.141 C21.758,20.858 21.264,20.630 21.088,20.457 C20.913,20.285 20.683,20.162 20.400,20.089 C20.117,20.016 19.760,19.980 19.329,19.980 C18.890,19.980 18.459,20.032 18.036,20.135 C17.613,20.239 17.254,20.367 16.959,20.520 L17.270,21.429 C17.501,21.307 17.759,21.209 18.042,21.136 C18.325,21.063 18.622,21.027 18.934,21.027 C19.317,21.027 19.590,21.101 19.754,21.251 C19.917,21.400 19.999,21.492 19.999,21.776 L19.999,22.017 C19.887,22.010 19.757,22.004 19.610,22.000 ZM23.987,10.971 L19.996,10.971 L19.996,12.704 L22.226,12.704 L22.185,13.639 L21.654,14.029 C21.399,14.051 21.159,14.145 20.936,14.145 C20.186,14.145 19.838,13.928 19.608,13.699 C19.188,13.279 18.998,12.888 18.998,12.014 C18.998,11.086 19.145,10.795 19.590,10.350 C19.822,10.118 20.162,9.859 20.936,9.859 C21.367,9.859 21.740,9.809 22.055,9.955 C22.370,10.100 22.762,10.211 22.985,10.448 L23.955,9.116 C23.596,8.717 23.043,8.431 22.540,8.259 C22.037,8.086 21.494,7.959 20.912,7.959 C20.290,7.959 19.735,8.082 19.248,8.247 C18.761,8.412 18.349,8.658 18.009,8.983 C17.670,9.309 17.411,9.718 17.231,10.208 C17.052,10.699 16.962,11.266 16.962,11.911 C16.962,13.160 17.273,14.124 17.896,14.803 C18.518,15.482 19.500,15.984 20.840,15.984 C21.399,15.984 22.008,15.997 22.443,15.770 C22.926,15.519 23.603,15.023 23.987,14.855 L23.987,10.971 ZM27.995,20.107 L26.786,20.107 L26.738,20.256 C26.578,20.187 26.397,20.124 26.193,20.066 C25.990,20.009 25.764,19.980 25.517,19.980 C24.998,19.980 24.565,20.053 24.218,20.198 C23.871,20.344 23.781,20.548 23.574,20.808 C23.366,21.069 23.219,21.380 23.131,21.740 C23.043,22.100 22.999,22.499 22.999,22.936 C22.999,23.741 23.191,24.370 23.574,24.822 C23.957,25.275 24.388,25.500 25.242,25.500 C25.457,25.500 25.666,25.483 25.870,25.449 C26.073,25.414 26.075,25.370 26.251,25.317 L26.251,25.765 C26.251,26.187 26.127,26.482 25.880,26.650 C25.632,26.819 25.489,26.904 25.074,26.904 C24.763,26.904 24.485,26.879 24.242,26.829 C23.999,26.779 23.805,26.731 23.662,26.685 L23.255,27.686 C23.494,27.778 23.773,27.854 24.092,27.916 C24.412,27.977 24.767,28.008 25.158,28.008 C25.565,28.008 25.942,27.964 26.289,27.876 C26.636,27.787 26.935,27.643 27.187,27.444 C27.438,27.245 27.635,26.986 27.779,26.668 C27.923,26.350 27.995,25.960 27.995,25.500 L27.995,20.107 ZM25.744,24.289 C25.249,24.289 25.090,24.138 24.890,23.835 C24.691,23.532 24.591,23.327 24.591,22.844 C24.591,22.192 24.699,22.037 24.914,21.753 C25.130,21.470 25.301,21.327 25.804,21.327 C26.027,21.327 26.083,21.355 26.282,21.408 L26.282,24.197 C26.155,24.244 26.189,24.270 26.073,24.278 C25.958,24.285 25.848,24.289 25.744,24.289 ZM19.999,24.132 C19.855,24.262 19.688,24.355 19.496,24.408 C19.305,24.462 19.141,24.488 19.005,24.488 C18.750,24.488 18.576,24.427 18.485,24.305 C18.393,24.182 18.347,24.005 18.347,23.775 C18.347,23.561 18.409,23.394 18.533,23.275 C18.656,23.156 18.886,23.034 19.221,23.034 C19.341,23.034 19.466,23.036 19.598,23.040 C19.730,23.044 19.863,23.054 19.999,23.069 L19.999,24.132 Z"/>
</svg>