<svg xmlns="http://www.w3.org/2000/svg" width="35" height="35" viewBox="0 0 35 35">
  <metadata><?xpacket begin="﻿" id="W5M0MpCehiHzreSzNTczkc9d"?>
<x:xmpmeta xmlns:x="adobe:ns:meta/" x:xmptk="Adobe XMP Core 5.6-c138 79.159824, 2016/09/14-01:09:01        ">
   <rdf:RDF xmlns:rdf="http://www.w3.org/1999/02/22-rdf-syntax-ns#">
      <rdf:Description rdf:about=""/>
   </rdf:RDF>
</x:xmpmeta>
                                                                                                    
                                                                                                    
                                                                                                    
                                                                                                    
                                                                                                    
                                                                                                    
                                                                                                    
                                                                                                    
                                                                                                    
                                                                                                    
                                                                                                    
                                                                                                    
                                                                                                    
                                                                                                    
                                                                                                    
                                                                                                    
                                                                                                    
                                                                                                    
                                                                                                    
                                                                                                    
                           
<?xpacket end="w"?></metadata>
<defs>
    <style>
      .cls-1 {
        fill: #333;
        fill-rule: evenodd;
      }
    </style>
  </defs>
  <path id="linkedin" class="cls-1" d="M1072.5,2201a17.5,17.5,0,1,1-17.5,17.5A17.5,17.5,0,0,1,1072.5,2201Zm8.5,18.39V2225h-3v-5.23a1.97,1.97,0,0,0-1.94-2.22,2.218,2.218,0,0,0-1.95,1.19,2.151,2.151,0,0,0-.11.8V2225h-3s0.04-9.08,0-10h3.27v1.6a0.076,0.076,0,0,1-.02.04h0.02v-0.04a3.284,3.284,0,0,1,2.96-1.61C1079.38,2214.99,1081,2216.39,1081,2219.39Zm-13.49-8.39a1.505,1.505,0,0,0-.04,3.01h0.02A1.505,1.505,0,0,0,1067.51,2211Zm-1.51,14h3v-10.01h-3V2225Z" transform="translate(-1055 -2201)"/>
</svg>
