<?xml version="1.0" encoding="utf-8"?>
<!-- Generator: Adobe Illustrator 24.3.0, SVG Export Plug-In . SVG Version: 6.00 Build 0)  -->
<svg version="1.1" id="Layer_1" xmlns="http://www.w3.org/2000/svg" xmlns:xlink="http://www.w3.org/1999/xlink" x="0px" y="0px"
	 viewBox="0 0 72 72" style="enable-background:new 0 0 72 72;" xml:space="preserve">
<style type="text/css">
	path{fill:#a50034;}
</style>
<g>
	<path d="M15.4,69.6l-10-27.1H11l5.7,16.3l1.4,4.1h0.1l1.4-4.1l5.5-16.3h5.5l-9.9,27.1H15.4z"/>
	<path d="M34.8,42.5h5.3v27.1h-5.3V42.5z"/>
	<path d="M51.9,59.8v9.8h-5.3V42.5h10.1c3.2,0,5.7,0.7,7.4,2.1c1.7,1.4,2.5,3.6,2.5,6.5s-0.8,5.1-2.5,6.5c-1.7,1.4-4.1,2.1-7.4,2.1
		h-4.8C51.9,59.7,51.9,59.8,51.9,59.8z M51.9,46.8v8.7h4.7c1.4,0,2.6-0.4,3.4-1.1c0.8-0.7,1.2-1.8,1.2-3.2s-0.4-2.5-1.2-3.3
		c-0.8-0.7-2-1.1-3.4-1.1C56.6,46.8,51.9,46.8,51.9,46.8z"/>
</g>
<path d="M56.4,5.3c-1.7,0-3.1,1.4-3.1,3.1c0,0.5,0.1,0.8,0.2,1.3l-8.9,7.8L38,6c0.6-0.6,1-1.5,1-2.4c0-2-1.4-3.2-3.1-3.2
	s-3.1,1.5-3.1,3.2c0,1,0.5,2,1.3,2.5l-6.4,11.4l-9.2-8.2c0.2-0.3,0.2-0.8,0.2-1.3c0-1.7-1.5-3.1-3.1-3.1s-3.2,1.4-3.2,3.1
	s1.5,3.1,3.1,3.1c0.2,0,0.3,0,0.5,0l4.7,18.8c0,0.2,0.1,0.3,0.3,0.5c0.1,0.1,6,4.3,15,4.3c4.5,0,9.7-1,15.3-4.1
	c0.2-0.1,0.3-0.3,0.5-0.6l4.6-18.4c0.1,0,0.1,0,0.2,0c1.7,0,3.1-1.5,3.1-3.1C59.7,6.6,58.2,5.2,56.4,5.3z"/>
</svg>
