<svg xmlns="http://www.w3.org/2000/svg" width="20" height="20" viewBox="0 0 20 20">
  <metadata><?xpacket begin="﻿" id="W5M0MpCehiHzreSzNTczkc9d"?>
<x:xmpmeta xmlns:x="adobe:ns:meta/" x:xmptk="Adobe XMP Core 5.6-c138 79.159824, 2016/09/14-01:09:01        ">
   <rdf:RDF xmlns:rdf="http://www.w3.org/1999/02/22-rdf-syntax-ns#">
      <rdf:Description rdf:about=""/>
   </rdf:RDF>
</x:xmpmeta>
                                                                                                    
                                                                                                    
                                                                                                    
                                                                                                    
                                                                                                    
                                                                                                    
                                                                                                    
                                                                                                    
                                                                                                    
                                                                                                    
                                                                                                    
                                                                                                    
                                                                                                    
                                                                                                    
                                                                                                    
                                                                                                    
                                                                                                    
                                                                                                    
                                                                                                    
                                                                                                    
                           
<?xpacket end="w"?></metadata>
<defs>
    <style>
      .cls-1 {
        fill: #1a1a1a;
        fill-rule: evenodd;
      }
    </style>
  </defs>
  <path class="cls-1" d="M1408.96,5815.54a4.77,4.77,0,1,1,4.78-4.77A4.786,4.786,0,0,1,1408.96,5815.54Zm0-8.04a3.27,3.27,0,1,0,3.27,3.27A3.28,3.28,0,0,0,1408.96,5807.5Zm8.18,16.41a0.748,0.748,0,0,1-.73-0.56c-0.76-2.81-3.89-4.84-7.43-4.84s-6.68,2.03-7.44,4.84a0.738,0.738,0,0,1-.92.53,0.751,0.751,0,0,1-.53-0.92c0.95-3.51,4.6-5.96,8.89-5.96s7.93,2.45,8.88,5.96a0.751,0.751,0,0,1-.53.92A0.628,0.628,0,0,1,1417.14,5823.91Z" transform="translate(-1398.97 -5804.955)"/>
</svg>
