<svg 
 xmlns="http://www.w3.org/2000/svg"
 xmlns:xlink="http://www.w3.org/1999/xlink"
 width="16px" height="20px">
<path fill-rule="evenodd"  fill="rgb(51, 51, 51)"
 d="M14.000,20.000 L5.000,20.000 C4.418,20.000 3.000,18.589 3.000,18.000 L3.000,13.000 L5.000,13.000 L5.000,16.000 L14.000,16.000 L14.000,3.999 L5.000,3.999 L5.000,7.000 L3.000,7.000 C3.000,4.743 3.000,1.999 3.000,1.999 C3.000,1.411 4.418,-0.001 5.000,-0.001 L14.000,-0.001 C14.582,-0.001 16.000,1.411 16.000,1.999 L16.000,18.000 C16.000,18.589 14.582,20.000 14.000,20.000 ZM7.984,7.984 C7.489,7.489 7.000,7.000 7.000,7.000 L7.000,5.999 L8.000,5.999 L11.969,9.656 L11.969,10.250 L8.000,14.000 L7.000,14.000 L7.000,13.000 C7.000,13.000 7.489,12.510 7.984,12.015 C7.984,11.510 8.000,11.000 8.000,11.000 L-0.000,11.000 L-0.000,9.000 L8.000,9.000 C8.000,9.000 7.984,8.489 7.984,7.984 Z"/>
</svg>