<svg xmlns="http://www.w3.org/2000/svg" xmlns:xlink="http://www.w3.org/1999/xlink" width="12px" height="14px">
<path fill-rule="evenodd"  fill="rgb(255, 255, 255)" d="M8.000,12.998 L8.000,0.998 L11.000,0.998 L11.000,12.998 L8.000,12.998 ZM1.000,0.998 L4.000,0.998 L4.000,12.998 L1.000,12.998 L1.000,0.998 Z"/>
<path fill-rule="evenodd"  opacity="0.4" fill="rgb(0, 0, 0)" d="M11.000,14.000 L8.000,14.000 C7.448,14.000 7.000,13.552 7.000,13.000 L7.000,1.000 C7.000,0.448 7.448,-0.000 8.000,-0.000 L11.000,-0.000 C11.552,-0.000 12.000,0.448 12.000,1.000 L12.000,13.000 C12.000,13.552 11.552,14.000 11.000,14.000 ZM11.000,0.998 L8.000,0.998 L8.000,12.998 L11.000,12.998 L11.000,0.998 ZM4.000,14.000 L1.000,14.000 C0.448,14.000 -0.000,13.552 -0.000,13.000 L-0.000,1.000 C-0.000,0.448 0.448,-0.000 1.000,-0.000 L4.000,-0.000 C4.552,-0.000 5.000,0.448 5.000,1.000 L5.000,13.000 C5.000,13.552 4.552,14.000 4.000,14.000 ZM4.000,0.998 L1.000,0.998 L1.000,12.998 L4.000,12.998 L4.000,0.998 Z"/>
</svg>