<svg xmlns="http://www.w3.org/2000/svg" width="35" height="35" viewBox="0 0 35 35">
  <metadata><?xpacket begin="﻿" id="W5M0MpCehiHzreSzNTczkc9d"?>
<x:xmpmeta xmlns:x="adobe:ns:meta/" x:xmptk="Adobe XMP Core 5.6-c138 79.159824, 2016/09/14-01:09:01        ">
   <rdf:RDF xmlns:rdf="http://www.w3.org/1999/02/22-rdf-syntax-ns#">
      <rdf:Description rdf:about=""/>
   </rdf:RDF>
</x:xmpmeta>
                                                                                                    
                                                                                                    
                                                                                                    
                                                                                                    
                                                                                                    
                                                                                                    
                                                                                                    
                                                                                                    
                                                                                                    
                                                                                                    
                                                                                                    
                                                                                                    
                                                                                                    
                                                                                                    
                                                                                                    
                                                                                                    
                                                                                                    
                                                                                                    
                                                                                                    
                                                                                                    
                           
<?xpacket end="w"?></metadata>
<defs>
    <style>
      .cls-1 {
        fill: #333;
        fill-rule: evenodd;
      }
    </style>
  </defs>
  <path id="pinterest" class="cls-1" d="M1330.5,240a17.5,17.5,0,1,1,17.5-17.5A17.5,17.5,0,0,1,1330.5,240Zm1.67-12.947c4.04,0.31,6.3-4.031,5.75-8.039-0.49-3.551-4.04-5.359-7.82-4.937a6.742,6.742,0,0,0-6.09,6.2c-0.08,2.108.52,3.689,2.53,4.133,0.87-1.535-.28-1.873-0.46-2.985-0.74-4.551,5.25-7.657,8.39-4.479,2.17,2.2.74,8.971-2.76,8.269-3.35-.674,1.64-6.063-1.03-7.12-2.18-.86-3.33,2.628-2.3,4.364-0.61,2.981-1.91,5.79-1.38,9.529,1.71-1.238,2.28-3.611,2.76-6.085a4.835,4.835,0,0,0,2.41,1.149h0Z" transform="translate(-1313 -205)"/>
</svg>
