<svg xmlns="http://www.w3.org/2000/svg" width="12" height="12" viewBox="0 0 12 12">
<defs>
    <style>
      .cls-1 {
        fill: #333;
        fill-rule: evenodd;
      }
    </style>
  </defs>
  <path id="x_copy" data-name="x copy" class="cls-1" d="M853.044,1111.98l4.736,4.74a0.75,0.75,0,0,1-1.061,1.06l-4.735-4.74-4.735,4.74a0.75,0.75,0,1,1-1.061-1.06l4.736-4.74-4.736-4.73a0.751,0.751,0,0,1,0-1.06,0.738,0.738,0,0,1,1.061,0l4.735,4.73,4.735-4.73a0.738,0.738,0,0,1,1.061,0,0.751,0.751,0,0,1,0,1.06Z" transform="translate(-846 -1106)"/>
</svg>
