<?xml version="1.0" encoding="utf-8"?>
<!-- Generator: Adobe Illustrator 25.4.1, SVG Export Plug-In . SVG Version: 6.00 Build 0)  -->
<svg version="1.1" id="레이어_1" xmlns="http://www.w3.org/2000/svg" xmlns:xlink="http://www.w3.org/1999/xlink" x="0px"
	 y="0px" viewBox="0 0 17.7 17.8" style="enable-background:new 0 0 17.7 17.8;" xml:space="preserve">
<style type="text/css">
	.st0{fill:none;}
	.st1{fill:#1A1A1A;}
</style>
<g>
	<path class="st0" d="M6.6,7.5c0,0.1,0.1,0.2,0.2,0.2h2.6c0.1,0,0.2-0.1,0.2-0.2S9.5,7.3,9.4,7.3H6.8C6.7,7.3,6.6,7.4,6.6,7.5z"/>
	<polygon class="st0" points="11.9,1.4 8.8,1.4 8.8,4 14,4 	"/>
	<polygon class="st0" points="7.4,1.4 3.9,1.4 2.1,4 7.4,4 	"/>
	<path class="st0" d="M13.5,11c-1.4,0-2.6,1.1-2.6,2.6c0,1.4,1.1,2.6,2.6,2.6c1.4,0,2.6-1.2,2.6-2.6C16.1,12.2,14.9,11,13.5,11z
		 M15.5,13.6c0,0.4-0.3,0.7-0.7,0.7h-0.6v0.6c0,0.4-0.3,0.7-0.7,0.7c-0.4,0-0.7-0.3-0.7-0.7v-0.6h-0.5c-0.4,0-0.7-0.3-0.7-0.7
		c0-0.4,0.3-0.7,0.7-0.7h0.6v-0.6c0-0.4,0.3-0.7,0.7-0.7c0.4,0,0.7,0.3,0.7,0.7v0.6h0.6C15.3,12.9,15.6,13.2,15.5,13.6z"/>
	<path class="st1" d="M1.4,14.8V5.3h13.4V9l1.4,0.7V4.1l-3-3.5c0-0.3-0.3-0.6-0.7-0.6H3.3C3,0.1,2.7,0.3,2.7,0.7L0,4.1v11.3
		c0,0.4,0.3,0.7,0.7,0.7h8.9L9,14.8H1.4z M8.8,1.4h3.1L14,4H8.8V1.4z M3.9,1.4h3.5V4H2.1L3.9,1.4z"/>
	<path class="st1" d="M14.3,12.9v-0.6c0-0.4-0.3-0.7-0.7-0.7c-0.4,0-0.7,0.3-0.7,0.7v0.6h-0.6c-0.4,0-0.7,0.3-0.7,0.7
		c0,0.4,0.3,0.7,0.7,0.7h0.5v0.6c0,0.4,0.3,0.7,0.7,0.7c0.4,0,0.7-0.3,0.7-0.7v-0.6h0.6c0.4,0,0.7-0.3,0.7-0.7
		c0.1-0.4-0.2-0.7-0.6-0.7H14.3z"/>
	<path class="st1" d="M13.5,9.4c-2.3,0-4.2,1.9-4.2,4.2c0,2.3,1.9,4.2,4.2,4.2s4.2-1.9,4.2-4.2C17.7,11.3,15.8,9.4,13.5,9.4z
		 M13.5,16.2c-1.5,0-2.6-1.2-2.6-2.6c0-1.5,1.2-2.6,2.6-2.6s2.6,1.2,2.6,2.6C16.1,15,14.9,16.2,13.5,16.2z"/>
	<path class="st1" d="M5.3,7.5c0,0.8,0.6,1.6,1.5,1.6h2.6c0.9,0,1.5-0.7,1.5-1.5c0-0.8-0.7-1.5-1.5-1.5H6.8V6C5.9,6,5.3,6.7,5.3,7.5
		z M9.4,7.3c0.1,0,0.2,0.1,0.2,0.2S9.5,7.7,9.4,7.7H6.8c-0.1,0-0.2-0.1-0.2-0.2s0.1-0.2,0.2-0.2H9.4z"/>
</g>
</svg>
