<svg xmlns="http://www.w3.org/2000/svg" width="20" height="20" viewBox="0 0 20 20">
<defs>
    <style>
      .cls-1 {
        fill: #a50034;
        fill-rule: evenodd;
      }
    </style>
  </defs>
  <path class="cls-1" d="M1549.63,5935.25a7.63,7.63,0,1,1,5.39-13.02h0A7.625,7.625,0,0,1,1549.63,5935.25Zm0-13.73a6.111,6.111,0,1,0,4.31,1.79h0A6.019,6.019,0,0,0,1549.63,5921.52Zm9.6,16.48a0.736,0.736,0,0,1-.53-0.23l-3.92-3.91a0.764,0.764,0,0,1,1.08-1.08l3.91,3.91A0.77,0.77,0,0,1,1559.23,5938Z" transform="translate(-1541 -5919)"/>
</svg>
