<!-- Generator: Adobe Illustrator 25.2.3, SVG Export Plug-In  -->
<svg version="1.1" xmlns="http://www.w3.org/2000/svg" xmlns:xlink="http://www.w3.org/1999/xlink" x="0px" y="0px" width="18.1px"
	 height="17.9px" viewBox="0 0 18.1 17.9" style="overflow:visible;enable-background:new 0 0 18.1 17.9;" xml:space="preserve">
<style type="text/css">
	.st0{fill:none;}
	.st1{fill:#1A1A1A;}
	.st2{fill-rule:evenodd;clip-rule:evenodd;fill:#1A1A1A;}
</style>
<defs>
</defs>
<g>
	<path class="st0" d="M8.9,8c1.8,0,3.3-1.5,3.3-3.3c0-1.8-1.5-3.3-3.3-3.3C7.1,1.5,5.6,3,5.6,4.8S7.1,8,8.9,8z"/>
	<path class="st1" d="M8.9,11C4.6,11,1,13.5,0,17c-0.1,0.4,0.1,0.8,0.5,0.9c0,0,0,0,0,0C1,18,1.4,17.7,1.5,17.4
		c0.8-2.8,3.9-4.8,7.4-4.8c0.4,0,0.8,0,1.2,0.1c0.4,0.1,0.8-0.2,0.8-0.6l0,0c0.1-0.4-0.2-0.8-0.7-0.9C9.8,11,9.4,11,8.9,11z"/>
	<path class="st1" d="M8.9,9.5c2.6,0,4.8-2.1,4.8-4.8c0-2.6-2.1-4.8-4.8-4.8C6.3,0,4.1,2.1,4.1,4.8C4.1,7.4,6.3,9.5,8.9,9.5z
		 M8.9,1.5c1.8,0,3.3,1.5,3.3,3.3c0,1.8-1.5,3.3-3.3,3.3C7.1,8,5.6,6.6,5.6,4.8S7.1,1.5,8.9,1.5z"/>
	<path class="st2" d="M10.8,14.2L10.8,14.2c0-0.4,0.3-0.7,0.7-0.7h5.9c0.4,0,0.7,0.3,0.7,0.7v0c0,0.4-0.3,0.7-0.7,0.7h-5.9
		C11.1,14.9,10.8,14.6,10.8,14.2z"/>
	<path class="st2" d="M14.4,10.5L14.4,10.5c0.4,0,0.7,0.3,0.7,0.7v5.9c0,0.4-0.3,0.7-0.7,0.7h0c-0.4,0-0.7-0.3-0.7-0.7v-5.9
		C13.7,10.8,14,10.5,14.4,10.5z"/>
</g>
</svg>
