<svg xmlns="http://www.w3.org/2000/svg" width="20" height="20" viewBox="0 0 20 20">
  <metadata><?xpacket begin="﻿" id="W5M0MpCehiHzreSzNTczkc9d"?>
<x:xmpmeta xmlns:x="adobe:ns:meta/" x:xmptk="Adobe XMP Core 5.6-c138 79.159824, 2016/09/14-01:09:01        ">
   <rdf:RDF xmlns:rdf="http://www.w3.org/1999/02/22-rdf-syntax-ns#">
      <rdf:Description rdf:about=""/>
   </rdf:RDF>
</x:xmpmeta>
                                                                                                    
                                                                                                    
                                                                                                    
                                                                                                    
                                                                                                    
                                                                                                    
                                                                                                    
                                                                                                    
                                                                                                    
                                                                                                    
                                                                                                    
                                                                                                    
                                                                                                    
                                                                                                    
                                                                                                    
                                                                                                    
                                                                                                    
                                                                                                    
                                                                                                    
                                                                                                    
                           
<?xpacket end="w"?></metadata>
<defs>
    <style>
      .cls-1 {
        fill: #6b6b6b;
        fill-rule: evenodd;
      }
    </style>
  </defs>
  <path class="cls-1" d="M1437.15,152.708a3.225,3.225,0,0,0-3.98.746l-5.76-2.573a3,3,0,0,0,0-1.68l5.76-2.573a3.223,3.223,0,0,0,3.99.746,3.309,3.309,0,0,0,1.59-1.963,3.423,3.423,0,0,0-.24-2.532,3.275,3.275,0,0,0-1.93-1.618,3.185,3.185,0,0,0-2.49.244,3.333,3.333,0,0,0-1.62,3.776l-5.76,2.576a3.229,3.229,0,0,0-2.44-1.14,3.324,3.324,0,0,0,0,6.648,3.229,3.229,0,0,0,2.44-1.14l5.76,2.575a3.333,3.333,0,0,0,1.62,3.777,3.206,3.206,0,0,0,1.53.391,3.262,3.262,0,0,0,2.89-1.765,3.425,3.425,0,0,0,.24-2.533A3.284,3.284,0,0,0,1437.15,152.708Zm-3.22-8.795a1.776,1.776,0,0,1,.86-1.063,1.735,1.735,0,0,1,.83-0.211,1.751,1.751,0,0,1,1.56.956h0a1.816,1.816,0,0,1-.73,2.434,1.748,1.748,0,0,1-2.37-.717,0.042,0.042,0,0,1-.01-0.032,0.048,0.048,0,0,1-.02-0.027A1.783,1.783,0,0,1,1433.93,143.913Zm-9.66,7.928a1.8,1.8,0,1,1,1.76-1.8A1.785,1.785,0,0,1,1424.27,151.841Zm12.91,4.646h0a1.759,1.759,0,0,1-1.04.876,1.739,1.739,0,0,1-1.35-.132,1.778,1.778,0,0,1-.86-1.064,1.8,1.8,0,0,1,.12-1.346,0.041,0.041,0,0,1,.02-0.02,0.036,0.036,0,0,1,.01-0.029,1.742,1.742,0,0,1,2.37-.72A1.816,1.816,0,0,1,1437.18,156.487Z" transform="translate(-1419.955 -140.031)"/>
</svg>
