<svg xmlns="http://www.w3.org/2000/svg" width="20" height="20" viewBox="0 0 20 20">
  <metadata><?xpacket begin="﻿" id="W5M0MpCehiHzreSzNTczkc9d"?>
<x:xmpmeta xmlns:x="adobe:ns:meta/" x:xmptk="Adobe XMP Core 5.6-c138 79.159824, 2016/09/14-01:09:01        ">
   <rdf:RDF xmlns:rdf="http://www.w3.org/1999/02/22-rdf-syntax-ns#">
      <rdf:Description rdf:about=""/>
   </rdf:RDF>
</x:xmpmeta>
                                                                                                    
                                                                                                    
                                                                                                    
                                                                                                    
                                                                                                    
                                                                                                    
                                                                                                    
                                                                                                    
                                                                                                    
                                                                                                    
                                                                                                    
                                                                                                    
                                                                                                    
                                                                                                    
                                                                                                    
                                                                                                    
                                                                                                    
                                                                                                    
                                                                                                    
                                                                                                    
                           
<?xpacket end="w"?></metadata>
<defs>
    <style>
      .cls-1 {
        fill: #1a1a1a;
        fill-rule: evenodd;
      }
    </style>
  </defs>
  <path class="cls-1" d="M8.977,16A1.027,1.027,0,0,1,8.3,15.76C7.23,14.844,1.812,10.125.535,7.5a5.579,5.579,0,0,1-.21-4.279A4.668,4.668,0,0,1,2.745.549,5.755,5.755,0,0,1,5.136.032,5.382,5.382,0,0,1,8.978,1.569,5.378,5.378,0,0,1,12.84.012a5.755,5.755,0,0,1,2.393.518A4.663,4.663,0,0,1,17.651,3.2h0a5.568,5.568,0,0,1-.212,4.275c-1.32,2.721-7.105,7.7-7.761,8.263A1.034,1.034,0,0,1,9.1,16C9.071,16,9,16,8.977,16Zm0.308-1.33,0.006,0Zm-0.591-.023-0.028.024A0.339,0.339,0,0,0,8.694,14.649ZM5.136,1.479a4.22,4.22,0,0,0-1.753.379A3.214,3.214,0,0,0,1.73,3.7,4.141,4.141,0,0,0,1.886,6.88C2.8,8.76,6.631,12.37,8.977,14.406c2.238-1.938,6.187-5.642,7.113-7.549a4.137,4.137,0,0,0,.156-3.173h0a3.211,3.211,0,0,0-1.652-1.847,4.232,4.232,0,0,0-1.754-.379A3.609,3.609,0,0,0,9.73,3l-0.1.172a0.75,0.75,0,0,1-.645.36h0a0.75,0.75,0,0,1-.644-0.359l-0.09-.149A3.6,3.6,0,0,0,5.136,1.479Z" transform="translate(1 2)"/>
</svg>
