<svg xmlns="http://www.w3.org/2000/svg" width="20" height="20" viewBox="0 0 20 20">
  <metadata><?xpacket begin="﻿" id="W5M0MpCehiHzreSzNTczkc9d"?>
<x:xmpmeta xmlns:x="adobe:ns:meta/" x:xmptk="Adobe XMP Core 5.6-c142 79.160924, 2017/07/13-01:06:39        ">
   <rdf:RDF xmlns:rdf="http://www.w3.org/1999/02/22-rdf-syntax-ns#">
      <rdf:Description rdf:about=""/>
   </rdf:RDF>
</x:xmpmeta>
                                                                                                    
                                                                                                    
                                                                                                    
                                                                                                    
                                                                                                    
                                                                                                    
                                                                                                    
                                                                                                    
                                                                                                    
                                                                                                    
                                                                                                    
                                                                                                    
                                                                                                    
                                                                                                    
                                                                                                    
                                                                                                    
                                                                                                    
                                                                                                    
                                                                                                    
                                                                                                    
                           
<?xpacket end="w"?></metadata>
<defs>
    <style>
      .cls-1 {
        fill: #6b6b6b;
        fill-rule: evenodd;
      }
    </style>
  </defs>
  <path class="cls-1" d="M505.49,753a1.048,1.048,0,0,1-.679-0.24c-1.008-.853-6.089-5.229-7.293-7.681a5.219,5.219,0,0,1-.2-4.045,4.433,4.433,0,0,1,2.312-2.522,5.513,5.513,0,0,1,2.268-.486,5.174,5.174,0,0,1,3.594,1.389A5.166,5.166,0,0,1,509.1,738a5.515,5.515,0,0,1,2.271.487,4.417,4.417,0,0,1,2.309,2.523,5.207,5.207,0,0,1-.2,4.042c-1.234,2.515-6.669,7.154-7.284,7.675a1.035,1.035,0,0,1-.594.259C505.578,752.992,505.515,753,505.49,753Zm-0.311-1.434a0.327,0.327,0,0,0-.035.03Zm-3.282-12a3.9,3.9,0,0,0-1.608.344,2.885,2.885,0,0,0-1.5,1.654,3.669,3.669,0,0,0,.14,2.85c0.841,1.713,4.365,5,6.558,6.888,2.1-1.811,5.733-5.188,6.577-6.908a3.673,3.673,0,0,0,.142-2.848h0a2.881,2.881,0,0,0-1.5-1.653,3.9,3.9,0,0,0-1.61-.345,3.353,3.353,0,0,0-2.838,1.382l-0.1.159a0.789,0.789,0,0,1-.673.377h0a0.786,0.786,0,0,1-.673-0.376l-0.084-.137A3.3,3.3,0,0,0,501.9,739.56Z" transform="translate(-495.515 -735.5)"/>
</svg>
