<svg xmlns="http://www.w3.org/2000/svg" width="20" height="20" viewBox="0 0 20 20">
  <metadata><?xpacket begin="﻿" id="W5M0MpCehiHzreSzNTczkc9d"?>
<x:xmpmeta xmlns:x="adobe:ns:meta/" x:xmptk="Adobe XMP Core 5.6-c138 79.159824, 2016/09/14-01:09:01        ">
   <rdf:RDF xmlns:rdf="http://www.w3.org/1999/02/22-rdf-syntax-ns#">
      <rdf:Description rdf:about=""/>
   </rdf:RDF>
</x:xmpmeta>
                                                                                                    
                                                                                                    
                                                                                                    
                                                                                                    
                                                                                                    
                                                                                                    
                                                                                                    
                                                                                                    
                                                                                                    
                                                                                                    
                                                                                                    
                                                                                                    
                                                                                                    
                                                                                                    
                                                                                                    
                                                                                                    
                                                                                                    
                                                                                                    
                                                                                                    
                                                                                                    
                           
<?xpacket end="w"?></metadata>
<defs>
    <style>
      .cls-1 {
        fill: #6b6b6b;
        fill-rule: evenodd;
      }
    </style>
  </defs>
  <path class="cls-1" d="M690.49,2792a1.076,1.076,0,0,1-.679-0.24c-1.008-.86-6.089-5.23-7.293-7.68a5.232,5.232,0,0,1-.2-4.05,4.429,4.429,0,0,1,2.312-2.52,5.485,5.485,0,0,1,2.268-.49,5.189,5.189,0,0,1,3.594,1.39A5.186,5.186,0,0,1,694.1,2777a5.5,5.5,0,0,1,2.27.49,4.413,4.413,0,0,1,2.31,2.52,5.226,5.226,0,0,1-.2,4.05c-1.235,2.51-6.669,7.15-7.284,7.67a1,1,0,0,1-.594.26C690.578,2791.99,690.515,2792,690.49,2792Zm-0.311-1.44-0.035.03Z" transform="translate(-680.515 -2774.5)"/>
</svg>
