<svg width="36" height="27" viewBox="0 0 36 27" fill="none" xmlns="http://www.w3.org/2000/svg">
<path d="M33 0.75H3C1.75725 0.75 0.75 1.75725 0.75 3V24C0.75 25.2428 1.75725 26.25 3 26.25H33C34.2427 26.25 35.25 25.2428 35.25 24V3C35.25 1.75725 34.2427 0.75 33 0.75Z" fill="#007AC6"/>
<path d="M7.89975 13.8218H9.64725L8.7735 11.679L7.89975 13.8218ZM32.25 9.75H27.7732L26.6813 10.9282L25.698 9.75H16.1985L15.3248 11.6782L14.451 9.75H10.629V10.6072L10.1925 9.75H6.9165L3.75 17.25H7.572L8.0085 16.0718H9.1005L9.537 17.25H13.7955V16.3928L14.1232 17.25H16.3073L16.635 16.2855V17.25H25.371L26.463 16.0718L27.4455 17.25H31.9222L29.0835 13.5L32.25 9.75ZM19.0372 16.1782H17.8358V12L15.9795 16.1782H14.8875L13.0312 12V16.1782H10.5195L10.083 15H7.4625L7.026 16.1782H5.60625L7.899 10.821H9.75525L11.8298 15.8565V10.821H13.9042L15.5422 14.4637L17.0707 10.821H19.1453V16.1782H19.0372ZM29.8478 16.1782H28.2097L26.79 14.3565L25.152 16.1782H20.238V10.821H25.2607L26.7893 12.5355L28.4272 10.821H29.9558L27.5542 13.5L29.8478 16.1782ZM21.4395 11.8928V12.8572H24.1695V13.929H21.4395V15H24.4972L25.917 13.3928L24.6067 11.8928H21.4395Z" fill="white"/>
</svg>
