<svg width="28" height="30" viewBox="0 0 28 30" fill="none" xmlns="http://www.w3.org/2000/svg">
<g clip-path="url(#clip0_47_584)">
<path d="M1.22341 0.0944945L26.203 0.079895C26.203 0.079895 27.2491 0.0921715 27.2674 1.0914C27.2801 1.77779 27.2674 24.5815 27.2674 24.5815C27.2674 24.5815 27.4142 25.759 26.1908 25.8079C24.9673 25.8569 6.19883 25.8569 6.19883 25.8569L6.186 29.5595C6.186 29.5595 6.29509 30.0561 5.92771 29.8844L2.83386 25.8938L1.11006 25.8633C1.11006 25.8633 0.104985 25.7622 0.104985 24.8277C0.104985 23.9454 0.0801188 0.994575 0.0801188 0.994575C0.0801188 0.994575 -9.51018e-05 0.10661 1.22317 0.0945777L1.22341 0.0944945Z" fill="url(#paint0_linear_47_584)"/>
<path d="M2.8013 6.16934L3.81016 6.15707V8.74075H6.89839L6.88596 6.18169H7.89489L7.90716 12.3087L6.88604 12.321V9.66353L3.81016 9.67637L3.83478 12.3098L2.78903 12.3226L2.8013 6.16934ZM10.8967 7.59755C8.46136 7.62209 8.60799 9.97132 8.60799 9.97132C8.60799 9.97132 8.55962 12.3955 10.9091 12.4078C10.9091 12.4078 12.2207 12.4474 12.8418 11.5832L12.2803 11.0668C12.2803 11.0668 11.685 11.6055 11.0119 11.5932C10.3389 11.5809 9.61059 11.0785 9.61059 10.3649L13.075 10.3523C13.075 10.3523 13.332 7.57292 10.8967 7.59755V7.59755ZM10.8265 8.39969C11.9488 8.40851 12.0698 9.66305 12.0698 9.66305L9.60818 9.67051C9.60818 9.67051 9.73026 8.39094 10.8265 8.39969ZM13.7848 5.94739H14.7853L14.7766 12.2982H13.7936L13.7848 5.94739ZM15.8162 5.96479H16.8167L16.8079 12.3156H15.8249L15.8162 5.96479ZM19.9658 7.55993C18.62 7.55993 17.5293 8.64827 17.5293 9.99137C17.5293 11.3345 18.62 12.4229 19.9658 12.4229C21.3118 12.4229 22.4023 11.3352 22.4023 9.99161C22.4023 8.64883 21.3117 7.56033 19.9658 7.56033V7.55993ZM19.888 8.42463C19.9138 8.42335 19.9398 8.42463 19.9658 8.42463C20.7986 8.42463 21.4722 9.12538 21.4722 9.99137C21.4722 10.8574 20.7986 11.5606 19.9658 11.5606C19.133 11.5606 18.4568 10.8579 18.4568 9.99161C18.4568 9.15257 19.0913 8.46755 19.8881 8.42503L19.888 8.42463ZM2.8151 13.5083V18.7623C2.8151 18.9188 4.03355 19.9804 5.23403 19.9631C6.43484 19.9456 7.70382 19.4242 7.73831 17.6669C7.77361 15.9095 6.71077 15.09 5.56291 15.09C4.41505 15.09 3.82307 15.629 3.82307 15.629L3.78858 13.509H2.8155L2.8151 13.5083ZM5.43208 15.9699C6.2846 15.9873 6.86895 16.8232 6.86085 17.5364C6.85219 18.3022 6.28668 19.0581 5.38195 19.0581C4.425 19.0581 3.81521 18.5367 3.81521 18.5367L3.79772 16.4311C3.79772 16.4311 4.50136 15.9509 5.43208 15.9699ZM10.3301 15.0899C9.33353 15.0899 8.57045 15.496 8.57045 15.496L8.84117 16.2707C8.84117 16.2707 9.37115 15.9748 10.2323 15.9748C11.4137 15.9748 11.3278 17.0577 11.3278 17.0577C10.9218 16.8363 10.0368 16.8497 10.0368 16.8497C8.21599 16.8743 8.16256 18.2386 8.17684 18.4966C8.18919 18.718 8.16561 19.9744 10.2449 19.9129C12.3241 19.8513 12.3004 18.4714 12.3004 18.4714C12.3004 18.4714 12.3489 17.549 12.2627 16.6016C12.1759 15.6457 11.3266 15.09 10.3301 15.09V15.0899ZM10.3879 17.5966C10.7005 17.6002 11.0294 17.6045 11.2128 17.6744C11.3475 17.7257 11.3912 17.8068 11.388 17.9788C11.3821 18.288 11.4353 18.4347 11.2703 18.6584C11.1267 18.9545 10.5532 19.1798 10.1471 19.1859C9.5327 19.1953 9.02735 18.8909 9.02735 18.3988C9.02735 17.9071 9.54553 17.624 10.1608 17.5999C10.2378 17.5967 10.314 17.5967 10.3894 17.5975L10.3879 17.5966ZM13.0453 15.1952H14.0371V15.9607C14.0371 15.9607 14.533 15.0559 15.6205 15.0733C16.7079 15.0907 17.143 15.9693 17.1516 16.3956C17.1604 16.822 17.169 19.771 17.169 19.771H16.1946L16.2035 16.7524C16.2035 16.7524 15.9946 15.9606 15.1507 15.9868C14.3061 16.0133 14.0454 16.6919 14.0454 16.8306C14.0454 16.9702 14.0366 19.7713 14.0366 19.7713H13.0539L13.0453 15.1952ZM18.039 13.4986H19.0308L19.0394 17.3179L21.0229 15.1864H22.2497L20.4312 17.1003L22.3884 19.8233L21.1531 19.8322L19.7438 17.7875L19.0218 18.5271L19.0307 19.8233L18.0384 19.8147L18.039 13.4986ZM23.5588 18.2487L23.5416 13.4813H24.5159L24.5246 18.2487H23.5588ZM23.5588 19.8147L23.5416 18.9384H24.5159L24.5246 19.8147H23.5588Z" fill="#1B83AA"/>
<path d="M2.8013 6.30465L3.81016 6.29238V8.87607H6.89839L6.88596 6.31701H7.89489L7.90716 12.444L6.88604 12.4563V9.79885L3.81016 9.81169L3.83478 12.4451L2.78903 12.4579L2.8013 6.30465ZM10.8967 7.73286C8.46136 7.75741 8.60799 10.1066 8.60799 10.1066C8.60799 10.1066 8.55962 12.5309 10.9091 12.5431C10.9091 12.5431 12.2207 12.5828 12.8418 11.7185L12.2803 11.2021C12.2803 11.2021 11.685 11.7408 11.0119 11.7285C10.3389 11.7162 9.61059 11.2138 9.61059 10.5002L13.075 10.4876C13.075 10.4876 13.332 7.70824 10.8967 7.73286V7.73286ZM10.8265 8.535C11.9488 8.54383 12.0698 9.79837 12.0698 9.79837L9.60818 9.80583C9.60818 9.80583 9.73026 8.52626 10.8265 8.535ZM13.7848 6.0827H14.7853L14.7766 12.4335H13.7936L13.7848 6.0827ZM15.8162 6.10011H16.8167L16.8079 12.4509H15.8249L15.8162 6.10011ZM19.9658 7.69524C18.62 7.69524 17.5293 8.78359 17.5293 10.1267C17.5293 11.4699 18.62 12.5582 19.9658 12.5582C21.3118 12.5582 22.4023 11.4705 22.4023 10.1269C22.4023 8.78415 21.3117 7.69564 19.9658 7.69564V7.69524ZM19.888 8.55995C19.9138 8.55867 19.9398 8.55995 19.9658 8.55995C20.7986 8.55995 21.4722 9.2607 21.4722 10.1267C21.4722 10.9927 20.7986 11.6959 19.9658 11.6959C19.133 11.6959 18.4568 10.9932 18.4568 10.1269C18.4568 9.28789 19.0913 8.60286 19.8881 8.56035L19.888 8.55995ZM2.8151 13.6436V18.8976C2.8151 19.0542 4.03355 20.1157 5.23403 20.0984C6.43484 20.0809 7.70382 19.5595 7.73831 17.8022C7.77361 16.0449 6.71077 15.2253 5.56291 15.2253C4.41505 15.2253 3.82307 15.7644 3.82307 15.7644L3.78858 13.6443H2.8155L2.8151 13.6436ZM5.43208 16.1052C6.2846 16.1226 6.86895 16.9585 6.86085 17.6718C6.85219 18.4375 6.28668 19.1934 5.38195 19.1934C4.425 19.1934 3.81521 18.672 3.81521 18.672L3.79772 16.5664C3.79772 16.5664 4.50136 16.0862 5.43208 16.1052ZM10.3301 15.2252C9.33353 15.2252 8.57045 15.6314 8.57045 15.6314L8.84117 16.406C8.84117 16.406 9.37115 16.1102 10.2323 16.1102C11.4137 16.1102 11.3278 17.1931 11.3278 17.1931C10.9218 16.9717 10.0368 16.985 10.0368 16.985C8.21599 17.0096 8.16256 18.374 8.17684 18.6319C8.18919 18.8533 8.16561 20.1097 10.2449 20.0482C12.3241 19.9867 12.3004 18.6067 12.3004 18.6067C12.3004 18.6067 12.3489 17.6843 12.2627 16.737C12.1759 15.781 11.3266 15.2253 10.3301 15.2253V15.2252ZM10.3879 17.7319C10.7005 17.7355 11.0294 17.7398 11.2128 17.8097C11.3475 17.8611 11.3912 17.9421 11.388 18.1141C11.3821 18.4233 11.4353 18.57 11.2703 18.7937C11.1267 19.0899 10.5532 19.3151 10.1471 19.3212C9.5327 19.3306 9.02735 19.0263 9.02735 18.5341C9.02735 18.0424 9.54553 17.7593 10.1608 17.7352C10.2378 17.732 10.314 17.732 10.3894 17.7328L10.3879 17.7319ZM13.0453 15.3305H14.0371V16.096C14.0371 16.096 14.533 15.1912 15.6205 15.2086C16.7079 15.226 17.143 16.1046 17.1516 16.531C17.1604 16.9573 17.169 19.9064 17.169 19.9064H16.1946L16.2035 16.8877C16.2035 16.8877 15.9946 16.096 15.1507 16.1221C14.3061 16.1486 14.0454 16.8272 14.0454 16.966C14.0454 17.1055 14.0366 19.9066 14.0366 19.9066H13.0539L13.0453 15.3305ZM18.039 13.634H19.0308L19.0394 17.4532L21.0229 15.3217H22.2497L20.4312 17.2356L22.3884 19.9587L21.1531 19.9675L19.7438 17.9228L19.0218 18.6624L19.0307 19.9587L18.0384 19.95L18.039 13.634ZM23.5588 18.3841L23.5416 13.6166H24.5159L24.5246 18.3841H23.5588ZM23.5588 19.95L23.5416 19.0737H24.5159L24.5246 19.95H23.5588Z" fill="white"/>
<path d="M8.18021 29.1498V27.3221C8.18021 27.2857 8.19224 27.2576 8.21582 27.2375C8.23956 27.2175 8.2674 27.2076 8.29924 27.2076C8.33325 27.2076 8.36205 27.2176 8.38587 27.2377C8.40946 27.2578 8.42117 27.286 8.42133 27.3223L8.42614 28.1158C8.55128 27.9778 8.69566 27.9 8.87742 27.8756C9.23309 27.8519 9.52475 28.0027 9.63304 28.3013C9.66593 28.3972 9.67523 28.5082 9.67523 28.62C9.67523 28.768 9.65317 28.8826 9.58924 29.0047C9.4309 29.264 9.197 29.3759 8.92347 29.3769C8.81221 29.3769 8.69349 29.3454 8.57269 29.267C8.52697 29.2374 8.46809 29.1552 8.42333 29.1153L8.42125 29.2624C8.41964 29.3588 8.33542 29.3827 8.29579 29.3833C8.25392 29.3838 8.18622 29.3444 8.18574 29.2958C8.18694 29.2387 8.18037 29.1929 8.18037 29.1498L8.18021 29.1498ZM8.42486 28.7794C8.43047 28.8502 8.55801 29.0393 8.62267 29.0818C8.7105 29.1397 8.82737 29.1893 8.91833 29.1893C9.08004 29.1893 9.27865 29.1056 9.36127 28.9912C9.45232 28.8899 9.47887 28.8267 9.484 28.5893C9.45833 28.358 9.39015 28.2474 9.26454 28.1638C9.15424 28.1028 9.00865 28.0755 8.86146 28.0853C8.69678 28.0901 8.50066 28.2337 8.42855 28.407L8.42486 28.7794ZM10.0222 29.704C10.0222 29.6755 10.0335 29.6587 10.0524 29.6359C10.0712 29.6129 10.1128 29.5998 10.1409 29.5998C10.1515 29.5998 10.1968 29.5941 10.2298 29.6014C10.2626 29.6086 10.2961 29.6014 10.326 29.6014C10.3773 29.6014 10.3966 29.5969 10.4418 29.5773C10.4867 29.5577 10.4519 29.5799 10.4853 29.5498C10.5187 29.5197 10.4783 29.5821 10.5122 29.531C10.5462 29.4799 10.5334 29.507 10.5481 29.4909C10.5719 29.444 10.5997 29.3853 10.6315 29.3146L10.0216 27.9997C10.012 27.9778 10.0072 27.9582 10.0072 27.9409C10.0072 27.9095 10.0189 27.8834 10.0427 27.8629C10.0664 27.8424 10.0943 27.8321 10.1261 27.8321C10.1795 27.8321 10.2192 27.8598 10.2453 27.9152L10.7507 29.0466L11.2416 27.915C11.2523 27.8882 11.269 27.8677 11.2918 27.8533C11.3144 27.8391 11.3383 27.8318 11.3636 27.8318C11.3945 27.8318 11.4209 27.842 11.4427 27.862C11.4646 27.8821 11.4755 27.9084 11.4755 27.9408C11.4755 27.9666 11.4707 27.9891 11.461 28.0082L10.864 29.3517C10.8223 29.4443 10.7843 29.5231 10.7501 29.588C10.7156 29.653 10.7126 29.6209 10.6652 29.6867C10.6177 29.7526 10.6091 29.7332 10.5596 29.7728C10.5103 29.8123 10.4703 29.7885 10.4035 29.8134C10.3367 29.8382 10.3129 29.8217 10.2344 29.8217C10.0677 29.8217 10.0224 29.786 10.0224 29.704L10.0222 29.704ZM12.6324 28.3763C12.6324 28.1861 12.6752 28.011 12.761 27.8506C12.8466 27.6902 12.965 27.5629 13.1161 27.4688C13.2671 27.3748 13.4341 27.3278 13.6172 27.3278C13.8265 27.3278 14.0359 27.3693 14.1694 27.4485C14.303 27.5279 14.4228 27.6065 14.4568 27.7044C14.4841 27.7673 14.4196 27.8247 14.3722 27.8245C14.3524 27.8303 14.3348 27.8242 14.3004 27.8115C14.268 27.7951 14.24 27.7712 14.2222 27.7579C14.1601 27.6977 14.083 27.6611 14.0141 27.6269C13.9255 27.5729 13.7704 27.5622 13.6174 27.5622C13.4761 27.5622 13.3493 27.5879 13.237 27.6609C13.1247 27.7339 13.038 27.8334 12.9771 27.9589C12.916 28.0844 12.8855 28.2236 12.8855 28.3764C12.8855 28.5302 12.9164 28.6692 12.9785 28.7932C13.0403 28.9174 13.1307 29.0157 13.2493 29.0884C13.368 29.1609 13.503 29.1863 13.6579 29.1863C13.7489 29.1863 13.8359 29.1903 13.9153 29.1764C13.9947 29.1628 14.0664 29.1169 14.1051 29.103C14.1565 29.0783 14.1853 29.0582 14.2307 29.016C14.2521 28.9952 14.2679 28.9796 14.2876 28.9631C14.354 28.9195 14.4234 28.9421 14.435 28.9613C14.4667 29.0059 14.4601 29.023 14.4531 29.0711C14.4441 29.0994 14.4333 29.1113 14.4134 29.1393C14.3941 29.1632 14.3774 29.1799 14.3251 29.2195C14.2889 29.2462 14.2645 29.2669 14.1958 29.3008C14.1443 29.3273 14.1052 29.3465 13.999 29.3781C13.9218 29.407 13.7724 29.4161 13.6669 29.4161C13.5177 29.4161 13.3717 29.3914 13.2434 29.3383C13.115 29.2853 13.0065 29.2126 12.9174 29.1199C12.8284 29.0273 12.7586 28.917 12.7083 28.789C12.6577 28.6611 12.6326 28.5235 12.6326 28.3765L12.6324 28.3763ZM14.778 28.6199C14.778 28.5081 14.7934 28.4042 14.8245 28.3083C14.8554 28.2123 14.9002 28.1283 14.9588 28.0562C15.0173 27.984 15.0919 27.9275 15.1826 27.8865C15.273 27.8456 15.3749 27.825 15.4882 27.825C15.5995 27.825 15.7015 27.8424 15.7939 27.8773C15.8864 27.9121 15.9624 27.9595 16.0219 28.0191C16.0815 28.0788 16.1275 28.1471 16.1599 28.2239C16.1924 28.3009 16.2086 28.3822 16.2086 28.4682V28.547C16.2086 28.5805 16.1993 28.6064 16.181 28.6251C16.1625 28.6437 16.1369 28.653 16.104 28.653H15.0277C15.0336 28.8173 15.0823 28.9522 15.1737 29.0577C15.2652 29.1632 15.3919 29.2159 15.5535 29.2159C15.6263 29.2159 15.6946 29.21 15.7585 29.198C15.8224 29.186 15.8716 29.1729 15.9059 29.1586C15.9403 29.1441 15.9727 29.1311 16.0032 29.1193C16.0337 29.1072 16.0567 29.1013 16.0722 29.1013C16.0993 29.1013 16.1214 29.1106 16.1383 29.1292C16.1551 29.1478 16.1637 29.1719 16.1637 29.2014C16.1637 29.2388 16.1321 29.275 16.0692 29.3105C16.0061 29.3458 15.9269 29.3736 15.8316 29.3942C15.7361 29.4147 15.6415 29.425 15.5476 29.425C15.3966 29.425 15.262 29.3889 15.1439 29.3167C15.0257 29.2445 14.9353 29.1474 14.8723 29.0252C14.8092 28.9029 14.7778 28.7679 14.7778 28.6199H14.778ZM15.0395 28.4622H15.9646C15.9646 28.3275 15.9215 28.2219 15.8354 28.1456C15.7491 28.0692 15.6344 28.0309 15.4911 28.0309C15.3585 28.0309 15.2558 28.0702 15.1832 28.1484C15.1105 28.2267 15.0626 28.3312 15.0394 28.4621L15.0395 28.4622ZM16.4785 27.9537C16.4785 27.924 16.4884 27.8999 16.5082 27.8813C16.5282 27.8627 16.5539 27.8533 16.586 27.8533H16.7616V27.5282C16.7616 27.4499 16.8005 27.4108 16.878 27.4108C16.9138 27.4108 16.9413 27.4208 16.9606 27.4409C16.9801 27.4609 16.9898 27.4901 16.9898 27.5283V27.8533H17.3413C17.3732 27.8533 17.399 27.8626 17.4191 27.8812C17.4388 27.8998 17.4488 27.9238 17.4488 27.9534C17.4488 27.983 17.4391 28.0069 17.4197 28.0251C17.4003 28.0433 17.3752 28.0524 17.3442 28.0524H16.9898V28.9949C16.9898 29.0675 17.0018 29.1178 17.0261 29.146C17.0502 29.1741 17.0937 29.1883 17.1569 29.1883C17.2234 29.1883 17.2927 29.1668 17.3644 29.1238C17.377 29.1162 17.3939 29.1142 17.4152 29.1182C17.4345 29.121 17.4513 29.133 17.4654 29.1539C17.4794 29.1749 17.4865 29.1993 17.4865 29.2269C17.4865 29.2815 17.4474 29.3268 17.3693 29.3631C17.2915 29.3995 17.2075 29.4177 17.1175 29.4177C16.9896 29.4177 16.8964 29.3858 16.8378 29.3224C16.7793 29.2588 16.75 29.1611 16.75 29.0294V28.0526H16.5858C16.5529 28.0526 16.5267 28.0439 16.5074 28.0268C16.488 28.0096 16.4783 27.9852 16.4783 27.9538L16.4785 27.9537ZM17.7581 28.6126C17.7581 28.5008 17.7736 28.3969 17.8047 28.301C17.8356 28.205 17.8804 28.121 17.939 28.0489C17.9976 27.9767 18.0722 27.9202 18.1627 27.8792C18.2533 27.8383 18.3552 27.8177 18.4683 27.8177C18.5798 27.8177 18.6816 27.8351 18.7741 27.87C18.8668 27.9048 18.9426 27.9522 19.0023 28.0118C19.0619 28.0715 19.1078 28.1398 19.1403 28.2166C19.1727 28.2935 19.1889 28.3749 19.1889 28.4609V28.5397C19.1889 28.5732 19.1799 28.5991 19.1614 28.6178C19.143 28.6364 19.1173 28.6457 19.0844 28.6457H18.008C18.0138 28.81 18.0626 28.9449 18.154 29.0504C18.2454 29.1559 18.372 29.2086 18.5337 29.2086C18.6064 29.2086 18.6747 29.2027 18.7385 29.1907C18.8024 29.1787 18.8516 29.1656 18.8859 29.1513C18.9204 29.1368 18.9528 29.1238 18.9832 29.112C19.0137 29.0999 19.0367 29.0939 19.0522 29.0939C19.0793 29.0939 19.1014 29.1032 19.1183 29.122C19.1352 29.1405 19.1438 29.1645 19.1438 29.1942C19.1438 29.2315 19.1122 29.2678 19.0491 29.3031C18.9863 29.3384 18.9071 29.3665 18.8117 29.387C18.7162 29.4076 18.6216 29.4178 18.5277 29.4178C18.3767 29.4178 18.2422 29.3817 18.124 29.3095C18.0058 29.2375 17.9154 29.1403 17.8524 29.0181C17.7896 28.8959 17.7581 28.7608 17.7581 28.6128L17.7581 28.6126ZM18.0196 28.4549H18.9447C18.9447 28.3202 18.9017 28.2146 18.8156 28.1383C18.7294 28.0619 18.6146 28.0236 18.4713 28.0236C18.3386 28.0236 18.236 28.0629 18.1633 28.1411C18.0908 28.2194 18.0428 28.3239 18.0196 28.4548L18.0196 28.4549ZM19.6957 29.0235V27.3219C19.6957 27.2856 19.7075 27.2574 19.7312 27.2374C19.7549 27.2173 19.7827 27.2075 19.8146 27.2075C19.8486 27.2075 19.8774 27.2175 19.9012 27.2375C19.9249 27.2576 19.9367 27.2858 19.9367 27.3222V29.0237C19.9367 29.0783 19.9361 29.2255 19.9351 29.2705C19.9327 29.3336 19.8987 29.389 19.8051 29.3908C19.7036 29.3822 19.701 29.3481 19.696 29.2828C19.6896 29.2108 19.6866 29.1498 19.6956 29.0237L19.6957 29.0235ZM20.366 28.6125C20.366 28.5007 20.3815 28.3969 20.4125 28.3009C20.4435 28.2049 20.4882 28.1209 20.5469 28.0488C20.6054 27.9766 20.68 27.9202 20.7707 27.8791C20.8613 27.8382 20.9632 27.8176 21.0763 27.8176C21.1878 27.8176 21.2896 27.8351 21.3821 27.8699C21.4746 27.9048 21.5506 27.9521 21.6102 28.0118C21.6697 28.0714 21.7157 28.1397 21.7481 28.2165C21.7805 28.2934 21.7968 28.3748 21.7968 28.4608V28.5397C21.7968 28.5731 21.7876 28.599 21.7692 28.6177C21.7508 28.6363 21.7251 28.6456 21.6922 28.6456H20.6158C20.6216 28.8099 20.6703 28.9448 20.7617 29.0503C20.8532 29.1558 20.9799 29.2086 21.1416 29.2086C21.2142 29.2086 21.2825 29.2026 21.3464 29.1907C21.4101 29.1786 21.4593 29.1655 21.4936 29.1512C21.5281 29.1368 21.5604 29.1237 21.591 29.1119C21.6215 29.0999 21.6443 29.0938 21.66 29.0938C21.687 29.0938 21.7089 29.1032 21.7259 29.1219C21.7429 29.1404 21.7513 29.1644 21.7513 29.1941C21.7513 29.2314 21.7198 29.2677 21.6569 29.303C21.594 29.3383 21.5149 29.3664 21.4194 29.3869C21.324 29.4075 21.2293 29.4178 21.1355 29.4178C20.9844 29.4178 20.8499 29.3817 20.7317 29.3095C20.6135 29.2374 20.523 29.1402 20.46 29.018C20.3972 28.8958 20.3657 28.7607 20.3657 28.6127L20.366 28.6125ZM20.6275 28.4549H21.5527C21.5527 28.3201 21.5096 28.2145 21.4234 28.1382C21.3372 28.0618 21.2224 28.0235 21.0792 28.0235C20.9465 28.0235 20.8439 28.0628 20.7712 28.1411C20.6986 28.2193 20.6507 28.3238 20.6275 28.4547V28.4549ZM22.289 29.2727V27.9594C22.289 27.926 22.2977 27.9 22.3152 27.8814C22.3326 27.8628 22.3577 27.8533 22.3906 27.8533H22.4197C22.4466 27.8533 22.4694 27.8609 22.4879 27.8756C22.5063 27.8905 22.5154 27.9145 22.5155 27.948V28.0096C22.6743 27.8817 22.8437 27.8176 23.0238 27.8176C23.2476 27.8176 23.4005 27.8882 23.4828 28.0297C23.5457 27.9886 23.5913 27.9597 23.6194 27.943C23.6474 27.9262 23.6869 27.9057 23.7377 27.8814C23.7886 27.857 23.8388 27.8403 23.8881 27.8313C23.9375 27.8222 23.9927 27.8176 24.0537 27.8176C24.3984 27.8176 24.5708 27.9938 24.5708 28.3463V29.273C24.5708 29.3063 24.5613 29.3323 24.5425 29.351C24.5235 29.3695 24.4971 29.3788 24.4633 29.3788H24.4371C24.4032 29.3788 24.3763 29.3695 24.3565 29.3509C24.3366 29.3322 24.3269 29.3061 24.3269 29.2727V28.3789C24.3269 28.2586 24.3006 28.1718 24.2482 28.1182C24.1961 28.0648 24.1123 28.038 23.997 28.038C23.9389 28.038 23.8794 28.0481 23.8184 28.0682C23.7574 28.0882 23.7099 28.1075 23.6761 28.1261C23.6421 28.1448 23.5996 28.1703 23.5482 28.2028L23.5512 29.2728C23.5512 29.3062 23.5417 29.3322 23.5229 29.3509C23.5039 29.3693 23.4775 29.3787 23.4437 29.3787H23.4175C23.3835 29.3787 23.3571 29.3694 23.3381 29.3508C23.3194 29.3321 23.3099 29.306 23.3099 29.2726V28.3903C23.3099 28.2642 23.2854 28.174 23.2365 28.1196C23.1876 28.0652 23.1007 28.038 22.9758 28.038C22.9506 28.038 22.9257 28.0396 22.901 28.0423C22.8763 28.0452 22.855 28.0483 22.837 28.0517C22.8192 28.0549 22.7985 28.0613 22.7753 28.0704C22.752 28.0795 22.7347 28.0861 22.7231 28.0905C22.7114 28.0947 22.6938 28.1035 22.67 28.1169C22.6464 28.1303 22.6311 28.1389 22.6243 28.1426C22.6176 28.1466 22.6011 28.1568 22.575 28.1735C22.5488 28.1903 22.5338 28.1999 22.5301 28.2028V29.2729C22.5301 29.3063 22.5204 29.3322 22.5017 29.3509C22.4828 29.3694 22.4564 29.3788 22.4226 29.3788H22.3964C22.3625 29.3788 22.3361 29.3695 22.3173 29.3509C22.2985 29.3322 22.289 29.3061 22.289 29.2726V29.2727Z" fill="#666666"/>
</g>
<defs>
<linearGradient id="paint0_linear_47_584" x1="13.6308" y1="-0.34187" x2="13.411" y2="29.7964" gradientUnits="userSpaceOnUse">
<stop stop-color="#2BC0D3"/>
<stop offset="0.023" stop-color="#36C1D4"/>
<stop offset="0.111" stop-color="#2BC0D3"/>
<stop offset="0.232" stop-color="#12BED3"/>
<stop offset="0.355" stop-color="#00BBD1"/>
<stop offset="0.645" stop-color="#03A0BE"/>
<stop offset="0.805" stop-color="#148EB2"/>
<stop offset="0.903" stop-color="#178BB0"/>
<stop offset="1" stop-color="#1A86AC"/>
</linearGradient>
<clipPath id="clip0_47_584">
<rect width="27.3529" height="30" fill="white"/>
</clipPath>
</defs>
</svg>
