<svg width="36" height="27" viewBox="0 0 36 27" fill="none" xmlns="http://www.w3.org/2000/svg">
<path d="M33 0.75H3C1.75736 0.75 0.75 1.75736 0.75 3V24C0.75 25.2426 1.75736 26.25 3 26.25H33C34.2426 26.25 35.25 25.2426 35.25 24V3C35.25 1.75736 34.2426 0.75 33 0.75Z" fill="#243747"/>
<path d="M14.25 19.5C17.5637 19.5 20.25 16.8137 20.25 13.5C20.25 10.1863 17.5637 7.5 14.25 7.5C10.9363 7.5 8.25 10.1863 8.25 13.5C8.25 16.8137 10.9363 19.5 14.25 19.5Z" fill="#E61C24"/>
<path d="M21.7004 19.5C25.0141 19.5 27.7004 16.8137 27.7004 13.5C27.7004 10.1863 25.0141 7.5 21.7004 7.5C18.3867 7.5 15.7004 10.1863 15.7004 13.5C15.7004 16.8137 18.3867 19.5 21.7004 19.5Z" fill="#00A2E5"/>
<path d="M17.9752 8.80225C17.266 9.36287 16.693 10.0768 16.299 10.8904C15.9051 11.704 15.7004 12.5963 15.7004 13.5002C15.7004 14.4042 15.9051 15.2965 16.299 16.1101C16.693 16.9237 17.266 17.6376 17.9752 18.1982C18.6843 17.6376 19.2574 16.9237 19.6513 16.1101C20.0453 15.2965 20.2499 14.4042 20.2499 13.5002C20.2499 12.5963 20.0453 11.704 19.6513 10.8904C19.2574 10.0768 18.6843 9.36287 17.9752 8.80225Z" fill="#7375CF"/>
</svg>
