<svg width="40" height="25" viewBox="0 0 40 25" fill="none" xmlns="http://www.w3.org/2000/svg">
    <path d="M9.77371 24.416V22.7902C9.7833 22.6535 9.76346 22.5163 9.71552 22.3878C9.66759 22.2593 9.59265 22.1424 9.49572 22.045C9.39878 21.9475 9.28207 21.8718 9.15337 21.8227C9.02467 21.7737 8.88694 21.7525 8.74936 21.7606C8.56931 21.7489 8.3894 21.7855 8.22839 21.8665C8.06739 21.9475 7.93118 22.07 7.83398 22.2212C7.74538 22.0745 7.61866 21.9544 7.46715 21.8733C7.31564 21.7922 7.14495 21.7533 6.97307 21.7606C6.82324 21.7531 6.67404 21.7847 6.54024 21.8522C6.40645 21.9197 6.29269 22.0207 6.21024 22.1454V21.8257H5.64355V24.416H6.21566V22.9799C6.20329 22.8913 6.21081 22.801 6.23767 22.7156C6.26454 22.6303 6.31008 22.5519 6.37103 22.4861C6.43198 22.4203 6.50682 22.3687 6.59018 22.3351C6.67355 22.3015 6.76337 22.2867 6.85318 22.2917C7.22914 22.2917 7.41987 22.5355 7.41987 22.9745V24.416H7.99199V22.9799C7.98055 22.8914 7.98872 22.8016 8.01592 22.7166C8.04313 22.6316 8.08871 22.5536 8.14947 22.488C8.21022 22.4224 8.28468 22.3709 8.36761 22.3369C8.45054 22.303 8.53993 22.2876 8.6295 22.2917C9.01633 22.2917 9.20159 22.5355 9.20159 22.9745V24.416H9.77371ZM18.2411 21.8257H17.3148V21.0399H16.7427V21.8257H16.2141V22.3405H16.7427V23.5218C16.7427 24.1233 16.977 24.481 17.6472 24.481C17.8975 24.4818 18.143 24.4123 18.3555 24.2805L18.1921 23.7982C18.0401 23.8883 17.8676 23.9387 17.6908 23.9445C17.4074 23.9445 17.3148 23.771 17.3148 23.511V22.3405H18.2411V21.8257ZM23.0741 21.7606C22.936 21.7566 22.7993 21.7897 22.6784 21.8564C22.5576 21.9232 22.4571 22.0211 22.3876 22.1399V21.8257H21.8264V24.416H22.393V22.9636C22.393 22.5355 22.5783 22.2971 22.9488 22.2971C23.07 22.2954 23.1904 22.3175 23.303 22.3621L23.4773 21.831C23.3479 21.785 23.2116 21.7612 23.0741 21.7606ZM15.7674 22.0316C15.4466 21.8419 15.0778 21.7478 14.7048 21.7606C14.0455 21.7606 13.6206 22.0749 13.6206 22.5897C13.6206 23.0124 13.9366 23.2726 14.5196 23.3538L14.7866 23.3917C15.0971 23.435 15.2443 23.5164 15.2443 23.6627C15.2443 23.8632 15.0372 23.977 14.6503 23.977C14.3392 23.9859 14.034 23.8905 13.784 23.706L13.517 24.145C13.8471 24.3743 14.2425 24.4921 14.6449 24.481C15.3968 24.481 15.8327 24.1287 15.8327 23.6356C15.8327 23.1804 15.4895 22.9419 14.9228 22.8606L14.6558 22.8227C14.4106 22.7902 14.2145 22.7415 14.2145 22.5681C14.2145 22.3784 14.3997 22.2646 14.7103 22.2646C14.9955 22.2689 15.2749 22.3453 15.5222 22.4868L15.7674 22.0316ZM30.9476 21.7606C30.8094 21.7566 30.6727 21.7897 30.5519 21.8564C30.431 21.9232 30.3306 22.0211 30.261 22.1399V21.8257H29.6998V24.416H30.2665V22.9636C30.2665 22.5355 30.4517 22.2971 30.8222 22.2971C30.9435 22.2954 31.0638 22.3175 31.1765 22.3621L31.3508 21.831C31.2214 21.785 31.085 21.7612 30.9476 21.7606ZM23.6462 23.1207C23.6387 23.3032 23.6697 23.4853 23.7371 23.6551C23.8046 23.825 23.907 23.979 24.0379 24.1071C24.1688 24.2352 24.3252 24.3347 24.497 24.3991C24.6689 24.4635 24.8524 24.4914 25.0357 24.481C25.3759 24.498 25.7102 24.3878 25.9729 24.1721L25.7004 23.7169C25.5045 23.8654 25.2657 23.9471 25.0193 23.9499C24.807 23.9371 24.6075 23.8442 24.4617 23.6901C24.3159 23.536 24.2347 23.3324 24.2347 23.1208C24.2347 22.9092 24.3159 22.7056 24.4617 22.5515C24.6075 22.3974 24.807 22.3045 25.0193 22.2917C25.2657 22.2945 25.5045 22.3762 25.7004 22.5247L25.9729 22.0695C25.7102 21.8538 25.3759 21.7436 25.0357 21.7606C24.8524 21.7502 24.6689 21.7782 24.497 21.8425C24.3252 21.9069 24.1688 22.0064 24.0379 22.1345C23.9071 22.2626 23.8046 22.4165 23.7371 22.5864C23.6697 22.7562 23.6387 22.9383 23.6462 23.1207ZM28.9533 23.1207V21.8257H28.3867V22.1399C28.2899 22.016 28.1648 21.9168 28.0216 21.8509C27.8785 21.7849 27.7215 21.7539 27.5639 21.7606C27.2128 21.7777 26.8817 21.9285 26.6393 22.1817C26.3969 22.4349 26.2617 22.7712 26.2617 23.1208C26.2617 23.4705 26.3969 23.8067 26.6393 24.0599C26.8817 24.3131 27.2128 24.4639 27.5639 24.481C27.7215 24.4877 27.8785 24.4568 28.0216 24.3908C28.1648 24.3247 28.2899 24.2256 28.3867 24.1016V24.416H28.9533V23.1207ZM26.8446 23.1207C26.8534 22.9679 26.907 22.8209 26.9988 22.698C27.0905 22.5751 27.2165 22.4816 27.361 22.429C27.5056 22.3764 27.6625 22.367 27.8124 22.402C27.9622 22.437 28.0985 22.5149 28.2044 22.626C28.3103 22.7371 28.3812 22.8767 28.4083 23.0274C28.4354 23.1781 28.4176 23.3334 28.357 23.4741C28.2965 23.6149 28.1958 23.735 28.0675 23.8195C27.9391 23.904 27.7887 23.9494 27.6348 23.9499C27.5269 23.9514 27.4198 23.9306 27.3204 23.8888C27.221 23.8471 27.1313 23.7853 27.0571 23.7074C26.9829 23.6295 26.9257 23.5372 26.8891 23.4362C26.8525 23.3352 26.8374 23.2278 26.8446 23.1207ZM20.0065 21.7606C19.6531 21.7791 19.3207 21.933 19.0789 22.19C18.8371 22.447 18.7049 22.7872 18.7098 23.1391C18.7147 23.491 18.8565 23.8273 19.1054 24.0775C19.3542 24.3277 19.6909 24.4723 20.0446 24.481C20.4334 24.4946 20.8136 24.3653 21.1126 24.1179L20.8347 23.7006C20.6195 23.8721 20.353 23.9675 20.0773 23.9716C19.8901 23.9873 19.704 23.9298 19.5586 23.8115C19.4132 23.6931 19.3198 23.5232 19.2981 23.3375H21.2325C21.2379 23.2671 21.2433 23.1967 21.2433 23.1207C21.2379 22.3134 20.7366 21.7606 20.0065 21.7606ZM19.9956 22.2646C20.1667 22.2613 20.3322 22.3256 20.4558 22.4434C20.5794 22.5612 20.651 22.723 20.6549 22.8932H19.3036C19.3135 22.7193 19.3915 22.5562 19.5208 22.4387C19.6501 22.3212 19.8205 22.2587 19.9956 22.2646ZM34.2114 23.1207V20.7852H33.6447V22.1399C33.548 22.016 33.4228 21.9168 33.2797 21.8509C33.1365 21.7849 32.9796 21.7539 32.822 21.7606C32.4708 21.7777 32.1397 21.9285 31.8973 22.1817C31.6549 22.4349 31.5197 22.7712 31.5197 23.1208C31.5197 23.4705 31.6549 23.8067 31.8973 24.0599C32.1397 24.3131 32.4708 24.4639 32.822 24.481C32.9796 24.4877 33.1365 24.4568 33.2797 24.3908C33.4228 24.3247 33.548 24.2256 33.6447 24.1016V24.416H34.2114V23.1207ZM35.156 24.0406C35.1912 24.0403 35.2261 24.0472 35.2585 24.0608C35.2897 24.0737 35.3181 24.0925 35.3423 24.116C35.3662 24.1395 35.3854 24.1673 35.3987 24.198C35.4123 24.2296 35.4194 24.2636 35.4194 24.2979C35.4194 24.3322 35.4123 24.3662 35.3987 24.3978C35.3853 24.4283 35.3661 24.4561 35.3423 24.4795C35.3181 24.503 35.2897 24.5218 35.2585 24.535C35.2261 24.5488 35.1912 24.5558 35.156 24.5555C35.1042 24.556 35.0533 24.5414 35.0098 24.5133C34.9663 24.4852 34.9321 24.4451 34.9114 24.3978C34.8978 24.3662 34.8908 24.3322 34.8908 24.2979C34.8908 24.2636 34.8978 24.2296 34.9114 24.198C34.9247 24.1674 34.9438 24.1395 34.9676 24.116C34.9917 24.0923 35.0203 24.0735 35.0517 24.0608C35.0847 24.0472 35.1202 24.0403 35.156 24.0406ZM35.156 24.4987C35.1829 24.4989 35.2095 24.4936 35.2341 24.4829C35.2578 24.4727 35.2793 24.4582 35.2975 24.44C35.3351 24.4022 35.3562 24.3512 35.3562 24.298C35.3562 24.2448 35.3351 24.1938 35.2975 24.156C35.2793 24.1379 35.2578 24.1235 35.2341 24.1135C35.2094 24.103 35.1828 24.0978 35.156 24.098C35.1287 24.0978 35.1016 24.1031 35.0764 24.1135C35.0523 24.1233 35.0305 24.1378 35.012 24.156C34.9744 24.1938 34.9532 24.2448 34.9532 24.298C34.9532 24.3512 34.9744 24.4022 35.012 24.44C35.0305 24.4583 35.0524 24.4729 35.0764 24.4829C35.1016 24.4935 35.1287 24.4989 35.156 24.4987ZM35.1712 24.1775C35.1967 24.1758 35.222 24.1831 35.2427 24.198C35.2509 24.2048 35.2574 24.2133 35.2618 24.223C35.2661 24.2327 35.2681 24.2433 35.2677 24.2539C35.268 24.263 35.2663 24.272 35.2629 24.2804C35.2595 24.2888 35.2543 24.2964 35.2477 24.3027C35.2319 24.3167 35.212 24.325 35.1909 24.3264L35.2696 24.4167H35.2081L35.1351 24.327H35.1116V24.4167H35.0602V24.1775H35.1712ZM35.1116 24.2223V24.2861H35.1706C35.182 24.2866 35.1932 24.2839 35.203 24.2781C35.207 24.2755 35.2102 24.2719 35.2123 24.2676C35.2144 24.2634 35.2153 24.2586 35.215 24.2539C35.2153 24.2492 35.2143 24.2446 35.2122 24.2404C35.2101 24.2363 35.2069 24.2327 35.203 24.2302C35.1932 24.2245 35.182 24.2218 35.1706 24.2223H35.1116ZM32.1027 23.1207C32.1115 22.9679 32.1651 22.821 32.2569 22.698C32.3487 22.5751 32.4746 22.4816 32.6191 22.429C32.7637 22.3764 32.9206 22.3671 33.0705 22.4021C33.2203 22.4371 33.3566 22.515 33.4625 22.6261C33.5683 22.7372 33.6392 22.8767 33.6663 23.0274C33.6934 23.1781 33.6756 23.3335 33.615 23.4742C33.5545 23.6149 33.4538 23.735 33.3255 23.8195C33.1971 23.904 33.0467 23.9494 32.8928 23.9499C32.7849 23.9513 32.6779 23.9306 32.5784 23.8888C32.479 23.8471 32.3894 23.7853 32.3152 23.7074C32.2409 23.6295 32.1837 23.5372 32.1472 23.4362C32.1106 23.3352 32.0955 23.2278 32.1027 23.1207ZM12.9667 23.1207V21.8257H12.4V22.1399C12.3033 22.016 12.1781 21.9168 12.035 21.8509C11.8918 21.7849 11.7349 21.7539 11.5772 21.7606C11.2261 21.7777 10.8951 21.9285 10.6526 22.1817C10.4102 22.4349 10.275 22.7712 10.275 23.1208C10.275 23.4705 10.4102 23.8067 10.6526 24.0599C10.8951 24.3131 11.2261 24.4639 11.5772 24.481C11.7349 24.4877 11.8918 24.4568 12.035 24.3908C12.1781 24.3247 12.3033 24.2256 12.4 24.1016V24.416H12.9667V23.1207ZM10.858 23.1207C10.8669 22.9679 10.9204 22.821 11.0122 22.698C11.104 22.5751 11.2299 22.4816 11.3745 22.429C11.519 22.3764 11.6759 22.3671 11.8258 22.4021C11.9756 22.4371 12.1119 22.515 12.2178 22.6261C12.3237 22.7372 12.3945 22.8768 12.4216 23.0275C12.4488 23.1782 12.4309 23.3335 12.3704 23.4742C12.3098 23.6149 12.2091 23.735 12.0808 23.8195C11.9524 23.9041 11.802 23.9494 11.6481 23.9499C11.5402 23.9513 11.4332 23.9306 11.3337 23.8888C11.2343 23.8471 11.1447 23.7853 11.0705 23.7074C10.9962 23.6295 10.9391 23.5372 10.9025 23.4362C10.8659 23.3352 10.8508 23.2278 10.858 23.1207Z" fill="#231F20"/>
    <path d="M24.1621 2.08594H15.5791V17.4259H24.1621V2.08594Z" fill="#FF5F00"/>
    <path d="M16.1244 9.75573C16.123 8.27839 16.4596 6.8201 17.1087 5.49127C17.7578 4.16244 18.7023 2.99788 19.8709 2.08578C18.4238 0.954557 16.686 0.251068 14.8559 0.0557168C13.0259 -0.139634 11.1775 0.181037 9.52203 0.981076C7.86657 1.78111 6.47082 3.02824 5.49433 4.57991C4.51784 6.13158 4 7.92519 4 9.75573C4 11.5863 4.51784 13.3799 5.49433 14.9316C6.47082 16.4832 7.86657 17.7304 9.52203 18.5304C11.1775 19.3304 13.0259 19.6511 14.8559 19.4557C16.686 19.2604 18.4238 18.5569 19.8709 17.4257C18.7024 16.5136 17.7578 15.349 17.1087 14.0202C16.4596 12.6914 16.123 11.2331 16.1244 9.75573Z" fill="#EB001B"/>
    <path d="M35.7414 9.75573C35.7415 11.5862 35.2237 13.3798 34.2473 14.9315C33.2709 16.4832 31.8752 17.7303 30.2197 18.5304C28.5643 19.3304 26.716 19.6511 24.8859 19.4557C23.0559 19.2604 21.3181 18.5569 19.8711 17.4257C21.0386 16.5127 21.9824 15.3479 22.6314 14.0193C23.2804 12.6907 23.6176 11.2328 23.6176 9.75573C23.6176 8.27862 23.2804 6.82079 22.6314 5.49217C21.9824 4.16355 21.0386 2.9988 19.8711 2.08578C21.3181 0.954553 23.0559 0.251064 24.8859 0.0557153C26.716 -0.139634 28.5643 0.181043 30.2197 0.98109C31.8752 1.78114 33.2709 3.02827 34.2473 4.57994C35.2237 6.13162 35.7415 7.92522 35.7414 9.75573Z" fill="#F79E1B"/>
    <path d="M34.8054 15.8005V15.4865H34.9327V15.4225H34.6084V15.4865H34.7358V15.8005H34.8054ZM35.4349 15.8005V15.4219H35.3355L35.2212 15.6823L35.1068 15.4219H35.0074V15.8005H35.0776V15.5149L35.1848 15.7612H35.2576L35.3648 15.5143V15.8005H35.4349Z" fill="#F79E1B"/>
</svg>
