<svg width="35" height="36" viewBox="0 0 35 36" fill="none" xmlns="http://www.w3.org/2000/svg">
    <path d="M24.0694 9.57568C24.0519 9.68251 24.032 9.79173 24.0096 9.90393C23.2398 13.6943 20.606 15.0037 17.2421 15.0037H15.5294C15.118 15.0037 14.7714 15.2901 14.7073 15.6793L13.8304 21.0124L13.5821 22.5241C13.5404 22.7795 13.7457 23.0099 14.0146 23.0099H17.0523C17.412 23.0099 17.7176 22.7592 17.7742 22.4191L17.8041 22.271L18.3761 18.7904L18.4128 18.5995C18.4688 18.2581 18.775 18.0074 19.1347 18.0074H19.589C22.5321 18.0074 24.8361 16.8616 25.5095 13.5457C25.7908 12.1605 25.6452 11.0039 24.9008 10.1904C24.6755 9.94511 24.3961 9.7416 24.0694 9.57568Z" fill="#179BD7"/>
    <path d="M23.2643 9.26767C23.1467 9.23485 23.0253 9.205 22.9008 9.17815C22.7757 9.15189 22.6475 9.12861 22.5156 9.10832C22.0538 9.0367 21.5478 9.00269 21.0058 9.00269H16.4302C16.3176 9.00269 16.2105 9.02715 16.1147 9.07132C15.9037 9.1686 15.7469 9.36018 15.7089 9.59472L14.7355 15.5067L14.7075 15.6792C14.7716 15.2901 15.1183 15.0036 15.5297 15.0036H17.2424C20.6062 15.0036 23.24 13.6936 24.0099 9.90387C24.0329 9.79167 24.0522 9.68245 24.0696 9.57562C23.8748 9.47655 23.6638 9.39181 23.4367 9.31959C23.3807 9.30169 23.3228 9.28438 23.2643 9.26767Z" fill="#222D65"/>
    <path d="M15.7084 9.59485C15.7464 9.3603 15.9032 9.16872 16.1142 9.07204C16.2107 9.02788 16.3171 9.00341 16.4297 9.00341H21.0053C21.5474 9.00341 22.0533 9.03743 22.5151 9.10904C22.6471 9.12933 22.7753 9.15261 22.9004 9.17887C23.0248 9.20573 23.1462 9.23557 23.2638 9.26839C23.3223 9.2851 23.3802 9.30241 23.4368 9.31972C23.664 9.39193 23.875 9.47727 24.0698 9.57575C24.2988 8.17503 24.0679 7.22133 23.2781 6.35774C22.4075 5.40703 20.836 5 18.8252 5H12.9875C12.5767 5 12.2263 5.28647 12.1629 5.67619L9.73131 20.4562C9.68339 20.7486 9.91864 21.0124 10.2261 21.0124H13.8301L14.7351 15.5069L15.7084 9.59485Z" fill="#253B80"/>
    <path d="M5.70865 24.7024H3.41272C3.25561 24.7024 3.122 24.8069 3.09749 24.9489L2.16891 30.3381C2.15045 30.4444 2.24042 30.5403 2.35825 30.5403H3.45435C3.61146 30.5403 3.74508 30.4358 3.76958 30.2935L4.02002 28.8399C4.04419 28.6977 4.17814 28.5932 4.33492 28.5932H5.06173C6.57411 28.5932 7.44696 27.9233 7.6749 26.5957C7.77763 26.0149 7.67927 25.5585 7.38216 25.2389C7.05585 24.888 6.47709 24.7024 5.70865 24.7024ZM5.97352 26.6707C5.84797 27.4248 5.21851 27.4248 4.60987 27.4248H4.26341L4.50647 26.0164C4.5209 25.9313 4.60147 25.8686 4.69547 25.8686H4.85426C5.26887 25.8686 5.65997 25.8686 5.86207 26.085C5.98259 26.214 6.01952 26.4058 5.97352 26.6707Z" fill="#253B80"/>
    <path d="M12.5609 26.5078H11.4295C11.3331 26.5078 11.2498 26.575 11.235 26.6663L11.1849 26.9683L11.1057 26.8588C10.8608 26.5196 10.3146 26.4062 9.76944 26.4062C8.51916 26.4062 7.4513 27.3098 7.24332 28.5772C7.13519 29.2094 7.28892 29.8139 7.6648 30.2355C8.00958 30.6231 8.50292 30.7846 9.08989 30.7846C10.0973 30.7846 10.6559 30.1666 10.6559 30.1666L10.6055 30.4666C10.5865 30.5813 10.6791 30.6841 10.7997 30.6841H11.8188C11.9808 30.6841 12.1176 30.572 12.1432 30.4194L12.7547 26.7247C12.774 26.6109 12.6818 26.5078 12.5609 26.5078ZM10.9838 28.6088C10.8746 29.2255 10.3616 29.6395 9.70726 29.6395C9.37871 29.6395 9.11615 29.539 8.94755 29.3485C8.78034 29.1593 8.71677 28.89 8.76998 28.59C8.87189 27.9786 9.39356 27.551 10.0379 27.551C10.3592 27.551 10.6203 27.6529 10.7924 27.8451C10.9648 28.0392 11.0332 28.3102 10.9838 28.6088Z" fill="#253B80"/>
    <path d="M18.1149 26.6484H17.014C16.9089 26.6484 16.8102 26.6972 16.7507 26.7789L15.2322 28.8709L14.5885 26.8606C14.548 26.7348 14.4239 26.6484 14.2834 26.6484H13.2015C13.07 26.6484 12.9787 26.7686 13.0205 26.8844L14.2332 30.2129L13.0931 31.7182C13.0034 31.8368 13.0938 31.9998 13.2487 31.9998H14.3483C14.4527 31.9998 14.5504 31.9523 14.6096 31.8722L18.2715 26.9285C18.3592 26.8102 18.2692 26.6484 18.1149 26.6484Z" fill="#253B80"/>
    <path d="M21.6865 24.7024H19.4945C19.3448 24.7024 19.2173 24.8069 19.1939 24.9489L18.3075 30.3381C18.2899 30.4444 18.3757 30.5403 18.4876 30.5403H19.6124C19.7169 30.5403 19.8063 30.4671 19.8226 30.3676L20.0742 28.8399C20.0973 28.6977 20.2251 28.5932 20.3748 28.5932H21.0683C22.5123 28.5932 23.3452 27.9233 23.5631 26.5957C23.6615 26.0149 23.567 25.5585 23.2833 25.2389C22.9722 24.888 22.42 24.7024 21.6865 24.7024ZM21.9393 26.6707C21.8198 27.4248 21.2189 27.4248 20.6376 27.4248H20.3072L20.5395 26.0164C20.5533 25.9313 20.6296 25.8686 20.7196 25.8686H20.8712C21.2667 25.8686 21.6403 25.8686 21.8332 26.085C21.9483 26.214 21.9832 26.4058 21.9393 26.6707Z" fill="#179BD7"/>
    <path d="M28.4561 26.5078H27.3767C27.2841 26.5078 27.2052 26.575 27.1914 26.6663L27.1436 26.9683L27.0677 26.8588C26.8339 26.5196 26.3128 26.4062 25.7924 26.4062C24.5989 26.4062 23.5799 27.3098 23.3813 28.5772C23.2784 29.2094 23.4245 29.8139 23.7834 30.2355C24.1131 30.6231 24.5834 30.7846 25.1437 30.7846C26.1054 30.7846 26.6387 30.1666 26.6387 30.1666L26.5905 30.4666C26.5724 30.5813 26.6608 30.6841 26.7765 30.6841H27.7491C27.9031 30.6841 28.0343 30.572 28.0584 30.4194L28.6425 26.7247C28.6603 26.6109 28.5719 26.5078 28.4561 26.5078ZM26.9506 28.6088C26.8471 29.2255 26.3567 29.6395 25.7321 29.6395C25.4191 29.6395 25.1678 29.539 25.0069 29.3485C24.8472 29.1593 24.7872 28.89 24.8374 28.59C24.9353 27.9786 25.4326 27.551 26.0477 27.551C26.3544 27.551 26.6037 27.6529 26.7679 27.8451C26.9332 28.0392 26.9985 28.3102 26.9506 28.6088Z" fill="#179BD7"/>
    <path d="M29.6438 24.8505L28.6476 30.3381C28.628 30.4444 28.7232 30.5403 28.847 30.5403H29.8486C30.015 30.5403 30.1563 30.4358 30.1818 30.2935L31.1642 24.9049C31.1837 24.7986 31.0886 24.7024 30.9647 24.7024H29.8432C29.7442 24.7027 29.659 24.7654 29.6438 24.8505Z" fill="#179BD7"/>
</svg>