<svg width="59" height="25" viewBox="0 0 59 25" fill="none" xmlns="http://www.w3.org/2000/svg">
<g clip-path="url(#clip0_527_10863)">
<path d="M0.934204 4.53479C0.963888 4.51817 0.962701 4.4873 0.971012 4.4588C1.03057 4.25246 1.15317 4.06992 1.32164 3.93673C1.49011 3.80354 1.69601 3.72638 1.91052 3.71604C2.12503 3.7057 2.3374 3.76271 2.5179 3.87907C2.6984 3.99544 2.83798 4.16535 2.91711 4.365C3.22226 5.09404 3.52029 5.82546 3.8195 6.55569C4.79948 8.93517 5.77826 11.315 6.75586 13.6953C6.77605 13.744 6.79979 13.7903 6.83185 13.8616C7.02658 13.3866 7.21537 12.9378 7.4006 12.4854C8.50881 9.79403 9.61702 7.1003 10.7252 4.40418C10.9271 3.9138 11.3189 3.67276 11.8319 3.72145C12.0459 3.74623 12.2465 3.83872 12.4043 3.98544C12.5622 4.13217 12.669 4.32547 12.7093 4.53717C12.7493 4.76936 12.7166 5.00824 12.6155 5.22109C11.239 8.56392 9.8636 11.9068 8.48942 15.2496C8.25986 15.8037 8.03149 16.361 7.80431 16.9214C7.73383 17.122 7.60304 17.2959 7.42986 17.4192C7.25668 17.5426 7.0496 17.6094 6.83698 17.6104C6.62437 17.6114 6.41664 17.5467 6.24226 17.425C6.06788 17.3034 5.9354 17.1308 5.86296 16.9309C4.26081 13.03 2.65826 9.1295 1.05532 5.2294C1.01376 5.12729 0.97695 5.02399 0.936579 4.92069L0.934204 4.53479Z" fill="#08A89E"/>
<path d="M29.615 0C30.0306 0.118737 30.3274 0.356211 30.439 0.800286C30.4629 0.932636 30.4709 1.06737 30.4628 1.20162C30.4628 3.30563 30.4343 5.40846 30.4723 7.51128C30.5316 10.7599 31.6501 13.6167 33.785 16.0722C33.9038 16.204 34.0225 16.331 34.1412 16.4616C34.2377 16.5595 34.3136 16.6757 34.3645 16.8034C34.4153 16.9311 34.44 17.0677 34.4371 17.2051C34.4343 17.3425 34.4039 17.4779 34.3478 17.6034C34.2917 17.7288 34.211 17.8418 34.1105 17.9355C34.01 18.0293 33.8917 18.1019 33.7627 18.1492C33.6336 18.1965 33.4964 18.2174 33.3591 18.2107C33.2219 18.204 33.0873 18.1699 32.9635 18.1103C32.8396 18.0508 32.729 17.967 32.638 17.8639C30.7465 15.8836 29.423 13.4305 28.8064 10.7623C28.5353 9.58049 28.403 8.3711 28.4122 7.15863C28.4181 5.18998 28.4241 3.22133 28.4122 1.25267C28.4122 0.635241 28.6152 0.191166 29.2683 0H29.615Z" fill="#08A89E"/>
<path d="M57.2391 1.58242C57.5538 1.41381 57.8328 1.19177 58.1308 0.995856C58.4289 0.799941 58.6284 0.848622 58.8171 1.14546C59.1057 1.59785 59.0736 1.82108 58.5393 2.0443C58.265 2.16304 58.0014 2.30196 57.7319 2.43257C57.745 2.50025 57.8055 2.50262 57.8506 2.52281C58.1439 2.66886 58.4443 2.80778 58.734 2.95264C59.0047 3.08562 59.0724 3.29935 58.9299 3.55938C58.8872 3.63656 58.8421 3.71136 58.797 3.78617C58.6414 4.04383 58.4229 4.09607 58.1748 3.93103C57.9266 3.76598 57.6618 3.58194 57.4042 3.40858C57.3551 3.36371 57.2941 3.33402 57.2284 3.32309C57.2368 3.4822 57.2403 3.63537 57.2522 3.78854C57.2664 4.00464 57.2878 4.22074 57.3044 4.43684C57.3151 4.49641 57.3119 4.55763 57.295 4.61574C57.2781 4.67385 57.2481 4.72728 57.2072 4.77187C57.1663 4.81645 57.1156 4.85099 57.0592 4.87279C57.0027 4.89459 56.942 4.90306 56.8817 4.89754C56.7883 4.89754 56.6945 4.89754 56.6003 4.89754C56.2999 4.89161 56.1515 4.72537 56.1753 4.4226C56.2026 4.05451 56.2275 3.68643 56.2536 3.30528C56.166 3.33411 56.0851 3.38058 56.0161 3.44183C55.7787 3.60331 55.5329 3.77192 55.2883 3.9334C55.2423 3.97048 55.1887 3.99676 55.1312 4.01031C55.0737 4.02386 55.0139 4.02433 54.9563 4.01168C54.8986 3.99902 54.8445 3.97358 54.798 3.93722C54.7514 3.90086 54.7137 3.85451 54.6875 3.8016C54.6352 3.71611 54.5854 3.63062 54.5379 3.54276C54.5041 3.49408 54.4819 3.43834 54.4729 3.37978C54.4639 3.32122 54.4684 3.26138 54.486 3.20481C54.5037 3.14825 54.534 3.09646 54.5746 3.05337C54.6153 3.01029 54.6653 2.97706 54.7207 2.9562C55.0615 2.78878 55.4047 2.62611 55.7751 2.44682L54.7896 1.97187C54.4453 1.80445 54.3871 1.61566 54.5782 1.2832C54.8585 0.794004 54.9938 0.761944 55.4569 1.0766C55.7086 1.24758 55.9611 1.41737 56.2144 1.58598C56.2228 1.58598 56.237 1.58598 56.2548 1.58598C56.2299 1.22977 56.2192 0.883056 56.1776 0.535157C56.1547 0.429589 56.1674 0.319391 56.2138 0.221836C56.2602 0.124281 56.3377 0.0448851 56.4341 -0.00390625H57.0278C57.2653 0.11483 57.3211 0.303622 57.2961 0.560093C57.2459 0.898001 57.2276 1.23989 57.2415 1.58123C57.2308 1.56935 57.2237 1.57054 57.2201 1.58123H57.2284C57.232 1.58196 57.2355 1.58236 57.2391 1.58242Z" fill="#F26825"/>
<path d="M36.51 0.0320933H37.2533C39.3265 0.15083 41.1823 1.84164 41.5077 3.90647C41.5593 4.24791 41.5831 4.59299 41.5789 4.93829C41.5789 5.70533 41.5789 6.47237 41.5789 7.23941C41.5789 7.84853 42.0064 8.29854 42.5822 8.29735C43.1581 8.29616 43.582 7.84496 43.5832 7.22872C43.5832 6.39756 43.5832 5.57709 43.5832 4.75187C43.5707 3.63458 43.9577 2.54957 44.6743 1.6923C45.391 0.835029 46.3902 0.261852 47.492 0.0760253C47.6297 0.0510906 47.771 0.0427795 47.9099 0.0273438H48.6532C50.6718 0.14608 52.4884 1.75021 52.8755 3.7533C52.9444 4.09804 52.9775 4.449 52.9741 4.80056C52.9622 5.83119 53.0085 6.86301 52.9503 7.89365C52.8474 10.0031 52.0821 12.0265 50.7632 13.6761C49.051 15.8431 46.8152 17.1504 44.0819 17.5624C38.7102 18.371 33.5547 14.797 32.4231 9.50372C32.2635 8.75916 32.1839 7.99969 32.1856 7.23822C32.1856 6.41181 32.1856 5.5858 32.1856 4.76019C32.1721 3.64221 32.5582 2.55615 33.2744 1.6976C33.9906 0.839041 34.9898 0.264416 36.0921 0.0772129C36.2286 0.0558403 36.3699 0.0475291 36.51 0.0320933ZM34.2374 6.18146C34.2374 6.36907 34.2374 6.55548 34.2374 6.74309C34.2083 7.56321 34.2821 8.38374 34.4571 9.1855C34.7133 10.2778 35.1871 11.3071 35.8503 12.2121C36.5134 13.1171 37.3522 13.879 38.3165 14.4524C39.2808 15.0258 40.3509 15.3988 41.4627 15.5492C42.5745 15.6996 43.7052 15.6243 44.7872 15.3277C48.1522 14.4289 50.6741 11.3762 50.8926 7.89721C50.9627 6.78108 50.9401 5.65902 50.9033 4.54171C50.851 2.94826 49.2707 1.76921 47.714 2.13017C46.4661 2.4187 45.6397 3.46358 45.6349 4.76494C45.6349 5.58422 45.6349 6.40469 45.6349 7.22516C45.6406 7.45946 45.6199 7.69365 45.5732 7.92333C45.4221 8.64443 45.015 9.28644 44.4272 9.73063C43.8394 10.1748 43.1106 10.3911 42.3756 10.3396C40.8914 10.266 39.6055 9.01452 39.5414 7.53506C39.5022 6.62791 39.5271 5.71958 39.5236 4.81124C39.5266 4.54773 39.4967 4.28487 39.4345 4.02877C39.2756 3.42804 38.9098 2.90267 38.4016 2.54522C37.8933 2.18777 37.2752 2.0212 36.6561 2.07484C36.037 2.12849 35.4568 2.39891 35.0176 2.83847C34.5784 3.27802 34.3084 3.85849 34.2552 4.47759C34.2113 5.04397 34.2457 5.61271 34.2374 6.18146Z" fill="#F26824"/>
<path d="M24.9843 15.5852C24.805 15.7407 24.6601 15.8737 24.5093 15.9972C23.3707 16.9492 21.9543 17.5066 20.4723 17.5859C18.7827 17.6882 17.1135 17.1739 15.7746 16.1383C14.4357 15.1027 13.5182 13.6164 13.1925 11.9554C12.4528 8.2591 14.8964 4.56995 18.5962 3.79935C20.3826 3.41969 22.2466 3.75362 23.7901 4.72981C25.3336 5.70599 26.4342 7.24705 26.8568 9.02377C26.9807 9.53624 27.044 10.0615 27.0455 10.5887C27.0455 12.5922 27.0455 14.5957 27.0455 16.5992C27.0556 16.8418 26.9795 17.0802 26.8306 17.2721C26.6818 17.464 26.4698 17.5971 26.2322 17.6476C25.5542 17.7877 24.9914 17.3128 24.9843 16.6004C24.9736 16.275 24.9843 15.9497 24.9843 15.5852ZM24.9783 10.6326C25.0282 8.10593 22.9598 5.72882 20.0959 5.70033C19.4494 5.69588 18.8084 5.81881 18.2094 6.0621C17.6105 6.30539 17.0653 6.66428 16.605 7.11826C16.1447 7.57224 15.7784 8.11244 15.5269 8.708C15.2754 9.30357 15.1437 9.94283 15.1392 10.5893C15.1348 11.2358 15.2577 11.8768 15.501 12.4758C15.7443 13.0747 16.1032 13.6199 16.5572 14.0802C17.0111 14.5404 17.5513 14.9068 18.1469 15.1583C18.7425 15.4098 19.3817 15.5415 20.0282 15.546C22.8173 15.5685 25.0128 13.2508 24.9724 10.6326H24.9783Z" fill="#08A89E"/>
<path d="M37.8079 23.5888C37.8079 23.203 37.8079 22.8159 37.8079 22.43C37.8079 22.3659 37.8079 22.3184 37.8827 22.2934C38.3434 22.1343 38.8064 21.9847 39.3075 22.0773C39.4189 22.0882 39.5252 22.1292 39.615 22.1961C39.6506 22.2369 39.7007 22.2621 39.7547 22.2663C39.8086 22.2705 39.8621 22.2534 39.9036 22.2186C40.0827 22.1171 40.2833 22.0593 40.4889 22.05C41.0826 22.0001 41.4733 22.3184 41.4958 22.9109C41.5208 23.5366 41.5029 24.1647 41.5053 24.7916C41.5053 24.8653 41.4816 24.889 41.4056 24.8961C40.8748 24.9424 40.8748 24.9448 40.8748 24.4212C40.8748 24.0115 40.8748 23.6007 40.8748 23.1911C40.8748 22.9916 40.8475 22.7945 40.6469 22.6936C40.4462 22.5926 40.2253 22.6544 40.0235 22.7482C39.9594 22.7779 39.9689 22.8242 39.9689 22.8788C39.9689 23.5117 39.9772 24.1433 39.9843 24.7786C39.9843 24.8653 39.9617 24.8973 39.8656 24.9033C39.3538 24.9294 39.3538 24.9318 39.3538 24.4212C39.3538 24.0104 39.3538 23.6007 39.3538 23.1911C39.3538 22.6995 38.9359 22.4787 38.5084 22.7328C38.4384 22.7731 38.4538 22.8254 38.4538 22.8812C38.4538 23.495 38.4538 24.1101 38.4538 24.7252C38.4538 24.8546 38.4324 24.9199 38.284 24.9033C38.1356 24.8866 37.9456 24.9484 37.8589 24.8748C37.7722 24.8011 37.828 24.5886 37.8245 24.439C37.8185 24.1576 37.8245 23.8762 37.8245 23.5948L37.8079 23.5888Z" fill="#666769"/>
<path d="M21.0981 24.8951C20.8713 24.8951 20.673 24.8891 20.4735 24.8951C20.3821 24.8951 20.3548 24.8523 20.3275 24.7763C20.242 24.5389 20.1506 24.2943 20.0674 24.0508C20.0605 24.011 20.0382 23.9754 20.0054 23.9517C19.9726 23.9279 19.9318 23.9179 19.8917 23.9238C19.5177 23.9297 19.1413 23.9297 18.7661 23.9238C18.7292 23.9193 18.6921 23.9291 18.6623 23.9512C18.6324 23.9733 18.6122 24.006 18.6058 24.0425C18.5227 24.28 18.4313 24.5175 18.3517 24.755C18.3447 24.7974 18.3212 24.8354 18.2862 24.8606C18.2513 24.8857 18.2078 24.896 18.1653 24.8891C17.986 24.8796 17.8091 24.8891 17.6001 24.8891L17.9563 23.9606C18.3054 23.0546 18.6569 22.1511 19.0012 21.2439C19.011 21.194 19.0394 21.1498 19.0806 21.12C19.1218 21.0902 19.1728 21.0772 19.2232 21.0836C19.6863 21.0907 19.6875 21.0836 19.8502 21.5206C20.2459 22.5939 20.6445 23.6677 21.0458 24.7419C21.066 24.7918 21.0767 24.8309 21.0981 24.8951ZM19.3467 22.0335C19.1947 22.4562 19.057 22.8397 18.9181 23.2209C18.8884 23.304 18.9323 23.3206 19.0048 23.3206C19.2256 23.3206 19.4488 23.3147 19.6697 23.3206C19.7813 23.3206 19.7967 23.2897 19.7599 23.1924C19.6246 22.8231 19.4939 22.4491 19.3467 22.0335Z" fill="#656669"/>
<path d="M22.1085 21.4955C22.1085 21.689 22.1085 21.8825 22.1085 22.0749C22.1085 22.1675 22.1299 22.1865 22.2165 22.1485C22.4141 22.06 22.6329 22.0299 22.847 22.0618C23.3659 22.1438 23.6972 22.475 23.8254 23.0509C23.9052 23.3712 23.8928 23.7074 23.7898 24.021C23.5689 24.655 22.9705 25.0196 22.2462 24.9554C22.0126 24.937 21.7819 24.8916 21.5587 24.8201C21.4994 24.7999 21.44 24.788 21.4471 24.7014C21.5041 23.584 21.459 22.4667 21.4732 21.3494C21.4732 21.2081 21.4732 21.068 21.4732 20.9279C21.4732 20.8424 21.5005 20.8151 21.5837 20.8187C21.7178 20.8187 21.8532 20.8246 21.9874 20.8187C22.0847 20.8187 22.1061 20.8555 22.1061 20.9374C22.1049 21.1214 22.1085 21.309 22.1085 21.4955ZM22.1085 23.5377V24.205C22.1085 24.262 22.0966 24.3238 22.1809 24.3392C22.5371 24.4211 22.8933 24.3784 23.0714 23.983C23.1389 23.8363 23.1761 23.6776 23.1808 23.5162C23.1855 23.3548 23.1576 23.1941 23.0987 23.0438C23.0695 22.9589 23.0223 22.8814 22.9603 22.8164C22.8983 22.7515 22.823 22.7007 22.7395 22.6676C22.6561 22.6344 22.5665 22.6197 22.4769 22.6244C22.3872 22.629 22.2996 22.653 22.2201 22.6947C22.1835 22.7057 22.1517 22.7289 22.1301 22.7604C22.1085 22.792 22.0984 22.8299 22.1014 22.8681C22.112 23.0937 22.1085 23.3157 22.1085 23.5377Z" fill="#656669"/>
<path d="M26.8734 23.5245C26.8782 23.6793 26.859 23.8339 26.8164 23.9828C26.7511 24.2778 26.5812 24.5393 26.338 24.7187C26.0948 24.8982 25.7949 24.9834 25.4937 24.9588C25.2044 24.9439 24.9288 24.8305 24.7128 24.6374C24.4968 24.4443 24.3534 24.1832 24.3063 23.8973C24.2435 23.6042 24.2529 23.3002 24.3337 23.0115C24.4072 22.7322 24.573 22.486 24.8041 22.3127C25.0352 22.1395 25.318 22.0494 25.6067 22.0571C25.8954 22.0648 26.1731 22.1698 26.3946 22.3551C26.6161 22.5405 26.7686 22.7952 26.8271 23.078C26.8608 23.2244 26.8763 23.3743 26.8734 23.5245ZM26.1776 23.5055C26.1885 23.3065 26.1476 23.108 26.0589 22.9296C26.014 22.8367 25.9425 22.7594 25.8535 22.7073C25.7644 22.6553 25.6619 22.631 25.559 22.6375C25.4581 22.6345 25.3588 22.6622 25.274 22.7169C25.1892 22.7716 25.1229 22.8507 25.0841 22.9438C25.0013 23.1187 24.9579 23.3096 24.9569 23.503C24.9559 23.6965 24.9973 23.8878 25.0781 24.0635C25.118 24.1622 25.188 24.2458 25.2782 24.3023C25.3684 24.3589 25.4742 24.3854 25.5804 24.3782C25.6834 24.3807 25.7849 24.3524 25.8718 24.297C25.9587 24.2416 26.0271 24.1615 26.0684 24.0671C26.1493 23.8913 26.1867 23.6987 26.1776 23.5055Z" fill="#656669"/>
<path d="M43.5167 23.7548C43.2792 23.7548 43.0418 23.7548 42.8138 23.7548C42.7045 23.7548 42.6844 23.7928 42.7046 23.8901C42.7317 24.017 42.7991 24.1317 42.8966 24.2173C42.9941 24.3028 43.1167 24.3547 43.246 24.3651C43.4744 24.3897 43.7054 24.3587 43.9192 24.2748C44.0154 24.2368 44.0605 24.2594 44.0831 24.3544C44.0916 24.3823 44.1019 24.4097 44.114 24.4363C44.2434 24.783 44.2446 24.7842 43.8907 24.8816C43.6435 24.9579 43.3826 24.9798 43.1261 24.9457C42.4635 24.8376 42.0503 24.352 42.0076 23.6396C41.986 23.3572 42.0266 23.0735 42.1263 22.8084C42.2132 22.5712 42.3752 22.369 42.5877 22.2325C42.8002 22.096 43.0516 22.0327 43.3034 22.0523C43.5552 22.072 43.7937 22.1734 43.9825 22.3412C44.1713 22.5091 44.3 22.734 44.3491 22.9818C44.3971 23.1994 44.4044 23.4241 44.3704 23.6443C44.3562 23.7334 44.3206 23.7631 44.2339 23.7571C43.9976 23.7512 43.7577 23.7548 43.5167 23.7548ZM43.2187 23.2264C43.3588 23.2264 43.4989 23.2264 43.639 23.2264C43.7269 23.2264 43.7447 23.1955 43.7364 23.1077C43.733 22.9717 43.6765 22.8424 43.5792 22.7475C43.4818 22.6525 43.3511 22.5994 43.2151 22.5995C43.077 22.6083 42.9469 22.6677 42.8497 22.7662C42.7525 22.8647 42.6949 22.9955 42.6879 23.1338C42.6879 23.2133 42.7212 23.2216 42.7805 23.2216L43.2187 23.2264Z" fill="#666769"/>
<path d="M29.6589 23.3514C29.6696 23.7076 29.6352 24.1362 29.6839 24.5613C29.691 24.6278 29.6957 24.6801 29.6114 24.7145C29.1365 24.8807 28.6616 25.022 28.1534 24.9282C27.6784 24.8415 27.4065 24.5613 27.3946 24.0852C27.3792 23.4654 27.3887 22.8444 27.3851 22.2246C27.3851 22.145 27.4041 22.1153 27.492 22.1058C28.0073 22.075 28.0073 22.0726 28.0073 22.5808C28.0073 22.9726 28.0073 23.3656 28.0073 23.7575C28.0073 24.2467 28.2697 24.4473 28.747 24.3333C28.8088 24.3191 28.8658 24.2989 28.9323 24.2823C28.9988 24.2657 29.0391 24.2277 29.0379 24.1351C29.0296 23.5093 29.0379 22.8836 29.0296 22.2566C29.0296 22.1379 29.0664 22.0916 29.1876 22.1035C29.3372 22.1189 29.5331 22.0417 29.6281 22.1343C29.7231 22.227 29.6542 22.4217 29.6577 22.5725C29.6625 22.8135 29.6589 23.0474 29.6589 23.3514Z" fill="#646568"/>
<path d="M35.033 23.2917C35.033 23.7785 35.033 24.2642 35.033 24.751C35.033 24.8697 35.0057 24.9101 34.8881 24.897C34.7219 24.878 34.5046 24.9695 34.399 24.859C34.2933 24.7486 34.3716 24.5468 34.3716 24.3841C34.3716 23.5399 34.3716 22.6968 34.3716 21.8526C34.3716 21.7196 34.3372 21.6828 34.2054 21.6888C33.9537 21.6995 33.702 21.6888 33.4491 21.6888C33.3553 21.6888 33.3303 21.6603 33.3303 21.57C33.3369 21.447 33.3369 21.3238 33.3303 21.2008C33.3303 21.1034 33.3671 21.082 33.4491 21.082C34.3048 21.082 35.1608 21.082 36.0173 21.082C36.1099 21.082 36.1361 21.1129 36.1361 21.2008C36.1574 21.6828 36.1598 21.6828 35.6754 21.6828C35.5115 21.6828 35.3465 21.6911 35.1838 21.6828C35.0544 21.6745 35.014 21.709 35.0164 21.8443C35.0389 22.3311 35.033 22.8108 35.033 23.2917Z" fill="#656669"/>
<path d="M11.795 21.7445C11.795 22.1125 11.795 22.1125 12.1726 22.1125C12.5146 22.1125 12.5169 22.1125 12.5146 22.4604C12.5146 22.7335 12.5538 22.692 12.2688 22.6979C12.118 22.6979 11.9256 22.6338 11.8283 22.7276C11.7309 22.8214 11.7986 23.0161 11.7962 23.1657C11.7962 23.4875 11.7962 23.8093 11.7962 24.1311C11.7962 24.359 11.8568 24.416 12.0812 24.4006C12.1692 24.3981 12.256 24.38 12.3377 24.3472C12.4742 24.2819 12.5229 24.3389 12.5466 24.4659C12.5516 24.4887 12.5587 24.511 12.568 24.5324C12.6749 24.8649 12.6749 24.866 12.3388 24.9515C12.1407 25.0082 11.932 25.0171 11.7297 24.9777C11.5708 24.9557 11.4258 24.8755 11.3227 24.7526C11.2195 24.6298 11.1657 24.473 11.1717 24.3127C11.1622 23.8378 11.1633 23.3522 11.1717 22.8725C11.1717 22.7323 11.1396 22.6611 10.99 22.6801C10.8891 22.6932 10.8534 22.6469 10.8629 22.5495C10.8713 22.4852 10.8713 22.4202 10.8629 22.356C10.8416 22.2016 10.8808 22.1078 11.0612 22.1268C11.1432 22.1351 11.1717 22.0935 11.1693 22.0081C11.1693 21.8276 11.1693 21.6459 11.1693 21.4642C11.1693 21.3728 11.199 21.3348 11.288 21.3455C11.3232 21.3473 11.3585 21.3473 11.3937 21.3455C11.795 21.3491 11.795 21.3491 11.795 21.7445Z" fill="#66676A"/>
<path d="M30.4604 23.5542C30.4604 23.3168 30.4545 23.0864 30.4604 22.8525C30.4604 22.7338 30.4438 22.6578 30.3025 22.6768C30.198 22.6922 30.1517 22.6507 30.1648 22.5402C30.1737 22.4705 30.1737 22.3998 30.1648 22.3301C30.1422 22.1793 30.1992 22.1104 30.3524 22.1247C30.4545 22.1342 30.4616 22.0736 30.4604 21.994C30.4604 21.8243 30.4604 21.6545 30.4604 21.4847C30.4604 21.3825 30.4818 21.3446 30.5946 21.3422C31.0921 21.3327 31.0921 21.3291 31.0921 21.8171C31.0921 22.108 31.0921 22.108 31.3866 22.108C31.8402 22.108 31.8354 22.108 31.8259 22.558C31.8259 22.6697 31.7832 22.6982 31.6799 22.6946C31.5279 22.6887 31.3759 22.6946 31.2239 22.6946C31.1301 22.6946 31.0886 22.7124 31.0897 22.8133C31.0897 23.2586 31.0897 23.7027 31.0897 24.1479C31.0897 24.3379 31.1574 24.402 31.345 24.3961C31.4209 24.3925 31.4962 24.3806 31.5694 24.3605C31.7927 24.3011 31.7915 24.2987 31.8639 24.5267C31.9684 24.8568 31.9684 24.858 31.6324 24.9411C31.5591 24.961 31.4845 24.9757 31.4091 24.985C30.7775 25.0503 30.4593 24.7618 30.4593 24.1277L30.4604 23.5542Z" fill="#666769"/>
<path d="M15.071 24.9618C14.807 24.9569 14.5455 24.9092 14.2968 24.8205C14.2161 24.7943 14.1781 24.7623 14.2196 24.6697C14.2731 24.5509 14.2754 24.3776 14.3633 24.2992C14.4512 24.2208 14.6008 24.3574 14.7278 24.3788C14.8539 24.405 14.983 24.413 15.1114 24.4025C15.1703 24.4014 15.2272 24.3809 15.2734 24.3442C15.3195 24.3075 15.3523 24.2566 15.3666 24.1995C15.3862 24.1406 15.3858 24.0768 15.3654 24.0182C15.345 23.9596 15.3058 23.9093 15.2538 23.8753C15.1783 23.8221 15.0989 23.7745 15.0164 23.7328C14.919 23.6818 14.8145 23.6402 14.7171 23.5856C14.3609 23.3873 14.2185 23.119 14.266 22.7544C14.3075 22.4279 14.5355 22.1893 14.9059 22.0931C15.2281 22.0186 15.5655 22.0477 15.8701 22.1762C15.9425 22.2023 15.9746 22.232 15.939 22.3163C15.8867 22.435 15.882 22.6013 15.7977 22.6879C15.7134 22.7746 15.5661 22.6464 15.4414 22.6381C15.3328 22.6165 15.2214 22.6121 15.1114 22.625C15.0645 22.6303 15.0204 22.6493 14.9844 22.6798C14.9485 22.7102 14.9224 22.7507 14.9095 22.796C14.8947 22.8476 14.8978 22.9026 14.9183 22.9522C14.9387 23.0018 14.9754 23.043 15.0223 23.0691C15.1025 23.1165 15.1854 23.1593 15.2705 23.1973C15.3761 23.2472 15.4878 23.2864 15.5911 23.3398C15.7632 23.4122 15.9051 23.5417 15.9929 23.7065C16.0807 23.8713 16.109 24.0613 16.0731 24.2446C16.0328 24.583 15.7893 24.8311 15.4034 24.9202C15.2955 24.9516 15.1833 24.9656 15.071 24.9618Z" fill="#666769"/>
<path d="M9.66015 22.9903C9.66015 22.4049 9.66015 21.8207 9.66015 21.2354C9.66015 21.1237 9.68628 21.0774 9.80382 21.0893C9.96531 21.1059 10.1767 21.0228 10.2788 21.1214C10.3809 21.2199 10.3096 21.4313 10.3096 21.5963C10.3096 22.6376 10.3096 23.6778 10.3096 24.7191C10.3096 24.8651 10.274 24.9186 10.1268 24.9008C9.97956 24.8829 9.78127 24.9625 9.68747 24.8711C9.59366 24.7796 9.66015 24.5825 9.65897 24.4317C9.65778 23.9497 9.66015 23.47 9.66015 22.9903Z" fill="#636567"/>
<path d="M37.1097 23.5186C37.1097 23.9295 37.1097 24.3391 37.1097 24.7488C37.1097 24.8615 37.0836 24.9079 36.9648 24.896C36.8093 24.8805 36.6086 24.9601 36.5077 24.8651C36.4068 24.7701 36.478 24.5659 36.478 24.4092C36.478 23.6967 36.478 22.9843 36.478 22.2719C36.478 22.1532 36.5065 22.1021 36.6324 22.1164C36.7879 22.1354 36.9957 22.0511 37.0848 22.1532C37.1738 22.2553 37.1109 22.4429 37.1109 22.5937C37.1109 22.8976 37.1097 23.2087 37.1097 23.5186Z" fill="#646568"/>
<path d="M12.7651 21.1991C12.7699 21.1381 12.7914 21.0796 12.8272 21.03C12.863 20.9803 12.9118 20.9415 12.9682 20.9177C13.0209 20.8978 13.0789 20.8972 13.132 20.9161C13.1851 20.9351 13.2297 20.9722 13.2579 21.021C13.3909 21.1778 13.5203 21.3357 13.6557 21.49C13.791 21.6444 13.6046 21.6955 13.5595 21.7893C13.5144 21.8831 13.4407 21.8201 13.3909 21.7809C13.2246 21.6622 13.0596 21.5435 12.8922 21.4247C12.8541 21.4005 12.8225 21.3672 12.8004 21.3279C12.7782 21.2885 12.7661 21.2443 12.7651 21.1991Z" fill="#66676A"/>
<path d="M36.7784 21.5522C36.7273 21.5527 36.6766 21.5426 36.6296 21.5224C36.5826 21.5022 36.5403 21.4725 36.5055 21.435C36.4706 21.3976 36.4439 21.3533 36.4271 21.305C36.4104 21.2567 36.4038 21.2054 36.4079 21.1545C36.4064 21.1033 36.4155 21.0525 36.4344 21.0049C36.4534 20.9574 36.4819 20.9143 36.5181 20.8783C36.5544 20.8422 36.5977 20.814 36.6453 20.7953C36.693 20.7767 36.7439 20.768 36.795 20.7698C36.8981 20.7738 36.9955 20.8181 37.0663 20.8931C37.1372 20.9681 37.1757 21.0679 37.1738 21.1711C37.1737 21.2223 37.1632 21.273 37.1431 21.3201C37.123 21.3672 37.0937 21.4098 37.0568 21.4454C37.0199 21.4809 36.9763 21.5087 36.9284 21.5271C36.8806 21.5454 36.8296 21.554 36.7784 21.5522Z" fill="#666769"/>
<path d="M49.2944 7.16843C49.327 8.85132 48.7269 10.4852 47.6128 11.7469C46.4987 13.0086 44.9517 13.8063 43.2777 13.9823C41.6037 14.1582 39.9246 13.6996 38.5725 12.6971C37.2204 11.6946 36.2937 10.2212 35.9757 8.56834C35.8509 7.84643 35.811 7.11239 35.857 6.38121C35.8625 6.24873 35.8941 6.11865 35.95 5.99842C36.0059 5.87819 36.085 5.77018 36.1827 5.6806C36.2805 5.59102 36.3949 5.52162 36.5196 5.4764C36.6442 5.43117 36.7765 5.41101 36.909 5.41707C37.1756 5.42537 37.4286 5.53684 37.6146 5.72798C37.8007 5.91913 37.9053 6.17502 37.9064 6.44176C37.9171 6.78135 37.9064 7.12094 37.9135 7.46052C37.9586 9.61678 39.6221 11.5308 41.7534 11.8858C42.9525 12.1023 44.1887 11.8411 45.1978 11.1582C46.2069 10.4753 46.9088 9.42474 47.1536 8.23112C47.2605 7.73955 47.245 7.24205 47.2474 6.74454C47.2381 6.57478 47.2461 6.40451 47.2711 6.23635C47.321 5.99623 47.4549 5.78183 47.6489 5.63181C47.8429 5.4818 48.0842 5.40606 48.3291 5.41825C48.5716 5.42803 48.8024 5.52529 48.9788 5.69206C49.1551 5.85882 49.2651 6.0838 49.2885 6.3254C49.3146 6.60443 49.2944 6.88703 49.2944 7.16843Z" fill="#F26824"/>
</g>
<defs>
<clipPath id="clip0_527_10863">
<rect width="58.0658" height="25" fill="white" transform="translate(0.934204)"/>
</clipPath>
</defs>
</svg>
