<svg width="52" height="25" viewBox="0 0 52 25" fill="none" xmlns="http://www.w3.org/2000/svg">
    <path d="M33.8619 3.73047C30.1735 3.73047 26.8772 5.63685 26.8772 9.15903C26.8772 13.1983 32.7232 13.4773 32.7232 15.5065C32.7232 16.3609 31.7413 17.1257 30.0641 17.1257C27.684 17.1257 25.9049 16.057 25.9049 16.057L25.1438 19.6113C25.1438 19.6113 27.1931 20.5141 29.9139 20.5141C33.9466 20.5141 37.1199 18.5141 37.1199 14.9317C37.1199 10.6635 31.2496 10.3928 31.2496 8.5093C31.2496 7.83999 32.0557 7.10662 33.728 7.10662C35.6149 7.10662 37.1544 7.88386 37.1544 7.88386L37.8994 4.45104C37.8994 4.45104 36.2243 3.73047 33.8619 3.73047ZM0.11568 3.98955L0.0263672 4.50771C0.0263672 4.50771 1.57813 4.7909 2.97575 5.35579C4.77529 6.00357 4.90348 6.38066 5.20656 7.55191L8.50912 20.2469H12.9362L19.7566 3.98955H15.3395L10.9572 15.043L9.16883 5.67358C9.00482 4.60125 8.17409 3.98955 7.15724 3.98955H0.11568ZM21.5327 3.98955L18.0677 20.2469H22.2797L25.7324 3.98955H21.5327ZM45.0241 3.98955C44.0084 3.98955 43.4703 4.53176 43.0755 5.47927L36.9048 20.2469H41.3217L42.1763 17.7857H47.5574L48.0771 20.2469H51.9744L48.5743 3.98955H45.0241ZM45.5986 8.38178L46.9078 14.4823H43.4002L45.5986 8.38178Z" fill="#1434CB"/>
</svg>
