<svg width="25" height="25" viewBox="0 0 25 25" fill="none" xmlns="http://www.w3.org/2000/svg">
<g clip-path="url(#clip0_552_12274)">
<path d="M24.9986 21.4846V25.0002H20.2218C20.3893 24.8821 20.5187 24.7419 20.4635 24.5154C20.4108 24.3 20.2384 24.2473 20.046 24.2009C18.2804 23.7751 17.0465 22.7229 16.36 21.0349C16.2067 20.6589 16.0631 20.279 15.9098 19.9036C15.6784 19.3283 15.2976 18.8253 14.8068 18.4465C13.214 17.1999 11.6359 15.9343 10.0568 14.6702C9.59435 14.2996 9.13537 13.9226 8.69835 13.5222C8.32677 13.1804 8.27941 12.7439 8.51671 12.3245C8.77013 11.8762 9.14806 11.6965 9.63976 11.8303C9.88902 11.9014 10.1293 12.0006 10.3561 12.1262C12.2766 13.1623 14.1954 14.2025 16.1124 15.2468C16.3566 15.3782 16.5944 15.5163 16.8448 15.633C16.8888 15.6546 16.9365 15.6672 16.9853 15.6703C17.0341 15.6733 17.083 15.6667 17.1293 15.6508C17.1755 15.635 17.2182 15.6101 17.2549 15.5778C17.2915 15.5454 17.3214 15.5061 17.3429 15.4621C17.4405 15.2786 17.3873 15.0759 17.2042 14.9509C17.1427 14.9121 17.0794 14.8764 17.0143 14.844C16.422 14.5237 15.8287 14.2048 15.2379 13.8816C15.1637 13.8406 15.0699 13.7873 15.0426 13.717C14.7833 13.0618 14.5362 12.4016 14.2731 11.7107C15.025 11.6726 15.7457 11.6399 16.4664 11.5989C16.7931 11.5738 17.1184 11.6629 17.3868 11.8508C17.9488 12.2463 18.4581 12.7034 18.838 13.279C20.6319 15.9984 22.4204 18.7214 24.2032 21.448C24.4615 21.8406 24.7159 21.8542 24.9986 21.4846Z" fill="white"/>
<path d="M24.9989 21.4839C24.7162 21.8535 24.4618 21.8398 24.2035 21.4468C22.4164 18.7225 20.628 15.9995 18.8383 13.2778C18.4584 12.7021 17.9491 12.2451 17.3871 11.8496C17.1187 11.6617 16.7934 11.5726 16.4667 11.5977C15.746 11.6387 15.0253 11.6714 14.2734 11.7095C14.5365 12.4004 14.7836 13.0605 15.0429 13.7158C15.0707 13.7861 15.1645 13.8394 15.2382 13.8804C15.829 14.2036 16.4223 14.5225 17.0146 14.8428C17.08 14.8753 17.1437 14.9112 17.2055 14.9502C17.3886 15.0752 17.4418 15.2778 17.3442 15.4614C17.3227 15.5054 17.2928 15.5447 17.2561 15.577C17.2195 15.6094 17.1768 15.6343 17.1306 15.6501C17.0843 15.666 17.0354 15.6726 16.9866 15.6695C16.9378 15.6665 16.89 15.6538 16.8461 15.6323C16.5966 15.5156 16.3578 15.3774 16.1137 15.2461C14.1951 14.2044 12.2763 13.1642 10.3573 12.1255C10.1308 11.9999 9.89061 11.9007 9.64152 11.8296C9.14738 11.6958 8.76945 11.8755 8.51847 12.3237C8.28117 12.7432 8.32853 13.1812 8.70011 13.5215C9.13712 13.9219 9.59611 14.2988 10.0585 14.6694C11.6376 15.9336 13.2157 17.1992 14.8085 18.4458C15.2994 18.8246 15.6802 19.3276 15.9115 19.9028C16.0649 20.2783 16.2084 20.6582 16.3617 21.0342C17.0483 22.7222 18.2821 23.7744 20.0478 24.2002C20.2401 24.249 20.4125 24.2979 20.4652 24.5146C20.5204 24.7412 20.391 24.8813 20.2235 24.9995H19.8817C19.3935 24.812 18.8842 24.6626 18.4169 24.4292C17.3964 23.9185 16.6103 23.1411 16.038 22.1523C16.0141 22.1104 15.9892 22.0698 15.9628 22.0293C15.5619 22.1821 15.1693 22.3306 14.7777 22.481C14.3954 22.6274 14.0087 22.6274 13.6405 22.4575C12.7289 22.0352 11.8134 21.6182 10.9218 21.1567C10.3847 20.8789 10.1982 20.3716 10.2514 19.7354C10.1562 19.7842 10.0824 19.8232 10.0107 19.8647C9.58244 20.1128 9.15324 20.3608 8.72599 20.6099C8.34757 20.8286 8.20109 20.7891 7.97843 20.4062C6.01684 17.0352 4.05574 13.6637 2.09513 10.292C1.45809 9.19629 0.821043 8.10042 0.183998 7.00439C-0.0450055 6.60986 -0.0064312 6.46289 0.383217 6.23877C2.62052 4.95101 4.85799 3.66357 7.09562 2.37646C7.47306 2.15918 7.6254 2.2002 7.84464 2.57764C9.79777 5.9445 11.7509 9.31136 13.704 12.6782C13.7418 12.7536 13.7969 12.819 13.8647 12.8691L9.31828 0.894043L2.50089 3.4585C2.54289 3.57568 2.58244 3.6709 2.61124 3.76953C2.67667 3.99365 2.5839 4.19434 2.38517 4.27197C2.18644 4.34961 1.98185 4.26221 1.8881 4.04541C1.79435 3.82861 1.70304 3.59424 1.62736 3.36182C1.5463 3.11768 1.65861 2.94043 1.95109 2.83008L5.07169 1.6582C6.44572 1.14128 7.81909 0.623372 9.19181 0.104492C9.2637 0.0732651 9.3338 0.0380542 9.40177 -0.000976562H9.69474C9.7924 0.143066 9.91935 0.274902 9.97941 0.432617C11.2883 3.86165 12.5917 7.29281 13.8896 10.7261C13.9555 10.8999 14.036 10.9565 14.2235 10.9434C14.9198 10.8945 15.6186 10.8774 16.3144 10.8193C17.0424 10.7583 17.6454 11.0146 18.1952 11.4644C18.8333 11.9952 19.386 12.621 19.8339 13.3198C21.5136 15.8914 23.1936 18.4631 24.8739 21.0347C24.9179 21.1021 24.9584 21.1714 25.0004 21.2402L24.9989 21.4839ZM0.968178 6.80322L8.53849 19.8237L12.4496 17.5728C11.8324 17.0845 11.2377 16.6206 10.6532 16.1455C9.82316 15.4688 8.97794 14.8047 8.17667 14.0947C7.6215 13.6011 7.43156 12.9478 7.70841 12.2319C7.97599 11.541 8.46183 11.0771 9.23869 11.0181C9.71525 10.9814 10.1518 11.1396 10.5649 11.3599C11.1957 11.6948 11.8217 12.0381 12.4501 12.3774C12.5165 12.4131 12.5863 12.4434 12.7138 12.5044C10.8842 9.35498 9.08927 6.26758 7.28703 3.16797L0.968178 6.80322ZM15.6444 21.3374C15.5297 21.0415 15.4228 20.7886 15.3339 20.5288C15.2851 20.3848 15.2138 20.3638 15.0653 20.376C14.5414 20.4175 14.016 20.4521 13.4911 20.4502C13.2893 20.4398 13.0935 20.3779 12.9223 20.2705C12.477 20.0044 12.0463 19.7134 11.6191 19.4194C11.5009 19.3384 11.4237 19.3506 11.3183 19.4263C10.911 19.7246 10.9023 20.2925 11.3451 20.5186C12.2099 20.958 13.0951 21.3613 13.977 21.7676C14.0948 21.8218 14.2275 21.8344 14.3534 21.8032C14.7826 21.6665 15.203 21.5005 15.6444 21.3374ZM11.996 18.7349C12.0883 18.8022 12.1562 18.8569 12.2279 18.9038C12.5336 19.1021 12.8515 19.2832 13.144 19.499C13.6986 19.9097 14.2782 19.6455 14.9018 19.6431C14.8334 19.5479 14.8124 19.501 14.7773 19.4717C14.248 19.0322 13.7182 18.5928 13.183 18.1611C13.1574 18.1469 13.1289 18.1388 13.0996 18.1377C13.0703 18.1365 13.0412 18.1422 13.0146 18.1543C12.682 18.3364 12.3554 18.5283 11.996 18.7349Z" fill="#A50034"/>
<path d="M8.85461 1.57355C8.90979 1.62726 9.05627 1.70929 9.109 1.83136C9.31262 2.30744 9.49182 2.79474 9.66955 3.28156C9.75305 3.51105 9.64856 3.73224 9.44641 3.80207C9.23401 3.8758 9.03576 3.78254 8.94201 3.54572C8.75744 3.07892 8.57678 2.61017 8.4049 2.13849C8.29504 1.8338 8.47522 1.56281 8.85461 1.57355Z" fill="#A50034"/>
<path d="M0.96875 6.80322L7.2876 3.16797C9.08984 6.26758 10.8848 9.35498 12.7144 12.4995C12.5869 12.4385 12.519 12.4082 12.4507 12.3726C11.8223 12.0332 11.1963 11.689 10.5654 11.355C10.1523 11.1348 9.71582 10.9766 9.23926 11.0132C8.4624 11.0723 7.97656 11.5361 7.70898 12.2271C7.43213 12.9429 7.62207 13.5942 8.17725 14.0898C8.97852 14.8018 9.82178 15.4658 10.6538 16.1406C11.2397 16.6157 11.833 17.0781 12.4502 17.5679L8.53906 19.8237L0.96875 6.80322ZM7.98926 9.32129L7.96826 9.26123C7.61621 9.36963 7.24121 9.43213 6.91602 9.59473C5.45117 10.3271 5.24414 12.3237 6.52002 13.25C6.76709 13.4292 6.99658 13.418 7.14014 13.2192C7.27637 13.0308 7.20313 12.8286 7.00147 12.6274C6.81787 12.4429 6.6294 12.2319 6.53418 11.9956C6.30322 11.4238 6.57764 10.7329 7.13086 10.3643C7.70068 9.98438 8.45947 10.0259 8.96143 10.4619C9.20361 10.6738 9.40999 10.6901 9.58057 10.5107C9.75635 10.3252 9.72168 10.0933 9.48047 9.87842C9.05615 9.50244 8.5498 9.33594 7.98926 9.32129ZM2.62061 7.22607C2.93945 7.04395 3.24756 6.86865 3.55469 6.69189C3.82568 6.53564 3.90967 6.33252 3.79492 6.11816C3.67529 5.89502 3.44385 5.85205 3.16553 6.00928C2.76351 6.23714 2.36312 6.46647 1.96436 6.69727C1.68604 6.85889 1.63232 7.04688 1.79004 7.3252C2.02637 7.74121 2.26628 8.15479 2.50977 8.56592C2.65625 8.81006 2.87646 8.88037 3.07861 8.75781C3.28076 8.63525 3.31934 8.41602 3.17285 8.16309C2.99512 7.85742 2.8125 7.55273 2.62061 7.22607ZM6.75586 4.84717C6.94483 5.17139 7.12646 5.48682 7.31299 5.79932C7.46191 6.04834 7.67627 6.12012 7.88135 5.99463C8.08643 5.86914 8.12549 5.64648 7.98193 5.39941C7.74788 4.99023 7.51107 4.58333 7.27149 4.17871C7.10596 3.89941 6.92334 3.85156 6.64014 4.01123C6.22998 4.24219 5.82275 4.47754 5.41553 4.71338C5.16162 4.85986 5.0835 5.06738 5.19629 5.27588C5.31348 5.49219 5.54102 5.53516 5.80713 5.38574C6.11816 5.21387 6.42676 5.03564 6.75586 4.84863V4.84717ZM8.99316 18.1831C8.79785 17.8525 8.62598 17.5483 8.44824 17.2505C8.29053 16.9854 8.07617 16.9087 7.8667 17.0347C7.65723 17.1606 7.62744 17.3813 7.78272 17.6523C8.00537 18.0397 8.22917 18.4261 8.4541 18.8115C8.64111 19.1309 8.81738 19.1807 9.13477 19.002C9.52344 18.7832 9.91097 18.5625 10.2974 18.3398C10.5806 18.1772 10.6704 17.9644 10.5522 17.748C10.4341 17.5317 10.2002 17.4976 9.91748 17.6562C9.6167 17.8286 9.31543 18.001 8.99316 18.1846V18.1831Z" fill="white"/>
<path d="M15.6452 21.3378C15.2058 21.4999 14.7834 21.6659 14.3542 21.8036C14.2283 21.8348 14.0956 21.8222 13.9778 21.768C13.0959 21.3617 12.2107 20.9604 11.3459 20.519C10.9031 20.2929 10.9118 19.725 11.3191 19.4267C11.4226 19.351 11.5017 19.3388 11.6198 19.4198C12.0471 19.7128 12.4778 20.0058 12.9231 20.2709C13.0943 20.3783 13.2901 20.4402 13.4919 20.4506C14.0168 20.4506 14.5422 20.4179 15.0661 20.3764C15.2126 20.3642 15.2859 20.3852 15.3347 20.5292C15.4236 20.79 15.5305 21.0448 15.6452 21.3378Z" fill="white"/>
<path d="M11.9961 18.7351C12.3555 18.5285 12.6797 18.3366 13.0142 18.1545C13.0408 18.1424 13.0699 18.1367 13.0992 18.1378C13.1285 18.139 13.157 18.1471 13.1826 18.1613C13.7197 18.5939 14.2476 19.0329 14.7769 19.4719C14.812 19.5012 14.833 19.548 14.9014 19.6433C14.2783 19.6472 13.6987 19.9099 13.1436 19.4992C12.8506 19.2834 12.5332 19.1022 12.2275 18.904C12.1562 18.8571 12.0884 18.8024 11.9961 18.7351Z" fill="white"/>
<path d="M7.98899 9.32178C8.54953 9.33643 9.0549 9.50293 9.4802 9.88086C9.72141 10.0957 9.75608 10.3276 9.58029 10.5132C9.40451 10.6987 9.20334 10.6768 8.96115 10.4644C8.4592 10.0249 7.70041 9.98437 7.13059 10.3667C6.57737 10.7354 6.30295 11.4263 6.53391 11.998C6.62912 12.2344 6.8176 12.4453 7.00119 12.6299C7.20285 12.832 7.2761 13.0332 7.13987 13.2217C6.99631 13.4204 6.76682 13.4316 6.51975 13.2524C5.24387 12.3247 5.45139 10.3291 6.91574 9.59717C7.24094 9.43457 7.61594 9.37207 7.96799 9.26367L7.98899 9.32178Z" fill="#A50034"/>
<path d="M2.6193 7.22667C2.8112 7.55187 2.99381 7.85656 3.17155 8.16368C3.31803 8.41759 3.28092 8.63488 3.07731 8.75841C2.8737 8.88195 2.65299 8.81066 2.50846 8.56652C2.26465 8.15538 2.02474 7.74181 1.78874 7.32579C1.63102 7.04747 1.68473 6.85948 1.96305 6.69786C2.36182 6.46609 2.76221 6.23676 3.16422 6.00988C3.44254 5.85265 3.67399 5.89562 3.79362 6.11876C3.90836 6.33312 3.82438 6.53624 3.55338 6.69249C3.2443 6.87072 2.93815 7.04601 2.6193 7.22667Z" fill="#A50034"/>
<path d="M6.75448 4.84912C6.42538 5.03613 6.11678 5.21435 5.80575 5.38623C5.53963 5.53564 5.31209 5.49267 5.19491 5.27637C5.08211 5.06787 5.16024 4.86133 5.41414 4.71387C5.82137 4.47803 6.2286 4.24267 6.63875 4.01172C6.92196 3.85205 7.10457 3.8999 7.2701 4.1792C7.51034 4.58447 7.74715 4.99137 7.98055 5.3999C8.12215 5.64697 8.07821 5.87402 7.87996 5.99512C7.68172 6.11621 7.46053 6.04736 7.3116 5.7998C7.12508 5.48877 6.94344 5.17578 6.75448 4.84912Z" fill="#A50034"/>
<path d="M8.99219 18.185C9.31446 18.0015 9.61573 17.8291 9.91993 17.6582C10.2007 17.4995 10.4351 17.5347 10.5547 17.75C10.6743 17.9653 10.583 18.1792 10.2998 18.3418C9.91342 18.5644 9.52588 18.7851 9.13721 19.0039C8.81983 19.1826 8.64356 19.1328 8.45655 18.8135C8.23096 18.4284 8.00717 18.042 7.78516 17.6543C7.62989 17.3833 7.66114 17.1626 7.86914 17.0366C8.07715 16.9106 8.29297 16.9878 8.45069 17.2524C8.625 17.5522 8.79883 17.8545 8.99219 18.185Z" fill="#A50034"/>
</g>
<defs>
<clipPath id="clip0_552_12274">
<rect width="24.9561" height="25" fill="white" transform="translate(0.0429688)"/>
</clipPath>
</defs>
</svg>
