<svg width="29" height="25" viewBox="0 0 29 25" fill="none" xmlns="http://www.w3.org/2000/svg">
<g clip-path="url(#clip0_527_12123)">
<path d="M0.942433 12.6684C1.14064 11.9939 1.61691 11.6704 2.28163 11.4981C3.84373 11.0925 5.39262 10.6363 6.95128 10.214C7.17075 10.1566 7.25577 10.0503 7.29599 9.84004C7.53039 8.68699 7.77628 7.53566 8.0193 6.38434C8.03596 6.30563 8.06297 6.22922 8.08882 6.13672C9.10054 6.35044 10.0996 6.56071 11.097 6.77213C12.5873 7.08812 14.077 7.40869 15.5684 7.71721C15.7111 7.74133 15.8574 7.73309 15.9964 7.69308C17.0449 7.41501 18.0871 7.10822 19.1402 6.84797C19.7842 6.68825 20.4231 7.05364 20.6598 7.67527C20.7741 7.98294 20.8662 8.29838 20.9355 8.6192C20.9781 8.80706 21.0619 8.88979 21.2492 8.92829C23.3558 9.36721 25.4623 9.81036 27.5689 10.2577C27.6746 10.2801 27.7797 10.3071 27.9107 10.3376C27.7481 11.1057 27.5878 11.8612 27.4276 12.6172C27.1909 13.733 26.9582 14.8492 26.7169 15.9638C26.529 16.8491 25.8603 17.2674 24.9663 17.0789C24.3918 16.9566 23.8121 16.8376 23.1853 16.7072C23.3548 17.3208 23.5088 17.8884 23.6685 18.4549C23.8328 19.0369 23.7196 19.5516 23.2514 19.9394C23.0496 20.0948 22.8181 20.2072 22.5712 20.2698C18.2049 21.4889 13.8374 22.7023 9.4688 23.9099C8.2562 24.2466 7.0432 24.5825 5.82983 24.9176C4.86464 25.1847 4.18959 24.8148 3.92416 23.8576C2.94328 20.3148 1.96315 16.7721 0.983798 13.2297C0.972951 13.2055 0.958628 13.1831 0.941284 13.163L0.942433 12.6684ZM3.31518 17.4541C3.33873 17.5563 3.35425 17.6362 3.37608 17.7143C3.91535 19.6566 4.4554 21.599 4.99621 23.5416C5.0979 23.907 5.17201 23.949 5.54429 23.8456C11.109 22.3009 16.6732 20.7554 22.2368 19.2092C22.6459 19.0943 22.6763 19.0403 22.5626 18.6301C22.0286 16.7043 21.4947 14.7789 20.9608 12.8539C20.9373 12.7689 20.9074 12.685 20.8741 12.581L3.31518 17.4541ZM20.2249 10.2026C20.045 9.55451 19.8721 8.93346 19.7003 8.31183C19.5883 7.90967 19.528 7.87577 19.1189 7.9901C15.6569 8.94763 12.1949 9.90688 8.73285 10.8678C6.63319 11.4496 4.53353 12.0326 2.43387 12.6167C2.05125 12.723 2.01046 12.7965 2.11732 13.182C2.14949 13.2969 2.17994 13.4118 2.21211 13.5267C2.35746 14.0438 2.50339 14.558 2.65161 15.0825L20.2249 10.2026ZM22.6953 13.2061C22.6832 13.6542 22.8326 13.8536 23.1744 13.93C23.8052 14.0721 24.4372 14.2062 25.0703 14.3322C25.4277 14.4028 25.6937 14.2431 25.7735 13.895C25.9252 13.2389 26.0608 12.5788 26.1918 11.9175C26.2492 11.6147 26.1044 11.3573 25.8022 11.2855C25.1128 11.1201 24.4171 10.9764 23.7196 10.8472C23.4496 10.7972 23.2141 10.9264 23.1451 11.2005C22.9739 11.9083 22.828 12.6184 22.697 13.2061H22.6953Z" fill="#234F76"/>
<path d="M28.6628 7.36181L27.9148 10.3384L8.09113 6.13752L8.81501 3.16211L28.6628 7.36181Z" fill="white"/>
<path d="M8.815 3.16162C8.9414 2.40326 9.0247 1.66788 9.19418 0.949738C9.35964 0.251703 10.0674 -0.120582 10.808 0.0351112C13.478 0.596986 16.1471 1.16039 18.8156 1.72533C21.7965 2.35615 24.7777 2.98716 27.759 3.61836C28.6926 3.81484 29.1126 4.3974 28.9741 5.33443C28.8753 6.00145 28.7696 6.66673 28.6628 7.36132L8.815 3.16162Z" fill="#234F76"/>
<path d="M3.31519 17.4551L20.8741 12.582C20.9074 12.686 20.9373 12.7699 20.9608 12.8549C21.4951 14.7803 22.029 16.7057 22.5626 18.6311C22.6775 19.0413 22.6459 19.0965 22.2368 19.2102C16.6725 20.7564 11.1083 22.3019 5.5443 23.8465C5.17202 23.95 5.0979 23.908 4.99621 23.5426C4.45617 21.6 3.91613 19.6576 3.37608 17.7153C3.35425 17.6372 3.33932 17.5573 3.31519 17.4551ZM8.6823 21.4577C8.68341 21.4082 8.68111 21.3587 8.67541 21.3095C8.48294 20.6166 8.3037 19.9192 8.08998 19.2326C7.99346 18.9218 7.71884 18.8126 7.37873 18.9034C6.75365 19.0693 6.13012 19.2416 5.50811 19.4205C5.13582 19.5285 4.97209 19.7761 5.06458 20.1467C5.23004 20.8091 5.41561 21.468 5.61382 22.1213C5.70919 22.435 5.95853 22.5757 6.27853 22.4959C6.94956 22.3275 7.61658 22.1397 8.28071 21.9455C8.53982 21.8679 8.6823 21.676 8.6823 21.4577Z" fill="white"/>
<path d="M20.2249 10.202L2.64988 15.0796C2.50166 14.5551 2.35573 14.0397 2.21038 13.5238C2.1782 13.4089 2.14775 13.294 2.11558 13.1791C2.00872 12.7936 2.04951 12.7195 2.43214 12.6138C4.53218 12.0308 6.63184 11.4479 8.73112 10.865C12.1931 9.90514 15.6552 8.94589 19.1172 7.98722C19.5285 7.87231 19.5866 7.90564 19.6986 8.30895C19.8721 8.93287 20.045 9.5522 20.2249 10.202Z" fill="white"/>
<path d="M22.697 13.2062C22.828 12.6185 22.9739 11.9055 23.1492 11.1995C23.217 10.9254 23.4525 10.7973 23.7237 10.8461C24.4211 10.9754 25.1169 11.119 25.8063 11.2845C26.1085 11.3569 26.2544 11.6143 26.1958 11.9164C26.0671 12.5777 25.9292 13.2378 25.7776 13.8939C25.6977 14.2421 25.4329 14.4018 25.0744 14.3311C24.4405 14.2051 23.8085 14.0711 23.1785 13.929C22.8343 13.8537 22.685 13.6544 22.697 13.2062Z" fill="white"/>
<path d="M8.68232 21.4569C8.68232 21.674 8.54214 21.8671 8.28016 21.944C7.61602 22.1382 6.94901 22.3261 6.27798 22.4944C5.95682 22.5743 5.70863 22.4335 5.61326 22.1198C5.41506 21.466 5.22949 20.8076 5.06403 20.1452C4.97153 19.7747 5.13527 19.5271 5.50755 19.419C6.12918 19.2398 6.75272 19.0674 7.37817 18.902C7.71828 18.8112 7.9929 18.9204 8.08942 19.2312C8.30314 19.9177 8.48239 20.6152 8.67485 21.308C8.68077 21.3574 8.68326 21.4071 8.68232 21.4569Z" fill="#234F76"/>
<path d="M10.1513 16.7462L10.6552 16.6055L13.5525 20.2157L12.9044 20.3967L12.2104 19.4981L10.2571 20.0422L10.1347 21.1683L9.48663 21.3492L10.1513 16.7462ZM11.8749 19.0678L10.5857 17.4017L10.5742 17.4052L10.3231 19.5027L11.8749 19.0678Z" fill="#234F76"/>
<path d="M13.4117 16.3976L12.0903 16.7659L11.9449 16.2448L15.1421 15.3555L15.2892 15.8725L13.9678 16.2408L14.9652 19.8189L14.4096 19.974L13.4117 16.3976Z" fill="#234F76"/>
<path d="M15.6914 15.2002L16.5193 14.9704L18.6886 17.7114L18.7116 17.705L19.1385 14.2396L19.9664 14.0098L21.1091 18.1089L20.5535 18.2635L19.613 14.8962L19.6016 14.8997L19.1569 18.6553L18.7863 18.7581L16.463 15.7747L16.4515 15.7775L17.3914 19.1476L16.8353 19.3022L15.6914 15.2002Z" fill="#234F76"/>
</g>
<defs>
<clipPath id="clip0_527_12123">
<rect width="28.0576" height="25" fill="white" transform="translate(0.942444)"/>
</clipPath>
</defs>
</svg>
