<svg width="83" height="25" viewBox="0 0 83 25" fill="none" xmlns="http://www.w3.org/2000/svg">
<g clip-path="url(#clip0_527_12166)">
<path d="M18.631 8.14216L16.25 10.5231L16.131 10.6422L15.375 11.3981L14.8155 11.9636L14.0596 12.7195L13.9405 12.8326L13.6131 13.166L13.4941 13.2791L12.381 14.3922L12.2619 14.5053C11.9366 14.8301 11.5681 15.1085 11.1667 15.3326C10.9751 15.4398 10.7762 15.5333 10.5715 15.6124C10.1104 15.7911 9.62452 15.8975 9.13099 15.9279C8.83198 15.9546 8.53118 15.9546 8.23218 15.9279C7.57929 15.8569 6.94754 15.6544 6.37503 15.3326C6.11578 15.1984 5.87557 15.0303 5.66075 14.8326L5.52384 14.6957L1.18456 10.3148L1.09527 10.2255C1.01798 10.1419 0.950115 10.0501 0.89289 9.95168C0.743994 9.69927 0.665859 9.4114 0.666699 9.11835C0.66359 9.07277 0.66359 9.02702 0.666699 8.98144C0.666699 8.91001 0.666699 8.83858 0.666699 8.77311V8.69573C0.724881 8.47933 0.826105 8.27688 0.964318 8.10049C1.00084 8.05407 1.04063 8.01031 1.08337 7.96954L1.16075 7.89216L5.83337 3.27906L8.63099 0.487395C8.92866 0.189218 9.32855 0.0153346 9.74964 0.000966774C10.1707 -0.0134011 10.5815 0.132821 10.8988 0.410014L18.631 8.14216Z" fill="#005BAA"/>
<path d="M10.2202 18.5243C9.84374 18.523 9.47204 18.4397 9.13095 18.2803L8.24404 17.3993L8.02381 17.185L7.98809 17.1434L7.57738 16.7327L5.5119 14.6434L5.64881 14.7803C5.86511 14.9805 6.10736 15.1506 6.36904 15.2862C6.94155 15.608 7.5733 15.8105 8.22619 15.8815C8.52519 15.9082 8.82599 15.9082 9.125 15.8815C9.61853 15.8511 10.1044 15.7447 10.5655 15.566C10.7702 15.4869 10.9691 15.3934 11.1607 15.2862C11.5621 15.0621 11.9306 14.7837 12.2559 14.4588L12.375 14.3458L13.4881 13.2327L13.6071 13.1196L13.9345 12.7862L14.0536 12.6731L14.8095 11.9172L15.369 11.3517L16.1429 10.6374L16.2619 10.5184L21.0536 5.75647L23.0179 3.57194L23.125 3.47075C23.4151 3.18178 23.8078 3.01953 24.2173 3.01953C24.6267 3.01953 25.0195 3.18178 25.3095 3.47075L26.3929 4.55409H26.4286C26.1855 4.54394 25.9428 4.58359 25.7156 4.67059C25.4884 4.7576 25.2813 4.89012 25.1071 5.06004L21.4464 8.63147L21.4107 8.67313L15.0536 15.0065L12.7024 17.31L12.5595 17.4588C12.2395 17.7695 11.8718 18.0267 11.4702 18.2208C11.247 18.3291 11.011 18.4091 10.7679 18.4588C10.6286 18.488 10.4873 18.5059 10.3452 18.5124L10.2202 18.5243Z" fill="#ED1C24"/>
<path d="M32.2619 12.6014L32.1428 12.7204L26.9583 17.9823L21.5 23.5121C21.3304 23.6833 21.1472 23.8405 20.9524 23.9823L20.875 24.0359C19.9261 24.7139 18.7706 25.0402 17.6072 24.9588C16.4438 24.8773 15.3451 24.3931 14.5 23.5895L14.3571 23.5061L13.4226 22.5716L10.7857 19.9347L9.90475 19.0478L9.78571 18.9228C9.92733 18.9465 10.0707 18.9585 10.2143 18.9585H10.3393C10.5075 18.9514 10.6749 18.9295 10.8393 18.8931C11.1181 18.8378 11.3883 18.7457 11.6428 18.6192C12.0815 18.4015 12.4832 18.1163 12.8333 17.774L12.994 17.6014L15.0178 15.6133L21.9762 8.76805L22.0119 8.72043L25.4286 5.41091C25.6505 5.19815 25.9384 5.06745 26.2447 5.0404C26.5509 5.01334 26.8573 5.09155 27.1131 5.2621L27.9107 6.06567L32.2559 10.4169C32.2947 10.4537 32.3306 10.4935 32.3631 10.5359C32.6052 10.8315 32.7289 11.2065 32.7102 11.5881C32.6915 11.9698 32.5317 12.3309 32.2619 12.6014Z" fill="#ED1C24"/>
<path d="M15.4643 6.83951C15.4027 6.89641 15.322 6.928 15.2381 6.928C15.1543 6.928 15.0735 6.89641 15.0119 6.83951C14.523 6.34745 13.9419 5.9565 13.3019 5.689C12.6619 5.4215 11.9754 5.28268 11.2817 5.28047C9.88081 5.27601 8.53547 5.82825 7.5417 6.8157C6.54793 7.80316 5.98712 9.14495 5.98266 10.5459C5.97819 11.9468 6.53043 13.2922 7.51789 14.2859L9.12503 15.905C9.12674 15.9168 9.12674 15.9289 9.12503 15.9407C8.83398 15.9676 8.54108 15.9676 8.25003 15.9407L7.05956 14.7502C5.95449 13.6373 5.3368 12.1309 5.34238 10.5625C5.34797 8.99413 5.97636 7.4922 7.08932 6.38713C8.20228 5.28206 9.70865 4.66438 11.277 4.66996C12.8454 4.67554 14.3473 5.30393 15.4524 6.41689C15.5064 6.47337 15.5374 6.54785 15.5396 6.62591C15.5418 6.70398 15.515 6.78009 15.4643 6.83951Z" fill="#009EDB"/>
<path d="M17.9286 8.86272L17.4822 9.3032L16.7024 8.51748C16.6731 8.48818 16.6498 8.45339 16.6339 8.41509C16.618 8.37679 16.6099 8.33573 16.6099 8.29427C16.6099 8.25281 16.618 8.21175 16.6339 8.17345C16.6498 8.13515 16.6731 8.10036 16.7024 8.07106C16.7317 8.04172 16.7665 8.01845 16.8048 8.00257C16.8431 7.98669 16.8842 7.97852 16.9256 7.97852C16.9671 7.97852 17.0081 7.98669 17.0464 8.00257C17.0847 8.01845 17.1195 8.04172 17.1488 8.07106L17.9286 8.86272Z" fill="#009EDB"/>
<path d="M11.1905 15.3213C10.9992 15.4272 10.8002 15.5187 10.5953 15.5951L8.40478 13.4046C7.7406 12.7356 7.33078 11.8557 7.24601 10.9168C7.16125 9.97792 7.40688 9.03888 7.9405 8.26173C7.98861 8.19321 8.06155 8.14617 8.14381 8.1306C8.22607 8.11504 8.31116 8.13219 8.38097 8.1784C8.41506 8.20217 8.44411 8.23245 8.46646 8.26748C8.4888 8.30252 8.50401 8.34163 8.5112 8.38256C8.51839 8.42349 8.51742 8.46543 8.50836 8.50599C8.49929 8.54654 8.48229 8.5849 8.45836 8.61887C8.00853 9.27482 7.80165 10.0671 7.87336 10.8593C7.94508 11.6514 8.2909 12.3937 8.85121 12.9582L11.1905 15.3213Z" fill="#009EDB"/>
<path d="M16.5953 10.1786L16.2679 10.506L16.1607 10.6131L13.7024 8.13098C13.2526 7.6791 12.6852 7.36213 12.0646 7.21591C11.4439 7.0697 10.7948 7.10007 10.1905 7.3036C10.1501 7.32227 10.1063 7.3322 10.0618 7.33274C10.0174 7.33327 9.97327 7.3244 9.93247 7.3067C9.89167 7.289 9.85507 7.26287 9.82508 7.23003C9.79509 7.19719 9.77238 7.15838 9.75844 7.11615C9.74451 7.07391 9.73966 7.02921 9.74421 6.98497C9.74877 6.94073 9.76263 6.89795 9.78488 6.85945C9.80713 6.82094 9.83727 6.78757 9.87332 6.76153C9.90938 6.73549 9.95053 6.71737 9.99408 6.70836C10.7066 6.47475 11.4702 6.44459 12.1989 6.62125C12.9276 6.79791 13.5926 7.1744 14.1191 7.70836L16.5953 10.1786Z" fill="#009EDB"/>
<path d="M15.2798 11.4996L14.8334 11.9461L12.3631 9.45797C12.0656 9.21406 11.6878 9.08973 11.3035 9.10925C10.9193 9.12877 10.5561 9.29073 10.2847 9.56354C10.0134 9.83635 9.85344 10.2004 9.83602 10.5848C9.8186 10.9692 9.94499 11.3463 10.1905 11.6425L11.7798 13.2437C11.839 13.3029 11.8723 13.3832 11.8723 13.4669C11.8723 13.5506 11.839 13.6309 11.7798 13.6901C11.7206 13.7493 11.6403 13.7826 11.5566 13.7826C11.4729 13.7826 11.3926 13.7493 11.3334 13.6901L9.71434 12.0889C9.33655 11.672 9.13417 11.1255 9.14936 10.5631C9.16454 10.0007 9.39612 9.4658 9.79586 9.0699C10.1956 8.674 10.7327 8.44759 11.2952 8.43783C11.8577 8.42807 12.4023 8.63571 12.8155 9.0175L15.2798 11.4996Z" fill="#009EDB"/>
<path d="M13.9583 12.8149L13.631 13.1483L13.5238 13.2495L11.0417 10.7733C10.9825 10.7141 10.9492 10.6338 10.9492 10.55C10.9492 10.4663 10.9825 10.386 11.0417 10.3268C11.1009 10.2676 11.1812 10.2344 11.2649 10.2344C11.3486 10.2344 11.4289 10.2676 11.4881 10.3268L13.9583 12.8149Z" fill="#009EDB"/>
<path fill-rule="evenodd" clip-rule="evenodd" d="M76.0715 12.678L72.3929 7.4042L72.0238 7.06492H75.6667L78.125 11.0471L78.3215 10.8863L79.8036 8.67801C79.9893 8.43676 80.0723 8.13192 80.0344 7.82982C79.9965 7.52772 79.8408 7.25281 79.6012 7.06492H83.0238L79.0655 12.6721V16.7435L79.7619 17.5768H75.4881L76.0834 16.7554C76.0834 15.4042 76.0357 14.0292 76.0834 12.678H76.0715ZM66.0893 7.06492C66.3252 7.30922 66.472 7.62583 66.506 7.96373C66.5294 8.16548 66.5028 8.3699 66.4286 8.55897L63.6965 16.4875C63.5158 16.8859 63.2496 17.2395 62.9167 17.5233H65.8929C65.6743 17.3441 65.5266 17.093 65.4762 16.8149C65.4225 16.6201 65.4225 16.4145 65.4762 16.2197L66.0715 14.3387H69.5417L70.0834 15.7911C70.138 15.9365 70.1721 16.0887 70.1846 16.2435C70.2199 16.4906 70.187 16.7427 70.0894 16.9724C69.9919 17.2022 69.8333 17.4009 69.631 17.5471H74.3036C73.8429 17.1763 73.4639 16.7142 73.1905 16.1899L69.7738 7.03516L66.0893 7.06492ZM69.0655 13.0173H66.5834L67.7738 9.58873L69.0536 13.0173H69.0655ZM56.6191 7.07087H61.8274C62.5831 7.07244 63.3074 7.37334 63.8418 7.9077C64.3761 8.44206 64.677 9.16636 64.6786 9.92206V10.2733C64.6693 11.0217 64.3666 11.7366 63.8356 12.2643C63.3046 12.7919 62.5878 13.0901 61.8393 13.0947L60.5357 13.1363C61.0239 12.87 61.4167 12.4577 61.6589 11.9571C61.9012 11.4566 61.9809 10.8928 61.8869 10.3447C61.7857 9.46373 61.3334 8.61849 60.5774 8.60063H60.1012V16.4042C60.099 16.5296 60.1365 16.6525 60.2084 16.7554C60.3511 16.9792 60.5103 17.1921 60.6846 17.3923L60.8215 17.559H56.7738L56.9465 17.3268C57.0733 17.1598 57.1792 16.9779 57.2619 16.7852C57.3142 16.6734 57.3407 16.5514 57.3393 16.428V8.0292C57.3215 7.58873 56.8869 7.33873 56.6191 7.07087Z" fill="#005BAA"/>
<path fill-rule="evenodd" clip-rule="evenodd" d="M34.6846 7.01758H37.9524L40.6965 14.8807L43.0239 8.36877C43.0663 8.1789 43.0321 7.97996 42.9286 7.8152C42.8036 7.54734 42.6667 7.29139 42.5358 7.02948H44.9762C44.8334 7.55925 44.6191 8.14258 44.4346 8.67829L41.2798 17.8569C40.3327 17.7053 39.4464 17.2931 38.7203 16.6664C38.2325 16.1416 37.8792 15.5064 37.6905 14.8152L35.0536 7.79734C34.9488 7.52919 34.8255 7.26864 34.6846 7.01758ZM47.7322 10.714V16.3331C47.7322 16.5592 47.7858 16.6009 47.9286 16.7854L48.5715 17.6247H45.4941L46.012 16.8331C46.1389 16.6792 46.2065 16.4849 46.2024 16.2854V8.42234L45.3393 7.01758H48.5298L53.6905 13.6902V8.39258C53.6962 8.19208 53.6308 7.99603 53.506 7.83901C53.3334 7.57115 53.1489 7.3152 52.9762 7.05329H56.0239L55.4286 7.86877C55.2858 8.04734 55.2322 8.08901 55.2322 8.32115V17.8569C54.6087 17.8245 53.9995 17.6585 53.4459 17.3698C52.8923 17.0812 52.4073 16.6769 52.0239 16.1842L47.7322 10.714Z" fill="#ED1C24"/>
<path d="M37.9524 21.1659C37.9524 21.5825 38.131 21.8028 38.5893 21.8028C38.7682 21.8028 38.9457 21.7705 39.1131 21.7075C39.1965 21.6718 39.2203 21.7075 39.2203 21.7849V21.8325C39.2203 21.904 39.2203 21.9337 39.1131 21.9754C38.9484 22.04 38.7722 22.0704 38.5953 22.0647C37.9643 22.0647 37.6667 21.7849 37.6667 21.1659V20.5706C37.649 20.4451 37.6607 20.3172 37.7007 20.1969C37.7407 20.0766 37.8081 19.9672 37.8974 19.8772C37.9868 19.7873 38.0957 19.7193 38.2158 19.6785C38.3358 19.6377 38.4637 19.6252 38.5893 19.6421C38.7623 19.6432 38.9337 19.6754 39.0953 19.7373C39.1786 19.7671 39.1965 19.8028 39.1965 19.8742V19.9218C39.1965 20.0111 39.1607 20.0349 39.0834 20.0052C38.9235 19.9368 38.7513 19.9023 38.5774 19.904C38.1369 19.904 37.9822 20.1182 37.9822 20.5825L37.9524 21.1659Z" fill="#009EDB"/>
<path d="M38.5952 22.0715C37.9583 22.0715 37.6607 21.7798 37.6607 21.1667V20.5715C37.6428 20.4454 37.6545 20.3168 37.6949 20.196C37.7352 20.0752 37.8031 19.9654 37.8932 19.8754C37.9832 19.7853 38.093 19.7174 38.2138 19.6771C38.3346 19.6367 38.4632 19.625 38.5893 19.6429C38.7623 19.644 38.9337 19.6763 39.0952 19.7381C39.1845 19.7738 39.2024 19.8096 39.2024 19.881V19.9286C39.2024 19.9762 39.2024 20.006 39.2024 20.0179C39.2024 20.0298 39.1548 20.0179 39.1131 20.0179C38.952 19.9544 38.7803 19.9221 38.6071 19.9227C38.1786 19.9227 38.0119 20.131 38.0119 20.5953V21.1905C38.0119 21.625 38.2024 21.8215 38.6429 21.8215C38.82 21.8238 38.996 21.7915 39.1607 21.7262C39.2083 21.7262 39.2321 21.7262 39.25 21.7262C39.2679 21.7262 39.25 21.7679 39.25 21.8155V21.8631C39.25 21.9405 39.25 21.9703 39.1429 22.006C38.968 22.0704 38.7804 22.0928 38.5952 22.0715ZM38.5952 19.6488C38.4688 19.6305 38.3398 19.6421 38.2186 19.6828C38.0974 19.7234 37.9875 19.792 37.8978 19.8829C37.808 19.9739 37.7408 20.0847 37.7017 20.2063C37.6626 20.328 37.6526 20.4571 37.6726 20.5834V21.1786C37.6726 21.7738 37.9702 22.0715 38.6012 22.0715C38.7764 22.0814 38.9516 22.0509 39.1131 21.9822C39.2024 21.9465 39.2202 21.9167 39.2202 21.8453V21.7858C39.2202 21.7381 39.2202 21.7143 39.2202 21.7024C39.2202 21.6905 39.1845 21.7024 39.1429 21.7024C38.976 21.7677 38.7982 21.8 38.619 21.7977C38.1786 21.7977 37.9762 21.6012 37.9762 21.1608V20.5655C37.9762 20.0953 38.1726 19.8869 38.6071 19.8869C38.7824 19.8841 38.9565 19.9165 39.119 19.9822C39.1548 19.9822 39.1786 19.9822 39.1964 19.9822C39.2023 19.9691 39.2054 19.9549 39.2054 19.9405C39.2054 19.9261 39.2023 19.9119 39.1964 19.8988V19.8512C39.1964 19.7858 39.1964 19.75 39.0893 19.7143C38.9284 19.66 38.7589 19.6358 38.5893 19.6429L38.5952 19.6488Z" fill="#009EDB"/>
<path d="M39.6072 19.6425C39.6072 19.5413 39.6072 19.5234 39.7203 19.5234H39.7619C39.8572 19.5234 39.875 19.5234 39.875 19.6425V20.4818C39.9441 20.3924 40.0354 20.3228 40.1399 20.2799C40.2444 20.2371 40.3584 20.2225 40.4703 20.2377C40.8929 20.2377 41.1429 20.4163 41.1429 20.833V21.9044C41.1429 21.9996 41.1429 22.0175 41.0298 22.0175H40.9822C40.8869 22.0175 40.8691 22.0175 40.8691 21.9044V20.8746C40.8691 20.5889 40.7441 20.4639 40.4048 20.4639C40.0655 20.4639 39.9048 20.6008 39.9048 20.9342V21.9163C39.9048 22.0115 39.9048 22.0294 39.7917 22.0294H39.75C39.6608 22.0294 39.6369 22.0294 39.6369 21.9163L39.6072 19.6425Z" fill="#009EDB"/>
<path d="M41 22.0235H40.9524C40.8572 22.0235 40.8393 22.0235 40.8393 21.9045V20.8747C40.8393 20.5831 40.7024 20.47 40.375 20.47C40.0476 20.47 39.881 20.6069 39.881 20.9342V21.9164C39.881 22.0116 39.881 22.0354 39.7619 22.0354H39.7202C39.625 22.0354 39.6012 22.0354 39.6012 21.9164V19.6426C39.6012 19.5354 39.6012 19.5176 39.7202 19.5176H39.7619C39.8572 19.5176 39.881 19.5176 39.881 19.6426V20.47C39.9507 20.3817 40.0423 20.3132 40.1468 20.2714C40.2512 20.2296 40.3648 20.216 40.4762 20.2319C40.9226 20.2319 41.1488 20.4461 41.1488 20.8747V21.9461C41.1429 22.0235 41.1012 22.0235 41 22.0235ZM40.375 20.4461C40.7083 20.4461 40.8452 20.5711 40.8452 20.8628V21.9045C40.8452 21.9997 40.8452 22.0116 40.9524 22.0116H41C41.0952 22.0116 41.1131 22.0116 41.1131 21.9045V20.8331C41.1131 20.4104 40.8869 20.2021 40.4464 20.2021C40.3343 20.1815 40.2185 20.1935 40.113 20.2368C40.0075 20.2801 39.9166 20.3527 39.8512 20.4461V19.6426C39.8512 19.5473 39.8512 19.5295 39.7441 19.5295H39.7024C39.6131 19.5295 39.5893 19.5295 39.5893 19.6426V21.9461C39.5893 22.0414 39.5893 22.0533 39.7024 22.0533H39.7441C39.8393 22.0533 39.8512 22.0533 39.8512 21.9461V20.9342C39.8691 20.6009 40.0238 20.4581 40.375 20.4581V20.4461Z" fill="#009EDB"/>
<path d="M41.5 21.3042V20.9709C41.5 20.4649 41.7679 20.209 42.2976 20.209C42.8274 20.209 43.0893 20.4709 43.0893 20.9709V21.3042C43.0893 21.8161 42.8274 22.0661 42.2976 22.0661C41.7679 22.0661 41.5 21.8042 41.5 21.3042ZM42.8155 20.9709C42.8155 20.6197 42.6905 20.4649 42.2976 20.4649C41.9048 20.4649 41.7738 20.6197 41.7738 20.9709V21.3042C41.7738 21.6554 41.9048 21.8102 42.2976 21.8102C42.6905 21.8102 42.8155 21.6554 42.8155 21.3042V20.9709Z" fill="#009EDB"/>
<path d="M42.2976 22.0722C41.75 22.0722 41.5 21.8282 41.5 21.3044V20.971C41.4898 20.8636 41.502 20.7553 41.5358 20.6528C41.5696 20.5504 41.6243 20.456 41.6965 20.3758C41.8638 20.2397 42.0764 20.1716 42.2917 20.1853C42.8334 20.1853 43.0834 20.4294 43.0834 20.9532V21.2865C43.0995 21.3934 43.0903 21.5026 43.0565 21.6053C43.0227 21.708 42.9653 21.8013 42.8888 21.8777C42.8124 21.9541 42.7191 22.0116 42.6164 22.0454C42.5137 22.0791 42.4045 22.0883 42.2976 22.0722ZM42.2976 20.2151C42.0829 20.1979 41.8698 20.264 41.7024 20.3996C41.629 20.479 41.5735 20.5732 41.5396 20.6759C41.5057 20.7786 41.4942 20.8874 41.506 20.9948V21.3282C41.506 21.846 41.756 22.0841 42.2976 22.0841C42.5126 22.1032 42.7264 22.0369 42.8929 21.8996C42.9663 21.8202 43.0218 21.726 43.0557 21.6233C43.0896 21.5206 43.101 21.4119 43.0893 21.3044V20.971C43.0834 20.4532 42.8334 20.2389 42.2976 20.2389V20.2151ZM42.2976 21.8163C41.9167 21.8163 41.7679 21.6734 41.7679 21.3044V20.971C41.7679 20.602 41.9107 20.4591 42.2976 20.4591C42.6846 20.4591 42.8215 20.602 42.8215 20.971V21.3044C42.8215 21.6794 42.6786 21.8163 42.2976 21.8163ZM42.2976 20.471C41.9167 20.471 41.7798 20.602 41.7798 20.971V21.3044C41.7798 21.6675 41.9226 21.8044 42.2976 21.8044C42.6726 21.8044 42.8155 21.6734 42.8155 21.3044V20.971C42.8155 20.602 42.6726 20.471 42.2976 20.471Z" fill="#009EDB"/>
<path d="M44.4048 20.9575C44.4048 20.4813 44.6607 20.2075 45.2143 20.2075C45.3215 20.204 45.4284 20.2202 45.5298 20.2551C45.6191 20.2551 45.6429 20.3087 45.6429 20.392V20.4277C45.6429 20.517 45.6429 20.5468 45.5298 20.517C45.4309 20.48 45.3259 20.4618 45.2203 20.4634C44.8155 20.4634 44.6786 20.6242 44.6786 20.9634V21.3146C44.6786 21.6777 44.8393 21.8087 45.2738 21.8087C45.383 21.8126 45.4919 21.7965 45.5953 21.7611C45.6786 21.7313 45.7024 21.7611 45.7024 21.8503V21.8861C45.7024 21.9634 45.7024 21.9932 45.5893 22.017C45.4797 22.0519 45.365 22.068 45.25 22.0646C44.6965 22.0646 44.4345 21.8265 44.4345 21.3146L44.4048 20.9575Z" fill="#009EDB"/>
<path d="M45.2203 22.0722C45.0061 22.0847 44.7946 22.0191 44.625 21.8877C44.5502 21.809 44.4934 21.715 44.4584 21.6123C44.4235 21.5095 44.4113 21.4004 44.4226 21.2924V20.9353C44.4162 20.834 44.4308 20.7325 44.4657 20.6372C44.5005 20.5419 44.5548 20.4549 44.625 20.3817C44.7891 20.2386 45.0029 20.1658 45.2203 20.1793C45.3273 20.1783 45.4338 20.1944 45.5357 20.2269C45.631 20.2269 45.6488 20.2865 45.6488 20.3698V20.4055C45.6488 20.4591 45.6488 20.4888 45.6488 20.5008C45.6351 20.508 45.6198 20.5119 45.6042 20.5119C45.5886 20.5119 45.5733 20.508 45.5595 20.5008C45.4594 20.4691 45.355 20.453 45.25 20.4531C44.8631 20.4531 44.7084 20.596 44.7084 20.9472V21.2984C44.7084 21.6555 44.8631 21.7865 45.3036 21.7865C45.4128 21.7909 45.5218 21.7748 45.625 21.7388C45.6667 21.7388 45.6905 21.7388 45.7084 21.7388C45.7262 21.7388 45.7381 21.7805 45.7381 21.8341V21.8698C45.7381 21.9531 45.7381 21.9829 45.6191 22.0067C45.4911 22.0522 45.356 22.0743 45.2203 22.0722ZM45.2203 20.215C44.6905 20.215 44.4167 20.471 44.4167 20.9591V21.3162C44.4167 21.8281 44.6726 22.0603 45.2262 22.0603C45.3407 22.0628 45.455 22.0487 45.5655 22.0186C45.6548 22.0186 45.6786 21.965 45.6786 21.8877V21.8519C45.6786 21.8043 45.6786 21.7746 45.6786 21.7627C45.6786 21.7508 45.6369 21.7627 45.6012 21.7627C45.4952 21.7952 45.3848 21.8113 45.2738 21.8103C44.8631 21.8103 44.6786 21.6674 44.6786 21.3103V20.9591C44.6786 20.6019 44.8393 20.4531 45.2262 20.4531C45.3318 20.452 45.4367 20.4702 45.5357 20.5067C45.5774 20.5067 45.6012 20.5067 45.6191 20.5067C45.6369 20.5067 45.6191 20.465 45.6191 20.4174V20.3817C45.6191 20.3043 45.6191 20.2746 45.5119 20.2448C45.4135 20.2285 45.3133 20.2265 45.2143 20.2388L45.2203 20.215Z" fill="#009EDB"/>
<path d="M46.2024 21.387C46.2024 21.6727 46.3215 21.8096 46.6845 21.8096C47.0476 21.8096 47.1667 21.6787 47.1667 21.387V20.3572C47.1667 20.268 47.1667 20.2441 47.2857 20.2441H47.3215C47.4226 20.2441 47.4405 20.2441 47.4405 20.3572V21.387C47.4405 21.8275 47.2203 22.0656 46.6845 22.0656C46.1488 22.0656 45.9048 21.8394 45.9048 21.387V20.3572C45.9048 20.268 45.9048 20.2441 46.0238 20.2441H46.0595C46.1607 20.2441 46.1786 20.2441 46.1786 20.3572L46.2024 21.387Z" fill="#009EDB"/>
<path d="M46.6845 22.0716C46.1845 22.0716 45.9286 21.8395 45.9286 21.3871V20.3573C45.9286 20.268 45.9286 20.2383 46.0417 20.2383H46.0834C46.1845 20.2383 46.2024 20.2383 46.2024 20.3573V21.3871C46.2024 21.6907 46.3393 21.8038 46.6845 21.8038C47.0298 21.8038 47.1607 21.6907 47.1607 21.3871V20.3573C47.1607 20.268 47.1607 20.2383 47.2857 20.2383H47.3214C47.4286 20.2383 47.4405 20.2383 47.4405 20.3573V21.3871C47.4489 21.4788 47.4379 21.5713 47.4082 21.6585C47.3784 21.7457 47.3306 21.8256 47.2679 21.893C47.1033 22.0247 46.8946 22.0886 46.6845 22.0716ZM46.0417 20.2383C45.9584 20.2383 45.9345 20.2383 45.9345 20.3454V21.3752C45.9265 21.4679 45.9388 21.5612 45.9707 21.6486C46.0026 21.736 46.0532 21.8154 46.1191 21.8811C46.2882 22.0121 46.5018 22.0719 46.7143 22.0478C46.82 22.0595 46.927 22.0503 47.0291 22.0207C47.1312 21.9911 47.2265 21.9416 47.3095 21.8752C47.3725 21.8091 47.4204 21.7302 47.4502 21.644C47.48 21.5577 47.4909 21.466 47.4822 21.3752V20.3573C47.4822 20.274 47.4822 20.2502 47.3691 20.2502H47.3334C47.2441 20.2502 47.2203 20.2502 47.2203 20.3573V21.3871C47.2203 21.6966 47.0833 21.8157 46.7322 21.8157C46.381 21.8157 46.2441 21.6966 46.2441 21.3871V20.3573C46.2441 20.274 46.2441 20.2502 46.131 20.2502L46.0417 20.2383Z" fill="#009EDB"/>
<path d="M47.8036 21.3027V20.9694C47.8036 20.4634 48.0655 20.2075 48.6012 20.2075C49.1369 20.2075 49.3869 20.4694 49.3869 20.9694V21.3027C49.3869 21.8146 49.125 22.0646 48.6012 22.0646C48.0774 22.0646 47.8036 21.8027 47.8036 21.3027ZM49.1191 20.9694C49.1191 20.6182 48.9941 20.4635 48.6012 20.4635C48.2083 20.4635 48.0714 20.6182 48.0714 20.9694V21.3027C48.0714 21.6539 48.2083 21.8087 48.6012 21.8087C48.9941 21.8087 49.1191 21.6539 49.1191 21.3027V20.9694ZM48.3453 19.7313C48.4286 19.6004 48.4822 19.5527 48.6012 19.5527C48.7203 19.5527 48.7679 19.5885 48.8572 19.7313L48.9941 19.9456C49.0357 20.0111 48.9941 20.0289 48.9464 20.0289C48.9159 20.0339 48.8845 20.0284 48.8575 20.0133C48.8304 19.9981 48.8094 19.9743 48.7976 19.9456L48.7143 19.8027C48.6607 19.7015 48.6012 19.7015 48.5417 19.8027L48.4643 19.9456C48.4518 19.9736 48.4305 19.9969 48.4037 20.0119C48.3769 20.0269 48.346 20.0329 48.3155 20.0289H48.2798C48.2083 20.0289 48.1964 20.0289 48.2381 19.9456L48.3453 19.7313ZM48.4762 22.3861C48.5014 22.3616 48.5332 22.3451 48.5677 22.3386C48.6022 22.3321 48.6379 22.3359 48.6702 22.3495C48.7025 22.3632 48.7301 22.3861 48.7496 22.4153C48.769 22.4446 48.7793 22.4789 48.7793 22.514C48.7793 22.5492 48.769 22.5835 48.7496 22.6127C48.7301 22.642 48.7025 22.6649 48.6702 22.6786C48.6379 22.6922 48.6022 22.696 48.5677 22.6895C48.5332 22.683 48.5014 22.6665 48.4762 22.642C48.4591 22.6254 48.4455 22.6055 48.4362 22.5835C48.427 22.5615 48.4222 22.5379 48.4222 22.514C48.4222 22.4902 48.427 22.4666 48.4362 22.4446C48.4455 22.4226 48.4591 22.4027 48.4762 22.3861Z" fill="#009EDB"/>
<path d="M48.6012 22.6955C48.5543 22.694 48.5098 22.6747 48.4766 22.6415C48.4434 22.6084 48.4241 22.5638 48.4226 22.5169C48.4218 22.4926 48.4262 22.4683 48.4354 22.4457C48.4446 22.4231 48.4585 22.4028 48.4762 22.386C48.4919 22.3685 48.5112 22.3546 48.5328 22.3453C48.5544 22.3361 48.5777 22.3317 48.6012 22.3324C48.6502 22.3324 48.6971 22.3518 48.7317 22.3864C48.7663 22.4211 48.7857 22.468 48.7857 22.5169C48.7865 22.5404 48.7821 22.5638 48.7728 22.5854C48.7636 22.607 48.7497 22.6263 48.7322 22.6419C48.7149 22.659 48.6945 22.6726 48.672 22.6818C48.6496 22.691 48.6255 22.6956 48.6012 22.6955ZM48.6012 22.3384C48.5778 22.3384 48.5547 22.3431 48.5332 22.3523C48.5117 22.3615 48.4923 22.375 48.4762 22.3919C48.4447 22.4258 48.4277 22.4707 48.4286 22.5169C48.4288 22.563 48.4457 22.6074 48.4762 22.6419C48.5103 22.6733 48.5549 22.6907 48.6012 22.6907C48.6475 22.6907 48.6921 22.6733 48.7262 22.6419C48.7431 22.6258 48.7566 22.6064 48.7658 22.5849C48.775 22.5634 48.7798 22.5403 48.7798 22.5169C48.7783 22.47 48.759 22.4255 48.7258 22.3923C48.6927 22.3591 48.6481 22.3398 48.6012 22.3384ZM48.6012 22.0705C48.0536 22.0705 47.7976 21.8265 47.7976 21.3026V20.9693C47.7882 20.8615 47.8013 20.7529 47.8362 20.6504C47.871 20.5479 47.9268 20.4538 48 20.3741C48.1668 20.2369 48.3798 20.1687 48.5953 20.1836C49.1369 20.1836 49.3869 20.4276 49.3869 20.9515V21.2848C49.403 21.3917 49.3938 21.5009 49.3601 21.6035C49.3263 21.7062 49.2688 21.7995 49.1924 21.876C49.116 21.9524 49.0227 22.0098 48.92 22.0436C48.8173 22.0774 48.7081 22.0866 48.6012 22.0705ZM48.6012 20.2134C48.3863 20.1949 48.1728 20.2611 48.006 20.3979C47.9326 20.4773 47.877 20.5715 47.8432 20.6742C47.8093 20.7769 47.7978 20.8856 47.8095 20.9931V21.3265C47.8095 21.8443 48.0595 22.0824 48.6012 22.0824C48.816 22.1002 49.0294 22.0341 49.1964 21.8979C49.2699 21.8185 49.3254 21.7243 49.3593 21.6216C49.3932 21.5189 49.4046 21.4101 49.3929 21.3026V20.9693C49.3869 20.4515 49.1369 20.2372 48.6012 20.2372V20.2134ZM48.6012 21.8145C48.2203 21.8145 48.0714 21.6717 48.0714 21.3026V20.9693C48.0714 20.6003 48.2143 20.4574 48.6012 20.4574C48.9881 20.4574 49.1191 20.6003 49.1191 20.9693V21.3026C49.1191 21.6776 48.9822 21.8145 48.6012 21.8145ZM48.6012 20.4693C48.2203 20.4693 48.0774 20.6003 48.0774 20.9693V21.3026C48.0774 21.6657 48.2262 21.8026 48.6012 21.8026C48.9762 21.8026 49.1131 21.6717 49.1131 21.3026V20.9693C49.1131 20.6003 48.9762 20.4693 48.6012 20.4693ZM48.9465 20.0348C48.9151 20.0394 48.8832 20.033 48.8561 20.0167C48.829 20.0005 48.8083 19.9753 48.7976 19.9455L48.7143 19.8086C48.7143 19.755 48.6548 19.7312 48.631 19.7312C48.631 19.7312 48.5715 19.7312 48.5476 19.8086L48.4643 19.9455C48.4536 19.9753 48.433 20.0005 48.4059 20.0167C48.3787 20.033 48.3468 20.0394 48.3155 20.0348H48.2798C48.2381 20.0348 48.2203 20.0348 48.2143 20.0348C48.2084 20.0348 48.2143 19.9991 48.2143 19.9693L48.3512 19.755C48.4405 19.6241 48.4881 19.5765 48.6131 19.5765C48.7381 19.5765 48.7798 19.6122 48.8691 19.755L49.006 19.9693C49.006 19.9991 49.0417 20.0229 49.006 20.0348C48.9703 20.0467 48.9881 20.0348 48.9465 20.0348ZM48.6012 19.7253C48.6012 19.7253 48.6607 19.7253 48.6905 19.8026L48.7738 19.9455C48.7844 19.9737 48.8044 19.9974 48.8304 20.0126C48.8565 20.0278 48.8869 20.0335 48.9167 20.0288C48.9584 20.0288 48.9762 20.0288 48.9822 20.0288C48.9881 20.0288 48.9822 20.0288 48.9822 19.9693L48.881 19.7372C48.7976 19.5943 48.7441 19.5586 48.631 19.5586C48.5179 19.5586 48.4643 19.6003 48.375 19.7372L48.2381 19.9515C48.2381 19.9515 48.2381 19.9991 48.2381 20.011C48.2381 20.0229 48.2381 20.011 48.2976 20.011H48.2857C48.3152 20.0136 48.3449 20.007 48.3704 19.9921C48.396 19.9772 48.4164 19.9546 48.4286 19.9276L48.5119 19.7848C48.5417 19.7491 48.5714 19.7253 48.6012 19.7253Z" fill="#009EDB"/>
<path d="M49.7381 20.9575C49.7381 20.4813 49.9941 20.2075 50.5476 20.2075C50.6548 20.204 50.7617 20.2202 50.8631 20.2551C50.9524 20.2551 50.9762 20.3087 50.9762 20.392V20.4277C50.9762 20.517 50.9762 20.5468 50.8631 20.517C50.7643 20.4794 50.6592 20.4612 50.5536 20.4634C50.1488 20.4634 50.0119 20.6242 50.0119 20.9634V21.3146C50.0119 21.6777 50.1726 21.8087 50.5774 21.8087C50.6885 21.8122 50.7993 21.796 50.9048 21.7611C50.9881 21.7313 51.0119 21.7611 51.0119 21.8503V21.8861C51.0119 21.9634 51.0119 21.9932 50.8929 22.017C50.7853 22.052 50.6725 22.0681 50.5595 22.0646C50 22.0646 49.7381 21.8265 49.7381 21.3146V20.9575Z" fill="#009EDB"/>
<path d="M50.5596 22.0722C50.3451 22.087 50.1328 22.0211 49.9643 21.8877C49.8881 21.8099 49.8304 21.7161 49.7954 21.6131C49.7603 21.51 49.7489 21.4005 49.7619 21.2924V20.9353C49.7547 20.8344 49.7684 20.7332 49.8022 20.6379C49.836 20.5427 49.8892 20.4554 49.9584 20.3817C50.1224 20.2386 50.3363 20.1658 50.5536 20.1793C50.6625 20.1788 50.7709 20.1948 50.875 20.2269C50.9643 20.2269 50.9822 20.2865 50.9822 20.3698V20.4055C50.9822 20.4591 50.9822 20.4888 50.9822 20.5008C50.9684 20.508 50.9531 20.5119 50.9375 20.5119C50.922 20.5119 50.9066 20.508 50.8929 20.5008C50.7928 20.4691 50.6884 20.453 50.5834 20.4531C50.2024 20.4531 50.0417 20.596 50.0417 20.9472V21.2984C50.0417 21.6555 50.1965 21.7865 50.6072 21.7865C50.7164 21.7909 50.8254 21.7748 50.9286 21.7388C50.9427 21.7328 50.9579 21.7297 50.9732 21.7297C50.9886 21.7297 51.0038 21.7328 51.0179 21.7388C51.0179 21.7388 51.0179 21.7805 51.0179 21.8341V21.8698C51.0179 21.9531 51.0179 21.9829 50.9048 22.0067C50.7936 22.0455 50.6772 22.0676 50.5596 22.0722ZM50.5596 20.215C50.0357 20.215 49.756 20.471 49.756 20.9591V21.3162C49.756 21.8281 50.0119 22.0603 50.5715 22.0603C50.684 22.0622 50.7962 22.0482 50.9048 22.0186C50.9941 22.0186 51.0179 21.965 51.0179 21.8877V21.8519C51.0179 21.8043 51.0179 21.7746 51.0179 21.7627C51.0179 21.7508 50.9762 21.7627 50.9405 21.7627C50.8345 21.7952 50.724 21.8113 50.6131 21.8103C50.2024 21.8103 50.0179 21.6674 50.0179 21.3103V20.9591C50.0179 20.6019 50.1786 20.4531 50.5655 20.4531C50.673 20.452 50.7799 20.4701 50.881 20.5067C50.9226 20.5067 50.9465 20.5067 50.9584 20.5067C50.9703 20.5067 50.9584 20.465 50.9584 20.4174V20.3817C50.9584 20.3043 50.9584 20.2746 50.8512 20.2448C50.7509 20.2276 50.6486 20.2256 50.5476 20.2388L50.5596 20.215Z" fill="#009EDB"/>
<path d="M52.2084 21.8335C52.2084 21.7443 52.2084 21.7204 52.3274 21.7383C52.4996 21.7886 52.6779 21.8146 52.8572 21.8157C53.1369 21.8157 53.25 21.7621 53.25 21.6074C53.25 21.4526 53.1905 21.4288 53.0179 21.3454L52.5774 21.1371C52.3453 21.024 52.2381 20.9169 52.2381 20.6669C52.2381 20.4169 52.4524 20.2383 52.881 20.2383C53.0342 20.2374 53.1867 20.2595 53.3334 20.3038C53.4167 20.3038 53.4405 20.3574 53.4405 20.4407V20.4764C53.4405 20.5657 53.4405 20.5835 53.3274 20.5597C53.1811 20.5139 53.0284 20.4918 52.875 20.4943C52.6072 20.4943 52.506 20.5478 52.506 20.6966C52.506 20.8454 52.5715 20.8752 52.6965 20.9347L53.1608 21.1431C53.4048 21.2621 53.5239 21.3693 53.5239 21.6312C53.5239 21.8931 53.3036 22.0954 52.8393 22.0954C52.6665 22.0976 52.4942 22.0755 52.3274 22.03C52.2322 22.0002 52.2084 21.9704 52.2084 21.8931V21.8335Z" fill="#009EDB"/>
<path d="M52.8393 22.0711C52.6642 22.0716 52.4899 22.0475 52.3215 21.9997C52.2322 21.9997 52.2084 21.9461 52.2084 21.8628C52.2084 21.8151 52.2084 21.7854 52.2084 21.7735C52.2084 21.7616 52.256 21.7735 52.3036 21.7735C52.4762 21.821 52.6544 21.845 52.8334 21.8449C53.1191 21.8449 53.2262 21.7913 53.2262 21.6425C53.2262 21.4937 53.1727 21.4699 52.9941 21.3866L52.5477 21.1723C52.3274 21.0651 52.2084 20.958 52.2084 20.7021C52.2084 20.4461 52.4167 20.2378 52.8572 20.2378C53.011 20.2348 53.1641 20.259 53.3096 20.3092C53.3989 20.3092 53.4227 20.3628 53.4227 20.4461V20.4818C53.4337 20.5106 53.4337 20.5424 53.4227 20.5711C53.3922 20.5837 53.3579 20.5837 53.3274 20.5711C53.1838 20.5219 53.0328 20.4978 52.881 20.4997C52.6191 20.4997 52.5179 20.5592 52.5179 20.7021C52.5208 20.7551 52.5401 20.806 52.5731 20.8476C52.6062 20.8892 52.6514 20.9194 52.7024 20.9342L53.1667 21.1485C53.4048 21.2556 53.5298 21.3687 53.5298 21.6366C53.5298 21.9044 53.3036 22.0711 52.8393 22.0711ZM52.2441 21.7378H52.2084C52.2084 21.7378 52.2084 21.7794 52.2084 21.8211C52.2084 21.8985 52.2084 21.9282 52.3215 21.9521C52.488 21.9986 52.6605 22.0206 52.8334 22.0175C53.3036 22.0175 53.5119 21.8806 53.5119 21.5592C53.5119 21.2378 53.3869 21.1842 53.1548 21.0771L52.6905 20.8628C52.6368 20.849 52.5888 20.8185 52.5535 20.7757C52.5182 20.7329 52.4974 20.68 52.4941 20.6247C52.4941 20.4759 52.6012 20.4163 52.8691 20.4163C53.0228 20.4149 53.1757 20.4391 53.3215 20.4878C53.3631 20.4878 53.3869 20.4878 53.4048 20.4878C53.4104 20.4746 53.4132 20.4604 53.4132 20.4461C53.4132 20.4318 53.4104 20.4176 53.4048 20.4044V20.3687C53.4048 20.2854 53.4048 20.2675 53.2977 20.2378C53.1516 20.1906 52.9987 20.1685 52.8453 20.1723C52.4108 20.1723 52.2084 20.3152 52.2084 20.6247C52.2084 20.9342 52.3215 20.9818 52.5417 21.089L52.9822 21.3032C53.1608 21.3866 53.2203 21.4521 53.2203 21.5651C53.2203 21.6782 53.1131 21.7735 52.8215 21.7735C52.6405 21.7732 52.4604 21.7492 52.2858 21.7021L52.2441 21.7378Z" fill="#009EDB"/>
<path d="M53.8691 21.3042V20.9708C53.8691 20.4649 54.1369 20.2089 54.6667 20.2089C55.1965 20.2089 55.4584 20.4708 55.4584 20.9708V21.3042C55.4584 21.8161 55.1965 22.0661 54.6667 22.0661C54.1369 22.0661 53.8691 21.8042 53.8691 21.3042ZM55.1846 20.9708C55.1846 20.6196 55.0655 20.4649 54.6667 20.4649C54.2679 20.4649 54.1429 20.6196 54.1429 20.9708V21.3042C54.1429 21.6554 54.2738 21.8101 54.6667 21.8101C55.0596 21.8101 55.1846 21.6554 55.1846 21.3042V20.9708ZM54.4107 19.7327C54.5 19.6018 54.5477 19.5542 54.6667 19.5542C54.7857 19.5542 54.8393 19.5899 54.9227 19.7327L55.0655 19.947C55.1072 20.0125 55.0655 20.0304 55.0179 20.0304C54.9873 20.0354 54.956 20.0298 54.9289 20.0147C54.9019 19.9996 54.8808 19.9757 54.8691 19.947L54.7857 19.8042C54.7262 19.703 54.6667 19.703 54.6131 19.8042L54.5298 19.947C54.4941 20.0185 54.4584 20.0304 54.381 20.0304C54.3036 20.0304 54.2917 20.0304 54.3334 19.947L54.4107 19.7327ZM55.3334 19.5185C55.3184 19.5459 55.2959 19.5684 55.2684 19.5832C55.2409 19.5979 55.2097 19.6044 55.1786 19.6018H55.1429C55.0596 19.6018 55.0477 19.6018 55.0893 19.5125L55.2381 19.2208C55.2515 19.1842 55.2773 19.1534 55.311 19.1339C55.3447 19.1143 55.3842 19.1071 55.4227 19.1137H55.4584C55.5536 19.1137 55.5715 19.1137 55.5179 19.2149L55.3334 19.5185Z" fill="#009EDB"/>
<path d="M54.6667 22.0719C54.125 22.0719 53.869 21.8278 53.869 21.304V20.9707C53.8588 20.8633 53.871 20.7549 53.9048 20.6524C53.9386 20.55 53.9933 20.4557 54.0655 20.3754C54.2334 20.2403 54.4455 20.1724 54.6607 20.1849C55.2024 20.1849 55.4583 20.429 55.4583 20.9528V21.2861C55.4643 21.8159 55.1964 22.0719 54.6667 22.0719ZM54.6667 20.2147C54.4519 20.1975 54.2388 20.2636 54.0714 20.3992C53.998 20.4786 53.9425 20.5729 53.9086 20.6755C53.8747 20.7782 53.8633 20.887 53.875 20.9945V21.3278C53.875 21.8457 54.125 22.0838 54.6667 22.0838C54.8816 22.1028 55.0954 22.0365 55.2619 21.8992C55.3353 21.8198 55.3908 21.7256 55.4247 21.6229C55.4586 21.5202 55.4701 21.4115 55.4583 21.304V20.9707C55.4286 20.4528 55.2024 20.2385 54.6667 20.2385V20.2147ZM54.6667 21.8159C54.2857 21.8159 54.1369 21.673 54.1369 21.304V20.9707C54.1369 20.6016 54.2798 20.4588 54.6667 20.4588C55.0536 20.4588 55.1905 20.6016 55.1905 20.9707V21.304C55.1905 21.679 55.0476 21.8159 54.6667 21.8159ZM54.6667 20.4707C54.2857 20.4707 54.1488 20.6016 54.1488 20.9707V21.304C54.1488 21.6671 54.2917 21.804 54.6667 21.804C55.0417 21.804 55.1845 21.673 55.1845 21.304V20.9707C55.1845 20.6016 55.0417 20.4707 54.6667 20.4707ZM55.0179 20.0361C54.9858 20.0411 54.9529 20.0349 54.9248 20.0187C54.8967 20.0024 54.8749 19.9771 54.8631 19.9469L54.7798 19.8099C54.7262 19.7088 54.6726 19.7088 54.6131 19.8099L54.5357 19.9469C54.5239 19.9771 54.5021 20.0024 54.474 20.0187C54.4459 20.0349 54.4131 20.0411 54.381 20.0361C54.3393 20.0361 54.3155 20.0361 54.3095 20.0361C54.3036 20.0361 54.3095 20.0004 54.3095 19.9707L54.4464 19.7564C54.5298 19.6254 54.5833 19.5778 54.7024 19.5778C54.8214 19.5778 54.875 19.6135 54.9643 19.7564L55.1012 19.9707C55.1012 20.0004 55.1012 20.0242 55.1012 20.0361C55.1012 20.048 55.0595 20.0361 55.0179 20.0361ZM54.6667 19.7266C54.6667 19.7266 54.7262 19.7266 54.756 19.804L54.8393 19.9469C54.8518 19.9749 54.8731 19.9982 54.8999 20.0132C54.9267 20.0282 54.9576 20.0341 54.9881 20.0302C55.0238 20.0302 55.0476 20.0302 55.0536 20.0302C55.0595 20.0302 55.0536 20.0302 55.0536 19.9707L54.9167 19.7564C54.8274 19.6135 54.7798 19.5778 54.6607 19.5778C54.5417 19.5778 54.494 19.6195 54.4107 19.7564L54.2738 19.9707C54.2738 19.9707 54.2738 20.0183 54.2738 20.0302C54.2738 20.0421 54.2738 20.0302 54.3393 20.0302C54.3696 20.0332 54.4002 20.0269 54.4268 20.012C54.4534 19.997 54.4748 19.9743 54.4881 19.9469L54.5655 19.804C54.6071 19.7504 54.6369 19.7266 54.6667 19.7266ZM55.1786 19.6076H55.1429C55.0952 19.6076 55.0714 19.6076 55.0655 19.6076C55.0558 19.5827 55.0558 19.5551 55.0655 19.5302L55.2202 19.2385C55.2244 19.2157 55.2332 19.1941 55.2462 19.1749C55.2591 19.1557 55.2759 19.1394 55.2955 19.1271C55.3151 19.1148 55.3371 19.1067 55.36 19.1033C55.3829 19.1 55.4063 19.1014 55.4286 19.1076H55.4643C55.5179 19.1076 55.5476 19.1076 55.5536 19.1076C55.5595 19.1076 55.5536 19.1492 55.5536 19.1969L55.375 19.4945C55.3595 19.5325 55.3318 19.5643 55.2962 19.5847C55.2606 19.6052 55.2192 19.6133 55.1786 19.6076ZM55.4226 19.1135C55.3851 19.1084 55.347 19.1163 55.3145 19.1358C55.2821 19.1552 55.2572 19.1852 55.244 19.2207L55.0893 19.5123C55.0893 19.554 55.0893 19.5719 55.0893 19.5838C55.0893 19.5957 55.0893 19.5838 55.1607 19.5838H55.1964C55.2279 19.5844 55.259 19.5764 55.2863 19.5607C55.3135 19.545 55.336 19.5221 55.3512 19.4945L55.5298 19.1969C55.5298 19.1552 55.5655 19.1314 55.5298 19.1195C55.494 19.1076 55.494 19.1195 55.4464 19.1195L55.4226 19.1135Z" fill="#009EDB"/>
<path d="M56.1131 21.9173C56.1131 22.0126 56.1131 22.0304 56 22.0304H55.9583C55.8691 22.0304 55.8393 22.0304 55.8393 21.9173V20.8876C55.8393 20.4352 56.0952 20.209 56.6012 20.209C57.1072 20.209 57.3512 20.4471 57.3512 20.8876V21.9173C57.3512 22.0126 57.3512 22.0304 57.2381 22.0304H57.2143C57.1131 22.0304 57.0952 22.0304 57.0952 21.9173V20.8876C57.0952 20.5959 56.9822 20.4649 56.6191 20.4649C56.256 20.4649 56.131 20.6018 56.131 20.8876L56.1131 21.9173Z" fill="#009EDB"/>
<path d="M57.2143 22.0229C57.1131 22.0229 57.0893 22.0229 57.0893 21.9039V20.886C57.0893 20.5825 56.9643 20.4694 56.6191 20.4694C56.2738 20.4694 56.1369 20.5825 56.1369 20.886V21.9158C56.1369 22.011 56.1369 22.0348 56.0179 22.0348H55.9762C55.8869 22.0348 55.8572 22.0348 55.8572 21.9158V20.886C55.8572 20.4337 56.1131 20.2015 56.6191 20.2015C56.7252 20.1906 56.8324 20.2008 56.9345 20.2314C57.0367 20.2621 57.1318 20.3126 57.2143 20.3801C57.2778 20.4472 57.3265 20.527 57.3573 20.6141C57.388 20.7013 57.4002 20.7939 57.3929 20.886V21.9158C57.3572 22.0229 57.3393 22.0229 57.2143 22.0229ZM56.6191 20.4575C56.9703 20.4575 57.1012 20.5765 57.1012 20.886V21.9158C57.1012 22.011 57.1012 22.0229 57.2143 22.0229C57.3096 22.0229 57.3274 22.0229 57.3274 21.9158V20.886C57.335 20.7948 57.3229 20.703 57.2922 20.6167C57.2614 20.5305 57.2125 20.4519 57.1488 20.386C56.9957 20.2747 56.8078 20.2219 56.6191 20.2372C56.4065 20.2132 56.193 20.273 56.0238 20.4039C55.9576 20.4696 55.9063 20.5488 55.8734 20.6361C55.8405 20.7234 55.8269 20.8168 55.8334 20.9098V21.9396C55.8334 22.0348 55.8334 22.0468 55.9465 22.0468H56.0238C56.1191 22.0468 56.1369 22.0468 56.1369 21.9396V20.886C56.1131 20.5765 56.25 20.4575 56.6191 20.4575Z" fill="#009EDB"/>
<path d="M59.2321 20.8801C59.2321 21.2968 58.9881 21.5111 58.4821 21.5111C58.3555 21.4972 58.2278 21.4972 58.1012 21.5111C58.0749 21.5154 58.0512 21.5295 58.0347 21.5504C58.0182 21.5713 58.0101 21.5976 58.0119 21.6242C58.0119 21.6718 58.0119 21.7075 58.1071 21.7254C58.232 21.735 58.3573 21.735 58.4821 21.7254C58.687 21.7111 58.892 21.75 59.0774 21.8384C59.1392 21.8809 59.1884 21.9392 59.2199 22.0073C59.2513 22.0754 59.2638 22.1508 59.256 22.2254C59.2641 22.306 59.2521 22.3874 59.2209 22.4622C59.1897 22.5371 59.1404 22.6029 59.0774 22.6539C58.8945 22.7503 58.6883 22.7936 58.4821 22.7789C58.2761 22.7918 58.0704 22.7486 57.8869 22.6539C57.8284 22.6101 57.7819 22.5522 57.7517 22.4856C57.7216 22.419 57.7087 22.3459 57.7143 22.273C57.7102 22.1956 57.7275 22.1186 57.7642 22.0503C57.801 21.9821 57.8558 21.9253 57.9226 21.8861C57.8758 21.8673 57.8361 21.8341 57.8094 21.7913C57.7826 21.7485 57.7702 21.6983 57.7738 21.648C57.7738 21.4873 57.8691 21.392 58.0655 21.3623C57.9652 21.3194 57.8814 21.2452 57.8267 21.1508C57.772 21.0564 57.7493 20.9468 57.7619 20.8384V20.8325C57.7619 20.4396 58.0417 20.2373 58.5119 20.2373C58.6405 20.2345 58.7683 20.2588 58.8869 20.3087L59.0952 20.1242C59.1548 20.0706 59.1845 20.0706 59.2441 20.1242C59.3036 20.1777 59.3036 20.2075 59.2441 20.267L59.0833 20.4337C59.1356 20.4869 59.1763 20.5503 59.203 20.6199C59.2296 20.6896 59.2416 20.764 59.2381 20.8384L59.2321 20.8801ZM58.131 21.9873C58.0765 22.0148 58.0311 22.0576 58.0005 22.1105C57.9699 22.1633 57.9552 22.2239 57.9583 22.2849C57.9583 22.523 58.0952 22.5825 58.4821 22.5825C58.8691 22.5825 59.006 22.523 59.006 22.2789C59.006 22.0349 58.875 22.0111 58.4821 22.0111C58.3647 22.0118 58.2473 22.0038 58.131 21.9873ZM58.9583 20.8325C58.9583 20.5765 58.7976 20.4515 58.4821 20.4515C58.1667 20.4515 58 20.5765 58 20.8325V20.8801C58 21.1361 58.1191 21.267 58.4821 21.267C58.8452 21.267 58.9583 21.1361 58.9583 20.8801V20.8325Z" fill="#009EDB"/>
<path d="M58.4821 22.8216C58.2766 22.8372 58.0707 22.796 57.8869 22.7026C57.8287 22.6571 57.7826 22.598 57.7525 22.5306C57.7224 22.4631 57.7093 22.3893 57.7143 22.3157C57.7096 22.2395 57.7254 22.1635 57.7599 22.0955C57.7944 22.0275 57.8465 21.9699 57.9107 21.9288C57.8655 21.9083 57.8276 21.8745 57.8021 21.832C57.7766 21.7895 57.7646 21.7402 57.7679 21.6907C57.7679 21.5319 57.8631 21.4367 58.0536 21.4049C57.955 21.3603 57.873 21.2856 57.8195 21.1915C57.7661 21.0973 57.7438 20.9887 57.7559 20.8811V20.8335C57.7535 20.746 57.7703 20.659 57.8053 20.5788C57.8403 20.4985 57.8925 20.427 57.9583 20.3692C58.1182 20.2517 58.3137 20.1928 58.5119 20.2026C58.6405 20.1998 58.7683 20.2241 58.8869 20.274L59.0952 20.0954C59.1548 20.0359 59.1845 20.0359 59.244 20.0954C59.2798 20.1252 59.2917 20.143 59.2917 20.1669C59.2917 20.1907 59.2917 20.2085 59.244 20.2442L59.0833 20.4049C59.1376 20.4569 59.18 20.52 59.2077 20.5898C59.2355 20.6597 59.2479 20.7347 59.244 20.8097V20.8573C59.244 21.274 58.9881 21.4883 58.4881 21.4883C58.3615 21.4738 58.2337 21.4738 58.1071 21.4883C58.083 21.4938 58.0615 21.5074 58.0463 21.527C58.0311 21.5465 58.0232 21.5707 58.0238 21.5954C58.0238 21.643 58.0536 21.6728 58.1131 21.6907C58.2379 21.7014 58.3633 21.7014 58.4881 21.6907C58.7028 21.6711 58.9188 21.7102 59.1131 21.8038C59.1748 21.846 59.2236 21.9045 59.2541 21.9728C59.2845 22.0411 59.2955 22.1165 59.2857 22.1907C59.2961 22.2723 59.285 22.3553 59.2537 22.4315C59.2224 22.5076 59.1719 22.5744 59.1071 22.6252C58.9213 22.7478 58.7047 22.8159 58.4821 22.8216ZM58.4821 20.2145C58.0179 20.2145 57.7381 20.4466 57.7381 20.8097V20.8573C57.7259 20.9649 57.7482 21.0735 57.8017 21.1677C57.8552 21.2618 57.9371 21.3365 58.0357 21.3811C57.8393 21.4109 57.744 21.5002 57.744 21.6609C57.7429 21.7108 57.7564 21.7599 57.7829 21.8022C57.8093 21.8445 57.8475 21.8781 57.8929 21.899C57.8276 21.938 57.7742 21.9941 57.7385 22.0612C57.7029 22.1284 57.6862 22.204 57.6905 22.2799C57.6858 22.3521 57.6984 22.4244 57.7274 22.4907C57.7564 22.557 57.8009 22.6154 57.8571 22.6609C58.0419 22.7514 58.247 22.7924 58.4524 22.7799C58.6579 22.7953 58.8638 22.7541 59.0476 22.6609C59.1106 22.6099 59.1599 22.544 59.1911 22.4692C59.2223 22.3944 59.2343 22.313 59.2262 22.2323C59.2348 22.1591 59.2233 22.085 59.1929 22.0178C59.1625 21.9507 59.1143 21.8931 59.0536 21.8514C58.8682 21.763 58.6632 21.724 58.4583 21.7383C58.3317 21.7519 58.204 21.7519 58.0774 21.7383C58.0531 21.7342 58.0311 21.7219 58.0148 21.7035C57.9985 21.6851 57.9891 21.6616 57.9881 21.6371C57.9863 21.6105 57.9944 21.5842 58.0109 21.5633C58.0274 21.5424 58.0511 21.5284 58.0774 21.524C58.2039 21.5091 58.3318 21.5091 58.4583 21.524C58.6688 21.5451 58.88 21.4902 59.0536 21.3692C59.1169 21.3092 59.1663 21.2359 59.1982 21.1547C59.2301 21.0734 59.2437 20.9861 59.2381 20.899V20.8335C59.2422 20.7593 59.23 20.6851 59.2022 20.6162C59.1744 20.5473 59.1318 20.4853 59.0774 20.4347L59.2381 20.268C59.2738 20.268 59.2857 20.2145 59.2857 20.1966C59.2838 20.1834 59.279 20.1707 59.2718 20.1594C59.2647 20.1482 59.2552 20.1385 59.244 20.1311H59.2143C59.1607 20.0776 59.1309 20.0776 59.0714 20.1311L58.8631 20.3157C58.7431 20.2629 58.6132 20.2365 58.4821 20.2383V20.2145ZM58.4821 22.5954C58.0774 22.5954 57.9583 22.524 57.9583 22.2919C57.9518 22.2304 57.9651 22.1684 57.9961 22.1149C58.0271 22.0614 58.0743 22.0191 58.1309 21.9942C58.2479 22.0016 58.3652 22.0016 58.4821 21.9942C58.875 21.9942 59.0119 22.0359 59.0119 22.268C59.0119 22.5002 58.8809 22.6192 58.4821 22.6192V22.5954ZM58.1309 22.0002C58.077 22.0264 58.0323 22.0682 58.0025 22.1203C57.9728 22.1723 57.9595 22.2321 57.9643 22.2919C57.9643 22.518 58.0833 22.5895 58.4821 22.5895C58.8809 22.5895 59 22.518 59 22.2859C59 22.0538 58.875 22.018 58.4821 22.018C58.3653 22.0274 58.248 22.0294 58.1309 22.024V22.0002ZM58.4821 21.2799C58.1369 21.2799 58 21.1669 58 20.8871V20.8335C58 20.5716 58.1548 20.4466 58.4821 20.4466C58.8095 20.4466 58.9643 20.5776 58.9643 20.8335V20.8811C58.9643 21.1609 58.8274 21.274 58.4821 21.274V21.2799ZM58.4821 20.4585C58.1607 20.4585 58.0059 20.5835 58.0059 20.8395V20.8871C58.0059 21.1609 58.1429 21.274 58.4821 21.274C58.8214 21.274 58.9583 21.1609 58.9583 20.8871V20.8335C58.9583 20.5835 58.7976 20.4526 58.4821 20.4526V20.4585Z" fill="#009EDB"/>
<path d="M62.4345 19.9401C62.4345 20.0175 62.4345 20.0413 62.3333 20.0413H62.119V21.3092C62.119 21.8151 61.8512 22.0651 61.3214 22.0651C60.7917 22.0651 60.5298 21.8151 60.5298 21.3092V20.9699C60.519 20.8695 60.5311 20.768 60.5653 20.6731C60.5994 20.5781 60.6547 20.4921 60.7269 20.4216C60.7991 20.3511 60.8864 20.2979 60.9822 20.2661C61.0779 20.2342 61.1797 20.2245 61.2798 20.2377C61.3937 20.2189 61.5106 20.2337 61.6163 20.2802C61.722 20.3267 61.8119 20.4029 61.875 20.4996V20.0711H61.3809C61.2976 20.0711 61.2798 20.0711 61.2798 19.9699C61.2798 19.8925 61.2798 19.8687 61.3809 19.8687H61.875V19.6425C61.875 19.5413 61.875 19.5234 61.9881 19.5234H61.9762C62.0655 19.5234 62.0952 19.5234 62.0952 19.6425V19.8389H62.3095C62.3869 19.8389 62.4107 19.8389 62.4107 19.9401H62.4345ZM60.7857 21.3032C60.7857 21.6544 60.9048 21.8092 61.3036 21.8092C61.7024 21.8092 61.8274 21.6544 61.8274 21.3032V20.9699C61.8274 20.6187 61.7024 20.4639 61.3036 20.4639C60.9048 20.4639 60.7857 20.6187 60.7857 20.9699V21.3032Z" fill="#009EDB"/>
<path d="M61.3215 22.0712C61.1059 22.0867 60.8927 22.0184 60.7262 21.8807C60.6528 21.8013 60.5973 21.7071 60.5634 21.6044C60.5295 21.5017 60.5181 21.3929 60.5298 21.2854V20.9461C60.5188 20.8392 60.53 20.7311 60.5628 20.6286C60.5956 20.5262 60.6492 20.4316 60.7203 20.3509C60.7994 20.2772 60.8936 20.2214 60.9964 20.1875C61.0991 20.1536 61.208 20.1424 61.3155 20.1545C61.4232 20.1421 61.5323 20.1594 61.6309 20.2046C61.7295 20.2497 61.8139 20.3209 61.875 20.4104V19.9997H61.381C61.2977 19.9997 61.2738 19.9997 61.2738 19.8926C61.2738 19.8092 61.2738 19.7854 61.381 19.7854H61.8691V19.6426C61.8691 19.5414 61.8691 19.5176 61.9881 19.5176H61.9762C62.0655 19.5176 62.0953 19.5176 62.0953 19.6426V19.8331H62.3096C62.3869 19.8331 62.4167 19.8331 62.4167 19.9402C62.4167 20.0176 62.4167 20.0473 62.3096 20.0473H62.0953V21.3092C62.1191 21.8152 61.8512 22.0712 61.3215 22.0712ZM61.2798 20.2378C61.1789 20.2296 61.0774 20.2416 60.9813 20.2733C60.8852 20.305 60.7964 20.3557 60.7203 20.4223C60.6511 20.5041 60.5992 20.5989 60.5675 20.7012C60.5358 20.8035 60.525 20.9111 60.5357 21.0176V21.3569C60.522 21.464 60.532 21.5728 60.5649 21.6756C60.5978 21.7785 60.6529 21.8729 60.7262 21.9521C60.8927 22.0894 61.1065 22.1557 61.3215 22.1366C61.5362 22.1538 61.7493 22.0877 61.9167 21.9521C61.9904 21.8729 62.0462 21.7787 62.0801 21.676C62.114 21.5732 62.1253 21.4644 62.1131 21.3569V20.0354H62.3334C62.4048 20.0354 62.4346 20.0354 62.4346 19.9402C62.4346 19.8688 62.4346 19.845 62.3334 19.845H62.1131V19.6426C62.1131 19.5414 62.1131 19.5295 62 19.5295H61.9762C61.881 19.5295 61.8691 19.5295 61.8691 19.6426V19.845H61.381C61.2977 19.845 61.2857 19.845 61.2857 19.9402C61.2857 20.0116 61.2857 20.0354 61.381 20.0354H61.881V20.4878C61.8159 20.3923 61.7244 20.3177 61.6176 20.2733C61.5108 20.2289 61.3935 20.2166 61.2798 20.2378ZM61.3215 21.839C60.9405 21.839 60.7976 21.7021 60.7976 21.3271V20.9938C60.7976 20.6247 60.9465 20.4819 61.3215 20.4819C61.6965 20.4819 61.8512 20.6247 61.8512 20.9938V21.3271C61.8512 21.6723 61.7024 21.8152 61.3215 21.8152V21.839ZM61.3215 20.4938C60.9524 20.4938 60.8036 20.6307 60.8036 20.9938V21.3271C60.8036 21.6962 60.9465 21.8271 61.3215 21.8271C61.6965 21.8271 61.8393 21.6962 61.8393 21.3271V20.9938C61.8393 20.6009 61.7024 20.47 61.3215 20.47V20.4938Z" fill="#009EDB"/>
<path d="M62.4822 21.3042V20.9709C62.4822 20.4649 62.7441 20.209 63.2798 20.209C63.6786 20.209 63.9107 20.3459 64.0119 20.6018C64.0655 20.6018 64.1191 20.5066 64.1191 20.3161C64.1191 20.2626 64.1191 20.2447 64.2024 20.2447H64.2619C64.3274 20.2447 64.3393 20.2447 64.3393 20.3161C64.3393 20.6078 64.2262 20.7506 64.0536 20.7983C64.0599 20.8556 64.0599 20.9135 64.0536 20.9709V21.3042C64.0536 21.8161 63.7917 22.0661 63.2679 22.0661C62.7441 22.0661 62.4822 21.8042 62.4822 21.3042ZM63.7977 20.9709C63.7977 20.6197 63.6727 20.4649 63.2798 20.4649C62.8869 20.4649 62.75 20.6197 62.75 20.9709V21.3042C62.75 21.6554 62.8869 21.8102 63.2798 21.8102C63.6727 21.8102 63.7977 21.6554 63.7977 21.3042V20.9709Z" fill="#009EDB"/>
<path d="M63.2798 22.0706C62.7322 22.0706 62.4762 21.8265 62.4762 21.3027V20.9694C62.4668 20.8615 62.4799 20.7529 62.5148 20.6504C62.5496 20.548 62.6054 20.4539 62.6786 20.3741C62.8454 20.2369 63.0584 20.1688 63.2739 20.1837C63.6667 20.1837 63.8691 20.3087 64.006 20.5765C64.0774 20.5467 64.1072 20.4515 64.1072 20.2967C64.1072 20.2372 64.1072 20.2194 64.1965 20.2194H64.256C64.3215 20.2194 64.3393 20.2194 64.3393 20.2967C64.3393 20.5587 64.2441 20.7253 64.0536 20.7848C64.0568 20.8404 64.0568 20.896 64.0536 20.9515V21.2848C64.0693 21.3906 64.0602 21.4986 64.027 21.6002C63.9939 21.7018 63.9376 21.7944 63.8625 21.8706C63.7875 21.9468 63.6958 22.0045 63.5947 22.0392C63.4936 22.0739 63.3858 22.0846 63.2798 22.0706ZM63.2798 20.2134C63.0649 20.195 62.8513 20.2612 62.6846 20.3979C62.6112 20.4773 62.5556 20.5716 62.5218 20.6742C62.4879 20.7769 62.4764 20.8857 62.4881 20.9932V21.3265C62.4881 21.8444 62.7381 22.0825 63.2798 22.0825C63.4946 22.1002 63.708 22.0341 63.875 21.8979C63.9485 21.8185 64.004 21.7243 64.0379 21.6216C64.0717 21.519 64.0832 21.4102 64.0715 21.3027V20.9694C64.0748 20.9119 64.0748 20.8542 64.0715 20.7967C64.2619 20.7372 64.3572 20.5765 64.3572 20.3146C64.3572 20.261 64.3572 20.2491 64.2798 20.2491H64.2203C64.1608 20.2491 64.1429 20.2491 64.1429 20.3146C64.1429 20.4753 64.1072 20.5706 64.0298 20.6063C63.8988 20.3384 63.6727 20.2372 63.2798 20.2372V20.2134ZM63.2798 21.8146C62.8989 21.8146 62.75 21.6717 62.75 21.3027V20.9694C62.75 20.6003 62.8929 20.4575 63.2798 20.4575C63.6667 20.4575 63.7977 20.6003 63.7977 20.9694V21.3027C63.7977 21.6777 63.6608 21.8146 63.2798 21.8146ZM63.2798 20.4694C62.8989 20.4694 62.756 20.6003 62.756 20.9694V21.3027C62.756 21.6658 62.9048 21.8027 63.2798 21.8027C63.6548 21.8027 63.7917 21.6717 63.7917 21.3027V20.9694C63.7917 20.6003 63.6548 20.4694 63.2798 20.4694Z" fill="#009EDB"/>
<path d="M64.7262 21.9173C64.7262 22.0126 64.7262 22.0304 64.6072 22.0304H64.5655C64.4762 22.0304 64.4524 22.0304 64.4524 21.9173V20.8876C64.4524 20.4352 64.7083 20.209 65.2083 20.209C65.7083 20.209 65.9643 20.4471 65.9643 20.8876V21.9173C65.9643 22.0126 65.9643 22.0304 65.8452 22.0304H65.8036C65.7024 22.0304 65.6845 22.0304 65.6845 21.9173V20.8876C65.6845 20.5959 65.5774 20.4649 65.2083 20.4649C64.8393 20.4649 64.7262 20.6018 64.7262 20.8876V21.9173Z" fill="#009EDB"/>
<path d="M65.8452 22.0229H65.8036C65.7024 22.0229 65.6845 22.0229 65.6845 21.9039V20.886C65.6845 20.5825 65.5536 20.4694 65.2083 20.4694C64.8631 20.4694 64.7262 20.5825 64.7262 20.886V21.9158C64.7262 22.011 64.7262 22.0348 64.6072 22.0348H64.5655C64.4762 22.0348 64.4464 22.0348 64.4464 21.9158V20.886C64.4464 20.4337 64.7024 20.2015 65.2083 20.2015C65.3144 20.1906 65.4216 20.2008 65.5238 20.2314C65.6259 20.2621 65.721 20.3126 65.8036 20.3801C65.868 20.4466 65.9174 20.5262 65.9482 20.6135C65.979 20.7009 65.9906 20.7938 65.9822 20.886V21.9158C65.9643 22.0229 65.9464 22.0229 65.8452 22.0229ZM65.2083 20.4456C65.5595 20.4456 65.6905 20.5646 65.6905 20.8741V21.9039C65.6905 21.9991 65.6905 22.011 65.8036 22.011H65.8452C65.9405 22.011 65.9583 22.011 65.9583 21.9039V20.886C65.9656 20.7953 65.954 20.7041 65.9243 20.618C65.8945 20.532 65.8474 20.453 65.7857 20.386C65.7027 20.3196 65.6074 20.2701 65.5053 20.2405C65.4031 20.2109 65.2962 20.2017 65.1905 20.2134C64.9779 20.1894 64.7644 20.2491 64.5952 20.3801C64.529 20.4458 64.4777 20.525 64.4448 20.6123C64.4119 20.6996 64.3983 20.793 64.4048 20.886V21.9158C64.4048 22.011 64.4048 22.0229 64.5179 22.0229H64.5595C64.6548 22.0229 64.6726 22.0229 64.6726 21.9158V20.886C64.7202 20.5765 64.8572 20.4575 65.2083 20.4575V20.4456Z" fill="#009EDB"/>
<path d="M68.8095 20.8801C68.8095 21.2968 68.5655 21.5111 68.0655 21.5111C67.9369 21.4971 67.8072 21.4971 67.6786 21.5111C67.6523 21.5154 67.6286 21.5295 67.6121 21.5504C67.5956 21.5713 67.5874 21.5976 67.5893 21.6242C67.5893 21.6718 67.5893 21.7075 67.6845 21.7254C67.8113 21.7352 67.9387 21.7352 68.0655 21.7254C68.2703 21.7111 68.4754 21.75 68.6607 21.8384C68.721 21.882 68.7687 21.9408 68.799 22.0087C68.8293 22.0766 68.8412 22.1514 68.8333 22.2254C68.8415 22.306 68.8294 22.3874 68.7983 22.4622C68.7671 22.5371 68.7178 22.6029 68.6548 22.6539C68.4721 22.751 68.2658 22.7943 68.0595 22.7789C67.8416 22.7979 67.6228 22.7545 67.4286 22.6539C67.372 22.6087 67.3272 22.5504 67.2982 22.484C67.2691 22.4177 67.2567 22.3452 67.2619 22.273C67.2572 22.1962 67.2736 22.1195 67.3093 22.0514C67.3449 21.9832 67.3985 21.926 67.4643 21.8861C67.4174 21.8673 67.3778 21.8341 67.351 21.7913C67.3243 21.7485 67.3118 21.6983 67.3155 21.648C67.3155 21.4873 67.4107 21.392 67.6071 21.3623C67.5068 21.3194 67.4231 21.2452 67.3684 21.1508C67.3137 21.0564 67.2909 20.9468 67.3036 20.8384V20.8325C67.3036 20.4396 67.5833 20.2373 68.0595 20.2373C68.1862 20.235 68.3119 20.2593 68.4286 20.3087L68.6369 20.1242C68.6964 20.0706 68.7262 20.0706 68.7857 20.1242C68.8452 20.1777 68.8452 20.2075 68.7857 20.267L68.625 20.4337C68.6773 20.4869 68.718 20.5503 68.7446 20.6199C68.7712 20.6896 68.7832 20.764 68.7798 20.8384L68.8095 20.8801ZM67.7083 21.9873C67.6538 22.0148 67.6085 22.0576 67.5779 22.1105C67.5472 22.1633 67.5326 22.2239 67.5357 22.2849C67.5357 22.523 67.6726 22.5825 68.0655 22.5825C68.4583 22.5825 68.5833 22.523 68.5833 22.2789C68.5833 22.0349 68.4524 22.0111 68.0655 22.0111C67.946 22.0121 67.8266 22.0041 67.7083 21.9873ZM68.5238 20.8325C68.5238 20.5765 68.369 20.4515 68.0536 20.4515C67.7381 20.4515 67.5714 20.5765 67.5714 20.8325V20.8801C67.5714 21.1361 67.6845 21.267 68.0536 21.267C68.4226 21.267 68.5238 21.1361 68.5238 20.8801V20.8325Z" fill="#009EDB"/>
<path d="M68.0655 22.8216C67.8481 22.8427 67.6292 22.8014 67.4345 22.7026C67.3764 22.6571 67.3302 22.598 67.3001 22.5306C67.27 22.4631 67.2569 22.3893 67.2619 22.3157C67.2572 22.2389 67.2736 22.1622 67.3093 22.0941C67.3449 22.0259 67.3985 21.9687 67.4643 21.9288C67.4174 21.91 67.3778 21.8768 67.351 21.834C67.3243 21.7912 67.3118 21.741 67.3155 21.6907C67.3155 21.5319 67.4107 21.4367 67.6012 21.4049C67.5026 21.3603 67.4206 21.2856 67.3672 21.1915C67.3137 21.0973 67.2914 20.9887 67.3036 20.8811V20.8335C67.3011 20.746 67.3179 20.659 67.3529 20.5788C67.3879 20.4985 67.4401 20.427 67.5059 20.3692C67.6677 20.2508 67.8653 20.1919 68.0655 20.2026C68.1921 20.2003 68.3179 20.2246 68.4345 20.274L68.6429 20.0954C68.7024 20.0359 68.7321 20.0359 68.7917 20.0954C68.8274 20.1252 68.8393 20.143 68.8393 20.1669C68.8393 20.1907 68.8393 20.2085 68.7917 20.2442L68.6369 20.4049C68.6892 20.4581 68.7299 20.5215 68.7565 20.5912C68.7832 20.6608 68.7951 20.7352 68.7917 20.8097V20.8573C68.7917 21.274 68.5357 21.4883 68.0417 21.4883C67.9131 21.4735 67.7833 21.4735 67.6548 21.4883C67.6306 21.4938 67.6092 21.5074 67.594 21.527C67.5788 21.5465 67.5708 21.5707 67.5714 21.5954C67.5714 21.643 67.5714 21.6728 67.6607 21.6907C67.7875 21.7016 67.9149 21.7016 68.0417 21.6907C68.2465 21.6764 68.4516 21.7154 68.6369 21.8038C68.6992 21.8457 68.7488 21.904 68.7803 21.9722C68.8118 22.0405 68.8239 22.116 68.8155 22.1907C68.8245 22.2728 68.8123 22.356 68.78 22.4321C68.7477 22.5081 68.6964 22.5747 68.6309 22.6252C68.4623 22.7378 68.2676 22.8054 68.0655 22.8216ZM68.0655 20.2145C67.5952 20.2145 67.3155 20.4466 67.3155 20.8097V20.8573C67.3033 20.9649 67.3256 21.0735 67.3791 21.1677C67.4325 21.2618 67.5145 21.3365 67.6131 21.3811C67.4167 21.4109 67.3274 21.5002 67.3274 21.6609C67.325 21.7103 67.3373 21.7592 67.3627 21.8016C67.3881 21.844 67.4256 21.8779 67.4702 21.899C67.405 21.938 67.3516 21.9941 67.3159 22.0612C67.2802 22.1284 67.2636 22.204 67.2679 22.2799C67.2628 22.3528 67.2759 22.4257 67.3061 22.4922C67.3362 22.5587 67.3824 22.6167 67.4405 22.6609C67.8379 22.8199 68.2812 22.8199 68.6786 22.6609C68.7409 22.6096 68.7894 22.5435 68.8196 22.4686C68.8497 22.3938 68.8606 22.3125 68.8512 22.2323C68.8598 22.1591 68.8483 22.085 68.8179 22.0178C68.7875 21.9507 68.7393 21.8931 68.6786 21.8514C68.4939 21.7608 68.2883 21.7217 68.0833 21.7383C67.9567 21.7524 67.829 21.7524 67.7024 21.7383C67.6369 21.7383 67.6071 21.6847 67.6071 21.6371C67.6053 21.6105 67.6134 21.5842 67.6299 21.5633C67.6464 21.5424 67.6701 21.5284 67.6964 21.524C67.825 21.5089 67.9548 21.5089 68.0833 21.524C68.282 21.5371 68.4792 21.4826 68.6429 21.3692C68.7062 21.3092 68.7556 21.2359 68.7875 21.1547C68.8194 21.0734 68.833 20.9861 68.8274 20.899V20.8335C68.8315 20.7593 68.8193 20.6851 68.7915 20.6162C68.7637 20.5473 68.7211 20.4853 68.6667 20.4347L68.8333 20.268C68.8557 20.2503 68.8706 20.2248 68.875 20.1966C68.873 20.1834 68.8683 20.1707 68.8611 20.1594C68.854 20.1482 68.8445 20.1385 68.8333 20.1311C68.7738 20.0716 68.75 20.0776 68.6845 20.1311L68.4762 20.3157C68.3472 20.2582 68.2065 20.2317 68.0655 20.2383V20.2145ZM68.0655 22.5954C67.6548 22.5954 67.5357 22.524 67.5357 22.2919C67.5292 22.2304 67.5424 22.1684 67.5735 22.1149C67.6045 22.0614 67.6517 22.0191 67.7083 21.9942C67.8273 22.0018 67.9465 22.0018 68.0655 21.9942C68.4524 21.9942 68.5893 22.0359 68.5893 22.268C68.5893 22.5002 68.4107 22.6192 68.0655 22.6192V22.5954ZM67.7083 22.0002C67.6544 22.0264 67.6097 22.0682 67.5799 22.1203C67.5502 22.1723 67.5368 22.2321 67.5417 22.2919C67.5417 22.518 67.6607 22.5895 68.0655 22.5895C68.4702 22.5895 68.5774 22.518 68.5774 22.2859C68.5774 22.0538 68.4524 22.018 68.0655 22.018C67.9467 22.0276 67.8274 22.0295 67.7083 22.024V22.0002ZM68.0655 21.2799C67.7202 21.2799 67.5774 21.1669 67.5774 20.8871V20.8335C67.5774 20.5716 67.7381 20.4466 68.0655 20.4466C68.3929 20.4466 68.5417 20.5776 68.5417 20.8335V20.8811C68.5238 21.1609 68.4048 21.274 68.0655 21.274V21.2799ZM68.0655 20.4585C67.7381 20.4585 67.5833 20.5835 67.5833 20.8395V20.8871C67.5833 21.1609 67.7202 21.274 68.0655 21.274C68.4107 21.274 68.5357 21.1609 68.5357 20.8871V20.8335C68.5238 20.5835 68.375 20.4526 68.0655 20.4526V20.4585Z" fill="#009EDB"/>
<path d="M69.5357 19.6844C69.5365 19.7076 69.5327 19.7307 69.5243 19.7523C69.516 19.774 69.5034 19.7937 69.4873 19.8104C69.4712 19.827 69.4519 19.8403 69.4306 19.8493C69.4092 19.8584 69.3863 19.863 69.3631 19.863C69.3392 19.8638 69.3153 19.8598 69.2929 19.8512C69.2706 19.8425 69.2502 19.8295 69.233 19.8129C69.2158 19.7962 69.2021 19.7762 69.1927 19.7542C69.1834 19.7321 69.1786 19.7084 69.1786 19.6844C69.1801 19.6365 69.2003 19.5911 69.2347 19.5578C69.2691 19.5245 69.3152 19.5058 69.3631 19.5059C69.4094 19.5074 69.4533 19.5269 69.4856 19.5602C69.5178 19.5935 69.5358 19.6381 69.5357 19.6844ZM69.2262 20.3571C69.2262 20.2678 69.2262 20.244 69.3393 20.244H69.381C69.4703 20.244 69.4941 20.244 69.4941 20.3571V21.9166C69.4941 22.0118 69.4941 22.0297 69.381 22.0297H69.3393C69.2381 22.0297 69.2262 22.0297 69.2262 21.9166V20.3571Z" fill="#009EDB"/>
<path d="M69.381 22.0239H69.3393C69.2381 22.0239 69.2203 22.0239 69.2203 21.9049V20.3572C69.2203 20.268 69.2203 20.2382 69.3393 20.2382H69.381C69.4703 20.2382 69.5001 20.2382 69.5001 20.3572V21.9168C69.5001 22.0239 69.4703 22.0239 69.381 22.0239ZM69.3393 20.2382C69.2441 20.2382 69.2262 20.2382 69.2262 20.3453V21.9049C69.2262 22.0001 69.2262 22.012 69.3393 22.012H69.381C69.4643 22.012 69.4881 22.012 69.4881 21.9049V20.3572C69.4881 20.2739 69.4881 20.2501 69.381 20.2501L69.3393 20.2382ZM69.3393 19.8513C69.292 19.8513 69.2466 19.8325 69.2131 19.799C69.1796 19.7655 69.1608 19.7201 69.1608 19.6727C69.1608 19.6254 69.1796 19.5799 69.2131 19.5464C69.2466 19.513 69.292 19.4941 69.3393 19.4941C69.3867 19.4941 69.4321 19.513 69.4656 19.5464C69.4991 19.5799 69.5179 19.6254 69.5179 19.6727C69.5179 19.7201 69.4991 19.7655 69.4656 19.799C69.4321 19.8325 69.3867 19.8513 69.3393 19.8513ZM69.3393 19.5001C69.3167 19.5001 69.2942 19.5046 69.2733 19.5132C69.2523 19.5219 69.2333 19.5346 69.2173 19.5507C69.2012 19.5667 69.1885 19.5857 69.1799 19.6067C69.1712 19.6276 69.1667 19.65 69.1667 19.6727C69.1667 19.6954 69.1712 19.7178 69.1799 19.7388C69.1885 19.7597 69.2012 19.7787 69.2173 19.7948C69.2333 19.8108 69.2523 19.8235 69.2733 19.8322C69.2942 19.8409 69.3167 19.8453 69.3393 19.8453C69.3851 19.8453 69.429 19.8271 69.4614 19.7948C69.4938 19.7624 69.512 19.7185 69.512 19.6727C69.512 19.6269 69.4938 19.583 69.4614 19.5507C69.429 19.5183 69.3851 19.5001 69.3393 19.5001Z" fill="#009EDB"/>
<path d="M71.3214 21.4939C71.3214 21.8987 71.0893 22.0892 70.5655 22.0892C70.1488 22.0892 69.8869 21.9225 69.8869 21.5475C69.8869 21.1725 70.1309 21.0178 70.625 21.0178H71.0536V20.7737C71.0536 20.5297 70.8809 20.4463 70.5774 20.4463C70.4433 20.4455 70.3096 20.4595 70.1786 20.488C70.0893 20.488 70.0595 20.488 70.0595 20.3987V20.3689C70.0595 20.2856 70.0595 20.2618 70.1726 20.2439C70.3021 20.2192 70.4337 20.2072 70.5655 20.2082C71.0714 20.2082 71.3214 20.3987 71.3214 20.7737V21.4939ZM71.0536 21.2082H70.625C70.3036 21.2082 70.1548 21.2975 70.1548 21.5237C70.1548 21.7499 70.2917 21.8332 70.5655 21.8332C70.8393 21.8332 71.0536 21.7559 71.0536 21.482V21.2082ZM70.625 20.0178C70.5595 20.0178 70.5536 20.0178 70.5417 19.9463C70.5298 19.8749 70.5952 19.8035 70.7024 19.6904C70.7278 19.6693 70.7447 19.6397 70.75 19.607C70.75 19.5416 70.75 19.5118 70.6845 19.5118C70.6317 19.4992 70.5766 19.4992 70.5238 19.5118C70.4821 19.5118 70.4524 19.5118 70.4286 19.4761V19.4463C70.4286 19.3928 70.4286 19.3689 70.4821 19.3511C70.5497 19.3218 70.6228 19.3076 70.6964 19.3094C70.7318 19.3065 70.7674 19.3115 70.8007 19.3241C70.8339 19.3367 70.8639 19.3565 70.8884 19.3822C70.9129 19.4079 70.9314 19.4387 70.9425 19.4725C70.9536 19.5062 70.9569 19.542 70.9524 19.5773C70.9524 19.732 70.7381 19.7975 70.7321 19.9166C70.7297 19.9346 70.7214 19.9514 70.7085 19.9643C70.6956 19.9772 70.6788 19.9856 70.6607 19.988L70.625 20.0178Z" fill="#009EDB"/>
<path d="M70.5655 22.0718C70.1191 22.0718 69.881 21.8813 69.881 21.5242C69.881 21.167 70.1072 20.9884 70.625 20.9884H71.0476V20.7742C71.0476 20.548 70.9048 20.4527 70.5774 20.4527C70.4436 20.4509 70.3099 20.4628 70.1786 20.4884C70.131 20.4884 70.1012 20.4884 70.0834 20.4884C70.0655 20.4884 70.0834 20.4468 70.0834 20.4051V20.3753C70.0834 20.292 70.0834 20.2682 70.1965 20.2444C70.3258 20.2191 70.4575 20.2071 70.5893 20.2087C71.0953 20.2087 71.3512 20.4051 71.3512 20.8039V21.5242C71.3274 21.8932 71.0893 22.0718 70.5655 22.0718ZM70.625 21.0003C70.1131 21.0003 69.8869 21.1611 69.8869 21.5242C69.8869 21.8873 70.1191 22.0599 70.5655 22.0599C70.7729 22.0817 70.9817 22.0358 71.1607 21.9289C71.2253 21.8776 71.276 21.811 71.3083 21.7351C71.3405 21.6592 71.3532 21.5765 71.3453 21.4944V20.7742C71.35 20.6936 71.3351 20.613 71.302 20.5394C71.2688 20.4658 71.2183 20.4014 71.1548 20.3515C70.9846 20.2495 70.7873 20.2017 70.5893 20.2146C70.4575 20.213 70.3258 20.225 70.1965 20.2504C70.1072 20.2504 70.0893 20.2861 70.0893 20.3694V20.3992C70.0893 20.4408 70.0893 20.4646 70.0893 20.4765C70.0893 20.4884 70.131 20.4765 70.1786 20.4765C70.3097 20.4483 70.4434 20.4344 70.5774 20.4349C70.9107 20.4349 71.0536 20.5361 71.0536 20.7682V20.9944L70.625 21.0003ZM70.5655 21.8337C70.2857 21.8337 70.1548 21.7325 70.1548 21.5242C70.1548 21.3158 70.2976 21.2027 70.625 21.2027H71.0536V21.4825C71.0536 21.7742 70.8691 21.8337 70.5655 21.8337ZM70.625 21.2384C70.2976 21.2384 70.1607 21.3277 70.1607 21.548C70.1607 21.7682 70.2917 21.8515 70.5655 21.8515C70.8393 21.8515 71.0476 21.7563 71.0476 21.5063V21.2384H70.625ZM70.625 20.048C70.5536 20.048 70.5476 20.048 70.5357 19.9765C70.5238 19.9051 70.5715 19.8456 70.6488 19.7623L70.7024 19.7087C70.7142 19.6992 70.7239 19.6875 70.7311 19.6742C70.7382 19.6609 70.7426 19.6463 70.7441 19.6313C70.7441 19.5658 70.7441 19.542 70.6846 19.5361C70.6368 19.5374 70.59 19.5497 70.5476 19.5718C70.5 19.5718 70.4703 19.5718 70.4405 19.5301V19.5003C70.4405 19.4408 70.4405 19.423 70.4941 19.4051C70.5616 19.3758 70.6348 19.3616 70.7084 19.3634C70.7777 19.3614 70.8454 19.3847 70.8988 19.4289C70.923 19.4564 70.9413 19.4885 70.9525 19.5233C70.9638 19.5581 70.9678 19.5949 70.9643 19.6313C70.9589 19.6713 70.9456 19.7097 70.9252 19.7445C70.9047 19.7792 70.8776 19.8095 70.8453 19.8337C70.7958 19.8653 70.7598 19.914 70.7441 19.9706C70.7427 19.9891 70.7347 20.0065 70.7216 20.0196C70.7085 20.0327 70.6911 20.0406 70.6726 20.042L70.625 20.048ZM70.6667 19.5301C70.7024 19.5301 70.7381 19.5301 70.7381 19.6313C70.7328 19.6639 70.7159 19.6935 70.6905 19.7146L70.6369 19.7682C70.5596 19.8456 70.5179 19.8873 70.5238 19.9706C70.5298 20.0539 70.5238 20.0361 70.6072 20.0361C70.6237 20.0337 70.639 20.026 70.6508 20.0142C70.6626 20.0024 70.6703 19.9871 70.6726 19.9706C70.6881 19.9123 70.724 19.8616 70.7738 19.8277C70.8073 19.8078 70.8363 19.7811 70.8588 19.7493C70.8814 19.7175 70.897 19.6814 70.9048 19.6432C70.9078 19.6077 70.9035 19.572 70.8923 19.5382C70.881 19.5045 70.863 19.4733 70.8393 19.4468C70.7889 19.4014 70.7225 19.3778 70.6548 19.3813C70.5812 19.3794 70.5081 19.3937 70.4405 19.423C70.3988 19.423 70.375 19.4587 70.3929 19.5123C70.3929 19.5658 70.4465 19.5658 70.4881 19.5539C70.5441 19.5288 70.6061 19.5205 70.6667 19.5301Z" fill="#009EDB"/>
<path d="M71.9822 21.9173C71.9822 22.0126 71.9822 22.0304 71.8631 22.0304H71.8215C71.7322 22.0304 71.7084 22.0304 71.7084 21.9173V20.8876C71.7084 20.4352 71.9643 20.209 72.4643 20.209C72.9643 20.209 73.2203 20.4471 73.2203 20.8876V21.9173C73.2203 22.0126 73.2203 22.0304 73.1012 22.0304H73.0596C72.9584 22.0304 72.9405 22.0304 72.9405 21.9173V20.8876C72.9405 20.5959 72.8334 20.4649 72.4643 20.4649C72.0953 20.4649 71.9822 20.6018 71.9822 20.8876V21.9173Z" fill="#009EDB"/>
<path d="M73.1012 22.0229H73.0596C72.9584 22.0229 72.9405 22.0229 72.9405 21.9039V20.886C72.9405 20.5825 72.8096 20.4694 72.4643 20.4694C72.1191 20.4694 71.9822 20.5825 71.9822 20.886V21.9158C71.9822 22.011 71.9822 22.0348 71.8631 22.0348H71.8215C71.7322 22.0348 71.7024 22.0348 71.7024 21.9158V20.886C71.7024 20.4337 71.9584 20.2015 72.4643 20.2015C72.5704 20.1906 72.6776 20.2008 72.7798 20.2314C72.8819 20.2621 72.977 20.3126 73.0596 20.3801C73.124 20.4466 73.1733 20.5262 73.2042 20.6135C73.235 20.7009 73.2466 20.7938 73.2381 20.886V21.9158C73.2203 22.0229 73.2024 22.0229 73.1012 22.0229ZM72.4643 20.4456C72.8155 20.4456 72.9465 20.5646 72.9465 20.8741V21.9039C72.9465 21.9991 72.9465 22.011 73.0596 22.011H73.1012C73.1965 22.011 73.2143 22.011 73.2143 21.9039V20.886C73.2215 20.7953 73.2099 20.7041 73.1802 20.618C73.1505 20.532 73.1034 20.453 73.0417 20.386C72.9587 20.3196 72.8634 20.2701 72.7613 20.2405C72.6591 20.2109 72.5522 20.2017 72.4465 20.2134C72.2339 20.1894 72.0204 20.2491 71.8512 20.3801C71.785 20.4458 71.7337 20.525 71.7008 20.6123C71.6679 20.6996 71.6543 20.793 71.6608 20.886V21.9158C71.6608 22.011 71.6905 22.0229 71.7739 22.0229H71.8155C71.9108 22.0229 71.9286 22.0229 71.9286 21.9158V20.886C71.9762 20.5765 72.0953 20.4575 72.4643 20.4575V20.4456Z" fill="#009EDB"/>
<path d="M74.6429 19.6425C74.6429 19.5413 74.6429 19.5234 74.7619 19.5234H74.8036C74.8988 19.5234 74.9167 19.5234 74.9167 19.6425V20.4818C74.9853 20.3919 75.0766 20.322 75.1812 20.2791C75.2858 20.2362 75.4 20.2219 75.5119 20.2377C75.9524 20.2377 76.1786 20.4461 76.1786 20.8746V21.9461C76.1786 22.0413 76.1786 22.0592 76.0655 22.0592H76.0179C75.9226 22.0592 75.9048 22.0592 75.9048 21.9461V20.8746C75.9048 20.5889 75.7738 20.4639 75.4405 20.4639C75.1072 20.4639 74.9405 20.6008 74.9405 20.9342V21.9163C74.9405 22.0115 74.9405 22.0294 74.8274 22.0294H74.7857C74.6905 22.0294 74.6667 22.0294 74.6667 21.9163L74.6429 19.6425Z" fill="#009EDB"/>
<path d="M76.0417 22.0235H75.9941C75.8988 22.0235 75.875 22.0235 75.875 21.9045V20.8747C75.875 20.5831 75.7441 20.47 75.4167 20.47C75.0893 20.47 74.9226 20.6069 74.9226 20.9342V21.9164C74.9226 22.0116 74.9226 22.0354 74.8036 22.0354H74.7619C74.6726 22.0354 74.6429 22.0354 74.6429 21.9164V19.6426C74.6429 19.5354 74.6429 19.5176 74.7619 19.5176H74.8036C74.8988 19.5176 74.9226 19.5176 74.9226 19.6426V20.47C74.9924 20.3817 75.084 20.3132 75.1885 20.2714C75.2929 20.2296 75.4065 20.216 75.5179 20.2319C75.9643 20.2319 76.1905 20.4461 76.1905 20.8747V21.9461C76.1607 22.0235 76.1369 22.0235 76.0417 22.0235ZM75.4465 20.4461C75.7798 20.4461 75.9167 20.5711 75.9167 20.8628V21.9045C75.9167 21.9997 75.9167 22.0116 76.0238 22.0116H76.0715C76.1667 22.0116 76.1786 22.0116 76.1786 21.9045V20.8331C76.1786 20.4104 75.9584 20.2021 75.5179 20.2021C75.4059 20.1863 75.2918 20.2006 75.1872 20.2434C75.0826 20.2863 74.9913 20.3563 74.9226 20.4461V19.6426C74.9226 19.5473 74.9226 19.5295 74.8155 19.5295H74.7738C74.6846 19.5295 74.6607 19.5295 74.6607 19.6426V21.9461C74.6607 22.0414 74.6607 22.0533 74.7738 22.0533H74.8155C74.9048 22.0533 74.9226 22.0533 74.9226 21.9461V20.9342C74.9107 20.6009 75.0715 20.4581 75.4167 20.4581L75.4465 20.4461Z" fill="#009EDB"/>
<path d="M76.5417 21.3039V20.9706C76.5417 20.4646 76.8036 20.2087 77.3393 20.2087C77.4874 20.1868 77.6385 20.2132 77.7704 20.2839C77.9023 20.3547 78.0078 20.4661 78.0714 20.6015C78.125 20.6015 78.1786 20.5063 78.1786 20.3158C78.1786 20.2622 78.1786 20.2444 78.2619 20.2444H78.3215C78.3869 20.2444 78.3988 20.2444 78.3988 20.3158C78.3988 20.6075 78.2798 20.7503 78.1131 20.7979C78.1195 20.8553 78.1195 20.9132 78.1131 20.9706V21.3039C78.1131 21.8158 77.8512 22.0658 77.3274 22.0658C76.8036 22.0658 76.5417 21.8039 76.5417 21.3039ZM77.8572 20.9706C77.8572 20.6194 77.7322 20.4646 77.3393 20.4646C76.9464 20.4646 76.8095 20.6194 76.8095 20.9706V21.3039C76.8095 21.6551 76.9405 21.8098 77.3393 21.8098C77.7381 21.8098 77.8572 21.6551 77.8572 21.3039V20.9706Z" fill="#009EDB"/>
<path d="M77.3393 22.0706C76.7917 22.0706 76.5357 21.8265 76.5357 21.3027V20.9694C76.5263 20.8615 76.5394 20.7529 76.5743 20.6504C76.6091 20.548 76.6649 20.4539 76.7381 20.3741C76.9049 20.2369 77.1179 20.1688 77.3334 20.1837C77.7262 20.1837 77.9584 20.3087 78.0655 20.5765C78.1369 20.5467 78.1667 20.4515 78.1667 20.2967C78.1667 20.2372 78.1667 20.2194 78.256 20.2194H78.3155C78.381 20.2194 78.3988 20.2194 78.3988 20.2967C78.3988 20.5587 78.3036 20.7253 78.1131 20.7848C78.1163 20.8404 78.1163 20.896 78.1131 20.9515V21.2848C78.1288 21.3906 78.1197 21.4986 78.0865 21.6002C78.0534 21.7018 77.9971 21.7944 77.9221 21.8706C77.847 21.9468 77.7554 22.0045 77.6542 22.0392C77.5531 22.0739 77.4453 22.0846 77.3393 22.0706ZM77.3393 20.2134C77.1244 20.195 76.9109 20.2612 76.7441 20.3979C76.6707 20.4773 76.6151 20.5716 76.5813 20.6742C76.5474 20.7769 76.5359 20.8857 76.5476 20.9932V21.3265C76.5476 21.8444 76.7976 22.0825 77.3393 22.0825C77.5541 22.1002 77.7675 22.0341 77.9345 21.8979C78.008 21.8185 78.0635 21.7243 78.0974 21.6216C78.1312 21.519 78.1427 21.4102 78.131 21.3027V20.9694C78.1341 20.9119 78.1341 20.8542 78.131 20.7967C78.3215 20.7372 78.4107 20.5765 78.4107 20.3146C78.4107 20.261 78.4107 20.2491 78.3393 20.2491H78.2798C78.2203 20.2491 78.2024 20.2491 78.2024 20.3146C78.2024 20.4753 78.1667 20.5706 78.0893 20.6063C77.9584 20.3384 77.7322 20.2372 77.3393 20.2372V20.2134ZM77.3393 21.8146C76.9584 21.8146 76.8095 21.6717 76.8095 21.3027V20.9694C76.8095 20.6003 76.9524 20.4575 77.3393 20.4575C77.7262 20.4575 77.8572 20.6003 77.8572 20.9694V21.3027C77.8572 21.6777 77.7203 21.8146 77.3393 21.8146ZM77.3393 20.4694C76.9584 20.4694 76.8155 20.6003 76.8155 20.9694V21.3027C76.8155 21.6658 76.9643 21.8027 77.3393 21.8027C77.7143 21.8027 77.8512 21.6717 77.8512 21.3027V20.9694C77.8512 20.6003 77.7143 20.4694 77.3393 20.4694Z" fill="#009EDB"/>
<path d="M78.7857 21.9173C78.7857 22.0126 78.7857 22.0304 78.6667 22.0304H78.6429C78.5536 22.0304 78.5298 22.0304 78.5298 21.9173V20.8876C78.5298 20.4352 78.7798 20.209 79.2857 20.209C79.7917 20.209 80.0417 20.4471 80.0417 20.8876V21.9173C80.0417 22.0126 80.0417 22.0304 79.9226 22.0304H79.881C79.7798 22.0304 79.7619 22.0304 79.7619 21.9173V20.8876C79.7619 20.5959 79.6548 20.4649 79.2857 20.4649C78.9167 20.4649 78.8036 20.6018 78.8036 20.8876L78.7857 21.9173Z" fill="#009EDB"/>
<path d="M79.9048 22.0229H79.8631C79.7619 22.0229 79.744 22.0229 79.744 21.9039V20.886C79.744 20.5825 79.6131 20.4694 79.2679 20.4694C78.9226 20.4694 78.7857 20.5825 78.7857 20.886V21.9158C78.7857 22.011 78.7857 22.0348 78.6667 22.0348H78.6429C78.5536 22.0348 78.5238 22.0348 78.5238 21.9158V20.886C78.5238 20.4337 78.7798 20.2015 79.2857 20.2015C79.3918 20.1906 79.499 20.2008 79.6012 20.2314C79.7033 20.2621 79.7984 20.3126 79.881 20.3801C79.9454 20.4466 79.9947 20.5262 80.0255 20.6135C80.0564 20.7009 80.068 20.7938 80.0595 20.886V21.9158C80.0238 22.0229 80.0059 22.0229 79.9048 22.0229ZM79.2679 20.4456C79.619 20.4456 79.75 20.5646 79.75 20.8741V21.9039C79.75 21.9991 79.75 22.011 79.8631 22.011H79.9048C80 22.011 80.0179 22.011 80.0179 21.9039V20.886C80.0251 20.7953 80.0135 20.7041 79.9838 20.618C79.9541 20.532 79.9069 20.453 79.8452 20.386C79.7622 20.3196 79.6669 20.2701 79.5648 20.2405C79.4627 20.2109 79.3557 20.2017 79.25 20.2134C79.0375 20.1894 78.8239 20.2491 78.6548 20.3801C78.5885 20.4458 78.5372 20.525 78.5043 20.6123C78.4714 20.6996 78.4578 20.793 78.4643 20.886V21.9158C78.4643 22.011 78.494 22.0229 78.5774 22.0229H78.6429C78.7381 22.0229 78.756 22.0229 78.756 21.9158V20.886C78.7798 20.5765 78.9167 20.4575 79.2679 20.4575V20.4456Z" fill="#009EDB"/>
</g>
<defs>
<clipPath id="clip0_527_12166">
<rect width="82.3333" height="25" fill="white" transform="translate(0.666687)"/>
</clipPath>
</defs>
</svg>
