<svg width="26" height="27" viewBox="0 0 16 17" fill="none" xmlns="http://www.w3.org/2000/svg">
<path fill-rule="evenodd" clip-rule="evenodd" d="M13.8666 10.9001L12.8 11.0067C12.8 10.9534 12.8 10.9534 12.8 10.9001C12.8 10.7934 12.8 10.6867 12.7466 10.6334H12.8H13.3333V8.50006H10.1333V10.6334H10.1866C10.3466 9.94006 11.04 9.46006 11.7866 9.62006C12.5333 9.78006 12.96 10.4734 12.8 11.2201C12.64 11.9134 11.9466 12.3934 11.2 12.2334C10.6666 12.1267 10.2933 11.7001 10.1866 11.1667H9.91997H6.39997C6.39997 11.0601 6.39997 11.0067 6.4533 10.9001C6.4533 11.6467 5.86663 12.2334 5.11997 12.2334C4.3733 12.2334 3.7333 11.6467 3.7333 10.9001C3.7333 11.0067 3.7333 11.0601 3.78663 11.1667H2.39997C2.23997 11.1667 2.1333 11.0601 2.1333 10.9001V5.03339C2.1333 4.87339 2.23997 4.76672 2.39997 4.76672H9.86663C10.0266 4.76672 10.1333 4.87339 10.1333 5.03339V5.83339H11.9466C12 5.83339 12.1066 5.88672 12.16 5.94006L13.8666 7.96672V8.07339C13.8666 8.12672 13.8666 8.12672 13.8666 8.18006V10.9001ZM5.06663 11.7001C5.4933 11.7001 5.86663 11.3267 5.86663 10.9001C5.86663 10.4734 5.4933 10.1001 5.06663 10.1001C4.63997 10.1001 4.26663 10.4734 4.26663 10.9001C4.26663 11.3267 4.63997 11.7001 5.06663 11.7001ZM9.59997 5.30006H2.66663V10.6334H3.7333H3.78663C3.94663 9.94006 4.63997 9.46006 5.38663 9.62006C5.86663 9.72672 6.2933 10.1001 6.39997 10.6334H9.6533V5.30006H9.59997ZM11.4666 11.7001C11.8933 11.7001 12.2666 11.3267 12.2666 10.9001C12.2666 10.4734 11.8933 10.1001 11.4666 10.1001C11.04 10.1001 10.6666 10.4734 10.6666 10.9001C10.6666 11.3267 11.04 11.7001 11.4666 11.7001ZM11.7333 6.36672H10.1333V7.96672H13.0666L11.7333 6.36672Z" fill="#333333"/>
<path d="M3.89303 7.91337C5.57197 7.91337 6.93303 6.55232 6.93303 4.87337C6.93303 3.19443 5.57197 1.83337 3.89303 1.83337C2.21408 1.83337 0.853027 3.19443 0.853027 4.87337C0.853027 6.55232 2.21408 7.91337 3.89303 7.91337Z" fill="white"/>
<path d="M3.8932 8.17998C2.02654 8.17998 0.533203 6.68665 0.533203 4.87332C0.533203 3.05998 2.02654 1.56665 3.83987 1.56665C5.6532 1.56665 7.14653 3.05998 7.14653 4.87332C7.14653 6.68665 5.70654 8.17998 3.8932 8.17998ZM3.8932 2.04665C2.34654 2.04665 1.06654 3.32665 1.06654 4.87332C1.06654 6.41998 2.2932 7.64665 3.83987 7.64665C5.38654 7.64665 6.6132 6.41998 6.6132 4.87332C6.6132 3.32665 5.43987 2.04665 3.8932 2.04665Z" fill="#333333"/>
<path d="M4.90646 6.36666C4.7998 6.36666 4.74646 6.31333 4.69313 6.25999L3.6798 5.24666C3.62646 5.19333 3.62646 5.13999 3.62646 5.03333V3.64666C3.62646 3.48666 3.78646 3.32666 3.94646 3.32666C4.10646 3.32666 4.26646 3.43333 4.26646 3.64666V4.87333L5.17313 5.77999C5.2798 5.88666 5.2798 6.09999 5.17313 6.25999C5.1198 6.31333 5.01313 6.36666 4.90646 6.36666Z" fill="#333333"/>
</svg>
