<?xml version="1.0" standalone="no"?>
<!DOCTYPE svg PUBLIC "-//W3C//DTD SVG 20010904//EN"
 "http://www.w3.org/TR/2001/REC-SVG-20010904/DTD/svg10.dtd">
<svg version="1.0" xmlns="http://www.w3.org/2000/svg"
 width="512.000000pt" height="512.000000pt" viewBox="0 0 512.000000 512.000000"
 preserveAspectRatio="xMidYMid meet">

<g transform="translate(0.000000,512.000000) scale(0.100000,-0.100000)"
fill="#000000" stroke="none">
<path d="M755 4700 c-194 -41 -352 -179 -417 -368 l-23 -67 0 -1310 0 -1310
26 -67 27 -68 -125 0 c-149 0 -190 -15 -224 -81 -20 -40 -20 -53 -17 -313 4
-248 6 -276 26 -330 62 -168 186 -291 350 -348 l67 -23 2115 0 2115 0 67 23
c164 57 288 180 350 348 20 54 22 82 26 330 3 260 3 273 -17 313 -34 66 -75
81 -224 81 l-125 0 27 67 26 68 0 1310 0 1310 -23 67 c-57 163 -178 286 -348
350 l-59 23 -1790 1 c-984 1 -1808 -2 -1830 -6z m3590 -307 c29 -9 66 -33 90
-58 80 -80 75 15 75 -1375 0 -1390 5 -1295 -75 -1375 -81 -81 75 -75 -1875
-75 -1950 0 -1794 -6 -1875 75 -80 80 -75 -15 -75 1375 0 1390 -5 1295 75
1375 79 79 -76 73 1871 74 1595 1 1744 0 1789 -16z m475 -3326 c0 -172 -13
-220 -75 -282 -81 -82 112 -75 -2185 -75 -2297 0 -2104 -7 -2185 75 -62 62
-75 110 -75 282 l0 143 2260 0 2260 0 0 -143z"/>
<path d="M2088 3789 c-43 -22 -78 -81 -78 -129 0 -45 35 -107 73 -127 24 -14
64 -19 167 -23 l134 -5 91 -545 c56 -334 98 -558 108 -577 21 -40 83 -73 137
-73 l40 0 0 -90 c0 -112 20 -159 80 -190 50 -25 90 -25 140 0 60 31 80 78 80
190 l0 90 250 0 250 0 0 -90 c0 -71 4 -99 20 -130 23 -45 80 -80 130 -80 50 0
107 35 130 80 16 31 20 59 20 130 l0 90 43 0 c57 0 108 29 133 76 16 29 41
159 100 515 l78 476 -19 42 c-10 23 -32 52 -49 64 l-31 22 -715 5 -714 5 -16
95 c-20 116 -39 154 -90 180 -36 18 -58 20 -247 20 -187 -1 -212 -3 -245 -21z
m1791 -596 c0 -10 -21 -144 -47 -298 l-48 -280 -474 0 -474 0 -48 280 c-26
154 -47 288 -47 298 -1 16 33 17 569 17 536 0 570 -1 569 -17z"/>
<path d="M1288 3589 c-43 -22 -78 -81 -78 -129 0 -50 35 -107 80 -130 36 -18
58 -20 270 -20 212 0 234 2 270 20 45 23 80 80 80 130 0 50 -35 107 -80 130
-36 18 -58 20 -272 20 -212 -1 -236 -3 -270 -21z"/>
<path d="M988 2989 c-43 -22 -78 -81 -78 -129 0 -50 35 -107 80 -130 37 -19
58 -20 420 -20 362 0 383 1 420 20 45 23 80 80 80 130 0 50 -35 107 -80 130
-37 19 -58 20 -422 20 -362 -1 -385 -2 -420 -21z"/>
<path d="M1288 2389 c-43 -22 -78 -81 -78 -129 0 -50 35 -107 80 -130 36 -18
58 -20 270 -20 212 0 234 2 270 20 45 23 80 80 80 130 0 50 -35 107 -80 130
-36 18 -58 20 -272 20 -212 -1 -236 -3 -270 -21z"/>
</g>
</svg>
