<svg width="36" height="36" viewBox="0 0 36 36" fill="none" xmlns="http://www.w3.org/2000/svg">
<path d="M24.9029 9.57617C24.8854 9.683 24.8655 9.79222 24.8431 9.90442C24.0733 13.6948 21.4395 15.0042 18.0756 15.0042H16.3629C15.9515 15.0042 15.6049 15.2906 15.5408 15.6798L14.6639 21.0129L14.4155 22.5246C14.3739 22.78 14.5792 23.0104 14.8481 23.0104H17.8858C18.2455 23.0104 18.5511 22.7597 18.6077 22.4195L18.6376 22.2715L19.2096 18.7909L19.2463 18.6C19.3023 18.2586 19.6085 18.0079 19.9682 18.0079H20.4225C23.3656 18.0079 25.6696 16.862 26.343 13.5462C26.6243 12.161 26.4787 11.0043 25.7343 10.1909C25.509 9.9456 25.2296 9.74209 24.9029 9.57617Z" fill="#179BD7"/>
<path d="M24.0978 9.26791C23.9802 9.23509 23.8588 9.20525 23.7343 9.17839C23.6092 9.15213 23.481 9.12886 23.3491 9.10857C22.8873 9.03695 22.3813 9.00293 21.8393 9.00293H17.2637C17.151 9.00293 17.044 9.0274 16.9482 9.07156C16.7372 9.16884 16.5803 9.36042 16.5424 9.59497L15.569 15.507L15.541 15.6795C15.6051 15.2903 15.9518 15.0039 16.3631 15.0039H18.0759C21.4397 15.0039 24.0735 13.6939 24.8434 9.90411C24.8664 9.79191 24.8857 9.6827 24.9031 9.57587C24.7083 9.4768 24.4973 9.39205 24.2702 9.31984C24.2142 9.30193 24.1563 9.28462 24.0978 9.26791Z" fill="#222D65"/>
<path d="M16.5419 9.59485C16.5799 9.3603 16.7367 9.16872 16.9477 9.07204C17.0442 9.02788 17.1506 9.00341 17.2632 9.00341H21.8388C22.3809 9.00341 22.8868 9.03743 23.3486 9.10904C23.4806 9.12933 23.6088 9.15261 23.7339 9.17887C23.8583 9.20573 23.9797 9.23557 24.0973 9.26839C24.1558 9.2851 24.2137 9.30241 24.2703 9.31972C24.4975 9.39193 24.7085 9.47727 24.9033 9.57575C25.1323 8.17503 24.9014 7.22133 24.1116 6.35774C23.241 5.40703 21.6695 5 19.6587 5H13.821C13.4102 5 13.0598 5.28647 12.9964 5.67619L10.5648 20.4562C10.5169 20.7486 10.7521 21.0124 11.0596 21.0124H14.6636L15.5686 15.5069L16.5419 9.59485Z" fill="#253B80"/>
<path d="M6.54214 24.7021H4.24622C4.08911 24.7021 3.95549 24.8066 3.93099 24.9486L3.00241 30.3378C2.98395 30.4441 3.07392 30.54 3.19175 30.54H4.28785C4.44496 30.54 4.57857 30.4355 4.60308 30.2932L4.85352 28.8397C4.87769 28.6974 5.01164 28.5929 5.16842 28.5929H5.89523C7.40761 28.5929 8.28045 27.923 8.5084 26.5955C8.61113 26.0146 8.51276 25.5583 8.21566 25.2387C7.88935 24.8878 7.31058 24.7021 6.54214 24.7021ZM6.80702 26.6704C6.68146 27.4246 6.05201 27.4246 5.44336 27.4246H5.09691L5.33996 26.0162C5.3544 25.9311 5.43497 25.8684 5.52897 25.8684H5.68776C6.10236 25.8684 6.49346 25.8684 6.69556 26.0847C6.81608 26.2138 6.85301 26.4055 6.80702 26.6704Z" fill="#253B80"/>
<path d="M13.3944 26.5078H12.2629C12.1666 26.5078 12.0833 26.575 12.0684 26.6663L12.0184 26.9683L11.9392 26.8588C11.6943 26.5196 11.1481 26.4062 10.6029 26.4062C9.35266 26.4062 8.28479 27.3098 8.07682 28.5772C7.96868 29.2094 8.12242 29.8139 8.4983 30.2355C8.84308 30.6231 9.33642 30.7846 9.92338 30.7846C10.9308 30.7846 11.4894 30.1666 11.4894 30.1666L11.439 30.4666C11.42 30.5813 11.5126 30.6841 11.6331 30.6841H12.6523C12.8143 30.6841 12.9511 30.572 12.9767 30.4194L13.5882 26.7247C13.6075 26.6109 13.5153 26.5078 13.3944 26.5078ZM11.8173 28.6088C11.7081 29.2255 11.1951 29.6395 10.5408 29.6395C10.2122 29.6395 9.94964 29.539 9.78105 29.3485C9.61384 29.1593 9.55027 28.89 9.60347 28.59C9.70539 27.9786 10.2271 27.551 10.8714 27.551C11.1927 27.551 11.4538 27.6529 11.6259 27.8451C11.7983 28.0392 11.8667 28.3102 11.8173 28.6088Z" fill="#253B80"/>
<path d="M18.9484 26.6484H17.8474C17.7424 26.6484 17.6437 26.6972 17.5842 26.7789L16.0657 28.8709L15.422 26.8606C15.3815 26.7348 15.2574 26.6484 15.1169 26.6484H14.035C13.9035 26.6484 13.8122 26.7686 13.854 26.8844L15.0667 30.2129L13.9266 31.7182C13.8369 31.8368 13.9273 31.9998 14.0822 31.9998H15.1818C15.2862 31.9998 15.3839 31.9523 15.4431 31.8722L19.105 26.9285C19.1926 26.8102 19.1027 26.6484 18.9484 26.6484Z" fill="#253B80"/>
<path d="M22.52 24.7021H20.328C20.1783 24.7021 20.0508 24.8066 20.0274 24.9486L19.141 30.3378C19.1233 30.4441 19.2092 30.54 19.3211 30.54H20.4459C20.5504 30.54 20.6398 30.4669 20.6561 30.3673L20.9077 28.8397C20.9308 28.6974 21.0586 28.5929 21.2083 28.5929H21.9018C23.3458 28.5929 24.1787 27.923 24.3966 26.5955C24.495 26.0146 24.4004 25.5583 24.1168 25.2387C23.8057 24.8878 23.2535 24.7021 22.52 24.7021ZM22.7728 26.6704C22.6533 27.4246 22.0524 27.4246 21.4711 27.4246H21.1407L21.373 26.0162C21.3868 25.9311 21.4631 25.8684 21.5531 25.8684H21.7047C22.1001 25.8684 22.4738 25.8684 22.6667 26.0847C22.7818 26.2138 22.8167 26.4055 22.7728 26.6704Z" fill="#179BD7"/>
<path d="M29.2886 26.5078H28.2092C28.1166 26.5078 28.0378 26.575 28.0239 26.6663L27.9761 26.9683L27.9002 26.8588C27.6664 26.5196 27.1454 26.4062 26.6249 26.4062C25.4314 26.4062 24.4124 27.3098 24.2139 28.5772C24.111 29.2094 24.2571 29.8139 24.6159 30.2355C24.9457 30.6231 25.4159 30.7846 25.9762 30.7846C26.9379 30.7846 27.4712 30.1666 27.4712 30.1666L27.423 30.4666C27.4049 30.5813 27.4933 30.6841 27.609 30.6841H28.5816C28.7356 30.6841 28.8668 30.572 28.8909 30.4194L29.475 26.7247C29.4928 26.6109 29.4044 26.5078 29.2886 26.5078ZM27.7832 28.6088C27.6796 29.2255 27.1892 29.6395 26.5646 29.6395C26.2516 29.6395 26.0003 29.539 25.8394 29.3485C25.6798 29.1593 25.6197 28.89 25.6699 28.59C25.7678 27.9786 26.2651 27.551 26.8802 27.551C27.1869 27.551 27.4362 27.6529 27.6005 27.8451C27.7657 28.0392 27.831 28.3102 27.7832 28.6088Z" fill="#179BD7"/>
<path d="M30.4773 24.8503L29.4811 30.3378C29.4615 30.4441 29.5567 30.54 29.6805 30.54H30.6821C30.8485 30.54 30.9898 30.4355 31.0153 30.2933L31.9977 24.9047C32.0172 24.7983 31.9221 24.7021 31.7982 24.7021H30.6767C30.5777 24.7025 30.4925 24.7651 30.4773 24.8503Z" fill="#179BD7"/>
</svg>
