<?xml version="1.0" encoding="utf-8"?>
<!-- Generator: Adobe Illustrator 24.2.3, SVG Export Plug-In . SVG Version: 6.00 Build 0)  -->
<svg version="1.1" id="Layer_1" xmlns="http://www.w3.org/2000/svg" xmlns:xlink="http://www.w3.org/1999/xlink" x="0px" y="0px"
	 width="193px" height="24px" viewBox="0 0 193 24" style="enable-background:new 0 0 193 24;" xml:space="preserve">
<style type="text/css">
	.st0{fill:#212120;}
	.st1{fill:#353535;}
</style>
<g>
	<g>
		<g>
			<path class="st0" d="M72.8,11.4c0-4.8,3.1-8.1,7.6-8.1c2.3,0,4.4,0.8,6,2.1V1.7c-1.7-1-3.7-1.5-6-1.5c-6.6,0-11.3,4.6-11.3,11.3
				c0,6.8,4.5,11.3,11.3,11.3c2.4,0,4.5-0.5,6.2-1.6v-3.7c-1.7,1.4-3.7,2.1-6.1,2.1C76,19.6,72.8,16.2,72.8,11.4z"/>
			<polygon class="st0" points="103.5,9.8 103.5,9.8 103.5,9.8 			"/>
			<polygon class="st0" points="93.8,19.3 93.8,19.1 93.8,13 93.8,12.8 94,12.8 102.9,12.8 102.9,9.8 94,9.8 93.8,9.8 93.8,9.7 
				93.8,3.7 93.8,3.6 94,3.6 103.6,3.6 103.6,0.5 90.3,0.5 90.3,22.4 103.8,22.4 103.8,19.3 94,19.3 			"/>
			<polygon class="st0" points="90.7,0.4 90.7,0.4 90.7,0.4 			"/>
			<path class="st0" d="M109.7,6.1c0-1.8,1.4-3,3.6-3c1.9,0,3.6,0.6,5.5,2.1V1.8c-1.7-1.1-3.5-1.6-5.6-1.6c-3.5,0-7,1.9-7,6.1
				c0,3.5,1.6,5.2,6.2,6.6c2.2,0.7,4.2,1.4,4.2,3.7c0,2-1.6,3.2-4.3,3.2c-2.5,0-4.3-1.1-5.8-2.1v3.5c1.5,1,3.6,1.6,5.8,1.6
				c4.8,0,7.7-2.4,7.7-6.3c0-3.6-1.7-5.4-6.2-6.8C111.1,8.8,109.7,8,109.7,6.1z"/>
			<path class="st0" d="M131.7,19.3L132,19c6.1-4.5,9.1-8.7,9.1-12.5c0-3.9-2.6-6.3-6.7-6.3c-2.5,0-4.9,0.8-6.6,2.4v3.4
				c1.2-1,3.3-2.5,5.8-2.5c2.4,0,3.7,1.3,3.7,3.6c0,4.1-4.9,8.3-10.2,12.8v2.6h14.4v-3.1h-9.6H131.7z"/>
			<polygon class="st0" points="143,19.2 143,19.2 143,19.2 			"/>
			<path class="st0" d="M152.5,0.2c-5,0-8.4,4.5-8.4,11.3c0,6.8,3.4,11.3,8.4,11.3c5,0,8.4-4.5,8.4-11.3
				C160.8,4.7,157.5,0.2,152.5,0.2z M152.5,19.8c-3,0-4.8-3.2-4.8-8.3c0-5.1,1.9-8.3,4.8-8.3c3,0,4.9,3.3,4.9,8.3
				C157.3,16.5,155.4,19.8,152.5,19.8z"/>
			<polygon class="st0" points="177.7,19.2 177.7,19.2 177.7,19.2 			"/>
			<path class="st0" d="M166.3,19.3l0.3-0.2c6.1-4.5,9.1-8.7,9.1-12.5c0-3.9-2.6-6.3-6.7-6.3c-2.5,0-4.9,0.8-6.5,2.4v3.4
				c1.2-1,3.3-2.5,5.8-2.5c2.4,0,3.8,1.3,3.8,3.6c0,4.1-4.9,8.3-10.2,12.8v2.6h14.4v-3.1h-9.6H166.3z"/>
			<path class="st0" d="M182.8,19c6.1-4.5,9.1-8.7,9.1-12.5c0-3.9-2.6-6.3-6.7-6.3c-2.5,0-4.9,0.8-6.5,2.4v3.4
				c1.2-1,3.3-2.5,5.8-2.5c2.4,0,3.8,1.3,3.8,3.6c0,4.1-4.9,8.3-10.2,12.8v2.6h14.4v-3.1h-9.6h-0.4L182.8,19z"/>
		</g>
	</g>
	<polygon class="st1" points="55.1,13.2 55.1,13.2 61,4.5 57.8,4.5 53.6,10.9 53.5,11 53.4,10.9 49.2,4.5 45.9,4.5 51.8,13.2 
		51.8,13.2 51.8,13.3 45.4,22.7 48.6,22.7 53.3,15.7 53.4,15.5 53.5,15.7 58.2,22.7 61.5,22.7 55.1,13.3 	"/>
	<g>
		<g>
			<polygon class="st0" points="5.2,0.5 0,0.5 0,23.5 16,23.5 16,19 5.2,19 			"/>
		</g>
		<g>
			<g>
				<path class="st0" d="M27.5,14.7h4.2v4C31,19,29.4,19.3,28,19.3c-4.7,0-6.3-2.4-6.3-7.4c0-4.7,1.5-7.5,6.2-7.5
					c2.6,0,4.1,0.8,5.3,2.4l3.2-3c-2-2.9-5.4-3.8-8.7-3.8c-7.3,0-11.1,4.1-11.1,11.8c0,7.7,3.5,11.9,11.1,11.9
					c3.5,0,6.9-0.9,8.8-2.2V10.4h-9.1V14.7z"/>
			</g>
		</g>
	</g>
</g>
</svg>
